<svg width="46" height="46" viewBox="0 0 46 46" fill="none" xmlns="http://www.w3.org/2000/svg">
<path d="M11.801 22.72H3.57098V23.8101H11.801V22.72Z" fill="white"/>
<path d="M45.581 22.72H37.351V23.8101H45.581V22.72Z" fill="white"/>
<path d="M15.371 34.1799H11.281V14.46H15.371V34.1799ZM12.331 33.1299H14.321V15.51H12.331V33.1299Z" fill="white"/>
<path d="M24.131 35.3601C24.051 35.3601 16.341 35.0201 14.341 27.1201L14.321 26.99V20.6499L14.371 20.55C14.511 20.23 17.951 12.7701 24.871 13.0901L24.821 14.1299C19.001 13.8399 15.781 20.0299 15.361 20.8799V26.9199C17.181 33.9799 23.8709 34.3001 24.1609 34.3101L24.131 35.3501V35.3601Z" fill="white"/>
<path d="M24.151 28.76V31.77L23.451 31.5601L22.321 32.01L21.481 31.1201L20.011 31.1699V29.99L18.701 29.96V28.9099L17.491 27.9399L17.831 26.79L16.701 25.77L17.281 24.77L16.391 23.5601L17.281 22.5601L16.891 21.4299L17.861 20.5901L17.441 19.5901L18.781 19.0701L18.681 17.97L20.121 17.6299L20.271 16.6101H21.741L22.531 15.8201L22.901 16.1299C22.901 16.1299 23.851 15.95 24.151 16.03V18.5C24.151 18.5 20.3309 19.3701 20.4109 24.0901C20.4109 24.0901 20.001 27.67 24.151 28.77V28.76Z" fill="white"/>
<path d="M28.871 15.9299V33.34C28.871 33.34 30.5109 35.0199 29.2209 35.5099C29.2209 35.5099 27.0209 35.7899 26.9109 34.9499V14.2499C26.9109 14.2499 28.671 12.49 30.001 13.54C30.001 13.54 30.561 14.3499 28.861 15.9299H28.871Z" fill="white"/>
<path d="M34.501 13.9V34.7801C34.501 34.7801 33.661 36.11 31.771 35.16C31.771 35.16 31.561 34.2501 32.891 33.0601V16.14C32.891 16.14 31.461 13.6 32.791 13.21C32.791 13.21 33.661 12.92 34.501 13.9Z" fill="white"/>
<path d="M35.151 35.5501V13.9801C35.151 13.9801 36.641 12.9101 37.651 13.7201C37.651 13.7201 38.281 14.5201 36.951 15.7101V33.1002C36.951 33.1002 37.771 34.1202 37.351 35.1202C37.351 35.1202 36.801 36.0601 35.151 35.5501Z" fill="white"/>
<path d="M26.281 14.04V34.9199C26.281 34.9199 25.021 35.8599 23.971 34.9199C23.971 34.9199 23.231 34.1201 24.601 32.3301V12.9199L26.661 13.79C26.661 13.79 26.351 13.88 26.281 14.03V14.04Z" fill="white"/>
<path d="M24.611 13.54H23.781V16.1399H24.611V13.54Z" fill="white"/>
<path d="M33.371 22.5H28.251V25.0601H33.371V22.5Z" fill="white"/>
<path d="M3.11096 28.46L7.16095 27.3401L7.31097 27.8899L5.51099 28.3899L7.62097 29L7.82098 29.74L5.961 29.1499L3.78101 30.9099L3.58099 30.2L5.28101 28.9299L4.48096 28.6699L3.25098 29.01L3.10095 28.46H3.11096Z" fill="white"/>
<path d="M7.88098 29.8301L8.11096 30.3501L6.03101 31.27C5.70101 31.42 5.491 31.5201 5.401 31.5701C5.251 31.6601 5.151 31.7699 5.091 31.8999C5.031 32.0299 5.041 32.1601 5.091 32.3101C5.161 32.4601 5.25097 32.5501 5.37097 32.5801C5.49097 32.6201 5.62099 32.6101 5.76099 32.5701C5.90099 32.5301 6.12096 32.44 6.42096 32.3L8.55096 31.3601L8.78101 31.8799L6.76099 32.78C6.30099 32.98 5.97099 33.1199 5.76099 33.1699C5.56099 33.2299 5.371 33.25 5.211 33.23C5.051 33.21 4.90099 33.1601 4.76099 33.0701C4.63099 32.9801 4.51096 32.8299 4.42096 32.6299C4.31096 32.3799 4.27096 32.18 4.30096 32.01C4.33096 31.85 4.39098 31.7001 4.50098 31.5601C4.60098 31.4301 4.72096 31.31 4.86096 31.23C5.06096 31.1 5.38097 30.94 5.81097 30.75L7.86096 29.8401L7.88098 29.8301Z" fill="white"/>
<path d="M5.63098 34.8501L8.76099 31.96L9.08099 32.4399L6.91095 34.3999L9.60095 33.23L9.98096 33.79L7.81097 35.8301L10.491 34.5601L10.811 35.04L6.93097 36.8L6.60095 36.3L8.901 34.0901L5.97095 35.3701L5.63098 34.8601V34.8501Z" fill="white"/>
<path d="M9.39099 39.5901L8.97095 39.1399L9.50098 38.3101L8.73096 37.48L7.87097 37.96L7.461 37.52L11.291 35.47L11.701 35.9099L9.38098 39.6001L9.39099 39.5901ZM9.901 37.6899L10.781 36.3501L9.38098 37.1299L9.901 37.6899Z" fill="white"/>
<path d="M9.81097 39.9199L12.591 36.77L13.021 37.1499L10.241 40.3L9.81097 39.9199Z" fill="white"/>
<path d="M11.341 41.1799L13.4109 38.3601L12.741 37.8701L13.1609 37.3L14.9709 38.6201L14.551 39.1899L13.881 38.7L11.811 41.52L11.351 41.1799H11.341Z" fill="white"/>
<path d="M16.451 42.3798L16.841 42.85C16.571 43.23 16.301 43.48 16.021 43.6C15.751 43.72 15.471 43.71 15.201 43.58C14.861 43.42 14.661 43.1198 14.611 42.6698C14.551 42.2198 14.671 41.7 14.951 41.1C15.251 40.47 15.591 40.0299 15.971 39.7799C16.351 39.5299 16.721 39.4898 17.081 39.6598C17.391 39.8098 17.581 40.0598 17.651 40.4298C17.691 40.6498 17.671 40.9199 17.581 41.2499L16.991 41.1898C17.051 40.9798 17.061 40.7898 17.021 40.6298C16.981 40.4698 16.891 40.3599 16.751 40.2899C16.561 40.1999 16.361 40.2298 16.151 40.3798C15.941 40.5298 15.721 40.8299 15.511 41.2799C15.281 41.7599 15.181 42.1298 15.201 42.3898C15.221 42.6498 15.321 42.8198 15.511 42.9098C15.651 42.9698 15.791 42.9598 15.951 42.8798C16.111 42.7998 16.281 42.63 16.451 42.37V42.3798Z" fill="white"/>
<path d="M17.111 44.3201L18.311 40.29L18.851 40.45L18.381 42.04L19.451 42.3601L19.921 40.77L20.4709 40.9299L19.271 44.96L18.731 44.8L19.261 43.04L18.191 42.72L17.6609 44.48L17.121 44.3201H17.111Z" fill="white"/>
<path d="M20.211 45.1599L20.831 41L22.901 41.3101L22.801 42.01L21.301 41.79L21.1609 42.71L22.561 42.9199L22.461 43.6201L21.061 43.4099L20.891 44.54L22.451 44.77L22.351 45.47L20.231 45.1599H20.211Z" fill="white"/>
<path d="M23.211 45.5701L23.151 41.3701H24.001L24.551 44.22L25.011 41.3401H25.861L25.921 45.53H25.391L25.341 42.23L24.831 45.55H24.281L23.681 42.26L23.731 45.5701H23.201H23.211Z" fill="white"/>
<path d="M26.741 45.4299L26.251 41.25L26.811 41.1799L27.301 45.3601L26.741 45.4299Z" fill="white"/>
<path d="M29.531 43.3702L30.121 43.5001C30.141 43.9701 30.071 44.3302 29.931 44.5902C29.791 44.8502 29.571 45.0102 29.271 45.0802C28.901 45.1602 28.561 45.0401 28.241 44.7201C27.921 44.4001 27.691 43.9201 27.551 43.2701C27.401 42.5901 27.401 42.0302 27.551 41.6002C27.701 41.1702 27.971 40.9102 28.361 40.8302C28.701 40.7602 29.001 40.8402 29.281 41.0902C29.441 41.2402 29.591 41.4701 29.731 41.7801L29.221 42.1002C29.141 41.8902 29.031 41.74 28.901 41.64C28.771 41.54 28.631 41.5101 28.481 41.5401C28.281 41.5901 28.141 41.7301 28.061 41.9801C27.981 42.2301 28.001 42.5902 28.111 43.0802C28.231 43.6002 28.371 43.95 28.541 44.15C28.711 44.34 28.901 44.4202 29.101 44.3702C29.251 44.3402 29.361 44.2402 29.431 44.0802C29.501 43.9202 29.531 43.6802 29.511 43.3702H29.531Z" fill="white"/>
<path d="M33.621 43.5901L33.041 43.8101L32.4709 43.01L31.421 43.4199L31.551 44.3899L30.991 44.6101L30.501 40.29L31.061 40.0701L33.631 43.5901H33.621ZM32.041 42.4099L31.121 41.0901L31.331 42.6799L32.051 42.3999L32.041 42.4099Z" fill="white"/>
<path d="M34.201 43.27L32.181 39.6201L32.681 39.3401L34.361 42.3701L35.601 41.6799L35.941 42.3L34.201 43.26V43.27Z" fill="white"/>
<path d="M37.521 41.24L34.831 38.01L35.271 37.6499L36.331 38.9199L37.191 38.21L36.131 36.9399L36.571 36.5801L39.261 39.8101L38.821 40.1699L37.641 38.76L36.781 39.47L37.961 40.8799L37.521 41.24Z" fill="white"/>
<path d="M38.3509 37.8201C38.0309 37.5401 37.791 37.2701 37.631 37.0101C37.511 36.8201 37.4309 36.63 37.3709 36.43C37.3109 36.23 37.301 36.06 37.331 35.91C37.361 35.71 37.4609 35.5201 37.6109 35.3401C37.8809 35.0301 38.251 34.91 38.701 34.97C39.151 35.04 39.641 35.3001 40.151 35.7501C40.661 36.2001 40.9809 36.6401 41.1009 37.0801C41.2209 37.5201 41.1509 37.89 40.8709 38.2C40.5909 38.51 40.231 38.6401 39.781 38.5701C39.331 38.5001 38.8509 38.2501 38.3509 37.8001V37.8201ZM38.711 37.3602C39.071 37.6802 39.3909 37.86 39.6709 37.91C39.9509 37.96 40.171 37.91 40.321 37.73C40.471 37.56 40.5009 37.3401 40.4209 37.0701C40.3309 36.8001 40.1109 36.5 39.7409 36.18C39.3809 35.86 39.0609 35.6799 38.7909 35.6299C38.5209 35.5799 38.301 35.6401 38.151 35.8201C38.001 36.0001 37.9609 36.22 38.0409 36.48C38.1309 36.75 38.351 37.0402 38.711 37.3602Z" fill="white"/>
<path d="M38.6609 34.2L38.9709 33.72L40.891 34.95C41.191 35.15 41.391 35.2701 41.491 35.3101C41.651 35.3801 41.801 35.4099 41.931 35.3899C42.071 35.3699 42.181 35.2899 42.261 35.1599C42.351 35.0199 42.371 34.9 42.331 34.77C42.291 34.64 42.221 34.54 42.101 34.45C41.991 34.36 41.791 34.22 41.511 34.04L39.551 32.78L39.861 32.3L41.7209 33.49C42.1509 33.76 42.441 33.9701 42.601 34.1101C42.761 34.2501 42.881 34.39 42.951 34.54C43.021 34.69 43.061 34.84 43.061 35C43.061 35.16 43.001 35.34 42.871 35.52C42.721 35.75 42.571 35.89 42.421 35.96C42.271 36.03 42.111 36.05 41.941 36.04C41.771 36.03 41.611 35.9899 41.461 35.9199C41.241 35.8199 40.931 35.6399 40.531 35.3899L38.641 34.1799L38.6609 34.2Z" fill="white"/>
<path d="M42.571 33.2901L42.731 32.7501C43.001 32.8401 43.211 32.8602 43.371 32.8202C43.531 32.7802 43.651 32.6801 43.721 32.5301C43.801 32.3601 43.801 32.2102 43.731 32.0802C43.661 31.9502 43.561 31.8501 43.421 31.7801C43.331 31.7401 43.241 31.7201 43.171 31.7301C43.091 31.7301 43.011 31.7702 42.921 31.8402C42.861 31.8902 42.741 32 42.561 32.18C42.331 32.41 42.121 32.5502 41.921 32.5902C41.641 32.6502 41.351 32.6101 41.041 32.4701C40.851 32.3801 40.681 32.2602 40.541 32.1102C40.401 31.9602 40.321 31.7902 40.301 31.6102C40.281 31.4302 40.301 31.2401 40.401 31.0401C40.551 30.7201 40.761 30.5201 41.051 30.4601C41.341 30.3901 41.651 30.4402 42.011 30.5902L41.811 31.1202C41.601 31.0502 41.441 31.0402 41.321 31.0702C41.201 31.1002 41.111 31.1902 41.041 31.3402C40.971 31.4902 40.961 31.6301 41.021 31.7601C41.051 31.8401 41.121 31.9101 41.221 31.9501C41.311 31.9901 41.401 32.0001 41.491 31.9801C41.601 31.9501 41.761 31.8302 41.961 31.6202C42.161 31.4102 42.341 31.26 42.491 31.19C42.641 31.12 42.811 31.0802 43.011 31.0802C43.211 31.0802 43.421 31.1501 43.671 31.2601C43.891 31.3601 44.081 31.49 44.231 31.66C44.381 31.83 44.471 32.0101 44.501 32.2001C44.531 32.3901 44.491 32.6002 44.391 32.8202C44.241 33.1402 44.021 33.34 43.711 33.41C43.411 33.48 43.031 33.4401 42.591 33.2701L42.571 33.2901Z" fill="white"/>
<path d="M45.061 30.98L41.031 29.77L41.631 27.77L42.311 27.97L41.871 29.4299L42.761 29.7L43.171 28.3401L43.851 28.54L43.441 29.8999L44.541 30.23L44.991 28.72L45.671 28.9199L45.061 30.97V30.98Z" fill="white"/>
<path d="M1.95099 13.8601C2.06099 13.9901 2.231 14.2201 2.461 14.5701L1.79095 15.02L1.93097 15.27L2.08099 15.51C2.02099 15.61 1.78098 15.78 1.38098 16C1.30098 15.9 1.22098 15.7799 1.13098 15.6499C1.05098 15.5399 0.981001 15.41 0.901001 15.27C0.931001 15.27 0.980955 15.24 1.04095 15.21L1.25098 15.0901C1.42098 14.9901 1.51101 14.9199 1.53101 14.8799L1.51099 14.8401L1.401 14.6201L1.24097 14.3201L1.94098 13.8501L1.95099 13.8601ZM4.88098 14.3201L4.97095 14.3501L5.11096 14.3999L5.26099 14.47L5.461 13.98L6.81097 14.49L5.91095 16.8999C6.07095 17.0699 6.21099 17.27 6.33099 17.48C6.45099 17.69 6.55098 17.93 6.63098 18.2C6.71098 18.46 6.75098 18.71 6.75098 18.96C6.75098 19.2 6.71098 19.4299 6.63098 19.6399C6.48098 20.0299 6.26095 20.2899 5.97095 20.4099C5.68095 20.5299 5.34099 20.5199 4.95099 20.3799C4.77099 20.3099 4.58099 20.2101 4.39099 20.0701C4.20099 19.9301 4.00097 19.7701 3.81097 19.5701C3.59097 19.3501 3.42097 19.15 3.31097 18.96C3.19097 18.77 3.12095 18.5899 3.10095 18.4199C3.16095 18.4399 3.24099 18.4901 3.33099 18.5701C3.38099 18.6101 3.43097 18.66 3.49097 18.71C3.55097 18.76 3.62099 18.8299 3.70099 18.9199C3.96099 19.1799 4.20098 19.36 4.44098 19.45C4.74098 19.56 5.011 19.5399 5.271 19.3799C5.381 19.2999 5.47096 19.2101 5.55096 19.1001C5.63096 18.9901 5.711 18.8499 5.771 18.6899C5.841 18.5099 5.91096 18.1501 5.98096 17.6101L5.95099 17.5901C5.74099 17.5101 5.52098 17.6099 5.32098 17.8899L5.16095 18.1499C5.09095 18.2799 5.021 18.4201 4.961 18.5801C4.821 18.5001 4.68101 18.39 4.53101 18.26C4.45101 18.19 4.37095 18.12 4.29095 18.03C4.21095 17.95 4.12101 17.85 4.03101 17.75L5.08099 14.9399C4.87099 14.9199 4.65098 14.9199 4.44098 14.9299C4.24098 14.9299 4.03096 14.95 3.80096 14.98L3.00098 14.21C3.81098 14.11 4.43098 14.14 4.88098 14.3V14.3201ZM7.36096 19.0701C7.54096 19.2501 7.651 19.4 7.711 19.52C7.691 19.56 7.541 19.6701 7.271 19.8401C7.301 19.9401 7.371 20.0399 7.461 20.1699C7.361 20.3199 7.21097 20.42 6.99097 20.48L6.67096 20.03C6.67096 20.03 6.69099 20.02 6.70099 20.01C6.74099 19.98 6.80098 19.9499 6.88098 19.8999C7.01098 19.8399 7.08095 19.79 7.10095 19.74C7.10095 19.74 7.10095 19.74 7.10095 19.73C7.10095 19.7 7.08097 19.6699 7.06097 19.6399L6.91095 19.3701L7.13098 19.22L7.39099 19.0701H7.36096Z" fill="white"/>
<path d="M6.35095 12.3101L7.82098 13.46L6.60095 15.3401L5.36096 14.53L6.36096 12.99C6.02096 12.87 5.611 12.79 5.151 12.74L4.54095 11.8401C4.61095 11.8401 4.68097 11.8401 4.74097 11.8401C4.80097 11.8401 4.88097 11.8501 4.99097 11.8601C5.07097 11.8601 5.13096 11.8799 5.17096 11.8899C5.30096 11.9099 5.41097 11.9199 5.49097 11.9399C5.65097 11.9799 5.81099 12.0301 5.95099 12.1001C6.10099 12.1601 6.23096 12.2401 6.36096 12.3201L6.35095 12.3101ZM8.70099 14.3301C8.85099 14.5501 8.97095 14.78 9.04095 15C8.99095 15.04 8.89097 15.0899 8.74097 15.1399L8.41095 15.24L8.48096 15.4199L8.591 15.6799C8.421 15.8099 8.19096 15.8899 7.92096 15.8999L7.61096 15.23C7.80096 15.21 8.001 15.1601 8.211 15.0601C8.211 15.0001 8.18099 14.91 8.14099 14.8C8.08099 14.68 8.05095 14.59 8.04095 14.54L8.711 14.3201L8.70099 14.3301Z" fill="white"/>
<path d="M9.771 11.0702L9.51099 11.38L9.75098 11.8302L10.001 12.2902C10.181 12.7202 10.181 13.0401 10.011 13.2301C9.86099 13.4001 9.65097 13.5902 9.37097 13.8002C9.06097 14.0102 8.81097 14.14 8.62097 14.17C9.15097 13.54 9.331 12.7502 9.151 11.7902C8.841 12.0802 8.63098 12.2502 8.50098 12.3002C8.25098 12.4202 7.99096 12.36 7.73096 12.14C7.59096 12.02 7.44096 11.8601 7.30096 11.6801C7.16096 11.4901 7.01096 11.2701 6.86096 11.0001C6.51096 10.3801 6.43097 9.96011 6.62097 9.74011C6.75097 9.59011 7.05101 9.61017 7.53101 9.80017C7.57101 9.82017 7.64097 9.85002 7.74097 9.90002C7.81097 9.94002 7.881 9.97013 7.961 10.0101C7.991 10.0301 8.06096 10.07 8.17096 10.14C8.28096 10.21 8.38099 10.2702 8.45099 10.3102L8.63098 10.1002L9.76099 11.0602L9.771 11.0702ZM7.99097 10.7801C7.99097 10.7801 7.92097 10.7301 7.87097 10.7101C7.82097 10.6901 7.76097 10.68 7.68097 10.67C7.54097 10.64 7.44099 10.6701 7.39099 10.7201C7.38099 10.7301 7.37097 10.7602 7.37097 10.7902V10.88C7.37097 10.96 7.37099 11.0102 7.39099 11.0402C7.46099 11.1002 7.55096 11.1202 7.67096 11.0902C7.76096 11.0602 7.85096 11.0201 7.92096 10.9501C7.99096 10.8601 8.02097 10.8001 7.99097 10.7701V10.7801Z" fill="white"/>
<path d="M11.731 9.33008L11.271 9.73999L10.291 9.48999L10.551 10.3899L9.47095 11.3601L8.48096 10.26L9.53101 9.31006L7.53101 9.1001L6.79095 7.70996L8.05096 5.54004L8.26099 5.91992C8.36099 6.09992 8.46096 6.28998 8.55096 6.47998L7.67096 8.20996L9.04095 8.38989C9.61095 8.46989 10.071 8.49999 10.431 8.48999L10.731 8.21997L11.7209 9.32007L11.731 9.33008Z" fill="white"/>
<path d="M10.771 5.40991L10.861 6.56006L11.781 7.67993C11.831 7.74993 11.941 7.94001 12.101 8.26001C12.261 8.58001 12.351 8.7801 12.351 8.8501L12.241 9.02002L11.451 9.59009L10.591 8.38989L11.261 7.90991V7.87988L11.241 7.8501C11.011 7.5301 10.751 7.21992 10.461 6.91992C10.101 6.55992 9.78102 6.35004 9.51102 6.29004L9.40103 5.8999C9.40103 5.8999 9.381 5.81001 9.371 5.76001C9.361 5.71001 9.35103 5.67012 9.34103 5.62012C9.26103 5.29012 9.25099 5.06996 9.30099 4.95996L9.42099 5.11011C9.51099 5.23011 9.71098 5.32011 10.041 5.36011C10.161 5.38011 10.281 5.38989 10.401 5.38989C10.501 5.38989 10.611 5.39012 10.751 5.37012L10.781 5.41992L10.771 5.40991Z" fill="white"/>
<path d="M13.261 6.34009C13.641 6.99009 13.821 7.58988 13.791 8.12988L11.801 5.36011C11.751 5.29011 11.681 4.80991 11.581 3.90991C12.421 5.04991 12.991 5.86008 13.261 6.33008V6.34009Z" fill="white"/>
<path d="M19.281 4.28003L19.311 5.77002L16.791 6.57007C16.281 6.73007 15.891 6.38001 15.621 5.51001C15.531 5.23001 15.471 4.91004 15.451 4.54004C15.411 4.07004 15.461 3.7799 15.591 3.6499C15.621 3.7399 15.651 3.86002 15.681 4.02002C15.711 4.18002 15.741 4.30991 15.781 4.40991C15.841 4.58991 15.951 4.7499 16.121 4.8999C16.311 5.0599 16.491 5.11005 16.671 5.05005L18.731 4.3999V4.37012C18.691 4.24012 18.511 3.98988 18.171 3.62988L18.271 2.46997C18.711 2.89997 18.961 3.22995 19.031 3.44995L19.301 4.29004L19.281 4.28003ZM17.561 2.08008C17.531 2.21008 17.501 2.33997 17.461 2.46997C17.421 2.59997 17.381 2.73988 17.321 2.87988C17.221 2.87988 17.091 2.85005 16.931 2.80005L16.541 2.66992C16.471 2.79992 16.401 2.96994 16.331 3.18994L16.181 3.15991L15.911 3.07007C15.681 3.00007 15.561 2.94991 15.541 2.90991C15.541 2.87991 15.611 2.61011 15.801 2.11011C16.211 2.29011 16.441 2.3701 16.501 2.3501L16.521 2.32007L16.631 2.1001L16.761 1.79004L17.551 2.06006L17.561 2.08008Z" fill="white"/>
<path d="M21.441 5.41992L20.431 5.59009L19.511 1.68994C19.511 1.62994 19.551 1.45992 19.671 1.16992L19.901 0.620117L20.741 4.04004L21.201 3.95996L21.451 5.41992H21.441Z" fill="white"/>
<path d="M23.191 3.41992L23.1609 5.29004L20.931 5.44995L20.821 3.97998L22.6609 3.8501V3.83008C22.5409 3.50008 22.361 3.12997 22.121 2.71997L22.4709 1.68994C22.5109 1.74994 22.551 1.80011 22.591 1.86011C22.621 1.91011 22.6709 1.98007 22.7209 2.07007C22.7609 2.14007 22.791 2.18998 22.811 2.22998C22.881 2.34998 22.931 2.44002 22.961 2.52002C23.031 2.67002 23.081 2.82998 23.121 2.97998C23.161 3.13998 23.181 3.28994 23.191 3.43994V3.41992ZM23.001 6.51001C22.911 6.77001 22.801 6.98994 22.671 7.18994C22.611 7.17994 22.511 7.13003 22.381 7.03003L22.101 6.82007L22.001 6.97998L21.861 7.21997C21.651 7.15997 21.461 7.03007 21.281 6.82007L21.631 6.16992C21.761 6.30992 21.921 6.44005 22.131 6.55005C22.171 6.51005 22.231 6.44009 22.291 6.34009C22.351 6.22009 22.401 6.1401 22.431 6.1001L23.011 6.5L23.001 6.51001Z" fill="white"/>
<path d="M26.201 3.83017C26.181 4.14017 26.141 4.44008 26.081 4.74008C26.051 4.91008 26.0109 5.06004 25.9709 5.20004C25.9309 5.34004 25.871 5.50001 25.801 5.67001C25.491 6.50001 25.111 6.90998 24.651 6.88998C24.201 6.86998 23.711 6.75012 23.191 6.53012L22.981 6.44003L22.961 6.42001L22.931 6.3602L23.631 6.30014C24.331 6.00014 24.861 5.6802 25.211 5.3602C25.561 5.0302 25.741 4.70019 25.761 4.35019L25.741 4.32016C25.581 4.66016 25.491 4.83018 25.481 4.84018C25.361 4.99018 25.2009 5.06014 24.9709 5.05014C24.5309 5.03014 24.331 4.73001 24.351 4.17001C24.351 3.99001 24.391 3.80018 24.451 3.59018C24.511 3.38018 24.601 3.14019 24.731 2.85019C24.861 2.56019 24.991 2.35006 25.121 2.22006C25.251 2.08006 25.391 2.02012 25.531 2.03012H25.601C26.031 2.42012 26.221 3.02019 26.181 3.85019L26.201 3.83017ZM25.581 3.72006C25.581 3.66006 25.581 3.60013 25.571 3.54013L25.521 3.42001C25.481 3.30001 25.411 3.24006 25.321 3.22006C25.261 3.22006 25.191 3.26017 25.101 3.33017C25.011 3.41017 24.9709 3.48014 24.9709 3.55014C24.9709 3.60014 25.011 3.66007 25.101 3.73007C25.181 3.77007 25.261 3.80016 25.331 3.82016C25.381 3.82016 25.461 3.80008 25.591 3.74008V3.71005L25.581 3.72006Z" fill="white"/>
<path d="M27.951 5.66992L26.931 5.51001L27.291 1.51001C27.291 1.45001 27.401 1.30007 27.601 1.07007L28.001 0.620117L27.7209 4.12988L28.181 4.19995L27.951 5.65991V5.66992Z" fill="white"/>
<path d="M30.511 6.32996L29.871 6.15979C29.871 6.15979 29.821 6.19989 29.781 6.25989L29.711 6.37C29.661 6.48 29.601 6.54995 29.521 6.56995L28.421 4.98987C28.421 4.98987 28.351 5.07979 28.301 5.15979L28.1609 5.4198C28.1109 5.5598 28.011 5.62978 27.881 5.64978L27.561 5.56995L27.941 4.13977L28.491 4.28992C28.491 4.28992 28.631 4.15981 28.831 3.92981C28.941 3.80981 29.041 3.7 29.131 3.62C29.221 3.54 29.311 3.46977 29.421 3.38977C29.691 3.21977 29.961 3.15986 30.231 3.22986C30.341 3.25986 30.4009 3.29999 30.4109 3.35999C30.4109 3.37999 30.4109 3.40982 30.4109 3.43982C30.4109 3.46982 30.391 3.50996 30.381 3.57996C30.341 3.73996 30.331 3.96988 30.381 4.24988C30.421 4.53988 30.491 4.72997 30.591 4.83997L30.881 4.9198L30.501 6.34998L30.511 6.32996ZM29.701 4.56995L29.731 4.44983V4.37C29.731 4.37 29.741 4.29989 29.731 4.25989C29.731 4.17989 29.731 4.14 29.701 4.12L29.621 4.07996C29.621 4.07996 29.521 4.06996 29.441 4.07996C29.361 4.07996 29.311 4.07998 29.281 4.09998C29.341 4.21998 29.471 4.37995 29.691 4.56995H29.701Z" fill="white"/>
<path d="M31.591 7.82007C31.491 7.93007 31.391 8.02009 31.291 8.09009C31.241 8.13009 31.201 8.15994 31.151 8.18994C31.101 8.21994 31.051 8.25003 31.001 8.28003C30.941 8.24003 30.881 8.15 30.801 8C30.751 7.92 30.691 7.81995 30.631 7.69995L30.521 7.77002L30.241 7.95996C30.081 7.81996 29.961 7.6201 29.871 7.3501L30.4709 6.90991C30.5209 7.08991 30.621 7.27996 30.761 7.45996C30.821 7.45996 30.911 7.41008 31.021 7.33008C31.121 7.26008 31.191 7.20994 31.231 7.18994L31.591 7.81006V7.82007ZM32.291 7.07007L31.711 6.84009C31.581 6.79009 31.511 6.65994 31.501 6.43994V6.08008L31.031 6.57007L30.121 6.20996L30.6609 4.83008L31.671 5.22998C31.821 5.00998 31.941 4.80011 32.011 4.61011L32.091 4.42993C32.091 4.42993 32.121 4.38012 32.131 4.37012C32.141 4.36012 32.161 4.34007 32.191 4.32007C32.301 4.23007 32.551 4.08012 32.931 3.87012L32.741 4.36011L32.651 4.56006L32.571 4.71997L32.401 5.08008C32.301 5.34008 32.361 5.5201 32.591 5.6001L32.841 5.69995L32.301 7.08008L32.291 7.07007Z" fill="white"/>
<path d="M34.641 8.33008L34.101 8.04004L34.001 7.03003L33.241 7.58008L31.961 6.8999L32.6609 5.6001L33.9109 6.27002L33.431 4.32007L34.491 3.15991L36.961 3.61011L36.671 3.93994C36.541 4.08994 36.391 4.24991 36.241 4.40991L34.311 4.16992L34.601 5.52002C34.721 6.08002 34.851 6.52011 34.981 6.86011L35.331 7.05005L34.631 8.3501L34.641 8.33008Z" fill="white"/>
<path d="M38.031 6.10012L36.981 6.57009L36.231 7.81008C36.181 7.88008 36.041 8.05008 35.791 8.31008C35.541 8.57008 35.391 8.72001 35.321 8.74001L35.121 8.69997L34.321 8.14992L35.1609 6.92995L35.841 7.39992H35.871L35.891 7.36013C36.111 7.03013 36.321 6.68008 36.501 6.31008C36.721 5.85008 36.811 5.47997 36.771 5.19997L37.101 4.95998C37.101 4.95998 37.1809 4.9099 37.2209 4.8799C37.2609 4.8499 37.301 4.83008 37.341 4.81008C37.621 4.63008 37.831 4.54007 37.951 4.55007L37.851 4.70998C37.761 4.83998 37.751 5.06014 37.821 5.37014C37.851 5.49014 37.881 5.60999 37.921 5.71999C37.951 5.80999 38.001 5.92006 38.061 6.04006L38.031 6.09011V6.10012Z" fill="white"/>
<path d="M37.9709 8.75C37.4809 9.33 36.981 9.7001 36.461 9.8501L38.391 7.04004C38.441 6.97004 38.871 6.7401 39.681 6.3501C38.891 7.5301 38.3209 8.33 37.9709 8.75Z" fill="white"/>
<path d="M41.091 15.0199L40.761 14.58C40.701 14.5 40.711 14.3698 40.771 14.1798C40.801 14.0898 40.841 14.0199 40.871 13.9599C40.911 13.8999 40.951 13.86 41.011 13.82L40.301 13.9899L38.971 12.1898C38.651 11.7598 38.861 11.2699 39.591 10.7299C39.681 10.6599 39.741 10.62 39.781 10.59C39.821 10.57 39.901 10.5199 40.021 10.4499C40.141 10.3799 40.301 10.3099 40.501 10.2199C40.981 9.99988 41.291 9.93993 41.431 10.0199L41.371 10.07C41.291 10.13 41.171 10.1999 40.991 10.2899C40.811 10.3799 40.691 10.4599 40.611 10.5099C40.461 10.6199 40.341 10.7799 40.271 10.9799C40.191 11.1799 40.211 11.3599 40.331 11.5099L41.561 13.1698C41.561 13.1698 41.691 13.1199 41.821 13.0399C41.951 12.9599 42.121 12.8499 42.301 12.7099L43.361 12.6898L42.841 13.07L42.131 13.4999C42.021 13.5799 41.991 13.6699 42.021 13.7899L42.271 14.1298L41.081 15.0099L41.091 15.0199ZM43.601 11.8898C43.531 11.9098 43.381 11.9299 43.141 11.9499C42.901 11.9699 42.761 11.9498 42.721 11.9198C42.701 11.8898 42.691 11.62 42.701 11.11H42.471L42.121 11.08C42.101 11 42.081 10.8498 42.081 10.6398C42.061 10.3898 42.081 10.2599 42.111 10.2299C42.161 10.1899 42.451 10.1899 42.991 10.2299C42.971 10.2799 42.951 10.41 42.941 10.62C42.941 10.82 42.941 10.9399 42.971 10.9799C42.971 10.9799 42.981 10.9799 42.991 10.9799C42.991 10.9799 43.011 10.9799 43.041 10.9799L43.261 10.9999L43.611 11.0299V11.8798L43.601 11.8898Z" fill="white"/>
<path d="M40.761 16.8101C40.611 16.8201 40.481 16.8201 40.361 16.8101C40.301 16.8101 40.251 16.81 40.191 16.8C40.131 16.8 40.071 16.78 40.011 16.77C39.991 16.7 40.011 16.5899 40.051 16.4299C40.061 16.3299 40.091 16.2201 40.131 16.0901L40.001 16.0701L39.671 16.02C39.641 15.81 39.691 15.5801 39.811 15.3201L40.551 15.3899C40.461 15.5599 40.411 15.76 40.401 15.99C40.451 16.02 40.551 16.0501 40.681 16.0601C40.801 16.0701 40.881 16.0901 40.931 16.1001L40.781 16.8L40.761 16.8101ZM41.781 16.72L41.501 16.1599C41.441 16.0399 41.471 15.89 41.611 15.72L41.861 15.46L41.171 15.5L40.731 14.6201L42.051 13.96L42.541 14.9299C42.801 14.8699 43.021 14.79 43.211 14.7L43.391 14.6201C43.391 14.6201 43.451 14.6001 43.461 14.6001C43.481 14.6001 43.501 14.6001 43.541 14.6001C43.681 14.6001 43.961 14.66 44.391 14.76L43.921 15L43.721 15.0901L43.561 15.1499L43.201 15.3C42.951 15.43 42.881 15.6001 42.991 15.8101L43.111 16.05L41.791 16.71L41.781 16.72Z" fill="white"/>
<path d="M41.031 18.1399C41.031 18.1399 40.8809 18.1 40.6609 17.99C40.6109 17.96 40.561 17.9399 40.531 17.9199C40.491 17.8999 40.461 17.8801 40.431 17.8601C40.381 17.8301 40.341 17.79 40.321 17.76C40.321 17.74 40.321 17.6999 40.331 17.6399C40.351 17.5799 40.371 17.4899 40.421 17.3899C40.461 17.2799 40.501 17.1999 40.531 17.1399C40.561 17.0799 40.591 17.04 40.611 17.03C40.651 17.01 40.791 17.0499 41.031 17.1499C41.271 17.2399 41.3909 17.3101 41.4109 17.3501C41.4109 17.3601 41.361 17.5 41.241 17.75C41.121 18.01 41.051 18.1399 41.031 18.1499V18.1399ZM44.151 17.55C43.891 17.65 43.571 17.73 43.201 17.8L42.741 17.8999C42.661 17.9199 42.581 17.94 42.501 17.95C42.431 17.96 42.341 17.98 42.231 17.99L41.621 16.3601L43.011 15.8401L43.491 17.1399H43.541C43.661 17.0799 43.831 16.96 44.041 16.76C44.241 16.58 44.371 16.43 44.451 16.29L45.611 16.3401C45.181 16.9301 44.691 17.33 44.141 17.53L44.151 17.55Z" fill="white"/>
</svg>
