<svg width="46" height="46" viewBox="0 0 46 46" fill="none" xmlns="http://www.w3.org/2000/svg">
<path d="M11.801 22.96H3.57098V24.05H11.801V22.96Z" fill="white"/>
<path d="M45.581 22.96H37.351V24.05H45.581V22.96Z" fill="white"/>
<path d="M15.371 34.4199H11.281V14.7H15.371V34.4199ZM12.331 33.3701H14.321V15.75H12.331V33.3701Z" fill="white"/>
<path d="M24.131 35.6001C24.051 35.6001 16.341 35.2601 14.341 27.3601L14.321 27.23V20.8899L14.371 20.79C14.511 20.47 17.951 13.0101 24.871 13.3301L24.821 14.3701C19.001 14.0801 15.781 20.2701 15.361 21.1201V27.1599C17.181 34.2199 23.8709 34.54 24.1609 34.55L24.131 35.5901V35.6001Z" fill="white"/>
<path d="M24.151 29V32.01L23.451 31.8L22.321 32.25L21.481 31.3601L20.011 31.4099V30.23L18.701 30.2V29.1499L17.491 28.1799L17.831 27.03L16.701 26.01L17.281 25.01L16.391 23.8L17.281 22.8L16.891 21.6699L17.861 20.8301L17.441 19.8301L18.781 19.3101L18.681 18.21L20.121 17.8701L20.271 16.8501H21.741L22.531 16.0601L22.901 16.3701C22.901 16.3701 23.851 16.19 24.151 16.27V18.74C24.151 18.74 20.3309 19.6101 20.4109 24.3301C20.4109 24.3301 20.001 27.91 24.151 29.01V29Z" fill="white"/>
<path d="M28.871 16.1699V33.58C28.871 33.58 30.5109 35.2599 29.2209 35.7499C29.2209 35.7499 27.0209 36.0299 26.9109 35.1899V14.4899C26.9109 14.4899 28.671 12.73 30.001 13.78C30.001 13.78 30.561 14.5899 28.861 16.1699H28.871Z" fill="white"/>
<path d="M34.501 14.14V35.0201C34.501 35.0201 33.661 36.35 31.771 35.4C31.771 35.4 31.561 34.4901 32.891 33.3001V16.3799C32.891 16.3799 31.461 13.84 32.791 13.45C32.791 13.45 33.661 13.16 34.501 14.14Z" fill="white"/>
<path d="M35.151 35.7901V14.2201C35.151 14.2201 36.641 13.1501 37.651 13.9601C37.651 13.9601 38.281 14.76 36.951 15.95V33.3402C36.951 33.3402 37.771 34.3602 37.351 35.3602C37.351 35.3602 36.801 36.3001 35.151 35.7901Z" fill="white"/>
<path d="M26.281 14.28V35.1599C26.281 35.1599 25.021 36.0999 23.971 35.1599C23.971 35.1599 23.231 34.3601 24.601 32.5701V13.1599L26.661 14.03C26.661 14.03 26.351 14.12 26.281 14.27V14.28Z" fill="white"/>
<path d="M24.611 13.78H23.781V16.3799H24.611V13.78Z" fill="white"/>
<path d="M33.371 22.74H28.251V25.3H33.371V22.74Z" fill="white"/>
<path d="M3.11096 28.7L7.16095 27.5801L7.31097 28.1299L5.51099 28.6299L7.62097 29.24L7.82098 29.98L5.961 29.3899L3.78101 31.1499L3.58099 30.4399L5.28101 29.1699L4.48096 28.9099L3.25098 29.25L3.10095 28.7H3.11096Z" fill="white"/>
<path d="M7.88098 30.0701L8.11096 30.5901L6.03101 31.51C5.70101 31.66 5.491 31.7601 5.401 31.8101C5.251 31.9001 5.151 32.0099 5.091 32.1399C5.031 32.2699 5.041 32.4 5.091 32.55C5.161 32.7 5.25097 32.7901 5.37097 32.8201C5.49097 32.8601 5.62099 32.8501 5.76099 32.8101C5.90099 32.7701 6.12096 32.68 6.42096 32.54L8.55096 31.6001L8.78101 32.1201L6.76099 33.02C6.30099 33.22 5.97099 33.3599 5.76099 33.4099C5.56099 33.4699 5.371 33.49 5.211 33.47C5.051 33.45 4.90099 33.4001 4.76099 33.3101C4.63099 33.2201 4.51096 33.0701 4.42096 32.8701C4.31096 32.6201 4.27096 32.42 4.30096 32.25C4.33096 32.09 4.39098 31.94 4.50098 31.8C4.60098 31.67 4.72096 31.55 4.86096 31.47C5.06096 31.34 5.38097 31.18 5.81097 30.99L7.86096 30.0801L7.88098 30.0701Z" fill="white"/>
<path d="M5.63098 35.0901L8.76099 32.2L9.08099 32.6799L6.91095 34.6399L9.60095 33.47L9.98096 34.03L7.81097 36.0701L10.491 34.8L10.811 35.28L6.93097 37.04L6.60095 36.54L8.901 34.3301L5.97095 35.6101L5.63098 35.1001V35.0901Z" fill="white"/>
<path d="M9.39099 39.8301L8.97095 39.3799L9.50098 38.55L8.73096 37.72L7.87097 38.2L7.461 37.76L11.291 35.71L11.701 36.1499L9.38098 39.8401L9.39099 39.8301ZM9.901 37.9299L10.781 36.5901L9.38098 37.3701L9.901 37.9299Z" fill="white"/>
<path d="M9.81097 40.1599L12.591 37.01L13.021 37.3899L10.241 40.54L9.81097 40.1599Z" fill="white"/>
<path d="M11.341 41.4199L13.4109 38.6001L12.741 38.1101L13.1609 37.54L14.9709 38.8601L14.551 39.4299L13.881 38.9399L11.811 41.76L11.351 41.4199H11.341Z" fill="white"/>
<path d="M16.451 42.62L16.841 43.09C16.571 43.47 16.301 43.72 16.021 43.84C15.751 43.96 15.471 43.95 15.201 43.82C14.861 43.66 14.661 43.3598 14.611 42.9098C14.551 42.4598 14.671 41.94 14.951 41.34C15.251 40.71 15.591 40.2699 15.971 40.0199C16.351 39.7699 16.721 39.7298 17.081 39.8998C17.391 40.0498 17.581 40.2998 17.651 40.6698C17.691 40.8898 17.671 41.1599 17.581 41.4899L16.991 41.4298C17.051 41.2198 17.061 41.03 17.021 40.87C16.981 40.71 16.891 40.5999 16.751 40.5299C16.561 40.4399 16.361 40.47 16.151 40.62C15.941 40.77 15.721 41.0699 15.511 41.5199C15.281 41.9999 15.181 42.3698 15.201 42.6298C15.221 42.8898 15.321 43.0598 15.511 43.1498C15.651 43.2098 15.791 43.2 15.951 43.12C16.111 43.04 16.281 42.87 16.451 42.61V42.62Z" fill="white"/>
<path d="M17.111 44.5601L18.311 40.53L18.851 40.6899L18.381 42.28L19.451 42.6001L19.921 41.01L20.4709 41.1699L19.271 45.2L18.731 45.04L19.261 43.28L18.191 42.96L17.6609 44.72L17.121 44.5601H17.111Z" fill="white"/>
<path d="M20.211 45.3999L20.831 41.24L22.901 41.55L22.801 42.25L21.301 42.03L21.1609 42.95L22.561 43.1599L22.461 43.8601L21.061 43.6499L20.891 44.78L22.451 45.01L22.351 45.71L20.231 45.3999H20.211Z" fill="white"/>
<path d="M23.211 45.8101L23.151 41.6101H24.001L24.551 44.46L25.011 41.5801H25.861L25.921 45.77H25.391L25.341 42.47L24.831 45.79H24.281L23.681 42.5L23.731 45.8101H23.201H23.211Z" fill="white"/>
<path d="M26.741 45.6699L26.251 41.49L26.811 41.4199L27.301 45.6001L26.741 45.6699Z" fill="white"/>
<path d="M29.531 43.6102L30.121 43.7401C30.141 44.2101 30.071 44.5702 29.931 44.8302C29.791 45.0902 29.571 45.2501 29.271 45.3201C28.901 45.4001 28.561 45.28 28.241 44.96C27.921 44.64 27.691 44.1601 27.551 43.5101C27.401 42.8301 27.401 42.2702 27.551 41.8402C27.701 41.4102 27.971 41.1501 28.361 41.0701C28.701 41.0001 29.001 41.0802 29.281 41.3302C29.441 41.4802 29.591 41.7101 29.731 42.0201L29.221 42.3402C29.141 42.1302 29.031 41.98 28.901 41.88C28.771 41.78 28.631 41.7501 28.481 41.7801C28.281 41.8301 28.141 41.9701 28.061 42.2201C27.981 42.4701 28.001 42.8301 28.111 43.3201C28.231 43.8401 28.371 44.19 28.541 44.39C28.711 44.58 28.901 44.6602 29.101 44.6102C29.251 44.5802 29.361 44.4801 29.431 44.3201C29.501 44.1601 29.531 43.9202 29.511 43.6102H29.531Z" fill="white"/>
<path d="M33.621 43.8301L33.041 44.05L32.4709 43.25L31.421 43.6599L31.551 44.6299L30.991 44.8501L30.501 40.53L31.061 40.3101L33.631 43.8301H33.621ZM32.041 42.6499L31.121 41.3301L31.331 42.9199L32.051 42.6399L32.041 42.6499Z" fill="white"/>
<path d="M34.201 43.51L32.181 39.8601L32.681 39.5801L34.361 42.6101L35.601 41.9199L35.941 42.54L34.201 43.5V43.51Z" fill="white"/>
<path d="M37.521 41.48L34.831 38.25L35.271 37.8899L36.331 39.1599L37.191 38.45L36.131 37.1799L36.571 36.8201L39.261 40.05L38.821 40.4099L37.641 39L36.781 39.71L37.961 41.1201L37.521 41.48Z" fill="white"/>
<path d="M38.3509 38.0601C38.0309 37.7801 37.791 37.5101 37.631 37.2501C37.511 37.0601 37.4309 36.87 37.3709 36.67C37.3109 36.47 37.301 36.3 37.331 36.15C37.361 35.95 37.4609 35.7601 37.6109 35.5801C37.8809 35.2701 38.251 35.15 38.701 35.21C39.151 35.28 39.641 35.54 40.151 35.99C40.661 36.44 40.9809 36.8801 41.1009 37.3201C41.2209 37.7601 41.1509 38.13 40.8709 38.44C40.5909 38.75 40.231 38.8801 39.781 38.8101C39.331 38.7401 38.8509 38.4901 38.3509 38.0401V38.0601ZM38.711 37.6002C39.071 37.9202 39.3909 38.1 39.6709 38.15C39.9509 38.2 40.171 38.15 40.321 37.97C40.471 37.8 40.5009 37.5801 40.4209 37.3101C40.3309 37.0401 40.1109 36.74 39.7409 36.42C39.3809 36.1 39.0609 35.9202 38.7909 35.8702C38.5209 35.8202 38.301 35.8801 38.151 36.0601C38.001 36.2401 37.9609 36.46 38.0409 36.72C38.1309 36.99 38.351 37.2802 38.711 37.6002Z" fill="white"/>
<path d="M38.6609 34.4399L38.9709 33.96L40.891 35.1899C41.191 35.3899 41.391 35.51 41.491 35.55C41.651 35.62 41.801 35.6499 41.931 35.6299C42.071 35.6099 42.181 35.5299 42.261 35.3999C42.351 35.2599 42.371 35.14 42.331 35.01C42.291 34.88 42.221 34.7799 42.101 34.6899C41.991 34.5999 41.791 34.46 41.511 34.28L39.551 33.02L39.861 32.54L41.7209 33.73C42.1509 34 42.441 34.2101 42.601 34.3501C42.761 34.4901 42.881 34.63 42.951 34.78C43.021 34.93 43.061 35.08 43.061 35.24C43.061 35.4 43.001 35.58 42.871 35.76C42.721 35.99 42.571 36.13 42.421 36.2C42.271 36.27 42.111 36.29 41.941 36.28C41.771 36.27 41.611 36.2299 41.461 36.1599C41.241 36.0599 40.931 35.8799 40.531 35.6299L38.641 34.4199L38.6609 34.4399Z" fill="white"/>
<path d="M42.571 33.5301L42.731 32.9901C43.001 33.0801 43.211 33.1002 43.371 33.0602C43.531 33.0202 43.651 32.9201 43.721 32.7701C43.801 32.6001 43.801 32.4502 43.731 32.3202C43.661 32.1902 43.561 32.0901 43.421 32.0201C43.331 31.9801 43.241 31.9601 43.171 31.9701C43.091 31.9701 43.011 32.0102 42.921 32.0802C42.861 32.1302 42.741 32.24 42.561 32.42C42.331 32.65 42.121 32.7902 41.921 32.8302C41.641 32.8902 41.351 32.8501 41.041 32.7101C40.851 32.6201 40.681 32.5002 40.541 32.3502C40.401 32.2002 40.321 32.0302 40.301 31.8502C40.281 31.6702 40.301 31.4801 40.401 31.2801C40.551 30.9601 40.761 30.7601 41.051 30.7001C41.341 30.6301 41.651 30.6802 42.011 30.8302L41.811 31.3602C41.601 31.2902 41.441 31.2802 41.321 31.3102C41.201 31.3402 41.111 31.4302 41.041 31.5802C40.971 31.7302 40.961 31.8701 41.021 32.0001C41.051 32.0801 41.121 32.15 41.221 32.19C41.311 32.23 41.401 32.2401 41.491 32.2201C41.601 32.1901 41.761 32.0702 41.961 31.8602C42.161 31.6502 42.341 31.5 42.491 31.43C42.641 31.36 42.811 31.3202 43.011 31.3202C43.211 31.3202 43.421 31.3901 43.671 31.5001C43.891 31.6001 44.081 31.73 44.231 31.9C44.381 32.07 44.471 32.25 44.501 32.44C44.531 32.63 44.491 32.8402 44.391 33.0602C44.241 33.3802 44.021 33.58 43.711 33.65C43.411 33.72 43.031 33.6801 42.591 33.5101L42.571 33.5301Z" fill="white"/>
<path d="M45.061 31.22L41.031 30.01L41.631 28.01L42.311 28.21L41.871 29.6699L42.761 29.9399L43.171 28.5801L43.851 28.78L43.441 30.1399L44.541 30.47L44.991 28.96L45.671 29.1599L45.061 31.21V31.22Z" fill="white"/>
<path d="M1.95099 14.1001C2.06099 14.2301 2.231 14.4601 2.461 14.8101L1.79095 15.26L1.93097 15.51L2.08099 15.75C2.02099 15.85 1.78098 16.02 1.38098 16.24C1.30098 16.14 1.22098 16.0199 1.13098 15.8899C1.05098 15.7799 0.981001 15.65 0.901001 15.51C0.931001 15.51 0.980955 15.48 1.04095 15.45L1.25098 15.3301C1.42098 15.2301 1.51101 15.1601 1.53101 15.1201L1.51099 15.0801L1.401 14.8601L1.24097 14.5601L1.94098 14.0901L1.95099 14.1001ZM4.88098 14.5601L4.97095 14.5901L5.11096 14.6399L5.26099 14.71L5.461 14.22L6.81097 14.73L5.91095 17.1399C6.07095 17.3099 6.21099 17.51 6.33099 17.72C6.45099 17.93 6.55098 18.1699 6.63098 18.4399C6.71098 18.6999 6.75098 18.95 6.75098 19.2C6.75098 19.44 6.71098 19.6699 6.63098 19.8799C6.48098 20.2699 6.26095 20.5299 5.97095 20.6499C5.68095 20.7699 5.34099 20.7601 4.95099 20.6201C4.77099 20.5501 4.58099 20.4501 4.39099 20.3101C4.20099 20.1701 4.00097 20.0101 3.81097 19.8101C3.59097 19.5901 3.42097 19.39 3.31097 19.2C3.19097 19.01 3.12095 18.8299 3.10095 18.6599C3.16095 18.6799 3.24099 18.7301 3.33099 18.8101C3.38099 18.8501 3.43097 18.9 3.49097 18.95C3.55097 19 3.62099 19.0699 3.70099 19.1599C3.96099 19.4199 4.20098 19.5999 4.44098 19.6899C4.74098 19.7999 5.011 19.7801 5.271 19.6201C5.381 19.5401 5.47096 19.4501 5.55096 19.3401C5.63096 19.2301 5.711 19.0899 5.771 18.9299C5.841 18.7499 5.91096 18.3901 5.98096 17.8501L5.95099 17.8301C5.74099 17.7501 5.52098 17.8499 5.32098 18.1299L5.16095 18.3899C5.09095 18.5199 5.021 18.6601 4.961 18.8201C4.821 18.7401 4.68101 18.63 4.53101 18.5C4.45101 18.43 4.37095 18.36 4.29095 18.27C4.21095 18.19 4.12101 18.09 4.03101 17.99L5.08099 15.1799C4.87099 15.1599 4.65098 15.1599 4.44098 15.1699C4.24098 15.1699 4.03096 15.19 3.80096 15.22L3.00098 14.45C3.81098 14.35 4.43098 14.38 4.88098 14.54V14.5601ZM7.36096 19.3101C7.54096 19.4901 7.651 19.64 7.711 19.76C7.691 19.8 7.541 19.9101 7.271 20.0801C7.301 20.1801 7.371 20.2799 7.461 20.4099C7.361 20.5599 7.21097 20.66 6.99097 20.72L6.67096 20.27C6.67096 20.27 6.69099 20.26 6.70099 20.25C6.74099 20.22 6.80098 20.1899 6.88098 20.1399C7.01098 20.0799 7.08095 20.03 7.10095 19.98C7.10095 19.98 7.10095 19.98 7.10095 19.97C7.10095 19.94 7.08097 19.9099 7.06097 19.8799L6.91095 19.6101L7.13098 19.46L7.39099 19.3101H7.36096Z" fill="white"/>
<path d="M6.35095 12.55L7.82098 13.7L6.60095 15.5801L5.36096 14.77L6.36096 13.23C6.02096 13.11 5.611 13.03 5.151 12.98L4.54095 12.0801C4.61095 12.0801 4.68097 12.0801 4.74097 12.0801C4.80097 12.0801 4.88097 12.0901 4.99097 12.1001C5.07097 12.1001 5.13096 12.1199 5.17096 12.1299C5.30096 12.1499 5.41097 12.1599 5.49097 12.1799C5.65097 12.2199 5.81099 12.2701 5.95099 12.3401C6.10099 12.4001 6.23096 12.4801 6.36096 12.5601L6.35095 12.55ZM8.70099 14.5701C8.85099 14.7901 8.97095 15.02 9.04095 15.24C8.99095 15.28 8.89097 15.3299 8.74097 15.3799L8.41095 15.48L8.48096 15.6599L8.591 15.9199C8.421 16.0499 8.19096 16.1299 7.92096 16.1399L7.61096 15.47C7.80096 15.45 8.001 15.4 8.211 15.3C8.211 15.24 8.18099 15.15 8.14099 15.04C8.08099 14.92 8.05095 14.83 8.04095 14.78L8.711 14.5601L8.70099 14.5701Z" fill="white"/>
<path d="M9.771 11.3102L9.51099 11.6202L9.75098 12.0702L10.001 12.5301C10.181 12.9601 10.181 13.2801 10.011 13.4701C9.86099 13.6401 9.65097 13.8302 9.37097 14.0402C9.06097 14.2502 8.81097 14.38 8.62097 14.41C9.15097 13.78 9.331 12.9901 9.151 12.0301C8.841 12.3201 8.63098 12.4902 8.50098 12.5402C8.25098 12.6602 7.99096 12.6 7.73096 12.38C7.59096 12.26 7.44096 12.1 7.30096 11.92C7.16096 11.73 7.01096 11.5101 6.86096 11.2401C6.51096 10.6201 6.43097 10.2001 6.62097 9.9801C6.75097 9.8301 7.05101 9.85016 7.53101 10.0402C7.57101 10.0602 7.64097 10.09 7.74097 10.14C7.81097 10.18 7.881 10.2101 7.961 10.2501C7.991 10.2701 8.06096 10.31 8.17096 10.38C8.28096 10.45 8.38099 10.5102 8.45099 10.5502L8.63098 10.3402L9.76099 11.3002L9.771 11.3102ZM7.99097 11.0201C7.99097 11.0201 7.92097 10.9701 7.87097 10.9501C7.82097 10.9301 7.76097 10.92 7.68097 10.91C7.54097 10.88 7.44099 10.9101 7.39099 10.9601C7.38099 10.9701 7.37097 11.0001 7.37097 11.0301V11.1202C7.37097 11.2002 7.37099 11.2501 7.39099 11.2801C7.46099 11.3401 7.55096 11.3602 7.67096 11.3302C7.76096 11.3002 7.85096 11.2601 7.92096 11.1901C7.99096 11.1001 8.02097 11.0401 7.99097 11.0101V11.0201Z" fill="white"/>
<path d="M11.731 9.57007L11.271 9.97998L10.291 9.72998L10.551 10.6299L9.47095 11.6001L8.48096 10.5L9.53101 9.55005L7.53101 9.34009L6.79095 7.94995L8.05096 5.78003L8.26099 6.15991C8.36099 6.33991 8.46096 6.52997 8.55096 6.71997L7.67096 8.44995L9.04095 8.62988C9.61095 8.70988 10.071 8.73998 10.431 8.72998L10.731 8.45996L11.7209 9.56006L11.731 9.57007Z" fill="white"/>
<path d="M10.771 5.6499L10.861 6.80005L11.781 7.91992C11.831 7.98992 11.941 8.18 12.101 8.5C12.261 8.82 12.351 9.02009 12.351 9.09009L12.241 9.26001L11.451 9.83008L10.591 8.62988L11.261 8.1499V8.12012L11.241 8.09009C11.011 7.77009 10.751 7.45991 10.461 7.15991C10.101 6.79991 9.78102 6.59003 9.51102 6.53003L9.40103 6.13989C9.40103 6.13989 9.381 6.05 9.371 6C9.361 5.95 9.35103 5.91011 9.34103 5.86011C9.26103 5.53011 9.25099 5.30995 9.30099 5.19995L9.42099 5.3501C9.51099 5.4701 9.71098 5.5601 10.041 5.6001C10.161 5.6201 10.281 5.62988 10.401 5.62988C10.501 5.62988 10.611 5.63011 10.751 5.61011L10.781 5.65991L10.771 5.6499Z" fill="white"/>
<path d="M13.261 6.58008C13.641 7.23008 13.821 7.83012 13.791 8.37012L11.801 5.6001C11.751 5.5301 11.681 5.0499 11.581 4.1499C12.421 5.2899 12.991 6.10007 13.261 6.57007V6.58008Z" fill="white"/>
<path d="M19.281 4.52002L19.311 6.01001L16.791 6.81006C16.281 6.97006 15.891 6.62 15.621 5.75C15.531 5.47 15.471 5.15003 15.451 4.78003C15.411 4.31003 15.461 4.01989 15.591 3.88989C15.621 3.97989 15.651 4.10001 15.681 4.26001C15.711 4.42001 15.741 4.5499 15.781 4.6499C15.841 4.8299 15.951 4.98989 16.121 5.13989C16.311 5.29989 16.491 5.35004 16.671 5.29004L18.731 4.63989V4.61011C18.691 4.48011 18.511 4.23012 18.171 3.87012L18.271 2.70996C18.711 3.13996 18.961 3.46994 19.031 3.68994L19.301 4.53003L19.281 4.52002ZM17.561 2.32007C17.531 2.45007 17.501 2.57996 17.461 2.70996C17.421 2.83996 17.381 2.98012 17.321 3.12012C17.221 3.12012 17.091 3.09004 16.931 3.04004L16.541 2.90991C16.471 3.03991 16.401 3.20993 16.331 3.42993L16.181 3.3999L15.911 3.31006C15.681 3.24006 15.561 3.1899 15.541 3.1499C15.541 3.1199 15.611 2.8501 15.801 2.3501C16.211 2.5301 16.441 2.61009 16.501 2.59009L16.521 2.56006L16.631 2.34009L16.761 2.03003L17.551 2.30005L17.561 2.32007Z" fill="white"/>
<path d="M21.441 5.65991L20.431 5.83008L19.511 1.92993C19.511 1.86993 19.551 1.69991 19.671 1.40991L19.901 0.860107L20.741 4.28003L21.201 4.19995L21.451 5.65991H21.441Z" fill="white"/>
<path d="M23.191 3.65991L23.1609 5.53003L20.931 5.68994L20.821 4.21997L22.6609 4.09009V4.07007C22.5409 3.74007 22.361 3.36996 22.121 2.95996L22.4709 1.92993C22.5109 1.98993 22.551 2.0401 22.591 2.1001C22.621 2.1501 22.6709 2.22006 22.7209 2.31006C22.7609 2.38006 22.791 2.42997 22.811 2.46997C22.881 2.58997 22.931 2.68001 22.961 2.76001C23.031 2.91001 23.081 3.06997 23.121 3.21997C23.161 3.37997 23.181 3.52993 23.191 3.67993V3.65991ZM23.001 6.75C22.911 7.01 22.801 7.22993 22.671 7.42993C22.611 7.41993 22.511 7.37002 22.381 7.27002L22.101 7.06006L22.001 7.21997L21.861 7.45996C21.651 7.39996 21.461 7.27006 21.281 7.06006L21.631 6.40991C21.761 6.54991 21.921 6.68004 22.131 6.79004C22.171 6.75004 22.231 6.68008 22.291 6.58008C22.351 6.46008 22.401 6.38009 22.431 6.34009L23.011 6.73999L23.001 6.75Z" fill="white"/>
<path d="M26.201 4.07016C26.181 4.38016 26.141 4.68007 26.081 4.98007C26.051 5.15007 26.0109 5.30003 25.9709 5.44003C25.9309 5.58003 25.871 5.74 25.801 5.91C25.491 6.74 25.111 7.14997 24.651 7.12997C24.201 7.10997 23.711 6.99011 23.191 6.77011L22.981 6.68002L22.961 6.66L22.931 6.60019L23.631 6.54013C24.331 6.24013 24.861 5.92019 25.211 5.60019C25.561 5.27019 25.741 4.94018 25.761 4.59018L25.741 4.56015C25.581 4.90015 25.491 5.07017 25.481 5.08017C25.361 5.23017 25.2009 5.30013 24.9709 5.29013C24.5309 5.27013 24.331 4.97 24.351 4.41C24.351 4.23 24.391 4.04017 24.451 3.83017C24.511 3.62017 24.601 3.38018 24.731 3.09018C24.861 2.80018 24.991 2.59005 25.121 2.46005C25.251 2.32005 25.391 2.26011 25.531 2.27011H25.601C26.031 2.66011 26.221 3.26018 26.181 4.09018L26.201 4.07016ZM25.581 3.96005C25.581 3.90005 25.581 3.84012 25.571 3.78012L25.521 3.66C25.481 3.54 25.411 3.48005 25.321 3.46005C25.261 3.46005 25.191 3.50016 25.101 3.57016C25.011 3.65016 24.9709 3.72013 24.9709 3.79013C24.9709 3.84013 25.011 3.90006 25.101 3.97006C25.181 4.01006 25.261 4.04015 25.331 4.06015C25.381 4.06015 25.461 4.04007 25.591 3.98007V3.95004L25.581 3.96005Z" fill="white"/>
<path d="M27.951 5.90991L26.931 5.75L27.291 1.75C27.291 1.69 27.401 1.54006 27.601 1.31006L28.001 0.860107L27.7209 4.37012L28.181 4.43994L27.951 5.8999V5.90991Z" fill="white"/>
<path d="M30.511 6.56995L29.871 6.39978C29.871 6.39978 29.821 6.43988 29.781 6.49988L29.711 6.60999C29.661 6.71999 29.601 6.78994 29.521 6.80994L28.421 5.22986C28.421 5.22986 28.351 5.31978 28.301 5.39978L28.1609 5.65979C28.1109 5.79979 28.011 5.86977 27.881 5.88977L27.561 5.80994L27.941 4.37976L28.491 4.52991C28.491 4.52991 28.631 4.3998 28.831 4.1698C28.941 4.0498 29.041 3.93999 29.131 3.85999C29.221 3.77999 29.311 3.70976 29.421 3.62976C29.691 3.45976 29.961 3.39985 30.231 3.46985C30.341 3.49985 30.4009 3.53998 30.4109 3.59998C30.4109 3.61998 30.4109 3.64981 30.4109 3.67981C30.4109 3.70981 30.391 3.74995 30.381 3.81995C30.341 3.97995 30.331 4.20987 30.381 4.48987C30.421 4.77987 30.491 4.96996 30.591 5.07996L30.881 5.15979L30.501 6.58997L30.511 6.56995ZM29.701 4.80994L29.731 4.68982V4.60999C29.731 4.60999 29.741 4.53988 29.731 4.49988C29.731 4.41988 29.731 4.37999 29.701 4.35999L29.621 4.31995C29.621 4.31995 29.521 4.30995 29.441 4.31995C29.361 4.31995 29.311 4.31997 29.281 4.33997C29.341 4.45997 29.471 4.61994 29.691 4.80994H29.701Z" fill="white"/>
<path d="M31.591 8.06006C31.491 8.17006 31.391 8.26008 31.291 8.33008C31.241 8.37008 31.201 8.39993 31.151 8.42993C31.101 8.45993 31.051 8.49002 31.001 8.52002C30.941 8.48002 30.881 8.38999 30.801 8.23999C30.751 8.15999 30.691 8.05994 30.631 7.93994L30.521 8.01001L30.241 8.19995C30.081 8.05995 29.961 7.86009 29.871 7.59009L30.4709 7.1499C30.5209 7.3299 30.621 7.51995 30.761 7.69995C30.821 7.69995 30.911 7.65007 31.021 7.57007C31.121 7.50007 31.191 7.44993 31.231 7.42993L31.591 8.05005V8.06006ZM32.291 7.31006L31.711 7.08008C31.581 7.03008 31.511 6.89993 31.501 6.67993V6.32007L31.031 6.81006L30.121 6.44995L30.6609 5.07007L31.671 5.46997C31.821 5.24997 31.941 5.0401 32.011 4.8501L32.091 4.66992C32.091 4.66992 32.121 4.62011 32.131 4.61011C32.141 4.60011 32.161 4.58006 32.191 4.56006C32.301 4.47006 32.551 4.32011 32.931 4.11011L32.741 4.6001L32.651 4.80005L32.571 4.95996L32.401 5.32007C32.301 5.58007 32.361 5.76009 32.591 5.84009L32.841 5.93994L32.301 7.32007L32.291 7.31006Z" fill="white"/>
<path d="M34.641 8.57007L34.101 8.28003L34.001 7.27002L33.241 7.82007L31.961 7.13989L32.6609 5.84009L33.9109 6.51001L33.431 4.56006L34.491 3.3999L36.961 3.8501L36.671 4.17993C36.541 4.32993 36.391 4.4899 36.241 4.6499L34.311 4.40991L34.601 5.76001C34.721 6.32001 34.851 6.7601 34.981 7.1001L35.331 7.29004L34.631 8.59009L34.641 8.57007Z" fill="white"/>
<path d="M38.031 6.34011L36.981 6.81008L36.231 8.05007C36.181 8.12007 36.041 8.29007 35.791 8.55007C35.541 8.81007 35.391 8.96 35.321 8.98L35.121 8.93996L34.321 8.38991L35.1609 7.16994L35.841 7.63991H35.871L35.891 7.60012C36.111 7.27012 36.321 6.92007 36.501 6.55007C36.721 6.09007 36.811 5.71996 36.771 5.43996L37.101 5.19997C37.101 5.19997 37.1809 5.15014 37.2209 5.12014C37.2609 5.09014 37.301 5.07007 37.341 5.05007C37.621 4.87007 37.831 4.78006 37.951 4.79006L37.851 4.94997C37.761 5.07997 37.751 5.30013 37.821 5.61013C37.851 5.73013 37.881 5.84998 37.921 5.95998C37.951 6.04998 38.001 6.16005 38.061 6.28005L38.031 6.3301V6.34011Z" fill="white"/>
<path d="M37.9709 8.98999C37.4809 9.56999 36.981 9.94009 36.461 10.0901L38.391 7.28003C38.441 7.21003 38.871 6.98009 39.681 6.59009C38.891 7.77009 38.3209 8.56999 37.9709 8.98999Z" fill="white"/>
<path d="M41.091 15.2599L40.761 14.82C40.701 14.74 40.711 14.6098 40.771 14.4198C40.801 14.3298 40.841 14.2599 40.871 14.1999C40.911 14.1399 40.951 14.1 41.011 14.06L40.301 14.2299L38.971 12.4298C38.651 11.9998 38.861 11.5099 39.591 10.9699C39.681 10.8999 39.741 10.86 39.781 10.83C39.821 10.81 39.901 10.7598 40.021 10.6898C40.141 10.6198 40.301 10.5499 40.501 10.4599C40.981 10.2399 41.291 10.1799 41.431 10.2599L41.371 10.31C41.291 10.37 41.171 10.4399 40.991 10.5299C40.811 10.6199 40.691 10.6999 40.611 10.7499C40.461 10.8599 40.341 11.0199 40.271 11.2199C40.191 11.4199 40.211 11.5999 40.331 11.7499L41.561 13.4098C41.561 13.4098 41.691 13.3599 41.821 13.2799C41.951 13.1999 42.121 13.0899 42.301 12.9499L43.361 12.9298L42.841 13.31L42.131 13.7399C42.021 13.8199 41.991 13.9099 42.021 14.0299L42.271 14.37L41.081 15.2499L41.091 15.2599ZM43.601 12.1298C43.531 12.1498 43.381 12.1698 43.141 12.1898C42.901 12.2098 42.761 12.1898 42.721 12.1598C42.701 12.1298 42.691 11.86 42.701 11.35H42.471L42.121 11.32C42.101 11.24 42.081 11.0898 42.081 10.8798C42.061 10.6298 42.081 10.4999 42.111 10.4699C42.161 10.4299 42.451 10.4299 42.991 10.4699C42.971 10.5199 42.951 10.65 42.941 10.86C42.941 11.06 42.941 11.1799 42.971 11.2199C42.971 11.2199 42.981 11.2199 42.991 11.2199C42.991 11.2199 43.011 11.2199 43.041 11.2199L43.261 11.2399L43.611 11.2699V12.12L43.601 12.1298Z" fill="white"/>
<path d="M40.761 17.05C40.611 17.06 40.481 17.06 40.361 17.05C40.301 17.05 40.251 17.05 40.191 17.04C40.131 17.04 40.071 17.02 40.011 17.01C39.991 16.94 40.011 16.8299 40.051 16.6699C40.061 16.5699 40.091 16.4601 40.131 16.3301L40.001 16.3101L39.671 16.26C39.641 16.05 39.691 15.8201 39.811 15.5601L40.551 15.6299C40.461 15.7999 40.411 16 40.401 16.23C40.451 16.26 40.551 16.29 40.681 16.3C40.801 16.31 40.881 16.3301 40.931 16.3401L40.781 17.04L40.761 17.05ZM41.781 16.96L41.501 16.3999C41.441 16.2799 41.471 16.13 41.611 15.96L41.861 15.7L41.171 15.74L40.731 14.8601L42.051 14.2L42.541 15.1699C42.801 15.1099 43.021 15.0299 43.211 14.9399L43.391 14.8601C43.391 14.8601 43.451 14.8401 43.461 14.8401C43.481 14.8401 43.501 14.8401 43.541 14.8401C43.681 14.8401 43.961 14.9 44.391 15L43.921 15.24L43.721 15.3301L43.561 15.3899L43.201 15.54C42.951 15.67 42.881 15.84 42.991 16.05L43.111 16.29L41.791 16.95L41.781 16.96Z" fill="white"/>
<path d="M41.031 18.3799C41.031 18.3799 40.8809 18.34 40.6609 18.23C40.6109 18.2 40.561 18.1799 40.531 18.1599C40.491 18.1399 40.461 18.1201 40.431 18.1001C40.381 18.0701 40.341 18.03 40.321 18C40.321 17.98 40.321 17.9399 40.331 17.8799C40.351 17.8199 40.371 17.7299 40.421 17.6299C40.461 17.5199 40.501 17.4399 40.531 17.3799C40.561 17.3199 40.591 17.28 40.611 17.27C40.651 17.25 40.791 17.2899 41.031 17.3899C41.271 17.4799 41.3909 17.5501 41.4109 17.5901C41.4109 17.6001 41.361 17.74 41.241 17.99C41.121 18.25 41.051 18.3799 41.031 18.3899V18.3799ZM44.151 17.79C43.891 17.89 43.571 17.97 43.201 18.04L42.741 18.1399C42.661 18.1599 42.581 18.1799 42.501 18.1899C42.431 18.1999 42.341 18.22 42.231 18.23L41.621 16.6001L43.011 16.0801L43.491 17.3799H43.541C43.661 17.3199 43.831 17.2 44.041 17C44.241 16.82 44.371 16.67 44.451 16.53L45.611 16.5801C45.181 17.1701 44.691 17.57 44.141 17.77L44.151 17.79Z" fill="white"/>
</svg>
