<svg width="46" height="45" viewBox="0 0 46 45" fill="none" xmlns="http://www.w3.org/2000/svg">
<path d="M11.641 22.1201H3.41101V23.21H11.641V22.1201Z" fill="white"/>
<path d="M45.4209 22.1201H37.1909V23.21H45.4209V22.1201Z" fill="white"/>
<path d="M15.221 33.5801H11.131V13.8601H15.221V33.5801ZM12.171 32.54H14.161V14.9199H12.171V32.54Z" fill="white"/>
<path d="M23.981 34.77C23.901 34.77 16.191 34.43 14.191 26.53L14.171 26.3999V20.0601L14.221 19.96C14.361 19.64 17.801 12.18 24.721 12.5L24.671 13.54C18.851 13.25 15.631 19.44 15.211 20.29V26.3301C17.031 33.3901 23.721 33.71 24.011 33.72L23.981 34.76V34.77Z" fill="white"/>
<path d="M23.991 28.1599V31.1699L23.291 30.96L22.161 31.4099L21.321 30.52L19.851 30.5701V29.3899L18.541 29.3601V28.3101L17.331 27.3401L17.671 26.1899L16.541 25.1699L17.121 24.1699L16.231 22.96L17.121 21.96L16.731 20.8301L17.701 19.99L17.281 18.99L18.621 18.47L18.521 17.3701L19.961 17.03L20.111 16.01H21.581L22.371 15.22L22.741 15.53C22.741 15.53 23.691 15.3499 23.991 15.4299V17.8999C23.991 17.8999 20.171 18.77 20.251 23.49C20.251 23.49 19.841 27.0699 23.991 28.1699V28.1599Z" fill="white"/>
<path d="M28.711 15.33V32.7399C28.711 32.7399 30.351 34.4198 29.061 34.9098C29.061 34.9098 26.861 35.19 26.751 34.35V13.6498C26.751 13.6498 28.511 11.8899 29.841 12.9399C29.841 12.9399 30.401 13.75 28.701 15.33H28.711Z" fill="white"/>
<path d="M34.341 13.3001V34.18C34.341 34.18 33.501 35.5101 31.611 34.5601C31.611 34.5601 31.401 33.65 32.731 32.46V15.5401C32.731 15.5401 31.301 13.0002 32.631 12.6102C32.631 12.6102 33.501 12.3201 34.341 13.3001Z" fill="white"/>
<path d="M34.991 34.9601V13.39C34.991 13.39 36.481 12.32 37.491 13.13C37.491 13.13 38.121 13.9302 36.791 15.1202V32.5101C36.791 32.5101 37.611 33.5301 37.191 34.5301C37.191 34.5301 36.641 35.4701 34.991 34.9601Z" fill="white"/>
<path d="M26.131 13.4399V34.3201C26.131 34.3201 24.871 35.2601 23.821 34.3201C23.821 34.3201 23.081 33.52 24.451 31.73V12.3201L26.511 13.1899C26.511 13.1899 26.201 13.2799 26.131 13.4299V13.4399Z" fill="white"/>
<path d="M24.451 12.95H23.621V15.55H24.451V12.95Z" fill="white"/>
<path d="M33.211 21.8999H28.0909V24.46H33.211V21.8999Z" fill="white"/>
<path d="M2.96094 27.8601L7.01093 26.74L7.16093 27.29L5.36093 27.79L7.47093 28.3999L7.67093 29.1399L5.81093 28.55L3.63094 30.3101L3.43092 29.6001L5.13094 28.3301L4.33093 28.0701L3.10094 28.4099L2.95093 27.8601H2.96094Z" fill="white"/>
<path d="M7.72099 29.24L7.95099 29.76L5.87099 30.6799C5.54099 30.8299 5.331 30.93 5.241 30.98C5.091 31.07 4.99098 31.1801 4.93098 31.3101C4.87098 31.4401 4.88098 31.57 4.93098 31.72C5.00098 31.87 5.091 31.96 5.211 31.99C5.331 32.03 5.461 32.02 5.601 31.98C5.741 31.94 5.96099 31.85 6.26099 31.71L8.39099 30.77L8.62099 31.29L6.601 32.1899C6.141 32.3899 5.811 32.5301 5.601 32.5801C5.401 32.6401 5.21099 32.6599 5.05099 32.6399C4.89099 32.6199 4.741 32.57 4.601 32.48C4.471 32.39 4.35099 32.24 4.26099 32.04C4.15099 31.79 4.11099 31.5899 4.14099 31.4199C4.17099 31.2599 4.23099 31.11 4.34099 30.97C4.44099 30.84 4.56099 30.7199 4.70099 30.6399C4.90099 30.5099 5.22099 30.3499 5.65099 30.1599L7.70099 29.25L7.72099 29.24Z" fill="white"/>
<path d="M5.48096 34.26L8.61096 31.3701L8.93095 31.8501L6.76096 33.8101L9.45096 32.6399L9.83096 33.2L7.66096 35.24L10.341 33.97L10.661 34.45L6.78096 36.21L6.45096 35.71L8.75096 33.5L5.82097 34.78L5.48096 34.27V34.26Z" fill="white"/>
<path d="M9.24092 38.99L8.82092 38.54L9.35092 37.71L8.58092 36.8799L7.72092 37.3601L7.31091 36.9199L11.1409 34.8701L11.5509 35.3101L9.23091 39L9.24092 38.99ZM9.75092 37.0901L10.6309 35.75L9.23091 36.53L9.75092 37.0901Z" fill="white"/>
<path d="M9.66089 39.3201L12.4409 36.1699L12.8709 36.55L10.0909 39.7L9.66089 39.3201Z" fill="white"/>
<path d="M11.1809 40.5901L13.2509 37.77L12.5809 37.28L13.0009 36.71L14.8109 38.03L14.3909 38.6001L13.7209 38.1101L11.6509 40.9299L11.1909 40.5901H11.1809Z" fill="white"/>
<path d="M16.3009 41.79L16.6909 42.26C16.4209 42.64 16.1509 42.89 15.8709 43.01C15.6009 43.13 15.3209 43.12 15.0509 42.99C14.7109 42.83 14.5109 42.5301 14.4609 42.0801C14.4009 41.6301 14.5209 41.11 14.8009 40.51C15.1009 39.88 15.4409 39.4399 15.8209 39.1899C16.2009 38.9399 16.5709 38.9001 16.9309 39.0701C17.2409 39.2201 17.4309 39.4701 17.5009 39.8401C17.5409 40.0601 17.5209 40.3299 17.4309 40.6599L16.8409 40.6001C16.9009 40.3901 16.9109 40.2 16.8709 40.04C16.8309 39.88 16.7409 39.7699 16.6009 39.6999C16.4109 39.6099 16.2109 39.64 16.0009 39.79C15.7909 39.94 15.5709 40.2399 15.3609 40.6899C15.1309 41.1699 15.0309 41.54 15.0509 41.8C15.0709 42.06 15.1709 42.2301 15.3609 42.3201C15.5009 42.3801 15.6409 42.37 15.8009 42.29C15.9609 42.21 16.1309 42.04 16.3009 41.78V41.79Z" fill="white"/>
<path d="M16.9609 43.73L18.1609 39.7L18.7009 39.8601L18.2309 41.45L19.3009 41.77L19.7709 40.1799L20.3209 40.3401L19.1209 44.3701L18.5809 44.21L19.1109 42.45L18.0409 42.1299L17.5109 43.8899L16.9709 43.73H16.9609Z" fill="white"/>
<path d="M20.0509 44.5701L20.6709 40.4099L22.7409 40.72L22.6409 41.4199L21.1409 41.2L21.0009 42.1201L22.4009 42.3301L22.3009 43.03L20.9009 42.8201L20.7309 43.95L22.2909 44.1799L22.1909 44.8799L20.0709 44.5701H20.0509Z" fill="white"/>
<path d="M23.051 44.98L22.991 40.78H23.841L24.391 43.6299L24.851 40.75H25.701L25.761 44.9399H25.231L25.181 41.6399L24.671 44.96H24.121L23.521 41.6699L23.571 44.98H23.041H23.051Z" fill="white"/>
<path d="M26.5809 44.8401L26.0909 40.6599L26.6509 40.5901L27.1409 44.77L26.5809 44.8401Z" fill="white"/>
<path d="M29.381 42.7801L29.971 42.91C29.991 43.38 29.921 43.7401 29.781 44.0001C29.641 44.2601 29.421 44.4201 29.121 44.4901C28.751 44.5701 28.411 44.45 28.091 44.13C27.771 43.81 27.541 43.33 27.401 42.68C27.251 42 27.251 41.4401 27.401 41.0101C27.551 40.5801 27.821 40.3201 28.211 40.2401C28.551 40.1701 28.851 40.2501 29.131 40.5001C29.291 40.6501 29.441 40.88 29.581 41.19L29.071 41.5101C28.991 41.3001 28.881 41.1501 28.751 41.0501C28.621 40.9501 28.481 40.92 28.331 40.95C28.131 41 27.991 41.14 27.911 41.39C27.831 41.64 27.851 42.0001 27.961 42.4901C28.081 43.0101 28.221 43.3601 28.391 43.5601C28.561 43.7501 28.751 43.8301 28.951 43.7801C29.101 43.7501 29.211 43.6501 29.281 43.4901C29.351 43.3301 29.381 43.0901 29.361 42.7801H29.381Z" fill="white"/>
<path d="M33.461 42.99L32.881 43.21L32.3109 42.4099L31.2609 42.8201L31.3909 43.79L30.8309 44.01L30.3409 39.6899L30.9009 39.47L33.4709 42.99H33.461ZM31.881 41.8201L30.961 40.5L31.1709 42.0901L31.8909 41.8101L31.881 41.8201Z" fill="white"/>
<path d="M34.0509 42.6799L32.0309 39.03L32.5309 38.75L34.2109 41.78L35.4509 41.0901L35.7909 41.71L34.0509 42.6699V42.6799Z" fill="white"/>
<path d="M37.3609 40.6399L34.6709 37.4099L35.1109 37.05L36.1709 38.3201L37.0309 37.6101L35.9709 36.3401L36.4109 35.98L39.1009 39.21L38.6609 39.5701L37.4809 38.1599L36.6209 38.8701L37.8009 40.28L37.3609 40.6399Z" fill="white"/>
<path d="M38.1909 37.22C37.8709 36.94 37.6309 36.67 37.4709 36.41C37.3509 36.22 37.2709 36.0301 37.2109 35.8301C37.1509 35.6301 37.1409 35.4601 37.1709 35.3101C37.2009 35.1101 37.3009 34.9201 37.4509 34.7401C37.7209 34.4301 38.0909 34.3102 38.5409 34.3702C38.9909 34.4402 39.4809 34.7 39.9909 35.15C40.5009 35.6 40.8209 36.0401 40.9409 36.4801C41.0609 36.9201 40.9909 37.2902 40.7109 37.6002C40.4309 37.9102 40.0709 38.04 39.6209 37.97C39.1709 37.9 38.6909 37.65 38.1909 37.2V37.22ZM38.5609 36.7601C38.9209 37.0801 39.2409 37.2601 39.5209 37.3101C39.8009 37.3601 40.0209 37.31 40.1709 37.13C40.3209 36.96 40.3509 36.74 40.2709 36.47C40.1809 36.2 39.9609 35.9001 39.5909 35.5801C39.2309 35.2601 38.9109 35.0801 38.6409 35.0301C38.3709 34.9801 38.1509 35.04 38.0009 35.22C37.8509 35.4 37.8109 35.62 37.8909 35.88C37.9809 36.15 38.2009 36.4401 38.5609 36.7601Z" fill="white"/>
<path d="M38.5009 33.6001L38.8109 33.1201L40.731 34.3501C41.031 34.5501 41.2309 34.67 41.3309 34.71C41.4909 34.78 41.6409 34.81 41.7709 34.79C41.9109 34.77 42.021 34.6901 42.101 34.5601C42.191 34.4201 42.211 34.2999 42.171 34.1699C42.131 34.0399 42.0609 33.9401 41.9409 33.8501C41.8309 33.7601 41.631 33.6199 41.351 33.4399L39.391 32.1799L39.701 31.7L41.5609 32.8899C41.9909 33.1599 42.2809 33.37 42.4409 33.51C42.6009 33.65 42.721 33.7899 42.791 33.9399C42.861 34.0899 42.9009 34.2399 42.9009 34.3999C42.9009 34.5599 42.8409 34.7399 42.7109 34.9199C42.5609 35.1499 42.411 35.2901 42.261 35.3601C42.111 35.4301 41.9509 35.4499 41.7809 35.4399C41.6109 35.4299 41.4509 35.3901 41.3009 35.3201C41.0809 35.2201 40.7709 35.04 40.3709 34.79L38.481 33.5801L38.5009 33.6001Z" fill="white"/>
<path d="M42.411 32.6899L42.571 32.1498C42.841 32.2398 43.051 32.2599 43.211 32.2199C43.371 32.1799 43.491 32.0798 43.561 31.9298C43.641 31.7598 43.641 31.6099 43.571 31.4799C43.501 31.3499 43.401 31.2498 43.261 31.1798C43.171 31.1398 43.081 31.1198 43.011 31.1298C42.931 31.1298 42.851 31.1699 42.761 31.2399C42.701 31.2899 42.581 31.4 42.401 31.58C42.171 31.81 41.961 31.9499 41.761 31.9899C41.481 32.0499 41.191 32.01 40.881 31.87C40.691 31.78 40.521 31.6599 40.381 31.5099C40.241 31.3599 40.161 31.1899 40.141 31.0099C40.121 30.8299 40.141 30.6399 40.241 30.4399C40.391 30.1199 40.601 29.92 40.891 29.86C41.181 29.79 41.491 29.8399 41.851 29.9899L41.651 30.5199C41.441 30.4499 41.281 30.4399 41.161 30.4699C41.041 30.4999 40.951 30.5899 40.881 30.7399C40.811 30.8899 40.801 31.0298 40.861 31.1598C40.891 31.2398 40.961 31.31 41.061 31.35C41.151 31.39 41.241 31.3998 41.331 31.3798C41.441 31.3498 41.601 31.2299 41.801 31.0199C42.001 30.8099 42.181 30.66 42.331 30.59C42.481 30.52 42.651 30.4799 42.851 30.4799C43.051 30.4799 43.261 30.5498 43.511 30.6598C43.731 30.7598 43.921 30.89 44.071 31.06C44.221 31.23 44.311 31.41 44.341 31.6C44.371 31.79 44.331 31.9999 44.231 32.2199C44.081 32.5399 43.861 32.74 43.551 32.81C43.251 32.88 42.871 32.8398 42.431 32.6698L42.411 32.6899Z" fill="white"/>
<path d="M44.901 30.3899L40.871 29.1799L41.471 27.1799L42.151 27.3799L41.711 28.8401L42.601 29.1101L43.011 27.75L43.691 27.95L43.281 29.3101L44.381 29.6399L44.831 28.1299L45.511 28.3301L44.901 30.3799V30.3899Z" fill="white"/>
<path d="M1.80098 13.26C1.91098 13.39 2.08097 13.62 2.31097 13.97L1.64098 14.4199L1.78098 14.6699L1.93097 14.9099C1.87097 15.0099 1.63097 15.1799 1.23097 15.3999C1.15097 15.2999 1.07097 15.18 0.980972 15.05C0.900972 14.94 0.830977 14.8099 0.750977 14.6699C0.780977 14.6699 0.830976 14.6401 0.890976 14.6101L1.10098 14.49C1.27098 14.39 1.36098 14.32 1.38098 14.28L1.36098 14.24L1.25098 14.02L1.09097 13.72L1.79097 13.25L1.80098 13.26ZM4.72098 13.72L4.81097 13.75L4.95097 13.8L5.10098 13.8701L5.30098 13.3799L6.65097 13.8899L5.75098 16.3C5.91098 16.47 6.05097 16.6699 6.17097 16.8799C6.29097 17.0899 6.39098 17.3301 6.47098 17.6001C6.55098 17.8601 6.59097 18.1101 6.59097 18.3601C6.59097 18.6001 6.55098 18.83 6.47098 19.04C6.32098 19.43 6.10097 19.6901 5.81097 19.8101C5.52097 19.9301 5.18097 19.92 4.79097 19.78C4.61097 19.71 4.42097 19.61 4.23097 19.47C4.04097 19.33 3.84097 19.17 3.65097 18.97C3.43097 18.75 3.26097 18.5501 3.15097 18.3601C3.03097 18.1701 2.96098 17.9901 2.94098 17.8201C3.00098 17.8401 3.08097 17.89 3.17097 17.97C3.22097 18.01 3.27098 18.0601 3.33098 18.1101C3.39098 18.1601 3.46097 18.2301 3.54097 18.3201C3.80097 18.5801 4.04098 18.7601 4.28098 18.8501C4.58098 18.9601 4.85098 18.94 5.11098 18.78C5.22098 18.7 5.31098 18.61 5.39098 18.5C5.47098 18.39 5.55098 18.2501 5.61098 18.0901C5.68098 17.9101 5.75098 17.55 5.82098 17.01L5.79097 16.99C5.58097 16.91 5.36098 17.01 5.16098 17.29L5.00098 17.55C4.93098 17.68 4.86098 17.82 4.80098 17.98C4.66098 17.9 4.52097 17.7899 4.37097 17.6599C4.29097 17.5899 4.21098 17.5199 4.13098 17.4299C4.05098 17.3499 3.96097 17.2499 3.87097 17.1499L4.92097 14.3401C4.71097 14.3201 4.49098 14.3201 4.28098 14.3301C4.08098 14.3301 3.87098 14.3499 3.64098 14.3799L2.84097 13.6101C3.65097 13.5101 4.27098 13.54 4.72098 13.7V13.72ZM7.20097 18.47C7.38097 18.65 7.49098 18.7999 7.55098 18.9199C7.53098 18.9599 7.38098 19.07 7.11098 19.24C7.14098 19.34 7.21098 19.4401 7.30098 19.5701C7.20098 19.7201 7.05098 19.8199 6.83098 19.8799L6.51097 19.4299C6.51097 19.4299 6.53097 19.4199 6.54097 19.4099C6.58097 19.3799 6.64098 19.35 6.72098 19.3C6.85098 19.24 6.92098 19.1899 6.94098 19.1399C6.94098 19.1399 6.94098 19.1399 6.94098 19.1299C6.94098 19.0999 6.92097 19.07 6.90097 19.04L6.75098 18.77L6.97098 18.6201L7.23097 18.47H7.20097Z" fill="white"/>
<path d="M6.20099 11.71L7.67099 12.8601L6.45099 14.74L5.211 13.9299L6.211 12.3899C5.871 12.2699 5.46099 12.1899 5.00099 12.1399L4.39099 11.24C4.46099 11.24 4.53099 11.24 4.59099 11.24C4.65099 11.24 4.73099 11.25 4.84099 11.26C4.92099 11.26 4.981 11.28 5.021 11.29C5.151 11.31 5.26099 11.3201 5.34099 11.3401C5.50099 11.3801 5.66099 11.43 5.80099 11.5C5.95099 11.56 6.081 11.64 6.211 11.72L6.20099 11.71ZM8.54099 13.74C8.69099 13.96 8.811 14.1899 8.881 14.4099C8.831 14.4499 8.73099 14.5 8.58099 14.55L8.25099 14.6499L8.321 14.8301L8.43098 15.0901C8.26098 15.2201 8.03099 15.3001 7.76099 15.3101L7.45099 14.6399C7.64099 14.6199 7.84099 14.57 8.05099 14.47C8.05099 14.41 8.02099 14.32 7.98099 14.21C7.92099 14.09 7.891 14 7.881 13.95L8.55099 13.73L8.54099 13.74Z" fill="white"/>
<path d="M9.621 10.4801L9.361 10.7902L9.60101 11.2401L9.85101 11.7001C10.031 12.1301 10.031 12.45 9.861 12.64C9.711 12.81 9.501 13.0001 9.221 13.2101C8.911 13.4201 8.661 13.5502 8.471 13.5802C9.001 12.9502 9.181 12.1601 9.001 11.2001C8.691 11.4901 8.48101 11.6601 8.35101 11.7101C8.10101 11.8301 7.841 11.7702 7.581 11.5502C7.441 11.4302 7.291 11.2702 7.151 11.0902C7.011 10.9002 6.86101 10.68 6.71101 10.41C6.36101 9.79003 6.281 9.37002 6.471 9.15002C6.601 9.00002 6.90101 9.02008 7.38101 9.21008C7.42101 9.23008 7.491 9.26018 7.591 9.31018C7.661 9.35018 7.731 9.38004 7.811 9.42004C7.841 9.44004 7.91101 9.48017 8.02101 9.55017C8.13101 9.62017 8.23101 9.68009 8.30101 9.72009L8.481 9.51013L9.611 10.4701L9.621 10.4801ZM7.831 10.1801C7.831 10.1801 7.76101 10.1302 7.71101 10.1102C7.66101 10.0902 7.60101 10.0802 7.52101 10.0702C7.38101 10.0402 7.281 10.0702 7.231 10.1202C7.221 10.1302 7.21101 10.1601 7.21101 10.1901V10.2801C7.21101 10.3601 7.211 10.4101 7.231 10.4401C7.301 10.5001 7.391 10.5201 7.511 10.4901C7.601 10.4601 7.691 10.4202 7.761 10.3502C7.831 10.2602 7.861 10.2 7.831 10.17V10.1801Z" fill="white"/>
<path d="M11.581 8.73999L11.121 9.1499L10.141 8.8999L10.401 9.80005L9.321 10.77L8.33099 9.66992L9.381 8.71997L7.381 8.51001L6.64099 7.12012L7.90099 4.94995L8.11099 5.33008C8.21099 5.51008 8.31099 5.69989 8.40099 5.88989L7.521 7.62012L8.89099 7.80005C9.46099 7.88005 9.92099 7.9099 10.281 7.8999L10.581 7.62988L11.571 8.72998L11.581 8.73999Z" fill="white"/>
<path d="M10.6209 4.81006L10.7109 5.95996L11.6309 7.08008C11.6809 7.15008 11.7909 7.33991 11.9509 7.65991C12.1109 7.97991 12.2009 8.18 12.2009 8.25L12.0909 8.41992L11.3009 8.98999L10.4409 7.79004L11.1109 7.31006V7.28003L11.0909 7.25C10.8609 6.93 10.6009 6.62007 10.3109 6.32007C9.95092 5.96007 9.63093 5.74994 9.36093 5.68994L9.25093 5.30005C9.25093 5.30005 9.23093 5.20991 9.22093 5.15991C9.21093 5.10991 9.20093 5.07002 9.19093 5.02002C9.11093 4.69002 9.10092 4.47011 9.15092 4.36011L9.27093 4.51001C9.36093 4.63001 9.56093 4.72001 9.89093 4.76001C10.0109 4.78001 10.1309 4.79004 10.2509 4.79004C10.3509 4.79004 10.4609 4.79002 10.6009 4.77002L10.6309 4.82007L10.6209 4.81006Z" fill="white"/>
<path d="M13.101 5.75C13.481 6.4 13.661 7.00004 13.631 7.54004L11.641 4.77002C11.591 4.70002 11.521 4.22007 11.421 3.32007C12.261 4.46007 12.831 5.26999 13.101 5.73999V5.75Z" fill="white"/>
<path d="M19.121 3.68994L19.151 5.17993L16.631 5.97998C16.121 6.13998 15.731 5.78992 15.461 4.91992C15.371 4.63992 15.311 4.31995 15.291 3.94995C15.251 3.47995 15.301 3.19006 15.431 3.06006C15.461 3.15006 15.491 3.26993 15.521 3.42993C15.551 3.58993 15.581 3.72007 15.621 3.82007C15.681 4.00007 15.791 4.16006 15.961 4.31006C16.151 4.47006 16.331 4.51996 16.511 4.45996L18.571 3.81006V3.78003C18.531 3.65003 18.351 3.40004 18.011 3.04004L18.111 1.87988C18.551 2.30988 18.801 2.64011 18.871 2.86011L19.141 3.69995L19.121 3.68994ZM17.401 1.47998C17.371 1.60998 17.341 1.74012 17.301 1.87012C17.261 2.00012 17.221 2.14003 17.161 2.28003C17.061 2.28003 16.931 2.24995 16.771 2.19995L16.381 2.07007C16.311 2.20007 16.241 2.37009 16.171 2.59009L16.021 2.56006L15.751 2.46997C15.521 2.39997 15.401 2.35006 15.381 2.31006C15.381 2.28006 15.451 2.01001 15.641 1.51001C16.051 1.69001 16.281 1.77 16.341 1.75L16.361 1.71997L16.471 1.5L16.601 1.18994L17.391 1.45996L17.401 1.47998Z" fill="white"/>
<path d="M21.291 4.82007L20.281 4.98999L19.361 1.09009C19.361 1.03009 19.401 0.860068 19.521 0.570068L19.751 0.0200195L20.591 3.43994L21.051 3.36011L21.301 4.82007H21.291Z" fill="white"/>
<path d="M23.041 2.83008L23.011 4.69995L20.781 4.86011L20.671 3.38989L22.511 3.26001V3.23999C22.391 2.90999 22.211 2.53988 21.971 2.12988L22.321 1.1001C22.361 1.1601 22.401 1.21002 22.441 1.27002C22.471 1.32002 22.521 1.38998 22.571 1.47998C22.611 1.54998 22.641 1.59989 22.661 1.63989C22.731 1.75989 22.781 1.84993 22.811 1.92993C22.881 2.07993 22.931 2.23989 22.971 2.38989C23.011 2.54989 23.031 2.7001 23.041 2.8501V2.83008ZM22.841 5.91992C22.751 6.17992 22.641 6.4001 22.511 6.6001C22.451 6.5901 22.351 6.53994 22.221 6.43994L21.941 6.22998L21.841 6.38989L21.701 6.62988C21.491 6.56988 21.301 6.43998 21.121 6.22998L21.471 5.58008C21.601 5.72008 21.761 5.84996 21.971 5.95996C22.011 5.91996 22.071 5.85 22.131 5.75C22.191 5.63 22.241 5.55001 22.271 5.51001L22.851 5.90991L22.841 5.91992Z" fill="white"/>
<path d="M26.051 3.24008C26.031 3.55008 25.991 3.84999 25.931 4.14999C25.901 4.31999 25.861 4.4702 25.821 4.6102C25.781 4.7502 25.721 4.91017 25.651 5.08017C25.341 5.91017 24.961 6.32014 24.501 6.30014C24.051 6.28014 23.561 6.16003 23.041 5.94003L22.831 5.85019L22.811 5.83017L22.781 5.77011L23.481 5.71005C24.181 5.41005 24.711 5.09011 25.061 4.77011C25.411 4.44011 25.591 4.1101 25.611 3.7601L25.591 3.73007C25.431 4.07007 25.341 4.24009 25.331 4.25009C25.211 4.40009 25.051 4.47005 24.821 4.46005C24.381 4.44005 24.181 4.14017 24.201 3.58017C24.201 3.40017 24.241 3.21009 24.301 3.00009C24.361 2.79009 24.451 2.5501 24.581 2.2601C24.711 1.9701 24.841 1.75997 24.971 1.62997C25.101 1.48997 25.241 1.43003 25.381 1.44003H25.451C25.881 1.83003 26.071 2.4301 26.031 3.2601L26.051 3.24008ZM25.421 3.12997C25.421 3.06998 25.421 3.01004 25.411 2.95004L25.361 2.83017C25.321 2.71017 25.251 2.64997 25.161 2.62997C25.101 2.62997 25.031 2.67008 24.941 2.74008C24.851 2.82008 24.811 2.89005 24.811 2.96005C24.811 3.01005 24.851 3.06998 24.941 3.13998C25.021 3.17998 25.101 3.21007 25.171 3.23007C25.221 3.23007 25.301 3.20999 25.431 3.14999V3.12021L25.421 3.12997Z" fill="white"/>
<path d="M27.791 5.07007L26.771 4.90991L27.131 0.909912C27.131 0.849912 27.241 0.699971 27.441 0.469971L27.841 0.0200195L27.561 3.53003L28.021 3.6001L27.791 5.06006V5.07007Z" fill="white"/>
<path d="M30.351 5.73006L29.711 5.56014C29.711 5.56014 29.661 5.59999 29.621 5.65999L29.551 5.7701C29.501 5.8801 29.441 5.95005 29.361 5.97005L28.261 4.38997C28.261 4.38997 28.191 4.48014 28.141 4.56014L28.001 4.82015C27.951 4.96015 27.851 5.03013 27.721 5.05013L27.401 4.97005L27.781 3.54012L28.331 3.69002C28.331 3.69002 28.471 3.56016 28.671 3.33016C28.781 3.21016 28.881 3.1001 28.971 3.0201C29.061 2.9401 29.151 2.87012 29.261 2.79012C29.531 2.62012 29.801 2.55996 30.071 2.62996C30.181 2.65996 30.241 2.70009 30.251 2.76009C30.251 2.78009 30.251 2.81017 30.251 2.84017C30.251 2.87017 30.231 2.91006 30.221 2.98006C30.181 3.14006 30.171 3.36998 30.221 3.64998C30.261 3.93998 30.331 4.13007 30.431 4.24007L30.721 4.32015L30.341 5.75008L30.351 5.73006ZM29.541 3.97005L29.571 3.85018V3.7701C29.571 3.7701 29.581 3.69999 29.571 3.65999C29.571 3.57999 29.571 3.5401 29.541 3.5201L29.461 3.48006C29.461 3.48006 29.361 3.47006 29.281 3.48006C29.201 3.48006 29.151 3.48008 29.121 3.50008C29.181 3.62008 29.311 3.78005 29.531 3.97005H29.541Z" fill="white"/>
<path d="M31.4309 7.21997C31.3309 7.32997 31.2309 7.41999 31.1309 7.48999C31.0809 7.52999 31.0409 7.56009 30.9909 7.59009C30.9409 7.62009 30.8909 7.64993 30.8409 7.67993C30.7809 7.63993 30.7209 7.5499 30.6409 7.3999C30.5909 7.3199 30.5309 7.2201 30.4709 7.1001L30.3609 7.16992L30.0809 7.36011C29.9209 7.22011 29.8009 7.02 29.7109 6.75L30.3109 6.31006C30.3609 6.49006 30.4609 6.68011 30.6009 6.86011C30.6609 6.86011 30.7509 6.80998 30.8609 6.72998C30.9609 6.65998 31.0309 6.61009 31.0709 6.59009L31.4309 7.20996V7.21997ZM32.1309 6.46997L31.5509 6.23999C31.4209 6.18999 31.3509 6.06009 31.3409 5.84009V5.47998L30.8709 5.96997L29.9609 5.61011L30.5009 4.22998L31.5109 4.62988C31.6609 4.40988 31.7809 4.20001 31.8509 4.01001L31.9309 3.83008C31.9309 3.83008 31.9609 3.78002 31.9709 3.77002C31.9809 3.76002 32.0009 3.73997 32.0309 3.71997C32.1409 3.62997 32.3909 3.48002 32.7709 3.27002L32.5809 3.76001L32.4909 3.95996L32.4109 4.12012L32.2409 4.47998C32.1409 4.73998 32.2009 4.92 32.4309 5L32.6809 5.1001L32.1409 6.47998L32.1309 6.46997Z" fill="white"/>
<path d="M34.481 7.72998L33.941 7.43994L33.841 6.42993L33.081 6.97998L31.801 6.30005L32.501 5L33.751 5.66992L33.271 3.71997L34.331 2.56006L36.801 3.01001L36.511 3.34009C36.381 3.49009 36.231 3.65006 36.081 3.81006L34.151 3.57007L34.441 4.91992C34.561 5.47992 34.691 5.92001 34.821 6.26001L35.171 6.44995L34.471 7.75L34.481 7.72998Z" fill="white"/>
<path d="M37.871 5.51003L36.821 5.98L36.071 7.21999C36.021 7.28999 35.881 7.45999 35.631 7.71999C35.381 7.97999 35.231 8.12992 35.161 8.14992L34.961 8.11013L34.161 7.56008L35.001 6.34011L35.681 6.81008H35.711L35.731 6.77004C35.951 6.44004 36.161 6.08999 36.341 5.71999C36.561 5.25999 36.651 4.89013 36.611 4.61013L36.941 4.37014C36.941 4.37014 37.021 4.32006 37.061 4.29006C37.101 4.26006 37.141 4.23999 37.181 4.21999C37.461 4.03999 37.671 3.94998 37.791 3.95998L37.691 4.12014C37.601 4.25014 37.591 4.47005 37.661 4.78005C37.691 4.90005 37.721 5.0199 37.761 5.1299C37.791 5.2199 37.841 5.32997 37.901 5.44997L37.871 5.50002V5.51003Z" fill="white"/>
<path d="M37.811 8.1499C37.321 8.7299 36.821 9.1 36.301 9.25L38.231 6.43994C38.281 6.36994 38.711 6.14 39.521 5.75C38.731 6.93 38.161 7.7299 37.811 8.1499Z" fill="white"/>
<path d="M40.941 14.4298L40.6109 13.9899C40.5509 13.9099 40.561 13.78 40.621 13.59C40.651 13.5 40.691 13.43 40.721 13.37C40.761 13.31 40.8009 13.2699 40.8609 13.2299L40.151 13.3998L38.821 11.6C38.501 11.17 38.711 10.6798 39.441 10.1398C39.531 10.0698 39.591 10.0299 39.631 9.99991C39.671 9.97991 39.751 9.93001 39.871 9.86001C39.991 9.79001 40.151 9.71979 40.351 9.62979C40.831 9.40979 41.141 9.34984 41.281 9.42984L41.221 9.47989C41.141 9.53989 41.021 9.60986 40.841 9.69986C40.661 9.78986 40.5409 9.86983 40.4609 9.91983C40.3109 10.0298 40.191 10.1898 40.121 10.3898C40.041 10.5898 40.0609 10.7698 40.1809 10.9198L41.411 12.58C41.411 12.58 41.541 12.5299 41.671 12.4499C41.801 12.3699 41.971 12.26 42.151 12.12L43.2109 12.1L42.691 12.4799L41.981 12.9098C41.871 12.9898 41.841 13.0799 41.871 13.1999L42.121 13.5399L40.9309 14.4198L40.941 14.4298ZM43.441 11.3C43.371 11.32 43.221 11.34 42.981 11.36C42.741 11.38 42.601 11.36 42.561 11.33C42.541 11.3 42.531 11.0299 42.541 10.5199H42.311L41.9609 10.4899C41.9409 10.4099 41.921 10.26 41.921 10.05C41.901 9.79996 41.921 9.6698 41.951 9.6398C42.001 9.5998 42.2909 9.5998 42.8309 9.6398C42.8109 9.6898 42.791 9.81994 42.781 10.0299C42.781 10.2299 42.781 10.3498 42.811 10.3898C42.811 10.3898 42.8209 10.3898 42.8309 10.3898C42.8309 10.3898 42.851 10.3898 42.881 10.3898L43.101 10.4098L43.451 10.4398V11.2899L43.441 11.3Z" fill="white"/>
<path d="M40.611 16.21C40.461 16.22 40.331 16.22 40.211 16.21C40.151 16.21 40.101 16.21 40.041 16.2C39.981 16.2 39.921 16.1799 39.861 16.1699C39.841 16.0999 39.861 15.9901 39.901 15.8301C39.911 15.7301 39.941 15.62 39.981 15.49L39.851 15.47L39.521 15.4199C39.491 15.2099 39.541 14.98 39.661 14.72L40.401 14.79C40.311 14.96 40.261 15.1599 40.251 15.3899C40.301 15.4199 40.401 15.45 40.531 15.46C40.651 15.47 40.731 15.49 40.781 15.5L40.631 16.2L40.611 16.21ZM41.631 16.1201L41.351 15.5601C41.291 15.4401 41.321 15.2901 41.461 15.1201L41.711 14.8601L41.021 14.8999L40.581 14.02L41.901 13.3601L42.391 14.3301C42.651 14.2701 42.871 14.1901 43.061 14.1001L43.241 14.02C43.241 14.02 43.301 14 43.311 14C43.331 14 43.351 14 43.391 14C43.531 14 43.811 14.0599 44.241 14.1599L43.771 14.3999L43.571 14.49L43.411 14.55L43.051 14.7C42.801 14.83 42.731 15 42.841 15.21L42.961 15.45L41.641 16.1101L41.631 16.1201Z" fill="white"/>
<path d="M40.871 17.55C40.871 17.55 40.721 17.5099 40.501 17.3999C40.451 17.3699 40.401 17.3501 40.371 17.3301C40.331 17.3101 40.301 17.29 40.271 17.27C40.221 17.24 40.181 17.1999 40.161 17.1699C40.161 17.1499 40.161 17.11 40.171 17.05C40.191 16.99 40.211 16.9 40.261 16.8C40.301 16.69 40.341 16.61 40.371 16.55C40.401 16.49 40.431 16.4499 40.451 16.4399C40.491 16.4199 40.631 16.4601 40.871 16.5601C41.111 16.6501 41.231 16.72 41.251 16.76C41.251 16.77 41.201 16.9099 41.081 17.1599C40.961 17.4199 40.891 17.5501 40.871 17.5601V17.55ZM44.001 16.95C43.741 17.05 43.421 17.13 43.051 17.2L42.591 17.3C42.511 17.32 42.431 17.3401 42.351 17.3501C42.281 17.3601 42.191 17.3799 42.081 17.3899L41.471 15.76L42.861 15.24L43.341 16.54H43.391C43.511 16.48 43.681 16.3599 43.891 16.1599C44.091 15.9799 44.221 15.8299 44.301 15.6899L45.461 15.74C45.031 16.33 44.541 16.7299 43.991 16.9299L44.001 16.95Z" fill="white"/>
</svg>
