<svg width="46" height="46" viewBox="0 0 46 46" fill="none" xmlns="http://www.w3.org/2000/svg">
<path d="M11.401 22.6299H3.17102V23.72H11.401V22.6299Z" fill="white"/>
<path d="M45.181 22.6299H36.9509V23.72H45.181V22.6299Z" fill="white"/>
<path d="M14.9709 34.0901H10.881V14.3701H14.9709V34.0901ZM11.931 33.04H13.921V15.4199H11.931V33.04Z" fill="white"/>
<path d="M23.731 35.28C23.651 35.28 15.9409 34.94 13.9409 27.04L13.921 26.9099V20.5701L13.9709 20.47C14.1109 20.15 17.5509 12.69 24.4709 13.01L24.421 14.05C18.601 13.76 15.3809 19.95 14.9609 20.8V26.8401C16.7809 33.9001 23.471 34.22 23.761 34.23L23.731 35.27V35.28Z" fill="white"/>
<path d="M23.751 28.6699V31.6799L23.051 31.47L21.921 31.9199L21.0809 31.03L19.611 31.0801V29.8999L18.301 29.8701V28.8201L17.0909 27.8501L17.431 26.7L16.301 25.6799L16.881 24.6799L15.991 23.47L16.881 22.47L16.491 21.3401L17.4609 20.5L17.041 19.5L18.381 18.98L18.281 17.8799L19.7209 17.54L19.871 16.52H21.3409L22.131 15.73L22.501 16.04C22.501 16.04 23.451 15.8599 23.751 15.9399V18.4099C23.751 18.4099 19.931 19.28 20.011 24C20.011 24 19.601 27.5799 23.751 28.6799V28.6699Z" fill="white"/>
<path d="M28.4709 15.84V33.2499C28.4709 33.2499 30.1109 34.9299 28.8209 35.4199C28.8209 35.4199 26.621 35.7 26.511 34.86V14.1598C26.511 14.1598 28.271 12.3999 29.601 13.4499C29.601 13.4499 30.1609 14.26 28.4609 15.84H28.4709Z" fill="white"/>
<path d="M34.101 13.8101V34.69C34.101 34.69 33.261 36.0201 31.371 35.0701C31.371 35.0701 31.161 34.16 32.491 32.97V16.0501C32.491 16.0501 31.061 13.5102 32.391 13.1202C32.391 13.1202 33.261 12.8301 34.101 13.8101Z" fill="white"/>
<path d="M34.741 35.4601V13.89C34.741 13.89 36.231 12.82 37.241 13.63C37.241 13.63 37.871 14.4302 36.541 15.6202V33.0101C36.541 33.0101 37.3609 34.0301 36.9409 35.0301C36.9409 35.0301 36.391 35.9701 34.741 35.4601Z" fill="white"/>
<path d="M25.881 13.95V34.8301C25.881 34.8301 24.6209 35.7701 23.5709 34.8301C23.5709 34.8301 22.8309 34.03 24.2009 32.24V12.8301L26.261 13.7C26.261 13.7 25.951 13.7899 25.881 13.9399V13.95Z" fill="white"/>
<path d="M24.2009 13.45H23.371V16.05H24.2009V13.45Z" fill="white"/>
<path d="M32.9709 22.4099H27.851V24.97H32.9709V22.4099Z" fill="white"/>
<path d="M2.71094 28.3701L6.76099 27.25L6.91101 27.8L5.11096 28.3L7.22095 28.9099L7.42102 29.6499L5.56104 29.0601L3.38098 30.8201L3.18103 30.1101L4.88098 28.8401L4.08093 28.5801L2.85095 28.9199L2.70093 28.3701H2.71094Z" fill="white"/>
<path d="M7.48096 29.74L7.71094 30.26L5.63098 31.1799C5.30098 31.3299 5.09098 31.43 5.00098 31.48C4.85098 31.57 4.75092 31.6801 4.69092 31.8101C4.63092 31.9401 4.64092 32.07 4.69092 32.22C4.76092 32.37 4.85095 32.46 4.97095 32.49C5.09095 32.53 5.22096 32.52 5.36096 32.48C5.50096 32.44 5.721 32.35 6.021 32.21L8.151 31.27L8.38098 31.79L6.36096 32.6899C5.90096 32.8899 5.57096 33.0301 5.36096 33.0801C5.16096 33.1401 4.97104 33.1599 4.81104 33.1399C4.65104 33.1199 4.50096 33.07 4.36096 32.98C4.23096 32.89 4.111 32.74 4.021 32.54C3.911 32.29 3.871 32.0899 3.901 31.9199C3.931 31.7599 3.99095 31.61 4.10095 31.47C4.20095 31.34 4.32094 31.2199 4.46094 31.1399C4.66094 31.0099 4.98101 30.8499 5.41101 30.6599L7.46094 29.75L7.48096 29.74Z" fill="white"/>
<path d="M5.23096 34.76L8.36096 31.8701L8.68103 32.3501L6.51099 34.3101L9.20093 33.1399L9.58093 33.7L7.41101 35.74L10.0909 34.47L10.411 34.95L6.53101 36.71L6.20093 36.21L8.50098 34L5.57092 35.28L5.23096 34.77V34.76Z" fill="white"/>
<path d="M8.99097 39.5L8.57092 39.05L9.10095 38.22L8.33093 37.3899L7.47095 37.8701L7.06104 37.4299L10.891 35.3799L11.301 35.8201L8.98096 39.51L8.99097 39.5ZM9.50098 37.6001L10.381 36.26L8.98096 37.04L9.50098 37.6001Z" fill="white"/>
<path d="M9.41101 39.8301L12.1909 36.6799L12.621 37.0601L9.84094 40.21L9.41101 39.8301Z" fill="white"/>
<path d="M10.9409 41.0901L13.011 38.27L12.3409 37.78L12.761 37.21L14.5709 38.53L14.151 39.1001L13.481 38.6101L11.411 41.4299L10.9509 41.0901H10.9409Z" fill="white"/>
<path d="M16.051 42.29L16.4409 42.76C16.1709 43.14 15.9009 43.39 15.6209 43.51C15.3509 43.63 15.071 43.62 14.801 43.49C14.461 43.33 14.2609 43.0301 14.2109 42.5801C14.1509 42.1301 14.271 41.61 14.551 41.01C14.851 40.38 15.1909 39.9399 15.5709 39.6899C15.9509 39.4399 16.321 39.4001 16.681 39.5701C16.991 39.7201 17.1809 39.9701 17.2509 40.3401C17.2909 40.5601 17.271 40.8299 17.181 41.1599L16.5909 41.1001C16.6509 40.8901 16.6609 40.7 16.6209 40.54C16.5809 40.38 16.4909 40.2699 16.3509 40.1999C16.1609 40.1099 15.9609 40.14 15.7509 40.29C15.5409 40.44 15.3209 40.7399 15.1109 41.1899C14.8809 41.6699 14.781 42.04 14.801 42.3C14.821 42.56 14.9209 42.7301 15.1109 42.8201C15.2509 42.8801 15.391 42.87 15.551 42.79C15.711 42.71 15.881 42.54 16.051 42.28V42.29Z" fill="white"/>
<path d="M16.7109 44.23L17.911 40.2L18.4509 40.3601L17.981 41.95L19.051 42.27L19.521 40.6799L20.0709 40.8401L18.871 44.8701L18.3309 44.71L18.861 42.95L17.791 42.6299L17.261 44.3899L16.7209 44.23H16.7109Z" fill="white"/>
<path d="M19.801 45.0801L20.421 40.9199L22.491 41.23L22.391 41.9299L20.891 41.71L20.751 42.6299L22.151 42.8401L22.051 43.54L20.651 43.3301L20.481 44.46L22.041 44.6899L21.9409 45.3899L19.8209 45.0801H19.801Z" fill="white"/>
<path d="M22.811 45.48L22.751 41.28H23.601L24.151 44.1299L24.611 41.25H25.4609L25.521 45.4399H24.991L24.9409 42.1399L24.431 45.46H23.881L23.281 42.1699L23.3309 45.48H22.801H22.811Z" fill="white"/>
<path d="M26.3409 45.3501L25.851 41.1699L26.411 41.1001L26.901 45.28L26.3409 45.3501Z" fill="white"/>
<path d="M29.1309 43.2901L29.7209 43.42C29.7409 43.89 29.671 44.2501 29.531 44.5101C29.391 44.7701 29.1709 44.9301 28.8709 45.0001C28.5009 45.0801 28.1609 44.96 27.8409 44.64C27.5209 44.32 27.291 43.84 27.151 43.19C27.001 42.51 27.001 41.9501 27.151 41.5201C27.301 41.0901 27.5709 40.8301 27.9609 40.7501C28.3009 40.6801 28.6009 40.7601 28.8809 41.0101C29.0409 41.1601 29.1909 41.39 29.3309 41.7L28.8209 42.0201C28.7409 41.8101 28.6309 41.6601 28.5009 41.5601C28.3709 41.4601 28.2309 41.43 28.0809 41.46C27.8809 41.51 27.741 41.65 27.661 41.9C27.581 42.15 27.6009 42.5101 27.7109 43.0001C27.8309 43.5201 27.9709 43.8701 28.1409 44.0701C28.3109 44.2601 28.5009 44.3401 28.7009 44.2901C28.8509 44.2601 28.961 44.1601 29.031 44.0001C29.101 43.8401 29.1309 43.6001 29.1109 43.2901H29.1309Z" fill="white"/>
<path d="M33.2109 43.5L32.631 43.72L32.061 42.9199L31.011 43.3301L31.141 44.3L30.5809 44.52L30.0909 40.2L30.651 39.98L33.2209 43.5H33.2109ZM31.641 42.3201L30.7209 41L30.931 42.5901L31.651 42.3101L31.641 42.3201Z" fill="white"/>
<path d="M33.801 43.1899L31.781 39.54L32.281 39.26L33.9609 42.29L35.2009 41.6001L35.541 42.22L33.801 43.1799V43.1899Z" fill="white"/>
<path d="M37.121 41.1499L34.431 37.9199L34.871 37.5601L35.931 38.8301L36.791 38.1201L35.731 36.8501L36.171 36.49L38.861 39.72L38.421 40.0801L37.241 38.6699L36.381 39.3799L37.561 40.79L37.121 41.1499Z" fill="white"/>
<path d="M37.941 37.73C37.621 37.45 37.381 37.18 37.221 36.92C37.101 36.73 37.021 36.5401 36.961 36.3401C36.901 36.1401 36.8911 35.9701 36.9211 35.8201C36.9511 35.6201 37.051 35.4301 37.201 35.2501C37.471 34.9401 37.8411 34.8199 38.2911 34.8799C38.7411 34.9499 39.231 35.21 39.741 35.66C40.251 36.11 40.571 36.55 40.691 36.99C40.811 37.43 40.741 37.8002 40.461 38.1102C40.181 38.4202 39.821 38.55 39.371 38.48C38.921 38.41 38.441 38.16 37.941 37.71V37.73ZM38.3111 37.2701C38.6711 37.5901 38.991 37.7701 39.271 37.8201C39.551 37.8701 39.7711 37.8199 39.9211 37.6399C40.0711 37.4699 40.101 37.25 40.021 36.98C39.931 36.71 39.711 36.4101 39.341 36.0901C38.981 35.7701 38.661 35.5901 38.391 35.5401C38.121 35.4901 37.901 35.55 37.751 35.73C37.601 35.91 37.561 36.1299 37.641 36.3899C37.731 36.6599 37.9511 36.9501 38.3111 37.2701Z" fill="white"/>
<path d="M38.261 34.1101L38.5709 33.6299L40.491 34.8601C40.791 35.0601 40.9909 35.18 41.0909 35.22C41.2509 35.29 41.401 35.32 41.531 35.3C41.671 35.28 41.781 35.2001 41.861 35.0701C41.951 34.9301 41.971 34.8099 41.931 34.6799C41.891 34.5499 41.8209 34.4501 41.7009 34.3601C41.5909 34.2701 41.391 34.13 41.111 33.95L39.151 32.6899L39.4609 32.21L41.3209 33.3999C41.7509 33.6699 42.0409 33.88 42.2009 34.02C42.3609 34.16 42.481 34.3 42.551 34.45C42.621 34.6 42.661 34.7499 42.661 34.9099C42.661 35.0699 42.6009 35.2499 42.4709 35.4299C42.3209 35.6599 42.171 35.8001 42.021 35.8701C41.871 35.9401 41.711 35.96 41.541 35.95C41.371 35.94 41.211 35.9001 41.061 35.8301C40.841 35.7301 40.531 35.55 40.131 35.3L38.241 34.0901L38.261 34.1101Z" fill="white"/>
<path d="M42.171 33.1999L42.3309 32.6598C42.6009 32.7498 42.811 32.7699 42.971 32.7299C43.131 32.6899 43.2509 32.5899 43.3209 32.4399C43.4009 32.2699 43.4009 32.1199 43.3309 31.9899C43.2609 31.8599 43.161 31.7599 43.021 31.6899C42.931 31.6499 42.841 31.6298 42.771 31.6398C42.691 31.6398 42.611 31.6799 42.521 31.7499C42.461 31.7999 42.341 31.91 42.161 32.09C41.931 32.32 41.721 32.4599 41.521 32.4999C41.241 32.5599 40.951 32.5198 40.641 32.3798C40.451 32.2898 40.281 32.1699 40.141 32.0199C40.001 31.8699 39.921 31.6999 39.901 31.5199C39.881 31.3399 39.901 31.1499 40.001 30.9499C40.151 30.6299 40.361 30.43 40.651 30.37C40.941 30.3 41.251 30.3499 41.611 30.4999L41.411 31.0299C41.201 30.9599 41.041 30.9499 40.921 30.9799C40.801 31.0099 40.711 31.0999 40.641 31.2499C40.571 31.3999 40.561 31.5398 40.621 31.6698C40.651 31.7498 40.7209 31.82 40.8209 31.86C40.9109 31.9 41.001 31.9098 41.091 31.8898C41.201 31.8598 41.361 31.7399 41.561 31.5299C41.761 31.3199 41.941 31.17 42.091 31.1C42.241 31.03 42.411 30.9899 42.611 30.9899C42.811 30.9899 43.021 31.0598 43.271 31.1698C43.491 31.2698 43.6809 31.4 43.8309 31.57C43.9809 31.74 44.071 31.92 44.101 32.11C44.131 32.3 44.091 32.5099 43.991 32.7299C43.841 33.0499 43.621 33.25 43.311 33.32C43.011 33.39 42.6309 33.3498 42.1909 33.1798L42.171 33.1999Z" fill="white"/>
<path d="M44.651 30.8899L40.621 29.6799L41.2209 27.6799L41.901 27.8799L41.4609 29.3401L42.351 29.6101L42.761 28.25L43.4409 28.45L43.031 29.8101L44.131 30.1399L44.5809 28.6299L45.261 28.8301L44.651 30.8799V30.8899Z" fill="white"/>
<path d="M1.55103 13.77C1.66103 13.9 1.83104 14.13 2.06104 14.48L1.39099 14.9299L1.53101 15.1799L1.68103 15.4199C1.62103 15.5199 1.38096 15.6899 0.980957 15.9099C0.900957 15.8099 0.820957 15.6901 0.730957 15.5601C0.650957 15.4501 0.580977 15.3199 0.500977 15.1799C0.530977 15.1799 0.580991 15.1501 0.640991 15.1201L0.850952 15C1.02095 14.9 1.11098 14.83 1.13098 14.79L1.11096 14.75L1.00098 14.53L0.840942 14.23L1.54102 13.76L1.55103 13.77ZM4.47095 14.23L4.56104 14.26L4.70093 14.3101L4.85095 14.3799L5.05103 13.8899L6.401 14.3999L5.50098 16.8101C5.66098 16.9801 5.80102 17.1799 5.92102 17.3899C6.04102 17.5999 6.14095 17.8401 6.22095 18.1101C6.30095 18.3701 6.34094 18.6201 6.34094 18.8701C6.34094 19.1101 6.30095 19.34 6.22095 19.55C6.07095 19.94 5.85104 20.2001 5.56104 20.3201C5.27104 20.4401 4.93102 20.43 4.54102 20.29C4.36102 20.22 4.17096 20.12 3.98096 19.98C3.79096 19.84 3.591 19.68 3.401 19.48C3.181 19.26 3.011 19.0601 2.901 18.8701C2.781 18.6801 2.71092 18.5001 2.69092 18.3301C2.75092 18.3501 2.83102 18.4 2.92102 18.48C2.97102 18.52 3.02093 18.5701 3.08093 18.6201C3.14093 18.6701 3.21102 18.7401 3.29102 18.8301C3.55102 19.0901 3.79101 19.2701 4.03101 19.3601C4.33101 19.4701 4.60096 19.45 4.86096 19.29C4.97096 19.21 5.06099 19.12 5.14099 19.01C5.22099 18.9 5.30096 18.7601 5.36096 18.6001C5.43096 18.4201 5.50092 18.06 5.57092 17.52L5.54102 17.5C5.33102 17.42 5.11101 17.52 4.91101 17.8L4.75098 18.0601C4.68098 18.1901 4.61103 18.33 4.55103 18.49C4.41103 18.41 4.27097 18.2999 4.12097 18.1699C4.04097 18.0999 3.96098 18.0299 3.88098 17.9399C3.80098 17.8599 3.71097 17.7599 3.62097 17.6599L4.67102 14.8501C4.46102 14.8301 4.24101 14.8301 4.03101 14.8401C3.83101 14.8401 3.62099 14.8599 3.39099 14.8899L2.59094 14.1201C3.40094 14.0201 4.02095 14.05 4.47095 14.21V14.23ZM6.96094 18.98C7.14094 19.16 7.25104 19.3099 7.31104 19.4299C7.29104 19.4699 7.14097 19.58 6.87097 19.75C6.90097 19.85 6.97104 19.9501 7.06104 20.0801C6.96104 20.2301 6.81094 20.3299 6.59094 20.3899L6.271 19.9399C6.271 19.9399 6.29103 19.9299 6.30103 19.9199C6.34103 19.8899 6.40096 19.8601 6.48096 19.8101C6.61096 19.7501 6.68093 19.6999 6.70093 19.6499C6.70093 19.6499 6.70093 19.6499 6.70093 19.6399C6.70093 19.6099 6.68101 19.58 6.66101 19.55L6.51099 19.28L6.73096 19.1299L6.99097 18.98H6.96094Z" fill="white"/>
<path d="M5.95093 12.22L7.42102 13.3701L6.20093 15.25L4.96094 14.4399L5.96094 12.8999C5.62094 12.7799 5.21098 12.6999 4.75098 12.6499L4.14099 11.75C4.21099 11.75 4.28094 11.75 4.34094 11.75C4.40094 11.75 4.48094 11.76 4.59094 11.77C4.67094 11.77 4.731 11.79 4.771 11.8C4.901 11.82 5.01094 11.8301 5.09094 11.8501C5.25094 11.8901 5.41103 11.94 5.55103 12.01C5.70103 12.07 5.83094 12.15 5.96094 12.23L5.95093 12.22ZM8.29102 14.24C8.44102 14.46 8.56098 14.6899 8.63098 14.9099C8.58098 14.9499 8.48093 15 8.33093 15.05L8.00098 15.1499L8.07092 15.3301L8.18103 15.5901C8.01103 15.7201 7.78099 15.8001 7.51099 15.8101L7.20093 15.1399C7.39093 15.1199 7.59103 15.07 7.80103 14.97C7.80103 14.91 7.77096 14.82 7.73096 14.71C7.67096 14.59 7.64098 14.5 7.63098 14.45L8.30103 14.23L8.29102 14.24Z" fill="white"/>
<path d="M9.37103 10.9801L9.11102 11.2902L9.35101 11.7401L9.60101 12.2001C9.78101 12.6301 9.78102 12.95 9.61102 13.14C9.46102 13.31 9.25101 13.5001 8.97101 13.7101C8.66101 13.9201 8.41101 14.0502 8.22101 14.0802C8.75101 13.4502 8.93104 12.6601 8.75104 11.7001C8.44104 11.9901 8.23101 12.1601 8.10101 12.2101C7.85101 12.3301 7.59099 12.2702 7.33099 12.0502C7.19099 11.9302 7.04106 11.7702 6.90106 11.5902C6.76106 11.4002 6.611 11.18 6.461 10.91C6.111 10.29 6.03101 9.87002 6.22101 9.65002C6.35101 9.50002 6.65104 9.52008 7.13104 9.71008C7.17104 9.73008 7.241 9.76018 7.341 9.81018C7.411 9.85018 7.4811 9.88004 7.5611 9.92004C7.5911 9.94004 7.66106 9.98017 7.77106 10.0502C7.88106 10.1202 7.98109 10.1801 8.05109 10.2201L8.23102 10.0101L9.36102 10.9701L9.37103 10.9801ZM7.591 10.6901C7.591 10.6901 7.52101 10.6402 7.47101 10.6202C7.42101 10.6002 7.36107 10.5902 7.28107 10.5802C7.14107 10.5502 7.04103 10.58 6.99103 10.63C6.98103 10.64 6.97101 10.6701 6.97101 10.7001V10.7902C6.97101 10.8702 6.97103 10.9201 6.99103 10.9501C7.06103 11.0101 7.15106 11.0301 7.27106 11.0001C7.36106 10.9701 7.45106 10.9302 7.52106 10.8602C7.59106 10.7702 7.621 10.7101 7.591 10.6801V10.6901Z" fill="white"/>
<path d="M11.3309 9.23999L10.871 9.6499L9.89099 9.3999L10.151 10.3L9.07092 11.27L8.08093 10.1699L9.13098 9.21997L7.13098 9.01001L6.39099 7.62012L7.651 5.44995L7.86096 5.83008C7.96096 6.01008 8.061 6.19989 8.151 6.38989L7.271 8.12012L8.64099 8.30005C9.21099 8.38005 9.67101 8.4099 10.031 8.3999L10.3309 8.12988L11.3209 9.22998L11.3309 9.23999Z" fill="white"/>
<path d="M10.3709 5.32007L10.4609 6.46997L11.3809 7.59009C11.4309 7.66009 11.5409 7.84992 11.7009 8.16992C11.8609 8.48992 11.9509 8.69001 11.9509 8.76001L11.8409 8.92993L11.051 9.5L10.1909 8.30005L10.8609 7.82007V7.79004L10.8409 7.76001C10.6109 7.44001 10.351 7.13008 10.061 6.83008C9.70099 6.47008 9.38091 6.25995 9.11091 6.19995L9.00093 5.81006C9.00093 5.81006 8.9809 5.71992 8.9709 5.66992C8.9609 5.61992 8.95087 5.58003 8.94087 5.53003C8.86087 5.20003 8.85095 4.98012 8.90095 4.87012L9.02095 5.02002C9.11095 5.14002 9.31094 5.23002 9.64094 5.27002C9.76094 5.29002 9.88093 5.30005 10.0009 5.30005C10.1009 5.30005 10.2109 5.30003 10.3509 5.28003L10.3809 5.33008L10.3709 5.32007Z" fill="white"/>
<path d="M12.861 6.26001C13.241 6.91001 13.421 7.51005 13.391 8.05005L11.401 5.28003C11.351 5.21003 11.281 4.73008 11.181 3.83008C12.021 4.97008 12.591 5.78 12.861 6.25V6.26001Z" fill="white"/>
<path d="M18.881 4.19995L18.911 5.68994L16.391 6.48999C15.881 6.64999 15.491 6.29993 15.221 5.42993C15.131 5.14993 15.0711 4.82996 15.0511 4.45996C15.0111 3.98996 15.0609 3.70007 15.1909 3.57007C15.2209 3.66007 15.251 3.77994 15.281 3.93994C15.311 4.09994 15.341 4.23008 15.381 4.33008C15.441 4.51008 15.551 4.67007 15.721 4.82007C15.911 4.98007 16.091 5.02997 16.271 4.96997L18.331 4.32007V4.29004C18.291 4.16004 18.111 3.91005 17.771 3.55005L17.871 2.38989C18.311 2.81989 18.561 3.15012 18.631 3.37012L18.901 4.20996L18.881 4.19995ZM17.151 1.98999C17.121 2.11999 17.0911 2.24988 17.0511 2.37988C17.0111 2.50988 16.971 2.65004 16.911 2.79004C16.811 2.79004 16.681 2.75996 16.521 2.70996L16.131 2.58008C16.061 2.71008 15.9911 2.8801 15.9211 3.1001L15.771 3.07007L15.501 2.97998C15.271 2.90998 15.151 2.86007 15.131 2.82007C15.131 2.79007 15.201 2.52002 15.391 2.02002C15.801 2.20002 16.031 2.28001 16.091 2.26001L16.111 2.22998L16.221 2.01001L16.351 1.69995L17.141 1.96997L17.151 1.98999Z" fill="white"/>
<path d="M21.041 5.33008L20.031 5.5L19.111 1.6001C19.111 1.5401 19.151 1.37008 19.271 1.08008L19.501 0.530029L20.3409 3.94995L20.801 3.87012L21.051 5.33008H21.041Z" fill="white"/>
<path d="M22.791 3.33008L22.761 5.19995L20.531 5.36011L20.421 3.88989L22.261 3.76001V3.73999C22.141 3.40999 21.9609 3.03988 21.7209 2.62988L22.0709 1.6001C22.1109 1.6601 22.1509 1.71002 22.1909 1.77002C22.2209 1.82002 22.2709 1.88998 22.3209 1.97998C22.3609 2.04998 22.391 2.09989 22.411 2.13989C22.481 2.25989 22.531 2.34993 22.561 2.42993C22.631 2.57993 22.6809 2.73989 22.7209 2.88989C22.7609 3.04989 22.781 3.2001 22.791 3.3501V3.33008ZM22.5909 6.41992C22.5009 6.67992 22.391 6.9001 22.261 7.1001C22.201 7.0901 22.1009 7.03994 21.9709 6.93994L21.6909 6.72998L21.5909 6.88989L21.4509 7.12988C21.2409 7.06988 21.051 6.93998 20.871 6.72998L21.2209 6.08008C21.3509 6.22008 21.5109 6.34996 21.7209 6.45996C21.7609 6.41996 21.821 6.35 21.881 6.25C21.941 6.13 21.991 6.05001 22.021 6.01001L22.601 6.40991L22.5909 6.41992Z" fill="white"/>
<path d="M25.801 3.74008C25.781 4.05008 25.741 4.34999 25.681 4.64999C25.651 4.81999 25.6109 4.9702 25.5709 5.1102C25.5309 5.2502 25.471 5.41017 25.401 5.58017C25.091 6.41017 24.711 6.82014 24.251 6.80014C23.801 6.78014 23.311 6.66003 22.791 6.44003L22.5809 6.35019L22.561 6.33017L22.531 6.27011L23.231 6.21005C23.931 5.91005 24.461 5.59011 24.811 5.27011C25.161 4.94011 25.341 4.6101 25.361 4.2601L25.3409 4.23007C25.1809 4.57007 25.0909 4.74009 25.0809 4.75009C24.9609 4.90009 24.8009 4.97005 24.5709 4.96005C24.1309 4.94005 23.9309 4.64017 23.9509 4.08017C23.9509 3.90017 23.991 3.71009 24.051 3.50009C24.111 3.29009 24.2009 3.0501 24.3309 2.7601C24.4609 2.4701 24.5909 2.25997 24.7209 2.12997C24.8509 1.98997 24.991 1.93003 25.131 1.94003H25.2009C25.6309 2.33003 25.821 2.9301 25.781 3.7601L25.801 3.74008ZM25.181 3.63998C25.181 3.57998 25.181 3.52005 25.171 3.46005L25.121 3.34018C25.081 3.22018 25.011 3.15998 24.921 3.13998C24.861 3.13998 24.7909 3.18009 24.7009 3.25009C24.6109 3.33009 24.5709 3.40006 24.5709 3.47006C24.5709 3.52006 24.6109 3.57999 24.7009 3.64999C24.7809 3.68999 24.861 3.72008 24.931 3.74008C24.981 3.74008 25.0609 3.72 25.1909 3.66V3.62997L25.181 3.63998Z" fill="white"/>
<path d="M27.551 5.58008L26.531 5.41992L26.891 1.41992C26.891 1.35992 27.0009 1.20998 27.2009 0.97998L27.601 0.530029L27.3209 4.04004L27.781 4.11011L27.551 5.57007V5.58008Z" fill="white"/>
<path d="M30.111 6.24007L29.4709 6.07015C29.4709 6.07015 29.421 6.11 29.381 6.17L29.311 6.28011C29.261 6.39011 29.201 6.46006 29.121 6.48006L28.021 4.89998C28.021 4.89998 27.951 4.99015 27.901 5.07015L27.761 5.33016C27.711 5.47016 27.611 5.54014 27.481 5.56014L27.161 5.48006L27.541 4.05013L28.0909 4.20003C28.0909 4.20003 28.231 4.07017 28.431 3.84017C28.541 3.72017 28.641 3.61011 28.731 3.53011C28.821 3.45011 28.911 3.38013 29.021 3.30013C29.291 3.13013 29.5609 3.06997 29.8309 3.13997C29.9409 3.16997 30.001 3.2101 30.011 3.2701C30.011 3.2901 30.011 3.32018 30.011 3.35018C30.011 3.38018 29.991 3.42007 29.981 3.49007C29.941 3.65007 29.931 3.87999 29.981 4.15999C30.021 4.44999 30.0909 4.64008 30.1909 4.75008L30.481 4.83016L30.101 6.26009L30.111 6.24007ZM29.291 4.48006L29.3209 4.36019V4.28011C29.3209 4.28011 29.3309 4.21 29.3209 4.17C29.3209 4.09 29.321 4.05011 29.291 4.03011L29.2109 3.99007C29.2109 3.99007 29.111 3.98007 29.031 3.99007C28.951 3.99007 28.901 3.99009 28.871 4.01009C28.931 4.13009 29.061 4.29006 29.281 4.48006H29.291Z" fill="white"/>
<path d="M31.181 7.72998C31.081 7.83998 30.981 7.93 30.881 8C30.831 8.04 30.791 8.0701 30.741 8.1001C30.691 8.1301 30.6409 8.15994 30.5909 8.18994C30.5309 8.14994 30.471 8.05991 30.391 7.90991C30.341 7.82991 30.2809 7.73011 30.2209 7.61011L30.111 7.67993L29.8309 7.87012C29.6709 7.73012 29.5509 7.53001 29.4609 7.26001L30.061 6.82007C30.111 7.00007 30.211 7.19012 30.351 7.37012C30.411 7.37012 30.501 7.31999 30.611 7.23999C30.711 7.16999 30.7809 7.1201 30.8209 7.1001L31.181 7.71997V7.72998ZM31.881 6.97998L31.301 6.75C31.171 6.7 31.1009 6.5701 31.0909 6.3501V5.98999L30.621 6.47998L29.7109 6.12012L30.251 4.73999L31.261 5.13989C31.411 4.91989 31.531 4.71002 31.601 4.52002L31.681 4.34009C31.681 4.34009 31.7109 4.29003 31.7209 4.28003C31.7309 4.27003 31.751 4.24998 31.781 4.22998C31.891 4.13998 32.141 3.99003 32.521 3.78003L32.3309 4.27002L32.241 4.46997L32.161 4.62988L31.991 4.98999C31.891 5.24999 31.951 5.43001 32.181 5.51001L32.431 5.61011L31.891 6.98999L31.881 6.97998Z" fill="white"/>
<path d="M34.241 8.23999L33.7009 7.94995L33.601 6.93994L32.8409 7.48999L31.561 6.81006L32.261 5.51001L33.511 6.17993L33.031 4.22998L34.0909 3.07007L36.561 3.52002L36.271 3.8501C36.141 4.0001 35.9909 4.16007 35.8409 4.32007L33.911 4.08008L34.2009 5.42993C34.3209 5.98993 34.4509 6.43002 34.5809 6.77002L34.931 6.95996L34.231 8.26001L34.241 8.23999Z" fill="white"/>
<path d="M37.621 6.02004L36.5709 6.49001L35.8209 7.73C35.7709 7.8 35.631 7.97 35.381 8.23C35.131 8.49 34.981 8.63993 34.911 8.65993L34.7109 8.62014L33.911 8.07009L34.751 6.85012L35.431 7.32009H35.4609L35.481 7.28005C35.701 6.95005 35.9109 6.6 36.0909 6.23C36.3109 5.77 36.401 5.40014 36.361 5.12014L36.6909 4.8799C36.6909 4.8799 36.771 4.83007 36.811 4.80007C36.851 4.77007 36.891 4.75 36.931 4.73C37.211 4.55 37.421 4.45999 37.541 4.46999L37.4409 4.6299C37.3509 4.7599 37.341 4.98006 37.411 5.29006C37.441 5.41006 37.471 5.52991 37.511 5.63991C37.541 5.72991 37.591 5.83998 37.651 5.95998L37.621 6.01003V6.02004Z" fill="white"/>
<path d="M37.5709 8.65991C37.0809 9.23991 36.581 9.61001 36.061 9.76001L37.991 6.94995C38.041 6.87995 38.471 6.65001 39.281 6.26001C38.491 7.44001 37.9209 8.23991 37.5709 8.65991Z" fill="white"/>
<path d="M40.691 14.9298L40.361 14.4899C40.301 14.4099 40.311 14.28 40.371 14.09C40.401 14 40.441 13.93 40.471 13.87C40.511 13.81 40.551 13.7699 40.611 13.7299L39.901 13.8998L38.571 12.1C38.251 11.67 38.461 11.1798 39.191 10.6398C39.281 10.5698 39.341 10.5299 39.381 10.4999C39.421 10.4799 39.501 10.43 39.621 10.36C39.741 10.29 39.901 10.2198 40.101 10.1298C40.581 9.90979 40.891 9.84984 41.031 9.92984L40.971 9.97989C40.891 10.0399 40.771 10.1099 40.591 10.1999C40.411 10.2899 40.291 10.3698 40.211 10.4198C40.061 10.5298 39.941 10.6898 39.871 10.8898C39.791 11.0898 39.8111 11.2698 39.9311 11.4198L41.1611 13.08C41.1611 13.08 41.2911 13.0299 41.4211 12.9499C41.5511 12.8699 41.721 12.76 41.901 12.62L42.961 12.6L42.441 12.9799L41.731 13.4098C41.621 13.4898 41.591 13.5799 41.621 13.6999L41.871 14.0399L40.6811 14.9198L40.691 14.9298ZM43.201 11.81C43.131 11.83 42.981 11.85 42.741 11.87C42.501 11.89 42.361 11.87 42.321 11.84C42.301 11.81 42.2911 11.5399 42.3011 11.0299H42.071L41.721 10.9999C41.701 10.9199 41.6811 10.77 41.6811 10.56C41.6611 10.31 41.681 10.1798 41.711 10.1498C41.761 10.1098 42.051 10.1098 42.591 10.1498C42.571 10.1998 42.5511 10.3299 42.5411 10.5399C42.5411 10.7399 42.541 10.8598 42.571 10.8998C42.571 10.8998 42.581 10.8998 42.591 10.8998C42.591 10.8998 42.611 10.8998 42.641 10.8998L42.861 10.9198L43.211 10.9499V11.8L43.201 11.81Z" fill="white"/>
<path d="M40.3609 16.72C40.2109 16.73 40.0809 16.73 39.9609 16.72C39.9009 16.72 39.851 16.72 39.791 16.71C39.731 16.71 39.6709 16.6899 39.6109 16.6799C39.5909 16.6099 39.611 16.5001 39.651 16.3401C39.661 16.2401 39.6909 16.13 39.7309 16L39.6009 15.98L39.271 15.9299C39.241 15.7199 39.291 15.49 39.411 15.23L40.151 15.3C40.061 15.47 40.0109 15.6699 40.0009 15.8999C40.0509 15.9299 40.151 15.96 40.281 15.97C40.401 15.98 40.481 16 40.531 16.01L40.3809 16.71L40.3609 16.72ZM41.3809 16.6299L41.1009 16.0701C41.0409 15.9501 41.0709 15.7999 41.2109 15.6299L41.4609 15.3701L40.771 15.4099L40.3309 14.53L41.651 13.8701L42.1409 14.8401C42.4009 14.7801 42.621 14.7001 42.811 14.6101L42.9909 14.53C42.9909 14.53 43.051 14.51 43.061 14.51C43.081 14.51 43.1009 14.51 43.1409 14.51C43.2809 14.51 43.5609 14.5699 43.9909 14.6699L43.521 14.9099L43.3209 15L43.161 15.0601L42.801 15.21C42.551 15.34 42.4809 15.51 42.5909 15.72L42.7109 15.96L41.3909 16.6201L41.3809 16.6299Z" fill="white"/>
<path d="M40.631 18.0601C40.631 18.0601 40.481 18.0199 40.261 17.9099C40.211 17.8799 40.161 17.8601 40.131 17.8401C40.091 17.8201 40.061 17.8 40.031 17.78C39.981 17.75 39.941 17.7099 39.921 17.6799C39.921 17.6599 39.921 17.6201 39.931 17.5601C39.951 17.5001 39.971 17.4101 40.021 17.3101C40.061 17.2001 40.101 17.1201 40.131 17.0601C40.161 17.0001 40.1909 16.96 40.2109 16.95C40.2509 16.93 40.391 16.9701 40.631 17.0701C40.871 17.1601 40.991 17.23 41.011 17.27C41.011 17.28 40.9609 17.4199 40.8409 17.6699C40.7209 17.9299 40.651 18.0601 40.631 18.0701V18.0601ZM43.751 17.46C43.491 17.56 43.171 17.64 42.801 17.71L42.3409 17.8101C42.2609 17.8301 42.181 17.8501 42.101 17.8601C42.031 17.8701 41.9409 17.8899 41.8309 17.8999L41.2209 16.27L42.611 15.75L43.0909 17.05H43.141C43.261 16.99 43.431 16.8699 43.641 16.6699C43.841 16.4899 43.971 16.34 44.051 16.2L45.2109 16.25C44.7809 16.84 44.291 17.2399 43.741 17.4399L43.751 17.46Z" fill="white"/>
</svg>
