<svg width="46" height="45" viewBox="0 0 46 45" fill="none" xmlns="http://www.w3.org/2000/svg">
<path d="M11.801 22.0901H3.57098V23.1799H11.801V22.0901Z" fill="white"/>
<path d="M45.581 22.0901H37.351V23.1799H45.581V22.0901Z" fill="white"/>
<path d="M15.371 33.55H11.281V13.8301H15.371V33.55ZM12.331 32.5H14.321V14.8799H12.331V32.5Z" fill="white"/>
<path d="M24.131 34.74C24.051 34.74 16.341 34.4 14.341 26.5L14.321 26.3701V20.03L14.371 19.9299C14.511 19.6099 17.951 12.15 24.871 12.47L24.821 13.51C19.001 13.22 15.781 19.41 15.361 20.26V26.3C17.181 33.36 23.8709 33.6799 24.1609 33.6899L24.131 34.73V34.74Z" fill="white"/>
<path d="M24.151 28.1299V31.1399L23.451 30.9299L22.321 31.3799L21.481 30.49L20.011 30.54V29.3601L18.701 29.3301V28.28L17.491 27.3101L17.831 26.1599L16.701 25.1399L17.281 24.1399L16.391 22.9299L17.281 21.9299L16.891 20.8L17.861 19.96L17.441 18.96L18.781 18.4399L18.681 17.3401L20.121 17L20.271 15.98H21.741L22.531 15.1899L22.901 15.5C22.901 15.5 23.851 15.3199 24.151 15.3999V17.8701C24.151 17.8701 20.3309 18.74 20.4109 23.46C20.4109 23.46 20.001 27.0399 24.151 28.1399V28.1299Z" fill="white"/>
<path d="M28.871 15.2999V32.7099C28.871 32.7099 30.5109 34.3898 29.2209 34.8798C29.2209 34.8798 27.0209 35.16 26.9109 34.32V13.62C26.9109 13.62 28.671 11.8598 30.001 12.9098C30.001 12.9098 30.561 13.7199 28.861 15.2999H28.871Z" fill="white"/>
<path d="M34.501 13.2701V34.15C34.501 34.15 33.661 35.4801 31.771 34.5301C31.771 34.5301 31.561 33.62 32.891 32.43V15.5101C32.891 15.5101 31.461 12.9701 32.791 12.5801C32.791 12.5801 33.661 12.2901 34.501 13.2701Z" fill="white"/>
<path d="M35.151 34.92V13.3502C35.151 13.3502 36.641 12.2802 37.651 13.0902C37.651 13.0902 38.281 13.8902 36.951 15.0802V32.4701C36.951 32.4701 37.771 33.4901 37.351 34.4901C37.351 34.4901 36.801 35.43 35.151 34.92Z" fill="white"/>
<path d="M26.281 13.4099V34.29C26.281 34.29 25.021 35.23 23.971 34.29C23.971 34.29 23.231 33.49 24.601 31.7V12.29L26.661 13.1599C26.661 13.1599 26.351 13.2499 26.281 13.3999V13.4099Z" fill="white"/>
<path d="M24.611 12.9099H23.781V15.51H24.611V12.9099Z" fill="white"/>
<path d="M33.371 21.8701H28.251V24.4299H33.371V21.8701Z" fill="white"/>
<path d="M3.11096 27.8301L7.16095 26.71L7.31097 27.26L5.51099 27.76L7.62097 28.3701L7.82098 29.1101L5.961 28.52L3.78101 30.28L3.58099 29.5701L5.28101 28.3L4.48096 28.04L3.25098 28.3799L3.10095 27.8301H3.11096Z" fill="white"/>
<path d="M7.88098 29.2L8.11096 29.72L6.03101 30.6399C5.70101 30.7899 5.491 30.8899 5.401 30.9399C5.251 31.0299 5.151 31.14 5.091 31.27C5.031 31.4 5.041 31.5299 5.091 31.6799C5.161 31.8299 5.25097 31.92 5.37097 31.95C5.49097 31.99 5.62099 31.9799 5.76099 31.9399C5.90099 31.8999 6.12096 31.8099 6.42096 31.6699L8.55096 30.73L8.78101 31.25L6.76099 32.1499C6.30099 32.3499 5.97099 32.49 5.76099 32.54C5.56099 32.6 5.371 32.6201 5.211 32.6001C5.051 32.5801 4.90099 32.5299 4.76099 32.4399C4.63099 32.3499 4.51096 32.2 4.42096 32C4.31096 31.75 4.27096 31.5499 4.30096 31.3799C4.33096 31.2199 4.39098 31.0699 4.50098 30.9299C4.60098 30.7999 4.72096 30.6801 4.86096 30.6001C5.06096 30.4701 5.38097 30.3101 5.81097 30.1201L7.86096 29.21L7.88098 29.2Z" fill="white"/>
<path d="M5.63098 34.22L8.76099 31.3301L9.08099 31.8101L6.91095 33.77L9.60095 32.6001L9.98096 33.1599L7.81097 35.2L10.491 33.9299L10.811 34.4099L6.93097 36.1699L6.60095 35.6699L8.901 33.46L5.97095 34.74L5.63098 34.23V34.22Z" fill="white"/>
<path d="M9.39099 38.96L8.97095 38.51L9.50098 37.6799L8.73096 36.8501L7.87097 37.3301L7.461 36.8899L11.291 34.8401L11.701 35.28L9.38098 38.97L9.39099 38.96ZM9.901 37.0601L10.781 35.72L9.38098 36.5L9.901 37.0601Z" fill="white"/>
<path d="M9.81097 39.29L12.591 36.1399L13.021 36.52L10.241 39.6699L9.81097 39.29Z" fill="white"/>
<path d="M11.341 40.55L13.4109 37.73L12.741 37.24L13.1609 36.6699L14.9709 37.99L14.551 38.5601L13.881 38.0701L11.811 40.8899L11.351 40.55H11.341Z" fill="white"/>
<path d="M16.451 41.75L16.841 42.22C16.571 42.6 16.301 42.85 16.021 42.97C15.751 43.09 15.471 43.0799 15.201 42.9499C14.861 42.7899 14.661 42.49 14.611 42.04C14.551 41.59 14.671 41.07 14.951 40.47C15.251 39.84 15.591 39.3999 15.971 39.1499C16.351 38.8999 16.721 38.86 17.081 39.03C17.391 39.18 17.581 39.43 17.651 39.8C17.691 40.02 17.671 40.2901 17.581 40.6201L16.991 40.56C17.051 40.35 17.061 40.16 17.021 40C16.981 39.84 16.891 39.7299 16.751 39.6599C16.561 39.5699 16.361 39.6 16.151 39.75C15.941 39.9 15.721 40.1999 15.511 40.6499C15.281 41.1299 15.181 41.5 15.201 41.76C15.221 42.02 15.321 42.19 15.511 42.28C15.651 42.34 15.791 42.33 15.951 42.25C16.111 42.17 16.281 42 16.451 41.74V41.75Z" fill="white"/>
<path d="M17.111 43.6899L18.311 39.6599L18.851 39.8201L18.381 41.4099L19.451 41.73L19.921 40.1399L20.4709 40.3L19.271 44.3301L18.731 44.1699L19.261 42.4099L18.191 42.0901L17.6609 43.8501L17.121 43.6899H17.111Z" fill="white"/>
<path d="M20.211 44.54L20.831 40.3799L22.901 40.6899L22.801 41.3899L21.301 41.1699L21.1609 42.0901L22.561 42.3L22.461 43L21.061 42.79L20.891 43.9199L22.451 44.1499L22.351 44.8501L20.231 44.54H20.211Z" fill="white"/>
<path d="M23.211 44.9399L23.151 40.74H24.001L24.551 43.5901L25.011 40.71H25.861L25.921 44.8999H25.391L25.341 41.6001L24.831 44.9199H24.281L23.681 41.6299L23.731 44.9399H23.201H23.211Z" fill="white"/>
<path d="M26.741 44.8101L26.251 40.6299L26.811 40.5601L27.301 44.74L26.741 44.8101Z" fill="white"/>
<path d="M29.531 42.7501L30.121 42.88C30.141 43.35 30.071 43.7101 29.931 43.9701C29.791 44.2301 29.571 44.39 29.271 44.46C28.901 44.54 28.561 44.4202 28.241 44.1002C27.921 43.7802 27.691 43.3 27.551 42.65C27.401 41.97 27.401 41.4101 27.551 40.9801C27.701 40.5501 27.971 40.29 28.361 40.21C28.701 40.14 29.001 40.2201 29.281 40.4701C29.441 40.6201 29.591 40.85 29.731 41.16L29.221 41.4801C29.141 41.2701 29.031 41.1201 28.901 41.0201C28.771 40.9201 28.631 40.89 28.481 40.92C28.281 40.97 28.141 41.1102 28.061 41.3602C27.981 41.6102 28.001 41.97 28.111 42.46C28.231 42.98 28.371 43.3301 28.541 43.5301C28.711 43.7201 28.901 43.8001 29.101 43.7501C29.251 43.7201 29.361 43.62 29.431 43.46C29.501 43.3 29.531 43.0601 29.511 42.7501H29.531Z" fill="white"/>
<path d="M33.621 42.96L33.041 43.1799L32.4709 42.3799L31.421 42.79L31.551 43.76L30.991 43.98L30.501 39.6599L31.061 39.4399L33.631 42.96H33.621ZM32.041 41.79L31.121 40.47L31.331 42.0601L32.051 41.78L32.041 41.79Z" fill="white"/>
<path d="M34.201 42.6499L32.181 39L32.681 38.72L34.361 41.75L35.601 41.0601L35.941 41.6799L34.201 42.6399V42.6499Z" fill="white"/>
<path d="M37.521 40.6101L34.831 37.3799L35.271 37.02L36.331 38.29L37.191 37.5801L36.131 36.3101L36.571 35.95L39.261 39.1799L38.821 39.54L37.641 38.1299L36.781 38.8401L37.961 40.25L37.521 40.6101Z" fill="white"/>
<path d="M38.3509 37.19C38.0309 36.91 37.791 36.64 37.631 36.38C37.511 36.19 37.4309 36.0001 37.3709 35.8001C37.3109 35.6001 37.301 35.4301 37.331 35.2801C37.361 35.0801 37.4609 34.89 37.6109 34.71C37.8809 34.4 38.251 34.2802 38.701 34.3402C39.151 34.4102 39.641 34.6702 40.151 35.1202C40.661 35.5702 40.9809 36.01 41.1009 36.45C41.2209 36.89 41.1509 37.2601 40.8709 37.5701C40.5909 37.8801 40.231 38.01 39.781 37.94C39.331 37.87 38.8509 37.62 38.3509 37.17V37.19ZM38.711 36.7301C39.071 37.0501 39.3909 37.2301 39.6709 37.2801C39.9509 37.3301 40.171 37.2802 40.321 37.1002C40.471 36.9302 40.5009 36.71 40.4209 36.44C40.3309 36.17 40.1109 35.8701 39.7409 35.5501C39.3809 35.2301 39.0609 35.0501 38.7909 35.0001C38.5209 34.9501 38.301 35.01 38.151 35.19C38.001 35.37 37.9609 35.5902 38.0409 35.8502C38.1309 36.1202 38.351 36.4101 38.711 36.7301Z" fill="white"/>
<path d="M38.6609 33.5701L38.9709 33.0901L40.891 34.3201C41.191 34.5201 41.391 34.6399 41.491 34.6799C41.651 34.7499 41.801 34.78 41.931 34.76C42.071 34.74 42.181 34.66 42.261 34.53C42.351 34.39 42.371 34.2699 42.331 34.1399C42.291 34.0099 42.221 33.9101 42.101 33.8201C41.991 33.7301 41.791 33.5899 41.511 33.4099L39.551 32.1499L39.861 31.6699L41.7209 32.8601C42.1509 33.1301 42.441 33.34 42.601 33.48C42.761 33.62 42.881 33.7599 42.951 33.9099C43.021 34.0599 43.061 34.2101 43.061 34.3701C43.061 34.5301 43.001 34.7099 42.871 34.8899C42.721 35.1199 42.571 35.2601 42.421 35.3301C42.271 35.4001 42.111 35.4199 41.941 35.4099C41.771 35.3999 41.611 35.36 41.461 35.29C41.241 35.19 40.931 35.01 40.531 34.76L38.641 33.55L38.6609 33.5701Z" fill="white"/>
<path d="M42.571 32.6598L42.731 32.12C43.001 32.21 43.211 32.2299 43.371 32.1899C43.531 32.1499 43.651 32.0498 43.721 31.8998C43.801 31.7298 43.801 31.5799 43.731 31.4499C43.661 31.3199 43.561 31.2198 43.421 31.1498C43.331 31.1098 43.241 31.09 43.171 31.1C43.091 31.1 43.011 31.1399 42.921 31.2099C42.861 31.2599 42.741 31.37 42.561 31.55C42.331 31.78 42.121 31.9199 41.921 31.9599C41.641 32.0199 41.351 31.98 41.041 31.84C40.851 31.75 40.681 31.6299 40.541 31.4799C40.401 31.3299 40.321 31.1599 40.301 30.9799C40.281 30.7999 40.301 30.6098 40.401 30.4098C40.551 30.0898 40.761 29.89 41.051 29.83C41.341 29.76 41.651 29.8099 42.011 29.9599L41.811 30.4899C41.601 30.4199 41.441 30.4099 41.321 30.4399C41.201 30.4699 41.111 30.5599 41.041 30.7099C40.971 30.8599 40.961 30.9998 41.021 31.1298C41.051 31.2098 41.121 31.28 41.221 31.32C41.311 31.36 41.401 31.37 41.491 31.35C41.601 31.32 41.761 31.1999 41.961 30.9899C42.161 30.7799 42.341 30.63 42.491 30.56C42.641 30.49 42.811 30.4499 43.011 30.4499C43.211 30.4499 43.421 30.5198 43.671 30.6298C43.891 30.7298 44.081 30.8599 44.231 31.0299C44.381 31.1999 44.471 31.38 44.501 31.57C44.531 31.76 44.491 31.9699 44.391 32.1899C44.241 32.5099 44.021 32.7099 43.711 32.7799C43.411 32.8499 43.031 32.8098 42.591 32.6398L42.571 32.6598Z" fill="white"/>
<path d="M45.061 30.3501L41.031 29.1399L41.631 27.1399L42.311 27.3401L41.871 28.8L42.761 29.0701L43.171 27.71L43.851 27.9099L43.441 29.27L44.541 29.6001L44.991 28.0901L45.671 28.29L45.061 30.3401V30.3501Z" fill="white"/>
<path d="M1.95099 13.23C2.06099 13.36 2.231 13.5899 2.461 13.9399L1.79095 14.3899L1.93097 14.6399L2.08099 14.8799C2.02099 14.9799 1.78098 15.1501 1.38098 15.3701C1.30098 15.2701 1.22098 15.15 1.13098 15.02C1.05098 14.91 0.981001 14.7799 0.901001 14.6399C0.931001 14.6399 0.980955 14.6101 1.04095 14.5801L1.25098 14.46C1.42098 14.36 1.51101 14.29 1.53101 14.25L1.51099 14.21L1.401 13.99L1.24097 13.6899L1.94098 13.22L1.95099 13.23ZM4.88098 13.6899L4.97095 13.72L5.11096 13.77L5.26099 13.8401L5.461 13.3501L6.81097 13.8601L5.91095 16.27C6.07095 16.44 6.21099 16.6401 6.33099 16.8501C6.45099 17.0601 6.55098 17.3001 6.63098 17.5701C6.71098 17.8301 6.75098 18.0801 6.75098 18.3301C6.75098 18.5701 6.71098 18.8 6.63098 19.01C6.48098 19.4 6.26095 19.66 5.97095 19.78C5.68095 19.9 5.34099 19.89 4.95099 19.75C4.77099 19.68 4.58099 19.5799 4.39099 19.4399C4.20099 19.2999 4.00097 19.1399 3.81097 18.9399C3.59097 18.7199 3.42097 18.5201 3.31097 18.3301C3.19097 18.1401 3.12095 17.96 3.10095 17.79C3.16095 17.81 3.24099 17.8599 3.33099 17.9399C3.38099 17.9799 3.43097 18.0301 3.49097 18.0801C3.55097 18.1301 3.62099 18.2 3.70099 18.29C3.96099 18.55 4.20098 18.7301 4.44098 18.8201C4.74098 18.9301 5.011 18.91 5.271 18.75C5.381 18.67 5.47096 18.58 5.55096 18.47C5.63096 18.36 5.711 18.2201 5.771 18.0601C5.841 17.8801 5.91096 17.52 5.98096 16.98L5.95099 16.96C5.74099 16.88 5.52098 16.98 5.32098 17.26L5.16095 17.52C5.09095 17.65 5.021 17.79 4.961 17.95C4.821 17.87 4.68101 17.7599 4.53101 17.6299C4.45101 17.5599 4.37095 17.4899 4.29095 17.3999C4.21095 17.3199 4.12101 17.2201 4.03101 17.1201L5.08099 14.3101C4.87099 14.2901 4.65098 14.29 4.44098 14.3C4.24098 14.3 4.03096 14.3201 3.80096 14.3501L3.00098 13.5801C3.81098 13.4801 4.43098 13.5099 4.88098 13.6699V13.6899ZM7.36096 18.4399C7.54096 18.6199 7.651 18.7699 7.711 18.8899C7.691 18.9299 7.541 19.04 7.271 19.21C7.301 19.31 7.371 19.41 7.461 19.54C7.361 19.69 7.21097 19.7901 6.99097 19.8501L6.67096 19.3999C6.67096 19.3999 6.69099 19.3899 6.70099 19.3799C6.74099 19.3499 6.80098 19.32 6.88098 19.27C7.01098 19.21 7.08095 19.1601 7.10095 19.1101C7.10095 19.1101 7.10095 19.1101 7.10095 19.1001C7.10095 19.0701 7.08097 19.04 7.06097 19.01L6.91095 18.74L7.13098 18.5901L7.39099 18.4399H7.36096Z" fill="white"/>
<path d="M6.35095 11.6799L7.82098 12.8301L6.60095 14.71L5.36096 13.8999L6.36096 12.3601C6.02096 12.2401 5.611 12.1601 5.151 12.1101L4.54095 11.21C4.61095 11.21 4.68097 11.21 4.74097 11.21C4.80097 11.21 4.88097 11.22 4.99097 11.23C5.07097 11.23 5.13096 11.25 5.17096 11.26C5.30096 11.28 5.41097 11.2901 5.49097 11.3101C5.65097 11.3501 5.81099 11.4 5.95099 11.47C6.10099 11.53 6.23096 11.6099 6.36096 11.6899L6.35095 11.6799ZM8.70099 13.7C8.85099 13.92 8.97095 14.1501 9.04095 14.3701C8.99095 14.4101 8.89097 14.46 8.74097 14.51L8.41095 14.6101L8.48096 14.79L8.591 15.05C8.421 15.18 8.19096 15.26 7.92096 15.27L7.61096 14.6001C7.80096 14.5801 8.001 14.5299 8.211 14.4299C8.211 14.3699 8.18099 14.2799 8.14099 14.1699C8.08099 14.0499 8.05095 13.9599 8.04095 13.9099L8.711 13.6899L8.70099 13.7Z" fill="white"/>
<path d="M9.771 10.4399L9.51099 10.75L9.75098 11.1999L10.001 11.6599C10.181 12.0899 10.181 12.4101 10.011 12.6001C9.86099 12.7701 9.65097 12.9599 9.37097 13.1699C9.06097 13.3799 8.81097 13.51 8.62097 13.54C9.15097 12.91 9.331 12.1199 9.151 11.1599C8.841 11.4499 8.63098 11.6199 8.50098 11.6699C8.25098 11.7899 7.99096 11.73 7.73096 11.51C7.59096 11.39 7.44096 11.23 7.30096 11.05C7.16096 10.86 7.01096 10.6401 6.86096 10.3701C6.51096 9.75009 6.43097 9.33008 6.62097 9.11008C6.75097 8.96008 7.05101 8.9799 7.53101 9.1699C7.57101 9.1899 7.64097 9.22 7.74097 9.27C7.81097 9.31 7.881 9.33986 7.961 9.37986C7.991 9.39986 8.06096 9.43999 8.17096 9.50999C8.28096 9.57999 8.38099 9.63991 8.45099 9.67991L8.63098 9.46995L9.76099 10.4299L9.771 10.4399ZM7.99097 10.1499C7.99097 10.1499 7.92097 10.1001 7.87097 10.0801C7.82097 10.0601 7.76097 10.05 7.68097 10.04C7.54097 10.01 7.44099 10.0401 7.39099 10.0901C7.38099 10.1001 7.37097 10.1299 7.37097 10.1599V10.25C7.37097 10.33 7.37099 10.3799 7.39099 10.4099C7.46099 10.4699 7.55096 10.4899 7.67096 10.4599C7.76096 10.4299 7.85096 10.39 7.92096 10.32C7.99096 10.23 8.02097 10.1699 7.99097 10.1399V10.1499Z" fill="white"/>
<path d="M11.731 8.69995L11.271 9.11011L10.291 8.86011L10.551 9.76001L9.47095 10.73L8.48096 9.62988L9.53101 8.67993L7.53101 8.46997L6.79095 7.08008L8.05096 4.90991L8.26099 5.29004C8.36099 5.47004 8.46096 5.6601 8.55096 5.8501L7.67096 7.58008L9.04095 7.76001C9.61095 7.84001 10.071 7.87011 10.431 7.86011L10.731 7.59009L11.7209 8.68994L11.731 8.69995Z" fill="white"/>
<path d="M10.771 4.78003L10.861 5.92993L11.781 7.05005C11.831 7.12005 11.941 7.30988 12.101 7.62988C12.261 7.94988 12.351 8.14997 12.351 8.21997L12.241 8.38989L11.451 8.95996L10.591 7.76001L11.261 7.28003V7.25L11.241 7.21997C11.011 6.89997 10.751 6.59004 10.461 6.29004C10.101 5.93004 9.78102 5.71991 9.51102 5.65991L9.40103 5.27002C9.40103 5.27002 9.381 5.17988 9.371 5.12988C9.361 5.07988 9.35103 5.03999 9.34103 4.98999C9.26103 4.65999 9.25099 4.44008 9.30099 4.33008L9.42099 4.47998C9.51099 4.59998 9.71098 4.68998 10.041 4.72998C10.161 4.74998 10.281 4.76001 10.401 4.76001C10.501 4.76001 10.611 4.75999 10.751 4.73999L10.781 4.79004L10.771 4.78003Z" fill="white"/>
<path d="M13.261 5.71997C13.641 6.36997 13.821 6.97001 13.791 7.51001L11.801 4.73999C11.751 4.66999 11.681 4.19004 11.581 3.29004C12.421 4.43004 12.991 5.23996 13.261 5.70996V5.71997Z" fill="white"/>
<path d="M19.281 3.65991L19.311 5.1499L16.791 5.94995C16.281 6.10995 15.891 5.75989 15.621 4.88989C15.531 4.60989 15.471 4.28992 15.451 3.91992C15.411 3.44992 15.461 3.16003 15.591 3.03003C15.621 3.12003 15.651 3.2399 15.681 3.3999C15.711 3.5599 15.741 3.69004 15.781 3.79004C15.841 3.97004 15.951 4.13003 16.121 4.28003C16.311 4.44003 16.491 4.48993 16.671 4.42993L18.731 3.78003V3.75C18.691 3.62 18.511 3.37001 18.171 3.01001L18.271 1.8501C18.711 2.2801 18.961 2.61008 19.031 2.83008L19.301 3.66992L19.281 3.65991ZM17.561 1.44995C17.531 1.57995 17.501 1.71009 17.461 1.84009C17.421 1.97009 17.381 2.11 17.321 2.25C17.221 2.25 17.091 2.21992 16.931 2.16992L16.541 2.04004C16.471 2.17004 16.401 2.34006 16.331 2.56006L16.181 2.53003L15.911 2.43994C15.681 2.36994 15.561 2.32003 15.541 2.28003C15.541 2.25003 15.611 1.97998 15.801 1.47998C16.211 1.65998 16.441 1.73997 16.501 1.71997L16.521 1.68994L16.631 1.46997L16.761 1.15991L17.551 1.42993L17.561 1.44995Z" fill="white"/>
<path d="M21.441 4.79004L20.431 4.95996L19.511 1.06006C19.511 1.00006 19.551 0.830039 19.671 0.540039L19.901 -0.0100098L20.741 3.40991L21.201 3.33008L21.451 4.79004H21.441Z" fill="white"/>
<path d="M23.191 2.80005L23.1609 4.66992L20.931 4.83008L20.821 3.36011L22.6609 3.22998V3.20996C22.5409 2.87996 22.361 2.5101 22.121 2.1001L22.4709 1.07007C22.5109 1.13007 22.551 1.17999 22.591 1.23999C22.621 1.28999 22.6709 1.35995 22.7209 1.44995C22.7609 1.51995 22.791 1.57011 22.811 1.61011C22.881 1.73011 22.931 1.8199 22.961 1.8999C23.031 2.0499 23.081 2.21011 23.121 2.36011C23.161 2.52011 23.181 2.67007 23.191 2.82007V2.80005ZM23.001 5.88989C22.911 6.14989 22.801 6.37007 22.671 6.57007C22.611 6.56007 22.511 6.50991 22.381 6.40991L22.101 6.19995L22.001 6.36011L21.861 6.6001C21.651 6.5401 21.461 6.40995 21.281 6.19995L21.631 5.55005C21.761 5.69005 21.921 5.81993 22.131 5.92993C22.171 5.88993 22.231 5.81997 22.291 5.71997C22.351 5.59997 22.401 5.51998 22.431 5.47998L23.011 5.87988L23.001 5.88989Z" fill="white"/>
<path d="M26.201 3.20004C26.181 3.51004 26.141 3.8102 26.081 4.1102C26.051 4.2802 26.0109 4.43016 25.9709 4.57016C25.9309 4.71016 25.871 4.87013 25.801 5.04013C25.491 5.87013 25.111 6.2801 24.651 6.2601C24.201 6.2401 23.711 6.11999 23.191 5.89999L22.981 5.81015L22.961 5.79013L22.931 5.73007L23.631 5.67001C24.331 5.37001 24.861 5.05007 25.211 4.73007C25.561 4.40007 25.741 4.07006 25.761 3.72006L25.741 3.69003C25.581 4.03003 25.491 4.20005 25.481 4.21005C25.361 4.36005 25.2009 4.43001 24.9709 4.42001C24.5309 4.40001 24.331 4.10013 24.351 3.54013C24.351 3.36013 24.391 3.17005 24.451 2.96005C24.511 2.75005 24.601 2.51006 24.731 2.22006C24.861 1.93006 24.991 1.72018 25.121 1.59018C25.251 1.45018 25.391 1.38999 25.531 1.39999H25.601C26.031 1.78999 26.221 2.39006 26.181 3.22006L26.201 3.20004ZM25.581 3.10019C25.581 3.04019 25.581 2.98001 25.571 2.92001L25.521 2.80014C25.481 2.68014 25.411 2.62019 25.321 2.60019C25.261 2.60019 25.191 2.64005 25.101 2.71005C25.011 2.79005 24.9709 2.86002 24.9709 2.93002C24.9709 2.98002 25.011 3.0402 25.101 3.1102C25.181 3.1502 25.261 3.18004 25.331 3.20004C25.381 3.20004 25.461 3.18021 25.591 3.12021V3.09018L25.581 3.10019Z" fill="white"/>
<path d="M27.951 5.04004L26.931 4.87988L27.291 0.879883C27.291 0.819883 27.401 0.669941 27.601 0.439941L28.001 -0.0100098L27.7209 3.5L28.181 3.57007L27.951 5.03003V5.04004Z" fill="white"/>
<path d="M30.511 5.69983L29.871 5.52991C29.871 5.52991 29.821 5.56976 29.781 5.62976L29.711 5.73987C29.661 5.84987 29.601 5.91982 29.521 5.93982L28.421 4.35999C28.421 4.35999 28.351 4.44991 28.301 4.52991L28.1609 4.78992C28.1109 4.92992 28.011 4.9999 27.881 5.0199L27.561 4.93982L27.941 3.50989L28.491 3.65979C28.491 3.65979 28.631 3.52993 28.831 3.29993C28.941 3.17993 29.041 3.06987 29.131 2.98987C29.221 2.90987 29.311 2.83989 29.421 2.75989C29.691 2.58989 29.961 2.52998 30.231 2.59998C30.341 2.62998 30.4009 2.66986 30.4109 2.72986C30.4109 2.74986 30.4109 2.77994 30.4109 2.80994C30.4109 2.83994 30.391 2.87983 30.381 2.94983C30.341 3.10983 30.331 3.34 30.381 3.62C30.421 3.91 30.491 4.09984 30.591 4.20984L30.881 4.28992L30.501 5.71985L30.511 5.69983ZM29.701 3.93982L29.731 3.81995V3.73987C29.731 3.73987 29.741 3.66976 29.731 3.62976C29.731 3.54976 29.731 3.50987 29.701 3.48987L29.621 3.44983C29.621 3.44983 29.521 3.43983 29.441 3.44983C29.361 3.44983 29.311 3.44985 29.281 3.46985C29.341 3.58985 29.471 3.74982 29.691 3.93982H29.701Z" fill="white"/>
<path d="M31.591 7.18994C31.491 7.29994 31.391 7.38996 31.291 7.45996C31.241 7.49996 31.201 7.53006 31.151 7.56006C31.101 7.59006 31.051 7.6199 31.001 7.6499C30.941 7.6099 30.881 7.52012 30.801 7.37012C30.751 7.29012 30.691 7.19007 30.631 7.07007L30.521 7.13989L30.241 7.33008C30.081 7.19008 29.961 6.98997 29.871 6.71997L30.4709 6.28003C30.5209 6.46003 30.621 6.65008 30.761 6.83008C30.821 6.83008 30.911 6.77995 31.021 6.69995C31.121 6.62995 31.191 6.58006 31.231 6.56006L31.591 7.17993V7.18994ZM32.291 6.43994L31.711 6.20996C31.581 6.15996 31.511 6.03006 31.501 5.81006V5.44995L31.031 5.93994L30.121 5.58008L30.6609 4.19995L31.671 4.6001C31.821 4.3801 31.941 4.16998 32.011 3.97998L32.091 3.80005C32.091 3.80005 32.121 3.74999 32.131 3.73999C32.141 3.72999 32.161 3.70994 32.191 3.68994C32.301 3.59994 32.551 3.44999 32.931 3.23999L32.741 3.72998L32.651 3.92993L32.571 4.09009L32.401 4.44995C32.301 4.70995 32.361 4.88997 32.591 4.96997L32.841 5.07007L32.301 6.44995L32.291 6.43994Z" fill="white"/>
<path d="M34.641 7.69995L34.101 7.40991L34.001 6.3999L33.241 6.94995L31.961 6.27002L32.6609 4.96997L33.9109 5.63989L33.431 3.68994L34.491 2.53003L36.961 2.97998L36.671 3.31006C36.541 3.46006 36.391 3.62003 36.241 3.78003L34.311 3.54004L34.601 4.88989C34.721 5.44989 34.851 5.88998 34.981 6.22998L35.331 6.41992L34.631 7.71997L34.641 7.69995Z" fill="white"/>
<path d="M38.031 5.48L36.981 5.94997L36.231 7.18996C36.181 7.25996 36.041 7.42996 35.791 7.68996C35.541 7.94996 35.391 8.10014 35.321 8.12014L35.121 8.0801L34.321 7.53005L35.1609 6.31008L35.841 6.78005H35.871L35.891 6.74001C36.111 6.41001 36.321 6.05996 36.501 5.68996C36.721 5.22996 36.811 4.8601 36.771 4.5801L37.101 4.34011C37.101 4.34011 37.1809 4.29003 37.2209 4.26003C37.2609 4.23003 37.301 4.20996 37.341 4.18996C37.621 4.00996 37.831 3.91995 37.951 3.92995L37.851 4.09011C37.761 4.22011 37.751 4.44002 37.821 4.75002C37.851 4.87002 37.881 4.99012 37.921 5.10012C37.951 5.19012 38.001 5.29994 38.061 5.41994L38.031 5.46999V5.48Z" fill="white"/>
<path d="M37.9709 8.12012C37.4809 8.70012 36.981 9.06997 36.461 9.21997L38.391 6.40991C38.441 6.33991 38.871 6.10997 39.681 5.71997C38.891 6.89997 38.3209 7.70012 37.9709 8.12012Z" fill="white"/>
<path d="M41.091 14.39L40.761 13.9501C40.701 13.8701 40.711 13.7402 40.771 13.5502C40.801 13.4602 40.841 13.3902 40.871 13.3302C40.911 13.2702 40.951 13.23 41.011 13.19L40.301 13.3602L38.971 11.5602C38.651 11.1302 38.861 10.6402 39.591 10.1002C39.681 10.0302 39.741 9.99007 39.781 9.96007C39.821 9.94007 39.901 9.89017 40.021 9.82017C40.141 9.75017 40.301 9.68019 40.501 9.59019C40.981 9.37019 41.291 9.31 41.431 9.39L41.371 9.44005C41.291 9.50005 41.171 9.57002 40.991 9.66002C40.811 9.75002 40.691 9.82999 40.611 9.87999C40.461 9.98999 40.341 10.1502 40.271 10.3502C40.191 10.5502 40.211 10.73 40.331 10.88L41.561 12.5401C41.561 12.5401 41.691 12.49 41.821 12.41C41.951 12.33 42.121 12.2202 42.301 12.0802L43.361 12.0602L42.841 12.44L42.131 12.8702C42.021 12.9502 41.991 13.04 42.021 13.16L42.271 13.5001L41.081 14.38L41.091 14.39ZM43.601 11.2701C43.531 11.2901 43.381 11.3102 43.141 11.3302C42.901 11.3502 42.761 11.3302 42.721 11.3002C42.701 11.2702 42.691 11.0001 42.701 10.4901H42.471L42.121 10.4601C42.101 10.3801 42.081 10.2301 42.081 10.0201C42.061 9.77012 42.081 9.64021 42.111 9.61021C42.161 9.57021 42.451 9.57021 42.991 9.61021C42.971 9.66021 42.951 9.7901 42.941 10.0001C42.941 10.2001 42.941 10.3202 42.971 10.3602C42.971 10.3602 42.981 10.3602 42.991 10.3602C42.991 10.3602 43.011 10.3602 43.041 10.3602L43.261 10.38L43.611 10.41V11.2601L43.601 11.2701Z" fill="white"/>
<path d="M40.761 16.1799C40.611 16.1899 40.481 16.1899 40.361 16.1799C40.301 16.1799 40.251 16.1799 40.191 16.1699C40.131 16.1699 40.071 16.1499 40.011 16.1399C39.991 16.0699 40.011 15.96 40.051 15.8C40.061 15.7 40.091 15.59 40.131 15.46L40.001 15.4399L39.671 15.3899C39.641 15.1799 39.691 14.9499 39.811 14.6899L40.551 14.76C40.461 14.93 40.411 15.1301 40.401 15.3601C40.451 15.3901 40.551 15.4199 40.681 15.4299C40.801 15.4399 40.881 15.46 40.931 15.47L40.781 16.1699L40.761 16.1799ZM41.781 16.0901L41.501 15.53C41.441 15.41 41.471 15.2601 41.611 15.0901L41.861 14.8301L41.171 14.8701L40.731 13.99L42.051 13.3301L42.541 14.3C42.801 14.24 43.021 14.1601 43.211 14.0701L43.391 13.99C43.391 13.99 43.451 13.97 43.461 13.97C43.481 13.97 43.501 13.97 43.541 13.97C43.681 13.97 43.961 14.0299 44.391 14.1299L43.921 14.3701L43.721 14.46L43.561 14.52L43.201 14.6699C42.951 14.7999 42.881 14.9699 42.991 15.1799L43.111 15.4199L41.791 16.0801L41.781 16.0901Z" fill="white"/>
<path d="M41.031 17.52C41.031 17.52 40.8809 17.4801 40.6609 17.3701C40.6109 17.3401 40.561 17.32 40.531 17.3C40.491 17.28 40.461 17.26 40.431 17.24C40.381 17.21 40.341 17.1699 40.321 17.1399C40.321 17.1199 40.321 17.08 40.331 17.02C40.351 16.96 40.371 16.87 40.421 16.77C40.461 16.66 40.501 16.58 40.531 16.52C40.561 16.46 40.591 16.4199 40.611 16.4099C40.651 16.3899 40.791 16.43 41.031 16.53C41.271 16.62 41.3909 16.69 41.4109 16.73C41.4109 16.74 41.361 16.8799 41.241 17.1299C41.121 17.3899 41.051 17.52 41.031 17.53V17.52ZM44.151 16.9199C43.891 17.0199 43.571 17.0999 43.201 17.1699L42.741 17.27C42.661 17.29 42.581 17.3101 42.501 17.3201C42.431 17.3301 42.341 17.3501 42.231 17.3601L41.621 15.73L43.011 15.21L43.491 16.51H43.541C43.661 16.45 43.831 16.3299 44.041 16.1299C44.241 15.9499 44.371 15.7999 44.451 15.6599L45.611 15.71C45.181 16.3 44.691 16.6999 44.141 16.8999L44.151 16.9199Z" fill="white"/>
</svg>
