<svg width="46" height="45" viewBox="0 0 46 45" fill="none" xmlns="http://www.w3.org/2000/svg">
<path d="M11.801 22.1201H3.57098V23.21H11.801V22.1201Z" fill="white"/>
<path d="M45.581 22.1201H37.351V23.21H45.581V22.1201Z" fill="white"/>
<path d="M15.371 33.5801H11.281V13.8601H15.371V33.5801ZM12.331 32.54H14.321V14.9199H12.331V32.54Z" fill="white"/>
<path d="M24.131 34.77C24.051 34.77 16.341 34.43 14.341 26.53L14.321 26.3999V20.0601L14.371 19.96C14.511 19.64 17.951 12.18 24.871 12.5L24.821 13.54C19.001 13.25 15.781 19.44 15.361 20.29V26.3301C17.181 33.3901 23.8709 33.71 24.1609 33.72L24.131 34.76V34.77Z" fill="white"/>
<path d="M24.151 28.1599V31.1699L23.451 30.96L22.321 31.4099L21.481 30.52L20.011 30.5701V29.3899L18.701 29.3601V28.3101L17.491 27.3401L17.831 26.1899L16.701 25.1699L17.281 24.1699L16.391 22.96L17.281 21.96L16.891 20.8301L17.861 19.99L17.441 18.99L18.781 18.47L18.681 17.3701L20.121 17.03L20.271 16.01H21.741L22.531 15.22L22.901 15.53C22.901 15.53 23.851 15.3499 24.151 15.4299V17.8999C24.151 17.8999 20.3309 18.77 20.4109 23.49C20.4109 23.49 20.001 27.0699 24.151 28.1699V28.1599Z" fill="white"/>
<path d="M28.871 15.33V32.7399C28.871 32.7399 30.5109 34.4198 29.2209 34.9098C29.2209 34.9098 27.0209 35.19 26.9109 34.35V13.6498C26.9109 13.6498 28.671 11.8899 30.001 12.9399C30.001 12.9399 30.561 13.75 28.861 15.33H28.871Z" fill="white"/>
<path d="M34.501 13.3001V34.18C34.501 34.18 33.661 35.5101 31.771 34.5601C31.771 34.5601 31.561 33.65 32.891 32.46V15.5401C32.891 15.5401 31.461 13.0002 32.791 12.6102C32.791 12.6102 33.661 12.3201 34.501 13.3001Z" fill="white"/>
<path d="M35.151 34.9601V13.39C35.151 13.39 36.641 12.32 37.651 13.13C37.651 13.13 38.281 13.9302 36.951 15.1202V32.5101C36.951 32.5101 37.771 33.5301 37.351 34.5301C37.351 34.5301 36.801 35.4701 35.151 34.9601Z" fill="white"/>
<path d="M26.281 13.4399V34.3201C26.281 34.3201 25.021 35.2601 23.971 34.3201C23.971 34.3201 23.231 33.52 24.601 31.73V12.3201L26.661 13.1899C26.661 13.1899 26.351 13.2799 26.281 13.4299V13.4399Z" fill="white"/>
<path d="M24.611 12.95H23.781V15.55H24.611V12.95Z" fill="white"/>
<path d="M33.371 21.8999H28.251V24.46H33.371V21.8999Z" fill="white"/>
<path d="M3.11096 27.8601L7.16095 26.74L7.31097 27.29L5.51099 27.79L7.62097 28.3999L7.82098 29.1399L5.961 28.55L3.78101 30.3101L3.58099 29.6001L5.28101 28.3301L4.48096 28.0701L3.25098 28.4099L3.10095 27.8601H3.11096Z" fill="white"/>
<path d="M7.88098 29.24L8.11096 29.76L6.03101 30.6799C5.70101 30.8299 5.491 30.93 5.401 30.98C5.251 31.07 5.151 31.1801 5.091 31.3101C5.031 31.4401 5.041 31.57 5.091 31.72C5.161 31.87 5.25097 31.96 5.37097 31.99C5.49097 32.03 5.62099 32.02 5.76099 31.98C5.90099 31.94 6.12096 31.85 6.42096 31.71L8.55096 30.77L8.78101 31.29L6.76099 32.1899C6.30099 32.3899 5.97099 32.5301 5.76099 32.5801C5.56099 32.6401 5.371 32.6599 5.211 32.6399C5.051 32.6199 4.90099 32.57 4.76099 32.48C4.63099 32.39 4.51096 32.24 4.42096 32.04C4.31096 31.79 4.27096 31.5899 4.30096 31.4199C4.33096 31.2599 4.39098 31.11 4.50098 30.97C4.60098 30.84 4.72096 30.7199 4.86096 30.6399C5.06096 30.5099 5.38097 30.3499 5.81097 30.1599L7.86096 29.25L7.88098 29.24Z" fill="white"/>
<path d="M5.63098 34.26L8.76099 31.3701L9.08099 31.8501L6.91095 33.8101L9.60095 32.6399L9.98096 33.2L7.81097 35.24L10.491 33.97L10.811 34.45L6.93097 36.21L6.60095 35.71L8.901 33.5L5.97095 34.78L5.63098 34.27V34.26Z" fill="white"/>
<path d="M9.39099 38.99L8.97095 38.54L9.50098 37.71L8.73096 36.8799L7.87097 37.3601L7.461 36.9199L11.291 34.8701L11.701 35.3101L9.38098 39L9.39099 38.99ZM9.901 37.0901L10.781 35.75L9.38098 36.53L9.901 37.0901Z" fill="white"/>
<path d="M9.81097 39.3201L12.591 36.1699L13.021 36.55L10.241 39.7L9.81097 39.3201Z" fill="white"/>
<path d="M11.341 40.5901L13.4109 37.77L12.741 37.28L13.1609 36.71L14.9709 38.03L14.551 38.6001L13.881 38.1101L11.811 40.9299L11.351 40.5901H11.341Z" fill="white"/>
<path d="M16.451 41.79L16.841 42.26C16.571 42.64 16.301 42.89 16.021 43.01C15.751 43.13 15.471 43.12 15.201 42.99C14.861 42.83 14.661 42.5301 14.611 42.0801C14.551 41.6301 14.671 41.11 14.951 40.51C15.251 39.88 15.591 39.4399 15.971 39.1899C16.351 38.9399 16.721 38.9001 17.081 39.0701C17.391 39.2201 17.581 39.4701 17.651 39.8401C17.691 40.0601 17.671 40.3299 17.581 40.6599L16.991 40.6001C17.051 40.3901 17.061 40.2 17.021 40.04C16.981 39.88 16.891 39.7699 16.751 39.6999C16.561 39.6099 16.361 39.64 16.151 39.79C15.941 39.94 15.721 40.2399 15.511 40.6899C15.281 41.1699 15.181 41.54 15.201 41.8C15.221 42.06 15.321 42.2301 15.511 42.3201C15.651 42.3801 15.791 42.37 15.951 42.29C16.111 42.21 16.281 42.04 16.451 41.78V41.79Z" fill="white"/>
<path d="M17.111 43.73L18.311 39.7L18.851 39.8601L18.381 41.45L19.451 41.77L19.921 40.1799L20.4709 40.3401L19.271 44.3701L18.731 44.21L19.261 42.45L18.191 42.1299L17.6609 43.8899L17.121 43.73H17.111Z" fill="white"/>
<path d="M20.211 44.5701L20.831 40.4099L22.901 40.72L22.801 41.4199L21.301 41.2L21.1609 42.1201L22.561 42.3301L22.461 43.03L21.061 42.8201L20.891 43.95L22.451 44.1799L22.351 44.8799L20.231 44.5701H20.211Z" fill="white"/>
<path d="M23.211 44.98L23.151 40.78H24.001L24.551 43.6299L25.011 40.75H25.861L25.921 44.9399H25.391L25.341 41.6399L24.831 44.96H24.281L23.681 41.6699L23.731 44.98H23.201H23.211Z" fill="white"/>
<path d="M26.741 44.8401L26.251 40.6599L26.811 40.5901L27.301 44.77L26.741 44.8401Z" fill="white"/>
<path d="M29.531 42.7801L30.121 42.91C30.141 43.38 30.071 43.7401 29.931 44.0001C29.791 44.2601 29.571 44.4201 29.271 44.4901C28.901 44.5701 28.561 44.45 28.241 44.13C27.921 43.81 27.691 43.33 27.551 42.68C27.401 42 27.401 41.4401 27.551 41.0101C27.701 40.5801 27.971 40.3201 28.361 40.2401C28.701 40.1701 29.001 40.2501 29.281 40.5001C29.441 40.6501 29.591 40.88 29.731 41.19L29.221 41.5101C29.141 41.3001 29.031 41.1501 28.901 41.0501C28.771 40.9501 28.631 40.92 28.481 40.95C28.281 41 28.141 41.14 28.061 41.39C27.981 41.64 28.001 42.0001 28.111 42.4901C28.231 43.0101 28.371 43.3601 28.541 43.5601C28.711 43.7501 28.901 43.8301 29.101 43.7801C29.251 43.7501 29.361 43.6501 29.431 43.4901C29.501 43.3301 29.531 43.0901 29.511 42.7801H29.531Z" fill="white"/>
<path d="M33.621 42.99L33.041 43.21L32.4709 42.4099L31.421 42.8201L31.551 43.79L30.991 44.01L30.501 39.6899L31.061 39.47L33.631 42.99H33.621ZM32.041 41.8201L31.121 40.5L31.331 42.0901L32.051 41.8101L32.041 41.8201Z" fill="white"/>
<path d="M34.201 42.6799L32.181 39.03L32.681 38.75L34.361 41.78L35.601 41.0901L35.941 41.71L34.201 42.6699V42.6799Z" fill="white"/>
<path d="M37.521 40.6399L34.831 37.4099L35.271 37.05L36.331 38.3201L37.191 37.6101L36.131 36.3401L36.571 35.98L39.261 39.21L38.821 39.5701L37.641 38.1599L36.781 38.8701L37.961 40.28L37.521 40.6399Z" fill="white"/>
<path d="M38.3509 37.22C38.0309 36.94 37.791 36.67 37.631 36.41C37.511 36.22 37.4309 36.0301 37.3709 35.8301C37.3109 35.6301 37.301 35.4601 37.331 35.3101C37.361 35.1101 37.4609 34.9201 37.6109 34.7401C37.8809 34.4301 38.251 34.3102 38.701 34.3702C39.151 34.4402 39.641 34.7 40.151 35.15C40.661 35.6 40.9809 36.0401 41.1009 36.4801C41.2209 36.9201 41.1509 37.2902 40.8709 37.6002C40.5909 37.9102 40.231 38.04 39.781 37.97C39.331 37.9 38.8509 37.65 38.3509 37.2V37.22ZM38.711 36.7601C39.071 37.0801 39.3909 37.2601 39.6709 37.3101C39.9509 37.3601 40.171 37.31 40.321 37.13C40.471 36.96 40.5009 36.74 40.4209 36.47C40.3309 36.2 40.1109 35.9001 39.7409 35.5801C39.3809 35.2601 39.0609 35.0801 38.7909 35.0301C38.5209 34.9801 38.301 35.04 38.151 35.22C38.001 35.4 37.9609 35.62 38.0409 35.88C38.1309 36.15 38.351 36.4401 38.711 36.7601Z" fill="white"/>
<path d="M38.6609 33.6001L38.9709 33.1201L40.891 34.3501C41.191 34.5501 41.391 34.67 41.491 34.71C41.651 34.78 41.801 34.81 41.931 34.79C42.071 34.77 42.181 34.6901 42.261 34.5601C42.351 34.4201 42.371 34.2999 42.331 34.1699C42.291 34.0399 42.221 33.9401 42.101 33.8501C41.991 33.7601 41.791 33.6199 41.511 33.4399L39.551 32.1799L39.861 31.7L41.7209 32.8899C42.1509 33.1599 42.441 33.37 42.601 33.51C42.761 33.65 42.881 33.7899 42.951 33.9399C43.021 34.0899 43.061 34.2399 43.061 34.3999C43.061 34.5599 43.001 34.7399 42.871 34.9199C42.721 35.1499 42.571 35.2901 42.421 35.3601C42.271 35.4301 42.111 35.4499 41.941 35.4399C41.771 35.4299 41.611 35.3901 41.461 35.3201C41.241 35.2201 40.931 35.04 40.531 34.79L38.641 33.5801L38.6609 33.6001Z" fill="white"/>
<path d="M42.571 32.6899L42.731 32.1498C43.001 32.2398 43.211 32.2599 43.371 32.2199C43.531 32.1799 43.651 32.0798 43.721 31.9298C43.801 31.7598 43.801 31.6099 43.731 31.4799C43.661 31.3499 43.561 31.2498 43.421 31.1798C43.331 31.1398 43.241 31.1198 43.171 31.1298C43.091 31.1298 43.011 31.1699 42.921 31.2399C42.861 31.2899 42.741 31.4 42.561 31.58C42.331 31.81 42.121 31.9499 41.921 31.9899C41.641 32.0499 41.351 32.01 41.041 31.87C40.851 31.78 40.681 31.6599 40.541 31.5099C40.401 31.3599 40.321 31.1899 40.301 31.0099C40.281 30.8299 40.301 30.6399 40.401 30.4399C40.551 30.1199 40.761 29.92 41.051 29.86C41.341 29.79 41.651 29.8399 42.011 29.9899L41.811 30.5199C41.601 30.4499 41.441 30.4399 41.321 30.4699C41.201 30.4999 41.111 30.5899 41.041 30.7399C40.971 30.8899 40.961 31.0298 41.021 31.1598C41.051 31.2398 41.121 31.31 41.221 31.35C41.311 31.39 41.401 31.3998 41.491 31.3798C41.601 31.3498 41.761 31.2299 41.961 31.0199C42.161 30.8099 42.341 30.66 42.491 30.59C42.641 30.52 42.811 30.4799 43.011 30.4799C43.211 30.4799 43.421 30.5498 43.671 30.6598C43.891 30.7598 44.081 30.89 44.231 31.06C44.381 31.23 44.471 31.41 44.501 31.6C44.531 31.79 44.491 31.9999 44.391 32.2199C44.241 32.5399 44.021 32.74 43.711 32.81C43.411 32.88 43.031 32.8398 42.591 32.6698L42.571 32.6899Z" fill="white"/>
<path d="M45.061 30.3899L41.031 29.1799L41.631 27.1799L42.311 27.3799L41.871 28.8401L42.761 29.1101L43.171 27.75L43.851 27.95L43.441 29.3101L44.541 29.6399L44.991 28.1299L45.671 28.3301L45.061 30.3799V30.3899Z" fill="white"/>
<path d="M1.95099 13.26C2.06099 13.39 2.231 13.62 2.461 13.97L1.79095 14.4199L1.93097 14.6699L2.08099 14.9099C2.02099 15.0099 1.78098 15.1799 1.38098 15.3999C1.30098 15.2999 1.22098 15.18 1.13098 15.05C1.05098 14.94 0.981001 14.8099 0.901001 14.6699C0.931001 14.6699 0.980955 14.6401 1.04095 14.6101L1.25098 14.49C1.42098 14.39 1.51101 14.32 1.53101 14.28L1.51099 14.24L1.401 14.02L1.24097 13.72L1.94098 13.25L1.95099 13.26ZM4.88098 13.72L4.97095 13.75L5.11096 13.8L5.26099 13.8701L5.461 13.3799L6.81097 13.8899L5.91095 16.3C6.07095 16.47 6.21099 16.6699 6.33099 16.8799C6.45099 17.0899 6.55098 17.3301 6.63098 17.6001C6.71098 17.8601 6.75098 18.1101 6.75098 18.3601C6.75098 18.6001 6.71098 18.83 6.63098 19.04C6.48098 19.43 6.26095 19.6901 5.97095 19.8101C5.68095 19.9301 5.34099 19.92 4.95099 19.78C4.77099 19.71 4.58099 19.61 4.39099 19.47C4.20099 19.33 4.00097 19.17 3.81097 18.97C3.59097 18.75 3.42097 18.5501 3.31097 18.3601C3.19097 18.1701 3.12095 17.9901 3.10095 17.8201C3.16095 17.8401 3.24099 17.89 3.33099 17.97C3.38099 18.01 3.43097 18.0601 3.49097 18.1101C3.55097 18.1601 3.62099 18.2301 3.70099 18.3201C3.96099 18.5801 4.20098 18.7601 4.44098 18.8501C4.74098 18.9601 5.011 18.94 5.271 18.78C5.381 18.7 5.47096 18.61 5.55096 18.5C5.63096 18.39 5.711 18.2501 5.771 18.0901C5.841 17.9101 5.91096 17.55 5.98096 17.01L5.95099 16.99C5.74099 16.91 5.52098 17.01 5.32098 17.29L5.16095 17.55C5.09095 17.68 5.021 17.82 4.961 17.98C4.821 17.9 4.68101 17.7899 4.53101 17.6599C4.45101 17.5899 4.37095 17.5199 4.29095 17.4299C4.21095 17.3499 4.12101 17.2499 4.03101 17.1499L5.08099 14.3401C4.87099 14.3201 4.65098 14.3201 4.44098 14.3301C4.24098 14.3301 4.03096 14.3499 3.80096 14.3799L3.00098 13.6101C3.81098 13.5101 4.43098 13.54 4.88098 13.7V13.72ZM7.36096 18.47C7.54096 18.65 7.651 18.7999 7.711 18.9199C7.691 18.9599 7.541 19.07 7.271 19.24C7.301 19.34 7.371 19.4401 7.461 19.5701C7.361 19.7201 7.21097 19.8199 6.99097 19.8799L6.67096 19.4299C6.67096 19.4299 6.69099 19.4199 6.70099 19.4099C6.74099 19.3799 6.80098 19.35 6.88098 19.3C7.01098 19.24 7.08095 19.1899 7.10095 19.1399C7.10095 19.1399 7.10095 19.1399 7.10095 19.1299C7.10095 19.0999 7.08097 19.07 7.06097 19.04L6.91095 18.77L7.13098 18.6201L7.39099 18.47H7.36096Z" fill="white"/>
<path d="M6.35095 11.71L7.82098 12.8601L6.60095 14.74L5.36096 13.9299L6.36096 12.3899C6.02096 12.2699 5.611 12.1899 5.151 12.1399L4.54095 11.24C4.61095 11.24 4.68097 11.24 4.74097 11.24C4.80097 11.24 4.88097 11.25 4.99097 11.26C5.07097 11.26 5.13096 11.28 5.17096 11.29C5.30096 11.31 5.41097 11.3201 5.49097 11.3401C5.65097 11.3801 5.81099 11.43 5.95099 11.5C6.10099 11.56 6.23096 11.64 6.36096 11.72L6.35095 11.71ZM8.70099 13.74C8.85099 13.96 8.97095 14.1899 9.04095 14.4099C8.99095 14.4499 8.89097 14.5 8.74097 14.55L8.41095 14.6499L8.48096 14.8301L8.591 15.0901C8.421 15.2201 8.19096 15.3001 7.92096 15.3101L7.61096 14.6399C7.80096 14.6199 8.001 14.57 8.211 14.47C8.211 14.41 8.18099 14.32 8.14099 14.21C8.08099 14.09 8.05095 14 8.04095 13.95L8.711 13.73L8.70099 13.74Z" fill="white"/>
<path d="M9.771 10.4801L9.51099 10.7902L9.75098 11.2401L10.001 11.7001C10.181 12.1301 10.181 12.45 10.011 12.64C9.86099 12.81 9.65097 13.0001 9.37097 13.2101C9.06097 13.4201 8.81097 13.5502 8.62097 13.5802C9.15097 12.9502 9.331 12.1601 9.151 11.2001C8.841 11.4901 8.63098 11.6601 8.50098 11.7101C8.25098 11.8301 7.99096 11.7702 7.73096 11.5502C7.59096 11.4302 7.44096 11.2702 7.30096 11.0902C7.16096 10.9002 7.01096 10.68 6.86096 10.41C6.51096 9.79003 6.43097 9.37002 6.62097 9.15002C6.75097 9.00002 7.05101 9.02008 7.53101 9.21008C7.57101 9.23008 7.64097 9.26018 7.74097 9.31018C7.81097 9.35018 7.881 9.38004 7.961 9.42004C7.991 9.44004 8.06096 9.48017 8.17096 9.55017C8.28096 9.62017 8.38099 9.68009 8.45099 9.72009L8.63098 9.51013L9.76099 10.4701L9.771 10.4801ZM7.99097 10.1801C7.99097 10.1801 7.92097 10.1302 7.87097 10.1102C7.82097 10.0902 7.76097 10.0802 7.68097 10.0702C7.54097 10.0402 7.44099 10.0702 7.39099 10.1202C7.38099 10.1302 7.37097 10.1601 7.37097 10.1901V10.2801C7.37097 10.3601 7.37099 10.4101 7.39099 10.4401C7.46099 10.5001 7.55096 10.5201 7.67096 10.4901C7.76096 10.4601 7.85096 10.4202 7.92096 10.3502C7.99096 10.2602 8.02097 10.2 7.99097 10.17V10.1801Z" fill="white"/>
<path d="M11.731 8.73999L11.271 9.1499L10.291 8.8999L10.551 9.80005L9.47095 10.77L8.48096 9.66992L9.53101 8.71997L7.53101 8.51001L6.79095 7.12012L8.05096 4.94995L8.26099 5.33008C8.36099 5.51008 8.46096 5.69989 8.55096 5.88989L7.67096 7.62012L9.04095 7.80005C9.61095 7.88005 10.071 7.9099 10.431 7.8999L10.731 7.62988L11.7209 8.72998L11.731 8.73999Z" fill="white"/>
<path d="M10.771 4.81006L10.861 5.95996L11.781 7.08008C11.831 7.15008 11.941 7.33991 12.101 7.65991C12.261 7.97991 12.351 8.18 12.351 8.25L12.241 8.41992L11.451 8.98999L10.591 7.79004L11.261 7.31006V7.28003L11.241 7.25C11.011 6.93 10.751 6.62007 10.461 6.32007C10.101 5.96007 9.78102 5.74994 9.51102 5.68994L9.40103 5.30005C9.40103 5.30005 9.381 5.20991 9.371 5.15991C9.361 5.10991 9.35103 5.07002 9.34103 5.02002C9.26103 4.69002 9.25099 4.47011 9.30099 4.36011L9.42099 4.51001C9.51099 4.63001 9.71098 4.72001 10.041 4.76001C10.161 4.78001 10.281 4.79004 10.401 4.79004C10.501 4.79004 10.611 4.79002 10.751 4.77002L10.781 4.82007L10.771 4.81006Z" fill="white"/>
<path d="M13.261 5.75C13.641 6.4 13.821 7.00004 13.791 7.54004L11.801 4.77002C11.751 4.70002 11.681 4.22007 11.581 3.32007C12.421 4.46007 12.991 5.26999 13.261 5.73999V5.75Z" fill="white"/>
<path d="M19.281 3.68994L19.311 5.17993L16.791 5.97998C16.281 6.13998 15.891 5.78992 15.621 4.91992C15.531 4.63992 15.471 4.31995 15.451 3.94995C15.411 3.47995 15.461 3.19006 15.591 3.06006C15.621 3.15006 15.651 3.26993 15.681 3.42993C15.711 3.58993 15.741 3.72007 15.781 3.82007C15.841 4.00007 15.951 4.16006 16.121 4.31006C16.311 4.47006 16.491 4.51996 16.671 4.45996L18.731 3.81006V3.78003C18.691 3.65003 18.511 3.40004 18.171 3.04004L18.271 1.87988C18.711 2.30988 18.961 2.64011 19.031 2.86011L19.301 3.69995L19.281 3.68994ZM17.561 1.47998C17.531 1.60998 17.501 1.74012 17.461 1.87012C17.421 2.00012 17.381 2.14003 17.321 2.28003C17.221 2.28003 17.091 2.24995 16.931 2.19995L16.541 2.07007C16.471 2.20007 16.401 2.37009 16.331 2.59009L16.181 2.56006L15.911 2.46997C15.681 2.39997 15.561 2.35006 15.541 2.31006C15.541 2.28006 15.611 2.01001 15.801 1.51001C16.211 1.69001 16.441 1.77 16.501 1.75L16.521 1.71997L16.631 1.5L16.761 1.18994L17.551 1.45996L17.561 1.47998Z" fill="white"/>
<path d="M21.441 4.82007L20.431 4.98999L19.511 1.09009C19.511 1.03009 19.551 0.860068 19.671 0.570068L19.901 0.0200195L20.741 3.43994L21.201 3.36011L21.451 4.82007H21.441Z" fill="white"/>
<path d="M23.191 2.83008L23.1609 4.69995L20.931 4.86011L20.821 3.38989L22.6609 3.26001V3.23999C22.5409 2.90999 22.361 2.53988 22.121 2.12988L22.4709 1.1001C22.5109 1.1601 22.551 1.21002 22.591 1.27002C22.621 1.32002 22.6709 1.38998 22.7209 1.47998C22.7609 1.54998 22.791 1.59989 22.811 1.63989C22.881 1.75989 22.931 1.84993 22.961 1.92993C23.031 2.07993 23.081 2.23989 23.121 2.38989C23.161 2.54989 23.181 2.7001 23.191 2.8501V2.83008ZM23.001 5.91992C22.911 6.17992 22.801 6.4001 22.671 6.6001C22.611 6.5901 22.511 6.53994 22.381 6.43994L22.101 6.22998L22.001 6.38989L21.861 6.62988C21.651 6.56988 21.461 6.43998 21.281 6.22998L21.631 5.58008C21.761 5.72008 21.921 5.84996 22.131 5.95996C22.171 5.91996 22.231 5.85 22.291 5.75C22.351 5.63 22.401 5.55001 22.431 5.51001L23.011 5.90991L23.001 5.91992Z" fill="white"/>
<path d="M26.201 3.24008C26.181 3.55008 26.141 3.84999 26.081 4.14999C26.051 4.31999 26.0109 4.4702 25.9709 4.6102C25.9309 4.7502 25.871 4.91017 25.801 5.08017C25.491 5.91017 25.111 6.32014 24.651 6.30014C24.201 6.28014 23.711 6.16003 23.191 5.94003L22.981 5.85019L22.961 5.83017L22.931 5.77011L23.631 5.71005C24.331 5.41005 24.861 5.09011 25.211 4.77011C25.561 4.44011 25.741 4.1101 25.761 3.7601L25.741 3.73007C25.581 4.07007 25.491 4.24009 25.481 4.25009C25.361 4.40009 25.2009 4.47005 24.9709 4.46005C24.5309 4.44005 24.331 4.14017 24.351 3.58017C24.351 3.40017 24.391 3.21009 24.451 3.00009C24.511 2.79009 24.601 2.5501 24.731 2.2601C24.861 1.9701 24.991 1.75997 25.121 1.62997C25.251 1.48997 25.391 1.43003 25.531 1.44003H25.601C26.031 1.83003 26.221 2.4301 26.181 3.2601L26.201 3.24008ZM25.581 3.12997C25.581 3.06998 25.581 3.01004 25.571 2.95004L25.521 2.83017C25.481 2.71017 25.411 2.64997 25.321 2.62997C25.261 2.62997 25.191 2.67008 25.101 2.74008C25.011 2.82008 24.9709 2.89005 24.9709 2.96005C24.9709 3.01005 25.011 3.06998 25.101 3.13998C25.181 3.17998 25.261 3.21007 25.331 3.23007C25.381 3.23007 25.461 3.20999 25.591 3.14999V3.12021L25.581 3.12997Z" fill="white"/>
<path d="M27.951 5.07007L26.931 4.90991L27.291 0.909912C27.291 0.849912 27.401 0.699971 27.601 0.469971L28.001 0.0200195L27.7209 3.53003L28.181 3.6001L27.951 5.06006V5.07007Z" fill="white"/>
<path d="M30.511 5.73006L29.871 5.56014C29.871 5.56014 29.821 5.59999 29.781 5.65999L29.711 5.7701C29.661 5.8801 29.601 5.95005 29.521 5.97005L28.421 4.38997C28.421 4.38997 28.351 4.48014 28.301 4.56014L28.1609 4.82015C28.1109 4.96015 28.011 5.03013 27.881 5.05013L27.561 4.97005L27.941 3.54012L28.491 3.69002C28.491 3.69002 28.631 3.56016 28.831 3.33016C28.941 3.21016 29.041 3.1001 29.131 3.0201C29.221 2.9401 29.311 2.87012 29.421 2.79012C29.691 2.62012 29.961 2.55996 30.231 2.62996C30.341 2.65996 30.4009 2.70009 30.4109 2.76009C30.4109 2.78009 30.4109 2.81017 30.4109 2.84017C30.4109 2.87017 30.391 2.91006 30.381 2.98006C30.341 3.14006 30.331 3.36998 30.381 3.64998C30.421 3.93998 30.491 4.13007 30.591 4.24007L30.881 4.32015L30.501 5.75008L30.511 5.73006ZM29.701 3.97005L29.731 3.85018V3.7701C29.731 3.7701 29.741 3.69999 29.731 3.65999C29.731 3.57999 29.731 3.5401 29.701 3.5201L29.621 3.48006C29.621 3.48006 29.521 3.47006 29.441 3.48006C29.361 3.48006 29.311 3.48008 29.281 3.50008C29.341 3.62008 29.471 3.78005 29.691 3.97005H29.701Z" fill="white"/>
<path d="M31.591 7.21997C31.491 7.32997 31.391 7.41999 31.291 7.48999C31.241 7.52999 31.201 7.56009 31.151 7.59009C31.101 7.62009 31.051 7.64993 31.001 7.67993C30.941 7.63993 30.881 7.5499 30.801 7.3999C30.751 7.3199 30.691 7.2201 30.631 7.1001L30.521 7.16992L30.241 7.36011C30.081 7.22011 29.961 7.02 29.871 6.75L30.4709 6.31006C30.5209 6.49006 30.621 6.68011 30.761 6.86011C30.821 6.86011 30.911 6.80998 31.021 6.72998C31.121 6.65998 31.191 6.61009 31.231 6.59009L31.591 7.20996V7.21997ZM32.291 6.46997L31.711 6.23999C31.581 6.18999 31.511 6.06009 31.501 5.84009V5.47998L31.031 5.96997L30.121 5.61011L30.6609 4.22998L31.671 4.62988C31.821 4.40988 31.941 4.20001 32.011 4.01001L32.091 3.83008C32.091 3.83008 32.121 3.78002 32.131 3.77002C32.141 3.76002 32.161 3.73997 32.191 3.71997C32.301 3.62997 32.551 3.48002 32.931 3.27002L32.741 3.76001L32.651 3.95996L32.571 4.12012L32.401 4.47998C32.301 4.73998 32.361 4.92 32.591 5L32.841 5.1001L32.301 6.47998L32.291 6.46997Z" fill="white"/>
<path d="M34.641 7.72998L34.101 7.43994L34.001 6.42993L33.241 6.97998L31.961 6.30005L32.6609 5L33.9109 5.66992L33.431 3.71997L34.491 2.56006L36.961 3.01001L36.671 3.34009C36.541 3.49009 36.391 3.65006 36.241 3.81006L34.311 3.57007L34.601 4.91992C34.721 5.47992 34.851 5.92001 34.981 6.26001L35.331 6.44995L34.631 7.75L34.641 7.72998Z" fill="white"/>
<path d="M38.031 5.51003L36.981 5.98L36.231 7.21999C36.181 7.28999 36.041 7.45999 35.791 7.71999C35.541 7.97999 35.391 8.12992 35.321 8.14992L35.121 8.11013L34.321 7.56008L35.1609 6.34011L35.841 6.81008H35.871L35.891 6.77004C36.111 6.44004 36.321 6.08999 36.501 5.71999C36.721 5.25999 36.811 4.89013 36.771 4.61013L37.101 4.37014C37.101 4.37014 37.1809 4.32006 37.2209 4.29006C37.2609 4.26006 37.301 4.23999 37.341 4.21999C37.621 4.03999 37.831 3.94998 37.951 3.95998L37.851 4.12014C37.761 4.25014 37.751 4.47005 37.821 4.78005C37.851 4.90005 37.881 5.0199 37.921 5.1299C37.951 5.2199 38.001 5.32997 38.061 5.44997L38.031 5.50002V5.51003Z" fill="white"/>
<path d="M37.9709 8.1499C37.4809 8.7299 36.981 9.1 36.461 9.25L38.391 6.43994C38.441 6.36994 38.871 6.14 39.681 5.75C38.891 6.93 38.3209 7.7299 37.9709 8.1499Z" fill="white"/>
<path d="M41.091 14.4298L40.761 13.9899C40.701 13.9099 40.711 13.78 40.771 13.59C40.801 13.5 40.841 13.43 40.871 13.37C40.911 13.31 40.951 13.2699 41.011 13.2299L40.301 13.3998L38.971 11.6C38.651 11.17 38.861 10.6798 39.591 10.1398C39.681 10.0698 39.741 10.0299 39.781 9.99991C39.821 9.97991 39.901 9.93001 40.021 9.86001C40.141 9.79001 40.301 9.71979 40.501 9.62979C40.981 9.40979 41.291 9.34984 41.431 9.42984L41.371 9.47989C41.291 9.53989 41.171 9.60986 40.991 9.69986C40.811 9.78986 40.691 9.86983 40.611 9.91983C40.461 10.0298 40.341 10.1898 40.271 10.3898C40.191 10.5898 40.211 10.7698 40.331 10.9198L41.561 12.58C41.561 12.58 41.691 12.5299 41.821 12.4499C41.951 12.3699 42.121 12.26 42.301 12.12L43.361 12.1L42.841 12.4799L42.131 12.9098C42.021 12.9898 41.991 13.0799 42.021 13.1999L42.271 13.5399L41.081 14.4198L41.091 14.4298ZM43.601 11.3C43.531 11.32 43.381 11.34 43.141 11.36C42.901 11.38 42.761 11.36 42.721 11.33C42.701 11.3 42.691 11.0299 42.701 10.5199H42.471L42.121 10.4899C42.101 10.4099 42.081 10.26 42.081 10.05C42.061 9.79996 42.081 9.6698 42.111 9.6398C42.161 9.5998 42.451 9.5998 42.991 9.6398C42.971 9.6898 42.951 9.81994 42.941 10.0299C42.941 10.2299 42.941 10.3498 42.971 10.3898C42.971 10.3898 42.981 10.3898 42.991 10.3898C42.991 10.3898 43.011 10.3898 43.041 10.3898L43.261 10.4098L43.611 10.4398V11.2899L43.601 11.3Z" fill="white"/>
<path d="M40.761 16.21C40.611 16.22 40.481 16.22 40.361 16.21C40.301 16.21 40.251 16.21 40.191 16.2C40.131 16.2 40.071 16.1799 40.011 16.1699C39.991 16.0999 40.011 15.9901 40.051 15.8301C40.061 15.7301 40.091 15.62 40.131 15.49L40.001 15.47L39.671 15.4199C39.641 15.2099 39.691 14.98 39.811 14.72L40.551 14.79C40.461 14.96 40.411 15.1599 40.401 15.3899C40.451 15.4199 40.551 15.45 40.681 15.46C40.801 15.47 40.881 15.49 40.931 15.5L40.781 16.2L40.761 16.21ZM41.781 16.1201L41.501 15.5601C41.441 15.4401 41.471 15.2901 41.611 15.1201L41.861 14.8601L41.171 14.8999L40.731 14.02L42.051 13.3601L42.541 14.3301C42.801 14.2701 43.021 14.1901 43.211 14.1001L43.391 14.02C43.391 14.02 43.451 14 43.461 14C43.481 14 43.501 14 43.541 14C43.681 14 43.961 14.0599 44.391 14.1599L43.921 14.3999L43.721 14.49L43.561 14.55L43.201 14.7C42.951 14.83 42.881 15 42.991 15.21L43.111 15.45L41.791 16.1101L41.781 16.1201Z" fill="white"/>
<path d="M41.031 17.55C41.031 17.55 40.8809 17.5099 40.6609 17.3999C40.6109 17.3699 40.561 17.3501 40.531 17.3301C40.491 17.3101 40.461 17.29 40.431 17.27C40.381 17.24 40.341 17.1999 40.321 17.1699C40.321 17.1499 40.321 17.11 40.331 17.05C40.351 16.99 40.371 16.9 40.421 16.8C40.461 16.69 40.501 16.61 40.531 16.55C40.561 16.49 40.591 16.4499 40.611 16.4399C40.651 16.4199 40.791 16.4601 41.031 16.5601C41.271 16.6501 41.3909 16.72 41.4109 16.76C41.4109 16.77 41.361 16.9099 41.241 17.1599C41.121 17.4199 41.051 17.5501 41.031 17.5601V17.55ZM44.151 16.95C43.891 17.05 43.571 17.13 43.201 17.2L42.741 17.3C42.661 17.32 42.581 17.3401 42.501 17.3501C42.431 17.3601 42.341 17.3799 42.231 17.3899L41.621 15.76L43.011 15.24L43.491 16.54H43.541C43.661 16.48 43.831 16.3599 44.041 16.1599C44.241 15.9799 44.371 15.8299 44.451 15.6899L45.611 15.74C45.181 16.33 44.691 16.7299 44.141 16.9299L44.151 16.95Z" fill="white"/>
</svg>
