<svg width="134" height="135" viewBox="0 0 134 135" fill="none" xmlns="http://www.w3.org/2000/svg">
<path d="M32.9201 66.6802H8.43005V69.9199H32.9201V66.6802Z" fill="white"/>
<path d="M133.36 66.6802H108.87V69.9199H133.36V66.6802Z" fill="white"/>
<path d="M43.5201 100.76H31.3501V42.1201H43.5201V100.76ZM34.4701 97.6401H40.4001V45.2402H34.4701V97.6401Z" fill="white"/>
<path d="M69.5702 104.28C69.3402 104.28 46.4002 103.25 40.4602 79.7899L40.4102 79.41V60.5599L40.5502 60.2597C40.9802 59.3097 51.1902 37.14 71.7702 38.07L71.6302 41.1598C54.3302 40.2998 44.7501 58.7101 43.5101 61.2401V79.2099C48.9301 100.2 68.8302 101.15 69.6702 101.18L69.5702 104.27V104.28Z" fill="white"/>
<path d="M69.6201 84.6401V93.5801L67.5401 92.96L64.1901 94.29L61.6901 91.6401L57.3201 91.7998V88.29L53.4201 88.21V85.0898L49.8301 82.2002L50.8401 78.77L47.4901 75.73L49.2101 72.77L46.5601 69.1802L49.2101 66.2202L48.0401 62.8701L50.9301 60.3701L49.6801 57.4102L53.6601 55.8501L53.3501 52.5698L57.6401 51.5601L58.0901 48.52H62.4701L64.8101 46.1802L65.9001 47.1201C65.9001 47.1201 68.7301 46.5701 69.6201 46.8101V54.1401C69.6201 54.1401 58.2601 56.71 58.4901 70.75C58.4901 70.75 57.2701 81.4102 69.6201 84.6602V84.6401Z" fill="white"/>
<path d="M83.6501 46.4902V98.27C83.6501 98.27 88.5401 103.26 84.6901 104.72C84.6901 104.72 78.1401 105.55 77.8301 103.06V41.51C77.8301 41.51 83.0501 36.2899 87.0301 39.3999C87.0301 39.3999 88.6901 41.82 83.6501 46.5V46.4902Z" fill="white"/>
<path d="M100.39 40.45V102.52C100.39 102.52 97.8901 106.47 92.2801 103.66C92.2801 103.66 91.6601 100.96 95.6101 97.42V47.0899C95.6101 47.0899 91.3501 39.54 95.3001 38.38C95.3001 38.38 97.9001 37.53 100.39 40.44V40.45Z" fill="white"/>
<path d="M102.32 104.85V40.72C102.32 40.72 106.74 37.55 109.75 39.94C109.75 39.94 111.62 42.3302 107.67 45.8702V97.5699C107.67 97.5699 110.11 100.61 108.87 103.57C108.87 103.57 107.23 106.36 102.32 104.85Z" fill="white"/>
<path d="M75.9601 40.8701V102.94C75.9601 102.94 72.2201 105.75 69.1001 102.94C69.1001 102.94 66.9101 100.55 70.9701 95.25V37.54L77.1101 40.1399C77.1101 40.1399 76.2001 40.4001 75.9701 40.8701H75.9601Z" fill="white"/>
<path d="M70.9701 39.3899H68.5101V47.1099H70.9701V39.3899Z" fill="white"/>
<path d="M97.0201 66.02H81.8101V73.6201H97.0201V66.02Z" fill="white"/>
<path d="M7.06006 83.75L19.1201 80.4302L19.5701 82.0601L14.2201 83.5298L20.4801 85.3501L21.0801 87.54L15.5501 85.79L9.07006 91.02L8.49006 88.9102L13.5401 85.1299L11.1601 84.3599L7.52006 85.3599L7.07006 83.73L7.06006 83.75Z" fill="white"/>
<path d="M21.2401 87.8398L21.9301 89.3901L15.7401 92.1401C14.7601 92.5801 14.1301 92.8798 13.8601 93.0498C13.4201 93.3198 13.1201 93.65 12.9401 94.02C12.7701 94.4 12.7801 94.8 12.9701 95.23C13.1601 95.67 13.4501 95.94 13.8101 96.04C14.1801 96.14 14.5701 96.13 14.9701 96C15.3701 95.87 16.0401 95.61 16.9401 95.21L23.2601 92.3999L23.9501 93.9502L17.9501 96.6201C16.5801 97.2301 15.5901 97.6198 14.9901 97.7798C14.3901 97.9498 13.8401 98.01 13.3501 97.96C12.8601 97.91 12.4201 97.7502 12.0201 97.4702C11.6201 97.2002 11.2901 96.7599 11.0201 96.1499C10.7001 95.4199 10.5701 94.8098 10.6601 94.3198C10.7401 93.8298 10.9401 93.3902 11.2401 92.9902C11.5401 92.5902 11.9001 92.2602 12.3101 91.9902C12.9201 91.6002 13.8601 91.1198 15.1401 90.5498L21.2301 87.8398H21.2401Z" fill="white"/>
<path d="M14.5601 102.76L23.8501 94.1602L24.8101 95.6001L18.3601 101.42L26.3601 97.9302L27.4801 99.6001L21.0301 105.67L29.0101 101.9L29.9601 103.32L18.4301 108.57L17.4401 107.08L24.2901 100.51L15.5901 104.31L14.5701 102.78L14.5601 102.76Z" fill="white"/>
<path d="M25.74 116.85L24.49 115.5L26.08 113.03L23.8 110.57L21.25 111.99L20.03 110.67L31.42 104.57L32.64 105.88L25.75 116.84L25.74 116.85ZM27.25 111.2L29.87 107.2L25.7 109.52L27.25 111.2Z" fill="white"/>
<path d="M26.9901 117.83L35.2601 108.45L36.5301 109.57L28.2601 118.95L26.9901 117.83Z" fill="white"/>
<path d="M31.53 121.58L37.67 113.2L35.66 111.73L36.91 110.02L42.28 113.96L41.03 115.67L39.03 114.2L32.89 122.58L31.53 121.58Z" fill="white"/>
<path d="M46.7401 125.15L47.9001 126.55C47.0901 127.68 46.2801 128.42 45.4701 128.77C44.6601 129.12 43.8501 129.11 43.0301 128.72C42.0201 128.25 41.4401 127.35 41.2701 126.01C41.1001 124.68 41.4401 123.12 42.2701 121.34C43.1501 119.46 44.1701 118.15 45.3101 117.41C46.4501 116.67 47.5501 116.55 48.6201 117.05C49.5501 117.49 50.1101 118.25 50.3001 119.34C50.4201 119.99 50.3501 120.8 50.1001 121.79L48.3301 121.62C48.5201 120.99 48.5501 120.44 48.4201 119.97C48.3001 119.5 48.0301 119.16 47.6201 118.97C47.0601 118.71 46.4601 118.79 45.8301 119.23C45.2001 119.67 44.5701 120.56 43.9301 121.91C43.2601 123.34 42.9501 124.44 43.0101 125.21C43.0701 125.98 43.3801 126.49 43.9301 126.75C44.3401 126.94 44.7801 126.91 45.2501 126.66C45.7201 126.41 46.2201 125.9 46.7401 125.13V125.15Z" fill="white"/>
<path d="M48.7001 130.92L52.2801 118.94L53.9001 119.42L52.4901 124.14L55.6701 125.09L57.0801 120.37L58.7001 120.85L55.1201 132.83L53.5001 132.35L55.0601 127.11L51.8801 126.16L50.3201 131.4L48.7001 130.92Z" fill="white"/>
<path d="M57.8901 133.43L59.7201 121.06L65.8601 121.97L65.5501 124.06L61.0801 123.4L60.6701 126.14L64.8301 126.76L64.5201 128.84L60.3601 128.22L59.8601 131.59L64.4901 132.28L64.1801 134.36L57.8801 133.43H57.8901Z" fill="white"/>
<path d="M66.82 134.64L66.64 122.14L69.17 122.1L70.81 130.61L72.19 122.06L74.73 122.02L74.91 134.52L73.34 134.54L73.2 124.7L71.68 134.56L70.05 134.58L68.25 124.76L68.39 134.6L66.82 134.62V134.64Z" fill="white"/>
<path d="M77.3201 134.23L75.8701 121.81L77.5501 121.61L79.0001 134.03L77.3201 134.23Z" fill="white"/>
<path d="M85.6201 128.11L87.3901 128.51C87.4401 129.9 87.2601 130.98 86.8301 131.75C86.4001 132.52 85.7501 133.01 84.8701 133.2C83.7801 133.44 82.7701 133.09 81.8201 132.14C80.8701 131.19 80.1901 129.75 79.7601 127.83C79.3101 125.8 79.3101 124.14 79.7601 122.86C80.2101 121.58 81.0101 120.81 82.1601 120.56C83.1601 120.34 84.0701 120.6 84.8901 121.34C85.3801 121.78 85.8301 122.47 86.2301 123.4L84.7301 124.35C84.4901 123.74 84.1801 123.28 83.7901 122.99C83.4001 122.69 82.9901 122.59 82.5501 122.69C81.9501 122.83 81.5301 123.26 81.2901 123.99C81.0601 124.72 81.1001 125.82 81.4301 127.27C81.7701 128.81 82.2001 129.87 82.7201 130.44C83.2401 131.01 83.7901 131.23 84.3901 131.1C84.8301 131 85.1601 130.71 85.3801 130.22C85.6001 129.73 85.6801 129.03 85.6201 128.1V128.11Z" fill="white"/>
<path d="M97.7701 128.74L96.0501 129.4L94.3401 127.01L91.2201 128.22L91.6001 131.12L89.9301 131.77L88.4701 118.93L90.1401 118.29L97.7801 128.75L97.7701 128.74ZM93.0801 125.25L90.3301 121.34L90.9501 126.08L93.0801 125.26V125.25Z" fill="white"/>
<path d="M99.52 127.81L93.52 116.96L95 116.14L99.98 125.15L103.66 123.11L104.68 124.95L99.52 127.81Z" fill="white"/>
<path d="M109.38 121.75L101.38 112.14L102.68 111.06L105.83 114.84L108.38 112.72L105.23 108.94L106.53 107.86L114.53 117.47L113.23 118.55L109.73 114.35L107.18 116.47L110.68 120.67L109.38 121.75Z" fill="white"/>
<path d="M111.83 111.58C110.87 110.74 110.16 109.93 109.68 109.17C109.33 108.61 109.07 108.03 108.91 107.45C108.75 106.87 108.71 106.35 108.78 105.89C108.88 105.28 109.15 104.72 109.61 104.21C110.43 103.29 111.51 102.92 112.86 103.12C114.21 103.32 115.64 104.1 117.17 105.44C118.68 106.78 119.62 108.1 119.99 109.4C120.36 110.7 120.13 111.82 119.32 112.74C118.49 113.67 117.41 114.04 116.08 113.84C114.75 113.64 113.33 112.88 111.84 111.56L111.83 111.58ZM112.92 110.22C113.98 111.16 114.93 111.7 115.77 111.86C116.61 112.01 117.25 111.84 117.7 111.33C118.15 110.82 118.24 110.17 117.99 109.37C117.73 108.57 117.06 107.68 115.97 106.72C114.9 105.77 113.95 105.22 113.15 105.07C112.34 104.92 111.71 105.11 111.25 105.63C110.79 106.15 110.68 106.81 110.94 107.6C111.19 108.39 111.86 109.26 112.94 110.22H112.92Z" fill="white"/>
<path d="M112.77 100.81L113.68 99.3901L119.38 103.05C120.28 103.63 120.88 103.99 121.17 104.13C121.64 104.35 122.08 104.42 122.49 104.36C122.9 104.3 123.23 104.07 123.48 103.67C123.74 103.27 123.81 102.88 123.7 102.52C123.59 102.16 123.36 101.84 123.03 101.57C122.7 101.3 122.11 100.89 121.28 100.36L115.46 96.6201L116.37 95.2002L121.89 98.75C123.15 99.56 124.02 100.17 124.49 100.59C124.96 101 125.31 101.43 125.54 101.86C125.77 102.29 125.87 102.76 125.86 103.24C125.85 103.72 125.67 104.24 125.31 104.8C124.88 105.47 124.43 105.91 123.98 106.11C123.53 106.31 123.05 106.39 122.55 106.35C122.05 106.31 121.58 106.2 121.13 106C120.47 105.71 119.55 105.18 118.37 104.42L112.76 100.82L112.77 100.81Z" fill="white"/>
<path d="M124.39 98.1098L124.86 96.5097C125.65 96.7597 126.29 96.8301 126.76 96.7201C127.23 96.6101 127.58 96.31 127.8 95.85C128.03 95.35 128.04 94.9099 127.84 94.5199C127.64 94.1299 127.33 93.83 126.91 93.64C126.64 93.52 126.39 93.4699 126.15 93.4799C125.91 93.4999 125.67 93.61 125.4 93.81C125.22 93.95 124.87 94.2797 124.34 94.8197C123.66 95.4997 123.02 95.9099 122.42 96.0399C121.58 96.2199 120.71 96.1101 119.81 95.7001C119.23 95.4401 118.74 95.0798 118.34 94.6298C117.94 94.1798 117.7 93.6898 117.62 93.1498C117.55 92.6198 117.64 92.0501 117.91 91.4701C118.35 90.5101 118.99 89.9401 119.84 89.7401C120.69 89.5401 121.64 89.67 122.69 90.12L122.09 91.7099C121.48 91.5099 120.99 91.46 120.64 91.56C120.29 91.66 120.01 91.9298 119.81 92.3598C119.61 92.8098 119.58 93.22 119.74 93.6C119.84 93.84 120.04 94.0298 120.33 94.1698C120.6 94.2898 120.86 94.3197 121.12 94.2597C121.45 94.1797 121.92 93.8198 122.53 93.1898C123.14 92.5598 123.66 92.1298 124.11 91.8998C124.56 91.6698 125.07 91.5598 125.65 91.5898C126.23 91.6098 126.88 91.7898 127.6 92.1098C128.25 92.4098 128.81 92.81 129.26 93.31C129.72 93.81 129.98 94.3498 130.06 94.9198C130.14 95.4898 130.02 96.1099 129.72 96.7699C129.28 97.7299 128.61 98.3197 127.71 98.5297C126.81 98.7397 125.7 98.6098 124.38 98.1298L124.39 98.1098Z" fill="white"/>
<path d="M131.79 91.25L119.81 87.6699L121.59 81.7202L123.62 82.3301L122.32 86.6602L124.98 87.4502L126.19 83.4199L128.21 84.02L127 88.0498L130.26 89.0298L131.6 84.5498L133.62 85.1499L131.79 91.25Z" fill="white"/>
<path d="M3.6201 40.3301C3.9501 40.7101 4.4501 41.4099 5.1201 42.4299L3.1201 43.7798L3.5401 44.5098L3.9801 45.23C3.7901 45.54 3.1001 46.0302 1.9101 46.7002C1.6701 46.4002 1.4301 46.0499 1.1801 45.6699C0.950099 45.3299 0.720103 44.95 0.480103 44.54C0.580103 44.52 0.710096 44.4601 0.880096 44.3701L1.5201 44.0098C2.0101 43.6998 2.2901 43.4899 2.3601 43.3799L2.3101 43.2798L1.9901 42.6101L1.5201 41.73L3.6101 40.3401L3.6201 40.3301ZM12.3101 41.7L12.5601 41.79L12.9701 41.9399L13.4201 42.1599L14.0101 40.7L18.0401 42.22L15.3701 49.3799C15.8501 49.8899 16.2701 50.4699 16.6301 51.1099C16.9901 51.7499 17.2801 52.4602 17.5201 53.2402C17.7601 54.0202 17.8701 54.7702 17.8601 55.4902C17.8601 56.2102 17.7301 56.89 17.4901 57.52C17.0601 58.68 16.4001 59.4401 15.5301 59.8101C14.6601 60.1801 13.6401 60.1502 12.4901 59.7202C11.9501 59.5202 11.3901 59.2201 10.8201 58.8101C10.2401 58.4001 9.6701 57.9098 9.1001 57.3398C8.4501 56.6998 7.9501 56.1 7.6001 55.54C7.2501 54.98 7.0401 54.4402 6.9801 53.9302C7.1601 54.0002 7.4001 54.1501 7.6801 54.3901C7.8301 54.5101 7.9901 54.6501 8.1501 54.8101C8.3201 54.9701 8.5301 55.1799 8.7801 55.4399C9.5401 56.2199 10.2801 56.7498 10.9801 57.0098C11.8601 57.3398 12.6801 57.2698 13.4301 56.7998C13.7401 56.5698 14.0201 56.29 14.2701 55.96C14.5201 55.63 14.7301 55.23 14.9101 54.75C15.1101 54.22 15.3201 53.15 15.5401 51.54L15.4601 51.48C14.8201 51.24 14.1901 51.5399 13.5801 52.3799L13.0901 53.1499C12.8701 53.5399 12.6701 53.9602 12.5001 54.4102C12.0801 54.1702 11.6601 53.86 11.2301 53.46C11.0001 53.26 10.7701 53.0298 10.5201 52.7798C10.2701 52.5298 10.0201 52.2502 9.7601 51.9502L12.8701 43.6001C12.2401 43.5401 11.6001 43.5301 10.9601 43.5601C10.3601 43.5601 9.7301 43.62 9.0701 43.71L6.7001 41.4199C9.1001 41.1099 10.9601 41.2 12.3001 41.7H12.3101ZM19.6901 55.8198C20.2101 56.3498 20.5601 56.7899 20.7301 57.1499C20.6601 57.2699 20.2201 57.5898 19.4101 58.0898C19.5101 58.3698 19.6901 58.7001 19.9701 59.0601C19.6801 59.5001 19.2101 59.8102 18.5701 59.9902L17.6101 58.6602C17.6101 58.6602 17.6601 58.6201 17.6801 58.6001C17.7901 58.5201 17.9701 58.41 18.2001 58.27C18.5801 58.09 18.7901 57.9298 18.8401 57.7998C18.8401 57.7798 18.8401 57.7698 18.8401 57.7598C18.8201 57.6798 18.7801 57.59 18.7401 57.5L18.2901 56.7002L18.9301 56.27L19.7001 55.8198H19.6901Z" fill="white"/>
<path d="M16.7001 35.73L21.0702 39.1399L17.4501 44.7202L13.7602 42.3201L16.7402 37.73L16.7102 37.6899C15.6902 37.3899 14.4902 37.15 13.1002 36.99L11.2802 34.3C11.5002 34.3 11.7002 34.3001 11.8902 34.3201C12.0702 34.3301 12.3202 34.3599 12.6202 34.3799C12.8502 34.4099 13.0302 34.44 13.1502 34.46C13.5502 34.51 13.8702 34.5601 14.1102 34.6101C14.5902 34.7301 15.0502 34.8801 15.4902 35.0701C15.9202 35.2601 16.3301 35.48 16.7001 35.72V35.73ZM23.6702 41.75C24.1302 42.42 24.4702 43.0802 24.6802 43.7402C24.5402 43.8702 24.2402 44.0102 23.7802 44.1602L22.7902 44.4502L22.9902 44.98L23.3102 45.7598C22.7901 46.1498 22.1301 46.3702 21.3102 46.4302L20.4002 44.4399C20.9602 44.3899 21.5502 44.2299 22.1802 43.9399C22.1602 43.7599 22.0802 43.4999 21.9602 43.1699C21.7902 42.7999 21.6802 42.5499 21.6602 42.3999L23.6602 41.74L23.6702 41.75Z" fill="white"/>
<path d="M26.8702 32.05L26.1002 32.9599L26.8202 34.3L27.5702 35.6699C28.1002 36.9499 28.1102 37.8899 27.6102 38.4799C27.1702 38.9999 26.5402 39.5599 25.7202 40.1599C24.8002 40.7999 24.0502 41.16 23.4802 41.26C25.0602 39.4 25.5902 37.0399 25.0502 34.1899C24.1302 35.0499 23.4902 35.5599 23.1302 35.6999C22.3902 36.0399 21.6201 35.8899 20.8401 35.2199C20.4201 34.8599 19.9902 34.4001 19.5602 33.8501C19.1302 33.3001 18.6902 32.63 18.2402 31.83C17.2002 30 16.9602 28.75 17.5302 28.08C17.9202 27.62 18.8202 27.69 20.2502 28.26C20.3802 28.32 20.5902 28.42 20.8802 28.57C21.0902 28.68 21.3102 28.7899 21.5302 28.9099C21.6102 28.9599 21.8202 29.08 22.1502 29.29C22.4802 29.49 22.7602 29.66 22.9802 29.8L23.5002 29.1899L26.8502 32.04L26.8702 32.05ZM21.5702 31.1699C21.4702 31.0899 21.3602 31.0199 21.2102 30.9599C21.0702 30.8999 20.8802 30.86 20.6502 30.83C20.2302 30.75 19.9402 30.7999 19.7902 30.9899C19.7502 31.0299 19.7302 31.0999 19.7202 31.1999V31.4799C19.7102 31.7099 19.7202 31.8699 19.7902 31.9599C19.9902 32.1299 20.2702 32.1901 20.6102 32.1201C20.8902 32.0401 21.1402 31.9099 21.3502 31.7099C21.5702 31.4499 21.6402 31.2699 21.5602 31.1699H21.5702Z" fill="white"/>
<path d="M32.6901 26.8799L31.3301 28.1101L28.4001 27.3701L29.1801 30.05L25.9801 32.9299L23.0401 29.6599L26.1701 26.8401L20.2101 26.22L18.0201 22.0801L21.7801 15.6201L22.4001 16.75C22.6901 17.28 22.9801 17.8399 23.2801 18.4199L20.6501 23.5801L24.7301 24.1201C26.4201 24.3501 27.7901 24.4399 28.8501 24.4099L29.7301 23.6101L32.6701 26.8799H32.6901Z" fill="white"/>
<path d="M29.8502 15.2L30.1202 18.6101L32.8502 21.95C33.0002 22.16 33.3102 22.7299 33.8002 23.6899C34.2902 24.6399 34.5402 25.2299 34.5402 25.4299L34.2302 25.9399L31.8802 27.6201L29.3202 24.04L31.3202 22.6101V22.53L31.2502 22.4299C30.5602 21.4699 29.7902 20.5499 28.9302 19.6699C27.8502 18.5999 26.9002 17.97 26.0901 17.8L25.7602 16.6299C25.7302 16.4899 25.7002 16.35 25.6602 16.21C25.6202 16.07 25.6002 15.93 25.5802 15.8C25.3502 14.82 25.3102 14.1601 25.4602 13.8301L25.8102 14.29C26.0802 14.66 26.6802 14.91 27.6402 15.04C28.0102 15.09 28.3602 15.1101 28.7002 15.1201C28.9902 15.1201 29.3402 15.1 29.7302 15.05L29.8302 15.1899L29.8502 15.2Z" fill="white"/>
<path d="M37.2401 17.99C38.3701 19.93 38.8901 21.7101 38.8101 23.3101L32.8901 15.0801C32.7401 14.8701 32.5301 13.43 32.2401 10.78C34.7501 14.17 36.4201 16.58 37.2401 17.99Z" fill="white"/>
<path d="M55.14 11.8601L55.23 16.28L47.73 18.6499C46.22 19.1299 45.0501 18.08 44.2401 15.5C43.9801 14.66 43.8 13.7001 43.73 12.6201C43.62 11.2401 43.76 10.36 44.16 9.98999C44.24 10.25 44.33 10.6101 44.43 11.0901C44.53 11.5701 44.6201 11.95 44.7101 12.24C44.8801 12.77 45.21 13.2599 45.72 13.6899C46.28 14.1599 46.82 14.3099 47.37 14.1299L53.5 12.2L53.52 12.1201C53.39 11.7201 52.8301 10.9899 51.8201 9.91992L52.11 6.45996C53.4 7.74996 54.15 8.72011 54.36 9.36011L55.15 11.8601H55.14ZM50.01 5.30005C49.93 5.69005 49.83 6.07997 49.72 6.46997C49.61 6.85997 49.47 7.26995 49.31 7.69995C49.02 7.69995 48.64 7.61996 48.16 7.45996L47.01 7.07007C46.79 7.45007 46.58 7.96988 46.38 8.62988L45.92 8.55005L45.12 8.30005C44.44 8.09005 44.07 7.94008 44.02 7.83008C43.99 7.73008 44.24 6.94996 44.78 5.45996C46 5.98996 46.7 6.22992 46.87 6.16992L46.93 6.08008L47.26 5.41992L47.66 4.5L50.02 5.30005H50.01Z" fill="white"/>
<path d="M61.5701 15.24L58.5501 15.75L55.8001 4.13989C55.7701 3.96989 55.9201 3.45009 56.2601 2.59009L56.9601 0.949951L59.4701 11.1299L60.8401 10.8999L61.5701 15.24Z" fill="white"/>
<path d="M66.7801 9.30005L66.7001 14.8501L60.0701 15.3301L59.7501 10.95L65.2101 10.55L65.2301 10.5C64.8501 9.5 64.3101 8.39995 63.6101 7.19995L64.6501 4.12012C64.7801 4.29012 64.9001 4.46011 65.0001 4.61011C65.1001 4.77011 65.2301 4.97998 65.3901 5.22998C65.5001 5.42998 65.5901 5.58994 65.6501 5.68994C65.8501 6.03994 66.0001 6.32004 66.1101 6.54004C66.3001 7.00004 66.4601 7.45992 66.5701 7.91992C66.6801 8.37992 66.7501 8.84003 66.7901 9.28003L66.7801 9.30005ZM66.1901 18.49C65.9301 19.26 65.6101 19.93 65.2101 20.5C65.0201 20.47 64.7301 20.31 64.3301 20.03L63.5001 19.4199L63.2001 19.8999L62.7701 20.6299C62.1501 20.4499 61.5701 20.0599 61.0301 19.4399L62.0601 17.51C62.4401 17.92 62.9201 18.2999 63.5301 18.6299C63.6601 18.4999 63.8201 18.29 64.0101 17.99C64.1901 17.63 64.3401 17.39 64.4401 17.29L66.1701 18.49H66.1901Z" fill="white"/>
<path d="M75.7301 10.5199C75.6801 11.4399 75.5601 12.3399 75.3701 13.2399C75.2701 13.7399 75.1501 14.2 75.0301 14.62C74.9101 15.04 74.7401 15.5099 74.5401 16.0199C73.6201 18.4999 72.4801 19.7098 71.1201 19.6398C69.7801 19.5698 68.3401 19.21 66.7801 18.56L66.1701 18.2799L66.1101 18.2199L66.0101 18.0399L68.1001 17.85C70.1901 16.95 71.7601 16.0099 72.8001 15.0399C73.8401 14.0699 74.3901 13.08 74.4401 12.05L74.3801 11.9499C73.8901 12.9499 73.6401 13.4599 73.6101 13.4799C73.2701 13.9299 72.7601 14.13 72.1001 14.1C70.8001 14.04 70.1801 13.1599 70.2701 11.4699C70.3001 10.9399 70.3901 10.3599 70.5601 9.7499C70.7301 9.1399 71.0101 8.40995 71.3901 7.54995C71.7701 6.69995 72.1601 6.06982 72.5501 5.66982C72.9401 5.26982 73.3501 5.06999 73.7801 5.08999L74.0001 5.12978C75.2701 6.24978 75.8401 8.03991 75.7201 10.5099L75.7301 10.5199ZM73.8701 10.1999C73.8701 10.0099 73.8701 9.83983 73.8301 9.67983L73.6701 9.32998C73.5401 8.98998 73.3401 8.7899 73.0801 8.7499C72.9001 8.7499 72.6901 8.85999 72.4301 9.08999C72.1701 9.32999 72.0401 9.53989 72.0301 9.73989C72.0301 9.87989 72.1501 10.0599 72.4101 10.2699C72.6601 10.3999 72.8801 10.4899 73.0901 10.5399C73.2301 10.5399 73.4901 10.47 73.8701 10.3V10.2199V10.1999Z" fill="white"/>
<path d="M80.9202 15.98L77.9001 15.51L78.9602 3.62988C78.9902 3.45988 79.3002 3.02006 79.8902 2.31006L81.0602 0.97998L80.2301 11.4299L81.6002 11.6399L80.9202 15.98Z" fill="white"/>
<path d="M88.5302 17.95L86.6302 17.45C86.5702 17.48 86.4802 17.5801 86.3602 17.7301L86.1501 18.0601C85.9901 18.3901 85.8101 18.59 85.5901 18.67L82.3302 13.96C82.2302 14.06 82.1201 14.22 81.9801 14.45L81.5702 15.21C81.4202 15.62 81.1401 15.84 80.7301 15.89L79.7802 15.64L80.9001 11.39L82.5502 11.8302C82.6202 11.8102 82.9602 11.4501 83.5702 10.7601C83.8902 10.3901 84.1902 10.0802 84.4702 9.83016C84.7202 9.60016 85.0101 9.38 85.3401 9.16C86.1401 8.64 86.9502 8.49003 87.7502 8.70003C88.0702 8.78003 88.2501 8.91017 88.2901 9.09017C88.2901 9.16017 88.2902 9.23015 88.2702 9.32015C88.2602 9.41015 88.2202 9.54006 88.1702 9.73006C88.0402 10.2201 88.0301 10.8901 88.1501 11.7401C88.2601 12.5901 88.4702 13.1701 88.7702 13.4901L89.6402 13.7201L88.5202 17.9701L88.5302 17.95ZM86.1102 12.71L86.2001 12.3602L86.2301 12.1202C86.2401 12.0102 86.2401 11.9001 86.2301 11.7901C86.2401 11.5601 86.2102 11.4202 86.1302 11.3702L85.9001 11.2501C85.7701 11.2201 85.5902 11.2101 85.3602 11.2501C85.1102 11.2301 84.9602 11.2502 84.8902 11.3202C85.0602 11.6902 85.4602 12.15 86.1002 12.71H86.1102Z" fill="white"/>
<path d="M91.7402 22.3701C91.4302 22.6901 91.1402 22.9499 90.8502 23.1599C90.7102 23.2699 90.5802 23.37 90.4402 23.47C90.3002 23.57 90.1602 23.66 89.9902 23.75C89.8202 23.63 89.6202 23.3599 89.4102 22.9299C89.2502 22.6899 89.0802 22.39 88.9102 22.04L88.5702 22.26L87.7402 22.8201C87.2702 22.4101 86.9001 21.8 86.6501 21L88.4301 19.7C88.5801 20.25 88.8702 20.7901 89.2802 21.3301C89.4702 21.3001 89.7202 21.1699 90.0502 20.9299C90.3402 20.7199 90.5502 20.58 90.6702 20.53L91.7402 22.3799V22.3701ZM93.8102 20.1499L92.0702 19.47C91.6902 19.32 91.4801 18.93 91.4301 18.28L91.4702 17.21L90.0202 18.6699L87.3002 17.6101L88.9001 13.52L91.9102 14.7C92.3602 14.05 92.7002 13.4301 92.9402 12.8501L93.1801 12.3201C93.2301 12.2301 93.2702 12.1699 93.3002 12.1299C93.3302 12.0899 93.3902 12.04 93.4902 11.97C93.8202 11.71 94.5501 11.2599 95.6801 10.6299L95.1102 12.0901L94.8401 12.6899L94.6002 13.1499L94.1002 14.21C93.7902 14.99 93.9801 15.5 94.6501 15.77L95.4001 16.0601L93.8002 20.1499H93.8102Z" fill="white"/>
<path d="M100.81 23.8899L99.1901 23.03L98.8901 20.02L96.6301 21.6599L92.8301 19.6299L94.9001 15.75L98.6101 17.74L97.1701 11.9299L100.32 8.46997L107.67 9.81006L106.82 10.78C106.42 11.23 105.99 11.6999 105.55 12.1699L99.8101 11.45L100.69 15.48C101.05 17.14 101.42 18.46 101.82 19.45L102.87 20.01L100.8 23.8899H100.81Z" fill="white"/>
<path d="M110.88 17.2799L107.76 18.6898L105.54 22.3898C105.4 22.5998 104.96 23.0898 104.23 23.8798C103.5 24.6598 103.04 25.0898 102.84 25.1698L102.25 25.0499L99.8701 23.3998L102.37 19.7799L104.4 21.1798L104.48 21.1498L104.55 21.0499C105.22 20.0799 105.82 19.0398 106.36 17.9298C107 16.5498 107.27 15.4498 107.16 14.6298L108.15 13.9198C108.27 13.8398 108.39 13.7598 108.51 13.6898C108.63 13.6098 108.75 13.5399 108.87 13.4699C109.71 12.9199 110.32 12.6598 110.69 12.6898L110.38 13.1798C110.12 13.5498 110.09 14.2098 110.29 15.1498C110.37 15.5098 110.47 15.8498 110.57 16.1798C110.66 16.4498 110.8 16.77 110.98 17.12L110.88 17.2699V17.2799Z" fill="white"/>
<path d="M110.71 25.1299C109.26 26.8499 107.77 27.9399 106.23 28.4099L111.97 20.05C112.12 19.84 113.39 19.15 115.79 17.98C113.45 21.49 111.75 23.8699 110.7 25.1299H110.71Z" fill="white"/>
<path d="M120.01 43.7899L119.03 42.4699C118.86 42.2299 118.87 41.8299 119.07 41.2799C119.17 41.0199 119.27 40.8 119.37 40.62C119.48 40.45 119.61 40.3098 119.77 40.1898L117.66 40.6999L113.7 35.34C112.75 34.06 113.37 32.6099 115.54 31.0099C115.81 30.8099 116 30.68 116.11 30.61C116.23 30.54 116.46 30.3999 116.82 30.1999C117.17 29.9999 117.65 29.7699 118.26 29.5099C119.69 28.8599 120.61 28.6598 121.03 28.9098L120.84 29.0499C120.61 29.2199 120.24 29.4399 119.71 29.7099C119.18 29.9799 118.8 30.2 118.58 30.37C118.13 30.71 117.79 31.1799 117.56 31.7799C117.33 32.3799 117.39 32.91 117.73 33.37L121.38 38.32C121.5 38.31 121.76 38.1899 122.16 37.9499C122.56 37.7099 123.04 37.3899 123.6 36.9799L126.76 36.9098L125.22 38.0399L123.09 39.31C122.77 39.54 122.67 39.8298 122.77 40.1698L123.52 41.1898L119.98 43.7997L120.01 43.7899ZM127.45 34.4899C127.25 34.5599 126.79 34.6198 126.07 34.6598C125.35 34.6998 124.93 34.68 124.83 34.58C124.77 34.5 124.75 33.6898 124.77 32.1598L124.08 32.12L123.04 32.08C122.98 31.84 122.93 31.3999 122.91 30.7699C122.85 30.0399 122.89 29.6299 123 29.5399C123.15 29.4299 124.02 29.4299 125.6 29.5399C125.54 29.6799 125.49 30.0699 125.46 30.6999C125.43 31.2899 125.46 31.6499 125.56 31.7699C125.58 31.7799 125.6 31.7899 125.62 31.7999C125.64 31.7999 125.68 31.81 125.76 31.82L126.42 31.8798L127.45 31.9599V34.4799V34.4899Z" fill="white"/>
<path d="M119.02 49.1001C118.58 49.1301 118.18 49.1301 117.83 49.1001C117.66 49.1001 117.49 49.0801 117.32 49.0601C117.15 49.0401 116.98 49.0102 116.8 48.9702C116.75 48.7702 116.8 48.4302 116.92 47.9702C116.96 47.6802 117.03 47.3502 117.14 46.9702L116.74 46.9102L115.75 46.77C115.67 46.15 115.81 45.4499 116.15 44.6899L118.34 44.9102C118.09 45.4202 117.94 46.0099 117.89 46.6899C118.05 46.7899 118.33 46.8702 118.73 46.9102C119.09 46.9502 119.33 46.9898 119.46 47.0298L119.02 49.1201V49.1001ZM122.05 48.8301L121.21 47.1602C121.03 46.8002 121.13 46.3601 121.53 45.8501L122.28 45.0801L120.23 45.2002L118.92 42.5901L122.85 40.6201L124.3 43.5098C125.07 43.3298 125.74 43.1001 126.3 42.8201L126.83 42.5901C126.93 42.5601 127 42.54 127.05 42.53C127.1 42.53 127.18 42.53 127.29 42.53C127.71 42.55 128.55 42.71 129.82 43L128.42 43.7002L127.81 43.9702L127.32 44.1499L126.24 44.6001C125.5 44.9701 125.29 45.4799 125.61 46.1299L125.97 46.8501L122.04 48.8198L122.05 48.8301Z" fill="white"/>
<path d="M119.81 53.0801C119.72 53.1101 119.36 52.9701 118.72 52.6401C118.56 52.5601 118.43 52.4799 118.32 52.4199C118.21 52.3599 118.12 52.29 118.04 52.23C117.89 52.13 117.78 52.0299 117.72 51.9399C117.7 51.8799 117.72 51.7598 117.76 51.5698C117.81 51.3798 117.89 51.1298 118.02 50.8198C118.14 50.5098 118.25 50.2698 118.35 50.0898C118.45 49.9198 118.53 49.8098 118.59 49.7598C118.72 49.7098 119.13 49.8299 119.83 50.1099C120.54 50.3899 120.91 50.5902 120.95 50.7002C120.96 50.7402 120.8 51.1301 120.45 51.8901C120.1 52.6501 119.89 53.0398 119.82 53.0698L119.81 53.0801ZM129.1 51.2998C128.33 51.5898 127.39 51.83 126.28 52.04L124.9 52.3301C124.66 52.3901 124.42 52.44 124.2 52.48C123.98 52.52 123.71 52.5599 123.39 52.6099L121.59 47.7798L125.71 46.2402L127.15 50.1099L127.31 50.0698C127.67 49.9398 128.16 49.57 128.79 48.98C129.38 48.45 129.78 47.9901 130 47.6001L133.45 47.7598C132.18 49.5098 130.73 50.6898 129.09 51.2998H129.1Z" fill="white"/>
</svg>
