<svg width="46" height="46" viewBox="0 0 46 46" fill="none" xmlns="http://www.w3.org/2000/svg">
<path d="M11.401 22.3899H3.17102V23.48H11.401V22.3899Z" fill="white"/>
<path d="M45.181 22.3899H36.9509V23.48H45.181V22.3899Z" fill="white"/>
<path d="M14.9709 33.8501H10.881V14.1299H14.9709V33.8501ZM11.931 32.8H13.921V15.1799H11.931V32.8Z" fill="white"/>
<path d="M23.731 35.04C23.651 35.04 15.9409 34.7 13.9409 26.8L13.921 26.6699V20.3301L13.9709 20.23C14.1109 19.91 17.5509 12.45 24.4709 12.77L24.421 13.8101C18.601 13.5201 15.3809 19.7101 14.9609 20.5601V26.6001C16.7809 33.6601 23.471 33.98 23.761 33.99L23.731 35.03V35.04Z" fill="white"/>
<path d="M23.751 28.4299V31.4399L23.051 31.23L21.921 31.6799L21.0809 30.79L19.611 30.8401V29.6599L18.301 29.6299V28.5801L17.0909 27.6101L17.431 26.46L16.301 25.4399L16.881 24.4399L15.991 23.23L16.881 22.23L16.491 21.1001L17.4609 20.26L17.041 19.26L18.381 18.74L18.281 17.6399L19.7209 17.3L19.871 16.28H21.3409L22.131 15.49L22.501 15.8C22.501 15.8 23.451 15.62 23.751 15.7V18.1699C23.751 18.1699 19.931 19.04 20.011 23.76C20.011 23.76 19.601 27.3399 23.751 28.4399V28.4299Z" fill="white"/>
<path d="M28.4709 15.6V33.0099C28.4709 33.0099 30.1109 34.6899 28.8209 35.1799C28.8209 35.1799 26.621 35.4601 26.511 34.6201V13.9199C26.511 13.9199 28.271 12.1599 29.601 13.2099C29.601 13.2099 30.1609 14.02 28.4609 15.6H28.4709Z" fill="white"/>
<path d="M34.101 13.5701V34.4499C34.101 34.4499 33.261 35.7801 31.371 34.8301C31.371 34.8301 31.161 33.92 32.491 32.73V15.81C32.491 15.81 31.061 13.2699 32.391 12.8799C32.391 12.8799 33.261 12.5901 34.101 13.5701Z" fill="white"/>
<path d="M34.741 35.2201V13.65C34.741 13.65 36.231 12.58 37.241 13.39C37.241 13.39 37.871 14.19 36.541 15.38V32.7701C36.541 32.7701 37.3609 33.7901 36.9409 34.7901C36.9409 34.7901 36.391 35.7301 34.741 35.2201Z" fill="white"/>
<path d="M25.881 13.71V34.5901C25.881 34.5901 24.6209 35.5301 23.5709 34.5901C23.5709 34.5901 22.8309 33.79 24.2009 32V12.5901L26.261 13.46C26.261 13.46 25.951 13.55 25.881 13.7V13.71Z" fill="white"/>
<path d="M24.2009 13.21H23.371V15.8101H24.2009V13.21Z" fill="white"/>
<path d="M32.9709 22.1699H27.851V24.73H32.9709V22.1699Z" fill="white"/>
<path d="M2.71094 28.1299L6.76099 27.01L6.91101 27.5601L5.11096 28.0601L7.22095 28.6699L7.42102 29.4099L5.56104 28.8201L3.38098 30.5801L3.18103 29.8701L4.88098 28.6001L4.08093 28.3401L2.85095 28.6799L2.70093 28.1299H2.71094Z" fill="white"/>
<path d="M7.48096 29.5L7.71094 30.02L5.63098 30.9399C5.30098 31.0899 5.09098 31.19 5.00098 31.24C4.85098 31.33 4.75092 31.4401 4.69092 31.5701C4.63092 31.7001 4.64092 31.83 4.69092 31.98C4.76092 32.13 4.85095 32.22 4.97095 32.25C5.09095 32.29 5.22096 32.28 5.36096 32.24C5.50096 32.2 5.721 32.11 6.021 31.97L8.151 31.03L8.38098 31.55L6.36096 32.45C5.90096 32.65 5.57096 32.7901 5.36096 32.8401C5.16096 32.9001 4.97104 32.9199 4.81104 32.8999C4.65104 32.8799 4.50096 32.83 4.36096 32.74C4.23096 32.65 4.111 32.5 4.021 32.3C3.911 32.05 3.871 31.8499 3.901 31.6799C3.931 31.5199 3.99095 31.37 4.10095 31.23C4.20095 31.1 4.32094 30.9799 4.46094 30.8999C4.66094 30.7699 4.98101 30.6099 5.41101 30.4199L7.46094 29.51L7.48096 29.5Z" fill="white"/>
<path d="M5.23096 34.52L8.36096 31.6299L8.68103 32.1101L6.51099 34.0701L9.20093 32.8999L9.58093 33.46L7.41101 35.5L10.0909 34.23L10.411 34.71L6.53101 36.47L6.20093 35.97L8.50098 33.76L5.57092 35.04L5.23096 34.53V34.52Z" fill="white"/>
<path d="M8.99097 39.26L8.57092 38.8101L9.10095 37.98L8.33093 37.1499L7.47095 37.6299L7.06104 37.1899L10.891 35.1399L11.301 35.5801L8.98096 39.27L8.99097 39.26ZM9.50098 37.3601L10.381 36.02L8.98096 36.8L9.50098 37.3601Z" fill="white"/>
<path d="M9.41101 39.5901L12.1909 36.4399L12.621 36.8201L9.84094 39.97L9.41101 39.5901Z" fill="white"/>
<path d="M10.9409 40.8501L13.011 38.03L12.3409 37.54L12.761 36.97L14.5709 38.29L14.151 38.8601L13.481 38.3701L11.411 41.1899L10.9509 40.8501H10.9409Z" fill="white"/>
<path d="M16.051 42.05L16.4409 42.52C16.1709 42.9 15.9009 43.15 15.6209 43.27C15.3509 43.39 15.071 43.38 14.801 43.25C14.461 43.09 14.2609 42.7901 14.2109 42.3401C14.1509 41.8901 14.271 41.37 14.551 40.77C14.851 40.14 15.1909 39.6999 15.5709 39.4499C15.9509 39.1999 16.321 39.1601 16.681 39.3301C16.991 39.4801 17.1809 39.7301 17.2509 40.1001C17.2909 40.3201 17.271 40.5899 17.181 40.9199L16.5909 40.8601C16.6509 40.6501 16.6609 40.46 16.6209 40.3C16.5809 40.14 16.4909 40.0299 16.3509 39.9599C16.1609 39.8699 15.9609 39.9 15.7509 40.05C15.5409 40.2 15.3209 40.4999 15.1109 40.9499C14.8809 41.4299 14.781 41.8 14.801 42.06C14.821 42.32 14.9209 42.4901 15.1109 42.5801C15.2509 42.6401 15.391 42.63 15.551 42.55C15.711 42.47 15.881 42.3 16.051 42.04V42.05Z" fill="white"/>
<path d="M16.7109 43.99L17.911 39.96L18.4509 40.1201L17.981 41.71L19.051 42.03L19.521 40.4399L20.0709 40.6001L18.871 44.6299L18.3309 44.47L18.861 42.71L17.791 42.3899L17.261 44.1499L16.7209 43.99H16.7109Z" fill="white"/>
<path d="M19.801 44.8401L20.421 40.6799L22.491 40.99L22.391 41.6899L20.891 41.47L20.751 42.3899L22.151 42.6001L22.051 43.3L20.651 43.0901L20.481 44.22L22.041 44.45L21.9409 45.1499L19.8209 44.8401H19.801Z" fill="white"/>
<path d="M22.811 45.24L22.751 41.04H23.601L24.151 43.8899L24.611 41.01H25.4609L25.521 45.2H24.991L24.9409 41.8999L24.431 45.22H23.881L23.281 41.9299L23.3309 45.24H22.801H22.811Z" fill="white"/>
<path d="M26.3409 45.1101L25.851 40.9299L26.411 40.8601L26.901 45.04L26.3409 45.1101Z" fill="white"/>
<path d="M29.1309 43.0501L29.7209 43.18C29.7409 43.65 29.671 44.0101 29.531 44.2701C29.391 44.5301 29.1709 44.6901 28.8709 44.7601C28.5009 44.8401 28.1609 44.72 27.8409 44.4C27.5209 44.08 27.291 43.6 27.151 42.95C27.001 42.27 27.001 41.7101 27.151 41.2801C27.301 40.8501 27.5709 40.5901 27.9609 40.5101C28.3009 40.4401 28.6009 40.5201 28.8809 40.7701C29.0409 40.9201 29.1909 41.15 29.3309 41.46L28.8209 41.7801C28.7409 41.5701 28.6309 41.4201 28.5009 41.3201C28.3709 41.2201 28.2309 41.1901 28.0809 41.2201C27.8809 41.2701 27.741 41.41 27.661 41.66C27.581 41.91 27.6009 42.2701 27.7109 42.7601C27.8309 43.2801 27.9709 43.6302 28.1409 43.8302C28.3109 44.0202 28.5009 44.1001 28.7009 44.0501C28.8509 44.0201 28.961 43.9201 29.031 43.7601C29.101 43.6001 29.1309 43.3601 29.1109 43.0501H29.1309Z" fill="white"/>
<path d="M33.2109 43.26L32.631 43.48L32.061 42.6799L31.011 43.0901L31.141 44.0601L30.5809 44.28L30.0909 39.96L30.651 39.74L33.2209 43.26H33.2109ZM31.641 42.0901L30.7209 40.77L30.931 42.3601L31.651 42.0801L31.641 42.0901Z" fill="white"/>
<path d="M33.801 42.95L31.781 39.3L32.281 39.02L33.9609 42.05L35.2009 41.3601L35.541 41.98L33.801 42.9399V42.95Z" fill="white"/>
<path d="M37.121 40.9099L34.431 37.6799L34.871 37.3201L35.931 38.5901L36.791 37.8799L35.731 36.6101L36.171 36.25L38.861 39.48L38.421 39.8401L37.241 38.4299L36.381 39.1399L37.561 40.55L37.121 40.9099Z" fill="white"/>
<path d="M37.941 37.49C37.621 37.21 37.381 36.94 37.221 36.68C37.101 36.49 37.021 36.3002 36.961 36.1002C36.901 35.9002 36.8911 35.7301 36.9211 35.5801C36.9511 35.3801 37.051 35.1901 37.201 35.0101C37.471 34.7001 37.8411 34.5799 38.2911 34.6399C38.7411 34.7099 39.231 34.97 39.741 35.42C40.251 35.87 40.571 36.3101 40.691 36.7501C40.811 37.1901 40.741 37.5602 40.461 37.8702C40.181 38.1802 39.821 38.31 39.371 38.24C38.921 38.17 38.441 37.92 37.941 37.47V37.49ZM38.3111 37.0301C38.6711 37.3501 38.991 37.5301 39.271 37.5801C39.551 37.6301 39.7711 37.58 39.9211 37.4C40.0711 37.23 40.101 37.01 40.021 36.74C39.931 36.47 39.711 36.1702 39.341 35.8502C38.981 35.5302 38.661 35.3501 38.391 35.3001C38.121 35.2501 37.901 35.31 37.751 35.49C37.601 35.67 37.561 35.89 37.641 36.15C37.731 36.42 37.9511 36.7101 38.3111 37.0301Z" fill="white"/>
<path d="M38.261 33.8701L38.5709 33.3899L40.491 34.6201C40.791 34.8201 40.9909 34.94 41.0909 34.98C41.2509 35.05 41.401 35.0801 41.531 35.0601C41.671 35.0401 41.781 34.9601 41.861 34.8301C41.951 34.6901 41.971 34.5699 41.931 34.4399C41.891 34.3099 41.8209 34.2101 41.7009 34.1201C41.5909 34.0301 41.391 33.89 41.111 33.71L39.151 32.45L39.4609 31.97L41.3209 33.1599C41.7509 33.4299 42.0409 33.64 42.2009 33.78C42.3609 33.92 42.481 34.06 42.551 34.21C42.621 34.36 42.661 34.5099 42.661 34.6699C42.661 34.8299 42.6009 35.0099 42.4709 35.1899C42.3209 35.4199 42.171 35.5599 42.021 35.6299C41.871 35.6999 41.711 35.72 41.541 35.71C41.371 35.7 41.211 35.6601 41.061 35.5901C40.841 35.4901 40.531 35.3101 40.131 35.0601L38.241 33.8501L38.261 33.8701Z" fill="white"/>
<path d="M42.171 32.9601L42.3309 32.42C42.6009 32.51 42.811 32.5301 42.971 32.4901C43.131 32.4501 43.2509 32.3501 43.3209 32.2001C43.4009 32.0301 43.4009 31.8801 43.3309 31.7501C43.2609 31.6201 43.161 31.5201 43.021 31.4501C42.931 31.4101 42.841 31.39 42.771 31.4C42.691 31.4 42.611 31.4401 42.521 31.5101C42.461 31.5601 42.341 31.6702 42.161 31.8502C41.931 32.0802 41.721 32.2201 41.521 32.2601C41.241 32.3201 40.951 32.28 40.641 32.14C40.451 32.05 40.281 31.9301 40.141 31.7801C40.001 31.6301 39.921 31.4601 39.901 31.2801C39.881 31.1001 39.901 30.9101 40.001 30.7101C40.151 30.3901 40.361 30.19 40.651 30.13C40.941 30.06 41.251 30.1101 41.611 30.2601L41.411 30.7901C41.201 30.7201 41.041 30.7101 40.921 30.7401C40.801 30.7701 40.711 30.8601 40.641 31.0101C40.571 31.1601 40.561 31.3 40.621 31.43C40.651 31.51 40.7209 31.5802 40.8209 31.6202C40.9109 31.6602 41.001 31.67 41.091 31.65C41.201 31.62 41.361 31.5001 41.561 31.2901C41.761 31.0801 41.941 30.9302 42.091 30.8602C42.241 30.7902 42.411 30.7501 42.611 30.7501C42.811 30.7501 43.021 30.82 43.271 30.93C43.491 31.03 43.6809 31.1602 43.8309 31.3302C43.9809 31.5002 44.071 31.6802 44.101 31.8702C44.131 32.0602 44.091 32.2701 43.991 32.4901C43.841 32.8101 43.621 33.0102 43.311 33.0802C43.011 33.1502 42.6309 33.11 42.1909 32.94L42.171 32.9601Z" fill="white"/>
<path d="M44.651 30.6499L40.621 29.4399L41.2209 27.4399L41.901 27.6399L41.4609 29.1001L42.351 29.3701L42.761 28.01L43.4409 28.21L43.031 29.5701L44.131 29.8999L44.5809 28.3899L45.261 28.5901L44.651 30.6399V30.6499Z" fill="white"/>
<path d="M1.55103 13.53C1.66103 13.66 1.83104 13.89 2.06104 14.24L1.39099 14.6899L1.53101 14.9399L1.68103 15.1799C1.62103 15.2799 1.38096 15.4499 0.980957 15.6699C0.900957 15.5699 0.820957 15.4501 0.730957 15.3201C0.650957 15.2101 0.580977 15.0799 0.500977 14.9399C0.530977 14.9399 0.580991 14.9099 0.640991 14.8799L0.850952 14.76C1.02095 14.66 1.11098 14.59 1.13098 14.55L1.11096 14.51L1.00098 14.29L0.840942 13.99L1.54102 13.52L1.55103 13.53ZM4.47095 13.99L4.56104 14.02L4.70093 14.0701L4.85095 14.1399L5.05103 13.6499L6.401 14.1599L5.50098 16.5701C5.66098 16.7401 5.80102 16.9399 5.92102 17.1499C6.04102 17.3599 6.14095 17.6001 6.22095 17.8701C6.30095 18.1301 6.34094 18.3799 6.34094 18.6299C6.34094 18.8699 6.30095 19.1001 6.22095 19.3101C6.07095 19.7001 5.85104 19.9601 5.56104 20.0801C5.27104 20.2001 4.93102 20.19 4.54102 20.05C4.36102 19.98 4.17096 19.88 3.98096 19.74C3.79096 19.6 3.591 19.44 3.401 19.24C3.181 19.02 3.011 18.8199 2.901 18.6299C2.781 18.4399 2.71092 18.2601 2.69092 18.0901C2.75092 18.1101 2.83102 18.16 2.92102 18.24C2.97102 18.28 3.02093 18.3299 3.08093 18.3799C3.14093 18.4299 3.21102 18.5001 3.29102 18.5901C3.55102 18.8501 3.79101 19.0301 4.03101 19.1201C4.33101 19.2301 4.60096 19.21 4.86096 19.05C4.97096 18.97 5.06099 18.88 5.14099 18.77C5.22099 18.66 5.30096 18.5201 5.36096 18.3601C5.43096 18.1801 5.50092 17.82 5.57092 17.28L5.54102 17.26C5.33102 17.18 5.11101 17.2801 4.91101 17.5601L4.75098 17.8201C4.68098 17.9501 4.61103 18.09 4.55103 18.25C4.41103 18.17 4.27097 18.0599 4.12097 17.9299C4.04097 17.8599 3.96098 17.79 3.88098 17.7C3.80098 17.62 3.71097 17.5199 3.62097 17.4199L4.67102 14.6101C4.46102 14.5901 4.24101 14.5901 4.03101 14.6001C3.83101 14.6001 3.62099 14.6199 3.39099 14.6499L2.59094 13.8799C3.40094 13.7799 4.02095 13.81 4.47095 13.97V13.99ZM6.96094 18.74C7.14094 18.92 7.25104 19.0699 7.31104 19.1899C7.29104 19.2299 7.14097 19.34 6.87097 19.51C6.90097 19.61 6.97104 19.7101 7.06104 19.8401C6.96104 19.9901 6.81094 20.0899 6.59094 20.1499L6.271 19.7C6.271 19.7 6.29103 19.6899 6.30103 19.6799C6.34103 19.6499 6.40096 19.6201 6.48096 19.5701C6.61096 19.5101 6.68093 19.4599 6.70093 19.4099C6.70093 19.4099 6.70093 19.4099 6.70093 19.3999C6.70093 19.3699 6.68101 19.3401 6.66101 19.3101L6.51099 19.04L6.73096 18.8899L6.99097 18.74H6.96094Z" fill="white"/>
<path d="M5.95093 11.98L7.42102 13.1299L6.20093 15.01L4.96094 14.2L5.96094 12.6599C5.62094 12.5399 5.21098 12.4599 4.75098 12.4099L4.14099 11.51C4.21099 11.51 4.28094 11.51 4.34094 11.51C4.40094 11.51 4.48094 11.52 4.59094 11.53C4.67094 11.53 4.731 11.5501 4.771 11.5601C4.901 11.5801 5.01094 11.5901 5.09094 11.6101C5.25094 11.6501 5.41103 11.7 5.55103 11.77C5.70103 11.83 5.83094 11.91 5.96094 11.99L5.95093 11.98ZM8.29102 14C8.44102 14.22 8.56098 14.4499 8.63098 14.6699C8.58098 14.7099 8.48093 14.7601 8.33093 14.8101L8.00098 14.9099L8.07092 15.0901L8.18103 15.3501C8.01103 15.4801 7.78099 15.5601 7.51099 15.5701L7.20093 14.8999C7.39093 14.8799 7.59103 14.83 7.80103 14.73C7.80103 14.67 7.77096 14.58 7.73096 14.47C7.67096 14.35 7.64098 14.26 7.63098 14.21L8.30103 13.99L8.29102 14Z" fill="white"/>
<path d="M9.37103 10.7401L9.11102 11.0502L9.35101 11.5001L9.60101 11.9601C9.78101 12.3901 9.78102 12.71 9.61102 12.9C9.46102 13.07 9.25101 13.2601 8.97101 13.4701C8.66101 13.6801 8.41101 13.8102 8.22101 13.8402C8.75101 13.2102 8.93104 12.4201 8.75104 11.4601C8.44104 11.7501 8.23101 11.9201 8.10101 11.9701C7.85101 12.0901 7.59099 12.0302 7.33099 11.8102C7.19099 11.6902 7.04106 11.5302 6.90106 11.3502C6.76106 11.1602 6.611 10.94 6.461 10.67C6.111 10.05 6.03101 9.63003 6.22101 9.41003C6.35101 9.26003 6.65104 9.28009 7.13104 9.47009C7.17104 9.49009 7.241 9.52019 7.341 9.57019C7.411 9.61019 7.4811 9.64005 7.5611 9.68005C7.5911 9.70005 7.66106 9.74018 7.77106 9.81018C7.88106 9.88018 7.98109 9.9401 8.05109 9.9801L8.23102 9.77014L9.36102 10.7301L9.37103 10.7401ZM7.591 10.4501C7.591 10.4501 7.52101 10.4 7.47101 10.38C7.42101 10.36 7.36107 10.3502 7.28107 10.3402C7.14107 10.3102 7.04103 10.34 6.99103 10.39C6.98103 10.4 6.97101 10.4301 6.97101 10.4601V10.5502C6.97101 10.6302 6.97103 10.6801 6.99103 10.7101C7.06103 10.7701 7.15106 10.7901 7.27106 10.7601C7.36106 10.7301 7.45106 10.6902 7.52106 10.6202C7.59106 10.5302 7.621 10.4701 7.591 10.4401V10.4501Z" fill="white"/>
<path d="M11.3309 9L10.871 9.40991L9.89099 9.15991L10.151 10.0601L9.07092 11.03L8.08093 9.92993L9.13098 8.97998L7.13098 8.77002L6.39099 7.37988L7.651 5.20996L7.86096 5.59009C7.96096 5.77009 8.061 5.9599 8.151 6.1499L7.271 7.87988L8.64099 8.06006C9.21099 8.14006 9.67101 8.16991 10.031 8.15991L10.3309 7.88989L11.3209 8.98999L11.3309 9Z" fill="white"/>
<path d="M10.3709 5.08008L10.4609 6.22998L11.3809 7.3501C11.4309 7.4201 11.5409 7.60993 11.7009 7.92993C11.8609 8.24993 11.9509 8.45002 11.9509 8.52002L11.8409 8.68994L11.051 9.26001L10.1909 8.06006L10.8609 7.58008V7.55005L10.8409 7.52002C10.6109 7.20002 10.351 6.89009 10.061 6.59009C9.70099 6.23009 9.38091 6.01996 9.11091 5.95996L9.00093 5.57007C9.00093 5.57007 8.9809 5.47993 8.9709 5.42993C8.9609 5.37993 8.95087 5.34004 8.94087 5.29004C8.86087 4.96004 8.85095 4.73988 8.90095 4.62988L9.02095 4.78003C9.11095 4.90003 9.31094 4.99003 9.64094 5.03003C9.76094 5.05003 9.88093 5.06006 10.0009 5.06006C10.1009 5.06006 10.2109 5.06004 10.3509 5.04004L10.3809 5.09009L10.3709 5.08008Z" fill="white"/>
<path d="M12.861 6.02002C13.241 6.67002 13.421 7.27006 13.391 7.81006L11.401 5.04004C11.351 4.97004 11.281 4.49009 11.181 3.59009C12.021 4.73009 12.591 5.54001 12.861 6.01001V6.02002Z" fill="white"/>
<path d="M18.881 3.95996L18.911 5.44995L16.391 6.25C15.881 6.41 15.491 6.05994 15.221 5.18994C15.131 4.90994 15.0711 4.58997 15.0511 4.21997C15.0111 3.74997 15.0609 3.46008 15.1909 3.33008C15.2209 3.42008 15.251 3.53995 15.281 3.69995C15.311 3.85995 15.341 3.99009 15.381 4.09009C15.441 4.27009 15.551 4.43008 15.721 4.58008C15.911 4.74008 16.091 4.78998 16.271 4.72998L18.331 4.08008V4.05005C18.291 3.92005 18.111 3.67006 17.771 3.31006L17.871 2.1499C18.311 2.5799 18.561 2.90988 18.631 3.12988L18.901 3.96997L18.881 3.95996ZM17.151 1.75C17.121 1.88 17.0911 2.00989 17.0511 2.13989C17.0111 2.26989 16.971 2.41005 16.911 2.55005C16.811 2.55005 16.681 2.51997 16.521 2.46997L16.131 2.34009C16.061 2.47009 15.9911 2.64011 15.9211 2.86011L15.771 2.83008L15.501 2.73999C15.271 2.66999 15.151 2.62008 15.131 2.58008C15.131 2.55008 15.201 2.28003 15.391 1.78003C15.801 1.96003 16.031 2.04002 16.091 2.02002L16.111 1.98999L16.221 1.77002L16.351 1.45996L17.141 1.72998L17.151 1.75Z" fill="white"/>
<path d="M21.041 5.09009L20.031 5.26001L19.111 1.36011C19.111 1.30011 19.151 1.13009 19.271 0.840088L19.501 0.290039L20.3409 3.70996L20.801 3.62988L21.051 5.09009H21.041Z" fill="white"/>
<path d="M22.791 3.09009L22.761 4.95996L20.531 5.12012L20.421 3.6499L22.261 3.52002V3.5C22.141 3.17 21.9609 2.79989 21.7209 2.38989L22.0709 1.36011C22.1109 1.42011 22.1509 1.47003 22.1909 1.53003C22.2209 1.58003 22.2709 1.64999 22.3209 1.73999C22.3609 1.80999 22.391 1.8599 22.411 1.8999C22.481 2.0199 22.531 2.10994 22.561 2.18994C22.631 2.33994 22.6809 2.4999 22.7209 2.6499C22.7609 2.8099 22.781 2.96011 22.791 3.11011V3.09009ZM22.5909 6.17993C22.5009 6.43993 22.391 6.66011 22.261 6.86011C22.201 6.85011 22.1009 6.79995 21.9709 6.69995L21.6909 6.48999L21.5909 6.6499L21.4509 6.88989C21.2409 6.82989 21.051 6.69999 20.871 6.48999L21.2209 5.84009C21.3509 5.98009 21.5109 6.10997 21.7209 6.21997C21.7609 6.17997 21.821 6.11001 21.881 6.01001C21.941 5.89001 21.991 5.81002 22.021 5.77002L22.601 6.16992L22.5909 6.17993Z" fill="white"/>
<path d="M25.801 3.50009C25.781 3.81009 25.741 4.11 25.681 4.41C25.651 4.58 25.6109 4.73021 25.5709 4.87021C25.5309 5.01021 25.471 5.17018 25.401 5.34018C25.091 6.17018 24.711 6.58015 24.251 6.56015C23.801 6.54015 23.311 6.42004 22.791 6.20004L22.5809 6.1102L22.561 6.09018L22.531 6.03012L23.231 5.97006C23.931 5.67006 24.461 5.35012 24.811 5.03012C25.161 4.70012 25.341 4.37011 25.361 4.02011L25.3409 3.99008C25.1809 4.33008 25.0909 4.5001 25.0809 4.5101C24.9609 4.6601 24.8009 4.73006 24.5709 4.72006C24.1309 4.70006 23.9309 4.40018 23.9509 3.84018C23.9509 3.66018 23.991 3.4701 24.051 3.2601C24.111 3.0501 24.2009 2.81011 24.3309 2.52011C24.4609 2.23011 24.5909 2.01998 24.7209 1.88998C24.8509 1.74998 24.991 1.69004 25.131 1.70004H25.2009C25.6309 2.09004 25.821 2.69011 25.781 3.52011L25.801 3.50009ZM25.181 3.39999C25.181 3.33999 25.181 3.28006 25.171 3.22006L25.121 3.10019C25.081 2.98019 25.011 2.91999 24.921 2.89999C24.861 2.89999 24.7909 2.9401 24.7009 3.0101C24.6109 3.0901 24.5709 3.16007 24.5709 3.23007C24.5709 3.28007 24.6109 3.34 24.7009 3.41C24.7809 3.45 24.861 3.48009 24.931 3.50009C24.981 3.50009 25.0609 3.48001 25.1909 3.42001V3.38998L25.181 3.39999Z" fill="white"/>
<path d="M27.551 5.34009L26.531 5.17993L26.891 1.17993C26.891 1.11993 27.0009 0.96999 27.2009 0.73999L27.601 0.290039L27.3209 3.80005L27.781 3.87012L27.551 5.33008V5.34009Z" fill="white"/>
<path d="M30.111 6.00008L29.4709 5.83016C29.4709 5.83016 29.421 5.87001 29.381 5.93001L29.311 6.04012C29.261 6.15012 29.201 6.22007 29.121 6.24007L28.021 4.65999C28.021 4.65999 27.951 4.75016 27.901 4.83016L27.761 5.09017C27.711 5.23017 27.611 5.30015 27.481 5.32015L27.161 5.24007L27.541 3.81014L28.0909 3.96004C28.0909 3.96004 28.231 3.83018 28.431 3.60018C28.541 3.48018 28.641 3.37012 28.731 3.29012C28.821 3.21012 28.911 3.14014 29.021 3.06014C29.291 2.89014 29.5609 2.82998 29.8309 2.89998C29.9409 2.92998 30.001 2.97011 30.011 3.03011C30.011 3.05011 30.011 3.08019 30.011 3.11019C30.011 3.14019 29.991 3.18008 29.981 3.25008C29.941 3.41008 29.931 3.64 29.981 3.92C30.021 4.21 30.0909 4.40009 30.1909 4.51009L30.481 4.59017L30.101 6.0201L30.111 6.00008ZM29.291 4.24007L29.3209 4.1202V4.04012C29.3209 4.04012 29.3309 3.97001 29.3209 3.93001C29.3209 3.85001 29.321 3.81012 29.291 3.79012L29.2109 3.75008C29.2109 3.75008 29.111 3.74008 29.031 3.75008C28.951 3.75008 28.901 3.7501 28.871 3.7701C28.931 3.8901 29.061 4.05007 29.281 4.24007H29.291Z" fill="white"/>
<path d="M31.181 7.48999C31.081 7.59999 30.981 7.69001 30.881 7.76001C30.831 7.80001 30.791 7.83011 30.741 7.86011C30.691 7.89011 30.6409 7.91995 30.5909 7.94995C30.5309 7.90995 30.471 7.81992 30.391 7.66992C30.341 7.58992 30.2809 7.49012 30.2209 7.37012L30.111 7.43994L29.8309 7.62988C29.6709 7.48988 29.5509 7.29002 29.4609 7.02002L30.061 6.58008C30.111 6.76008 30.211 6.94988 30.351 7.12988C30.411 7.12988 30.501 7.08 30.611 7C30.711 6.93 30.7809 6.88011 30.8209 6.86011L31.181 7.47998V7.48999ZM31.881 6.73999L31.301 6.51001C31.171 6.46001 31.1009 6.33011 31.0909 6.11011V5.75L30.621 6.23999L29.7109 5.87988L30.251 4.5L31.261 4.8999C31.411 4.6799 31.531 4.47003 31.601 4.28003L31.681 4.1001C31.681 4.1001 31.7109 4.05004 31.7209 4.04004C31.7309 4.03004 31.751 4.00999 31.781 3.98999C31.891 3.89999 32.141 3.75004 32.521 3.54004L32.3309 4.03003L32.241 4.22998L32.161 4.38989L31.991 4.75C31.891 5.01 31.951 5.19002 32.181 5.27002L32.431 5.37012L31.891 6.75L31.881 6.73999Z" fill="white"/>
<path d="M34.241 8L33.7009 7.70996L33.601 6.69995L32.8409 7.25L31.561 6.57007L32.261 5.27002L33.511 5.93994L33.031 3.98999L34.0909 2.83008L36.561 3.28003L36.271 3.61011C36.141 3.76011 35.9909 3.92008 35.8409 4.08008L33.911 3.84009L34.2009 5.18994C34.3209 5.74994 34.4509 6.19003 34.5809 6.53003L34.931 6.71997L34.231 8.02002L34.241 8Z" fill="white"/>
<path d="M37.621 5.78005L36.5709 6.25002L35.8209 7.49001C35.7709 7.56001 35.631 7.73001 35.381 7.99001C35.131 8.25001 34.981 8.39994 34.911 8.41994L34.7109 8.3799L33.911 7.8301L34.751 6.61013L35.431 7.0801H35.4609L35.481 7.04006C35.701 6.71006 35.9109 6.36001 36.0909 5.99001C36.3109 5.53001 36.401 5.1599 36.361 4.8799L36.6909 4.63991C36.6909 4.63991 36.771 4.59008 36.811 4.56008C36.851 4.53008 36.891 4.51001 36.931 4.49001C37.211 4.31001 37.421 4.22 37.541 4.23L37.4409 4.38991C37.3509 4.51991 37.341 4.74007 37.411 5.05007C37.441 5.17007 37.471 5.28992 37.511 5.39992C37.541 5.48992 37.591 5.59999 37.651 5.71999L37.621 5.77004V5.78005Z" fill="white"/>
<path d="M37.5709 8.41992C37.0809 8.99992 36.581 9.37002 36.061 9.52002L37.991 6.70996C38.041 6.63996 38.471 6.41002 39.281 6.02002C38.491 7.20002 37.9209 7.99992 37.5709 8.41992Z" fill="white"/>
<path d="M40.691 14.6898L40.361 14.2499C40.301 14.1699 40.311 14.04 40.371 13.85C40.401 13.76 40.441 13.6898 40.471 13.6298C40.511 13.5698 40.551 13.5299 40.611 13.4899L39.901 13.6598L38.571 11.86C38.251 11.43 38.461 10.9398 39.191 10.3998C39.281 10.3298 39.341 10.2899 39.381 10.2599C39.421 10.2399 39.501 10.19 39.621 10.12C39.741 10.05 39.901 9.9798 40.101 9.8898C40.581 9.6698 40.891 9.60985 41.031 9.68985L40.971 9.7399C40.891 9.7999 40.771 9.86987 40.591 9.95987C40.411 10.0499 40.291 10.1298 40.211 10.1798C40.061 10.2898 39.941 10.4498 39.871 10.6498C39.791 10.8498 39.8111 11.0298 39.9311 11.1798L41.1611 12.84C41.1611 12.84 41.2911 12.7899 41.4211 12.7099C41.5511 12.6299 41.721 12.5198 41.901 12.3798L42.961 12.36L42.441 12.7399L41.731 13.1698C41.621 13.2498 41.591 13.3399 41.621 13.4599L41.871 13.8L40.6811 14.6798L40.691 14.6898ZM43.201 11.57C43.131 11.59 42.981 11.6098 42.741 11.6298C42.501 11.6498 42.361 11.63 42.321 11.6C42.301 11.57 42.2911 11.2999 42.3011 10.7899H42.071L41.721 10.7599C41.701 10.6799 41.6811 10.53 41.6811 10.32C41.6611 10.07 41.681 9.93982 41.711 9.90982C41.761 9.86982 42.051 9.86982 42.591 9.90982C42.571 9.95982 42.5511 10.09 42.5411 10.3C42.5411 10.5 42.541 10.6198 42.571 10.6598C42.571 10.6598 42.581 10.6598 42.591 10.6598C42.591 10.6598 42.611 10.6598 42.641 10.6598L42.861 10.6798L43.211 10.7099V11.56L43.201 11.57Z" fill="white"/>
<path d="M40.3609 16.48C40.2109 16.49 40.0809 16.49 39.9609 16.48C39.9009 16.48 39.851 16.48 39.791 16.47C39.731 16.47 39.6709 16.4499 39.6109 16.4399C39.5909 16.3699 39.611 16.2601 39.651 16.1001C39.661 16.0001 39.6909 15.89 39.7309 15.76L39.6009 15.74L39.271 15.6899C39.241 15.4799 39.291 15.25 39.411 14.99L40.151 15.0601C40.061 15.2301 40.0109 15.4299 40.0009 15.6599C40.0509 15.6899 40.151 15.72 40.281 15.73C40.401 15.74 40.481 15.76 40.531 15.77L40.3809 16.47L40.3609 16.48ZM41.3809 16.3899L41.1009 15.8301C41.0409 15.7101 41.0709 15.5599 41.2109 15.3899L41.4609 15.1299L40.771 15.1699L40.3309 14.29L41.651 13.6299L42.1409 14.6001C42.4009 14.5401 42.621 14.4601 42.811 14.3701L42.9909 14.29C42.9909 14.29 43.051 14.27 43.061 14.27C43.081 14.27 43.1009 14.27 43.1409 14.27C43.2809 14.27 43.5609 14.3299 43.9909 14.4299L43.521 14.6699L43.3209 14.76L43.161 14.8201L42.801 14.97C42.551 15.1 42.4809 15.27 42.5909 15.48L42.7109 15.72L41.3909 16.3799L41.3809 16.3899Z" fill="white"/>
<path d="M40.631 17.8201C40.631 17.8201 40.481 17.7799 40.261 17.6699C40.211 17.6399 40.161 17.6201 40.131 17.6001C40.091 17.5801 40.061 17.56 40.031 17.54C39.981 17.51 39.941 17.4699 39.921 17.4399C39.921 17.4199 39.921 17.3801 39.931 17.3201C39.951 17.2601 39.971 17.1701 40.021 17.0701C40.061 16.9601 40.101 16.8801 40.131 16.8201C40.161 16.7601 40.1909 16.72 40.2109 16.71C40.2509 16.69 40.391 16.7301 40.631 16.8301C40.871 16.9201 40.991 16.99 41.011 17.03C41.011 17.04 40.9609 17.1799 40.8409 17.4299C40.7209 17.6899 40.651 17.8201 40.631 17.8301V17.8201ZM43.751 17.22C43.491 17.32 43.171 17.4 42.801 17.47L42.3409 17.5701C42.2609 17.5901 42.181 17.6101 42.101 17.6201C42.031 17.6301 41.9409 17.6499 41.8309 17.6599L41.2209 16.03L42.611 15.51L43.0909 16.8101H43.141C43.261 16.7501 43.431 16.6299 43.641 16.4299C43.841 16.2499 43.971 16.1 44.051 15.96L45.2109 16.01C44.7809 16.6 44.291 17 43.741 17.2L43.751 17.22Z" fill="white"/>
</svg>
