<svg width="46" height="46" viewBox="0 0 46 46" fill="none" xmlns="http://www.w3.org/2000/svg">
<path d="M11.401 22.76H3.17102V23.8501H11.401V22.76Z" fill="white"/>
<path d="M45.181 22.76H36.9509V23.8501H45.181V22.76Z" fill="white"/>
<path d="M14.9709 34.22H10.881V14.5H14.9709V34.22ZM11.931 33.1699H13.921V15.55H11.931V33.1699Z" fill="white"/>
<path d="M23.731 35.4099C23.651 35.4099 15.9409 35.0699 13.9409 27.1699L13.921 27.04V20.6999L13.9709 20.6001C14.1109 20.2801 17.5509 12.8199 24.4709 13.1399L24.421 14.1799C18.601 13.8899 15.3809 20.0799 14.9609 20.9299V26.97C16.7809 34.03 23.471 34.3501 23.761 34.3601L23.731 35.3999V35.4099Z" fill="white"/>
<path d="M23.751 28.8V31.8101L23.051 31.6001L21.921 32.05L21.0809 31.1599L19.611 31.21V30.03L18.301 30V28.95L17.0909 27.98L17.431 26.8301L16.301 25.8101L16.881 24.8101L15.991 23.6001L16.881 22.6001L16.491 21.47L17.4609 20.6299L17.041 19.6299L18.381 19.1101L18.281 18.01L19.7209 17.6699L19.871 16.6499H21.3409L22.131 15.8601L22.501 16.1699C22.501 16.1699 23.451 15.9901 23.751 16.0701V18.54C23.751 18.54 19.931 19.4099 20.011 24.1299C20.011 24.1299 19.601 27.7101 23.751 28.8101V28.8Z" fill="white"/>
<path d="M28.4709 15.9699V33.3798C28.4709 33.3798 30.1109 35.06 28.8209 35.55C28.8209 35.55 26.621 35.8299 26.511 34.9899V14.29C26.511 14.29 28.271 12.53 29.601 13.58C29.601 13.58 30.1609 14.3899 28.4609 15.9699H28.4709Z" fill="white"/>
<path d="M34.101 13.94V34.8201C34.101 34.8201 33.261 36.15 31.371 35.2C31.371 35.2 31.161 34.2902 32.491 33.1002V16.18C32.491 16.18 31.061 13.6401 32.391 13.2501C32.391 13.2501 33.261 12.96 34.101 13.94Z" fill="white"/>
<path d="M34.741 35.6002V14.0301C34.741 14.0301 36.231 12.9601 37.241 13.7701C37.241 13.7701 37.871 14.5701 36.541 15.7601V33.15C36.541 33.15 37.3609 34.17 36.9409 35.17C36.9409 35.17 36.391 36.1102 34.741 35.6002Z" fill="white"/>
<path d="M25.881 14.0801V34.96C25.881 34.96 24.6209 35.9 23.5709 34.96C23.5709 34.96 22.8309 34.1601 24.2009 32.3701V12.96L26.261 13.8301C26.261 13.8301 25.951 13.9201 25.881 14.0701V14.0801Z" fill="white"/>
<path d="M24.2009 13.5801H23.371V16.1799H24.2009V13.5801Z" fill="white"/>
<path d="M32.9709 22.54H27.851V25.1001H32.9709V22.54Z" fill="white"/>
<path d="M2.71094 28.5L6.76099 27.3799L6.91101 27.9299L5.11096 28.4299L7.22095 29.04L7.42102 29.78L5.56104 29.1899L3.38098 30.95L3.18103 30.24L4.88098 28.97L4.08093 28.71L2.85095 29.05L2.70093 28.5H2.71094Z" fill="white"/>
<path d="M7.48096 29.8799L7.71094 30.3999L5.63098 31.3201C5.30098 31.4701 5.09098 31.5701 5.00098 31.6201C4.85098 31.7101 4.75092 31.82 4.69092 31.95C4.63092 32.08 4.64092 32.2101 4.69092 32.3601C4.76092 32.5101 4.85095 32.5999 4.97095 32.6299C5.09095 32.6699 5.22096 32.6601 5.36096 32.6201C5.50096 32.5801 5.721 32.4901 6.021 32.3501L8.151 31.4099L8.38098 31.9299L6.36096 32.8301C5.90096 33.0301 5.57096 33.17 5.36096 33.22C5.16096 33.28 4.97104 33.3 4.81104 33.28C4.65104 33.26 4.50096 33.2101 4.36096 33.1201C4.23096 33.0301 4.111 32.8799 4.021 32.6799C3.911 32.4299 3.871 32.2301 3.901 32.0601C3.931 31.9001 3.99095 31.7501 4.10095 31.6101C4.20095 31.4801 4.32094 31.36 4.46094 31.28C4.66094 31.15 4.98101 30.99 5.41101 30.8L7.46094 29.8899L7.48096 29.8799Z" fill="white"/>
<path d="M5.23096 34.8899L8.36096 32L8.68103 32.48L6.51099 34.4399L9.20093 33.27L9.58093 33.8301L7.41101 35.8701L10.0909 34.6001L10.411 35.0801L6.53101 36.8401L6.20093 36.3401L8.50098 34.1299L5.57092 35.4099L5.23096 34.8999V34.8899Z" fill="white"/>
<path d="M8.99097 39.6299L8.57092 39.1799L9.10095 38.3501L8.33093 37.52L7.47095 38L7.06104 37.5601L10.891 35.51L11.301 35.95L8.98096 39.6399L8.99097 39.6299ZM9.50098 37.73L10.381 36.3899L8.98096 37.1699L9.50098 37.73Z" fill="white"/>
<path d="M9.41101 39.96L12.1909 36.8101L12.621 37.1899L9.84094 40.3401L9.41101 39.96Z" fill="white"/>
<path d="M10.9409 41.23L13.011 38.4099L12.3409 37.9199L12.761 37.3501L14.5709 38.6699L14.151 39.24L13.481 38.75L11.411 41.5701L10.9509 41.23H10.9409Z" fill="white"/>
<path d="M16.051 42.4298L16.4409 42.8998C16.1709 43.2798 15.9009 43.5298 15.6209 43.6498C15.3509 43.7698 15.071 43.7598 14.801 43.6298C14.461 43.4698 14.2609 43.1699 14.2109 42.7199C14.1509 42.2699 14.271 41.7498 14.551 41.1498C14.851 40.5198 15.1909 40.08 15.5709 39.83C15.9509 39.58 16.321 39.5399 16.681 39.7099C16.991 39.8599 17.1809 40.1099 17.2509 40.4799C17.2909 40.6999 17.271 40.9699 17.181 41.2999L16.5909 41.2399C16.6509 41.0299 16.6609 40.8398 16.6209 40.6798C16.5809 40.5198 16.4909 40.41 16.3509 40.34C16.1609 40.25 15.9609 40.2798 15.7509 40.4298C15.5409 40.5798 15.3209 40.88 15.1109 41.33C14.8809 41.81 14.781 42.1798 14.801 42.4398C14.821 42.6998 14.9209 42.8699 15.1109 42.9599C15.2509 43.0199 15.391 43.0098 15.551 42.9298C15.711 42.8498 15.881 42.6798 16.051 42.4198V42.4298Z" fill="white"/>
<path d="M16.7109 44.3701L17.911 40.3401L18.4509 40.5L17.981 42.0901L19.051 42.4099L19.521 40.8201L20.0709 40.98L18.871 45.01L18.3309 44.8501L18.861 43.0901L17.791 42.77L17.261 44.53L16.7209 44.3701H16.7109Z" fill="white"/>
<path d="M19.801 45.21L20.421 41.05L22.491 41.3601L22.391 42.0601L20.891 41.8401L20.751 42.76L22.151 42.97L22.051 43.6699L20.651 43.46L20.481 44.5901L22.041 44.8201L21.9409 45.52L19.8209 45.21H19.801Z" fill="white"/>
<path d="M22.811 45.6201L22.751 41.4199H23.601L24.151 44.27L24.611 41.3899H25.4609L25.521 45.5801H24.991L24.9409 42.28L24.431 45.6001H23.881L23.281 42.3101L23.3309 45.6201H22.801H22.811Z" fill="white"/>
<path d="M26.3409 45.48L25.851 41.3L26.411 41.23L26.901 45.4099L26.3409 45.48Z" fill="white"/>
<path d="M29.1309 43.42L29.7209 43.5501C29.7409 44.0201 29.671 44.38 29.531 44.64C29.391 44.9 29.1709 45.06 28.8709 45.13C28.5009 45.21 28.1609 45.0901 27.8409 44.7701C27.5209 44.4501 27.291 43.9701 27.151 43.3201C27.001 42.6401 27.001 42.08 27.151 41.65C27.301 41.22 27.5709 40.96 27.9609 40.88C28.3009 40.81 28.6009 40.89 28.8809 41.14C29.0409 41.29 29.1909 41.5202 29.3309 41.8302L28.8209 42.15C28.7409 41.94 28.6309 41.79 28.5009 41.69C28.3709 41.59 28.2309 41.5602 28.0809 41.5902C27.8809 41.6402 27.741 41.7801 27.661 42.0301C27.581 42.2801 27.6009 42.64 27.7109 43.13C27.8309 43.65 27.9709 44 28.1409 44.2C28.3109 44.39 28.5009 44.47 28.7009 44.42C28.8509 44.39 28.961 44.29 29.031 44.13C29.101 43.97 29.1309 43.73 29.1109 43.42H29.1309Z" fill="white"/>
<path d="M33.2109 43.6299L32.631 43.8501L32.061 43.05L31.011 43.46L31.141 44.4299L30.5809 44.6499L30.0909 40.3301L30.651 40.1101L33.2209 43.6299H33.2109ZM31.641 42.46L30.7209 41.1399L30.931 42.73L31.651 42.45L31.641 42.46Z" fill="white"/>
<path d="M33.801 43.3201L31.781 39.6699L32.281 39.3899L33.9609 42.4199L35.2009 41.73L35.541 42.3501L33.801 43.3101V43.3201Z" fill="white"/>
<path d="M37.121 41.28L34.431 38.05L34.871 37.6899L35.931 38.96L36.791 38.25L35.731 36.98L36.171 36.6201L38.861 39.8501L38.421 40.21L37.241 38.8L36.381 39.51L37.561 40.9199L37.121 41.28Z" fill="white"/>
<path d="M37.941 37.8602C37.621 37.5802 37.381 37.3101 37.221 37.0501C37.101 36.8601 37.021 36.67 36.961 36.47C36.901 36.27 36.8911 36.1 36.9211 35.95C36.9511 35.75 37.051 35.56 37.201 35.38C37.471 35.07 37.8411 34.9501 38.2911 35.0101C38.7411 35.0801 39.231 35.3401 39.741 35.7901C40.251 36.2401 40.571 36.6802 40.691 37.1202C40.811 37.5602 40.741 37.9301 40.461 38.2401C40.181 38.5501 39.821 38.6802 39.371 38.6102C38.921 38.5402 38.441 38.2902 37.941 37.8402V37.8602ZM38.3111 37.4C38.6711 37.72 38.991 37.9 39.271 37.95C39.551 38 39.7711 37.9501 39.9211 37.7701C40.0711 37.6001 40.101 37.3802 40.021 37.1102C39.931 36.8402 39.711 36.54 39.341 36.22C38.981 35.9 38.661 35.72 38.391 35.67C38.121 35.62 37.901 35.6802 37.751 35.8602C37.601 36.0402 37.561 36.2601 37.641 36.5201C37.731 36.7901 37.9511 37.08 38.3111 37.4Z" fill="white"/>
<path d="M38.261 34.24L38.5709 33.76L40.491 34.99C40.791 35.19 40.9909 35.3101 41.0909 35.3501C41.2509 35.4201 41.401 35.4499 41.531 35.4299C41.671 35.4099 41.781 35.33 41.861 35.2C41.951 35.06 41.971 34.9401 41.931 34.8101C41.891 34.6801 41.8209 34.58 41.7009 34.49C41.5909 34.4 41.391 34.2601 41.111 34.0801L39.151 32.8201L39.4609 32.3401L41.3209 33.53C41.7509 33.8 42.0409 34.0099 42.2009 34.1499C42.3609 34.2899 42.481 34.4301 42.551 34.5801C42.621 34.7301 42.661 34.88 42.661 35.04C42.661 35.2 42.6009 35.3801 42.4709 35.5601C42.3209 35.7901 42.171 35.93 42.021 36C41.871 36.07 41.711 36.0901 41.541 36.0801C41.371 36.0701 41.211 36.03 41.061 35.96C40.841 35.86 40.531 35.6799 40.131 35.4299L38.241 34.22L38.261 34.24Z" fill="white"/>
<path d="M42.171 33.33L42.3309 32.79C42.6009 32.88 42.811 32.9 42.971 32.86C43.131 32.82 43.2509 32.72 43.3209 32.57C43.4009 32.4 43.4009 32.25 43.3309 32.12C43.2609 31.99 43.161 31.89 43.021 31.82C42.931 31.78 42.841 31.7599 42.771 31.7699C42.691 31.7699 42.611 31.8098 42.521 31.8798C42.461 31.9298 42.341 32.0399 42.161 32.2199C41.931 32.4499 41.721 32.5898 41.521 32.6298C41.241 32.6898 40.951 32.6499 40.641 32.5099C40.451 32.4199 40.281 32.2998 40.141 32.1498C40.001 31.9998 39.921 31.8298 39.901 31.6498C39.881 31.4698 39.901 31.28 40.001 31.08C40.151 30.76 40.361 30.5599 40.651 30.4999C40.941 30.4299 41.251 30.4798 41.611 30.6298L41.411 31.1598C41.201 31.0898 41.041 31.08 40.921 31.11C40.801 31.14 40.711 31.2298 40.641 31.3798C40.571 31.5298 40.561 31.67 40.621 31.8C40.651 31.88 40.7209 31.9499 40.8209 31.9899C40.9109 32.0299 41.001 32.0399 41.091 32.0199C41.201 31.9899 41.361 31.8698 41.561 31.6598C41.761 31.4498 41.941 31.2999 42.091 31.2299C42.241 31.1599 42.411 31.12 42.611 31.12C42.811 31.12 43.021 31.19 43.271 31.3C43.491 31.4 43.6809 31.5299 43.8309 31.6999C43.9809 31.8699 44.071 32.0499 44.101 32.2399C44.131 32.4299 44.091 32.64 43.991 32.86C43.841 33.18 43.621 33.3799 43.311 33.4499C43.011 33.5199 42.6309 33.48 42.1909 33.31L42.171 33.33Z" fill="white"/>
<path d="M44.651 31.03L40.621 29.8201L41.2209 27.8201L41.901 28.02L41.4609 29.48L42.351 29.75L42.761 28.3899L43.4409 28.5901L43.031 29.95L44.131 30.28L44.5809 28.77L45.261 28.97L44.651 31.02V31.03Z" fill="white"/>
<path d="M1.55103 13.8999C1.66103 14.0299 1.83104 14.2601 2.06104 14.6101L1.39099 15.0601L1.53101 15.3101L1.68103 15.55C1.62103 15.65 1.38096 15.82 0.980957 16.04C0.900957 15.94 0.820957 15.8199 0.730957 15.6899C0.650957 15.5799 0.580977 15.4501 0.500977 15.3101C0.530977 15.3101 0.580991 15.28 0.640991 15.25L0.850952 15.1299C1.02095 15.0299 1.11098 14.9599 1.13098 14.9199L1.11096 14.8799L1.00098 14.6599L0.840942 14.3601L1.54102 13.8899L1.55103 13.8999ZM4.47095 14.3601L4.56104 14.3899L4.70093 14.4399L4.85095 14.51L5.05103 14.02L6.401 14.53L5.50098 16.9399C5.66098 17.1099 5.80102 17.31 5.92102 17.52C6.04102 17.73 6.14095 17.97 6.22095 18.24C6.30095 18.5 6.34094 18.75 6.34094 19C6.34094 19.24 6.30095 19.4699 6.22095 19.6799C6.07095 20.0699 5.85104 20.33 5.56104 20.45C5.27104 20.57 4.93102 20.5599 4.54102 20.4199C4.36102 20.3499 4.17096 20.2501 3.98096 20.1101C3.79096 19.9701 3.591 19.8101 3.401 19.6101C3.181 19.3901 3.011 19.19 2.901 19C2.781 18.81 2.71092 18.63 2.69092 18.46C2.75092 18.48 2.83102 18.5301 2.92102 18.6101C2.97102 18.6501 3.02093 18.7 3.08093 18.75C3.14093 18.8 3.21102 18.87 3.29102 18.96C3.55102 19.22 3.79101 19.4 4.03101 19.49C4.33101 19.6 4.60096 19.5799 4.86096 19.4199C4.97096 19.3399 5.06099 19.2499 5.14099 19.1399C5.22099 19.0299 5.30096 18.89 5.36096 18.73C5.43096 18.55 5.50092 18.1899 5.57092 17.6499L5.54102 17.6299C5.33102 17.5499 5.11101 17.6499 4.91101 17.9299L4.75098 18.1899C4.68098 18.3199 4.61103 18.4601 4.55103 18.6201C4.41103 18.5401 4.27097 18.43 4.12097 18.3C4.04097 18.23 3.96098 18.1601 3.88098 18.0701C3.80098 17.9901 3.71097 17.89 3.62097 17.79L4.67102 14.98C4.46102 14.96 4.24101 14.96 4.03101 14.97C3.83101 14.97 3.62099 14.99 3.39099 15.02L2.59094 14.25C3.40094 14.15 4.02095 14.1801 4.47095 14.3401V14.3601ZM6.96094 19.1101C7.14094 19.2901 7.25104 19.4401 7.31104 19.5601C7.29104 19.6001 7.14097 19.7099 6.87097 19.8799C6.90097 19.9799 6.97104 20.08 7.06104 20.21C6.96104 20.36 6.81094 20.46 6.59094 20.52L6.271 20.0701C6.271 20.0701 6.29103 20.06 6.30103 20.05C6.34103 20.02 6.40096 19.9899 6.48096 19.9399C6.61096 19.8799 6.68093 19.83 6.70093 19.78C6.70093 19.78 6.70093 19.78 6.70093 19.77C6.70093 19.74 6.68101 19.7099 6.66101 19.6799L6.51099 19.4099L6.73096 19.26L6.99097 19.1101H6.96094Z" fill="white"/>
<path d="M5.95093 12.3501L7.42102 13.5L6.20093 15.3799L4.96094 14.5701L5.96094 13.03C5.62094 12.91 5.21098 12.83 4.75098 12.78L4.14099 11.8799C4.21099 11.8799 4.28094 11.8799 4.34094 11.8799C4.40094 11.8799 4.48094 11.8899 4.59094 11.8999C4.67094 11.8999 4.731 11.9199 4.771 11.9299C4.901 11.9499 5.01094 11.96 5.09094 11.98C5.25094 12.02 5.41103 12.0699 5.55103 12.1399C5.70103 12.1999 5.83094 12.2801 5.96094 12.3601L5.95093 12.3501ZM8.29102 14.3799C8.44102 14.5999 8.56098 14.83 8.63098 15.05C8.58098 15.09 8.48093 15.1399 8.33093 15.1899L8.00098 15.29L8.07092 15.47L8.18103 15.73C8.01103 15.86 7.78099 15.94 7.51099 15.95L7.20093 15.28C7.39093 15.26 7.59103 15.2101 7.80103 15.1101C7.80103 15.0501 7.77096 14.9601 7.73096 14.8501C7.67096 14.7301 7.64098 14.6401 7.63098 14.5901L8.30103 14.3701L8.29102 14.3799Z" fill="white"/>
<path d="M9.37103 11.1202L9.11102 11.4301L9.35101 11.88L9.60101 12.3402C9.78101 12.7702 9.78102 13.0901 9.61102 13.2801C9.46102 13.4501 9.25101 13.6402 8.97101 13.8502C8.66101 14.0602 8.41101 14.1901 8.22101 14.2201C8.75101 13.5901 8.93104 12.8002 8.75104 11.8402C8.44104 12.1302 8.23101 12.3002 8.10101 12.3502C7.85101 12.4702 7.59099 12.4101 7.33099 12.1901C7.19099 12.0701 7.04106 11.9101 6.90106 11.7301C6.76106 11.5401 6.611 11.3202 6.461 11.0502C6.111 10.4302 6.03101 10.0102 6.22101 9.79016C6.35101 9.64016 6.65104 9.66022 7.13104 9.85022C7.17104 9.87022 7.241 9.90007 7.341 9.95007C7.411 9.99007 7.4811 10.0202 7.5611 10.0602C7.5911 10.0802 7.66106 10.1201 7.77106 10.1901C7.88106 10.2601 7.98109 10.3202 8.05109 10.3602L8.23102 10.15L9.36102 11.1102L9.37103 11.1202ZM7.591 10.8202C7.591 10.8202 7.52101 10.7701 7.47101 10.7501C7.42101 10.7301 7.36107 10.7201 7.28107 10.7101C7.14107 10.6801 7.04103 10.7101 6.99103 10.7601C6.98103 10.7701 6.97101 10.8002 6.97101 10.8302V10.92C6.97101 11 6.97103 11.0502 6.99103 11.0802C7.06103 11.1402 7.15106 11.16 7.27106 11.13C7.36106 11.1 7.45106 11.0601 7.52106 10.9901C7.59106 10.9001 7.621 10.8402 7.591 10.8102V10.8202Z" fill="white"/>
<path d="M11.3309 9.37988L10.871 9.79004L9.89099 9.54004L10.151 10.4399L9.07092 11.4099L8.08093 10.3101L9.13098 9.36011L7.13098 9.1499L6.39099 7.76001L7.651 5.59009L7.86096 5.96997C7.96096 6.14997 8.061 6.34003 8.151 6.53003L7.271 8.26001L8.64099 8.43994C9.21099 8.51994 9.67101 8.55004 10.031 8.54004L10.3309 8.27002L11.3209 9.37012L11.3309 9.37988Z" fill="white"/>
<path d="M10.3709 5.44995L10.4609 6.6001L11.3809 7.71997C11.4309 7.78997 11.5409 7.98005 11.7009 8.30005C11.8609 8.62005 11.9509 8.81989 11.9509 8.88989L11.8409 9.06006L11.051 9.62988L10.1909 8.42993L10.8609 7.94995V7.91992L10.8409 7.88989C10.6109 7.56989 10.351 7.25996 10.061 6.95996C9.70099 6.59996 9.38091 6.39008 9.11091 6.33008L9.00093 5.93994C9.00093 5.93994 8.9809 5.85005 8.9709 5.80005C8.9609 5.75005 8.95087 5.70991 8.94087 5.65991C8.86087 5.32991 8.85095 5.11 8.90095 5L9.02095 5.1499C9.11095 5.2699 9.31094 5.3599 9.64094 5.3999C9.76094 5.4199 9.88093 5.42993 10.0009 5.42993C10.1009 5.42993 10.2109 5.42991 10.3509 5.40991L10.3809 5.45996L10.3709 5.44995Z" fill="white"/>
<path d="M12.861 6.38989C13.241 7.03989 13.421 7.63993 13.391 8.17993L11.401 5.40991C11.351 5.33991 11.281 4.85996 11.181 3.95996C12.021 5.09996 12.591 5.90988 12.861 6.37988V6.38989Z" fill="white"/>
<path d="M18.881 4.33008L18.911 5.82007L16.391 6.62012C15.881 6.78012 15.491 6.43006 15.221 5.56006C15.131 5.28006 15.0711 4.96009 15.0511 4.59009C15.0111 4.12009 15.0609 3.82995 15.1909 3.69995C15.2209 3.78995 15.251 3.91007 15.281 4.07007C15.311 4.23007 15.341 4.35996 15.381 4.45996C15.441 4.63996 15.551 4.79995 15.721 4.94995C15.911 5.10995 16.091 5.1601 16.271 5.1001L18.331 4.44995V4.41992C18.291 4.28992 18.111 4.03993 17.771 3.67993L17.871 2.52002C18.311 2.95002 18.561 3.28 18.631 3.5L18.901 4.34009L18.881 4.33008ZM17.151 2.12012C17.121 2.25012 17.0911 2.38001 17.0511 2.51001C17.0111 2.64001 16.971 2.77992 16.911 2.91992C16.811 2.91992 16.681 2.89009 16.521 2.84009L16.131 2.70996C16.061 2.83996 15.9911 3.00998 15.9211 3.22998L15.771 3.19995L15.501 3.11011C15.271 3.04011 15.151 2.98995 15.131 2.94995C15.131 2.91995 15.201 2.6499 15.391 2.1499C15.801 2.3299 16.031 2.40989 16.091 2.38989L16.111 2.36011L16.221 2.13989L16.351 1.83008L17.141 2.1001L17.151 2.12012Z" fill="white"/>
<path d="M21.041 5.45996L20.031 5.62988L19.111 1.72998C19.111 1.66998 19.151 1.49996 19.271 1.20996L19.501 0.659912L20.3409 4.08008L20.801 4L21.051 5.45996H21.041Z" fill="white"/>
<path d="M22.791 3.46997L22.761 5.34009L20.531 5.5L20.421 4.03003L22.261 3.8999V3.87988C22.141 3.54988 21.9609 3.18002 21.7209 2.77002L22.0709 1.73999C22.1109 1.79999 22.1509 1.84991 22.1909 1.90991C22.2209 1.95991 22.2709 2.03012 22.3209 2.12012C22.3609 2.19012 22.391 2.24003 22.411 2.28003C22.481 2.40003 22.531 2.49007 22.561 2.57007C22.631 2.72007 22.6809 2.88003 22.7209 3.03003C22.7609 3.19003 22.781 3.33999 22.791 3.48999V3.46997ZM22.5909 6.56006C22.5009 6.82006 22.391 7.03999 22.261 7.23999C22.201 7.22999 22.1009 7.18008 21.9709 7.08008L21.6909 6.87012L21.5909 7.03003L21.4509 7.27002C21.2409 7.21002 21.051 7.08012 20.871 6.87012L21.2209 6.21997C21.3509 6.35997 21.5109 6.4901 21.7209 6.6001C21.7609 6.5601 21.821 6.48989 21.881 6.38989C21.941 6.26989 21.991 6.1899 22.021 6.1499L22.601 6.55005L22.5909 6.56006Z" fill="white"/>
<path d="M25.801 3.87997C25.781 4.18998 25.741 4.49013 25.681 4.79013C25.651 4.96013 25.6109 5.11009 25.5709 5.25009C25.5309 5.39009 25.471 5.55006 25.401 5.72006C25.091 6.55006 24.711 6.96003 24.251 6.94003C23.801 6.92003 23.311 6.80017 22.791 6.58017L22.5809 6.49008L22.561 6.47006L22.531 6.41L23.231 6.35019C23.931 6.05019 24.461 5.73 24.811 5.41C25.161 5.08 25.341 4.74999 25.361 4.39999L25.3409 4.37021C25.1809 4.71021 25.0909 4.87998 25.0809 4.88998C24.9609 5.03998 24.8009 5.11019 24.5709 5.10019C24.1309 5.08019 23.9309 4.78006 23.9509 4.22006C23.9509 4.04006 23.991 3.84998 24.051 3.63998C24.111 3.42998 24.2009 3.18999 24.3309 2.89999C24.4609 2.60999 24.5909 2.40011 24.7209 2.27011C24.8509 2.13011 24.991 2.07017 25.131 2.08017H25.2009C25.6309 2.47017 25.821 3.06999 25.781 3.89999L25.801 3.87997ZM25.181 3.77011C25.181 3.71011 25.181 3.65018 25.171 3.59018L25.121 3.47006C25.081 3.35006 25.011 3.29011 24.921 3.27011C24.861 3.27011 24.7909 3.30997 24.7009 3.37997C24.6109 3.45998 24.5709 3.53019 24.5709 3.60019C24.5709 3.65019 24.6109 3.71012 24.7009 3.78012C24.7809 3.82012 24.861 3.85021 24.931 3.87021C24.981 3.87021 25.0609 3.85013 25.1909 3.79013V3.7601L25.181 3.77011Z" fill="white"/>
<path d="M27.551 5.70996L26.531 5.55005L26.891 1.55005C26.891 1.49005 27.0009 1.34011 27.2009 1.11011L27.601 0.659912L27.3209 4.16992L27.781 4.23999L27.551 5.69995V5.70996Z" fill="white"/>
<path d="M30.111 6.37L29.4709 6.19983C29.4709 6.19983 29.421 6.23993 29.381 6.29993L29.311 6.40979C29.261 6.51979 29.201 6.58999 29.121 6.60999L28.021 5.02991C28.021 5.02991 27.951 5.11983 27.901 5.19983L27.761 5.45984C27.711 5.59984 27.611 5.66982 27.481 5.68982L27.161 5.60999L27.541 4.17981L28.0909 4.32996C28.0909 4.32996 28.231 4.19985 28.431 3.96985C28.541 3.84985 28.641 3.73979 28.731 3.65979C28.821 3.57979 28.911 3.50981 29.021 3.42981C29.291 3.25981 29.5609 3.1999 29.8309 3.2699C29.9409 3.2999 30.001 3.33978 30.011 3.39978C30.011 3.41978 30.011 3.44986 30.011 3.47986C30.011 3.50986 29.991 3.55 29.981 3.62C29.941 3.78 29.931 4.00992 29.981 4.28992C30.021 4.57992 30.0909 4.76976 30.1909 4.87976L30.481 4.95984L30.101 6.38977L30.111 6.37ZM29.291 4.60999L29.3209 4.48987V4.40979C29.3209 4.40979 29.3309 4.33993 29.3209 4.29993C29.3209 4.21993 29.321 4.17979 29.291 4.15979L29.2109 4.12C29.2109 4.12 29.111 4.11 29.031 4.12C28.951 4.12 28.901 4.11977 28.871 4.13977C28.931 4.25977 29.061 4.41999 29.281 4.60999H29.291Z" fill="white"/>
<path d="M31.181 7.86011C31.081 7.97011 30.981 8.05988 30.881 8.12988C30.831 8.16988 30.791 8.19998 30.741 8.22998C30.691 8.25998 30.6409 8.29007 30.5909 8.32007C30.5309 8.28007 30.471 8.19004 30.391 8.04004C30.341 7.96004 30.2809 7.85999 30.2209 7.73999L30.111 7.81006L29.8309 8C29.6709 7.86 29.5509 7.65989 29.4609 7.38989L30.061 6.94995C30.111 7.12995 30.211 7.32 30.351 7.5C30.411 7.5 30.501 7.45012 30.611 7.37012C30.711 7.30012 30.7809 7.24998 30.8209 7.22998L31.181 7.8501V7.86011ZM31.881 7.11011L31.301 6.87988C31.171 6.82988 31.1009 6.69998 31.0909 6.47998V6.12012L30.621 6.61011L29.7109 6.25L30.251 4.87012L31.261 5.27002C31.411 5.05002 31.531 4.8399 31.601 4.6499L31.681 4.46997C31.681 4.46997 31.7109 4.41991 31.7209 4.40991C31.7309 4.39991 31.751 4.38011 31.781 4.36011C31.891 4.27011 32.141 4.11991 32.521 3.90991L32.3309 4.3999L32.241 4.6001L32.161 4.76001L31.991 5.12012C31.891 5.38012 31.951 5.55989 32.181 5.63989L32.431 5.73999L31.891 7.12012L31.881 7.11011Z" fill="white"/>
<path d="M34.241 8.37012L33.7009 8.08008L33.601 7.07007L32.8409 7.62012L31.561 6.93994L32.261 5.63989L33.511 6.31006L33.031 4.36011L34.0909 3.19995L36.561 3.6499L36.271 3.97998C36.141 4.12998 35.9909 4.28995 35.8409 4.44995L33.911 4.20996L34.2009 5.56006C34.3209 6.12006 34.4509 6.5599 34.5809 6.8999L34.931 7.09009L34.231 8.38989L34.241 8.37012Z" fill="white"/>
<path d="M37.621 6.14992L36.5709 6.62014L35.8209 7.86013C35.7709 7.93013 35.631 8.10013 35.381 8.36013C35.131 8.62013 34.981 8.77006 34.911 8.79006L34.7109 8.75002L33.911 8.19997L34.751 6.98L35.431 7.44997H35.4609L35.481 7.40993C35.701 7.07993 35.9109 6.73013 36.0909 6.36013C36.3109 5.90013 36.401 5.53002 36.361 5.25002L36.6909 5.01003C36.6909 5.01003 36.771 4.95995 36.811 4.92995C36.851 4.89995 36.891 4.88013 36.931 4.86013C37.211 4.68013 37.421 4.59012 37.541 4.60012L37.4409 4.76003C37.3509 4.89003 37.341 5.10994 37.411 5.41994C37.441 5.53994 37.471 5.66004 37.511 5.77004C37.541 5.86004 37.591 5.97011 37.651 6.09011L37.621 6.13991V6.14992Z" fill="white"/>
<path d="M37.5709 8.79004C37.0809 9.37004 36.581 9.73989 36.061 9.88989L37.991 7.08008C38.041 7.01008 38.471 6.77989 39.281 6.38989C38.491 7.56989 37.9209 8.37004 37.5709 8.79004Z" fill="white"/>
<path d="M40.691 15.07L40.361 14.6298C40.301 14.5498 40.311 14.4199 40.371 14.2299C40.401 14.1399 40.441 14.0699 40.471 14.0099C40.511 13.9499 40.551 13.91 40.611 13.87L39.901 14.0399L38.571 12.2399C38.251 11.8099 38.461 11.3199 39.191 10.7799C39.281 10.7099 39.341 10.6698 39.381 10.6398C39.421 10.6198 39.501 10.5699 39.621 10.4999C39.741 10.4299 39.901 10.3599 40.101 10.2699C40.581 10.0499 40.891 9.98998 41.031 10.07L40.971 10.12C40.891 10.18 40.771 10.25 40.591 10.34C40.411 10.43 40.291 10.51 40.211 10.56C40.061 10.67 39.941 10.8299 39.871 11.0299C39.791 11.2299 39.8111 11.41 39.9311 11.56L41.1611 13.2199C41.1611 13.2199 41.2911 13.17 41.4211 13.09C41.5511 13.01 41.721 12.8999 41.901 12.7599L42.961 12.7399L42.441 13.12L41.731 13.55C41.621 13.63 41.591 13.72 41.621 13.84L41.871 14.1798L40.6811 15.06L40.691 15.07ZM43.201 11.9398C43.131 11.9598 42.981 11.9799 42.741 11.9999C42.501 12.0199 42.361 11.9999 42.321 11.9699C42.301 11.9399 42.2911 11.6698 42.3011 11.1598H42.071L41.721 11.1298C41.701 11.0498 41.6811 10.8998 41.6811 10.6898C41.6611 10.4398 41.681 10.3099 41.711 10.2799C41.761 10.2399 42.051 10.2399 42.591 10.2799C42.571 10.3299 42.5511 10.4598 42.5411 10.6698C42.5411 10.8698 42.541 10.9899 42.571 11.0299C42.571 11.0299 42.581 11.0299 42.591 11.0299C42.591 11.0299 42.611 11.0299 42.641 11.0299L42.861 11.05L43.211 11.08V11.9298L43.201 11.9398Z" fill="white"/>
<path d="M40.3609 16.8501C40.2109 16.8601 40.0809 16.8601 39.9609 16.8501C39.9009 16.8501 39.851 16.8501 39.791 16.8401C39.731 16.8401 39.6709 16.8201 39.6109 16.8101C39.5909 16.7401 39.611 16.63 39.651 16.47C39.661 16.37 39.6909 16.2599 39.7309 16.1299L39.6009 16.1101L39.271 16.0601C39.241 15.8501 39.291 15.6201 39.411 15.3601L40.151 15.4299C40.061 15.5999 40.0109 15.8 40.0009 16.03C40.0509 16.06 40.151 16.0901 40.281 16.1001C40.401 16.1101 40.481 16.1299 40.531 16.1399L40.3809 16.8401L40.3609 16.8501ZM41.3809 16.76L41.1009 16.2C41.0409 16.08 41.0709 15.93 41.2109 15.76L41.4609 15.5L40.771 15.54L40.3309 14.6599L41.651 14L42.1409 14.97C42.4009 14.91 42.621 14.83 42.811 14.74L42.9909 14.6599C42.9909 14.6599 43.051 14.6399 43.061 14.6399C43.081 14.6399 43.1009 14.6399 43.1409 14.6399C43.2809 14.6399 43.5609 14.7 43.9909 14.8L43.521 15.04L43.3209 15.1299L43.161 15.1899L42.801 15.3401C42.551 15.4701 42.4809 15.6401 42.5909 15.8501L42.7109 16.0901L41.3909 16.75L41.3809 16.76Z" fill="white"/>
<path d="M40.631 18.1899C40.631 18.1899 40.481 18.15 40.261 18.04C40.211 18.01 40.161 17.99 40.131 17.97C40.091 17.95 40.061 17.9299 40.031 17.9099C39.981 17.8799 39.941 17.8401 39.921 17.8101C39.921 17.7901 39.921 17.7499 39.931 17.6899C39.951 17.6299 39.971 17.5399 40.021 17.4399C40.061 17.3299 40.101 17.2499 40.131 17.1899C40.161 17.1299 40.1909 17.0901 40.2109 17.0801C40.2509 17.0601 40.391 17.1 40.631 17.2C40.871 17.29 40.991 17.3599 41.011 17.3999C41.011 17.4099 40.9609 17.55 40.8409 17.8C40.7209 18.06 40.651 18.19 40.631 18.2V18.1899ZM43.751 17.5901C43.491 17.6901 43.171 17.7701 42.801 17.8401L42.3409 17.9399C42.2609 17.9599 42.181 17.98 42.101 17.99C42.031 18 41.9409 18.02 41.8309 18.03L41.2209 16.3999L42.611 15.8799L43.0909 17.1799H43.141C43.261 17.1199 43.431 17 43.641 16.8C43.841 16.62 43.971 16.4701 44.051 16.3301L45.2109 16.3799C44.7809 16.9699 44.291 17.3701 43.741 17.5701L43.751 17.5901Z" fill="white"/>
</svg>
