<svg width="80" height="81" viewBox="0 0 80 81" fill="none" xmlns="http://www.w3.org/2000/svg">
<path d="M39.87 79.9801C61.5416 79.9801 79.11 62.4118 79.11 40.7401C79.11 19.0685 61.5416 1.50012 39.87 1.50012C18.1983 1.50012 0.630005 19.0685 0.630005 40.7401C0.630005 62.4118 18.1983 79.9801 39.87 79.9801Z" stroke="white" stroke-width="1.18" stroke-miterlimit="10"/>
<path d="M69.24 40.7401H10.95" stroke="white" stroke-width="1.44" stroke-miterlimit="10"/>
<path d="M59.4 33.8201C59.19 34.1501 59.2899 34.6001 59.6199 34.8101L68.91 40.7301L59.6199 46.6501C59.2799 46.8601 59.19 47.3101 59.4 47.6401C59.61 47.9701 60.06 48.0701 60.39 47.8601L70.64 41.3301C70.85 41.2001 70.9699 40.9701 70.9699 40.7201C70.9699 40.4701 70.84 40.2401 70.64 40.1101L60.39 33.5801C60.27 33.5001 60.14 33.4701 60 33.4701C59.76 33.4701 59.53 33.5901 59.39 33.8001L59.4 33.8201Z" fill="white"/>
</svg>
