<svg width="46" height="45" viewBox="0 0 46 45" fill="none" xmlns="http://www.w3.org/2000/svg">
<path d="M11.641 22.0901H3.41101V23.1799H11.641V22.0901Z" fill="white"/>
<path d="M45.4209 22.0901H37.1909V23.1799H45.4209V22.0901Z" fill="white"/>
<path d="M15.221 33.55H11.131V13.8301H15.221V33.55ZM12.171 32.5H14.161V14.8799H12.171V32.5Z" fill="white"/>
<path d="M23.981 34.74C23.901 34.74 16.191 34.4 14.191 26.5L14.171 26.3701V20.03L14.221 19.9299C14.361 19.6099 17.801 12.15 24.721 12.47L24.671 13.51C18.851 13.22 15.631 19.41 15.211 20.26V26.3C17.031 33.36 23.721 33.6799 24.011 33.6899L23.981 34.73V34.74Z" fill="white"/>
<path d="M23.991 28.1299V31.1399L23.291 30.9299L22.161 31.3799L21.321 30.49L19.851 30.54V29.3601L18.541 29.3301V28.28L17.331 27.3101L17.671 26.1599L16.541 25.1399L17.121 24.1399L16.231 22.9299L17.121 21.9299L16.731 20.8L17.701 19.96L17.281 18.96L18.621 18.4399L18.521 17.3401L19.961 17L20.111 15.98H21.581L22.371 15.1899L22.741 15.5C22.741 15.5 23.691 15.3199 23.991 15.3999V17.8701C23.991 17.8701 20.171 18.74 20.251 23.46C20.251 23.46 19.841 27.0399 23.991 28.1399V28.1299Z" fill="white"/>
<path d="M28.711 15.2999V32.7099C28.711 32.7099 30.351 34.3898 29.061 34.8798C29.061 34.8798 26.861 35.16 26.751 34.32V13.62C26.751 13.62 28.511 11.8598 29.841 12.9098C29.841 12.9098 30.401 13.7199 28.701 15.2999H28.711Z" fill="white"/>
<path d="M34.341 13.2701V34.15C34.341 34.15 33.501 35.4801 31.611 34.5301C31.611 34.5301 31.401 33.62 32.731 32.43V15.5101C32.731 15.5101 31.301 12.9701 32.631 12.5801C32.631 12.5801 33.501 12.2901 34.341 13.2701Z" fill="white"/>
<path d="M34.991 34.92V13.3502C34.991 13.3502 36.481 12.2802 37.491 13.0902C37.491 13.0902 38.121 13.8902 36.791 15.0802V32.4701C36.791 32.4701 37.611 33.4901 37.191 34.4901C37.191 34.4901 36.641 35.43 34.991 34.92Z" fill="white"/>
<path d="M26.131 13.4099V34.29C26.131 34.29 24.871 35.23 23.821 34.29C23.821 34.29 23.081 33.49 24.451 31.7V12.29L26.511 13.1599C26.511 13.1599 26.201 13.2499 26.131 13.3999V13.4099Z" fill="white"/>
<path d="M24.451 12.9099H23.621V15.51H24.451V12.9099Z" fill="white"/>
<path d="M33.211 21.8701H28.0909V24.4299H33.211V21.8701Z" fill="white"/>
<path d="M2.96094 27.8301L7.01093 26.71L7.16093 27.26L5.36093 27.76L7.47093 28.3701L7.67093 29.1101L5.81093 28.52L3.63094 30.28L3.43092 29.5701L5.13094 28.3L4.33093 28.04L3.10094 28.3799L2.95093 27.8301H2.96094Z" fill="white"/>
<path d="M7.72099 29.2L7.95099 29.72L5.87099 30.6399C5.54099 30.7899 5.331 30.8899 5.241 30.9399C5.091 31.0299 4.99098 31.14 4.93098 31.27C4.87098 31.4 4.88098 31.5299 4.93098 31.6799C5.00098 31.8299 5.091 31.92 5.211 31.95C5.331 31.99 5.461 31.9799 5.601 31.9399C5.741 31.8999 5.96099 31.8099 6.26099 31.6699L8.39099 30.73L8.62099 31.25L6.601 32.1499C6.141 32.3499 5.811 32.49 5.601 32.54C5.401 32.6 5.21099 32.6201 5.05099 32.6001C4.89099 32.5801 4.741 32.5299 4.601 32.4399C4.471 32.3499 4.35099 32.2 4.26099 32C4.15099 31.75 4.11099 31.5499 4.14099 31.3799C4.17099 31.2199 4.23099 31.0699 4.34099 30.9299C4.44099 30.7999 4.56099 30.6801 4.70099 30.6001C4.90099 30.4701 5.22099 30.3101 5.65099 30.1201L7.70099 29.21L7.72099 29.2Z" fill="white"/>
<path d="M5.48096 34.22L8.61096 31.3301L8.93095 31.8101L6.76096 33.77L9.45096 32.6001L9.83096 33.1599L7.66096 35.2L10.341 33.9299L10.661 34.4099L6.78096 36.1699L6.45096 35.6699L8.75096 33.46L5.82097 34.74L5.48096 34.23V34.22Z" fill="white"/>
<path d="M9.24092 38.96L8.82092 38.51L9.35092 37.6799L8.58092 36.8501L7.72092 37.3301L7.31091 36.8899L11.1409 34.8401L11.5509 35.28L9.23091 38.97L9.24092 38.96ZM9.75092 37.0601L10.6309 35.72L9.23091 36.5L9.75092 37.0601Z" fill="white"/>
<path d="M9.66089 39.29L12.4409 36.1399L12.8709 36.52L10.0909 39.6699L9.66089 39.29Z" fill="white"/>
<path d="M11.1809 40.55L13.2509 37.73L12.5809 37.24L13.0009 36.6699L14.8109 37.99L14.3909 38.5601L13.7209 38.0701L11.6509 40.8899L11.1909 40.55H11.1809Z" fill="white"/>
<path d="M16.3009 41.75L16.6909 42.22C16.4209 42.6 16.1509 42.85 15.8709 42.97C15.6009 43.09 15.3209 43.0799 15.0509 42.9499C14.7109 42.7899 14.5109 42.49 14.4609 42.04C14.4009 41.59 14.5209 41.07 14.8009 40.47C15.1009 39.84 15.4409 39.3999 15.8209 39.1499C16.2009 38.8999 16.5709 38.86 16.9309 39.03C17.2409 39.18 17.4309 39.43 17.5009 39.8C17.5409 40.02 17.5209 40.2901 17.4309 40.6201L16.8409 40.56C16.9009 40.35 16.9109 40.16 16.8709 40C16.8309 39.84 16.7409 39.7299 16.6009 39.6599C16.4109 39.5699 16.2109 39.6 16.0009 39.75C15.7909 39.9 15.5709 40.1999 15.3609 40.6499C15.1309 41.1299 15.0309 41.5 15.0509 41.76C15.0709 42.02 15.1709 42.19 15.3609 42.28C15.5009 42.34 15.6409 42.33 15.8009 42.25C15.9609 42.17 16.1309 42 16.3009 41.74V41.75Z" fill="white"/>
<path d="M16.9609 43.6899L18.1609 39.6599L18.7009 39.8201L18.2309 41.4099L19.3009 41.73L19.7709 40.1399L20.3209 40.3L19.1209 44.3301L18.5809 44.1699L19.1109 42.4099L18.0409 42.0901L17.5109 43.8501L16.9709 43.6899H16.9609Z" fill="white"/>
<path d="M20.0509 44.54L20.6709 40.3799L22.7409 40.6899L22.6409 41.3899L21.1409 41.1699L21.0009 42.0901L22.4009 42.3L22.3009 43L20.9009 42.79L20.7309 43.9199L22.2909 44.1499L22.1909 44.8501L20.0709 44.54H20.0509Z" fill="white"/>
<path d="M23.051 44.9399L22.991 40.74H23.841L24.391 43.5901L24.851 40.71H25.701L25.761 44.8999H25.231L25.181 41.6001L24.671 44.9199H24.121L23.521 41.6299L23.571 44.9399H23.041H23.051Z" fill="white"/>
<path d="M26.5809 44.8101L26.0909 40.6299L26.6509 40.5601L27.1409 44.74L26.5809 44.8101Z" fill="white"/>
<path d="M29.381 42.7501L29.971 42.88C29.991 43.35 29.921 43.7101 29.781 43.9701C29.641 44.2301 29.421 44.39 29.121 44.46C28.751 44.54 28.411 44.4202 28.091 44.1002C27.771 43.7802 27.541 43.3 27.401 42.65C27.251 41.97 27.251 41.4101 27.401 40.9801C27.551 40.5501 27.821 40.29 28.211 40.21C28.551 40.14 28.851 40.2201 29.131 40.4701C29.291 40.6201 29.441 40.85 29.581 41.16L29.071 41.4801C28.991 41.2701 28.881 41.1201 28.751 41.0201C28.621 40.9201 28.481 40.89 28.331 40.92C28.131 40.97 27.991 41.1102 27.911 41.3602C27.831 41.6102 27.851 41.97 27.961 42.46C28.081 42.98 28.221 43.3301 28.391 43.5301C28.561 43.7201 28.751 43.8001 28.951 43.7501C29.101 43.7201 29.211 43.62 29.281 43.46C29.351 43.3 29.381 43.0601 29.361 42.7501H29.381Z" fill="white"/>
<path d="M33.461 42.96L32.881 43.1799L32.3109 42.3799L31.2609 42.79L31.3909 43.76L30.8309 43.98L30.3409 39.6599L30.9009 39.4399L33.4709 42.96H33.461ZM31.881 41.79L30.961 40.47L31.1709 42.0601L31.8909 41.78L31.881 41.79Z" fill="white"/>
<path d="M34.0509 42.6499L32.0309 39L32.5309 38.72L34.2109 41.75L35.4509 41.0601L35.7909 41.6799L34.0509 42.6399V42.6499Z" fill="white"/>
<path d="M37.3609 40.6101L34.6709 37.3799L35.1109 37.02L36.1709 38.29L37.0309 37.5801L35.9709 36.3101L36.4109 35.95L39.1009 39.1799L38.6609 39.54L37.4809 38.1299L36.6209 38.8401L37.8009 40.25L37.3609 40.6101Z" fill="white"/>
<path d="M38.1909 37.19C37.8709 36.91 37.6309 36.64 37.4709 36.38C37.3509 36.19 37.2709 36.0001 37.2109 35.8001C37.1509 35.6001 37.1409 35.4301 37.1709 35.2801C37.2009 35.0801 37.3009 34.89 37.4509 34.71C37.7209 34.4 38.0909 34.2802 38.5409 34.3402C38.9909 34.4102 39.4809 34.6702 39.9909 35.1202C40.5009 35.5702 40.8209 36.01 40.9409 36.45C41.0609 36.89 40.9909 37.2601 40.7109 37.5701C40.4309 37.8801 40.0709 38.01 39.6209 37.94C39.1709 37.87 38.6909 37.62 38.1909 37.17V37.19ZM38.5609 36.7301C38.9209 37.0501 39.2409 37.2301 39.5209 37.2801C39.8009 37.3301 40.0209 37.2802 40.1709 37.1002C40.3209 36.9302 40.3509 36.71 40.2709 36.44C40.1809 36.17 39.9609 35.8701 39.5909 35.5501C39.2309 35.2301 38.9109 35.0501 38.6409 35.0001C38.3709 34.9501 38.1509 35.01 38.0009 35.19C37.8509 35.37 37.8109 35.5902 37.8909 35.8502C37.9809 36.1202 38.2009 36.4101 38.5609 36.7301Z" fill="white"/>
<path d="M38.5009 33.5701L38.8109 33.0901L40.731 34.3201C41.031 34.5201 41.2309 34.6399 41.3309 34.6799C41.4909 34.7499 41.6409 34.78 41.7709 34.76C41.9109 34.74 42.021 34.66 42.101 34.53C42.191 34.39 42.211 34.2699 42.171 34.1399C42.131 34.0099 42.0609 33.9101 41.9409 33.8201C41.8309 33.7301 41.631 33.5899 41.351 33.4099L39.391 32.1499L39.701 31.6699L41.5609 32.8601C41.9909 33.1301 42.2809 33.34 42.4409 33.48C42.6009 33.62 42.721 33.7599 42.791 33.9099C42.861 34.0599 42.9009 34.2101 42.9009 34.3701C42.9009 34.5301 42.8409 34.7099 42.7109 34.8899C42.5609 35.1199 42.411 35.2601 42.261 35.3301C42.111 35.4001 41.9509 35.4199 41.7809 35.4099C41.6109 35.3999 41.4509 35.36 41.3009 35.29C41.0809 35.19 40.7709 35.01 40.3709 34.76L38.481 33.55L38.5009 33.5701Z" fill="white"/>
<path d="M42.411 32.6598L42.571 32.12C42.841 32.21 43.051 32.2299 43.211 32.1899C43.371 32.1499 43.491 32.0498 43.561 31.8998C43.641 31.7298 43.641 31.5799 43.571 31.4499C43.501 31.3199 43.401 31.2198 43.261 31.1498C43.171 31.1098 43.081 31.09 43.011 31.1C42.931 31.1 42.851 31.1399 42.761 31.2099C42.701 31.2599 42.581 31.37 42.401 31.55C42.171 31.78 41.961 31.9199 41.761 31.9599C41.481 32.0199 41.191 31.98 40.881 31.84C40.691 31.75 40.521 31.6299 40.381 31.4799C40.241 31.3299 40.161 31.1599 40.141 30.9799C40.121 30.7999 40.141 30.6098 40.241 30.4098C40.391 30.0898 40.601 29.89 40.891 29.83C41.181 29.76 41.491 29.8099 41.851 29.9599L41.651 30.4899C41.441 30.4199 41.281 30.4099 41.161 30.4399C41.041 30.4699 40.951 30.5599 40.881 30.7099C40.811 30.8599 40.801 30.9998 40.861 31.1298C40.891 31.2098 40.961 31.28 41.061 31.32C41.151 31.36 41.241 31.37 41.331 31.35C41.441 31.32 41.601 31.1999 41.801 30.9899C42.001 30.7799 42.181 30.63 42.331 30.56C42.481 30.49 42.651 30.4499 42.851 30.4499C43.051 30.4499 43.261 30.5198 43.511 30.6298C43.731 30.7298 43.921 30.8599 44.071 31.0299C44.221 31.1999 44.311 31.38 44.341 31.57C44.371 31.76 44.331 31.9699 44.231 32.1899C44.081 32.5099 43.861 32.7099 43.551 32.7799C43.251 32.8499 42.871 32.8098 42.431 32.6398L42.411 32.6598Z" fill="white"/>
<path d="M44.901 30.3501L40.871 29.1399L41.471 27.1399L42.151 27.3401L41.711 28.8L42.601 29.0701L43.011 27.71L43.691 27.9099L43.281 29.27L44.381 29.6001L44.831 28.0901L45.511 28.29L44.901 30.3401V30.3501Z" fill="white"/>
<path d="M1.80098 13.23C1.91098 13.36 2.08097 13.5899 2.31097 13.9399L1.64098 14.3899L1.78098 14.6399L1.93097 14.8799C1.87097 14.9799 1.63097 15.1501 1.23097 15.3701C1.15097 15.2701 1.07097 15.15 0.980972 15.02C0.900972 14.91 0.830977 14.7799 0.750977 14.6399C0.780977 14.6399 0.830976 14.6101 0.890976 14.5801L1.10098 14.46C1.27098 14.36 1.36098 14.29 1.38098 14.25L1.36098 14.21L1.25098 13.99L1.09097 13.6899L1.79097 13.22L1.80098 13.23ZM4.72098 13.6899L4.81097 13.72L4.95097 13.77L5.10098 13.8401L5.30098 13.3501L6.65097 13.8601L5.75098 16.27C5.91098 16.44 6.05097 16.6401 6.17097 16.8501C6.29097 17.0601 6.39098 17.3001 6.47098 17.5701C6.55098 17.8301 6.59097 18.0801 6.59097 18.3301C6.59097 18.5701 6.55098 18.8 6.47098 19.01C6.32098 19.4 6.10097 19.66 5.81097 19.78C5.52097 19.9 5.18097 19.89 4.79097 19.75C4.61097 19.68 4.42097 19.5799 4.23097 19.4399C4.04097 19.2999 3.84097 19.1399 3.65097 18.9399C3.43097 18.7199 3.26097 18.5201 3.15097 18.3301C3.03097 18.1401 2.96098 17.96 2.94098 17.79C3.00098 17.81 3.08097 17.8599 3.17097 17.9399C3.22097 17.9799 3.27098 18.0301 3.33098 18.0801C3.39098 18.1301 3.46097 18.2 3.54097 18.29C3.80097 18.55 4.04098 18.7301 4.28098 18.8201C4.58098 18.9301 4.85098 18.91 5.11098 18.75C5.22098 18.67 5.31098 18.58 5.39098 18.47C5.47098 18.36 5.55098 18.2201 5.61098 18.0601C5.68098 17.8801 5.75098 17.52 5.82098 16.98L5.79097 16.96C5.58097 16.88 5.36098 16.98 5.16098 17.26L5.00098 17.52C4.93098 17.65 4.86098 17.79 4.80098 17.95C4.66098 17.87 4.52097 17.7599 4.37097 17.6299C4.29097 17.5599 4.21098 17.4899 4.13098 17.3999C4.05098 17.3199 3.96097 17.2201 3.87097 17.1201L4.92097 14.3101C4.71097 14.2901 4.49098 14.29 4.28098 14.3C4.08098 14.3 3.87098 14.3201 3.64098 14.3501L2.84097 13.5801C3.65097 13.4801 4.27098 13.5099 4.72098 13.6699V13.6899ZM7.20097 18.4399C7.38097 18.6199 7.49098 18.7699 7.55098 18.8899C7.53098 18.9299 7.38098 19.04 7.11098 19.21C7.14098 19.31 7.21098 19.41 7.30098 19.54C7.20098 19.69 7.05098 19.7901 6.83098 19.8501L6.51097 19.3999C6.51097 19.3999 6.53097 19.3899 6.54097 19.3799C6.58097 19.3499 6.64098 19.32 6.72098 19.27C6.85098 19.21 6.92098 19.1601 6.94098 19.1101C6.94098 19.1101 6.94098 19.1101 6.94098 19.1001C6.94098 19.0701 6.92097 19.04 6.90097 19.01L6.75098 18.74L6.97098 18.5901L7.23097 18.4399H7.20097Z" fill="white"/>
<path d="M6.20099 11.6799L7.67099 12.8301L6.45099 14.71L5.211 13.8999L6.211 12.3601C5.871 12.2401 5.46099 12.1601 5.00099 12.1101L4.39099 11.21C4.46099 11.21 4.53099 11.21 4.59099 11.21C4.65099 11.21 4.73099 11.22 4.84099 11.23C4.92099 11.23 4.981 11.25 5.021 11.26C5.151 11.28 5.26099 11.2901 5.34099 11.3101C5.50099 11.3501 5.66099 11.4 5.80099 11.47C5.95099 11.53 6.081 11.6099 6.211 11.6899L6.20099 11.6799ZM8.54099 13.7C8.69099 13.92 8.811 14.1501 8.881 14.3701C8.831 14.4101 8.73099 14.46 8.58099 14.51L8.25099 14.6101L8.321 14.79L8.43098 15.05C8.26098 15.18 8.03099 15.26 7.76099 15.27L7.45099 14.6001C7.64099 14.5801 7.84099 14.5299 8.05099 14.4299C8.05099 14.3699 8.02099 14.2799 7.98099 14.1699C7.92099 14.0499 7.891 13.9599 7.881 13.9099L8.55099 13.6899L8.54099 13.7Z" fill="white"/>
<path d="M9.621 10.4399L9.361 10.75L9.60101 11.1999L9.85101 11.6599C10.031 12.0899 10.031 12.4101 9.861 12.6001C9.711 12.7701 9.501 12.9599 9.221 13.1699C8.911 13.3799 8.661 13.51 8.471 13.54C9.001 12.91 9.181 12.1199 9.001 11.1599C8.691 11.4499 8.48101 11.6199 8.35101 11.6699C8.10101 11.7899 7.841 11.73 7.581 11.51C7.441 11.39 7.291 11.23 7.151 11.05C7.011 10.86 6.86101 10.6401 6.71101 10.3701C6.36101 9.75009 6.281 9.33008 6.471 9.11008C6.601 8.96008 6.90101 8.9799 7.38101 9.1699C7.42101 9.1899 7.491 9.22 7.591 9.27C7.661 9.31 7.731 9.33986 7.811 9.37986C7.841 9.39986 7.91101 9.43999 8.02101 9.50999C8.13101 9.57999 8.23101 9.63991 8.30101 9.67991L8.481 9.46995L9.611 10.4299L9.621 10.4399ZM7.831 10.1499C7.831 10.1499 7.76101 10.1001 7.71101 10.0801C7.66101 10.0601 7.60101 10.05 7.52101 10.04C7.38101 10.01 7.281 10.0401 7.231 10.0901C7.221 10.1001 7.21101 10.1299 7.21101 10.1599V10.25C7.21101 10.33 7.211 10.3799 7.231 10.4099C7.301 10.4699 7.391 10.4899 7.511 10.4599C7.601 10.4299 7.691 10.39 7.761 10.32C7.831 10.23 7.861 10.1699 7.831 10.1399V10.1499Z" fill="white"/>
<path d="M11.581 8.69995L11.121 9.11011L10.141 8.86011L10.401 9.76001L9.321 10.73L8.33099 9.62988L9.381 8.67993L7.381 8.46997L6.64099 7.08008L7.90099 4.90991L8.11099 5.29004C8.21099 5.47004 8.31099 5.6601 8.40099 5.8501L7.521 7.58008L8.89099 7.76001C9.46099 7.84001 9.92099 7.87011 10.281 7.86011L10.581 7.59009L11.571 8.68994L11.581 8.69995Z" fill="white"/>
<path d="M10.6209 4.78003L10.7109 5.92993L11.6309 7.05005C11.6809 7.12005 11.7909 7.30988 11.9509 7.62988C12.1109 7.94988 12.2009 8.14997 12.2009 8.21997L12.0909 8.38989L11.3009 8.95996L10.4409 7.76001L11.1109 7.28003V7.25L11.0909 7.21997C10.8609 6.89997 10.6009 6.59004 10.3109 6.29004C9.95092 5.93004 9.63093 5.71991 9.36093 5.65991L9.25093 5.27002C9.25093 5.27002 9.23093 5.17988 9.22093 5.12988C9.21093 5.07988 9.20093 5.03999 9.19093 4.98999C9.11093 4.65999 9.10092 4.44008 9.15092 4.33008L9.27093 4.47998C9.36093 4.59998 9.56093 4.68998 9.89093 4.72998C10.0109 4.74998 10.1309 4.76001 10.2509 4.76001C10.3509 4.76001 10.4609 4.75999 10.6009 4.73999L10.6309 4.79004L10.6209 4.78003Z" fill="white"/>
<path d="M13.101 5.71997C13.481 6.36997 13.661 6.97001 13.631 7.51001L11.641 4.73999C11.591 4.66999 11.521 4.19004 11.421 3.29004C12.261 4.43004 12.831 5.23996 13.101 5.70996V5.71997Z" fill="white"/>
<path d="M19.121 3.65991L19.151 5.1499L16.631 5.94995C16.121 6.10995 15.731 5.75989 15.461 4.88989C15.371 4.60989 15.311 4.28992 15.291 3.91992C15.251 3.44992 15.301 3.16003 15.431 3.03003C15.461 3.12003 15.491 3.2399 15.521 3.3999C15.551 3.5599 15.581 3.69004 15.621 3.79004C15.681 3.97004 15.791 4.13003 15.961 4.28003C16.151 4.44003 16.331 4.48993 16.511 4.42993L18.571 3.78003V3.75C18.531 3.62 18.351 3.37001 18.011 3.01001L18.111 1.8501C18.551 2.2801 18.801 2.61008 18.871 2.83008L19.141 3.66992L19.121 3.65991ZM17.401 1.44995C17.371 1.57995 17.341 1.71009 17.301 1.84009C17.261 1.97009 17.221 2.11 17.161 2.25C17.061 2.25 16.931 2.21992 16.771 2.16992L16.381 2.04004C16.311 2.17004 16.241 2.34006 16.171 2.56006L16.021 2.53003L15.751 2.43994C15.521 2.36994 15.401 2.32003 15.381 2.28003C15.381 2.25003 15.451 1.97998 15.641 1.47998C16.051 1.65998 16.281 1.73997 16.341 1.71997L16.361 1.68994L16.471 1.46997L16.601 1.15991L17.391 1.42993L17.401 1.44995Z" fill="white"/>
<path d="M21.291 4.79004L20.281 4.95996L19.361 1.06006C19.361 1.00006 19.401 0.830039 19.521 0.540039L19.751 -0.0100098L20.591 3.40991L21.051 3.33008L21.301 4.79004H21.291Z" fill="white"/>
<path d="M23.041 2.80005L23.011 4.66992L20.781 4.83008L20.671 3.36011L22.511 3.22998V3.20996C22.391 2.87996 22.211 2.5101 21.971 2.1001L22.321 1.07007C22.361 1.13007 22.401 1.17999 22.441 1.23999C22.471 1.28999 22.521 1.35995 22.571 1.44995C22.611 1.51995 22.641 1.57011 22.661 1.61011C22.731 1.73011 22.781 1.8199 22.811 1.8999C22.881 2.0499 22.931 2.21011 22.971 2.36011C23.011 2.52011 23.031 2.67007 23.041 2.82007V2.80005ZM22.841 5.88989C22.751 6.14989 22.641 6.37007 22.511 6.57007C22.451 6.56007 22.351 6.50991 22.221 6.40991L21.941 6.19995L21.841 6.36011L21.701 6.6001C21.491 6.5401 21.301 6.40995 21.121 6.19995L21.471 5.55005C21.601 5.69005 21.761 5.81993 21.971 5.92993C22.011 5.88993 22.071 5.81997 22.131 5.71997C22.191 5.59997 22.241 5.51998 22.271 5.47998L22.851 5.87988L22.841 5.88989Z" fill="white"/>
<path d="M26.051 3.20004C26.031 3.51004 25.991 3.8102 25.931 4.1102C25.901 4.2802 25.861 4.43016 25.821 4.57016C25.781 4.71016 25.721 4.87013 25.651 5.04013C25.341 5.87013 24.961 6.2801 24.501 6.2601C24.051 6.2401 23.561 6.11999 23.041 5.89999L22.831 5.81015L22.811 5.79013L22.781 5.73007L23.481 5.67001C24.181 5.37001 24.711 5.05007 25.061 4.73007C25.411 4.40007 25.591 4.07006 25.611 3.72006L25.591 3.69003C25.431 4.03003 25.341 4.20005 25.331 4.21005C25.211 4.36005 25.051 4.43001 24.821 4.42001C24.381 4.40001 24.181 4.10013 24.201 3.54013C24.201 3.36013 24.241 3.17005 24.301 2.96005C24.361 2.75005 24.451 2.51006 24.581 2.22006C24.711 1.93006 24.841 1.72018 24.971 1.59018C25.101 1.45018 25.241 1.38999 25.381 1.39999H25.451C25.881 1.78999 26.071 2.39006 26.031 3.22006L26.051 3.20004ZM25.421 3.10019C25.421 3.04019 25.421 2.98001 25.411 2.92001L25.361 2.80014C25.321 2.68014 25.251 2.62019 25.161 2.60019C25.101 2.60019 25.031 2.64005 24.941 2.71005C24.851 2.79005 24.811 2.86002 24.811 2.93002C24.811 2.98002 24.851 3.0402 24.941 3.1102C25.021 3.1502 25.101 3.18004 25.171 3.20004C25.221 3.20004 25.301 3.18021 25.431 3.12021V3.09018L25.421 3.10019Z" fill="white"/>
<path d="M27.791 5.04004L26.771 4.87988L27.131 0.879883C27.131 0.819883 27.241 0.669941 27.441 0.439941L27.841 -0.0100098L27.561 3.5L28.021 3.57007L27.791 5.03003V5.04004Z" fill="white"/>
<path d="M30.351 5.69983L29.711 5.52991C29.711 5.52991 29.661 5.56976 29.621 5.62976L29.551 5.73987C29.501 5.84987 29.441 5.91982 29.361 5.93982L28.261 4.35999C28.261 4.35999 28.191 4.44991 28.141 4.52991L28.001 4.78992C27.951 4.92992 27.851 4.9999 27.721 5.0199L27.401 4.93982L27.781 3.50989L28.331 3.65979C28.331 3.65979 28.471 3.52993 28.671 3.29993C28.781 3.17993 28.881 3.06987 28.971 2.98987C29.061 2.90987 29.151 2.83989 29.261 2.75989C29.531 2.58989 29.801 2.52998 30.071 2.59998C30.181 2.62998 30.241 2.66986 30.251 2.72986C30.251 2.74986 30.251 2.77994 30.251 2.80994C30.251 2.83994 30.231 2.87983 30.221 2.94983C30.181 3.10983 30.171 3.34 30.221 3.62C30.261 3.91 30.331 4.09984 30.431 4.20984L30.721 4.28992L30.341 5.71985L30.351 5.69983ZM29.541 3.93982L29.571 3.81995V3.73987C29.571 3.73987 29.581 3.66976 29.571 3.62976C29.571 3.54976 29.571 3.50987 29.541 3.48987L29.461 3.44983C29.461 3.44983 29.361 3.43983 29.281 3.44983C29.201 3.44983 29.151 3.44985 29.121 3.46985C29.181 3.58985 29.311 3.74982 29.531 3.93982H29.541Z" fill="white"/>
<path d="M31.4309 7.18994C31.3309 7.29994 31.2309 7.38996 31.1309 7.45996C31.0809 7.49996 31.0409 7.53006 30.9909 7.56006C30.9409 7.59006 30.8909 7.6199 30.8409 7.6499C30.7809 7.6099 30.7209 7.52012 30.6409 7.37012C30.5909 7.29012 30.5309 7.19007 30.4709 7.07007L30.3609 7.13989L30.0809 7.33008C29.9209 7.19008 29.8009 6.98997 29.7109 6.71997L30.3109 6.28003C30.3609 6.46003 30.4609 6.65008 30.6009 6.83008C30.6609 6.83008 30.7509 6.77995 30.8609 6.69995C30.9609 6.62995 31.0309 6.58006 31.0709 6.56006L31.4309 7.17993V7.18994ZM32.1309 6.43994L31.5509 6.20996C31.4209 6.15996 31.3509 6.03006 31.3409 5.81006V5.44995L30.8709 5.93994L29.9609 5.58008L30.5009 4.19995L31.5109 4.6001C31.6609 4.3801 31.7809 4.16998 31.8509 3.97998L31.9309 3.80005C31.9309 3.80005 31.9609 3.74999 31.9709 3.73999C31.9809 3.72999 32.0009 3.70994 32.0309 3.68994C32.1409 3.59994 32.3909 3.44999 32.7709 3.23999L32.5809 3.72998L32.4909 3.92993L32.4109 4.09009L32.2409 4.44995C32.1409 4.70995 32.2009 4.88997 32.4309 4.96997L32.6809 5.07007L32.1409 6.44995L32.1309 6.43994Z" fill="white"/>
<path d="M34.481 7.69995L33.941 7.40991L33.841 6.3999L33.081 6.94995L31.801 6.27002L32.501 4.96997L33.751 5.63989L33.271 3.68994L34.331 2.53003L36.801 2.97998L36.511 3.31006C36.381 3.46006 36.231 3.62003 36.081 3.78003L34.151 3.54004L34.441 4.88989C34.561 5.44989 34.691 5.88998 34.821 6.22998L35.171 6.41992L34.471 7.71997L34.481 7.69995Z" fill="white"/>
<path d="M37.871 5.48L36.821 5.94997L36.071 7.18996C36.021 7.25996 35.881 7.42996 35.631 7.68996C35.381 7.94996 35.231 8.10014 35.161 8.12014L34.961 8.0801L34.161 7.53005L35.001 6.31008L35.681 6.78005H35.711L35.731 6.74001C35.951 6.41001 36.161 6.05996 36.341 5.68996C36.561 5.22996 36.651 4.8601 36.611 4.5801L36.941 4.34011C36.941 4.34011 37.021 4.29003 37.061 4.26003C37.101 4.23003 37.141 4.20996 37.181 4.18996C37.461 4.00996 37.671 3.91995 37.791 3.92995L37.691 4.09011C37.601 4.22011 37.591 4.44002 37.661 4.75002C37.691 4.87002 37.721 4.99012 37.761 5.10012C37.791 5.19012 37.841 5.29994 37.901 5.41994L37.871 5.46999V5.48Z" fill="white"/>
<path d="M37.811 8.12012C37.321 8.70012 36.821 9.06997 36.301 9.21997L38.231 6.40991C38.281 6.33991 38.711 6.10997 39.521 5.71997C38.731 6.89997 38.161 7.70012 37.811 8.12012Z" fill="white"/>
<path d="M40.941 14.39L40.6109 13.9501C40.5509 13.8701 40.561 13.7402 40.621 13.5502C40.651 13.4602 40.691 13.3902 40.721 13.3302C40.761 13.2702 40.8009 13.23 40.8609 13.19L40.151 13.3602L38.821 11.5602C38.501 11.1302 38.711 10.6402 39.441 10.1002C39.531 10.0302 39.591 9.99007 39.631 9.96007C39.671 9.94007 39.751 9.89017 39.871 9.82017C39.991 9.75017 40.151 9.68019 40.351 9.59019C40.831 9.37019 41.141 9.31 41.281 9.39L41.221 9.44005C41.141 9.50005 41.021 9.57002 40.841 9.66002C40.661 9.75002 40.5409 9.82999 40.4609 9.87999C40.3109 9.98999 40.191 10.1502 40.121 10.3502C40.041 10.5502 40.0609 10.73 40.1809 10.88L41.411 12.5401C41.411 12.5401 41.541 12.49 41.671 12.41C41.801 12.33 41.971 12.2202 42.151 12.0802L43.2109 12.0602L42.691 12.44L41.981 12.8702C41.871 12.9502 41.841 13.04 41.871 13.16L42.121 13.5001L40.9309 14.38L40.941 14.39ZM43.441 11.2701C43.371 11.2901 43.221 11.3102 42.981 11.3302C42.741 11.3502 42.601 11.3302 42.561 11.3002C42.541 11.2702 42.531 11.0001 42.541 10.4901H42.311L41.9609 10.4601C41.9409 10.3801 41.921 10.2301 41.921 10.0201C41.901 9.77012 41.921 9.64021 41.951 9.61021C42.001 9.57021 42.2909 9.57021 42.8309 9.61021C42.8109 9.66021 42.791 9.7901 42.781 10.0001C42.781 10.2001 42.781 10.3202 42.811 10.3602C42.811 10.3602 42.8209 10.3602 42.8309 10.3602C42.8309 10.3602 42.851 10.3602 42.881 10.3602L43.101 10.38L43.451 10.41V11.2601L43.441 11.2701Z" fill="white"/>
<path d="M40.611 16.1799C40.461 16.1899 40.331 16.1899 40.211 16.1799C40.151 16.1799 40.101 16.1799 40.041 16.1699C39.981 16.1699 39.921 16.1499 39.861 16.1399C39.841 16.0699 39.861 15.96 39.901 15.8C39.911 15.7 39.941 15.59 39.981 15.46L39.851 15.4399L39.521 15.3899C39.491 15.1799 39.541 14.9499 39.661 14.6899L40.401 14.76C40.311 14.93 40.261 15.1301 40.251 15.3601C40.301 15.3901 40.401 15.4199 40.531 15.4299C40.651 15.4399 40.731 15.46 40.781 15.47L40.631 16.1699L40.611 16.1799ZM41.631 16.0901L41.351 15.53C41.291 15.41 41.321 15.2601 41.461 15.0901L41.711 14.8301L41.021 14.8701L40.581 13.99L41.901 13.3301L42.391 14.3C42.651 14.24 42.871 14.1601 43.061 14.0701L43.241 13.99C43.241 13.99 43.301 13.97 43.311 13.97C43.331 13.97 43.351 13.97 43.391 13.97C43.531 13.97 43.811 14.0299 44.241 14.1299L43.771 14.3701L43.571 14.46L43.411 14.52L43.051 14.6699C42.801 14.7999 42.731 14.9699 42.841 15.1799L42.961 15.4199L41.641 16.0801L41.631 16.0901Z" fill="white"/>
<path d="M40.871 17.52C40.871 17.52 40.721 17.4801 40.501 17.3701C40.451 17.3401 40.401 17.32 40.371 17.3C40.331 17.28 40.301 17.26 40.271 17.24C40.221 17.21 40.181 17.1699 40.161 17.1399C40.161 17.1199 40.161 17.08 40.171 17.02C40.191 16.96 40.211 16.87 40.261 16.77C40.301 16.66 40.341 16.58 40.371 16.52C40.401 16.46 40.431 16.4199 40.451 16.4099C40.491 16.3899 40.631 16.43 40.871 16.53C41.111 16.62 41.231 16.69 41.251 16.73C41.251 16.74 41.201 16.8799 41.081 17.1299C40.961 17.3899 40.891 17.52 40.871 17.53V17.52ZM44.001 16.9199C43.741 17.0199 43.421 17.0999 43.051 17.1699L42.591 17.27C42.511 17.29 42.431 17.3101 42.351 17.3201C42.281 17.3301 42.191 17.3501 42.081 17.3601L41.471 15.73L42.861 15.21L43.341 16.51H43.391C43.511 16.45 43.681 16.3299 43.891 16.1299C44.091 15.9499 44.221 15.7999 44.301 15.6599L45.461 15.71C45.031 16.3 44.541 16.6999 43.991 16.8999L44.001 16.9199Z" fill="white"/>
</svg>
