<svg width="309" height="168" viewBox="0 0 309 168" fill="none" xmlns="http://www.w3.org/2000/svg">
<path d="M308.311 167.59H0.210693V0.730469H236.181L308.311 167.59Z" fill="url(#paint0_linear_107_1018)"/>
<path d="M108.281 149.5C143.411 149.5 171.891 121.021 171.891 85.8906C171.891 50.7598 143.411 22.2805 108.281 22.2805C73.1498 22.2805 44.6707 50.7598 44.6707 85.8906C44.6707 121.021 73.1498 149.5 108.281 149.5Z" fill="white"/>
<path d="M79.2106 85.0103H58.9106V87.6904H79.2106V85.0103Z" fill="#231F20"/>
<path d="M162.481 85.0103H142.181V87.6904H162.481V85.0103Z" fill="#231F20"/>
<path d="M88.0107 113.271H77.9207V64.6606H88.0107V113.271ZM80.5107 110.681H85.4207V67.2407H80.5107V110.681Z" fill="#231F20"/>
<path d="M109.601 116.181C109.411 116.181 90.3907 115.331 85.4707 95.8806L85.4307 95.5607V79.9406L85.5407 79.6906C85.8907 78.9106 94.3607 60.5205 111.421 61.3005L111.301 63.8605C96.9607 63.1505 89.0207 78.4104 87.9907 80.5105V95.4108C92.4907 112.811 108.981 113.601 109.681 113.621L109.591 116.181H109.601Z" fill="#231F20"/>
<path d="M109.641 99.9004V107.311L107.921 106.791L105.141 107.891L103.071 105.69L99.4506 105.82V102.911L96.2206 102.851V100.26L93.2506 97.8706L94.0906 95.0303L91.3106 92.5103L92.7306 90.0503L90.5306 87.0806L92.7306 84.6206L91.7606 81.8403L94.1506 79.7705L93.1206 77.3105L96.4206 76.0205L96.1606 73.3003L99.7206 72.4604L100.101 69.9404H103.731L105.671 68.0005L106.581 68.7803C106.581 68.7803 108.931 68.3305 109.661 68.5205V74.6006C109.661 74.6006 100.241 76.7306 100.441 88.3706C100.441 88.3706 99.4306 97.2004 109.661 99.9004H109.641Z" fill="#231F20"/>
<path d="M121.281 68.2705V111.19C121.281 111.19 125.331 115.33 122.141 116.53C122.141 116.53 116.711 117.22 116.451 115.15V64.1206C116.451 64.1206 120.781 59.7906 124.081 62.3706C124.081 62.3706 125.461 64.3705 121.281 68.2505V68.2705Z" fill="#2E3190"/>
<path d="M135.151 63.2704V114.73C135.151 114.73 133.081 118.011 128.431 115.681C128.431 115.681 127.911 113.44 131.191 110.51V68.7905C131.191 68.7905 127.661 62.5302 130.931 61.5702C130.931 61.5702 133.081 60.8602 135.151 63.2802V63.2704Z" fill="#2E3190"/>
<path d="M136.751 116.65V63.4906C136.751 63.4906 140.411 60.8602 142.911 62.8402C142.911 62.8402 144.461 64.8203 141.191 67.7503V110.61C141.191 110.61 143.221 113.13 142.181 115.59C142.181 115.59 140.821 117.9 136.751 116.65Z" fill="#2E3190"/>
<path d="M114.901 63.6206V115.081C114.901 115.081 111.801 117.411 109.211 115.081C109.211 115.081 107.391 113.101 110.761 108.701V60.8604L115.851 63.0103C115.851 63.0103 115.101 63.2304 114.901 63.6104V63.6206Z" fill="#2E3190"/>
<path d="M110.761 62.3906H108.721V68.7905H110.761V62.3906Z" fill="#231F20"/>
<path d="M132.361 84.4707H119.751V90.7705H132.361V84.4707Z" fill="#2E3190"/>
<path d="M57.7906 99.1606L67.7806 96.4106L68.1506 97.7603L63.7106 98.9805L68.9006 100.491L69.4006 102.311L64.8106 100.86L59.4406 105.201L58.9606 103.451L63.1406 100.32L61.1706 99.6807L58.1506 100.51L57.7806 99.1606H57.7906Z" fill="#231F20"/>
<path d="M69.5306 102.55L70.1006 103.831L64.9706 106.11C64.1606 106.47 63.6306 106.72 63.4106 106.86C63.0506 107.09 62.7906 107.36 62.6506 107.67C62.5106 107.98 62.5106 108.32 62.6706 108.67C62.8306 109.03 63.0606 109.26 63.3706 109.34C63.6806 109.43 64.0006 109.421 64.3406 109.311C64.6806 109.201 65.2206 108.98 65.9706 108.65L71.2106 106.32L71.7806 107.601L66.8006 109.811C65.6606 110.321 64.8406 110.64 64.3406 110.78C63.8406 110.92 63.3906 110.971 62.9806 110.931C62.5706 110.891 62.2106 110.75 61.8806 110.53C61.5506 110.3 61.2706 109.94 61.0506 109.44C60.7806 108.83 60.6806 108.33 60.7506 107.92C60.8206 107.51 60.9806 107.151 61.2306 106.811C61.4806 106.481 61.7806 106.2 62.1206 105.98C62.6306 105.66 63.4106 105.261 64.4706 104.791L69.5206 102.55H69.5306Z" fill="#231F20"/>
<path d="M64.0006 114.92L71.7006 107.791L72.5006 108.98L67.1606 113.8L73.7906 110.911L74.7206 112.3L69.3706 117.331L75.9806 114.201L76.7606 115.371L67.2006 119.721L66.3806 118.48L72.0606 113.03L64.8506 116.181L64.0106 114.911L64.0006 114.92Z" fill="#231F20"/>
<path d="M73.2706 126.601L72.2306 125.48L73.5506 123.44L71.6606 121.4L69.5406 122.581L68.5306 121.491L77.9706 116.431L78.9806 117.521L73.2606 126.601H73.2706ZM74.5206 121.92L76.6906 118.601L73.2306 120.53L74.5206 121.92Z" fill="#231F20"/>
<path d="M74.3007 127.411L81.1607 119.641L82.2107 120.57L75.3507 128.34L74.3007 127.411Z" fill="#231F20"/>
<path d="M78.0707 130.521L83.1607 123.57L81.5007 122.351L82.5407 120.931L86.9907 124.19L85.9507 125.601L84.2907 124.38L79.2007 131.331L78.0707 130.5V130.521Z" fill="#231F20"/>
<path d="M90.6706 133.491L91.6306 134.65C90.9606 135.59 90.2906 136.201 89.6206 136.491C88.9506 136.781 88.2706 136.771 87.6006 136.451C86.7706 136.061 86.2806 135.31 86.1406 134.21C86.0006 133.11 86.2806 131.82 86.9706 130.34C87.7006 128.78 88.5406 127.691 89.4906 127.081C90.4406 126.471 91.3506 126.37 92.2306 126.78C93.0006 127.14 93.4606 127.771 93.6306 128.681C93.7306 129.221 93.6706 129.89 93.4606 130.71L91.9906 130.57C92.1406 130.05 92.1706 129.591 92.0606 129.201C91.9606 128.811 91.7406 128.531 91.4006 128.371C90.9306 128.151 90.4406 128.22 89.9106 128.59C89.3906 128.95 88.8606 129.691 88.3406 130.811C87.7806 132.001 87.5306 132.91 87.5806 133.55C87.6306 134.19 87.8806 134.611 88.3406 134.831C88.6806 134.991 89.0406 134.96 89.4306 134.76C89.8206 134.56 90.2306 134.131 90.6606 133.491H90.6706Z" fill="#231F20"/>
<path d="M92.3007 138.26L95.2607 128.331L96.6007 128.73L95.4307 132.641L98.0607 133.42L99.2307 129.51L100.581 129.911L97.6207 139.84L96.2807 139.44L97.5707 135.101L94.9407 134.311L93.6407 138.65L92.3007 138.25V138.26Z" fill="#231F20"/>
<path d="M99.9206 140.351L101.441 130.101L106.531 130.86L106.271 132.59L102.561 132.041L102.221 134.311L105.671 134.82L105.411 136.55L101.961 136.041L101.551 138.831L105.391 139.4L105.131 141.13L99.9106 140.36L99.9206 140.351Z" fill="#231F20"/>
<path d="M107.321 141.351L107.171 130.991L109.271 130.96L110.631 138.01L111.781 130.92L113.881 130.891L114.031 141.25L112.731 141.271L112.611 133.11L111.351 141.291L110.001 141.311L108.511 133.17L108.631 141.331L107.331 141.351H107.321Z" fill="#231F20"/>
<path d="M116.021 141.01L114.811 130.71L116.201 130.55L117.411 140.84L116.021 141V141.01Z" fill="#231F20"/>
<path d="M122.911 135.931L124.381 136.26C124.421 137.41 124.271 138.311 123.921 138.951C123.571 139.591 123.031 139.991 122.301 140.161C121.401 140.361 120.561 140.07 119.771 139.28C118.991 138.49 118.421 137.301 118.061 135.711C117.691 134.031 117.681 132.65 118.061 131.59C118.431 130.53 119.101 129.891 120.051 129.681C120.881 129.501 121.631 129.711 122.311 130.331C122.721 130.691 123.091 131.261 123.421 132.041L122.171 132.82C121.971 132.31 121.711 131.94 121.391 131.69C121.071 131.44 120.731 131.36 120.361 131.44C119.861 131.55 119.511 131.911 119.321 132.521C119.131 133.131 119.171 134.041 119.441 135.241C119.721 136.521 120.081 137.401 120.511 137.871C120.941 138.341 121.401 138.53 121.891 138.42C122.251 138.34 122.531 138.1 122.711 137.69C122.891 137.29 122.961 136.7 122.911 135.94V135.931Z" fill="#231F20"/>
<path d="M132.981 136.46L131.561 137.01L130.151 135.03L127.561 136.03L127.871 138.431L126.481 138.971L125.271 128.331L126.651 127.8L132.981 136.471V136.46ZM129.091 133.561L126.811 130.32L127.321 134.25L129.091 133.57V133.561Z" fill="#231F20"/>
<path d="M134.431 135.69L129.451 126.69L130.681 126.01L134.811 133.48L137.861 131.791L138.711 133.32L134.431 135.69Z" fill="#231F20"/>
<path d="M142.601 130.67L135.971 122.701L137.051 121.8L139.661 124.94L141.771 123.181L139.161 120.041L140.241 119.141L146.871 127.11L145.791 128.01L142.891 124.53L140.781 126.291L143.681 129.771L142.601 130.67Z" fill="#231F20"/>
<path d="M144.641 122.231C143.851 121.531 143.251 120.871 142.861 120.231C142.571 119.761 142.351 119.291 142.221 118.801C142.091 118.311 142.051 117.89 142.111 117.51C142.191 117 142.421 116.541 142.791 116.121C143.471 115.351 144.361 115.051 145.481 115.221C146.601 115.391 147.791 116.031 149.051 117.151C150.301 118.261 151.081 119.351 151.391 120.441C151.701 121.531 151.511 122.451 150.831 123.211C150.151 123.981 149.251 124.291 148.141 124.121C147.031 123.951 145.861 123.331 144.621 122.231H144.641ZM145.541 121.111C146.421 121.891 147.211 122.341 147.901 122.471C148.591 122.601 149.131 122.451 149.501 122.031C149.871 121.611 149.951 121.071 149.741 120.401C149.531 119.731 148.971 119.001 148.071 118.211C147.181 117.421 146.401 116.971 145.731 116.841C145.061 116.711 144.531 116.871 144.151 117.301C143.771 117.731 143.681 118.281 143.891 118.941C144.101 119.601 144.651 120.321 145.541 121.111Z" fill="#231F20"/>
<path d="M145.411 113.311L146.171 112.13L150.901 115.161C151.651 115.641 152.141 115.94 152.381 116.05C152.771 116.23 153.131 116.291 153.471 116.241C153.811 116.191 154.081 116 154.291 115.67C154.511 115.34 154.571 115.021 154.471 114.721C154.371 114.421 154.191 114.161 153.911 113.931C153.631 113.701 153.151 113.371 152.461 112.931L147.641 109.831L148.401 108.65L152.981 111.59C154.031 112.26 154.751 112.77 155.141 113.11C155.531 113.45 155.821 113.8 156.011 114.17C156.201 114.54 156.291 114.911 156.281 115.311C156.271 115.711 156.121 116.141 155.821 116.601C155.461 117.161 155.091 117.521 154.711 117.681C154.331 117.841 153.941 117.91 153.521 117.88C153.111 117.85 152.711 117.75 152.341 117.59C151.791 117.35 151.031 116.91 150.051 116.28L145.401 113.291L145.411 113.311Z" fill="#231F20"/>
<path d="M155.051 111.07L155.441 109.751C156.101 109.961 156.621 110.02 157.021 109.92C157.421 109.82 157.701 109.581 157.881 109.201C158.071 108.791 158.081 108.42 157.911 108.09C157.751 107.76 157.491 107.52 157.141 107.36C156.921 107.26 156.711 107.221 156.511 107.231C156.311 107.251 156.111 107.341 155.891 107.501C155.741 107.611 155.451 107.891 155.011 108.331C154.441 108.901 153.921 109.24 153.421 109.34C152.731 109.49 152.001 109.401 151.261 109.061C150.781 108.841 150.371 108.54 150.041 108.17C149.711 107.8 149.511 107.391 149.451 106.941C149.391 106.5 149.471 106.03 149.691 105.55C150.051 104.76 150.581 104.281 151.291 104.121C151.991 103.961 152.781 104.061 153.661 104.441L153.161 105.751C152.651 105.581 152.251 105.541 151.951 105.621C151.661 105.701 151.431 105.92 151.261 106.28C151.091 106.65 151.071 106.991 151.201 107.311C151.281 107.511 151.451 107.67 151.691 107.78C151.911 107.88 152.131 107.911 152.351 107.851C152.621 107.781 153.011 107.491 153.521 106.971C154.021 106.451 154.461 106.09 154.831 105.9C155.201 105.71 155.631 105.621 156.111 105.641C156.591 105.661 157.131 105.8 157.731 106.07C158.271 106.32 158.731 106.65 159.111 107.07C159.491 107.49 159.711 107.93 159.771 108.4C159.831 108.87 159.741 109.381 159.491 109.931C159.121 110.731 158.571 111.221 157.821 111.391C157.071 111.571 156.161 111.451 155.061 111.061L155.051 111.07Z" fill="#231F20"/>
<path d="M161.181 105.38L151.251 102.411L152.731 97.4805L154.411 97.9805L153.341 101.57L155.541 102.23L156.541 98.8906L158.211 99.3906L157.211 102.73L159.911 103.541L161.021 99.8203L162.691 100.32L161.171 105.38H161.181Z" fill="#231F20"/>
<path d="M54.9307 63.1704C55.2007 63.4804 55.6207 64.0706 56.1807 64.9106L54.5207 66.0303L54.8707 66.6304L55.2307 67.2305C55.0707 67.4905 54.5007 67.8907 53.5107 68.4507C53.3107 68.2007 53.1107 67.9103 52.9007 67.5903C52.7107 67.3103 52.5207 66.9904 52.3207 66.6504C52.4007 66.6304 52.5107 66.5903 52.6507 66.5103L53.1807 66.2104C53.5907 65.9604 53.8207 65.7807 53.8807 65.6807L53.8407 65.5903L53.5807 65.0405L53.1907 64.3105L54.9207 63.1606L54.9307 63.1704ZM62.1307 64.3003L62.3407 64.3804L62.6807 64.5103L63.0507 64.6904L63.5407 63.4805L66.8807 64.7407L64.6707 70.6807C65.0707 71.1007 65.4207 71.5804 65.7107 72.1104C66.0007 72.6404 66.2507 73.2304 66.4507 73.8804C66.6507 74.5304 66.7407 75.1505 66.7307 75.7505C66.7307 76.3505 66.6207 76.9107 66.4307 77.4307C66.0707 78.3907 65.5307 79.0206 64.8007 79.3306C64.0807 79.6306 63.2407 79.6103 62.2807 79.2603C61.8407 79.0903 61.3707 78.8403 60.8907 78.5103C60.4107 78.1703 59.9407 77.7605 59.4707 77.2905C58.9307 76.7605 58.5207 76.2603 58.2307 75.8003C57.9407 75.3303 57.7707 74.8904 57.7107 74.4604C57.8607 74.5204 58.0607 74.6403 58.2907 74.8403C58.4107 74.9403 58.5407 75.0604 58.6807 75.1904C58.8207 75.3204 58.9907 75.5004 59.2107 75.7104C59.8407 76.3604 60.4507 76.7903 61.0307 77.0103C61.7607 77.2803 62.4407 77.2303 63.0607 76.8403C63.3207 76.6503 63.5507 76.4106 63.7607 76.1406C63.9707 75.8606 64.1407 75.5306 64.2907 75.1406C64.4507 74.7006 64.6307 73.8105 64.8107 72.4805L64.7407 72.4307C64.2107 72.2307 63.6907 72.4807 63.1807 73.1807L62.7807 73.8105C62.6007 74.1305 62.4307 74.4804 62.2907 74.8604C61.9407 74.6604 61.5907 74.4006 61.2407 74.0806C61.0507 73.9106 60.8607 73.7305 60.6507 73.5205C60.4407 73.3105 60.2307 73.0806 60.0207 72.8306L62.6007 65.9106C62.0807 65.8606 61.5507 65.8504 61.0207 65.8804C60.5207 65.8804 60.0007 65.9303 59.4507 66.0103L57.4907 64.1104C59.4807 63.8504 61.0207 63.9303 62.1307 64.3403V64.3003ZM68.2507 76.0103C68.6807 76.4503 68.9707 76.8206 69.1107 77.1206C69.0507 77.2206 68.6807 77.4804 68.0207 77.9004C68.1007 78.1404 68.2507 78.4007 68.4807 78.7007C68.2407 79.0707 67.8507 79.3207 67.3207 79.4707L66.5207 78.3706C66.5207 78.3706 66.5607 78.3303 66.5807 78.3203C66.6707 78.2503 66.8207 78.1603 67.0107 78.0503C67.3207 77.9003 67.5007 77.7706 67.5407 77.6606C67.5407 77.6506 67.5407 77.6404 67.5407 77.6304C67.5207 77.5604 67.4907 77.4906 67.4507 77.4106L67.0707 76.7407L67.6007 76.3804L68.2407 76.0103H68.2507Z" fill="#EB1C24"/>
<path d="M65.7706 59.3506L69.4007 62.1807L66.4007 66.8003L63.3406 64.8105L65.8106 61.0103L65.7906 60.9707C64.9406 60.7207 63.9506 60.5306 62.8006 60.3906L61.2906 58.1606C61.4706 58.1606 61.6406 58.1607 61.7906 58.1807C61.9406 58.1907 62.1506 58.2105 62.3906 58.2305C62.5806 58.2505 62.7307 58.2805 62.8307 58.2905C63.1607 58.3305 63.4206 58.3806 63.6206 58.4106C64.0206 58.5106 64.4007 58.6403 64.7607 58.8003C65.1207 58.9603 65.4606 59.1403 65.7706 59.3403V59.3506ZM71.5507 64.3403C71.9307 64.8903 72.2106 65.4407 72.3906 65.9907C72.2706 66.1007 72.0206 66.2103 71.6406 66.3403L70.8206 66.5806L70.9906 67.0205L71.2607 67.6704C70.8307 67.9904 70.2806 68.1807 69.6006 68.2207L68.8406 66.5703C69.3006 66.5303 69.7906 66.3906 70.3206 66.1606C70.3006 66.0106 70.2406 65.8005 70.1406 65.5205C70.0006 65.2205 69.9106 65.0104 69.8906 64.8804L71.5507 64.3306V64.3403Z" fill="#EB1C24"/>
<path d="M74.2007 56.3002L73.5607 57.0502L74.1507 58.1606L74.7707 59.3002C75.2107 60.3602 75.2207 61.1403 74.8007 61.6303C74.4407 62.0603 73.9107 62.5205 73.2307 63.0205C72.4707 63.5505 71.8507 63.8506 71.3807 63.9306C72.6907 62.3906 73.1307 60.4303 72.6807 58.0703C71.9207 58.7803 71.3907 59.2003 71.0907 59.3203C70.4707 59.6103 69.8407 59.4706 69.1907 58.9306C68.8407 58.6306 68.4807 58.2505 68.1307 57.7905C67.7707 57.3305 67.4107 56.7706 67.0407 56.1206C66.1807 54.6006 65.9807 53.5604 66.4507 53.0104C66.7707 52.6304 67.5207 52.6803 68.7007 53.1603C68.8107 53.2103 68.9807 53.2904 69.2307 53.4204C69.4007 53.5104 69.5807 53.6004 69.7707 53.7004C69.8407 53.7404 70.0107 53.8404 70.2907 54.0104C70.5707 54.1804 70.8007 54.3204 70.9807 54.4304L71.4107 53.9204L74.1907 56.2802L74.2007 56.3002ZM69.8107 55.5805C69.7307 55.5105 69.6307 55.4503 69.5207 55.4003C69.4007 55.3503 69.2507 55.3202 69.0507 55.3002C68.7007 55.2302 68.4707 55.2806 68.3407 55.4306C68.3107 55.4606 68.2907 55.5203 68.2807 55.6103V55.8403C68.2707 56.0303 68.2807 56.1704 68.3407 56.2304C68.5107 56.3704 68.7407 56.4203 69.0207 56.3603C69.2507 56.3003 69.4607 56.1805 69.6407 56.0205C69.8207 55.8105 69.8807 55.6603 69.8207 55.5703L69.8107 55.5805Z" fill="#EB1C24"/>
<path d="M79.0307 52.0205L77.9007 53.0405L75.4707 52.4204L76.1107 54.6404L73.4607 57.0303L71.0207 54.3206L73.6207 51.9805L68.6807 51.4705L66.8707 48.0405L69.9907 42.6804L70.5107 43.6206C70.7507 44.0606 70.9907 44.5205 71.2407 45.0005L69.0607 49.2705L72.4407 49.7205C73.8407 49.9105 74.9707 49.9904 75.8607 49.9604L76.5907 49.3005L79.0307 52.0105V52.0205Z" fill="#EB1C24"/>
<path d="M76.6707 42.3406L76.9007 45.1704L79.1607 47.9404C79.2807 48.1104 79.5407 48.5904 79.9507 49.3804C80.3607 50.1704 80.5607 50.6506 80.5707 50.8306L80.3107 51.2505L78.3607 52.6404L76.2407 49.6704L77.9007 48.4805V48.4104L77.8407 48.3306C77.2707 47.5406 76.6307 46.7705 75.9207 46.0405C75.0307 45.1505 74.2407 44.6305 73.5707 44.4905L73.2907 43.5205C73.2607 43.4005 73.2407 43.2904 73.2107 43.1704C73.1807 43.0504 73.1607 42.9406 73.1407 42.8306C72.9507 42.0206 72.9207 41.4704 73.0407 41.1904L73.3307 41.5706C73.5507 41.8806 74.0507 42.0804 74.8507 42.1904C75.1507 42.2304 75.4507 42.2505 75.7307 42.2605C75.9707 42.2605 76.2607 42.2504 76.5807 42.2004L76.6607 42.3206L76.6707 42.3406Z" fill="#EB1C24"/>
<path d="M82.8006 44.6504C83.7406 46.2604 84.1706 47.7305 84.1006 49.0605L79.1906 42.2405C79.0606 42.0605 78.8906 40.8804 78.6506 38.6804C80.7306 41.4904 82.1106 43.4904 82.7906 44.6604L82.8006 44.6504Z" fill="#EB1C24"/>
<path d="M97.6407 39.5706L97.7107 43.2405L91.4907 45.2004C90.2407 45.6004 89.2707 44.7306 88.6007 42.5906C88.3807 41.8906 88.2407 41.1004 88.1707 40.2104C88.0807 39.0604 88.2007 38.3405 88.5307 38.0305C88.6007 38.2405 88.6707 38.5504 88.7507 38.9404C88.8307 39.3304 88.9107 39.6504 88.9807 39.9004C89.1207 40.3404 89.4007 40.7406 89.8207 41.1006C90.2807 41.4906 90.7407 41.6105 91.1807 41.4705L96.2607 39.8706L96.2807 39.8005C96.1807 39.4705 95.7107 38.8605 94.8707 37.9805L95.1107 35.1206C96.1807 36.1906 96.8007 36.9905 96.9707 37.5205L97.6207 39.5906L97.6407 39.5706ZM93.3907 34.1304C93.3207 34.4504 93.2407 34.7706 93.1507 35.1006C93.0607 35.4206 92.9407 35.7606 92.8107 36.1206C92.5707 36.1206 92.2507 36.0504 91.8507 35.9204L90.9007 35.6006C90.7207 35.9206 90.5507 36.3504 90.3707 36.8904L89.9907 36.8206L89.3307 36.6106C88.7707 36.4406 88.4607 36.3105 88.4207 36.2205C88.4007 36.1405 88.6007 35.4905 89.0507 34.2605C90.0607 34.7005 90.6407 34.9006 90.7907 34.8506L90.8407 34.7705L91.1107 34.2205L91.4407 33.4604L93.3907 34.1304Z" fill="#EB1C24"/>
<path d="M102.971 42.3706L100.471 42.7905L98.1907 33.1704C98.1707 33.0304 98.2907 32.6004 98.5707 31.8904L99.1507 30.5305L101.231 38.9705L102.371 38.7805L102.981 42.3706H102.971Z" fill="#EB1C24"/>
<path d="M107.291 37.4504L107.231 42.0505L101.731 42.4504L101.471 38.8206L106.001 38.4905L106.021 38.4504C105.711 37.6204 105.261 36.7105 104.681 35.7205L105.541 33.1704C105.651 33.3104 105.741 33.4506 105.831 33.5806C105.911 33.7106 106.021 33.8806 106.151 34.1006C106.241 34.2706 106.321 34.4005 106.361 34.4905C106.521 34.7805 106.651 35.0204 106.741 35.2004C106.901 35.5804 107.031 35.9606 107.121 36.3406C107.211 36.7206 107.271 37.1005 107.301 37.4705L107.291 37.4504ZM106.801 45.0706C106.591 45.7106 106.321 46.2605 105.991 46.7405C105.831 46.7105 105.591 46.5806 105.261 46.3506L104.571 45.8406L104.321 46.2405L103.961 46.8406C103.451 46.6906 102.971 46.3706 102.521 45.8606L103.371 44.2605C103.681 44.6005 104.091 44.9104 104.591 45.1904C104.701 45.0804 104.831 44.9104 104.991 44.6604C105.141 44.3604 105.261 44.1706 105.351 44.0806L106.791 45.0706H106.801Z" fill="#EB1C24"/>
<path d="M114.711 38.4604C114.671 39.2204 114.571 39.9704 114.411 40.7104C114.331 41.1204 114.231 41.5005 114.131 41.8505C114.031 42.2005 113.891 42.5905 113.721 43.0105C112.961 45.0705 112.011 46.0705 110.891 46.0105C109.781 45.9605 108.581 45.6606 107.291 45.1206L106.781 44.8903L106.731 44.8405L106.651 44.6904L108.381 44.5305C110.121 43.7805 111.411 43.0104 112.281 42.2004C113.141 41.4004 113.601 40.5704 113.641 39.7204L113.591 39.6403C113.191 40.4703 112.971 40.8904 112.951 40.9104C112.671 41.2804 112.251 41.4504 111.691 41.4204C110.611 41.3704 110.101 40.6404 110.171 39.2404C110.191 38.8004 110.271 38.3205 110.411 37.8105C110.551 37.3005 110.781 36.7004 111.101 35.9904C111.421 35.2804 111.741 34.7704 112.071 34.4304C112.391 34.0904 112.731 33.9304 113.091 33.9504L113.271 33.9804C114.321 34.9004 114.801 36.3904 114.691 38.4404L114.711 38.4604ZM113.171 38.1904C113.171 38.0304 113.171 37.8905 113.131 37.7605L113.001 37.4704C112.891 37.1804 112.731 37.0204 112.511 36.9904C112.361 36.9904 112.181 37.0805 111.971 37.2705C111.761 37.4705 111.651 37.6405 111.641 37.8105C111.641 37.9305 111.741 38.0704 111.961 38.2504C112.171 38.3604 112.351 38.4304 112.521 38.4704C112.641 38.4704 112.851 38.4105 113.171 38.2705V38.2004V38.1904Z" fill="#EB1C24"/>
<path d="M119.011 42.9805L116.511 42.5906L117.391 32.7405C117.411 32.6005 117.671 32.2304 118.161 31.6404L119.131 30.5405L118.441 39.2004L119.581 39.3804L119.021 42.9805H119.011Z" fill="#EB1C24"/>
<path d="M125.321 44.6206L123.751 44.2104C123.751 44.2104 123.631 44.3204 123.531 44.4504L123.361 44.7305C123.231 45.0005 123.081 45.1705 122.901 45.2305L120.201 41.3306C120.121 41.4106 120.021 41.5505 119.911 41.7405L119.571 42.3706C119.441 42.7106 119.211 42.8904 118.871 42.9304L118.081 42.7205L119.011 39.2004L120.371 39.5605C120.431 39.5405 120.711 39.2404 121.211 38.6704C121.471 38.3604 121.721 38.1004 121.961 37.9004C122.171 37.7104 122.411 37.5306 122.681 37.3406C123.351 36.9106 124.011 36.7804 124.681 36.9604C124.941 37.0304 125.091 37.1405 125.131 37.2805C125.131 37.3305 125.131 37.4005 125.111 37.4705C125.101 37.5405 125.071 37.6505 125.031 37.8105C124.921 38.2105 124.921 38.7705 125.011 39.4705C125.101 40.1805 125.281 40.6604 125.531 40.9204L126.251 41.1106L125.321 44.6304V44.6206ZM123.311 40.2805L123.391 39.9905L123.411 39.7905C123.411 39.7005 123.411 39.6105 123.411 39.5205C123.421 39.3305 123.391 39.2104 123.331 39.1804L123.141 39.0806C123.031 39.0506 122.881 39.0506 122.691 39.0806C122.491 39.0706 122.361 39.0804 122.301 39.1404C122.441 39.4504 122.781 39.8305 123.311 40.2905V40.2805Z" fill="#EB1C24"/>
<path d="M127.981 48.2805C127.721 48.5405 127.481 48.7604 127.251 48.9404C127.141 49.0304 127.031 49.1204 126.911 49.2004C126.801 49.2804 126.671 49.3604 126.541 49.4304C126.401 49.3304 126.241 49.1105 126.061 48.7505C125.921 48.5505 125.781 48.3005 125.641 48.0105L125.361 48.1904L124.671 48.6504C124.281 48.3104 123.981 47.8004 123.771 47.1404L125.241 46.0605C125.371 46.5205 125.601 46.9604 125.951 47.4104C126.101 47.3904 126.321 47.2806 126.591 47.0806C126.831 46.9006 127.001 46.7905 127.101 46.7505L127.991 48.2805H127.981ZM129.701 46.4404L128.261 45.8804C127.951 45.7604 127.771 45.4304 127.731 44.9004L127.771 44.0105L126.571 45.2205L124.321 44.3406L125.651 40.9504L128.141 41.9304C128.521 41.3904 128.801 40.8804 128.991 40.4004L129.191 39.9604C129.231 39.8904 129.271 39.8305 129.291 39.8005C129.321 39.7705 129.371 39.7304 129.441 39.6704C129.711 39.4604 130.321 39.0805 131.261 38.5605L130.791 39.7705L130.561 40.2705L130.361 40.6504L129.951 41.5305C129.701 42.1705 129.851 42.6006 130.411 42.8206L131.031 43.0605L129.701 46.4504V46.4404Z" fill="#EB1C24"/>
<path d="M135.501 49.5405L134.161 48.8206L133.911 46.3306L132.041 47.6904L128.891 46.0105L130.611 42.8005L133.691 44.4504L132.491 39.6304L135.101 36.7605L141.201 37.8706L140.491 38.6804C140.161 39.0604 139.811 39.4406 139.431 39.8306L134.671 39.2305L135.401 42.5706C135.701 43.9506 136.011 45.0406 136.341 45.8606L137.211 46.3206L135.491 49.5405H135.501Z" fill="#EB1C24"/>
<path d="M143.851 44.0606L141.261 45.2305L139.421 48.2906C139.301 48.4606 138.941 48.8705 138.331 49.5205C137.721 50.1705 137.341 50.5306 137.181 50.5906L136.691 50.4905L134.721 49.1304L136.791 46.1304L138.471 47.2906L138.541 47.2605L138.601 47.1805C139.151 46.3805 139.661 45.5206 140.101 44.6006C140.631 43.4606 140.851 42.5406 140.761 41.8606L141.581 41.2705C141.681 41.2005 141.781 41.1406 141.881 41.0806C141.981 41.0206 142.081 40.9604 142.181 40.9004C142.881 40.4504 143.381 40.2305 143.691 40.2505L143.431 40.6604C143.221 40.9704 143.191 41.5206 143.361 42.3006C143.431 42.6006 143.511 42.8804 143.601 43.1504C143.681 43.3804 143.791 43.6405 143.941 43.9305L143.861 44.0506L143.851 44.0606Z" fill="#EB1C24"/>
<path d="M143.711 50.5706C142.511 52.0006 141.271 52.9005 140.001 53.2905L144.761 46.3606C144.881 46.1806 145.941 45.6104 147.931 44.6504C145.991 47.5604 144.581 49.5406 143.711 50.5706Z" fill="#EB1C24"/>
<path d="M151.411 66.0406L150.601 64.9405C150.461 64.7405 150.471 64.4107 150.641 63.9507C150.721 63.7407 150.801 63.5604 150.891 63.4004C150.981 63.2604 151.091 63.1403 151.221 63.0503L149.471 63.4805L146.191 59.0406C145.401 57.9806 145.911 56.7807 147.721 55.4507C147.941 55.2907 148.101 55.1807 148.201 55.1207C148.301 55.0607 148.491 54.9506 148.791 54.7806C149.081 54.6106 149.481 54.4205 149.991 54.2005C151.171 53.6605 151.941 53.5005 152.281 53.7105L152.121 53.8306C151.931 53.9706 151.621 54.1504 151.181 54.3804C150.741 54.6004 150.431 54.7905 150.241 54.9305C149.871 55.2105 149.581 55.6006 149.401 56.1006C149.211 56.6006 149.261 57.0407 149.541 57.4107L152.571 61.5103C152.671 61.5103 152.881 61.4007 153.221 61.2007C153.551 61.0007 153.951 60.7307 154.411 60.3907L157.031 60.3306L155.761 61.2706L154.001 62.3204C153.741 62.5104 153.651 62.7503 153.741 63.0303L154.371 63.8804L151.441 66.0406H151.411ZM157.581 58.3306C157.411 58.3906 157.031 58.4408 156.441 58.4708C155.851 58.5008 155.501 58.4907 155.411 58.4107C155.361 58.3407 155.341 57.6704 155.361 56.4004L154.791 56.3707L153.931 56.3306C153.881 56.1306 153.841 55.7708 153.821 55.2408C153.771 54.6308 153.801 54.2905 153.891 54.2205C154.011 54.1305 154.731 54.1305 156.051 54.2205C156.001 54.3405 155.961 54.6607 155.941 55.1807C155.921 55.6707 155.941 55.9604 156.021 56.0704C156.041 56.0804 156.051 56.0904 156.071 56.0904C156.081 56.0904 156.121 56.1004 156.191 56.1104L156.741 56.1607L157.591 56.2305V58.3204L157.581 58.3306Z" fill="#EB1C24"/>
<path d="M150.591 70.4404C150.231 70.4704 149.901 70.4704 149.601 70.4404C149.461 70.4404 149.321 70.4204 149.181 70.4004C149.041 70.3804 148.901 70.3606 148.751 70.3306C148.711 70.1606 148.751 69.8905 148.851 69.5005C148.881 69.2605 148.941 68.9804 149.041 68.6704L148.711 68.6206L147.891 68.5005C147.831 67.9805 147.941 67.4105 148.231 66.7705L150.051 66.9507C149.841 67.3707 149.711 67.8607 149.681 68.4307C149.811 68.5207 150.041 68.5804 150.381 68.6104C150.681 68.6404 150.881 68.6704 150.981 68.7104L150.611 70.4404H150.591ZM153.101 70.2207L152.401 68.8403C152.251 68.5403 152.341 68.1803 152.671 67.7603L153.291 67.1206L151.591 67.2207L150.501 65.0605L153.761 63.4204L154.961 65.8105C155.601 65.6605 156.151 65.4707 156.621 65.2407L157.061 65.0503C157.141 65.0203 157.201 65.0105 157.241 65.0005C157.281 65.0005 157.351 65.0005 157.441 65.0005C157.791 65.0205 158.491 65.1506 159.541 65.3906L158.381 65.9707L157.881 66.1904L157.471 66.3403L156.581 66.7104C155.961 67.0204 155.791 67.4405 156.061 67.9805L156.361 68.5806L153.101 70.2207Z" fill="#EB1C24"/>
<path d="M151.251 73.7407C151.181 73.7707 150.871 73.6404 150.341 73.3804C150.211 73.3104 150.101 73.2507 150.011 73.2007C149.921 73.1507 149.841 73.0905 149.781 73.0405C149.661 72.9605 149.571 72.8803 149.511 72.8003C149.491 72.7503 149.511 72.6507 149.541 72.4907C149.581 72.3307 149.651 72.1306 149.751 71.8706C149.851 71.6106 149.941 71.4105 150.031 71.2705C150.111 71.1305 150.181 71.0405 150.231 71.0005C150.331 70.9605 150.681 71.0605 151.261 71.2905C151.841 71.5205 152.151 71.6803 152.191 71.7803C152.201 71.8103 152.061 72.1405 151.781 72.7705C151.491 73.4005 151.321 73.7305 151.261 73.7505L151.251 73.7407ZM158.951 72.2705C158.311 72.5105 157.531 72.7104 156.611 72.8804L155.471 73.1206C155.271 73.1706 155.071 73.2107 154.891 73.2407C154.711 73.2707 154.481 73.3106 154.221 73.3506L152.731 69.3403L156.141 68.0703L157.341 71.2803L157.481 71.2505C157.781 71.1405 158.191 70.8406 158.711 70.3506C159.201 69.9106 159.531 69.5307 159.711 69.2007L162.571 69.3306C161.521 70.7806 160.311 71.7605 158.951 72.2705Z" fill="#EB1C24"/>
<defs>
<linearGradient id="paint0_linear_107_1018" x1="0.210693" y1="84.1604" x2="308.311" y2="84.1604" gradientUnits="userSpaceOnUse">
<stop stop-color="#ED801B"/>
<stop offset="0.38" stop-color="#E57114"/>
<stop offset="1" stop-color="#D45107"/>
</linearGradient>
</defs>
</svg>
