<svg width="46" height="46" viewBox="0 0 46 46" fill="none" xmlns="http://www.w3.org/2000/svg">
<path d="M11.401 22.8H3.17102V23.8899H11.401V22.8Z" fill="white"/>
<path d="M45.181 22.8H36.9509V23.8899H45.181V22.8Z" fill="white"/>
<path d="M14.9709 34.26H10.881V14.54H14.9709V34.26ZM11.931 33.21H13.921V15.5901H11.931V33.21Z" fill="white"/>
<path d="M23.731 35.4399C23.651 35.4399 15.9409 35.0999 13.9409 27.1999L13.921 27.0701V20.73L13.9709 20.6299C14.1109 20.3099 17.5509 12.8499 24.4709 13.1699L24.421 14.21C18.601 13.92 15.3809 20.11 14.9609 20.96V27C16.7809 34.06 23.471 34.3799 23.761 34.3899L23.731 35.4299V35.4399Z" fill="white"/>
<path d="M23.751 28.8401V31.8501L23.051 31.6399L21.921 32.0901L21.0809 31.2L19.611 31.25V30.0701L18.301 30.04V28.99L17.0909 28.02L17.431 26.8701L16.301 25.8501L16.881 24.8501L15.991 23.6399L16.881 22.6399L16.491 21.51L17.4609 20.6699L17.041 19.6699L18.381 19.1499L18.281 18.05L19.7209 17.71L19.871 16.6899H21.3409L22.131 15.8999L22.501 16.21C22.501 16.21 23.451 16.0301 23.751 16.1101V18.5801C23.751 18.5801 19.931 19.4499 20.011 24.1699C20.011 24.1699 19.601 27.7501 23.751 28.8501V28.8401Z" fill="white"/>
<path d="M28.4709 15.9999V33.4098C28.4709 33.4098 30.1109 35.09 28.8209 35.58C28.8209 35.58 26.621 35.86 26.511 35.02V14.32C26.511 14.32 28.271 12.56 29.601 13.61C29.601 13.61 30.1609 14.4199 28.4609 15.9999H28.4709Z" fill="white"/>
<path d="M34.101 13.98V34.8602C34.101 34.8602 33.261 36.1901 31.371 35.2401C31.371 35.2401 31.161 34.33 32.491 33.14V16.22C32.491 16.22 31.061 13.6801 32.391 13.2901C32.391 13.2901 33.261 13 34.101 13.98Z" fill="white"/>
<path d="M34.741 35.63V14.0602C34.741 14.0602 36.231 12.9901 37.241 13.8001C37.241 13.8001 37.871 14.6001 36.541 15.7901V33.18C36.541 33.18 37.3609 34.2 36.9409 35.2C36.9409 35.2 36.391 36.14 34.741 35.63Z" fill="white"/>
<path d="M25.881 14.1201V35C25.881 35 24.6209 35.94 23.5709 35C23.5709 35 22.8309 34.1999 24.2009 32.4099V13L26.261 13.8701C26.261 13.8701 25.951 13.9601 25.881 14.1101V14.1201Z" fill="white"/>
<path d="M24.2009 13.6201H23.371V16.22H24.2009V13.6201Z" fill="white"/>
<path d="M32.9709 22.5701H27.851V25.1299H32.9709V22.5701Z" fill="white"/>
<path d="M2.71094 28.53L6.76099 27.4099L6.91101 27.96L5.11096 28.46L7.22095 29.0701L7.42102 29.8101L5.56104 29.22L3.38098 30.98L3.18103 30.27L4.88098 29L4.08093 28.74L2.85095 29.0801L2.70093 28.53H2.71094Z" fill="white"/>
<path d="M7.48096 29.9099L7.71094 30.4299L5.63098 31.3501C5.30098 31.5001 5.09098 31.5999 5.00098 31.6499C4.85098 31.7399 4.75092 31.85 4.69092 31.98C4.63092 32.11 4.64092 32.2399 4.69092 32.3899C4.76092 32.5399 4.85095 32.6299 4.97095 32.6599C5.09095 32.6999 5.22096 32.6899 5.36096 32.6499C5.50096 32.6099 5.721 32.5199 6.021 32.3799L8.151 31.4399L8.38098 31.96L6.36096 32.8601C5.90096 33.0601 5.57096 33.2 5.36096 33.25C5.16096 33.31 4.97104 33.3301 4.81104 33.3101C4.65104 33.2901 4.50096 33.2399 4.36096 33.1499C4.23096 33.0599 4.111 32.91 4.021 32.71C3.911 32.46 3.871 32.2601 3.901 32.0901C3.931 31.9301 3.99095 31.7799 4.10095 31.6399C4.20095 31.5099 4.32094 31.3901 4.46094 31.3101C4.66094 31.1801 4.98101 31.0201 5.41101 30.8301L7.46094 29.9199L7.48096 29.9099Z" fill="white"/>
<path d="M5.23096 34.9299L8.36096 32.04L8.68103 32.52L6.51099 34.48L9.20093 33.3101L9.58093 33.8701L7.41101 35.9099L10.0909 34.6399L10.411 35.1201L6.53101 36.8799L6.20093 36.3799L8.50098 34.1699L5.57092 35.45L5.23096 34.9399V34.9299Z" fill="white"/>
<path d="M8.99097 39.6699L8.57092 39.22L9.10095 38.3899L8.33093 37.5601L7.47095 38.04L7.06104 37.6001L10.891 35.55L11.301 35.99L8.98096 39.6799L8.99097 39.6699ZM9.50098 37.77L10.381 36.4299L8.98096 37.21L9.50098 37.77Z" fill="white"/>
<path d="M9.41101 40L12.1909 36.8501L12.621 37.23L9.84094 40.3799L9.41101 40Z" fill="white"/>
<path d="M10.9409 41.26L13.011 38.4399L12.3409 37.95L12.761 37.3799L14.5709 38.7L14.151 39.27L13.481 38.78L11.411 41.6001L10.9509 41.26H10.9409Z" fill="white"/>
<path d="M16.051 42.4599L16.4409 42.9298C16.1709 43.3098 15.9009 43.5598 15.6209 43.6798C15.3509 43.7998 15.071 43.7898 14.801 43.6598C14.461 43.4998 14.2609 43.1999 14.2109 42.7499C14.1509 42.2999 14.271 41.7798 14.551 41.1798C14.851 40.5498 15.1909 40.11 15.5709 39.86C15.9509 39.61 16.321 39.5699 16.681 39.7399C16.991 39.8899 17.1809 40.1399 17.2509 40.5099C17.2909 40.7299 17.271 41 17.181 41.33L16.5909 41.2699C16.6509 41.0599 16.6609 40.8699 16.6209 40.7099C16.5809 40.5499 16.4909 40.44 16.3509 40.37C16.1609 40.28 15.9609 40.3099 15.7509 40.4599C15.5409 40.6099 15.3209 40.91 15.1109 41.36C14.8809 41.84 14.781 42.2099 14.801 42.4699C14.821 42.7299 14.9209 42.8999 15.1109 42.9899C15.2509 43.0499 15.391 43.0399 15.551 42.9599C15.711 42.8799 15.881 42.7099 16.051 42.4499V42.4599Z" fill="white"/>
<path d="M16.7109 44.3999L17.911 40.3701L18.4509 40.53L17.981 42.1201L19.051 42.4399L19.521 40.8501L20.0709 41.01L18.871 45.04L18.3309 44.8799L18.861 43.1201L17.791 42.8L17.261 44.5601L16.7209 44.3999H16.7109Z" fill="white"/>
<path d="M19.801 45.24L20.421 41.0801L22.491 41.3899L22.391 42.0901L20.891 41.8701L20.751 42.79L22.151 43L22.051 43.7L20.651 43.49L20.481 44.6201L22.041 44.8501L21.9409 45.55L19.8209 45.24H19.801Z" fill="white"/>
<path d="M22.811 45.6499L22.751 41.45H23.601L24.151 44.3L24.611 41.4199H25.4609L25.521 45.6101H24.991L24.9409 42.3101L24.431 45.6299H23.881L23.281 42.3401L23.3309 45.6499H22.801H22.811Z" fill="white"/>
<path d="M26.3409 45.51L25.851 41.3301L26.411 41.26L26.901 45.4399L26.3409 45.51Z" fill="white"/>
<path d="M29.1309 43.45L29.7209 43.5802C29.7409 44.0502 29.671 44.41 29.531 44.67C29.391 44.93 29.1709 45.09 28.8709 45.16C28.5009 45.24 28.1609 45.1201 27.8409 44.8001C27.5209 44.4801 27.291 44.0002 27.151 43.3502C27.001 42.6702 27.001 42.11 27.151 41.68C27.301 41.25 27.5709 40.99 27.9609 40.91C28.3009 40.84 28.6009 40.92 28.8809 41.17C29.0409 41.32 29.1909 41.5502 29.3309 41.8602L28.8209 42.18C28.7409 41.97 28.6309 41.8201 28.5009 41.7201C28.3709 41.6201 28.2309 41.5902 28.0809 41.6202C27.8809 41.6702 27.741 41.8101 27.661 42.0601C27.581 42.3101 27.6009 42.67 27.7109 43.16C27.8309 43.68 27.9709 44.0301 28.1409 44.2301C28.3109 44.4201 28.5009 44.5 28.7009 44.45C28.8509 44.42 28.961 44.32 29.031 44.16C29.101 44 29.1309 43.76 29.1109 43.45H29.1309Z" fill="white"/>
<path d="M33.2109 43.6699L32.631 43.8899L32.061 43.0901L31.011 43.5L31.141 44.47L30.5809 44.6899L30.0909 40.3701L30.651 40.1499L33.2209 43.6699H33.2109ZM31.641 42.49L30.7209 41.1699L30.931 42.76L31.651 42.48L31.641 42.49Z" fill="white"/>
<path d="M33.801 43.3501L31.781 39.7L32.281 39.4199L33.9609 42.45L35.2009 41.76L35.541 42.3799L33.801 43.3401V43.3501Z" fill="white"/>
<path d="M37.121 41.3201L34.431 38.0901L34.871 37.73L35.931 39L36.791 38.29L35.731 37.02L36.171 36.6599L38.861 39.8899L38.421 40.25L37.241 38.8401L36.381 39.55L37.561 40.96L37.121 41.3201Z" fill="white"/>
<path d="M37.941 37.9C37.621 37.62 37.381 37.3502 37.221 37.0902C37.101 36.9002 37.021 36.7101 36.961 36.5101C36.901 36.3101 36.8911 36.1401 36.9211 35.9901C36.9511 35.7901 37.051 35.6 37.201 35.42C37.471 35.11 37.8411 34.9901 38.2911 35.0501C38.7411 35.1201 39.231 35.3801 39.741 35.8301C40.251 36.2801 40.571 36.72 40.691 37.16C40.811 37.6 40.741 37.9701 40.461 38.2801C40.181 38.5901 39.821 38.72 39.371 38.65C38.921 38.58 38.441 38.33 37.941 37.88V37.9ZM38.3111 37.44C38.6711 37.76 38.991 37.9401 39.271 37.9901C39.551 38.0401 39.7711 37.9901 39.9211 37.8101C40.0711 37.6401 40.101 37.42 40.021 37.15C39.931 36.88 39.711 36.5801 39.341 36.2601C38.981 35.9401 38.661 35.76 38.391 35.71C38.121 35.66 37.901 35.72 37.751 35.9C37.601 36.08 37.561 36.3001 37.641 36.5601C37.731 36.8301 37.9511 37.12 38.3111 37.44Z" fill="white"/>
<path d="M38.261 34.27L38.5709 33.79L40.491 35.02C40.791 35.22 40.9909 35.3399 41.0909 35.3799C41.2509 35.4499 41.401 35.48 41.531 35.46C41.671 35.44 41.781 35.36 41.861 35.23C41.951 35.09 41.971 34.9701 41.931 34.8401C41.891 34.7101 41.8209 34.61 41.7009 34.52C41.5909 34.43 41.391 34.2901 41.111 34.1101L39.151 32.8501L39.4609 32.3701L41.3209 33.5601C41.7509 33.8301 42.0409 34.0399 42.2009 34.1799C42.3609 34.3199 42.481 34.4601 42.551 34.6101C42.621 34.7601 42.661 34.9101 42.661 35.0701C42.661 35.2301 42.6009 35.4101 42.4709 35.5901C42.3209 35.8201 42.171 35.96 42.021 36.03C41.871 36.1 41.711 36.1201 41.541 36.1101C41.371 36.1001 41.211 36.06 41.061 35.99C40.841 35.89 40.531 35.71 40.131 35.46L38.241 34.25L38.261 34.27Z" fill="white"/>
<path d="M42.171 33.36L42.3309 32.82C42.6009 32.91 42.811 32.9298 42.971 32.8898C43.131 32.8498 43.2509 32.75 43.3209 32.6C43.4009 32.43 43.4009 32.2798 43.3309 32.1498C43.2609 32.0198 43.161 31.92 43.021 31.85C42.931 31.81 42.841 31.79 42.771 31.8C42.691 31.8 42.611 31.8398 42.521 31.9098C42.461 31.9598 42.341 32.0699 42.161 32.2499C41.931 32.4799 41.721 32.6198 41.521 32.6598C41.241 32.7198 40.951 32.68 40.641 32.54C40.451 32.45 40.281 32.3298 40.141 32.1798C40.001 32.0298 39.921 31.8598 39.901 31.6798C39.881 31.4998 39.901 31.31 40.001 31.11C40.151 30.79 40.361 30.5899 40.651 30.5299C40.941 30.4599 41.251 30.5098 41.611 30.6598L41.411 31.1899C41.201 31.1199 41.041 31.1098 40.921 31.1398C40.801 31.1698 40.711 31.2598 40.641 31.4098C40.571 31.5598 40.561 31.7 40.621 31.83C40.651 31.91 40.7209 31.9799 40.8209 32.0199C40.9109 32.0599 41.001 32.07 41.091 32.05C41.201 32.02 41.361 31.8999 41.561 31.6899C41.761 31.4799 41.941 31.3299 42.091 31.2599C42.241 31.1899 42.411 31.1498 42.611 31.1498C42.811 31.1498 43.021 31.22 43.271 31.33C43.491 31.43 43.6809 31.5599 43.8309 31.7299C43.9809 31.8999 44.071 32.0799 44.101 32.2699C44.131 32.4599 44.091 32.6698 43.991 32.8898C43.841 33.2098 43.621 33.4099 43.311 33.4799C43.011 33.5499 42.6309 33.51 42.1909 33.34L42.171 33.36Z" fill="white"/>
<path d="M44.651 31.0601L40.621 29.8501L41.2209 27.8501L41.901 28.05L41.4609 29.51L42.351 29.78L42.761 28.4199L43.4409 28.6201L43.031 29.98L44.131 30.3101L44.5809 28.8L45.261 29L44.651 31.05V31.0601Z" fill="white"/>
<path d="M1.55103 13.9299C1.66103 14.0599 1.83104 14.2899 2.06104 14.6399L1.39099 15.0901L1.53101 15.3401L1.68103 15.5801C1.62103 15.6801 1.38096 15.8501 0.980957 16.0701C0.900957 15.9701 0.820957 15.85 0.730957 15.72C0.650957 15.61 0.580977 15.4801 0.500977 15.3401C0.530977 15.3401 0.580991 15.31 0.640991 15.28L0.850952 15.1599C1.02095 15.0599 1.11098 14.99 1.13098 14.95L1.11096 14.9099L1.00098 14.6899L0.840942 14.3899L1.54102 13.9199L1.55103 13.9299ZM4.47095 14.3899L4.56104 14.4199L4.70093 14.47L4.85095 14.54L5.05103 14.05L6.401 14.5601L5.50098 16.97C5.66098 17.14 5.80102 17.34 5.92102 17.55C6.04102 17.76 6.14095 18 6.22095 18.27C6.30095 18.53 6.34094 18.78 6.34094 19.03C6.34094 19.27 6.30095 19.5 6.22095 19.71C6.07095 20.1 5.85104 20.36 5.56104 20.48C5.27104 20.6 4.93102 20.59 4.54102 20.45C4.36102 20.38 4.17096 20.2799 3.98096 20.1399C3.79096 19.9999 3.591 19.8399 3.401 19.6399C3.181 19.4199 3.011 19.22 2.901 19.03C2.781 18.84 2.71092 18.66 2.69092 18.49C2.75092 18.51 2.83102 18.5599 2.92102 18.6399C2.97102 18.6799 3.02093 18.73 3.08093 18.78C3.14093 18.83 3.21102 18.9 3.29102 18.99C3.55102 19.25 3.79101 19.43 4.03101 19.52C4.33101 19.63 4.60096 19.61 4.86096 19.45C4.97096 19.37 5.06099 19.2799 5.14099 19.1699C5.22099 19.0599 5.30096 18.92 5.36096 18.76C5.43096 18.58 5.50092 18.2199 5.57092 17.6799L5.54102 17.6599C5.33102 17.5799 5.11101 17.68 4.91101 17.96L4.75098 18.22C4.68098 18.35 4.61103 18.4899 4.55103 18.6499C4.41103 18.5699 4.27097 18.4601 4.12097 18.3301C4.04097 18.2601 3.96098 18.1901 3.88098 18.1001C3.80098 18.0201 3.71097 17.9201 3.62097 17.8201L4.67102 15.01C4.46102 14.99 4.24101 14.99 4.03101 15C3.83101 15 3.62099 15.02 3.39099 15.05L2.59094 14.28C3.40094 14.18 4.02095 14.2101 4.47095 14.3701V14.3899ZM6.96094 19.1399C7.14094 19.3199 7.25104 19.4701 7.31104 19.5901C7.29104 19.6301 7.14097 19.7399 6.87097 19.9099C6.90097 20.0099 6.97104 20.11 7.06104 20.24C6.96104 20.39 6.81094 20.49 6.59094 20.55L6.271 20.1001C6.271 20.1001 6.29103 20.0901 6.30103 20.0801C6.34103 20.0501 6.40096 20.02 6.48096 19.97C6.61096 19.91 6.68093 19.8601 6.70093 19.8101C6.70093 19.8101 6.70093 19.81 6.70093 19.8C6.70093 19.77 6.68101 19.74 6.66101 19.71L6.51099 19.4399L6.73096 19.29L6.99097 19.1399H6.96094Z" fill="white"/>
<path d="M5.95093 12.3899L7.42102 13.54L6.20093 15.4199L4.96094 14.6101L5.96094 13.0701C5.62094 12.9501 5.21098 12.8701 4.75098 12.8201L4.14099 11.9199C4.21099 11.9199 4.28094 11.9199 4.34094 11.9199C4.40094 11.9199 4.48094 11.9299 4.59094 11.9399C4.67094 11.9399 4.731 11.96 4.771 11.97C4.901 11.99 5.01094 12 5.09094 12.02C5.25094 12.06 5.41103 12.1099 5.55103 12.1799C5.70103 12.2399 5.83094 12.3199 5.96094 12.3999L5.95093 12.3899ZM8.29102 14.4099C8.44102 14.6299 8.56098 14.8601 8.63098 15.0801C8.58098 15.1201 8.48093 15.17 8.33093 15.22L8.00098 15.3201L8.07092 15.5L8.18103 15.76C8.01103 15.89 7.78099 15.97 7.51099 15.98L7.20093 15.3101C7.39093 15.2901 7.59103 15.2399 7.80103 15.1399C7.80103 15.0799 7.77096 14.9899 7.73096 14.8799C7.67096 14.7599 7.64098 14.6701 7.63098 14.6201L8.30103 14.3999L8.29102 14.4099Z" fill="white"/>
<path d="M9.37103 11.1499L9.11102 11.4599L9.35101 11.9099L9.60101 12.3701C9.78101 12.8001 9.78102 13.12 9.61102 13.31C9.46102 13.48 9.25101 13.6699 8.97101 13.8799C8.66101 14.0899 8.41101 14.22 8.22101 14.25C8.75101 13.62 8.93104 12.8301 8.75104 11.8701C8.44104 12.1601 8.23101 12.3299 8.10101 12.3799C7.85101 12.4999 7.59099 12.4399 7.33099 12.2199C7.19099 12.0999 7.04106 11.94 6.90106 11.76C6.76106 11.57 6.611 11.3501 6.461 11.0801C6.111 10.4601 6.03101 10.04 6.22101 9.82004C6.35101 9.67004 6.65104 9.68986 7.13104 9.87986C7.17104 9.89986 7.241 9.92996 7.341 9.97996C7.411 10.02 7.4811 10.0501 7.5611 10.0901C7.5911 10.1101 7.66106 10.1499 7.77106 10.2199C7.88106 10.2899 7.98109 10.3499 8.05109 10.3899L8.23102 10.1799L9.36102 11.1399L9.37103 11.1499ZM7.591 10.8501C7.591 10.8501 7.52101 10.8 7.47101 10.78C7.42101 10.76 7.36107 10.75 7.28107 10.74C7.14107 10.71 7.04103 10.74 6.99103 10.79C6.98103 10.8 6.97101 10.8301 6.97101 10.8601V10.9499C6.97101 11.0299 6.97103 11.0801 6.99103 11.1101C7.06103 11.1701 7.15106 11.1899 7.27106 11.1599C7.36106 11.1299 7.45106 11.09 7.52106 11.02C7.59106 10.93 7.621 10.8701 7.591 10.8401V10.8501Z" fill="white"/>
<path d="M11.3309 9.40991L10.871 9.82007L9.89099 9.57007L10.151 10.47L9.07092 11.4399L8.08093 10.3401L9.13098 9.38989L7.13098 9.17993L6.39099 7.79004L7.651 5.62012L7.86096 6C7.96096 6.18 8.061 6.37006 8.151 6.56006L7.271 8.29004L8.64099 8.46997C9.21099 8.54997 9.67101 8.58007 10.031 8.57007L10.3309 8.30005L11.3209 9.3999L11.3309 9.40991Z" fill="white"/>
<path d="M10.3709 5.47998L10.4609 6.62988L11.3809 7.75C11.4309 7.82 11.5409 8.01008 11.7009 8.33008C11.8609 8.65008 11.9509 8.84992 11.9509 8.91992L11.8409 9.09009L11.051 9.65991L10.1909 8.45996L10.8609 7.97998V7.94995L10.8409 7.91992C10.6109 7.59992 10.351 7.28999 10.061 6.98999C9.70099 6.62999 9.38091 6.42011 9.11091 6.36011L9.00093 5.96997C9.00093 5.96997 8.9809 5.88008 8.9709 5.83008C8.9609 5.78008 8.95087 5.73994 8.94087 5.68994C8.86087 5.35994 8.85095 5.14003 8.90095 5.03003L9.02095 5.17993C9.11095 5.29993 9.31094 5.38993 9.64094 5.42993C9.76094 5.44993 9.88093 5.45996 10.0009 5.45996C10.1009 5.45996 10.2109 5.45994 10.3509 5.43994L10.3809 5.48999L10.3709 5.47998Z" fill="white"/>
<path d="M12.861 6.41992C13.241 7.06992 13.421 7.66996 13.391 8.20996L11.401 5.43994C11.351 5.36994 11.281 4.88999 11.181 3.98999C12.021 5.12999 12.591 5.93991 12.861 6.40991V6.41992Z" fill="white"/>
<path d="M18.881 4.36011L18.911 5.8501L16.391 6.6499C15.881 6.8099 15.491 6.46009 15.221 5.59009C15.131 5.31009 15.0711 4.99012 15.0511 4.62012C15.0111 4.15012 15.0609 3.85998 15.1909 3.72998C15.2209 3.81998 15.251 3.9401 15.281 4.1001C15.311 4.2601 15.341 4.38999 15.381 4.48999C15.441 4.66999 15.551 4.82998 15.721 4.97998C15.911 5.13998 16.091 5.18988 16.271 5.12988L18.331 4.47998V4.44995C18.291 4.31995 18.111 4.06996 17.771 3.70996L17.871 2.55005C18.311 2.98005 18.561 3.31003 18.631 3.53003L18.901 4.37012L18.881 4.36011ZM17.151 2.1499C17.121 2.2799 17.0911 2.41004 17.0511 2.54004C17.0111 2.67004 16.971 2.80995 16.911 2.94995C16.811 2.94995 16.681 2.92012 16.521 2.87012L16.131 2.73999C16.061 2.86999 15.9911 3.04001 15.9211 3.26001L15.771 3.22998L15.501 3.13989C15.271 3.06989 15.151 3.01998 15.131 2.97998C15.131 2.94998 15.201 2.67993 15.391 2.17993C15.801 2.35993 16.031 2.43992 16.091 2.41992L16.111 2.38989L16.221 2.16992L16.351 1.86011L17.141 2.12988L17.151 2.1499Z" fill="white"/>
<path d="M21.041 5.5L20.031 5.66992L19.111 1.77002C19.111 1.71002 19.151 1.54 19.271 1.25L19.501 0.699951L20.3409 4.12012L20.801 4.04004L21.051 5.5H21.041Z" fill="white"/>
<path d="M22.791 3.5L22.761 5.37012L20.531 5.53003L20.421 4.06006L22.261 3.92993V3.90991C22.141 3.57991 21.9609 3.21005 21.7209 2.80005L22.0709 1.77002C22.1109 1.83002 22.1509 1.87994 22.1909 1.93994C22.2209 1.98994 22.2709 2.0599 22.3209 2.1499C22.3609 2.2199 22.391 2.27006 22.411 2.31006C22.481 2.43006 22.531 2.5201 22.561 2.6001C22.631 2.7501 22.6809 2.91006 22.7209 3.06006C22.7609 3.22006 22.781 3.37002 22.791 3.52002V3.5ZM22.5909 6.59009C22.5009 6.85009 22.391 7.07002 22.261 7.27002C22.201 7.26002 22.1009 7.21011 21.9709 7.11011L21.6909 6.8999L21.5909 7.06006L21.4509 7.30005C21.2409 7.24005 21.051 7.1099 20.871 6.8999L21.2209 6.25C21.3509 6.39 21.5109 6.51988 21.7209 6.62988C21.7609 6.58988 21.821 6.51992 21.881 6.41992C21.941 6.29992 21.991 6.21993 22.021 6.17993L22.601 6.58008L22.5909 6.59009Z" fill="white"/>
<path d="M25.801 3.91C25.781 4.22 25.741 4.52016 25.681 4.82016C25.651 4.99016 25.6109 5.14012 25.5709 5.28012C25.5309 5.42012 25.471 5.58009 25.401 5.75009C25.091 6.58009 24.711 6.99006 24.251 6.97006C23.801 6.95006 23.311 6.8302 22.791 6.6102L22.5809 6.52011L22.561 6.50009L22.531 6.44003L23.231 6.37997C23.931 6.07997 24.461 5.76003 24.811 5.44003C25.161 5.11003 25.341 4.78002 25.361 4.43002L25.3409 4.39999C25.1809 4.73999 25.0909 4.91001 25.0809 4.92001C24.9609 5.07001 24.8009 5.13997 24.5709 5.12997C24.1309 5.10997 23.9309 4.81009 23.9509 4.25009C23.9509 4.07009 23.991 3.88001 24.051 3.67001C24.111 3.46001 24.2009 3.22002 24.3309 2.93002C24.4609 2.64002 24.5909 2.43014 24.7209 2.30014C24.8509 2.16014 24.991 2.1002 25.131 2.1102H25.2009C25.6309 2.5002 25.821 3.10002 25.781 3.93002L25.801 3.91ZM25.181 3.80014C25.181 3.74014 25.181 3.68021 25.171 3.62021L25.121 3.50009C25.081 3.38009 25.011 3.32014 24.921 3.30014C24.861 3.30014 24.7909 3.34 24.7009 3.41C24.6109 3.49 24.5709 3.55997 24.5709 3.62997C24.5709 3.67997 24.6109 3.74015 24.7009 3.81015C24.7809 3.85015 24.861 3.87999 24.931 3.89999C24.981 3.89999 25.0609 3.88016 25.1909 3.82016V3.79013L25.181 3.80014Z" fill="white"/>
<path d="M27.551 5.75L26.531 5.59009L26.891 1.59009C26.891 1.53009 27.0009 1.3799 27.2009 1.1499L27.601 0.699951L27.3209 4.20996L27.781 4.28003L27.551 5.73999V5.75Z" fill="white"/>
<path d="M30.111 6.40979L29.4709 6.23987C29.4709 6.23987 29.421 6.27997 29.381 6.33997L29.311 6.44983C29.261 6.55983 29.201 6.62978 29.121 6.64978L28.021 5.06995C28.021 5.06995 27.951 5.15987 27.901 5.23987L27.761 5.49988C27.711 5.63988 27.611 5.70986 27.481 5.72986L27.161 5.64978L27.541 4.21985L28.0909 4.37C28.0909 4.37 28.231 4.23989 28.431 4.00989C28.541 3.88989 28.641 3.77983 28.731 3.69983C28.821 3.61983 28.911 3.54985 29.021 3.46985C29.291 3.29985 29.5609 3.23994 29.8309 3.30994C29.9409 3.33994 30.001 3.37982 30.011 3.43982C30.011 3.45982 30.011 3.4899 30.011 3.5199C30.011 3.5499 29.991 3.58979 29.981 3.65979C29.941 3.81979 29.931 4.04996 29.981 4.32996C30.021 4.61996 30.0909 4.8098 30.1909 4.9198L30.481 4.99988L30.101 6.42981L30.111 6.40979ZM29.291 4.64978L29.3209 4.52991V4.44983C29.3209 4.44983 29.3309 4.37997 29.3209 4.33997C29.3209 4.25997 29.321 4.21983 29.291 4.19983L29.2109 4.15979C29.2109 4.15979 29.111 4.14979 29.031 4.15979C28.951 4.15979 28.901 4.15981 28.871 4.17981C28.931 4.29981 29.061 4.45978 29.281 4.64978H29.291Z" fill="white"/>
<path d="M31.181 7.8999C31.081 8.0099 30.981 8.09992 30.881 8.16992C30.831 8.20992 30.791 8.24002 30.741 8.27002C30.691 8.30002 30.6409 8.33011 30.5909 8.36011C30.5309 8.32011 30.471 8.23008 30.391 8.08008C30.341 8.00008 30.2809 7.90003 30.2209 7.78003L30.111 7.8501L29.8309 8.04004C29.6709 7.90004 29.5509 7.69993 29.4609 7.42993L30.061 6.98999C30.111 7.16999 30.211 7.36004 30.351 7.54004C30.411 7.54004 30.501 7.48991 30.611 7.40991C30.711 7.33991 30.7809 7.29002 30.8209 7.27002L31.181 7.88989V7.8999ZM31.881 7.1499L31.301 6.91992C31.171 6.86992 31.1009 6.74002 31.0909 6.52002V6.15991L30.621 6.6499L29.7109 6.29004L30.251 4.90991L31.261 5.31006C31.411 5.09006 31.531 4.87994 31.601 4.68994L31.681 4.51001C31.681 4.51001 31.7109 4.45995 31.7209 4.44995C31.7309 4.43995 31.751 4.4199 31.781 4.3999C31.891 4.3099 32.141 4.15995 32.521 3.94995L32.3309 4.43994L32.241 4.63989L32.161 4.80005L31.991 5.15991C31.891 5.41991 31.951 5.59993 32.181 5.67993L32.431 5.78003L31.891 7.15991L31.881 7.1499Z" fill="white"/>
<path d="M34.241 8.3999L33.7009 8.11011L33.601 7.1001L32.8409 7.6499L31.561 6.96997L32.261 5.66992L33.511 6.34009L33.031 4.38989L34.0909 3.22998L36.561 3.67993L36.271 4.01001C36.141 4.16001 35.9909 4.31998 35.8409 4.47998L33.911 4.23999L34.2009 5.59009C34.3209 6.15009 34.4509 6.58993 34.5809 6.92993L34.931 7.12012L34.231 8.41992L34.241 8.3999Z" fill="white"/>
<path d="M37.621 6.17995L36.5709 6.64992L35.8209 7.88991C35.7709 7.95991 35.631 8.12991 35.381 8.38991C35.131 8.64991 34.981 8.80009 34.911 8.82009L34.7109 8.78005L33.911 8.23L34.751 7.01003L35.431 7.48H35.4609L35.481 7.43996C35.701 7.10996 35.9109 6.75991 36.0909 6.38991C36.3109 5.92991 36.401 5.56005 36.361 5.28005L36.6909 5.04006C36.6909 5.04006 36.771 4.98998 36.811 4.95998C36.851 4.92998 36.891 4.90991 36.931 4.88991C37.211 4.70991 37.421 4.6199 37.541 4.6299L37.4409 4.79006C37.3509 4.92006 37.341 5.13997 37.411 5.44997C37.441 5.56997 37.471 5.69007 37.511 5.80007C37.541 5.89007 37.591 6.00014 37.651 6.12014L37.621 6.16994V6.17995Z" fill="white"/>
<path d="M37.5709 8.82007C37.0809 9.40007 36.581 9.76992 36.061 9.91992L37.991 7.11011C38.041 7.04011 38.471 6.80992 39.281 6.41992C38.491 7.59992 37.9209 8.40007 37.5709 8.82007Z" fill="white"/>
<path d="M40.691 15.1L40.361 14.6598C40.301 14.5798 40.311 14.4499 40.371 14.2599C40.401 14.1699 40.441 14.0999 40.471 14.0399C40.511 13.9799 40.551 13.9398 40.611 13.8998L39.901 14.07L38.571 12.2699C38.251 11.8399 38.461 11.35 39.191 10.81C39.281 10.74 39.341 10.6998 39.381 10.6698C39.421 10.6498 39.501 10.5999 39.621 10.5299C39.741 10.4599 39.901 10.39 40.101 10.3C40.581 10.08 40.891 10.02 41.031 10.1L40.971 10.1498C40.891 10.2098 40.771 10.28 40.591 10.37C40.411 10.46 40.291 10.54 40.211 10.59C40.061 10.7 39.941 10.86 39.871 11.06C39.791 11.26 39.8111 11.44 39.9311 11.59L41.1611 13.2499C41.1611 13.2499 41.2911 13.2 41.4211 13.12C41.5511 13.04 41.721 12.9299 41.901 12.7899L42.961 12.7699L42.441 13.1498L41.731 13.58C41.621 13.66 41.591 13.75 41.621 13.87L41.871 14.2099L40.6811 15.09L40.691 15.1ZM43.201 11.9699C43.131 11.9899 42.981 12.0099 42.741 12.0299C42.501 12.0499 42.361 12.0299 42.321 11.9999C42.301 11.9699 42.2911 11.6998 42.3011 11.1898H42.071L41.721 11.1598C41.701 11.0798 41.6811 10.9299 41.6811 10.7199C41.6611 10.4699 41.681 10.34 41.711 10.31C41.761 10.27 42.051 10.27 42.591 10.31C42.571 10.36 42.5511 10.4899 42.5411 10.6999C42.5411 10.8999 42.541 11.02 42.571 11.06C42.571 11.06 42.581 11.06 42.591 11.06C42.591 11.06 42.611 11.06 42.641 11.06L42.861 11.08L43.211 11.11V11.9599L43.201 11.9699Z" fill="white"/>
<path d="M40.3609 16.8799C40.2109 16.8899 40.0809 16.8899 39.9609 16.8799C39.9009 16.8799 39.851 16.8801 39.791 16.8701C39.731 16.8701 39.6709 16.8501 39.6109 16.8401C39.5909 16.7701 39.611 16.66 39.651 16.5C39.661 16.4 39.6909 16.2899 39.7309 16.1599L39.6009 16.1399L39.271 16.0901C39.241 15.8801 39.291 15.6499 39.411 15.3899L40.151 15.46C40.061 15.63 40.0109 15.8301 40.0009 16.0601C40.0509 16.0901 40.151 16.1199 40.281 16.1299C40.401 16.1399 40.481 16.1599 40.531 16.1699L40.3809 16.8701L40.3609 16.8799ZM41.3809 16.79L41.1009 16.23C41.0409 16.11 41.0709 15.96 41.2109 15.79L41.4609 15.53L40.771 15.5701L40.3309 14.6899L41.651 14.03L42.1409 15C42.4009 14.94 42.621 14.86 42.811 14.77L42.9909 14.6899C42.9909 14.6899 43.051 14.6699 43.061 14.6699C43.081 14.6699 43.1009 14.6699 43.1409 14.6699C43.2809 14.6699 43.5609 14.7301 43.9909 14.8301L43.521 15.0701L43.3209 15.1599L43.161 15.22L42.801 15.3701C42.551 15.5001 42.4809 15.6699 42.5909 15.8799L42.7109 16.1201L41.3909 16.78L41.3809 16.79Z" fill="white"/>
<path d="M40.631 18.22C40.631 18.22 40.481 18.1801 40.261 18.0701C40.211 18.0401 40.161 18.02 40.131 18C40.091 17.98 40.061 17.9599 40.031 17.9399C39.981 17.9099 39.941 17.8701 39.921 17.8401C39.921 17.8201 39.921 17.78 39.931 17.72C39.951 17.66 39.971 17.57 40.021 17.47C40.061 17.36 40.101 17.28 40.131 17.22C40.161 17.16 40.1909 17.1201 40.2109 17.1101C40.2509 17.0901 40.391 17.13 40.631 17.23C40.871 17.32 40.991 17.3899 41.011 17.4299C41.011 17.4399 40.9609 17.5801 40.8409 17.8301C40.7209 18.0901 40.651 18.22 40.631 18.23V18.22ZM43.751 17.6201C43.491 17.7201 43.171 17.8001 42.801 17.8701L42.3409 17.97C42.2609 17.99 42.181 18.01 42.101 18.02C42.031 18.03 41.9409 18.0501 41.8309 18.0601L41.2209 16.4299L42.611 15.9099L43.0909 17.21H43.141C43.261 17.15 43.431 17.0301 43.641 16.8301C43.841 16.6501 43.971 16.5001 44.051 16.3601L45.2109 16.4099C44.7809 16.9999 44.291 17.4001 43.741 17.6001L43.751 17.6201Z" fill="white"/>
</svg>
