<svg width="46" height="46" viewBox="0 0 46 46" fill="none" xmlns="http://www.w3.org/2000/svg">
<path d="M11.641 22.72H3.41101V23.8101H11.641V22.72Z" fill="white"/>
<path d="M45.4209 22.72H37.1909V23.8101H45.4209V22.72Z" fill="white"/>
<path d="M15.221 34.1799H11.131V14.46H15.221V34.1799ZM12.171 33.1299H14.161V15.51H12.171V33.1299Z" fill="white"/>
<path d="M23.981 35.3601C23.901 35.3601 16.191 35.0201 14.191 27.1201L14.171 26.99V20.6499L14.221 20.55C14.361 20.23 17.801 12.7701 24.721 13.0901L24.671 14.1299C18.851 13.8399 15.631 20.0299 15.211 20.8799V26.9199C17.031 33.9799 23.721 34.3001 24.011 34.3101L23.981 35.3501V35.3601Z" fill="white"/>
<path d="M23.991 28.76V31.77L23.291 31.5601L22.161 32.01L21.321 31.1201L19.851 31.1699V29.99L18.541 29.96V28.9099L17.331 27.9399L17.671 26.79L16.541 25.77L17.121 24.77L16.231 23.5601L17.121 22.5601L16.731 21.4299L17.701 20.5901L17.281 19.5901L18.621 19.0701L18.521 17.97L19.961 17.6299L20.111 16.6101H21.581L22.371 15.8201L22.741 16.1299C22.741 16.1299 23.691 15.95 23.991 16.03V18.5C23.991 18.5 20.171 19.3701 20.251 24.0901C20.251 24.0901 19.841 27.67 23.991 28.77V28.76Z" fill="white"/>
<path d="M28.711 15.9299V33.34C28.711 33.34 30.351 35.0199 29.061 35.5099C29.061 35.5099 26.861 35.7899 26.751 34.9499V14.2499C26.751 14.2499 28.511 12.49 29.841 13.54C29.841 13.54 30.401 14.3499 28.701 15.9299H28.711Z" fill="white"/>
<path d="M34.341 13.9V34.7801C34.341 34.7801 33.501 36.11 31.611 35.16C31.611 35.16 31.401 34.2501 32.731 33.0601V16.14C32.731 16.14 31.301 13.6 32.631 13.21C32.631 13.21 33.501 12.92 34.341 13.9Z" fill="white"/>
<path d="M34.991 35.5501V13.9801C34.991 13.9801 36.481 12.9101 37.491 13.7201C37.491 13.7201 38.121 14.5201 36.791 15.7101V33.1002C36.791 33.1002 37.611 34.1202 37.191 35.1202C37.191 35.1202 36.641 36.0601 34.991 35.5501Z" fill="white"/>
<path d="M26.131 14.04V34.9199C26.131 34.9199 24.871 35.8599 23.821 34.9199C23.821 34.9199 23.081 34.1201 24.451 32.3301V12.9199L26.511 13.79C26.511 13.79 26.201 13.88 26.131 14.03V14.04Z" fill="white"/>
<path d="M24.451 13.54H23.621V16.1399H24.451V13.54Z" fill="white"/>
<path d="M33.211 22.5H28.0909V25.0601H33.211V22.5Z" fill="white"/>
<path d="M2.96094 28.46L7.01093 27.3401L7.16093 27.8899L5.36093 28.3899L7.47093 29L7.67093 29.74L5.81093 29.1499L3.63094 30.9099L3.43092 30.2L5.13094 28.9299L4.33093 28.6699L3.10094 29.01L2.95093 28.46H2.96094Z" fill="white"/>
<path d="M7.72099 29.8301L7.95099 30.3501L5.87099 31.27C5.54099 31.42 5.331 31.5201 5.241 31.5701C5.091 31.6601 4.99098 31.7699 4.93098 31.8999C4.87098 32.0299 4.88098 32.1601 4.93098 32.3101C5.00098 32.4601 5.091 32.5501 5.211 32.5801C5.331 32.6201 5.461 32.6101 5.601 32.5701C5.741 32.5301 5.96099 32.44 6.26099 32.3L8.39099 31.3601L8.62099 31.8799L6.601 32.78C6.141 32.98 5.811 33.1199 5.601 33.1699C5.401 33.2299 5.21099 33.25 5.05099 33.23C4.89099 33.21 4.741 33.1601 4.601 33.0701C4.471 32.9801 4.35099 32.8299 4.26099 32.6299C4.15099 32.3799 4.11099 32.18 4.14099 32.01C4.17099 31.85 4.23099 31.7001 4.34099 31.5601C4.44099 31.4301 4.56099 31.31 4.70099 31.23C4.90099 31.1 5.22099 30.94 5.65099 30.75L7.70099 29.8401L7.72099 29.8301Z" fill="white"/>
<path d="M5.48096 34.8501L8.61096 31.96L8.93095 32.4399L6.76096 34.3999L9.45096 33.23L9.83096 33.79L7.66096 35.8301L10.341 34.5601L10.661 35.04L6.78096 36.8L6.45096 36.3L8.75096 34.0901L5.82097 35.3701L5.48096 34.8601V34.8501Z" fill="white"/>
<path d="M9.24092 39.5901L8.82092 39.1399L9.35092 38.3101L8.58092 37.48L7.72092 37.96L7.31091 37.52L11.1409 35.47L11.5509 35.9099L9.23091 39.6001L9.24092 39.5901ZM9.75092 37.6899L10.6309 36.3501L9.23091 37.1299L9.75092 37.6899Z" fill="white"/>
<path d="M9.66089 39.9199L12.4409 36.77L12.8709 37.1499L10.0909 40.3L9.66089 39.9199Z" fill="white"/>
<path d="M11.1809 41.1799L13.2509 38.3601L12.5809 37.8701L13.0009 37.3L14.8109 38.6201L14.3909 39.1899L13.7209 38.7L11.6509 41.52L11.1909 41.1799H11.1809Z" fill="white"/>
<path d="M16.3009 42.3798L16.6909 42.85C16.4209 43.23 16.1509 43.48 15.8709 43.6C15.6009 43.72 15.3209 43.71 15.0509 43.58C14.7109 43.42 14.5109 43.1198 14.4609 42.6698C14.4009 42.2198 14.5209 41.7 14.8009 41.1C15.1009 40.47 15.4409 40.0299 15.8209 39.7799C16.2009 39.5299 16.5709 39.4898 16.9309 39.6598C17.2409 39.8098 17.4309 40.0598 17.5009 40.4298C17.5409 40.6498 17.5209 40.9199 17.4309 41.2499L16.8409 41.1898C16.9009 40.9798 16.9109 40.7898 16.8709 40.6298C16.8309 40.4698 16.7409 40.3599 16.6009 40.2899C16.4109 40.1999 16.2109 40.2298 16.0009 40.3798C15.7909 40.5298 15.5709 40.8299 15.3609 41.2799C15.1309 41.7599 15.0309 42.1298 15.0509 42.3898C15.0709 42.6498 15.1709 42.8198 15.3609 42.9098C15.5009 42.9698 15.6409 42.9598 15.8009 42.8798C15.9609 42.7998 16.1309 42.63 16.3009 42.37V42.3798Z" fill="white"/>
<path d="M16.9609 44.3201L18.1609 40.29L18.7009 40.45L18.2309 42.04L19.3009 42.3601L19.7709 40.77L20.3209 40.9299L19.1209 44.96L18.5809 44.8L19.1109 43.04L18.0409 42.72L17.5109 44.48L16.9709 44.3201H16.9609Z" fill="white"/>
<path d="M20.0509 45.1599L20.6709 41L22.7409 41.3101L22.6409 42.01L21.1409 41.79L21.0009 42.71L22.4009 42.9199L22.3009 43.6201L20.9009 43.4099L20.7309 44.54L22.2909 44.77L22.1909 45.47L20.0709 45.1599H20.0509Z" fill="white"/>
<path d="M23.051 45.5701L22.991 41.3701H23.841L24.391 44.22L24.851 41.3401H25.701L25.761 45.53H25.231L25.181 42.23L24.671 45.55H24.121L23.521 42.26L23.571 45.5701H23.041H23.051Z" fill="white"/>
<path d="M26.5809 45.4299L26.0909 41.25L26.6509 41.1799L27.1409 45.3601L26.5809 45.4299Z" fill="white"/>
<path d="M29.381 43.3702L29.971 43.5001C29.991 43.9701 29.921 44.3302 29.781 44.5902C29.641 44.8502 29.421 45.0102 29.121 45.0802C28.751 45.1602 28.411 45.0401 28.091 44.7201C27.771 44.4001 27.541 43.9201 27.401 43.2701C27.251 42.5901 27.251 42.0302 27.401 41.6002C27.551 41.1702 27.821 40.9102 28.211 40.8302C28.551 40.7602 28.851 40.8402 29.131 41.0902C29.291 41.2402 29.441 41.4701 29.581 41.7801L29.071 42.1002C28.991 41.8902 28.881 41.74 28.751 41.64C28.621 41.54 28.481 41.5101 28.331 41.5401C28.131 41.5901 27.991 41.7301 27.911 41.9801C27.831 42.2301 27.851 42.5902 27.961 43.0802C28.081 43.6002 28.221 43.95 28.391 44.15C28.561 44.34 28.751 44.4202 28.951 44.3702C29.101 44.3402 29.211 44.2402 29.281 44.0802C29.351 43.9202 29.381 43.6802 29.361 43.3702H29.381Z" fill="white"/>
<path d="M33.461 43.5901L32.881 43.8101L32.3109 43.01L31.2609 43.4199L31.3909 44.3899L30.8309 44.6101L30.3409 40.29L30.9009 40.0701L33.4709 43.5901H33.461ZM31.881 42.4099L30.961 41.0901L31.1709 42.6799L31.8909 42.3999L31.881 42.4099Z" fill="white"/>
<path d="M34.0509 43.27L32.0309 39.6201L32.5309 39.3401L34.2109 42.3701L35.4509 41.6799L35.7909 42.3L34.0509 43.26V43.27Z" fill="white"/>
<path d="M37.3609 41.24L34.6709 38.01L35.1109 37.6499L36.1709 38.9199L37.0309 38.21L35.9709 36.9399L36.4109 36.5801L39.1009 39.8101L38.6609 40.1699L37.4809 38.76L36.6209 39.47L37.8009 40.8799L37.3609 41.24Z" fill="white"/>
<path d="M38.1909 37.8201C37.8709 37.5401 37.6309 37.2701 37.4709 37.0101C37.3509 36.8201 37.2709 36.63 37.2109 36.43C37.1509 36.23 37.1409 36.06 37.1709 35.91C37.2009 35.71 37.3009 35.5201 37.4509 35.3401C37.7209 35.0301 38.0909 34.91 38.5409 34.97C38.9909 35.04 39.4809 35.3001 39.9909 35.7501C40.5009 36.2001 40.8209 36.6401 40.9409 37.0801C41.0609 37.5201 40.9909 37.89 40.7109 38.2C40.4309 38.51 40.0709 38.6401 39.6209 38.5701C39.1709 38.5001 38.6909 38.2501 38.1909 37.8001V37.8201ZM38.5609 37.3602C38.9209 37.6802 39.2409 37.86 39.5209 37.91C39.8009 37.96 40.0209 37.91 40.1709 37.73C40.3209 37.56 40.3509 37.3401 40.2709 37.0701C40.1809 36.8001 39.9609 36.5 39.5909 36.18C39.2309 35.86 38.9109 35.6799 38.6409 35.6299C38.3709 35.5799 38.1509 35.6401 38.0009 35.8201C37.8509 36.0001 37.8109 36.22 37.8909 36.48C37.9809 36.75 38.2009 37.0402 38.5609 37.3602Z" fill="white"/>
<path d="M38.5009 34.2L38.8109 33.72L40.731 34.95C41.031 35.15 41.2309 35.2701 41.3309 35.3101C41.4909 35.3801 41.6409 35.4099 41.7709 35.3899C41.9109 35.3699 42.021 35.2899 42.101 35.1599C42.191 35.0199 42.211 34.9 42.171 34.77C42.131 34.64 42.0609 34.54 41.9409 34.45C41.8309 34.36 41.631 34.22 41.351 34.04L39.391 32.78L39.701 32.3L41.5609 33.49C41.9909 33.76 42.2809 33.9701 42.4409 34.1101C42.6009 34.2501 42.721 34.39 42.791 34.54C42.861 34.69 42.9009 34.84 42.9009 35C42.9009 35.16 42.8409 35.34 42.7109 35.52C42.5609 35.75 42.411 35.89 42.261 35.96C42.111 36.03 41.9509 36.05 41.7809 36.04C41.6109 36.03 41.4509 35.9899 41.3009 35.9199C41.0809 35.8199 40.7709 35.6399 40.3709 35.3899L38.481 34.1799L38.5009 34.2Z" fill="white"/>
<path d="M42.411 33.2901L42.571 32.7501C42.841 32.8401 43.051 32.8602 43.211 32.8202C43.371 32.7802 43.491 32.6801 43.561 32.5301C43.641 32.3601 43.641 32.2102 43.571 32.0802C43.501 31.9502 43.401 31.8501 43.261 31.7801C43.171 31.7401 43.081 31.7201 43.011 31.7301C42.931 31.7301 42.851 31.7702 42.761 31.8402C42.701 31.8902 42.581 32 42.401 32.18C42.171 32.41 41.961 32.5502 41.761 32.5902C41.481 32.6502 41.191 32.6101 40.881 32.4701C40.691 32.3801 40.521 32.2602 40.381 32.1102C40.241 31.9602 40.161 31.7902 40.141 31.6102C40.121 31.4302 40.141 31.2401 40.241 31.0401C40.391 30.7201 40.601 30.5201 40.891 30.4601C41.181 30.3901 41.491 30.4402 41.851 30.5902L41.651 31.1202C41.441 31.0502 41.281 31.0402 41.161 31.0702C41.041 31.1002 40.951 31.1902 40.881 31.3402C40.811 31.4902 40.801 31.6301 40.861 31.7601C40.891 31.8401 40.961 31.9101 41.061 31.9501C41.151 31.9901 41.241 32.0001 41.331 31.9801C41.441 31.9501 41.601 31.8302 41.801 31.6202C42.001 31.4102 42.181 31.26 42.331 31.19C42.481 31.12 42.651 31.0802 42.851 31.0802C43.051 31.0802 43.261 31.1501 43.511 31.2601C43.731 31.3601 43.921 31.49 44.071 31.66C44.221 31.83 44.311 32.0101 44.341 32.2001C44.371 32.3901 44.331 32.6002 44.231 32.8202C44.081 33.1402 43.861 33.34 43.551 33.41C43.251 33.48 42.871 33.4401 42.431 33.2701L42.411 33.2901Z" fill="white"/>
<path d="M44.901 30.98L40.871 29.77L41.471 27.77L42.151 27.97L41.711 29.4299L42.601 29.7L43.011 28.3401L43.691 28.54L43.281 29.8999L44.381 30.23L44.831 28.72L45.511 28.9199L44.901 30.97V30.98Z" fill="white"/>
<path d="M1.80098 13.8601C1.91098 13.9901 2.08097 14.2201 2.31097 14.5701L1.64098 15.02L1.78098 15.27L1.93097 15.51C1.87097 15.61 1.63097 15.78 1.23097 16C1.15097 15.9 1.07097 15.7799 0.980972 15.6499C0.900972 15.5399 0.830977 15.41 0.750977 15.27C0.780977 15.27 0.830976 15.24 0.890976 15.21L1.10098 15.0901C1.27098 14.9901 1.36098 14.9199 1.38098 14.8799L1.36098 14.8401L1.25098 14.6201L1.09097 14.3201L1.79097 13.8501L1.80098 13.8601ZM4.72098 14.3201L4.81097 14.3501L4.95097 14.3999L5.10098 14.47L5.30098 13.98L6.65097 14.49L5.75098 16.8999C5.91098 17.0699 6.05097 17.27 6.17097 17.48C6.29097 17.69 6.39098 17.93 6.47098 18.2C6.55098 18.46 6.59097 18.71 6.59097 18.96C6.59097 19.2 6.55098 19.4299 6.47098 19.6399C6.32098 20.0299 6.10097 20.2899 5.81097 20.4099C5.52097 20.5299 5.18097 20.5199 4.79097 20.3799C4.61097 20.3099 4.42097 20.2101 4.23097 20.0701C4.04097 19.9301 3.84097 19.7701 3.65097 19.5701C3.43097 19.3501 3.26097 19.15 3.15097 18.96C3.03097 18.77 2.96098 18.5899 2.94098 18.4199C3.00098 18.4399 3.08097 18.4901 3.17097 18.5701C3.22097 18.6101 3.27098 18.66 3.33098 18.71C3.39098 18.76 3.46097 18.8299 3.54097 18.9199C3.80097 19.1799 4.04098 19.36 4.28098 19.45C4.58098 19.56 4.85098 19.5399 5.11098 19.3799C5.22098 19.2999 5.31098 19.2101 5.39098 19.1001C5.47098 18.9901 5.55098 18.8499 5.61098 18.6899C5.68098 18.5099 5.75098 18.1501 5.82098 17.6101L5.79097 17.5901C5.58097 17.5101 5.36098 17.6099 5.16098 17.8899L5.00098 18.1499C4.93098 18.2799 4.86098 18.4201 4.80098 18.5801C4.66098 18.5001 4.52097 18.39 4.37097 18.26C4.29097 18.19 4.21098 18.12 4.13098 18.03C4.05098 17.95 3.96097 17.85 3.87097 17.75L4.92097 14.9399C4.71097 14.9199 4.49098 14.9199 4.28098 14.9299C4.08098 14.9299 3.87098 14.95 3.64098 14.98L2.84097 14.21C3.65097 14.11 4.27098 14.14 4.72098 14.3V14.3201ZM7.20097 19.0701C7.38097 19.2501 7.49098 19.4 7.55098 19.52C7.53098 19.56 7.38098 19.6701 7.11098 19.8401C7.14098 19.9401 7.21098 20.0399 7.30098 20.1699C7.20098 20.3199 7.05098 20.42 6.83098 20.48L6.51097 20.03C6.51097 20.03 6.53097 20.02 6.54097 20.01C6.58097 19.98 6.64098 19.9499 6.72098 19.8999C6.85098 19.8399 6.92098 19.79 6.94098 19.74C6.94098 19.74 6.94098 19.74 6.94098 19.73C6.94098 19.7 6.92097 19.6699 6.90097 19.6399L6.75098 19.3701L6.97098 19.22L7.23097 19.0701H7.20097Z" fill="white"/>
<path d="M6.20099 12.3101L7.67099 13.46L6.45099 15.3401L5.211 14.53L6.211 12.99C5.871 12.87 5.46099 12.79 5.00099 12.74L4.39099 11.8401C4.46099 11.8401 4.53099 11.8401 4.59099 11.8401C4.65099 11.8401 4.73099 11.8501 4.84099 11.8601C4.92099 11.8601 4.981 11.8799 5.021 11.8899C5.151 11.9099 5.26099 11.9199 5.34099 11.9399C5.50099 11.9799 5.66099 12.0301 5.80099 12.1001C5.95099 12.1601 6.081 12.2401 6.211 12.3201L6.20099 12.3101ZM8.54099 14.3301C8.69099 14.5501 8.811 14.78 8.881 15C8.831 15.04 8.73099 15.0899 8.58099 15.1399L8.25099 15.24L8.321 15.4199L8.43098 15.6799C8.26098 15.8099 8.03099 15.8899 7.76099 15.8999L7.45099 15.23C7.64099 15.21 7.84099 15.1601 8.05099 15.0601C8.05099 15.0001 8.02099 14.91 7.98099 14.8C7.92099 14.68 7.891 14.59 7.881 14.54L8.55099 14.3201L8.54099 14.3301Z" fill="white"/>
<path d="M9.621 11.0702L9.361 11.38L9.60101 11.8302L9.85101 12.2902C10.031 12.7202 10.031 13.0401 9.861 13.2301C9.711 13.4001 9.501 13.5902 9.221 13.8002C8.911 14.0102 8.661 14.14 8.471 14.17C9.001 13.54 9.181 12.7502 9.001 11.7902C8.691 12.0802 8.48101 12.2502 8.35101 12.3002C8.10101 12.4202 7.841 12.36 7.581 12.14C7.441 12.02 7.291 11.8601 7.151 11.6801C7.011 11.4901 6.86101 11.2701 6.71101 11.0001C6.36101 10.3801 6.281 9.96011 6.471 9.74011C6.601 9.59011 6.90101 9.61017 7.38101 9.80017C7.42101 9.82017 7.491 9.85002 7.591 9.90002C7.661 9.94002 7.731 9.97013 7.811 10.0101C7.841 10.0301 7.91101 10.07 8.02101 10.14C8.13101 10.21 8.23101 10.2702 8.30101 10.3102L8.481 10.1002L9.611 11.0602L9.621 11.0702ZM7.831 10.7801C7.831 10.7801 7.76101 10.7301 7.71101 10.7101C7.66101 10.6901 7.60101 10.68 7.52101 10.67C7.38101 10.64 7.281 10.6701 7.231 10.7201C7.221 10.7301 7.21101 10.7602 7.21101 10.7902V10.88C7.21101 10.96 7.211 11.0102 7.231 11.0402C7.301 11.1002 7.391 11.1202 7.511 11.0902C7.601 11.0602 7.691 11.0201 7.761 10.9501C7.831 10.8601 7.861 10.8001 7.831 10.7701V10.7801Z" fill="white"/>
<path d="M11.581 9.33008L11.121 9.73999L10.141 9.48999L10.401 10.3899L9.321 11.3601L8.33099 10.26L9.381 9.31006L7.381 9.1001L6.64099 7.70996L7.90099 5.54004L8.11099 5.91992C8.21099 6.09992 8.31099 6.28998 8.40099 6.47998L7.521 8.20996L8.89099 8.38989C9.46099 8.46989 9.92099 8.49999 10.281 8.48999L10.581 8.21997L11.571 9.32007L11.581 9.33008Z" fill="white"/>
<path d="M10.6209 5.40991L10.7109 6.56006L11.6309 7.67993C11.6809 7.74993 11.7909 7.94001 11.9509 8.26001C12.1109 8.58001 12.2009 8.7801 12.2009 8.8501L12.0909 9.02002L11.3009 9.59009L10.4409 8.38989L11.1109 7.90991V7.87988L11.0909 7.8501C10.8609 7.5301 10.6009 7.21992 10.3109 6.91992C9.95092 6.55992 9.63093 6.35004 9.36093 6.29004L9.25093 5.8999C9.25093 5.8999 9.23093 5.81001 9.22093 5.76001C9.21093 5.71001 9.20093 5.67012 9.19093 5.62012C9.11093 5.29012 9.10092 5.06996 9.15092 4.95996L9.27093 5.11011C9.36093 5.23011 9.56093 5.32011 9.89093 5.36011C10.0109 5.38011 10.1309 5.38989 10.2509 5.38989C10.3509 5.38989 10.4609 5.39012 10.6009 5.37012L10.6309 5.41992L10.6209 5.40991Z" fill="white"/>
<path d="M13.101 6.34009C13.481 6.99009 13.661 7.58988 13.631 8.12988L11.641 5.36011C11.591 5.29011 11.521 4.80991 11.421 3.90991C12.261 5.04991 12.831 5.86008 13.101 6.33008V6.34009Z" fill="white"/>
<path d="M19.121 4.28003L19.151 5.77002L16.631 6.57007C16.121 6.73007 15.731 6.38001 15.461 5.51001C15.371 5.23001 15.311 4.91004 15.291 4.54004C15.251 4.07004 15.301 3.7799 15.431 3.6499C15.461 3.7399 15.491 3.86002 15.521 4.02002C15.551 4.18002 15.581 4.30991 15.621 4.40991C15.681 4.58991 15.791 4.7499 15.961 4.8999C16.151 5.0599 16.331 5.11005 16.511 5.05005L18.571 4.3999V4.37012C18.531 4.24012 18.351 3.98988 18.011 3.62988L18.111 2.46997C18.551 2.89997 18.801 3.22995 18.871 3.44995L19.141 4.29004L19.121 4.28003ZM17.401 2.08008C17.371 2.21008 17.341 2.33997 17.301 2.46997C17.261 2.59997 17.221 2.73988 17.161 2.87988C17.061 2.87988 16.931 2.85005 16.771 2.80005L16.381 2.66992C16.311 2.79992 16.241 2.96994 16.171 3.18994L16.021 3.15991L15.751 3.07007C15.521 3.00007 15.401 2.94991 15.381 2.90991C15.381 2.87991 15.451 2.61011 15.641 2.11011C16.051 2.29011 16.281 2.3701 16.341 2.3501L16.361 2.32007L16.471 2.1001L16.601 1.79004L17.391 2.06006L17.401 2.08008Z" fill="white"/>
<path d="M21.291 5.41992L20.281 5.59009L19.361 1.68994C19.361 1.62994 19.401 1.45992 19.521 1.16992L19.751 0.620117L20.591 4.04004L21.051 3.95996L21.301 5.41992H21.291Z" fill="white"/>
<path d="M23.041 3.41992L23.011 5.29004L20.781 5.44995L20.671 3.97998L22.511 3.8501V3.83008C22.391 3.50008 22.211 3.12997 21.971 2.71997L22.321 1.68994C22.361 1.74994 22.401 1.80011 22.441 1.86011C22.471 1.91011 22.521 1.98007 22.571 2.07007C22.611 2.14007 22.641 2.18998 22.661 2.22998C22.731 2.34998 22.781 2.44002 22.811 2.52002C22.881 2.67002 22.931 2.82998 22.971 2.97998C23.011 3.13998 23.031 3.28994 23.041 3.43994V3.41992ZM22.841 6.51001C22.751 6.77001 22.641 6.98994 22.511 7.18994C22.451 7.17994 22.351 7.13003 22.221 7.03003L21.941 6.82007L21.841 6.97998L21.701 7.21997C21.491 7.15997 21.301 7.03007 21.121 6.82007L21.471 6.16992C21.601 6.30992 21.761 6.44005 21.971 6.55005C22.011 6.51005 22.071 6.44009 22.131 6.34009C22.191 6.22009 22.241 6.1401 22.271 6.1001L22.851 6.5L22.841 6.51001Z" fill="white"/>
<path d="M26.051 3.83017C26.031 4.14017 25.991 4.44008 25.931 4.74008C25.901 4.91008 25.861 5.06004 25.821 5.20004C25.781 5.34004 25.721 5.50001 25.651 5.67001C25.341 6.50001 24.961 6.90998 24.501 6.88998C24.051 6.86998 23.561 6.75012 23.041 6.53012L22.831 6.44003L22.811 6.42001L22.781 6.3602L23.481 6.30014C24.181 6.00014 24.711 5.6802 25.061 5.3602C25.411 5.0302 25.591 4.70019 25.611 4.35019L25.591 4.32016C25.431 4.66016 25.341 4.83018 25.331 4.84018C25.211 4.99018 25.051 5.06014 24.821 5.05014C24.381 5.03014 24.181 4.73001 24.201 4.17001C24.201 3.99001 24.241 3.80018 24.301 3.59018C24.361 3.38018 24.451 3.14019 24.581 2.85019C24.711 2.56019 24.841 2.35006 24.971 2.22006C25.101 2.08006 25.241 2.02012 25.381 2.03012H25.451C25.881 2.42012 26.071 3.02019 26.031 3.85019L26.051 3.83017ZM25.421 3.72006C25.421 3.66006 25.421 3.60013 25.411 3.54013L25.361 3.42001C25.321 3.30001 25.251 3.24006 25.161 3.22006C25.101 3.22006 25.031 3.26017 24.941 3.33017C24.851 3.41017 24.811 3.48014 24.811 3.55014C24.811 3.60014 24.851 3.66007 24.941 3.73007C25.021 3.77007 25.101 3.80016 25.171 3.82016C25.221 3.82016 25.301 3.80008 25.431 3.74008V3.71005L25.421 3.72006Z" fill="white"/>
<path d="M27.791 5.66992L26.771 5.51001L27.131 1.51001C27.131 1.45001 27.241 1.30007 27.441 1.07007L27.841 0.620117L27.561 4.12988L28.021 4.19995L27.791 5.65991V5.66992Z" fill="white"/>
<path d="M30.351 6.32996L29.711 6.15979C29.711 6.15979 29.661 6.19989 29.621 6.25989L29.551 6.37C29.501 6.48 29.441 6.54995 29.361 6.56995L28.261 4.98987C28.261 4.98987 28.191 5.07979 28.141 5.15979L28.001 5.4198C27.951 5.5598 27.851 5.62978 27.721 5.64978L27.401 5.56995L27.781 4.13977L28.331 4.28992C28.331 4.28992 28.471 4.15981 28.671 3.92981C28.781 3.80981 28.881 3.7 28.971 3.62C29.061 3.54 29.151 3.46977 29.261 3.38977C29.531 3.21977 29.801 3.15986 30.071 3.22986C30.181 3.25986 30.241 3.29999 30.251 3.35999C30.251 3.37999 30.251 3.40982 30.251 3.43982C30.251 3.46982 30.231 3.50996 30.221 3.57996C30.181 3.73996 30.171 3.96988 30.221 4.24988C30.261 4.53988 30.331 4.72997 30.431 4.83997L30.721 4.9198L30.341 6.34998L30.351 6.32996ZM29.541 4.56995L29.571 4.44983V4.37C29.571 4.37 29.581 4.29989 29.571 4.25989C29.571 4.17989 29.571 4.14 29.541 4.12L29.461 4.07996C29.461 4.07996 29.361 4.06996 29.281 4.07996C29.201 4.07996 29.151 4.07998 29.121 4.09998C29.181 4.21998 29.311 4.37995 29.531 4.56995H29.541Z" fill="white"/>
<path d="M31.4309 7.82007C31.3309 7.93007 31.2309 8.02009 31.1309 8.09009C31.0809 8.13009 31.0409 8.15994 30.9909 8.18994C30.9409 8.21994 30.8909 8.25003 30.8409 8.28003C30.7809 8.24003 30.7209 8.15 30.6409 8C30.5909 7.92 30.5309 7.81995 30.4709 7.69995L30.3609 7.77002L30.0809 7.95996C29.9209 7.81996 29.8009 7.6201 29.7109 7.3501L30.3109 6.90991C30.3609 7.08991 30.4609 7.27996 30.6009 7.45996C30.6609 7.45996 30.7509 7.41008 30.8609 7.33008C30.9609 7.26008 31.0309 7.20994 31.0709 7.18994L31.4309 7.81006V7.82007ZM32.1309 7.07007L31.5509 6.84009C31.4209 6.79009 31.3509 6.65994 31.3409 6.43994V6.08008L30.8709 6.57007L29.9609 6.20996L30.5009 4.83008L31.5109 5.22998C31.6609 5.00998 31.7809 4.80011 31.8509 4.61011L31.9309 4.42993C31.9309 4.42993 31.9609 4.38012 31.9709 4.37012C31.9809 4.36012 32.0009 4.34007 32.0309 4.32007C32.1409 4.23007 32.3909 4.08012 32.7709 3.87012L32.5809 4.36011L32.4909 4.56006L32.4109 4.71997L32.2409 5.08008C32.1409 5.34008 32.2009 5.5201 32.4309 5.6001L32.6809 5.69995L32.1409 7.08008L32.1309 7.07007Z" fill="white"/>
<path d="M34.481 8.33008L33.941 8.04004L33.841 7.03003L33.081 7.58008L31.801 6.8999L32.501 5.6001L33.751 6.27002L33.271 4.32007L34.331 3.15991L36.801 3.61011L36.511 3.93994C36.381 4.08994 36.231 4.24991 36.081 4.40991L34.151 4.16992L34.441 5.52002C34.561 6.08002 34.691 6.52011 34.821 6.86011L35.171 7.05005L34.471 8.3501L34.481 8.33008Z" fill="white"/>
<path d="M37.871 6.10012L36.821 6.57009L36.071 7.81008C36.021 7.88008 35.881 8.05008 35.631 8.31008C35.381 8.57008 35.231 8.72001 35.161 8.74001L34.961 8.69997L34.161 8.14992L35.001 6.92995L35.681 7.39992H35.711L35.731 7.36013C35.951 7.03013 36.161 6.68008 36.341 6.31008C36.561 5.85008 36.651 5.47997 36.611 5.19997L36.941 4.95998C36.941 4.95998 37.021 4.9099 37.061 4.8799C37.101 4.8499 37.141 4.83008 37.181 4.81008C37.461 4.63008 37.671 4.54007 37.791 4.55007L37.691 4.70998C37.601 4.83998 37.591 5.06014 37.661 5.37014C37.691 5.49014 37.721 5.60999 37.761 5.71999C37.791 5.80999 37.841 5.92006 37.901 6.04006L37.871 6.09011V6.10012Z" fill="white"/>
<path d="M37.811 8.75C37.321 9.33 36.821 9.7001 36.301 9.8501L38.231 7.04004C38.281 6.97004 38.711 6.7401 39.521 6.3501C38.731 7.5301 38.161 8.33 37.811 8.75Z" fill="white"/>
<path d="M40.941 15.0199L40.6109 14.58C40.5509 14.5 40.561 14.3698 40.621 14.1798C40.651 14.0898 40.691 14.0199 40.721 13.9599C40.761 13.8999 40.8009 13.86 40.8609 13.82L40.151 13.9899L38.821 12.1898C38.501 11.7598 38.711 11.2699 39.441 10.7299C39.531 10.6599 39.591 10.62 39.631 10.59C39.671 10.57 39.751 10.5199 39.871 10.4499C39.991 10.3799 40.151 10.3099 40.351 10.2199C40.831 9.99988 41.141 9.93993 41.281 10.0199L41.221 10.07C41.141 10.13 41.021 10.1999 40.841 10.2899C40.661 10.3799 40.5409 10.4599 40.4609 10.5099C40.3109 10.6199 40.191 10.7799 40.121 10.9799C40.041 11.1799 40.0609 11.3599 40.1809 11.5099L41.411 13.1698C41.411 13.1698 41.541 13.1199 41.671 13.0399C41.801 12.9599 41.971 12.8499 42.151 12.7099L43.2109 12.6898L42.691 13.07L41.981 13.4999C41.871 13.5799 41.841 13.6699 41.871 13.7899L42.121 14.1298L40.9309 15.0099L40.941 15.0199ZM43.441 11.8898C43.371 11.9098 43.221 11.9299 42.981 11.9499C42.741 11.9699 42.601 11.9498 42.561 11.9198C42.541 11.8898 42.531 11.62 42.541 11.11H42.311L41.9609 11.08C41.9409 11 41.921 10.8498 41.921 10.6398C41.901 10.3898 41.921 10.2599 41.951 10.2299C42.001 10.1899 42.2909 10.1899 42.8309 10.2299C42.8109 10.2799 42.791 10.41 42.781 10.62C42.781 10.82 42.781 10.9399 42.811 10.9799C42.811 10.9799 42.8209 10.9799 42.8309 10.9799C42.8309 10.9799 42.851 10.9799 42.881 10.9799L43.101 10.9999L43.451 11.0299V11.8798L43.441 11.8898Z" fill="white"/>
<path d="M40.611 16.8101C40.461 16.8201 40.331 16.8201 40.211 16.8101C40.151 16.8101 40.101 16.81 40.041 16.8C39.981 16.8 39.921 16.78 39.861 16.77C39.841 16.7 39.861 16.5899 39.901 16.4299C39.911 16.3299 39.941 16.2201 39.981 16.0901L39.851 16.0701L39.521 16.02C39.491 15.81 39.541 15.5801 39.661 15.3201L40.401 15.3899C40.311 15.5599 40.261 15.76 40.251 15.99C40.301 16.02 40.401 16.0501 40.531 16.0601C40.651 16.0701 40.731 16.0901 40.781 16.1001L40.631 16.8L40.611 16.8101ZM41.631 16.72L41.351 16.1599C41.291 16.0399 41.321 15.89 41.461 15.72L41.711 15.46L41.021 15.5L40.581 14.6201L41.901 13.96L42.391 14.9299C42.651 14.8699 42.871 14.79 43.061 14.7L43.241 14.6201C43.241 14.6201 43.301 14.6001 43.311 14.6001C43.331 14.6001 43.351 14.6001 43.391 14.6001C43.531 14.6001 43.811 14.66 44.241 14.76L43.771 15L43.571 15.0901L43.411 15.1499L43.051 15.3C42.801 15.43 42.731 15.6001 42.841 15.8101L42.961 16.05L41.641 16.71L41.631 16.72Z" fill="white"/>
<path d="M40.871 18.1399C40.871 18.1399 40.721 18.1 40.501 17.99C40.451 17.96 40.401 17.9399 40.371 17.9199C40.331 17.8999 40.301 17.8801 40.271 17.8601C40.221 17.8301 40.181 17.79 40.161 17.76C40.161 17.74 40.161 17.6999 40.171 17.6399C40.191 17.5799 40.211 17.4899 40.261 17.3899C40.301 17.2799 40.341 17.1999 40.371 17.1399C40.401 17.0799 40.431 17.04 40.451 17.03C40.491 17.01 40.631 17.0499 40.871 17.1499C41.111 17.2399 41.231 17.3101 41.251 17.3501C41.251 17.3601 41.201 17.5 41.081 17.75C40.961 18.01 40.891 18.1399 40.871 18.1499V18.1399ZM44.001 17.55C43.741 17.65 43.421 17.73 43.051 17.8L42.591 17.8999C42.511 17.9199 42.431 17.94 42.351 17.95C42.281 17.96 42.191 17.98 42.081 17.99L41.471 16.3601L42.861 15.8401L43.341 17.1399H43.391C43.511 17.0799 43.681 16.96 43.891 16.76C44.091 16.58 44.221 16.43 44.301 16.29L45.461 16.3401C45.031 16.9301 44.541 17.33 43.991 17.53L44.001 17.55Z" fill="white"/>
</svg>
