<svg width="46" height="46" viewBox="0 0 46 46" fill="none" xmlns="http://www.w3.org/2000/svg">
<path d="M11.641 22.96H3.41101V24.05H11.641V22.96Z" fill="white"/>
<path d="M45.4209 22.96H37.1909V24.05H45.4209V22.96Z" fill="white"/>
<path d="M15.221 34.4199H11.131V14.7H15.221V34.4199ZM12.171 33.3701H14.161V15.75H12.171V33.3701Z" fill="white"/>
<path d="M23.981 35.6001C23.901 35.6001 16.191 35.2601 14.191 27.3601L14.171 27.23V20.8899L14.221 20.79C14.361 20.47 17.801 13.0101 24.721 13.3301L24.671 14.3701C18.851 14.0801 15.631 20.2701 15.211 21.1201V27.1599C17.031 34.2199 23.721 34.54 24.011 34.55L23.981 35.5901V35.6001Z" fill="white"/>
<path d="M23.991 29V32.01L23.291 31.8L22.161 32.25L21.321 31.3601L19.851 31.4099V30.23L18.541 30.2V29.1499L17.331 28.1799L17.671 27.03L16.541 26.01L17.121 25.01L16.231 23.8L17.121 22.8L16.731 21.6699L17.701 20.8301L17.281 19.8301L18.621 19.3101L18.521 18.21L19.961 17.8701L20.111 16.8501H21.581L22.371 16.0601L22.741 16.3701C22.741 16.3701 23.691 16.19 23.991 16.27V18.74C23.991 18.74 20.171 19.6101 20.251 24.3301C20.251 24.3301 19.841 27.91 23.991 29.01V29Z" fill="white"/>
<path d="M28.711 16.1699V33.58C28.711 33.58 30.351 35.2599 29.061 35.7499C29.061 35.7499 26.861 36.0299 26.751 35.1899V14.4899C26.751 14.4899 28.511 12.73 29.841 13.78C29.841 13.78 30.401 14.5899 28.701 16.1699H28.711Z" fill="white"/>
<path d="M34.341 14.14V35.0201C34.341 35.0201 33.501 36.35 31.611 35.4C31.611 35.4 31.401 34.4901 32.731 33.3001V16.3799C32.731 16.3799 31.301 13.84 32.631 13.45C32.631 13.45 33.501 13.16 34.341 14.14Z" fill="white"/>
<path d="M34.991 35.7901V14.2201C34.991 14.2201 36.481 13.1501 37.491 13.9601C37.491 13.9601 38.121 14.76 36.791 15.95V33.3402C36.791 33.3402 37.611 34.3602 37.191 35.3602C37.191 35.3602 36.641 36.3001 34.991 35.7901Z" fill="white"/>
<path d="M26.131 14.28V35.1599C26.131 35.1599 24.871 36.0999 23.821 35.1599C23.821 35.1599 23.081 34.3601 24.451 32.5701V13.1599L26.511 14.03C26.511 14.03 26.201 14.12 26.131 14.27V14.28Z" fill="white"/>
<path d="M24.451 13.78H23.621V16.3799H24.451V13.78Z" fill="white"/>
<path d="M33.211 22.74H28.0909V25.3H33.211V22.74Z" fill="white"/>
<path d="M2.96094 28.7L7.01093 27.5801L7.16093 28.1299L5.36093 28.6299L7.47093 29.24L7.67093 29.98L5.81093 29.3899L3.63094 31.1499L3.43092 30.4399L5.13094 29.1699L4.33093 28.9099L3.10094 29.25L2.95093 28.7H2.96094Z" fill="white"/>
<path d="M7.72099 30.0701L7.95099 30.5901L5.87099 31.51C5.54099 31.66 5.331 31.7601 5.241 31.8101C5.091 31.9001 4.99098 32.0099 4.93098 32.1399C4.87098 32.2699 4.88098 32.4 4.93098 32.55C5.00098 32.7 5.091 32.7901 5.211 32.8201C5.331 32.8601 5.461 32.8501 5.601 32.8101C5.741 32.7701 5.96099 32.68 6.26099 32.54L8.39099 31.6001L8.62099 32.1201L6.601 33.02C6.141 33.22 5.811 33.3599 5.601 33.4099C5.401 33.4699 5.21099 33.49 5.05099 33.47C4.89099 33.45 4.741 33.4001 4.601 33.3101C4.471 33.2201 4.35099 33.0701 4.26099 32.8701C4.15099 32.6201 4.11099 32.42 4.14099 32.25C4.17099 32.09 4.23099 31.94 4.34099 31.8C4.44099 31.67 4.56099 31.55 4.70099 31.47C4.90099 31.34 5.22099 31.18 5.65099 30.99L7.70099 30.0801L7.72099 30.0701Z" fill="white"/>
<path d="M5.48096 35.0901L8.61096 32.2L8.93095 32.6799L6.76096 34.6399L9.45096 33.47L9.83096 34.03L7.66096 36.0701L10.341 34.8L10.661 35.28L6.78096 37.04L6.45096 36.54L8.75096 34.3301L5.82097 35.6101L5.48096 35.1001V35.0901Z" fill="white"/>
<path d="M9.24092 39.8301L8.82092 39.3799L9.35092 38.55L8.58092 37.72L7.72092 38.2L7.31091 37.76L11.1409 35.71L11.5509 36.1499L9.23091 39.8401L9.24092 39.8301ZM9.75092 37.9299L10.6309 36.5901L9.23091 37.3701L9.75092 37.9299Z" fill="white"/>
<path d="M9.66089 40.1599L12.4409 37.01L12.8709 37.3899L10.0909 40.54L9.66089 40.1599Z" fill="white"/>
<path d="M11.1809 41.4199L13.2509 38.6001L12.5809 38.1101L13.0009 37.54L14.8109 38.8601L14.3909 39.4299L13.7209 38.9399L11.6509 41.76L11.1909 41.4199H11.1809Z" fill="white"/>
<path d="M16.3009 42.62L16.6909 43.09C16.4209 43.47 16.1509 43.72 15.8709 43.84C15.6009 43.96 15.3209 43.95 15.0509 43.82C14.7109 43.66 14.5109 43.3598 14.4609 42.9098C14.4009 42.4598 14.5209 41.94 14.8009 41.34C15.1009 40.71 15.4409 40.2699 15.8209 40.0199C16.2009 39.7699 16.5709 39.7298 16.9309 39.8998C17.2409 40.0498 17.4309 40.2998 17.5009 40.6698C17.5409 40.8898 17.5209 41.1599 17.4309 41.4899L16.8409 41.4298C16.9009 41.2198 16.9109 41.03 16.8709 40.87C16.8309 40.71 16.7409 40.5999 16.6009 40.5299C16.4109 40.4399 16.2109 40.47 16.0009 40.62C15.7909 40.77 15.5709 41.0699 15.3609 41.5199C15.1309 41.9999 15.0309 42.3698 15.0509 42.6298C15.0709 42.8898 15.1709 43.0598 15.3609 43.1498C15.5009 43.2098 15.6409 43.2 15.8009 43.12C15.9609 43.04 16.1309 42.87 16.3009 42.61V42.62Z" fill="white"/>
<path d="M16.9609 44.5601L18.1609 40.53L18.7009 40.6899L18.2309 42.28L19.3009 42.6001L19.7709 41.01L20.3209 41.1699L19.1209 45.2L18.5809 45.04L19.1109 43.28L18.0409 42.96L17.5109 44.72L16.9709 44.5601H16.9609Z" fill="white"/>
<path d="M20.0509 45.3999L20.6709 41.24L22.7409 41.55L22.6409 42.25L21.1409 42.03L21.0009 42.95L22.4009 43.1599L22.3009 43.8601L20.9009 43.6499L20.7309 44.78L22.2909 45.01L22.1909 45.71L20.0709 45.3999H20.0509Z" fill="white"/>
<path d="M23.051 45.8101L22.991 41.6101H23.841L24.391 44.46L24.851 41.5801H25.701L25.761 45.77H25.231L25.181 42.47L24.671 45.79H24.121L23.521 42.5L23.571 45.8101H23.041H23.051Z" fill="white"/>
<path d="M26.5809 45.6699L26.0909 41.49L26.6509 41.4199L27.1409 45.6001L26.5809 45.6699Z" fill="white"/>
<path d="M29.381 43.6102L29.971 43.7401C29.991 44.2101 29.921 44.5702 29.781 44.8302C29.641 45.0902 29.421 45.2501 29.121 45.3201C28.751 45.4001 28.411 45.28 28.091 44.96C27.771 44.64 27.541 44.1601 27.401 43.5101C27.251 42.8301 27.251 42.2702 27.401 41.8402C27.551 41.4102 27.821 41.1501 28.211 41.0701C28.551 41.0001 28.851 41.0802 29.131 41.3302C29.291 41.4802 29.441 41.7101 29.581 42.0201L29.071 42.3402C28.991 42.1302 28.881 41.98 28.751 41.88C28.621 41.78 28.481 41.7501 28.331 41.7801C28.131 41.8301 27.991 41.9701 27.911 42.2201C27.831 42.4701 27.851 42.8301 27.961 43.3201C28.081 43.8401 28.221 44.19 28.391 44.39C28.561 44.58 28.751 44.6602 28.951 44.6102C29.101 44.5802 29.211 44.4801 29.281 44.3201C29.351 44.1601 29.381 43.9202 29.361 43.6102H29.381Z" fill="white"/>
<path d="M33.461 43.8301L32.881 44.05L32.3109 43.25L31.2609 43.6599L31.3909 44.6299L30.8309 44.8501L30.3409 40.53L30.9009 40.3101L33.4709 43.8301H33.461ZM31.881 42.6499L30.961 41.3301L31.1709 42.9199L31.8909 42.6399L31.881 42.6499Z" fill="white"/>
<path d="M34.0509 43.51L32.0309 39.8601L32.5309 39.5801L34.2109 42.6101L35.4509 41.9199L35.7909 42.54L34.0509 43.5V43.51Z" fill="white"/>
<path d="M37.3609 41.48L34.6709 38.25L35.1109 37.8899L36.1709 39.1599L37.0309 38.45L35.9709 37.1799L36.4109 36.8201L39.1009 40.05L38.6609 40.4099L37.4809 39L36.6209 39.71L37.8009 41.1201L37.3609 41.48Z" fill="white"/>
<path d="M38.1909 38.0601C37.8709 37.7801 37.6309 37.5101 37.4709 37.2501C37.3509 37.0601 37.2709 36.87 37.2109 36.67C37.1509 36.47 37.1409 36.3 37.1709 36.15C37.2009 35.95 37.3009 35.7601 37.4509 35.5801C37.7209 35.2701 38.0909 35.15 38.5409 35.21C38.9909 35.28 39.4809 35.54 39.9909 35.99C40.5009 36.44 40.8209 36.8801 40.9409 37.3201C41.0609 37.7601 40.9909 38.13 40.7109 38.44C40.4309 38.75 40.0709 38.8801 39.6209 38.8101C39.1709 38.7401 38.6909 38.4901 38.1909 38.0401V38.0601ZM38.5609 37.6002C38.9209 37.9202 39.2409 38.1 39.5209 38.15C39.8009 38.2 40.0209 38.15 40.1709 37.97C40.3209 37.8 40.3509 37.5801 40.2709 37.3101C40.1809 37.0401 39.9609 36.74 39.5909 36.42C39.2309 36.1 38.9109 35.9202 38.6409 35.8702C38.3709 35.8202 38.1509 35.8801 38.0009 36.0601C37.8509 36.2401 37.8109 36.46 37.8909 36.72C37.9809 36.99 38.2009 37.2802 38.5609 37.6002Z" fill="white"/>
<path d="M38.5009 34.4399L38.8109 33.96L40.731 35.1899C41.031 35.3899 41.2309 35.51 41.3309 35.55C41.4909 35.62 41.6409 35.6499 41.7709 35.6299C41.9109 35.6099 42.021 35.5299 42.101 35.3999C42.191 35.2599 42.211 35.14 42.171 35.01C42.131 34.88 42.0609 34.7799 41.9409 34.6899C41.8309 34.5999 41.631 34.46 41.351 34.28L39.391 33.02L39.701 32.54L41.5609 33.73C41.9909 34 42.2809 34.2101 42.4409 34.3501C42.6009 34.4901 42.721 34.63 42.791 34.78C42.861 34.93 42.9009 35.08 42.9009 35.24C42.9009 35.4 42.8409 35.58 42.7109 35.76C42.5609 35.99 42.411 36.13 42.261 36.2C42.111 36.27 41.9509 36.29 41.7809 36.28C41.6109 36.27 41.4509 36.2299 41.3009 36.1599C41.0809 36.0599 40.7709 35.8799 40.3709 35.6299L38.481 34.4199L38.5009 34.4399Z" fill="white"/>
<path d="M42.411 33.5301L42.571 32.9901C42.841 33.0801 43.051 33.1002 43.211 33.0602C43.371 33.0202 43.491 32.9201 43.561 32.7701C43.641 32.6001 43.641 32.4502 43.571 32.3202C43.501 32.1902 43.401 32.0901 43.261 32.0201C43.171 31.9801 43.081 31.9601 43.011 31.9701C42.931 31.9701 42.851 32.0102 42.761 32.0802C42.701 32.1302 42.581 32.24 42.401 32.42C42.171 32.65 41.961 32.7902 41.761 32.8302C41.481 32.8902 41.191 32.8501 40.881 32.7101C40.691 32.6201 40.521 32.5002 40.381 32.3502C40.241 32.2002 40.161 32.0302 40.141 31.8502C40.121 31.6702 40.141 31.4801 40.241 31.2801C40.391 30.9601 40.601 30.7601 40.891 30.7001C41.181 30.6301 41.491 30.6802 41.851 30.8302L41.651 31.3602C41.441 31.2902 41.281 31.2802 41.161 31.3102C41.041 31.3402 40.951 31.4302 40.881 31.5802C40.811 31.7302 40.801 31.8701 40.861 32.0001C40.891 32.0801 40.961 32.15 41.061 32.19C41.151 32.23 41.241 32.2401 41.331 32.2201C41.441 32.1901 41.601 32.0702 41.801 31.8602C42.001 31.6502 42.181 31.5 42.331 31.43C42.481 31.36 42.651 31.3202 42.851 31.3202C43.051 31.3202 43.261 31.3901 43.511 31.5001C43.731 31.6001 43.921 31.73 44.071 31.9C44.221 32.07 44.311 32.25 44.341 32.44C44.371 32.63 44.331 32.8402 44.231 33.0602C44.081 33.3802 43.861 33.58 43.551 33.65C43.251 33.72 42.871 33.6801 42.431 33.5101L42.411 33.5301Z" fill="white"/>
<path d="M44.901 31.22L40.871 30.01L41.471 28.01L42.151 28.21L41.711 29.6699L42.601 29.9399L43.011 28.5801L43.691 28.78L43.281 30.1399L44.381 30.47L44.831 28.96L45.511 29.1599L44.901 31.21V31.22Z" fill="white"/>
<path d="M1.80098 14.1001C1.91098 14.2301 2.08097 14.4601 2.31097 14.8101L1.64098 15.26L1.78098 15.51L1.93097 15.75C1.87097 15.85 1.63097 16.02 1.23097 16.24C1.15097 16.14 1.07097 16.0199 0.980972 15.8899C0.900972 15.7799 0.830977 15.65 0.750977 15.51C0.780977 15.51 0.830976 15.48 0.890976 15.45L1.10098 15.3301C1.27098 15.2301 1.36098 15.1601 1.38098 15.1201L1.36098 15.0801L1.25098 14.8601L1.09097 14.5601L1.79097 14.0901L1.80098 14.1001ZM4.72098 14.5601L4.81097 14.5901L4.95097 14.6399L5.10098 14.71L5.30098 14.22L6.65097 14.73L5.75098 17.1399C5.91098 17.3099 6.05097 17.51 6.17097 17.72C6.29097 17.93 6.39098 18.1699 6.47098 18.4399C6.55098 18.6999 6.59097 18.95 6.59097 19.2C6.59097 19.44 6.55098 19.6699 6.47098 19.8799C6.32098 20.2699 6.10097 20.5299 5.81097 20.6499C5.52097 20.7699 5.18097 20.7601 4.79097 20.6201C4.61097 20.5501 4.42097 20.4501 4.23097 20.3101C4.04097 20.1701 3.84097 20.0101 3.65097 19.8101C3.43097 19.5901 3.26097 19.39 3.15097 19.2C3.03097 19.01 2.96098 18.8299 2.94098 18.6599C3.00098 18.6799 3.08097 18.7301 3.17097 18.8101C3.22097 18.8501 3.27098 18.9 3.33098 18.95C3.39098 19 3.46097 19.0699 3.54097 19.1599C3.80097 19.4199 4.04098 19.5999 4.28098 19.6899C4.58098 19.7999 4.85098 19.7801 5.11098 19.6201C5.22098 19.5401 5.31098 19.4501 5.39098 19.3401C5.47098 19.2301 5.55098 19.0899 5.61098 18.9299C5.68098 18.7499 5.75098 18.3901 5.82098 17.8501L5.79097 17.8301C5.58097 17.7501 5.36098 17.8499 5.16098 18.1299L5.00098 18.3899C4.93098 18.5199 4.86098 18.6601 4.80098 18.8201C4.66098 18.7401 4.52097 18.63 4.37097 18.5C4.29097 18.43 4.21098 18.36 4.13098 18.27C4.05098 18.19 3.96097 18.09 3.87097 17.99L4.92097 15.1799C4.71097 15.1599 4.49098 15.1599 4.28098 15.1699C4.08098 15.1699 3.87098 15.19 3.64098 15.22L2.84097 14.45C3.65097 14.35 4.27098 14.38 4.72098 14.54V14.5601ZM7.20097 19.3101C7.38097 19.4901 7.49098 19.64 7.55098 19.76C7.53098 19.8 7.38098 19.9101 7.11098 20.0801C7.14098 20.1801 7.21098 20.2799 7.30098 20.4099C7.20098 20.5599 7.05098 20.66 6.83098 20.72L6.51097 20.27C6.51097 20.27 6.53097 20.26 6.54097 20.25C6.58097 20.22 6.64098 20.1899 6.72098 20.1399C6.85098 20.0799 6.92098 20.03 6.94098 19.98C6.94098 19.98 6.94098 19.98 6.94098 19.97C6.94098 19.94 6.92097 19.9099 6.90097 19.8799L6.75098 19.6101L6.97098 19.46L7.23097 19.3101H7.20097Z" fill="white"/>
<path d="M6.20099 12.55L7.67099 13.7L6.45099 15.5801L5.211 14.77L6.211 13.23C5.871 13.11 5.46099 13.03 5.00099 12.98L4.39099 12.0801C4.46099 12.0801 4.53099 12.0801 4.59099 12.0801C4.65099 12.0801 4.73099 12.0901 4.84099 12.1001C4.92099 12.1001 4.981 12.1199 5.021 12.1299C5.151 12.1499 5.26099 12.1599 5.34099 12.1799C5.50099 12.2199 5.66099 12.2701 5.80099 12.3401C5.95099 12.4001 6.081 12.4801 6.211 12.5601L6.20099 12.55ZM8.54099 14.5701C8.69099 14.7901 8.811 15.02 8.881 15.24C8.831 15.28 8.73099 15.3299 8.58099 15.3799L8.25099 15.48L8.321 15.6599L8.43098 15.9199C8.26098 16.0499 8.03099 16.1299 7.76099 16.1399L7.45099 15.47C7.64099 15.45 7.84099 15.4 8.05099 15.3C8.05099 15.24 8.02099 15.15 7.98099 15.04C7.92099 14.92 7.891 14.83 7.881 14.78L8.55099 14.5601L8.54099 14.5701Z" fill="white"/>
<path d="M9.621 11.3102L9.361 11.6202L9.60101 12.0702L9.85101 12.5301C10.031 12.9601 10.031 13.2801 9.861 13.4701C9.711 13.6401 9.501 13.8302 9.221 14.0402C8.911 14.2502 8.661 14.38 8.471 14.41C9.001 13.78 9.181 12.9901 9.001 12.0301C8.691 12.3201 8.48101 12.4902 8.35101 12.5402C8.10101 12.6602 7.841 12.6 7.581 12.38C7.441 12.26 7.291 12.1 7.151 11.92C7.011 11.73 6.86101 11.5101 6.71101 11.2401C6.36101 10.6201 6.281 10.2001 6.471 9.9801C6.601 9.8301 6.90101 9.85016 7.38101 10.0402C7.42101 10.0602 7.491 10.09 7.591 10.14C7.661 10.18 7.731 10.2101 7.811 10.2501C7.841 10.2701 7.91101 10.31 8.02101 10.38C8.13101 10.45 8.23101 10.5102 8.30101 10.5502L8.481 10.3402L9.611 11.3002L9.621 11.3102ZM7.831 11.0201C7.831 11.0201 7.76101 10.9701 7.71101 10.9501C7.66101 10.9301 7.60101 10.92 7.52101 10.91C7.38101 10.88 7.281 10.9101 7.231 10.9601C7.221 10.9701 7.21101 11.0001 7.21101 11.0301V11.1202C7.21101 11.2002 7.211 11.2501 7.231 11.2801C7.301 11.3401 7.391 11.3602 7.511 11.3302C7.601 11.3002 7.691 11.2601 7.761 11.1901C7.831 11.1001 7.861 11.0401 7.831 11.0101V11.0201Z" fill="white"/>
<path d="M11.581 9.57007L11.121 9.97998L10.141 9.72998L10.401 10.6299L9.321 11.6001L8.33099 10.5L9.381 9.55005L7.381 9.34009L6.64099 7.94995L7.90099 5.78003L8.11099 6.15991C8.21099 6.33991 8.31099 6.52997 8.40099 6.71997L7.521 8.44995L8.89099 8.62988C9.46099 8.70988 9.92099 8.73998 10.281 8.72998L10.581 8.45996L11.571 9.56006L11.581 9.57007Z" fill="white"/>
<path d="M10.6209 5.6499L10.7109 6.80005L11.6309 7.91992C11.6809 7.98992 11.7909 8.18 11.9509 8.5C12.1109 8.82 12.2009 9.02009 12.2009 9.09009L12.0909 9.26001L11.3009 9.83008L10.4409 8.62988L11.1109 8.1499V8.12012L11.0909 8.09009C10.8609 7.77009 10.6009 7.45991 10.3109 7.15991C9.95092 6.79991 9.63093 6.59003 9.36093 6.53003L9.25093 6.13989C9.25093 6.13989 9.23093 6.05 9.22093 6C9.21093 5.95 9.20093 5.91011 9.19093 5.86011C9.11093 5.53011 9.10092 5.30995 9.15092 5.19995L9.27093 5.3501C9.36093 5.4701 9.56093 5.5601 9.89093 5.6001C10.0109 5.6201 10.1309 5.62988 10.2509 5.62988C10.3509 5.62988 10.4609 5.63011 10.6009 5.61011L10.6309 5.65991L10.6209 5.6499Z" fill="white"/>
<path d="M13.101 6.58008C13.481 7.23008 13.661 7.83012 13.631 8.37012L11.641 5.6001C11.591 5.5301 11.521 5.0499 11.421 4.1499C12.261 5.2899 12.831 6.10007 13.101 6.57007V6.58008Z" fill="white"/>
<path d="M19.121 4.52002L19.151 6.01001L16.631 6.81006C16.121 6.97006 15.731 6.62 15.461 5.75C15.371 5.47 15.311 5.15003 15.291 4.78003C15.251 4.31003 15.301 4.01989 15.431 3.88989C15.461 3.97989 15.491 4.10001 15.521 4.26001C15.551 4.42001 15.581 4.5499 15.621 4.6499C15.681 4.8299 15.791 4.98989 15.961 5.13989C16.151 5.29989 16.331 5.35004 16.511 5.29004L18.571 4.63989V4.61011C18.531 4.48011 18.351 4.23012 18.011 3.87012L18.111 2.70996C18.551 3.13996 18.801 3.46994 18.871 3.68994L19.141 4.53003L19.121 4.52002ZM17.401 2.32007C17.371 2.45007 17.341 2.57996 17.301 2.70996C17.261 2.83996 17.221 2.98012 17.161 3.12012C17.061 3.12012 16.931 3.09004 16.771 3.04004L16.381 2.90991C16.311 3.03991 16.241 3.20993 16.171 3.42993L16.021 3.3999L15.751 3.31006C15.521 3.24006 15.401 3.1899 15.381 3.1499C15.381 3.1199 15.451 2.8501 15.641 2.3501C16.051 2.5301 16.281 2.61009 16.341 2.59009L16.361 2.56006L16.471 2.34009L16.601 2.03003L17.391 2.30005L17.401 2.32007Z" fill="white"/>
<path d="M21.291 5.65991L20.281 5.83008L19.361 1.92993C19.361 1.86993 19.401 1.69991 19.521 1.40991L19.751 0.860107L20.591 4.28003L21.051 4.19995L21.301 5.65991H21.291Z" fill="white"/>
<path d="M23.041 3.65991L23.011 5.53003L20.781 5.68994L20.671 4.21997L22.511 4.09009V4.07007C22.391 3.74007 22.211 3.36996 21.971 2.95996L22.321 1.92993C22.361 1.98993 22.401 2.0401 22.441 2.1001C22.471 2.1501 22.521 2.22006 22.571 2.31006C22.611 2.38006 22.641 2.42997 22.661 2.46997C22.731 2.58997 22.781 2.68001 22.811 2.76001C22.881 2.91001 22.931 3.06997 22.971 3.21997C23.011 3.37997 23.031 3.52993 23.041 3.67993V3.65991ZM22.841 6.75C22.751 7.01 22.641 7.22993 22.511 7.42993C22.451 7.41993 22.351 7.37002 22.221 7.27002L21.941 7.06006L21.841 7.21997L21.701 7.45996C21.491 7.39996 21.301 7.27006 21.121 7.06006L21.471 6.40991C21.601 6.54991 21.761 6.68004 21.971 6.79004C22.011 6.75004 22.071 6.68008 22.131 6.58008C22.191 6.46008 22.241 6.38009 22.271 6.34009L22.851 6.73999L22.841 6.75Z" fill="white"/>
<path d="M26.051 4.07016C26.031 4.38016 25.991 4.68007 25.931 4.98007C25.901 5.15007 25.861 5.30003 25.821 5.44003C25.781 5.58003 25.721 5.74 25.651 5.91C25.341 6.74 24.961 7.14997 24.501 7.12997C24.051 7.10997 23.561 6.99011 23.041 6.77011L22.831 6.68002L22.811 6.66L22.781 6.60019L23.481 6.54013C24.181 6.24013 24.711 5.92019 25.061 5.60019C25.411 5.27019 25.591 4.94018 25.611 4.59018L25.591 4.56015C25.431 4.90015 25.341 5.07017 25.331 5.08017C25.211 5.23017 25.051 5.30013 24.821 5.29013C24.381 5.27013 24.181 4.97 24.201 4.41C24.201 4.23 24.241 4.04017 24.301 3.83017C24.361 3.62017 24.451 3.38018 24.581 3.09018C24.711 2.80018 24.841 2.59005 24.971 2.46005C25.101 2.32005 25.241 2.26011 25.381 2.27011H25.451C25.881 2.66011 26.071 3.26018 26.031 4.09018L26.051 4.07016ZM25.421 3.96005C25.421 3.90005 25.421 3.84012 25.411 3.78012L25.361 3.66C25.321 3.54 25.251 3.48005 25.161 3.46005C25.101 3.46005 25.031 3.50016 24.941 3.57016C24.851 3.65016 24.811 3.72013 24.811 3.79013C24.811 3.84013 24.851 3.90006 24.941 3.97006C25.021 4.01006 25.101 4.04015 25.171 4.06015C25.221 4.06015 25.301 4.04007 25.431 3.98007V3.95004L25.421 3.96005Z" fill="white"/>
<path d="M27.791 5.90991L26.771 5.75L27.131 1.75C27.131 1.69 27.241 1.54006 27.441 1.31006L27.841 0.860107L27.561 4.37012L28.021 4.43994L27.791 5.8999V5.90991Z" fill="white"/>
<path d="M30.351 6.56995L29.711 6.39978C29.711 6.39978 29.661 6.43988 29.621 6.49988L29.551 6.60999C29.501 6.71999 29.441 6.78994 29.361 6.80994L28.261 5.22986C28.261 5.22986 28.191 5.31978 28.141 5.39978L28.001 5.65979C27.951 5.79979 27.851 5.86977 27.721 5.88977L27.401 5.80994L27.781 4.37976L28.331 4.52991C28.331 4.52991 28.471 4.3998 28.671 4.1698C28.781 4.0498 28.881 3.93999 28.971 3.85999C29.061 3.77999 29.151 3.70976 29.261 3.62976C29.531 3.45976 29.801 3.39985 30.071 3.46985C30.181 3.49985 30.241 3.53998 30.251 3.59998C30.251 3.61998 30.251 3.64981 30.251 3.67981C30.251 3.70981 30.231 3.74995 30.221 3.81995C30.181 3.97995 30.171 4.20987 30.221 4.48987C30.261 4.77987 30.331 4.96996 30.431 5.07996L30.721 5.15979L30.341 6.58997L30.351 6.56995ZM29.541 4.80994L29.571 4.68982V4.60999C29.571 4.60999 29.581 4.53988 29.571 4.49988C29.571 4.41988 29.571 4.37999 29.541 4.35999L29.461 4.31995C29.461 4.31995 29.361 4.30995 29.281 4.31995C29.201 4.31995 29.151 4.31997 29.121 4.33997C29.181 4.45997 29.311 4.61994 29.531 4.80994H29.541Z" fill="white"/>
<path d="M31.4309 8.06006C31.3309 8.17006 31.2309 8.26008 31.1309 8.33008C31.0809 8.37008 31.0409 8.39993 30.9909 8.42993C30.9409 8.45993 30.8909 8.49002 30.8409 8.52002C30.7809 8.48002 30.7209 8.38999 30.6409 8.23999C30.5909 8.15999 30.5309 8.05994 30.4709 7.93994L30.3609 8.01001L30.0809 8.19995C29.9209 8.05995 29.8009 7.86009 29.7109 7.59009L30.3109 7.1499C30.3609 7.3299 30.4609 7.51995 30.6009 7.69995C30.6609 7.69995 30.7509 7.65007 30.8609 7.57007C30.9609 7.50007 31.0309 7.44993 31.0709 7.42993L31.4309 8.05005V8.06006ZM32.1309 7.31006L31.5509 7.08008C31.4209 7.03008 31.3509 6.89993 31.3409 6.67993V6.32007L30.8709 6.81006L29.9609 6.44995L30.5009 5.07007L31.5109 5.46997C31.6609 5.24997 31.7809 5.0401 31.8509 4.8501L31.9309 4.66992C31.9309 4.66992 31.9609 4.62011 31.9709 4.61011C31.9809 4.60011 32.0009 4.58006 32.0309 4.56006C32.1409 4.47006 32.3909 4.32011 32.7709 4.11011L32.5809 4.6001L32.4909 4.80005L32.4109 4.95996L32.2409 5.32007C32.1409 5.58007 32.2009 5.76009 32.4309 5.84009L32.6809 5.93994L32.1409 7.32007L32.1309 7.31006Z" fill="white"/>
<path d="M34.481 8.57007L33.941 8.28003L33.841 7.27002L33.081 7.82007L31.801 7.13989L32.501 5.84009L33.751 6.51001L33.271 4.56006L34.331 3.3999L36.801 3.8501L36.511 4.17993C36.381 4.32993 36.231 4.4899 36.081 4.6499L34.151 4.40991L34.441 5.76001C34.561 6.32001 34.691 6.7601 34.821 7.1001L35.171 7.29004L34.471 8.59009L34.481 8.57007Z" fill="white"/>
<path d="M37.871 6.34011L36.821 6.81008L36.071 8.05007C36.021 8.12007 35.881 8.29007 35.631 8.55007C35.381 8.81007 35.231 8.96 35.161 8.98L34.961 8.93996L34.161 8.38991L35.001 7.16994L35.681 7.63991H35.711L35.731 7.60012C35.951 7.27012 36.161 6.92007 36.341 6.55007C36.561 6.09007 36.651 5.71996 36.611 5.43996L36.941 5.19997C36.941 5.19997 37.021 5.15014 37.061 5.12014C37.101 5.09014 37.141 5.07007 37.181 5.05007C37.461 4.87007 37.671 4.78006 37.791 4.79006L37.691 4.94997C37.601 5.07997 37.591 5.30013 37.661 5.61013C37.691 5.73013 37.721 5.84998 37.761 5.95998C37.791 6.04998 37.841 6.16005 37.901 6.28005L37.871 6.3301V6.34011Z" fill="white"/>
<path d="M37.811 8.98999C37.321 9.56999 36.821 9.94009 36.301 10.0901L38.231 7.28003C38.281 7.21003 38.711 6.98009 39.521 6.59009C38.731 7.77009 38.161 8.56999 37.811 8.98999Z" fill="white"/>
<path d="M40.941 15.2599L40.6109 14.82C40.5509 14.74 40.561 14.6098 40.621 14.4198C40.651 14.3298 40.691 14.2599 40.721 14.1999C40.761 14.1399 40.8009 14.1 40.8609 14.06L40.151 14.2299L38.821 12.4298C38.501 11.9998 38.711 11.5099 39.441 10.9699C39.531 10.8999 39.591 10.86 39.631 10.83C39.671 10.81 39.751 10.7598 39.871 10.6898C39.991 10.6198 40.151 10.5499 40.351 10.4599C40.831 10.2399 41.141 10.1799 41.281 10.2599L41.221 10.31C41.141 10.37 41.021 10.4399 40.841 10.5299C40.661 10.6199 40.5409 10.6999 40.4609 10.7499C40.3109 10.8599 40.191 11.0199 40.121 11.2199C40.041 11.4199 40.0609 11.5999 40.1809 11.7499L41.411 13.4098C41.411 13.4098 41.541 13.3599 41.671 13.2799C41.801 13.1999 41.971 13.0899 42.151 12.9499L43.2109 12.9298L42.691 13.31L41.981 13.7399C41.871 13.8199 41.841 13.9099 41.871 14.0299L42.121 14.37L40.9309 15.2499L40.941 15.2599ZM43.441 12.1298C43.371 12.1498 43.221 12.1698 42.981 12.1898C42.741 12.2098 42.601 12.1898 42.561 12.1598C42.541 12.1298 42.531 11.86 42.541 11.35H42.311L41.9609 11.32C41.9409 11.24 41.921 11.0898 41.921 10.8798C41.901 10.6298 41.921 10.4999 41.951 10.4699C42.001 10.4299 42.2909 10.4299 42.8309 10.4699C42.8109 10.5199 42.791 10.65 42.781 10.86C42.781 11.06 42.781 11.1799 42.811 11.2199C42.811 11.2199 42.8209 11.2199 42.8309 11.2199C42.8309 11.2199 42.851 11.2199 42.881 11.2199L43.101 11.2399L43.451 11.2699V12.12L43.441 12.1298Z" fill="white"/>
<path d="M40.611 17.05C40.461 17.06 40.331 17.06 40.211 17.05C40.151 17.05 40.101 17.05 40.041 17.04C39.981 17.04 39.921 17.02 39.861 17.01C39.841 16.94 39.861 16.8299 39.901 16.6699C39.911 16.5699 39.941 16.4601 39.981 16.3301L39.851 16.3101L39.521 16.26C39.491 16.05 39.541 15.8201 39.661 15.5601L40.401 15.6299C40.311 15.7999 40.261 16 40.251 16.23C40.301 16.26 40.401 16.29 40.531 16.3C40.651 16.31 40.731 16.3301 40.781 16.3401L40.631 17.04L40.611 17.05ZM41.631 16.96L41.351 16.3999C41.291 16.2799 41.321 16.13 41.461 15.96L41.711 15.7L41.021 15.74L40.581 14.8601L41.901 14.2L42.391 15.1699C42.651 15.1099 42.871 15.0299 43.061 14.9399L43.241 14.8601C43.241 14.8601 43.301 14.8401 43.311 14.8401C43.331 14.8401 43.351 14.8401 43.391 14.8401C43.531 14.8401 43.811 14.9 44.241 15L43.771 15.24L43.571 15.3301L43.411 15.3899L43.051 15.54C42.801 15.67 42.731 15.84 42.841 16.05L42.961 16.29L41.641 16.95L41.631 16.96Z" fill="white"/>
<path d="M40.871 18.3799C40.871 18.3799 40.721 18.34 40.501 18.23C40.451 18.2 40.401 18.1799 40.371 18.1599C40.331 18.1399 40.301 18.1201 40.271 18.1001C40.221 18.0701 40.181 18.03 40.161 18C40.161 17.98 40.161 17.9399 40.171 17.8799C40.191 17.8199 40.211 17.7299 40.261 17.6299C40.301 17.5199 40.341 17.4399 40.371 17.3799C40.401 17.3199 40.431 17.28 40.451 17.27C40.491 17.25 40.631 17.2899 40.871 17.3899C41.111 17.4799 41.231 17.5501 41.251 17.5901C41.251 17.6001 41.201 17.74 41.081 17.99C40.961 18.25 40.891 18.3799 40.871 18.3899V18.3799ZM44.001 17.79C43.741 17.89 43.421 17.97 43.051 18.04L42.591 18.1399C42.511 18.1599 42.431 18.1799 42.351 18.1899C42.281 18.1999 42.191 18.22 42.081 18.23L41.471 16.6001L42.861 16.0801L43.341 17.3799H43.391C43.511 17.3199 43.681 17.2 43.891 17C44.091 16.82 44.221 16.67 44.301 16.53L45.461 16.5801C45.031 17.1701 44.541 17.57 43.991 17.77L44.001 17.79Z" fill="white"/>
</svg>
