<svg width="1222" height="159" viewBox="0 0 1222 159" fill="none" xmlns="http://www.w3.org/2000/svg">
<path opacity="0.3" d="M1218.34 131.93C1219.25 131.93 1220.07 131.56 1220.67 130.96C1221.27 130.37 1221.64 129.54 1221.64 128.63V110.59C1221.64 109.68 1221.27 108.86 1220.67 108.26C1220.07 107.66 1219.25 107.29 1218.34 107.29H1216.48V131.94H1218.34V131.93ZM1208.16 103.43C1207.75 102.44 1207.15 101.55 1206.4 100.8C1204.93 99.3402 1202.9 98.4202 1200.68 98.4202H1198.35V99.7802V101.11V103.42H1208.16V103.43ZM1208.77 131.93V107.28H1199.04H1198.33V131.93H1208.76H1208.77ZM997.75 131.93H1152.32V126.92H997.75V131.93ZM997.75 124.22H1152.32V121.83H997.75V124.22ZM940.14 131.93H988.89V121.84H940.14V131.93ZM933.51 109.74V107.6V98.4202H931.54H923.71V123.52C925.79 123.77 927.42 125.56 927.42 127.71V131.93H931.29V121.84V119.23V118.35H933.51V109.75V109.74ZM991.12 109.74H991.38C991.57 108.11 992.32 106.64 993.43 105.53C994.73 104.23 996.51 103.42 998.47 103.42H1007.52H1057.33H1159.46H1185.36H1194.05V101.11V99.7802V98.4202H937.77V103.04V105.47V109.74V118.34H991.1V109.74H991.12ZM1160.22 117.91C1164.58 117.91 1168.11 118.67 1168.11 119.6V131.92H1194.06V107.27H1185.37H1159.47H1153.13H1063.68H1007.53H998.48C997.57 107.27 996.74 107.64 996.15 108.24C995.74 108.65 995.44 109.16 995.29 109.74H995.39V118.34H1154.97C1156.37 118.07 1158.21 117.91 1160.22 117.91ZM780.06 151.03V137.35H753.02V151.03H780.06ZM740.02 151.03H746.67V137.35H740.02V151.03ZM732.32 151.03V137.35H719.63V151.03H732.32ZM235.92 143.09H214.99V152.73H235.92V143.09ZM245.98 143.09H240.83V152.73H245.98V143.09ZM71.93 109.74V107.6V98.4202H69.96H62.13V123.52C64.21 123.77 65.84 125.56 65.84 127.71V131.93H69.71V121.84V119.23V118.35H71.93V109.75V109.74ZM117.02 98.4202H76.2V103.04V105.47V109.74V118.34H117.02V98.4202ZM117.02 121.83H78.56V131.92H117.02V121.83ZM210.07 152.72V143.08V139.68V131.75H214.98V139.68H235.91V131.75H240.82V139.68H245.97V130.97V118.25V111.99C245.97 110.08 245.19 108.34 243.92 107.08C242.66 105.82 240.92 105.03 239.01 105.03H190.6H186H180.91V142.21H200.44V147.09H194.52V152.7H210.08L210.07 152.72ZM117.02 86.8801H91.71H88.96H80.7C79.47 86.8801 78.34 87.3901 77.52 88.2001C76.85 88.8701 76.39 89.7401 76.25 90.7201H117.02V86.8801ZM460.21 136.07L459.69 132.66L424.93 137.71L425.45 141.12L460.21 136.07ZM418.69 142.1L418.17 138.69L398.11 141.6L391.56 142.55L392.08 145.96L418.69 142.1ZM385.31 146.94L384.79 143.53L358.83 147.3L359.35 150.71L385.31 146.94ZM485.36 128.94L466.45 131.68L466.97 135.09L485.36 132.42V128.94ZM675.57 112.99C675.57 111.35 676.91 110.01 678.55 110.01H682.7V101.47C682.7 100.2 682.18 99.0401 681.34 98.2001C680.5 97.3601 679.34 96.8401 678.07 96.8401H638.59C637.32 96.8401 636.16 97.3601 635.32 98.2001C634.59 98.9301 634.1 99.9101 633.98 100.99H650.66C653.15 100.99 655.4 102.01 657.04 103.64C658.68 105.28 659.69 107.53 659.69 110.02V122.71H664.91C665.52 118.59 669.1 115.4 673.39 115.4H675.58V113L675.57 112.99ZM629.06 104.88H611.18C609.77 104.88 608.49 105.46 607.56 106.39C606.63 107.32 606.05 108.6 606.05 110.01V122.7H611.27C611.88 118.58 615.46 115.39 619.75 115.39H621.94V112.99C621.94 111.35 623.28 110.01 624.92 110.01H629.07V104.88H629.06ZM641.07 112.99V115.39H643.26C647.55 115.39 651.12 118.58 651.74 122.7H652.84H655.78V110.01C655.78 108.6 655.2 107.32 654.27 106.39C653.34 105.46 652.06 104.88 650.65 104.88H633.94V110.01H638.09C639.73 110.01 641.07 111.35 641.07 112.99ZM568.31 112.99C568.31 111.35 569.65 110.01 571.29 110.01H575.44V94.2802C575.44 93.0102 574.92 91.8501 574.08 91.0101C573.24 90.1701 572.08 89.6501 570.81 89.6501H531.33C530.06 89.6501 528.9 90.1701 528.06 91.0101C527.22 91.8501 526.7 93.0102 526.7 94.2802V110.01H530.85C532.49 110.01 533.83 111.35 533.83 112.99V115.39H536.02C540.31 115.39 543.88 118.58 544.5 122.7H557.67C558.28 118.58 561.86 115.39 566.15 115.39H568.34V112.99H568.31ZM164.25 147.11H148.97V158.53H164.25V147.11ZM181.82 152.72H189.88V147.11H172.37V158.53H181.82V152.73V152.72ZM318.24 156.68L352.59 151.69L352.07 148.28L281.52 158.52H305.51L318.24 156.67V156.68ZM353.53 157.79L348.45 158.53H353.92C353.74 158.32 353.61 158.07 353.52 157.79H353.53ZM485.36 138.65L467.89 141.19C468.02 142.33 467.22 143.38 466.08 143.56L463.56 143.94C462.41 144.11 461.32 143.32 461.13 142.17L426.37 147.22C426.53 148.38 425.73 149.46 424.57 149.64L422.05 150.02C420.89 150.2 419.79 149.39 419.61 148.22V148.2L417.71 148.47L392.94 152.07C392.87 153.04 392.13 153.88 391.12 154.03L388.6 154.41C387.58 154.56 386.62 153.97 386.27 153.04L360.23 156.82C360.23 157.51 359.88 158.14 359.34 158.53H485.35V138.66L485.36 138.65ZM732.32 155.42H719.63V158.53H732.32V155.42ZM746.67 155.42H740.02V158.53H746.67V155.42ZM780.06 155.42H753.02V158.53H780.06V155.42ZM813.45 155.42H786.41V158.53H813.45V155.42ZM846.84 155.42H819.8V158.53H846.84V155.42ZM880.24 155.42H853.2V158.53H880.24V155.42ZM898.94 119.56C898.94 117.41 900.57 115.62 902.65 115.37V107.42C902.65 102.83 904.53 98.6501 907.55 95.6301C909.35 93.8301 911.56 92.4301 914.02 91.6001C913.81 91.3401 913.59 91.0901 913.35 90.8501C911.72 89.2201 909.47 88.2101 907 88.2101H894.81H749C746.53 88.2101 744.28 89.2201 742.65 90.8501C741.02 92.4801 740.01 94.7301 740.01 97.2001V105.28V121.71V132.96H746.66V122.71H753.01V132.96H780.05V122.71H786.4V132.96V137.35V151.03H813.44H819.79H846.83H853.18H880.22V137.35V132.96V122.71H886.57V132.96H894.38V137.35H886.57V151.03H894.38V155.42H886.57V158.53H898.93V119.56H898.94ZM914.07 123.77V119.55C914.07 117.4 912.44 115.61 910.36 115.36V107.41C910.36 104.94 911.37 102.69 913 101.06C913.85 100.21 914.87 99.5301 916 99.0701V123.52C913.92 123.77 912.29 125.56 912.29 127.71V158.53H913.97L914.07 123.77ZM11.51 23.4001C13.31 21.6001 15.52 20.2001 17.98 19.3701C17.77 19.1101 17.55 18.8601 17.31 18.6201C15.68 16.9901 13.43 15.9801 10.96 15.9801H0.540039V8.28015H10.96C15.55 8.28015 19.73 10.1602 22.75 13.1802C24.27 14.7002 25.49 16.5001 26.34 18.5001H27.53H35.48H37.48C37.64 16.3501 38.59 14.4101 40.03 12.9701C41.62 11.3701 43.81 10.3801 46.23 10.3801H54.49H82.55V5.32007C82.55 2.74007 96.85 0.650146 114.5 0.650146C132.15 0.650146 146.45 2.74007 146.45 5.32007V26.8601H151.54H156.14H204.55C208.1 26.8601 211.34 28.3101 213.68 30.6501C216.02 32.9901 217.47 36.2201 217.47 39.7802V61.7301V67.4601H220.3V70.8601H217.47V80.5001H225.29V83.2301L264.17 77.5901L316.68 69.9701V69.9302C316.5 68.7702 317.31 67.6701 318.47 67.4901L320.99 67.1101C322.15 66.9301 323.25 67.7402 323.43 68.9102V68.9901L349.41 65.2201L349.38 65.0502C349.2 63.8902 350.01 62.7901 351.18 62.6101L353.7 62.2301C354.86 62.0501 355.96 62.8602 356.14 64.0302L356.17 64.2401L382.8 60.3701C382.78 59.3201 383.55 58.3801 384.62 58.2201L387.14 57.8401C388.22 57.6801 389.25 58.3601 389.53 59.4001L424.31 54.3501C424.27 53.2801 425.04 52.3101 426.13 52.1501L428.65 51.7701C429.75 51.6001 430.79 52.3201 431.05 53.3801L450.89 50.5001H469.53C470.14 46.3801 473.72 43.1901 478.01 43.1901H480.2V40.7902C480.2 39.1502 481.54 37.8102 483.18 37.8102H487.33V22.0801C487.33 19.4601 488.4 17.0801 490.12 15.3501C491.84 13.6301 494.23 12.5602 496.85 12.5602H536.33C538.95 12.5602 541.33 13.6301 543.06 15.3501C544.78 17.0701 545.85 19.4601 545.85 22.0801V37.8102H550C551.64 37.8102 552.98 39.1502 552.98 40.7902V43.1901H555.17C559.46 43.1901 563.03 46.3801 563.65 50.5001H567.69V37.8102C567.69 35.3202 568.71 33.0702 570.34 31.4302C571.98 29.7902 574.23 28.7802 576.72 28.7802H594.62C594.74 26.3502 595.79 24.1602 597.4 22.5402C599.12 20.8202 601.51 19.7501 604.13 19.7501H643.61C646.23 19.7501 648.61 20.8202 650.34 22.5402C652.06 24.2602 653.13 26.6501 653.13 29.2701V37.8102H657.28C658.92 37.8102 660.26 39.1502 660.26 40.7902V43.1901H662.45C666.74 43.1901 670.31 46.3801 670.93 50.5001H678.84H685.19V60.7501H697.88V53.3501V24.9901C697.88 20.4001 699.76 16.2201 702.78 13.2001C705.8 10.1801 709.98 8.30017 714.57 8.30017H860.38H872.57C877.16 8.30017 881.34 10.1801 884.36 13.2001C885.88 14.7201 887.1 16.5201 887.95 18.5201H889.14H897.09H899.09C899.25 16.3701 900.2 14.4301 901.64 12.9901C903.23 11.3901 905.42 10.4001 907.84 10.4001H916.1H1144.11H1148.38H1155.12C1157.53 10.4001 1159.73 11.3901 1161.32 12.9801C1162.76 14.4301 1163.71 16.3701 1163.87 18.5201H1166.22C1170.57 18.5201 1174.52 20.3002 1177.39 23.1602C1179.55 25.3402 1181.1 28.1201 1181.72 31.2201H1183.89C1185.85 31.2201 1187.64 32.0201 1188.93 33.3201C1190.22 34.6201 1191.03 36.4101 1191.03 38.3701V56.4102C1191.03 58.3702 1190.23 60.1601 1188.93 61.4501C1187.63 62.7501 1185.85 63.5602 1183.88 63.5602H1182.02V67.4102L1221.01 75.3002V152.44H0.540039V25.9701H9.40004C10.02 25.0401 10.72 24.1801 11.51 23.4001ZM953.3 86.8801H950.55H942.29C941.06 86.8801 939.93 87.3901 939.11 88.2001C938.44 88.8701 937.98 89.7401 937.84 90.7201H1194.03C1193.89 89.7401 1193.43 88.8701 1192.76 88.2001C1191.94 87.3901 1190.82 86.8801 1189.58 86.8801H1182.84H1178.57H953.31H953.3Z" fill="#013183"/>
</svg>
