<svg width="1120" height="659" viewBox="0 0 1120 659" fill="none" xmlns="http://www.w3.org/2000/svg">
<path opacity="0.3" fill-rule="evenodd" clip-rule="evenodd" d="M1080.92 152.8H1083.86V141.79H1080.92V152.8ZM1095.8 141.78V152.79H1091.94V141.78H1095.8ZM1040.12 122.13V119.22C1038.27 119.29 1036.53 119.37 1034.92 119.47H1036.25V121.95C1037.48 122.02 1038.78 122.08 1040.13 122.13H1040.12ZM1036.24 143.33C1037.47 143.26 1038.77 143.2 1040.12 143.15V123.59C1038.77 123.54 1037.47 123.48 1036.24 123.42V143.33ZM1031.51 121.63C1032.52 121.72 1033.61 121.8 1034.77 121.87V119.48C1033.61 119.55 1032.52 119.63 1031.51 119.72L1030.2 119.83V121.51L1031.51 121.62V121.63ZM1030.2 143.77C1031.57 143.64 1033.1 143.52 1034.78 143.41V123.33C1033.58 123.26 1032.44 123.17 1031.39 123.08C1030.98 123.05 1030.58 123.01 1030.2 122.97V143.76V143.77ZM1028.73 121.38V119.97C1025.72 120.26 1023.95 120.51 1023.95 120.68H1024.68V120.9C1025.47 121.04 1026.86 121.2 1028.72 121.38H1028.73ZM1024.68 144.58C1025.63 144.34 1027 144.12 1028.72 143.92V122.81C1027.07 122.6 1025.71 122.35 1024.68 122.07V144.58ZM1064.75 123.51V143.25C1065.84 143.3 1066.89 143.36 1067.89 143.42V123.34C1066.89 123.4 1065.84 123.46 1064.75 123.51ZM1064.75 119.31V122.04C1065.84 121.99 1066.89 121.93 1067.89 121.87V119.48C1066.89 119.42 1065.84 119.36 1064.75 119.31ZM1071.27 123.09C1070.66 123.14 1070.02 123.19 1069.35 123.24V143.52C1070.83 143.63 1072.18 143.74 1073.38 143.87V141.79H1071.36L1073.93 140.23V122.82C1073.11 122.92 1072.22 123.01 1071.27 123.1V123.09ZM1071.15 119.72C1070.58 119.67 1069.98 119.62 1069.35 119.58V121.77C1069.97 121.73 1070.57 121.68 1071.15 121.63C1072.17 121.54 1073.1 121.46 1073.93 121.38V119.97C1073.09 119.89 1072.16 119.81 1071.15 119.72ZM1085.33 133.34L1085.65 133.52V102.84C1085.65 99.9801 1083.31 97.6401 1080.44 97.6401H1073.57H1068.94H1066.22V98.2802C1066.22 99.1902 1065.48 99.9302 1064.57 99.9302C1063.66 99.9302 1062.92 99.1902 1062.92 98.2802V97.6401H1062.07C1059.2 97.6401 1056.86 99.9801 1056.86 102.84V116.93C1059.89 117.09 1062.35 117.4 1063.67 117.8C1066.5 117.92 1069.07 118.07 1071.27 118.26C1076.77 118.73 1080.18 119.57 1080.18 120.68C1080.18 120.98 1079.93 121.26 1079.45 121.53V136.91L1085.33 133.36V133.34ZM1075.4 146.58V152.8H1077.97V146.11C1077.31 146.28 1076.45 146.43 1075.4 146.58ZM1075.4 141.78V144.11C1076.45 144.26 1077.32 144.41 1077.97 144.58V141.78H1075.4ZM1075.4 122.61V139.34L1077.97 137.78V122.07C1077.26 122.27 1076.4 122.45 1075.4 122.61ZM1078.71 120.67C1078.71 120.54 1077.51 120.34 1075.4 120.11V121.22C1076.54 121.1 1077.41 120.98 1077.97 120.89V120.67H1078.71ZM1070.78 274.61L1064.74 274.93V284.96H1070.78V274.61ZM1074.67 274.4L1072.62 274.51V284.96H1074.67V274.4ZM1074.67 272.57L1064.75 273.09V247L1074.67 246.83V272.56V272.57ZM1100.06 293.4H1097.09V246.45L1100.06 246.4V293.4ZM1097.09 194.89C1098.89 196.29 1100.06 198.48 1100.06 200.92V239.05L1097.09 239.1V194.88V194.89ZM958.53 314.59V355.09L980.22 354.72V314.21L958.53 314.59ZM964.04 189.88V195.02H969.55V189.88H964.04ZM955.22 166.93C955.22 166.42 955.63 166.01 956.14 166.01C956.65 166.01 957.06 166.42 957.06 166.93V171.15V184.37H955.22V166.93ZM977.64 189.88V195.02H980.58V189.88H977.64ZM925.81 266.53V249.39L940.88 249.13V255.57L925.81 266.53ZM925.81 363V382.27L935.73 374.54V362.83L925.81 363ZM925.81 342.49V355.65L935.73 355.48V347.78L925.81 342.49ZM925.81 315.16V323.92L935.73 318.37V314.99L925.81 315.16ZM925.81 290.66V307.83L935.73 307.66V297.54L925.81 290.67V290.66ZM925.81 270.36V286.9L935.73 293.77V263.15L925.81 270.37V270.36ZM905.6 272.9V249.75L900.45 249.84V269.34L905.6 272.9ZM905.6 308.18V285.05L900.45 288.79V308.26L905.6 308.17V308.18ZM905.6 328.82V315.51L900.45 315.6V326.08L905.6 328.82ZM905.6 389.08V363.34L900.45 363.43V385.26L905.6 389.08ZM905.6 398.01V393.12L900.45 389.3V402.01L905.6 398V398.01ZM905.6 457.35V435.47L900.45 435.56V453.53L905.6 457.35ZM905.6 466.27V461.38L900.45 457.56V470.27L905.6 466.26V466.27ZM878.85 491.2L889.17 491.02V483.17L878.85 491.21V491.2ZM876.78 435.98L889.17 445.17V435.77L876.78 435.99V435.98ZM881.42 315.94L889.17 320.07V315.8L881.42 315.94ZM873.01 308.75L889.17 308.47V297L873.01 308.75ZM872.97 250.3L889.17 261.51V250.02L872.97 250.3ZM900.45 273.1L905.6 276.66V281.22L900.45 284.96V273.09V273.1ZM925.81 435.12V450.53L940.88 438.79V434.85L925.81 435.11V435.12ZM900.45 490.82L905.6 490.73V475.12H900.45V490.82ZM905.6 470.37L901.85 473.29H905.6V470.37ZM980.21 434.17L967.54 434.39V473.29H971.39H974.51H980.21V434.17ZM980.21 489.43V475.13H974.51V489.53L980.21 489.43ZM900.45 428.23L905.6 428.14V409.41H900.45V428.23ZM905.6 402.11L900.45 406.12V407.95H905.6V402.11ZM940.88 222.49V198.32H938.67V222.56L940.88 222.49ZM940.88 226.76V223.95L938.67 224.02V226.83L940.88 226.76ZM940.88 236.49V228.23L938.67 228.3V236.56L940.88 236.49ZM940.88 241.79V237.95L938.67 238.02V241.83L940.88 241.79ZM964.04 197.58H969.55V206.45C968.55 205.94 967.43 205.66 966.24 205.66H964.04V197.58ZM969.18 221.63V214.47C969.18 211.64 966.86 209.33 964.03 209.33H958.88H958.51V210.5C961.54 210.61 967.03 210.46 967.02 216.33V221.69L969.17 221.62L969.18 221.63ZM969.18 225.91V223.1L967.02 223.17V225.98L969.18 225.91ZM969.18 235.63V227.37L967.01 227.44L966.99 235.7L969.18 235.63ZM969.18 241.31V237.1L966.99 237.17V241.35L969.18 241.31ZM958.53 237.42V241.49L962.63 241.42V237.29L958.53 237.41V237.42ZM958.53 227.69V235.95L962.63 235.83V227.57L958.53 227.69ZM958.53 223.42V226.23L962.63 226.11V223.3L958.53 223.42ZM958.53 221.96L962.63 221.84V217.47C962.63 215.08 960.81 214.67 958.53 214.63V221.96ZM976.54 195.02V189.88H975.44V195.02H976.54ZM980.58 225.56V222.75L975.43 222.9V225.71L980.58 225.55V225.56ZM980.58 235.29V227.03L975.43 227.19V235.45L980.58 235.29ZM980.58 241.11V236.75L975.43 236.91V241.2L980.58 241.11ZM976.24 171.96C975.74 172.46 975.43 173.15 975.43 173.9V188.03H980.58V176.61H980.95V173.9C980.95 173.15 980.64 172.46 980.14 171.96C979.64 171.46 978.95 171.15 978.19 171.15C977.43 171.15 976.75 171.46 976.24 171.96ZM970.65 197.58V207.13H970.64C971.05 207.43 971.42 207.78 971.76 208.16V197.58H970.66H970.65ZM970.65 189.88V195.02H971.75V189.88H970.65ZM925.81 142.3C926.7 142.25 927.56 142.2 928.38 142.14V139.58C927.56 139.52 926.7 139.47 925.81 139.42V142.29V142.3ZM931.88 141.82L932.29 141.77V139.95L931.88 139.9C931.26 139.83 930.6 139.76 929.91 139.7V142.01C930.6 141.95 931.26 141.88 931.88 141.81V141.82ZM933.76 140.13V141.6C935.75 141.34 937.03 141.11 937.32 140.94V140.8C937.03 140.63 935.75 140.4 933.76 140.14V140.13ZM900.45 141.6V140.12L900.84 140.07V141.64L900.45 141.59V141.6ZM903.76 141.97V139.75C904.06 139.72 904.38 139.69 904.69 139.67V142.06C904.37 142.03 904.06 142.01 903.76 141.98V141.97ZM933.01 409.41L934.27 410.34V409.41H933.01ZM889.17 376.9V363.63L883.18 363.73V372.46L889.17 376.9ZM889.17 407.94V380.93L883.18 376.49V407.94H889.17ZM889.17 410.8V409.41H883.18V415.47L889.17 410.81V410.8ZM889.17 428.43V414.9L883.18 419.56V428.53L889.17 428.42V428.43ZM871.68 363.93L879.51 369.73V363.79L871.68 363.92V363.93ZM905.6 356L900.45 356.09V341.06L905.58 338.19H905.6V356ZM935.74 344.88L925.82 339.59V338.19H935.74V344.88ZM925.81 326.87L935.73 321.32V336.73H925.81V326.88V326.87ZM900.45 328.98L905.6 331.72V335.23L902.95 336.72H900.46V328.98H900.45ZM889.17 344.43V338.19H885.75V346.34L889.17 344.43ZM889.17 356.29V347.38L885.75 349.29V356.35L889.17 356.29ZM877.06 351.21V338.19H875.04V352.34L877.06 351.21ZM877.06 356.5V354.16L875.04 355.29V356.54L877.06 356.51V356.5ZM870.32 338.19V354.98L871.61 354.26V338.19H870.32ZM875.04 333.59V336.72H877.06V322.59C877.06 321.28 878.13 320.2 879.45 320.2C880.76 320.2 881.84 321.27 881.84 322.59V334.71C882.25 334.36 882.79 334.15 883.37 334.15C884.68 334.15 885.76 335.22 885.76 336.54V336.72H889.18V322.97L876.16 316.03L870.33 316.13V336.72H871.62V333.59C871.62 332.65 872.39 331.88 873.34 331.88C874.28 331.88 875.06 332.65 875.06 333.59H875.04ZM940.88 407.94V388.85H937.94V407.94H940.88ZM935.74 378.64L925.82 386.37V404.08L931.04 407.95H934.28V388.86V385.92C934.28 385.03 934.91 384.29 935.75 384.12V378.64H935.74ZM1112.57 229V177.44C1112.57 174.79 1110.4 172.62 1107.75 172.62H1097.09V184.39C1104.13 186.43 1109.32 192.95 1109.32 200.61V238.89L1112.58 238.83V228.99L1112.57 229ZM988.45 297.58V300.88L993.23 296.5V293.2L988.45 297.58ZM994.1 292.41V295.71L998.28 291.88V288.58L994.1 292.41ZM999.15 287.78V291.08L1003.35 287.23V283.93L999.15 287.78ZM1004.22 283.14V286.44L1008.12 282.87V279.57L1004.22 283.14ZM1010.35 277.52L1008.98 278.77V282.07L1010.35 280.82V277.52ZM1012.19 277.7V279.14L1013.85 277.62L1012.19 277.71V277.7ZM1012.15 275.87L1015.76 275.68V272.57L1012.15 275.87ZM1016.63 271.77V275.07L1021.66 270.46V267.16L1016.63 271.77ZM1022.53 266.36V269.66L1026.94 265.62V262.32L1022.53 266.36ZM1031.29 258.34L1027.82 261.52V264.82L1031.71 261.26V258.34H1031.29ZM980.58 306.87V304.8L978.27 306.91L980.58 306.87ZM980.58 248.45L958.53 248.83V307.25L975.51 306.95L980.58 302.3V248.44V248.45ZM1040.12 247.43L984.99 248.38V298.27L1030.27 256.79C1030.44 256.61 1030.67 256.5 1030.94 256.5H1040.13V247.42L1040.12 247.43ZM1040.12 258.34H1032.57V260.46L1033.93 259.22C1034.1 259.04 1034.33 258.93 1034.6 258.93H1040.13V258.34H1040.12ZM1040.12 274.39V260.77H1038.08V274.5L1040.12 274.39ZM1040.12 284.96V276.23L1038.08 276.34V284.96H1040.12ZM1037.21 274.55V260.78H1034.94L1032.56 262.96V274.8L1037.21 274.55ZM1035.52 284.96V276.47L1032.57 276.63V284.96H1035.52ZM1031.7 274.84V263.75L1027.81 267.31V275.05L1031.7 274.84ZM1031.7 298.32V276.67L1027.81 276.88V298.5C1029.09 298.43 1030.39 298.37 1031.7 298.32ZM1026.46 276.95V298.57L1026.95 298.54V276.92L1026.46 276.95ZM1026.95 275.09V268.1L1022.54 272.14V275.32L1026.95 275.09ZM1024.62 298.68V277.05L1022.53 277.16V298.83C1023.22 298.78 1023.92 298.73 1024.62 298.69V298.68ZM1018.6 277.36V299.13C1019.61 299.04 1020.63 298.96 1021.67 298.88V277.2L1018.6 277.36ZM1021.66 275.37V272.94L1018.85 275.52L1021.66 275.37ZM1016.76 299.31V277.46H1016.73L1016.63 277.55V299.32L1016.76 299.31ZM1012.19 299.8C1013.36 299.66 1014.55 299.53 1015.76 299.41V278.35L1012.19 281.62V299.8ZM1010.35 300.03V283.31L1008.98 284.56V300.21C1009.43 300.15 1009.89 300.09 1010.35 300.03ZM1008.11 300.33V285.35L1004.21 288.92V300.92C1005.47 300.71 1006.77 300.51 1008.11 300.32V300.33ZM1003.35 301.07V289.72L999.15 293.57V301.87C1000.49 301.59 1001.89 301.33 1003.35 301.08V301.07ZM998.28 302.05V294.36L994.1 298.19V303.04C995.42 302.7 996.81 302.37 998.28 302.05ZM993.23 303.27V298.99L988.45 303.37V304.79C989.88 304.26 991.48 303.76 993.23 303.28V303.27ZM987.59 305.12V304.16L985.62 305.97C986.23 305.68 986.89 305.4 987.59 305.12ZM984.99 300.76V304.06L987.59 301.68V298.38L984.99 300.76ZM938.92 413.79L940.73 415.13V412.13L938.92 413.79ZM967.54 387.58V390.88L969.16 389.4V386.1L967.54 387.58ZM970.03 385.3V388.6L974.44 384.56V381.26L970.03 385.3ZM978.78 377.28L975.31 380.46V383.76L979.2 380.2V377.28H978.79H978.78ZM940.88 409.41H937.94V412.21L940.88 409.52V409.42V409.41ZM980.21 362.06L967.54 362.28V385.09L977.76 375.73C977.93 375.55 978.16 375.44 978.43 375.44H980.22V362.06H980.21ZM980.21 377.28H980.06V379.4L980.21 379.26V377.27V377.28ZM980.21 407.94V381.75L980.06 381.89V407.95H980.21V407.94ZM979.19 407.94V382.68L975.3 386.24V407.94H979.19ZM974.44 407.94V387.04L970.03 391.08V407.94H974.44ZM967.54 407.94H969.16V391.88L967.54 393.36V407.94ZM974.73 496.86L979.3 501.04V504.34L974.52 499.96V496.86H974.73ZM973.64 496.88V499.17L971.19 496.92L973.64 496.88ZM940.88 465.85V469.15L940.8 469.08V465.78L940.88 465.85ZM936.46 461.8L939.93 464.98V468.28L936.04 464.72V461.8H936.46ZM980.21 496.76V499.4L977.39 496.81L980.21 496.76ZM967.54 475.12H971.39V489.58L969.53 489.61L967.54 487.79V475.12ZM925.81 454.63L940.88 442.9V463.38L937.48 460.26C937.31 460.08 937.08 459.97 936.81 459.97H925.81V454.63ZM925.81 461.8H935.17V463.92L933.81 462.68C933.64 462.5 933.41 462.39 933.14 462.39H925.8V461.8H925.81ZM927.09 473.29L925.81 472.34V464.24H929.66V473.29H927.09ZM929.57 475.12H929.67V475.19L929.57 475.12ZM925.81 490.38V476.38L929.66 479.24V490.32L925.81 490.39V490.38ZM930.53 473.29V464.24H932.8L935.18 466.42V473.3H930.54L930.53 473.29ZM930.53 475.84V475.12H935.17V479.28L930.53 475.84ZM930.53 490.3V479.88L935.17 483.32V490.22L930.53 490.3ZM936.05 473.29V467.21L939.94 470.77V473.29H936.05ZM936.05 479.93V475.13H939.94V482.82L936.05 479.94V479.93ZM936.05 490.2V483.96L939.94 486.84V490.13L936.05 490.2ZM936.05 505.83V497.54L939.94 497.47V502.8L936.05 505.83ZM940.88 497.45V502.06L940.8 502.12V497.45H940.88ZM940.88 487.55V490.11H940.8V487.48L940.88 487.54V487.55ZM940.88 475.12V483.51L940.8 483.45V475.12H940.88ZM940.88 473.29H940.8V471.57L940.88 471.64V473.29ZM980.21 501.88V505.18L980.16 505.14V501.84L980.21 501.88ZM905.6 520.61L901.19 517.34H905.6V520.61ZM974.51 502.45L978.94 506.51H974.51V502.45ZM969.47 497.82L973.65 501.65V506.5H969.47V497.82ZM967.54 496.99L968.53 496.97L968.6 497.03V506.5H967.54V496.98V496.99ZM940.8 506.22L940.88 506.16V506.51H940.8V506.23V506.22ZM925.81 497.71L935.17 497.55V506.5H925.81V497.71ZM900.45 498.16L905.6 498.07V506.51H900.45V498.16ZM875.9 498.58L889.17 498.35V506.5H886.58L875.9 498.58ZM934.27 415.57V414.38L927.57 409.41H925.82V417.1H932.6L934.27 415.57ZM969.16 409.41H967.54V417.1H969.16V409.41ZM974.44 409.41H970.03V417.1H974.44V409.41ZM979.19 409.41H975.3V417.1H979.19V409.41ZM980.21 409.41H980.06V417.1H980.21V409.41ZM879.5 407.94V373.77L870.31 366.96V388.34C873.01 388.77 874.9 389.8 874.9 391.01V407.95H879.5V407.94ZM879.5 418.33V409.41H874.9V421.91L879.5 418.33ZM879.5 428.6V422.43L874.9 426.01V428.68L879.5 428.6ZM889.17 473.29V449.2L874.91 438.63V473.29H889.17ZM889.17 479.07V475.12H874.91V490.17L889.17 479.07ZM881.13 506.5L874.91 501.89V506.5H881.13ZM928.39 143.61C927.57 143.67 926.71 143.72 925.82 143.77V162.32C926.71 162.4 927.57 162.5 928.39 162.6V143.61ZM932.29 143.25L932.04 143.28C931.37 143.36 930.66 143.43 929.9 143.49V162.81C930.74 162.94 931.54 163.07 932.28 163.22V143.25H932.29ZM937.33 142.2C936.46 142.54 935.25 142.82 933.77 143.06V163.55C935.27 163.91 936.48 164.31 937.33 164.75V142.21V142.2ZM900.45 223.71L905.6 223.55V170.23C903.72 170.05 901.99 169.82 900.45 169.55V223.7V223.71ZM900.84 143.12L900.45 143.06V163.03L900.84 162.96V143.11V143.12ZM904.7 143.53C904.38 143.5 904.07 143.48 903.77 143.45V162.55C904.08 162.51 904.39 162.48 904.7 162.44V143.53ZM1064.75 239.66L1074.67 239.49V206.76H1064.75V239.66ZM1028.73 146.77C1027.01 146.57 1025.63 146.35 1024.69 146.11V196.48H1025.32H1028.73V146.76V146.77ZM1034.77 147.28C1033.09 147.18 1031.56 147.06 1030.19 146.92V196.48H1034.77V147.27V147.28ZM1040.12 147.54C1038.77 147.49 1037.47 147.43 1036.24 147.36V196.48H1040.12V147.53V147.54ZM1067.89 147.28C1066.89 147.34 1065.84 147.4 1064.75 147.45V196.49H1067.89V147.28ZM1073.93 154.27H1072.09V152.8H1073.38V146.83C1072.18 146.96 1070.83 147.08 1069.35 147.18V196.48H1073.93V154.26V154.27ZM980.58 221.29L975.43 221.45V211.54H980.58V221.29ZM1040.12 219.49L984.99 221.16V211.54H1040.12V219.5V219.49ZM980.58 208.97V197.59H977.64V202.73V207.87V208.97H980.58ZM976.54 202.73V197.59H975.44V208.97H976.54V207.87V202.73ZM993.44 208.97H993.99V183.46H990.31V208.97H993.44ZM984.99 183.45V191.4V208.96H988.11V183.45H984.99ZM1040.12 223.77V220.96L1035.16 221.11V223.92L1040.12 223.77ZM1040.12 233.49V225.23L1035.16 225.38V233.64L1040.12 233.49ZM1040.12 240.09V234.96L1035.16 235.11V240.18L1040.12 240.09ZM1033.96 223.95V221.14L1021.96 221.5V224.31L1033.96 223.95ZM1033.96 233.68V225.42L1021.96 225.78V234.04L1033.96 233.68ZM1033.96 240.19V235.14L1021.96 235.5V240.4L1033.96 240.19ZM1020.76 224.35V221.54L1008.76 221.9V224.71L1020.76 224.35ZM1020.76 234.07V225.81L1008.76 226.17V234.43L1020.76 234.07ZM1020.76 240.42V235.54L1008.76 235.9V240.62L1020.76 240.41V240.42ZM1007.56 224.75V221.94L995.56 222.3V225.11L1007.56 224.75ZM1007.56 234.47V226.21L995.56 226.57V234.83L1007.56 234.47ZM1007.56 240.65V235.94L995.56 236.3V240.85L1007.56 240.64V240.65ZM984.99 236.62V241.04L994.36 240.88V236.34L984.99 236.62ZM984.99 226.89V235.15L994.36 234.87V226.61L984.99 226.89ZM984.99 222.62V225.43L994.36 225.15V222.34L984.99 222.62ZM900.45 239.17V242.49L905.5 242.4V239.02L900.45 239.17ZM900.45 229.45V237.71L905.5 237.56V229.3L900.45 229.45ZM900.45 225.17V227.98L905.5 227.83V225.02L900.45 225.17ZM889.17 228.33V225.52L880.31 225.79V228.6L889.17 228.33ZM889.17 238.05V229.79L880.31 230.06V238.32L889.17 238.05ZM889.17 242.68V239.51L880.31 239.78V242.83L889.17 242.68ZM879.1 228.63V225.82L867.1 226.18V228.99L879.1 228.63ZM879.1 238.35V230.09L867.1 230.45V238.71L879.1 238.35ZM879.1 242.85V239.81L867.1 240.17V243.05L879.1 242.84V242.85ZM934.27 226.96V224.15L933.2 224.18V226.99L934.27 226.96ZM934.27 236.69V228.43L933.2 228.46V236.72L934.27 236.69ZM934.27 241.91V238.15L933.2 238.18V241.92L934.27 241.9V241.91ZM925.81 238.41V242.06L931.99 241.95V238.22L925.81 238.41ZM925.81 228.68V236.94L931.99 236.75V228.49L925.81 228.68ZM925.81 224.41V227.22L931.99 227.03V224.22L925.81 224.41ZM889.17 517.34H874.91V525.45H889.17V517.34ZM905.6 524.65L900.45 520.83V525.45H905.6V524.65ZM940.88 517.34H926.52L925.81 517.89V525.45H940.88V517.34ZM980.21 517.34H980.16V518.52H979.29V517.34H967.53V525.45H980.2V517.34H980.21ZM709.5 230.99V240.53H705.82V231.35C707.16 231.26 708.4 231.14 709.5 230.99ZM701.05 231.51C702.19 231.51 703.3 231.49 704.36 231.44V240.54H697.38V231.42C698.55 231.48 699.78 231.51 701.06 231.51H701.05ZM692.79 240.54V231.02C693.74 231.15 694.78 231.25 695.9 231.33V240.54H692.79ZM667.42 327.54C667.63 328.18 667.81 328.82 667.97 329.48V327.54H667.42ZM482.73 421.89V415.69H498.17V421.89H482.73ZM502.58 415.7V421.9H500.01V415.7H502.58ZM619.29 289.19H616.35V278.18H619.29V289.19ZM604.4 278.17V289.18H608.26V278.17H604.4ZM660.08 258.52V255.61C661.93 255.68 663.67 255.76 665.28 255.86H663.95V258.34C662.72 258.41 661.42 258.47 660.07 258.52H660.08ZM663.96 279.72C662.73 279.65 661.43 279.6 660.08 279.55V259.99C661.43 259.94 662.73 259.88 663.96 259.82V279.73V279.72ZM668.69 258.02C667.68 258.11 666.59 258.19 665.43 258.26V255.87C666.59 255.94 667.68 256.02 668.69 256.11L670 256.22V257.9L668.69 258.01V258.02ZM670.01 280.16C668.64 280.03 667.11 279.91 665.43 279.8V259.72C666.63 259.65 667.77 259.56 668.82 259.47C669.23 259.44 669.63 259.4 670.01 259.36V280.15V280.16ZM671.48 257.77V256.36C674.49 256.65 676.26 256.9 676.26 257.07H675.52V257.29C674.73 257.43 673.34 257.59 671.48 257.77ZM675.52 280.98C674.58 280.74 673.2 280.52 671.48 280.32V259.21C673.13 259 674.49 258.75 675.52 258.47V280.98ZM635.46 259.9V279.64C634.37 279.69 633.32 279.75 632.32 279.81V259.73C633.32 259.79 634.37 259.85 635.46 259.9ZM635.46 255.7V258.43C634.37 258.38 633.32 258.32 632.32 258.26V255.87C633.32 255.81 634.37 255.75 635.46 255.7ZM628.93 259.48C629.54 259.53 630.18 259.58 630.85 259.63V279.91C629.37 280.02 628.02 280.13 626.82 280.26V278.18H628.84L626.27 276.62V259.21C627.09 259.31 627.98 259.41 628.93 259.49V259.48ZM629.05 256.11C629.62 256.06 630.22 256.01 630.84 255.97V258.16C630.22 258.12 629.62 258.07 629.05 258.02C628.03 257.93 627.1 257.85 626.27 257.77V256.36C627.11 256.28 628.04 256.2 629.05 256.11ZM614.88 269.73L614.56 269.91V239.23C614.56 236.37 616.9 234.03 619.77 234.03H626.64H631.27H633.99V234.67C633.99 235.58 634.73 236.32 635.64 236.32C636.55 236.32 637.29 235.58 637.29 234.67V234.03H638.14C641 234.03 643.35 236.37 643.35 239.23V253.32C640.32 253.48 637.86 253.79 636.54 254.19C633.71 254.31 631.14 254.46 628.94 254.65C623.44 255.12 620.03 255.96 620.03 257.07C620.03 257.37 620.28 257.65 620.77 257.92V273.3L614.89 269.74L614.88 269.73ZM624.8 282.97V289.19H622.23V282.5C622.89 282.67 623.75 282.82 624.8 282.97ZM624.8 278.17V280.5C623.75 280.65 622.88 280.8 622.23 280.97V278.17H624.8ZM624.8 259V275.73L622.23 274.17V258.46C622.94 258.66 623.8 258.84 624.8 259ZM621.49 257.07C621.49 256.93 622.69 256.74 624.8 256.51V257.62C623.66 257.5 622.79 257.38 622.23 257.29V257.07H621.5H621.49ZM625.53 408.96L635.45 409.48V383.39L625.53 383.22V408.95V408.96ZM600.14 429.79H603.11V382.84L600.14 382.79V429.79ZM683.04 407.67V410.97L678.54 406.85V403.55L683.04 407.67ZM677.67 402.75V406.05L673.26 402.01V398.71L677.67 402.75ZM668.71 394.73H668.92L672.39 397.91V401.21L668.71 397.84V394.73ZM668.71 411.24V400.32L672.39 403.69V411.43L668.71 411.24ZM668.71 414.92V413.07L672.39 413.26V414.78C671.15 414.83 669.92 414.87 668.71 414.92ZM673.75 413.34V414.74L673.26 414.76V413.32L673.75 413.35V413.34ZM673.26 411.48V404.49L677.67 408.53V411.71L673.26 411.48ZM675.58 414.67V413.43L677.67 413.54V414.6L675.58 414.67ZM681.61 413.75V414.49C680.58 414.52 679.56 414.55 678.54 414.58V413.59L681.61 413.75ZM678.54 411.76V409.33L681.35 411.91L678.54 411.76ZM633.23 371.96V360.58H635.46V371.96H633.23ZM633.23 375.64V373.07H635.46V375.64H633.23ZM632.13 373.07V375.64H625.54V373.07H632.13ZM632.13 360.58V371.96H625.54V360.58H632.13ZM673.49 322.4V325.7H671.48V322.4H673.49ZM671.92 312.68H673.48V315.43H671.47V312.68H671.92ZM674.96 327.54H675.53V332.87H674.96V327.54ZM671.48 327.54H673.49V332.87H671.48V327.54ZM667.97 322.4V325.7H666.74C666.36 324.77 665.92 323.87 665.43 323V322.4H667.97ZM667.97 312.68V315.43H665.43V312.68H667.97ZM660.08 315.43V312.68H663.96V315.43H660.08ZM661.36 369.92L660.09 369.88V361.62L661.36 361.66V369.92ZM661.36 373.07V375.64H660.09V373.07H661.36ZM661.36 371.96H660.09V371.34L661.36 371.38V371.96ZM668.71 360.42V357.61L678.25 357.9V360.71L668.71 360.42ZM668.71 370.14V361.88L678.25 362.17V370.43L668.71 370.14ZM668.71 376.63V371.61L678.25 371.9V376.8L668.71 376.64V376.63ZM677.53 327.54V333.87H676.99V332.87V327.54H677.53ZM683.04 405.19L669.94 393.19C669.77 393.01 669.54 392.9 669.27 392.9H668.71V383.97L683.04 384.22V405.19ZM683.04 376.87L679.44 376.81V371.93L683.04 372.04V376.87ZM683.04 370.57L679.44 370.46V362.2L683.04 362.31V370.57ZM683.04 360.85L679.44 360.74V357.93L683.04 358.04V360.85ZM683.04 356.58L668.71 356.15V351.01C675.57 350.78 680.82 349.49 680.84 347.93H683.05V356.58H683.04ZM627.58 410.9L625.53 410.79V418.21C626.18 418.11 626.87 418.01 627.58 417.92V410.9ZM635.46 411.32L629.42 411V417.69C631.27 417.46 633.28 417.24 635.46 417.03V411.32ZM660.08 412.62V415.31L661.35 415.25V412.69L660.08 412.62ZM660.08 397.16V410.78L661.35 410.85V397.16H660.08ZM660.08 394.73V395.32H661.35V394.73H660.08ZM660.08 383.82V392.9H661.35V383.84L660.08 383.82ZM660.08 357.35V358.75H661.35V357.39L660.08 357.35ZM660.08 355.88L661.35 355.92V350.83C660.92 350.79 660.49 350.75 660.08 350.71V355.88ZM625.53 358.75H635.45V347.44H625.53V358.75ZM600.14 375.45L603.11 375.5V347.44H600.14V375.45ZM587.63 365.39V372.63H590.89V347.44H587.63V365.4V365.39ZM559.85 416.48H564.67V417.94V419.4H565.7V415.7H559.85V416.48ZM603.11 331.28C602.22 331.97 601.49 332.85 600.97 333.85H603.11V331.28ZM660.08 332.87H661.15C660.94 331.48 660.58 330.13 660.08 328.86V332.87ZM632.32 332.87H635.46V322.4H632.32V332.87ZM626.27 332.87H630.85V322.4H626.27V332.87ZM630.85 283.57C629.37 283.46 628.02 283.35 626.82 283.22V289.19H628.11V290.66H626.27V309.56H630.85V283.57ZM635.46 283.84C634.37 283.79 633.32 283.73 632.32 283.67V309.56H633.79H635.46V283.84ZM663.96 283.75C662.73 283.82 661.43 283.88 660.08 283.93V309.56H663.96V283.76V283.75ZM670.01 283.31C668.64 283.44 667.11 283.56 665.43 283.67V309.56H668.89H670.01V283.32V283.31ZM675.52 282.5C674.58 282.74 673.2 282.96 671.48 283.16V309.56H671.93H673.49H674.96V312.68V315.43H675.53V282.5H675.52ZM675.52 322.4H674.95V325.7H675.52V322.4ZM534.63 421.89V417.4V415.69H532.53V416.01V421.88H534.63V421.89ZM529.41 415.7H510.3V421.9H529.41V416.03V415.71V415.7ZM569.49 421.89V419.39H567.71V415.69H570.57V416.01V421.88H569.49V421.89ZM567.71 413.68H570.57V402.01V385.56H567.71V413.69V413.68ZM558.33 413.66H559.85V413.68H565.7V385.55H558.33V413.66ZM548.95 407.92H550.21V410.74H555.03V411.76V413.66H556.32V385.55H548.95V407.93V407.92ZM539.56 402.19H540.56V405.01H545.38V405.8V407.93H546.93V385.55H539.56V402.19ZM532.53 389.89V402.19H535.73H537.55V385.55H532.53V389.89ZM529.41 374.9H526.85H482.73V380.22H529.41V374.9ZM537.55 374.9H532.53V380.22H537.55V374.9ZM546.93 374.9H539.56V380.22H546.93V374.9ZM556.32 374.9H548.95V380.22H556.32V374.9ZM565.7 374.9H558.33V380.22H565.7V374.9ZM570.57 374.9H567.71V380.22H570.57V374.9ZM580.33 377.4H575.79V374.9H572.79V380.22H580.34V377.4H580.33ZM844.18 468.52H837.79V471.09H844.18V468.52ZM844.18 472.19H837.79V474.39V474.75H844.18V472.18V472.19ZM844.18 476.96V475.86H837.79V476.96H844.18ZM844.18 481H837.79V482.1H844.18V481ZM844.18 483.2H837.79V485.77H844.18V483.2ZM844.18 486.87H837.79V489.44H844.18V486.87ZM844.18 490.54H837.79V493.11H844.18V490.54ZM844.18 494.21H837.79V496.78H844.18V494.21ZM844.18 501.56H837.79V504.13H844.18V501.56ZM844.18 505.23H837.79V507.8H844.18V505.23ZM844.18 508.9H837.79V511.47H844.18V508.9ZM844.18 512.57H837.79V515.14H844.18V512.57ZM844.18 516.24H837.79V518.81H844.18V516.24ZM844.18 519.91H837.79V522.48H844.18V519.91ZM844.18 525.45V523.58H837.79V525.45H844.18ZM826.77 500.82V525.45H836.69V523.58V522.48V519.91V518.81V516.24V515.14V512.57V511.47V508.9V507.8V505.23V504.13V501.56V500.83H826.77V500.82ZM826.77 481V497.15H836.69V496.78V494.21V493.11V490.54V489.44V486.87V485.77V483.2V482.1V481H826.77ZM844.18 413.46H837.79V416.03H844.18V413.46ZM844.18 417.13H837.79V419.7H844.18V417.13ZM844.18 420.8H837.79V423.37H844.18V420.8ZM844.18 424.47H837.79V427.04H844.18V424.47ZM844.18 428.14H837.79V430.71H844.18V428.14ZM844.18 431.81H837.79V434.38H844.18V431.81ZM844.18 435.48H837.79V438.05H844.18V435.48ZM844.18 439.15H837.79V441.72H844.18V439.15ZM844.18 442.82H837.79V445.39H844.18V442.82ZM844.18 446.49H837.79V449.06H844.18V446.49ZM844.18 450.16H837.79V452.73H844.18V450.16ZM844.18 453.83H837.79V456.4H844.18V453.83ZM844.18 458.6V457.5H837.79V458.6H844.18ZM844.18 462.64H837.79V463.74H844.18V462.64ZM837.79 467.42H844.18V464.85H837.79V465.21V467.41V467.42ZM826.77 462.64V476.96H836.69V475.86V474.76V474.4V472.2V471.1V468.53V467.43V465.23V464.87V463.77V462.67H826.77V462.64ZM837.79 412.35H844.18V410.51H837.79V412.35ZM844.18 402.8V393.26H841.84V402.8H844.18ZM840.36 402.8V393.26H834.4V402.8H840.36ZM827.5 393.26V402.8H832.94V393.26H827.5ZM460.69 441.72H470.61V458.42C465.06 458.6 459.77 458.81 454.8 459.06C454.72 458.27 454.05 457.66 453.25 457.66H451.87V448.79C451.87 444.15 453.77 439.93 456.84 436.87C457.98 435.73 459.27 434.76 460.69 433.98V441.73V441.72ZM510.98 371.72C510.09 370.96 509.52 369.83 509.52 368.58V368.42H506.23V368.58C506.23 369.83 505.66 370.96 504.77 371.72H510.99H510.98ZM482.73 368.41V371.71H485.83C484.94 370.95 484.37 369.82 484.37 368.57V368.41H482.73ZM523.16 330.97C522.63 331.51 522.3 332.24 522.3 333.06V336.72H524.13C525.35 336.72 526.35 337.72 526.35 338.94V340.02H527.26C529.53 340.02 531.39 341.87 531.39 344.14V351.56H534.68V344.14C534.68 341.87 536.54 340.02 538.81 340.02H539.72V338.94C539.72 337.72 540.72 336.72 541.94 336.72H543.77V333.06C543.77 332.25 543.44 331.51 542.91 330.98C542.38 330.44 541.64 330.11 540.83 330.11H525.26C524.45 330.11 523.71 330.44 523.18 330.97H523.16ZM531.38 362.05H532.53H534.67V355.23H531.38V362.05ZM479.42 424.55V421.9V415.7V414.69V413.68V402.19V374.9V371.72V368.42V365V364.27H484.37V344.16C484.37 341.89 486.23 340.04 488.5 340.04H489.41V338.96C489.41 337.74 490.41 336.74 491.63 336.74H493.46V332.36C493.46 331.75 493.21 331.19 492.81 330.78C492.4 330.38 491.85 330.13 491.23 330.13H477.99C477.38 330.13 476.82 330.38 476.41 330.79C476.01 331.19 475.76 331.75 475.76 332.36V424.56H479.42V424.55ZM499.28 402.19V392.52H508.1V402.19H510.3V390.32H527.94V402.19H529.4V389.89V385.55H496.7V402.19H499.27H499.28ZM809.36 413.49V408.35L798.93 407.85V412.99L809.36 413.49ZM789.28 412.52L797.46 412.92V407.78L789.28 407.38V412.52ZM781.93 412.17V407.03L775.14 406.7V411.84L781.93 412.17ZM773.66 411.77V406.63L763.23 406.13V411.27L773.66 411.77ZM761.77 411.19V406.05L751.34 405.55V410.69L761.77 411.19ZM746.26 410.14H747.08C747.54 410.14 747.97 410.29 748.32 410.54L749.87 410.62V405.48L746.26 405.3V410.14ZM781.93 405C781.93 400.36 780.03 396.14 776.96 393.08C773.89 390.02 769.67 388.12 765.02 388.12H746.26V403.84L781.93 405.57V405.02V405ZM821.25 419.7V415.54L810.82 415.04V417.77C815.51 418.37 819.06 419.02 821.25 419.7ZM809.36 417.58V414.96L798.93 414.46V416.56C802.81 416.88 806.3 417.22 809.36 417.59V417.58ZM792.95 415.44V416.11C794.5 416.22 796 416.33 797.46 416.44V414.39L792.25 414.14C792.67 414.42 792.96 414.9 792.96 415.44H792.95ZM778.99 415.28C779.07 414.49 779.74 413.88 780.54 413.88H781.92V413.64L775.13 413.31V415.11C776.44 415.17 777.72 415.23 778.99 415.29V415.28ZM773.66 415.04V413.24L763.23 412.74V414.66C766.82 414.78 770.3 414.91 773.66 415.05V415.04ZM761.77 414.6V412.66L751.34 412.16V414.33C754.9 414.41 758.38 414.5 761.77 414.61V414.6ZM749.21 412.28V414.28L749.87 414.29V412.08L749.2 412.05C749.2 412.12 749.21 412.2 749.21 412.27V412.28ZM821.25 408.93L810.82 408.43V413.57L821.25 414.07V408.93ZM568.37 309.56V300.75H570.82V309.56H568.37ZM568.37 333.86V322.41H570.82V333.86H568.37ZM568.37 362.05V347.43H570.82V362.05H568.37ZM581.8 347.43V364.25H575.72V362.05H572.6V347.43H581.8ZM572.59 309.56V300.75H576.79V309.56H572.59ZM572.59 333.86V322.41H574.24H576.79V333.86H572.59ZM580.27 322.4H581.8V333.85H578.58V322.4H580.27ZM582.62 309.56H580.27H578.58V300.75H583.13V308.51C582.94 308.85 582.77 309.2 582.62 309.56ZM584.91 306.14V300.75H589.46V303.43C587.72 303.94 586.16 304.89 584.91 306.15V306.14ZM587.63 333.86V322.41H589.46V333.86H587.63ZM592.46 302.99C592.05 302.99 591.64 303.01 591.24 303.06V300.74H595.79V302.99H592.46ZM591.24 309.56V309.17C591.63 309.07 592.04 309.01 592.46 309.01H595.79V309.55H591.24V309.56ZM591.24 333.59V322.4H595.79V325.14C593.53 327.42 591.92 330.33 591.24 333.58V333.59ZM599.33 322.4C598.72 322.76 598.13 323.15 597.57 323.58V322.4H599.33ZM603.11 309.01V309.55H597.57V309.01H603.11ZM597.91 300.74H603.11V302.99H597.57V300.74H597.91ZM597.57 294.87H597.91H603.11V292.69H597.57V294.87ZM591.24 294.87H595.79V292.69H591.24V294.87ZM584.91 294.87H589.46V292.69H584.91V294.87ZM578.58 294.87H583.13V292.69H578.58V294.87ZM572.59 294.87H576.79V292.69H572.59V294.87ZM576.8 288.41H572.6V291.3H576.8V288.41ZM583.13 288.41H578.58V291.3H583.13V288.41ZM589.46 288.41H584.91V291.3H589.46V288.41ZM595.79 288.41H591.24V291.3H595.79V288.41ZM603.11 290.66H600.54V289.19H602.38V288.41H597.57V291.3H603.11V290.65V290.66ZM564.69 304.05H559.56V306.62H564.69V304.05ZM564.69 307.72H559.56V310.29H564.69V307.72ZM564.69 311.39H559.56V313.96H564.69V311.39ZM564.69 315.06H559.56V317.63H564.69V315.06ZM564.69 318.73H559.56V321.3H564.69V318.73ZM564.69 322.41H559.56V324.98H564.69V322.41ZM564.69 326.08H559.56V328.65H564.69V326.08ZM564.69 329.75H559.56V332.32H564.69V329.75ZM564.69 333.42H559.56V335.99H564.69V333.42ZM564.69 337.09H559.56V339.66H564.69V337.09ZM564.69 340.76H559.56V343.33H564.69V340.76ZM564.69 344.43H559.56V347H564.69V344.43ZM564.69 348.1H559.56V350.67H564.69V348.1ZM564.69 351.77H559.56V354.34H564.69V351.77ZM564.69 355.44H559.56V358.01H564.69V355.44ZM564.69 362.05V359.11H559.56V362.05H564.69ZM590.89 385.55H584V385.92H590.89V385.55ZM590.89 387.02H584V389.59H590.89V387.02ZM590.89 390.69H584V393.26H590.89V390.69ZM590.89 394.36H584V396.93H590.89V394.36ZM590.89 398.03H584V400.6H590.89V398.03ZM590.89 401.7H584V404.27H590.89V401.7ZM590.89 405.37H584V407.94H590.89V405.37ZM590.89 409.04H584V411.61H590.89V409.04ZM590.89 412.71H584V415.28H590.89V412.71ZM590.89 416.38H584V418.95H590.89V416.38ZM590.89 421.89V420.05H584V421.89H590.89ZM718.69 361.32H722.75V363.89H718.69V361.32ZM718.69 364.99H722.75V367.56H718.69V364.99ZM718.69 368.66H722.75V371.23H718.69V368.66ZM718.69 372.33H722.75V374.9H718.69V372.33ZM718.69 376H722.75V378.57H718.69V376ZM718.69 380.78V379.68H722.75V380.78H718.69ZM722.75 360.22H718.69V347.44H720.07C730.29 347.44 732.66 351.04 732.66 360.75V380.78H723.85V358.02H722.75V360.23V360.22ZM368.67 425.72C365.16 424.5 360.5 423.32 354.93 422.24C354.49 422.16 354.05 422.07 353.6 421.99V432.51C359.59 433.6 364.69 434.88 368.67 436.28V425.71V425.72ZM376 430.77C376 429.37 374.19 427.94 370.9 426.56V437.13C373.05 438.02 374.77 438.96 376 439.94V430.76V430.77ZM237.13 424.05C228.97 426.16 224.18 428.49 224.18 430.78V439.96C226.66 437.99 231.12 436.17 237.13 434.59V424.06V424.05ZM256.78 420.4C252.63 420.94 248.78 421.56 245.26 422.24C243.16 422.65 241.19 423.07 239.37 423.5V434.02C244.34 432.83 250.21 431.79 256.78 430.94V420.4ZM286.92 386.84L280.84 405.38L286.92 405.46V386.84ZM300.09 415.61H300.82L297.97 407.82L289.15 407.71V415.76C292.73 415.66 296.38 415.61 300.09 415.61ZM295.36 428.42V417.86C293.26 417.88 291.19 417.92 289.15 417.98V428.54C291.2 428.48 293.27 428.44 295.36 428.42ZM278.02 418.45V429C280.92 428.83 283.89 428.7 286.91 428.6V418.04C283.88 418.14 280.91 418.27 278.02 418.44V418.45ZM286.92 415.83V407.69L280.21 407.61L277.79 416.25C280.76 416.08 283.81 415.94 286.92 415.84V415.83ZM275.79 429.14V423.37L274.14 429.25L275.79 429.14ZM259.01 420.11V430.65C263.18 430.15 267.61 429.72 272.25 429.38L275.27 418.62C269.52 419 264.06 419.5 259.01 420.11ZM332.28 419.19C329.82 418.97 327.29 418.78 324.7 418.61L332.28 422.45V419.19ZM351.37 421.85H352.88C347.44 420.87 341.25 420.04 334.51 419.39V423.57L351.36 432.1V421.84L351.37 421.85ZM334.51 429.94C337.95 430.27 341.24 430.64 344.37 431.06L334.51 426.07V429.94ZM317.17 418.2V428.76C322.42 428.99 327.48 429.32 332.28 429.74V424.94L319.16 418.29C318.5 418.26 317.84 418.23 317.17 418.2ZM303.2 415.62C306.99 415.65 310.72 415.73 314.35 415.86L300.77 408.98L303.2 415.62ZM307.9 428.47C310.28 428.52 312.63 428.58 314.94 428.67V418.11C311.38 417.98 307.73 417.89 304.02 417.85L307.9 428.46V428.47ZM305.51 428.43L301.64 417.84H300.09C299.26 417.84 298.42 417.84 297.6 417.84V428.4C298.43 428.4 299.26 428.4 300.09 428.4C301.91 428.4 303.72 428.41 305.51 428.44V428.43ZM289.15 386.84V405.48L297.16 405.58L289.15 386.84ZM220.63 382.8V377.74H209.5V382.8H220.63ZM220.63 373.58V376.55H209.5V373.59H211.32V373.58H220.63ZM181.21 373.6V376.56H187.2V373.6H181.21ZM187.2 370.61H181.21V372.1H187.2V370.61ZM190.44 373.6V376.56H196.06V373.6H190.44ZM196.06 370.61H190.44V372.1H196.06V370.61ZM208.01 376.56V373.6H205.63V376.56H208.01ZM198.78 373.6V376.56H204.32V373.6H198.78ZM204.32 370.61H198.78V372.1H204.32V370.61ZM209.5 384.29H220.63V387.2H209.5V384.29ZM205.63 377.75H208.01V387.21H205.63V377.75ZM198.78 377.75H204.32V387.21H198.78V377.75ZM190.44 377.75H196.06V387.21H190.44V377.75ZM181.21 377.75H187.2V387.21H181.21V377.75ZM219.14 390.84H209.5V393.81V414.33H219.14V390.83V390.84ZM219.14 415.46H209.5V442.89H219.14V415.46ZM219.14 501.12H209.5V528.55H219.14V501.12ZM219.14 534.98V529.68H209.5V534.98H219.14ZM19.5201 392.68C9.22008 395.34 3.18005 398.28 3.18005 401.17V412.75C6.31005 410.26 11.9301 407.97 19.5201 405.97V392.68ZM44.3101 388.08C39.0801 388.76 34.2101 389.54 29.7701 390.4C27.1201 390.91 24.6401 391.44 22.3401 391.99V405.27C28.6101 403.77 36.0201 402.46 44.3101 401.38V388.08ZM82.3401 345.74L74.66 369.14L82.3401 369.24V345.75V345.74ZM98.97 382.04H99.9001L96.3 372.21L85.17 372.07V382.23C89.68 382.11 94.29 382.04 98.98 382.04H98.97ZM93.0001 398.2V384.88C90.3601 384.91 87.74 384.96 85.16 385.03V398.35C87.74 398.28 90.3601 398.23 93.0001 398.2ZM71.1201 385.63V398.95C74.7801 398.74 78.5201 398.57 82.3401 398.45V385.13C78.5201 385.26 74.7701 385.43 71.1201 385.63ZM82.3401 382.31V372.03L73.8801 371.92L70.8201 382.82C74.5701 382.6 78.4101 382.43 82.3401 382.3V382.31ZM68.3 399.11V391.82L66.22 399.24L68.3 399.1V399.11ZM47.1301 387.72V401.02C52.3901 400.39 57.9801 399.85 63.8401 399.41L67.6501 385.83C60.3901 386.3 53.5101 386.94 47.1301 387.71V387.72ZM139.58 386.55C136.48 386.28 133.29 386.03 130.02 385.82L139.58 390.66V386.55ZM163.67 389.92H165.58C158.71 388.68 150.91 387.63 142.4 386.82V392.1L163.67 402.87V389.92ZM142.4 400.12C146.73 400.53 150.89 401.01 154.84 401.53L142.4 395.23V400.11V400.12ZM120.52 385.31V398.63C127.15 398.92 133.53 399.33 139.58 399.86V393.81L123.02 385.42C122.19 385.38 121.35 385.34 120.51 385.3L120.52 385.31ZM102.89 382.05C107.68 382.09 112.38 382.19 116.96 382.35L99.8201 373.67L102.88 382.05H102.89ZM108.82 398.26C111.82 398.32 114.79 398.4 117.7 398.51V385.19C113.21 385.02 108.61 384.91 103.92 384.87L108.82 398.26ZM105.81 398.21L100.92 384.85H98.9601C97.9101 384.85 96.8601 384.85 95.8101 384.85V398.17C96.8601 398.17 97.9001 398.16 98.9601 398.16C101.26 398.16 103.54 398.18 105.8 398.21H105.81ZM85.16 345.74V369.27L95.2601 369.4L85.16 345.75V345.74ZM209.5 471.44H219.14V459.52H209.5V471.44ZM219.14 444.01H209.5V453.3H219.14V444.01ZM209.5 500H219.14V489.94H209.5V500ZM219.14 472.57H209.5V477.19V480.32H219.14V472.56V472.57ZM221.95 534.98V489.94H220.63V500V501.12V528.55V529.67V534.97H221.95V534.98ZM208.01 534.98V529.68H206.35C206.12 530.35 205.48 530.83 204.73 530.83C203.78 530.83 203.02 530.06 203.02 529.12C203.02 528.18 203.79 527.41 204.73 527.41C205.48 527.41 206.11 527.89 206.35 528.56H208.01V501.13H206.35C206.12 501.8 205.48 502.28 204.73 502.28C203.78 502.28 203.02 501.51 203.02 500.57C203.02 499.63 203.79 498.86 204.73 498.86C205.48 498.86 206.11 499.34 206.35 500.01H208.01V489.95H197.57V534.99H208.01V534.98ZM221.95 459.52H220.63V471.44V472.56V480.32H221.95V459.52ZM197.57 480.32H208.01V477.19H197.57V480.32ZM168.16 390.4C167.61 390.29 167.05 390.19 166.49 390.08V403.36C168.18 403.67 169.8 403.99 171.37 404.32V391.05C170.33 390.83 169.26 390.61 168.16 390.4ZM205.63 370.61V372.1H208.01V370.61H205.63ZM572.78 385.55V402V413.67V415.69V416.01V421.88H577.56H582.57V385.54H572.78V385.55ZM732.66 403.18V388.12H727.1V402.91L732.66 403.18ZM732.66 409.78V404.64L727.1 404.37V409.51L732.66 409.78ZM730.1 414.01V412.27C730.1 411.85 730.22 411.47 730.43 411.14L727.1 410.98V413.99C728.11 413.99 729.11 414 730.1 414.01ZM931.88 69.8201L932.29 69.7701V67.9501L931.88 67.9001C931.26 67.8301 930.6 67.7601 929.91 67.7001V70.0101C930.6 69.9501 931.26 69.8802 931.88 69.8102V69.8201ZM925.81 67.4202V70.2902C926.72 70.2402 927.6 70.1901 928.44 70.1301V67.5801C927.6 67.5201 926.73 67.4602 925.81 67.4202ZM933.76 68.1201V69.5901C935.75 69.3301 937.03 69.1002 937.32 68.9302V68.7902C937.03 68.6202 935.75 68.3901 933.76 68.1301V68.1201ZM902.31 69.8201V67.9001C903.05 67.8201 903.85 67.7402 904.69 67.6702V70.0602C903.84 69.9902 903.05 69.9101 902.31 69.8301V69.8201ZM900.84 68.0701V69.6501C899.15 69.4401 897.92 69.2501 897.27 69.0801V68.6401C897.91 68.4801 899.15 68.2801 900.84 68.0701ZM931.88 16.1602L932.29 16.1101V14.2902L931.88 14.2401C931.26 14.1701 930.6 14.1002 929.91 14.0402V16.3501C930.6 16.2901 931.26 16.2201 931.88 16.1501V16.1602ZM925.81 13.7701V16.6401C926.72 16.5901 927.6 16.5401 928.44 16.4801V13.9302C927.6 13.8702 926.73 13.8101 925.81 13.7701ZM933.76 14.4701V15.9401C935.75 15.6801 937.03 15.4502 937.32 15.2802V15.1401C937.03 14.9701 935.75 14.7401 933.76 14.4801V14.4701ZM902.31 16.1702V14.2501C903.05 14.1701 903.85 14.0901 904.69 14.0201V16.4102C903.84 16.3402 903.05 16.2602 902.31 16.1802V16.1702ZM900.84 14.4202V16.0001C899.15 15.7901 897.92 15.6002 897.27 15.4302V14.9901C897.91 14.8301 899.15 14.6302 900.84 14.4202ZM928.44 71.6001C927.6 71.6601 926.73 71.7101 925.81 71.7601V88.3801C926.72 88.4601 927.6 88.5602 928.44 88.6702V71.6001ZM932.29 71.2401L932.04 71.2701C931.37 71.3501 930.66 71.4201 929.9 71.4801V88.8701C930.74 89.0001 931.54 89.1301 932.28 89.2802V71.2401H932.29ZM937.33 70.1901C936.46 70.5301 935.25 70.8102 933.77 71.0502V89.6001C935.27 89.9601 936.48 90.3602 937.33 90.8002V70.1901ZM900.84 71.1101C899.39 70.9001 898.19 70.6501 897.27 70.3401V89.7701C898.31 89.5001 899.5 89.2401 900.84 89.0201V71.1101ZM904.7 71.5201C903.86 71.4501 903.06 71.3702 902.32 71.2902V88.7902C903.08 88.6802 903.88 88.5801 904.7 88.5001V71.5201ZM928.44 17.9501C927.6 18.0101 926.73 18.0601 925.81 18.1101V34.4202C926.72 34.5002 927.6 34.6001 928.44 34.7101V17.9601V17.9501ZM932.29 17.5901L932.04 17.6201C931.37 17.7001 930.66 17.7701 929.9 17.8301V34.9001C930.74 35.0301 931.54 35.1602 932.28 35.3102V17.5901H932.29ZM937.33 16.5402C936.46 16.8802 935.25 17.1601 933.77 17.4001V35.6401C935.27 36.0001 936.48 36.4001 937.33 36.8401V16.5402ZM900.84 17.4601C899.39 17.2501 898.19 17.0001 897.27 16.6901V35.8002C898.31 35.5302 899.5 35.2702 900.84 35.0502V17.4501V17.4601ZM904.7 17.8701C903.86 17.8001 903.06 17.7201 902.32 17.6401V34.8301C903.08 34.7201 903.88 34.6202 904.7 34.5402V17.8701ZM929.86 126.6V138.23C930.63 138.3 931.36 138.37 932.05 138.45L932.3 138.48V126.6V99.4801V95.4202C931.54 95.5702 930.73 95.7101 929.86 95.8401V99.4801V126.6ZM925.81 126.6V137.96C926.7 138.01 927.56 138.06 928.38 138.12V126.6V99.4801V96.0402C927.56 96.1402 926.7 96.2401 925.81 96.3201V99.4801V126.6ZM903.76 126.6V138.28C904.35 138.23 904.96 138.18 905.6 138.13V126.6V99.4801V96.2902C904.97 96.2302 904.36 96.1601 903.76 96.0901V99.4801V126.6ZM900.09 126.6V135.91H900.46V138.67C900.98 138.59 901.54 138.51 902.13 138.45L902.3 138.43V126.6V99.4801V95.9001C901.53 95.7901 900.79 95.6702 900.09 95.5502V99.4801V126.6ZM895.68 126.6V135.91H898.62V126.6V99.4801V95.2601C897.49 95.0101 896.5 94.7401 895.68 94.4501V99.4801V126.6ZM933.76 126.6V138.68C936.95 139.18 938.86 139.93 938.86 140.87C938.86 140.97 938.84 141.07 938.8 141.16V166.3C938.8 168.05 933.5 169.56 925.82 170.27V222.95L934.27 222.69V192.45C934.27 191.24 935.26 190.25 936.48 190.25H938.68H941.25V184.38H948.23V168.41C948.23 164.07 951.79 160.52 956.13 160.52C960.48 160.52 964.03 164.07 964.03 168.41V171.16V176.3H965.87V177.77H964.03V182.91H965.87V185.11H964.03V185.48V188.05H971.75V173.92C971.75 172.15 972.47 170.54 973.64 169.38C974.8 168.22 976.41 167.49 978.18 167.49C979.95 167.49 981.56 168.21 982.72 169.38C983.88 170.54 984.61 172.15 984.61 173.92V176.63H984.98V180.71H987.55V175.2H988.95H989.38H992.99H993.42H995.63V181.28V183.46V208.97H1040.1V206.77H1025.29H1023.19H1021.17V196.49H1023.19V145.35V121.52C1022.71 121.26 1022.46 120.98 1022.46 120.67C1022.46 119.56 1025.87 118.72 1031.37 118.25C1034.22 118.01 1037.67 117.82 1041.52 117.7C1043.3 117.25 1046.62 116.92 1050.54 116.84V102.63C1050.54 96.3101 1055.72 91.1401 1062.05 91.1401H1062.9V90.5701C1062.9 89.6601 1063.64 88.9202 1064.55 88.9202C1065.46 88.9202 1066.2 89.6601 1066.2 90.5701V91.1401H1068.92H1073.55H1080.42C1086.75 91.1401 1091.92 96.3101 1091.92 102.63V137.14L1100.01 141.78H1097.81V152.79H1099.65V154.26H1097.08V166.59H1107.74C1113.6 166.59 1118.4 171.38 1118.4 177.24V228.99V238.69V238.73L1119.87 238.7V246.04L1109.31 246.22V287.32H1119.87V658.81H0.360046V401.15C0.360046 392.65 28.9301 385.44 68.4501 382.95L82.3401 341.04V330.52H85.16V340.65L98.41 369.79L123.75 382.62C146.9 383.78 166.75 386.54 180.02 390.25V373.57V372.07V370.58V369.69H181.21H187.2H190.44H196.06H198.78H204.32H205.63H208.01H209.5V372.07H211.32H220.63H224.39H225.28V387.18V390.81V392.3H220.63V414.31V415.43V442.86V443.98V453.27H221.95V443.53V430.74C221.95 424 244.59 418.29 275.91 416.32L286.92 383.1V374.76H289.15V382.79L299.65 405.89L319.73 416.06C353.38 417.75 378.23 423.68 378.23 430.74V443.53V453.27V534.95H394.53V468.12C394.53 463.3 414.93 459.35 440.85 458.97C440.95 458.21 441.61 457.62 442.4 457.62H444.52V448.75C444.52 442.08 447.25 436.03 451.64 431.64C456.03 427.25 462.1 424.53 468.77 424.53H472.08V332.33C472.08 330.71 472.74 329.24 473.81 328.17C474.88 327.09 476.36 326.43 477.98 326.43H491.22C492.85 326.43 494.32 327.09 495.39 328.16C496.46 329.24 497.12 330.71 497.12 332.33V336.71H498.95C500.17 336.71 501.17 337.71 501.17 338.93V340.01H502.08C504.35 340.01 506.21 341.86 506.21 344.13V364.24H509.5V344.13C509.5 341.86 511.36 340.01 513.63 340.01H514.54V338.93C514.54 337.71 515.54 336.71 516.76 336.71H518.59V333.05C518.59 331.24 519.33 329.58 520.54 328.38C521.74 327.18 523.4 326.44 525.21 326.44H540.78C542.6 326.44 544.25 327.18 545.45 328.38C546.65 329.58 547.4 331.24 547.4 333.05V336.71H549.23C550.45 336.71 551.45 337.71 551.45 338.93V340.01H552.36C554.63 340.01 556.49 341.86 556.49 344.13V362.04H558.41V300.73H559.51V302.94H564.64V300.73V297.06V294.86H570.76V292.68V291.3V288.41V287.54V287.02H602.33V278.17H600.13L608.22 273.53V239.02C608.22 232.7 613.4 227.53 619.72 227.53H626.59H631.22H633.94V226.96C633.94 226.05 634.68 225.31 635.59 225.31C636.5 225.31 637.24 226.05 637.24 226.96V227.53H638.09C644.42 227.53 649.6 232.7 649.6 239.02V253.23C653.52 253.31 656.84 253.64 658.62 254.09C662.47 254.21 665.92 254.4 668.77 254.64C674.27 255.11 677.68 255.95 677.68 257.06C677.68 257.36 677.43 257.65 676.95 257.91V281.74V315.43H677.85V322.41H676.95V325.71H680.79V327.55H678.95V333.88H682.99V308.58H682.25C681.64 308.58 681.15 308.08 681.15 307.48C681.15 306.87 681.65 306.38 682.25 306.38H682.99V305.16H682.25C681.64 305.16 681.15 304.66 681.15 304.06C681.15 303.46 681.65 302.96 682.25 302.96H683.32L690.7 286.81V243.86C690.09 243.86 689.6 243.36 689.6 242.76C689.6 242.15 690.1 241.66 690.7 241.66V240.56H691.26V230.82C688.87 230.39 687.39 229.81 687.39 229.17C687.39 227.86 693.48 226.8 700.99 226.8C708.5 226.8 714.59 227.86 714.59 229.17C714.59 229.8 713.19 230.37 710.91 230.79V240.57V241.67H711.28C711.89 241.67 712.38 242.17 712.38 242.77C712.38 243.37 711.88 243.87 711.28 243.87H710.91V286.82L718.29 302.97H719.73C720.34 302.97 720.83 303.47 720.83 304.07C720.83 304.68 720.33 305.17 719.73 305.17H718.63V306.39H719.73C720.34 306.39 720.83 306.89 720.83 307.49C720.83 308.1 720.33 308.59 719.73 308.59H718.63V333.91H723.59C740.17 334.54 746.2 342.24 746.2 354.97V380.79H764.96C771.63 380.79 777.7 383.52 782.09 387.9C786.48 392.29 789.21 398.35 789.21 405.01V405.92L821.99 407.51H822.66V408.28V410.32V420.26C823.38 420.61 823.75 420.96 823.75 421.32V458.6H836.63V457.5V456.4V453.83V452.73V450.16V449.06V446.49V445.39V442.82V441.72V439.15V438.05V435.48V434.38V431.81V430.71V428.14V427.04V424.47V423.37V420.8V419.7V417.13V416.03V413.46V412.36V410.52H825.6V406.67V402.82V391.07H827.44V391.44H844.12V321.83L864.38 316.18V243.12L865.85 243.09V239.49L865.83 238.76H865.85V229.77L865.83 229.04H865.85V225.5L865.83 224.77L889.11 224.07V135.93H894.15V126.62V99.5001V93.8301C893.32 93.3701 892.86 92.8801 892.86 92.3701C892.86 91.5901 893.91 90.8601 895.75 90.2301V69.6702C895.42 69.4202 895.25 69.1601 895.25 68.8801C895.25 67.7801 897.86 66.9401 902.07 66.4601C903.12 66.3401 904.29 66.2301 905.54 66.1401V42.3501C898.02 41.6301 892.86 40.1302 892.86 38.4102C892.86 37.6302 893.91 36.9001 895.75 36.2701V16.0201C895.42 15.7701 895.25 15.5101 895.25 15.2301C895.25 14.1401 897.86 13.2902 902.07 12.8102C903.12 12.6902 904.29 12.5801 905.54 12.4901V2.06018C905.54 1.18018 910.07 0.460083 915.65 0.460083C921.23 0.460083 925.76 1.17018 925.76 2.06018V12.3201C928.09 12.4401 930.2 12.6102 931.99 12.8102C935.55 13.2102 937.97 13.8801 938.63 14.7401H938.75V14.9302C938.79 15.0302 938.81 15.1201 938.81 15.2201C938.81 15.3201 938.79 15.4201 938.75 15.5101V38.4001V38.5302H938.74C938.49 40.2201 933.26 41.6801 925.77 42.3701V65.9701C928.1 66.0901 930.21 66.2601 932 66.4601C935.82 66.8901 938.32 67.6301 938.75 68.5801C938.79 68.6801 938.81 68.7801 938.81 68.8801C938.81 68.9801 938.79 69.0802 938.75 69.1702V92.3701C938.75 93.4101 936.86 94.3701 933.72 95.1201V99.5001V126.62L933.76 126.6ZM889.17 265.29V293.18L870.32 306.89V252.23L889.17 265.28V265.29Z" fill="#013183"/>
</svg>
