<svg width="36" height="40" viewBox="0 0 36 40" fill="none" xmlns="http://www.w3.org/2000/svg">
<path d="M17.9497 39.5699C14.9997 39.6499 12.1697 39.0601 9.36971 38.1801C7.33971 37.5501 5.26972 37.03 3.19972 36.55C1.27972 36.1 0.339688 35.35 0.349688 33.91C0.349688 33.24 0.509693 32.55 0.729693 31.92C1.89969 28.51 3.79973 25.58 6.57973 23.25C8.25973 21.84 10.0797 21.49 12.0897 22.47C15.9697 24.36 19.8497 24.33 23.7097 22.46C25.5897 21.55 27.3397 21.77 28.9097 23.04C32.2097 25.71 34.4397 29.1 35.3897 33.27C35.6997 34.62 35.0897 35.8299 33.7497 36.1899C29.5197 37.3099 25.2697 38.37 21.0097 39.38C20.0297 39.61 18.9797 39.5199 17.9597 39.5699H17.9497Z" fill="#F0801B"/>
<path d="M25.7996 11.3199C25.7596 13.4199 25.0296 15.83 23.2696 17.87C20.2196 21.4 15.4696 21.3799 12.4396 17.8299C9.13957 13.9699 9.12954 7.53001 12.4095 3.65001C15.5395 -0.0399892 20.6296 0.109977 23.6196 3.98998C25.1496 5.97998 25.8096 8.26005 25.7996 11.31V11.3199Z" fill="#F0801B"/>
</svg>
