<svg width="52" height="52" viewBox="0 0 52 52" fill="none" xmlns="http://www.w3.org/2000/svg">
<path d="M26.2299 50.8317C40.0702 50.8317 51.2899 39.6049 51.2899 25.7559C51.2899 11.907 40.0702 0.680176 26.2299 0.680176C12.3897 0.680176 1.16992 11.907 1.16992 25.7559C1.16992 39.6049 12.3897 50.8317 26.2299 50.8317Z" stroke="#231F20" stroke-width="0.75" stroke-miterlimit="10"/>
<path d="M7.48047 25.7559H44.7005" stroke="#231F20" stroke-width="0.92" stroke-miterlimit="10"/>
<path d="M13.7601 30.1787C13.9001 29.9685 13.8301 29.6785 13.6201 29.5384L7.69012 25.756L13.6201 21.9736C13.8301 21.8335 13.9001 21.5534 13.7601 21.3333C13.6201 21.1231 13.3401 21.053 13.1201 21.1931L6.58012 25.3658C6.45012 25.4459 6.37012 25.5959 6.37012 25.756C6.37012 25.9161 6.45012 26.0563 6.58012 26.1463L13.1201 30.3189C13.2001 30.3689 13.2801 30.389 13.3701 30.389C13.5201 30.389 13.6701 30.3087 13.7601 30.1787Z" fill="#231F20"/>
</svg>
