<svg width="81" height="81" viewBox="0 0 81 81" fill="none" xmlns="http://www.w3.org/2000/svg">
<path d="M40.49 79.48C62.1616 79.48 79.73 61.9116 79.73 40.24C79.73 18.5683 62.1616 1 40.49 1C18.8183 1 1.25 18.5683 1.25 40.24C1.25 61.9116 18.8183 79.48 40.49 79.48Z" stroke="#231F20" stroke-width="1.18" stroke-miterlimit="10"/>
<path d="M69.8604 40.24H11.5703" stroke="#231F20" stroke-width="1.44" stroke-miterlimit="10"/>
<path d="M60.01 33.3298C59.8 33.6598 59.8999 34.1098 60.2299 34.3198L69.52 40.24L60.2299 46.1599C59.8899 46.3699 59.8 46.8199 60.01 47.1499C60.22 47.4799 60.67 47.5799 61 47.3699L71.25 40.8398C71.46 40.7098 71.5799 40.48 71.5799 40.23C71.5799 39.98 71.45 39.7499 71.25 39.6199L61 33.0898C60.88 33.0098 60.7499 32.98 60.6099 32.98C60.3699 32.98 60.14 33.0998 60 33.3098L60.01 33.3298Z" fill="#231F20"/>
</svg>
