<svg width="81" height="81" viewBox="0 0 81 81" fill="none" xmlns="http://www.w3.org/2000/svg">
<path d="M40.2996 79.89C61.9712 79.89 79.5396 62.3216 79.5396 40.65C79.5396 18.9783 61.9712 1.40991 40.2996 1.40991C18.6279 1.40991 1.05957 18.9783 1.05957 40.65C1.05957 62.3216 18.6279 79.89 40.2996 79.89Z" stroke="white" stroke-width="1.18" stroke-miterlimit="10"/>
<path d="M10.9297 40.6499H69.2197" stroke="white" stroke-width="1.44" stroke-miterlimit="10"/>
<path d="M20.7692 47.5599C20.9792 47.2299 20.8792 46.7799 20.5492 46.5699L11.2592 40.65L20.5492 34.7299C20.8892 34.5199 20.9792 34.0699 20.7692 33.7399C20.5592 33.4099 20.1092 33.3099 19.7792 33.5199L9.52922 40.0499C9.31922 40.1799 9.19922 40.4099 9.19922 40.6599C9.19922 40.9099 9.32922 41.1399 9.52922 41.2699L19.7792 47.7999C19.8992 47.8799 20.0292 47.9099 20.1692 47.9099C20.4092 47.9099 20.6392 47.7899 20.7792 47.5799L20.7692 47.5599Z" fill="white"/>
</svg>
