<svg width="127" height="61" viewBox="0 0 127 61" fill="none" xmlns="http://www.w3.org/2000/svg">
<path d="M19.9501 56.5441C19.9501 56.314 20.0301 56.0937 20.1001 55.8635C20.1701 55.6334 20.2501 55.4835 20.4001 55.3334C20.5501 55.1833 20.7001 55.0331 20.8501 54.9531C21.0001 54.803 21.2301 54.7229 21.3801 54.6528C20.9301 54.2025 20.7001 53.6723 20.7001 53.222C20.7001 52.9918 20.7801 52.7718 20.8501 52.5416C20.9201 52.3115 21.0801 52.1614 21.2301 52.0113C21.3801 51.8612 21.5301 51.7811 21.7601 51.711C21.9901 51.631 22.2101 51.561 22.4401 51.561C22.6701 51.561 22.8901 51.5609 23.1201 51.711C23.3501 51.7911 23.5001 51.8612 23.6501 52.0113C23.8001 52.1614 23.8801 52.3114 23.9501 52.4615C24.0201 52.6116 24.0302 52.8418 24.0302 52.9919C24.0302 53.222 24.0301 53.4422 23.9501 53.5923C23.8701 53.7424 23.8001 53.8925 23.6501 54.0426C23.5001 54.1927 23.4201 54.3426 23.2001 54.4227C23.0501 54.5728 22.9002 54.6529 22.6702 54.7229L24.1702 56.304C24.4002 55.9238 24.5501 55.4734 24.6201 54.9531L25.3701 55.0332C25.3701 55.2633 25.2901 55.5633 25.1401 55.8635C25.0601 56.1637 24.9101 56.4641 24.6901 56.7642C24.9201 56.9944 25.1402 57.2145 25.2902 57.4446C25.4402 57.6747 25.5901 57.8948 25.7401 58.125H24.7601C24.6801 57.9749 24.6101 57.8949 24.4601 57.7448C24.3801 57.5947 24.2301 57.4445 24.0801 57.3645C23.8501 57.5946 23.5502 57.8149 23.1802 57.9649C22.8002 58.115 22.4301 58.1951 21.9801 58.1951C21.6001 58.1951 21.2302 58.1151 20.9302 58.0451C20.6302 57.895 20.4801 57.7449 20.2501 57.5948C20.1001 57.4447 19.9501 57.2145 19.8701 56.9944C19.9501 56.9944 19.9501 56.7643 19.9501 56.5441ZM20.7802 56.5441C20.7802 56.6942 20.7801 56.7742 20.8601 56.9243C20.9401 57.0743 21.0101 57.1545 21.0901 57.3046C21.1701 57.3847 21.3201 57.5346 21.4701 57.6046C21.6201 57.6747 21.8501 57.6847 22.0701 57.6847C22.3701 57.6847 22.6701 57.6048 22.9001 57.5347C23.1301 57.3847 23.4301 57.2346 23.5801 57.0845L21.7802 55.2032C21.6302 55.2833 21.5501 55.3533 21.4001 55.4333C21.2501 55.5134 21.1701 55.5835 21.1001 55.7336C21.0201 55.8136 20.9501 55.9636 20.8701 56.1137C20.8701 56.1937 20.7902 56.344 20.7902 56.5642L20.7802 56.5441ZM23.1001 53.092C23.1001 52.8619 23.0201 52.7118 22.8701 52.5617C22.7201 52.4116 22.5701 52.3315 22.2701 52.3315C21.9701 52.3315 21.8202 52.4116 21.6702 52.5617C21.5202 52.7118 21.4401 52.9418 21.4401 53.1619C21.4401 53.5421 21.6701 53.9924 22.1201 54.3626C22.2701 54.2825 22.4201 54.2125 22.5001 54.1325C22.6501 54.0524 22.7302 53.9826 22.8002 53.8325C22.8802 53.7524 22.9502 53.6022 23.0302 53.4521C23.0302 53.3721 23.1101 53.2221 23.1101 53.072L23.1001 53.092Z" fill="#2D2D2B"/>
<path d="M31.8798 55.5735C31.9598 55.7236 32.1098 55.8735 32.2598 56.1037C32.4098 56.3338 32.5597 56.5541 32.7097 56.7843C32.8597 57.0144 33.0098 57.3146 33.1598 57.5347C33.3098 57.8349 33.4598 58.0651 33.5398 58.2852H32.5598C32.4098 58.0551 32.3298 57.8349 32.1798 57.5347C32.0298 57.3046 31.8797 57.0843 31.7297 56.8541C31.5797 56.624 31.4298 56.404 31.2798 56.2539C31.1298 56.0238 30.9798 55.8736 30.8998 55.7235H29.6198V58.2752H28.7197V51.8212C28.9497 51.7411 29.2498 51.741 29.5498 51.671H30.4497C31.3497 51.671 32.0298 51.8211 32.5498 52.2013C33.0698 52.5816 33.2998 53.0319 33.2998 53.7824C33.2998 54.2327 33.1498 54.6128 32.9198 54.913C32.6898 55.2132 32.3198 55.4435 31.8698 55.5936L31.8798 55.5735ZM30.5298 52.4915H29.6298V54.9731H30.3098C30.6098 54.9731 30.9098 54.973 31.1398 54.8929C31.3698 54.8929 31.5897 54.813 31.7397 54.743C31.8897 54.6629 32.0398 54.5127 32.1198 54.3626C32.1998 54.2125 32.2698 53.9825 32.2698 53.7624C32.2698 53.5422 32.1898 53.312 32.1198 53.1619C32.0398 53.0118 31.8897 52.8618 31.7397 52.7818C31.5897 52.7017 31.3598 52.6317 31.1398 52.5516C30.9898 52.5516 30.7598 52.4715 30.5398 52.4715L30.5298 52.4915Z" fill="#2D2D2B"/>
<path d="M34.2803 55.8736C34.2803 55.4233 34.3603 55.0431 34.5103 54.743C34.6603 54.4428 34.8103 54.1425 35.0403 53.9124C35.2703 53.6822 35.4903 53.5322 35.7903 53.4621C36.0903 53.3921 36.3202 53.3121 36.6202 53.3121C37.3002 53.3121 37.7502 53.5421 38.1202 53.9124C38.4902 54.2826 38.6503 54.9631 38.6503 55.7937V56.0939H35.2703C35.3503 56.6242 35.4202 56.9944 35.7202 57.2245C35.9502 57.5247 36.4003 57.6046 36.9203 57.6046C37.2203 57.6046 37.5203 57.6048 37.6703 57.5247C37.9003 57.4447 38.0502 57.4445 38.1202 57.3745L38.2703 58.125C38.1903 58.205 37.9702 58.2752 37.7402 58.2752C37.5102 58.2752 37.1402 58.3551 36.8402 58.3551C36.3902 58.3551 36.0102 58.2751 35.7102 58.125C35.4102 57.9749 35.1102 57.825 34.9602 57.5948C34.7302 57.3647 34.5803 57.0644 34.5103 56.7642C34.3603 56.5341 34.2803 56.2338 34.2803 55.8635V55.8736ZM37.6603 55.3434C37.6603 54.9632 37.5802 54.5927 37.3602 54.3626C37.1302 54.1325 36.9103 53.9825 36.5303 53.9825C36.3003 53.9825 36.1502 54.0624 36.0002 54.1325C35.8502 54.2025 35.7002 54.2826 35.6202 54.4327C35.5402 54.5828 35.3903 54.7328 35.3903 54.8829C35.3103 55.033 35.3102 55.1832 35.2402 55.4133H37.6403V55.3334L37.6603 55.3434Z" fill="#2D2D2B"/>
<path d="M39.8405 53.5423C40.0705 53.4622 40.2905 53.4621 40.6705 53.392C40.9705 53.312 41.4205 53.3121 41.8005 53.3121C42.1805 53.3121 42.4805 53.3921 42.7805 53.4621C43.0105 53.5422 43.2305 53.7623 43.3805 53.9124C43.5305 54.1425 43.6105 54.3628 43.6805 54.593C43.7605 54.8932 43.7605 55.1932 43.7605 55.4934V58.2752H42.8605V55.7236C42.8605 55.4234 42.8605 55.1932 42.7805 54.9731C42.7005 54.7529 42.7005 54.5928 42.5505 54.4427C42.4705 54.2926 42.3205 54.2125 42.1705 54.1425C42.0205 54.0724 41.7904 54.0626 41.5704 54.0626H40.5905V58.1951H39.6904V53.5423H39.8405Z" fill="#2D2D2B"/>
<path d="M44.9404 55.8736C44.9404 55.4233 45.0205 55.0431 45.1705 54.743C45.3205 54.4428 45.4704 54.1425 45.7004 53.9124C45.9304 53.6822 46.1504 53.5322 46.4504 53.4621C46.7504 53.3921 46.9805 53.3121 47.2805 53.3121C47.9605 53.3121 48.4105 53.5421 48.7805 53.9124C49.1505 54.2826 49.3105 54.9631 49.3105 55.7937V56.0939H45.9305C46.0105 56.6242 46.0805 56.9944 46.3805 57.2245C46.6105 57.5247 47.0604 57.6046 47.5804 57.6046C47.8804 57.6046 48.1804 57.6048 48.3304 57.5247C48.5604 57.4447 48.7105 57.4445 48.7805 57.3745L48.9305 58.125C48.8505 58.205 48.6305 58.2752 48.4005 58.2752C48.1005 58.3553 47.8005 58.3551 47.5005 58.3551C47.0505 58.3551 46.6705 58.2751 46.3705 58.125C46.0705 57.9749 45.7705 57.825 45.6205 57.5948C45.3905 57.3647 45.2405 57.0644 45.1705 56.7642C45.0205 56.5341 44.9404 56.2338 44.9404 55.8635V55.8736ZM48.3105 55.3434C48.3105 54.9632 48.2305 54.5927 48.0105 54.3626C47.7805 54.1325 47.5605 53.9825 47.1805 53.9825C46.9505 53.9825 46.8005 54.0624 46.6505 54.1325C46.5005 54.2025 46.3505 54.2826 46.2705 54.4327C46.1905 54.5828 46.0405 54.7328 46.0405 54.8829C45.9605 55.033 45.9605 55.1832 45.8905 55.4133H48.2905V55.3334L48.3105 55.3434Z" fill="#2D2D2B"/>
<path d="M54.4705 58.2752C54.3205 57.8249 54.0904 57.2945 53.9404 56.6941C53.7104 56.0938 53.5605 55.4933 53.4105 54.893C53.2605 55.4933 53.0305 56.0938 52.8805 56.6941C52.6505 57.2945 52.5005 57.8249 52.3505 58.2752H51.6005C51.3005 57.5948 51.0005 56.9244 50.7705 56.0939C50.5405 55.2634 50.2405 54.3626 50.0205 53.392H51.0005C51.0805 53.6922 51.1505 53.9924 51.2305 54.3726C51.3105 54.7529 51.3805 55.0531 51.5305 55.4233C51.6105 55.8036 51.7604 56.1037 51.8304 56.4039C51.9104 56.7041 52.0605 57.0044 52.1305 57.2345C52.2105 56.9343 52.3605 56.6342 52.4305 56.3341C52.5105 56.0339 52.6605 55.6534 52.7305 55.3532C52.8105 55.053 52.8805 54.6728 53.0305 54.3726C53.1105 54.0724 53.1805 53.7723 53.2605 53.4722H54.0105C54.0905 53.7723 54.1605 54.0724 54.2405 54.3726C54.3205 54.6728 54.3905 55.053 54.5405 55.3532C54.6205 55.6534 54.7705 56.0339 54.8405 56.3341C54.9205 56.6342 55.0705 57.0144 55.1405 57.2345C55.2205 57.0044 55.3704 56.7041 55.4404 56.4039C55.5204 56.1037 55.6705 55.7235 55.7405 55.4233C55.8205 55.0431 55.9705 54.7429 56.0405 54.3726C56.1205 53.9924 56.1905 53.6922 56.2705 53.392H57.1705C56.9405 54.3726 56.6405 55.2734 56.4205 56.0939C56.1905 56.9244 55.8905 57.6748 55.5905 58.2752H54.4604H54.4705Z" fill="#2D2D2B"/>
<path d="M59.34 53.3221C59.72 53.3221 60.02 53.4021 60.24 53.4721C60.46 53.5422 60.69 53.7022 60.84 53.8523C60.99 54.0024 61.07 54.2326 61.14 54.4527C61.22 54.6829 61.22 54.903 61.22 55.2032V58.2852C61.14 58.2852 61.07 58.285 60.92 58.3651C60.77 58.3651 60.62 58.4452 60.47 58.4452C60.32 58.4452 60.0899 58.4453 59.9399 58.5254H59.34C59.04 58.5254 58.81 58.5253 58.59 58.4452C58.37 58.3652 58.14 58.2951 57.99 58.145C57.84 57.9949 57.69 57.8448 57.61 57.6948C57.53 57.4646 57.46 57.2445 57.46 56.9443C57.46 56.6441 57.54 56.414 57.61 56.2639C57.69 56.0338 57.8401 55.8837 58.0601 55.8137C58.2901 55.6636 58.44 55.5835 58.74 55.5135C58.97 55.4334 59.2699 55.4333 59.5699 55.4333H60.17C60.25 55.4333 60.32 55.4334 60.4 55.5135H60.55V55.2833C60.55 55.1332 60.55 54.9832 60.47 54.8331C60.47 54.683 60.3899 54.5328 60.3199 54.4527C60.2399 54.3727 60.09 54.2225 60.02 54.1525C59.87 54.0724 59.72 54.0726 59.49 54.0726C59.19 54.0726 58.96 54.0724 58.74 54.1525C58.52 54.2325 58.36 54.2327 58.29 54.3027L58.21 53.5523C58.36 53.4722 58.5101 53.4721 58.8101 53.402C58.7301 53.322 59.04 53.3221 59.34 53.3221ZM59.42 57.6747H59.95C60.1 57.6747 60.25 57.6749 60.33 57.5948V56.1638C60.25 56.1638 60.18 56.0839 60.03 56.0839H59.05C58.9 56.0839 58.75 56.1638 58.67 56.2339C58.52 56.3139 58.44 56.384 58.37 56.464C58.29 56.5441 58.22 56.6943 58.22 56.8444C58.22 57.1446 58.3 57.3746 58.52 57.5247C58.82 57.6048 59.12 57.6747 59.42 57.6747Z" fill="#2D2D2B"/>
<path d="M63.5504 53.6221C63.6304 53.5421 63.8504 53.4721 64.0004 53.392C64.2304 53.312 64.4504 53.242 64.7504 53.242C65.1304 53.242 65.4304 53.322 65.6504 53.4721C65.9504 53.6222 66.1803 53.7724 66.3303 54.0025C66.5603 54.2326 66.6304 54.5329 66.7804 54.8331C66.8604 55.1333 66.9304 55.5133 66.9304 55.8836C66.9304 56.2538 66.8504 56.6341 66.7804 56.9343C66.6304 57.2345 66.4804 57.5347 66.2504 57.7649C66.0204 57.995 65.8004 58.1451 65.5004 58.2952C65.2004 58.4453 64.8203 58.4452 64.4503 58.4452C64.0803 58.4452 63.7004 58.4451 63.4004 58.3651C63.1004 58.285 62.8004 58.2151 62.6504 58.2151V51.2307L63.5504 51.0807V53.6322V53.6221ZM63.5504 57.5247C63.6304 57.5247 63.7804 57.6046 63.9304 57.6046H64.5304C64.9804 57.6046 65.3604 57.4546 65.6604 57.1544C65.9604 56.8542 66.1104 56.4041 66.1104 55.8037C66.1104 55.5735 66.1104 55.3532 66.0304 55.1231C65.9504 54.8929 65.8804 54.743 65.8004 54.5228C65.6504 54.3728 65.5703 54.2225 65.3503 54.1425C65.2003 54.0624 64.9704 53.9925 64.6704 53.9925C64.4404 53.9925 64.2204 54.0724 63.9904 54.1425C63.7604 54.2225 63.6104 54.2926 63.5404 54.3726V57.5247H63.5504Z" fill="#2D2D2B"/>
<path d="M69.7004 58.4252C69.1704 58.4252 68.8004 58.2752 68.5704 58.0451C68.3404 57.8149 68.1904 57.5147 68.1904 56.9944V51.1406L69.0905 50.9906V56.8444C69.0905 56.9945 69.0905 57.1444 69.1705 57.2245C69.1705 57.3045 69.2504 57.3746 69.3204 57.4546C69.4004 57.5347 69.4705 57.5346 69.5505 57.6046C69.6305 57.6046 69.7805 57.6847 69.9305 57.6847L69.7004 58.4352V58.4252Z" fill="#2D2D2B"/>
<path d="M70.5205 55.8736C70.5205 55.4233 70.6005 55.0431 70.7505 54.743C70.9005 54.4428 71.0505 54.1425 71.2805 53.9124C71.5105 53.6822 71.7305 53.5322 72.0305 53.4621C72.3305 53.3921 72.5605 53.3121 72.8605 53.3121C73.5405 53.3121 73.9905 53.5421 74.3605 53.9124C74.7305 54.2826 74.8905 54.9631 74.8905 55.7937V56.0939H71.5105C71.5905 56.6242 71.6604 56.9944 71.9604 57.2245C72.1904 57.5247 72.6405 57.6046 73.1605 57.6046C73.4605 57.6046 73.7605 57.6048 73.9105 57.5247C74.1405 57.4447 74.2905 57.4445 74.3605 57.3745L74.5105 58.125C74.4305 58.205 74.2105 58.2752 73.9805 58.2752C73.7505 58.2752 73.3804 58.3551 73.0804 58.3551C72.6304 58.3551 72.2504 58.2751 71.9504 58.125C71.6504 57.9749 71.3504 57.825 71.2004 57.5948C70.9704 57.3647 70.8205 57.0644 70.7505 56.7642C70.6005 56.5341 70.5205 56.2338 70.5205 55.8635V55.8736ZM73.9005 55.3434C73.9005 54.9632 73.8205 54.5927 73.6005 54.3626C73.3705 54.1325 73.1505 53.9825 72.7705 53.9825C72.5405 53.9825 72.3905 54.0624 72.2405 54.1325C72.0905 54.2025 71.9405 54.2826 71.8605 54.4327C71.7805 54.5828 71.6305 54.7328 71.6305 54.8829C71.5505 55.033 71.5505 55.1832 71.4805 55.4133H73.8805V55.3334L73.9005 55.3434Z" fill="#2D2D2B"/>
<path d="M78.25 58.2752V51.7411H82.23V52.4916H79.15V54.4427H81.85V55.1932H79.15V57.4446H82.45V58.1951H78.25V58.2752Z" fill="#2D2D2B"/>
<path d="M83.5796 53.5423C83.8096 53.4622 84.0297 53.4621 84.4097 53.392C84.7097 53.312 85.1597 53.3121 85.5397 53.3121C85.9197 53.3121 86.2197 53.3921 86.5197 53.4621C86.7497 53.5422 86.9696 53.7623 87.1196 53.9124C87.2696 54.1425 87.3497 54.3628 87.4197 54.593C87.4997 54.8932 87.4996 55.1932 87.4996 55.4934V58.2752H86.5996V55.7236C86.5996 55.4234 86.5997 55.1932 86.5197 54.9731C86.4397 54.7529 86.4397 54.5928 86.2897 54.4427C86.2097 54.2926 86.0597 54.2125 85.9097 54.1425C85.7597 54.0724 85.5297 54.0626 85.3097 54.0626H84.3296V58.1951H83.4297V53.5423H83.5796Z" fill="#2D2D2B"/>
<path d="M88.6797 55.8736C88.6797 55.4233 88.7597 55.0431 88.9097 54.743C89.0597 54.4428 89.2096 54.1425 89.4396 53.9124C89.6696 53.6822 89.8896 53.5322 90.1896 53.4621C90.4896 53.3921 90.7197 53.3121 91.0197 53.3121C91.6997 53.3121 92.1497 53.5421 92.5197 53.9124C92.8897 54.2826 93.0497 54.9631 93.0497 55.7937V56.0939H89.6697C89.7497 56.6242 89.8196 56.9944 90.1196 57.2245C90.3496 57.5247 90.7996 57.6046 91.3196 57.6046C91.6196 57.6046 91.9196 57.6048 92.0696 57.5247C92.2996 57.4447 92.4497 57.4445 92.5197 57.3745L92.6697 58.125C92.5897 58.205 92.3696 58.2752 92.1396 58.2752C91.9096 58.2752 91.5396 58.3551 91.2396 58.3551C90.7896 58.3551 90.4096 58.2751 90.1096 58.125C89.8096 57.9749 89.5096 57.825 89.3596 57.5948C89.1296 57.3647 88.9797 57.0644 88.9097 56.7642C88.7597 56.5341 88.6797 56.2338 88.6797 55.8635V55.8736ZM92.0597 55.3434C92.0597 54.9632 91.9796 54.5927 91.7596 54.3626C91.5296 54.1325 91.3097 53.9825 90.9297 53.9825C90.6997 53.9825 90.5497 54.0624 90.3997 54.1325C90.2497 54.2025 90.0997 54.2826 90.0197 54.4327C89.9397 54.5828 89.7897 54.7328 89.7897 54.8829C89.7097 55.033 89.7096 55.1832 89.6396 55.4133H92.0397V55.3334L92.0597 55.3434Z" fill="#2D2D2B"/>
<path d="M96.0399 53.3221H96.2699C96.3499 53.3221 96.4998 53.322 96.5698 53.402C96.6498 53.402 96.7199 53.4021 96.7999 53.4822C96.8799 53.4822 96.9498 53.4822 96.9498 53.5623L96.7999 54.3128C96.7199 54.3128 96.6499 54.2326 96.4199 54.2326C96.2699 54.2326 96.0398 54.1525 95.8198 54.1525C95.6698 54.1525 95.5199 54.1526 95.3699 54.2326C95.2199 54.2326 95.0698 54.3128 95.0698 54.3128V58.4452H94.1699V53.7924C94.3999 53.7124 94.6199 53.6423 94.9199 53.5623C95.2999 53.3321 95.6699 53.3322 96.0499 53.3322L96.0399 53.3221Z" fill="#2D2D2B"/>
<path d="M100.91 57.825C100.83 57.905 100.68 57.9751 100.46 58.0551C100.23 58.1352 100.01 58.2051 99.7096 58.2051C99.4096 58.2051 99.1096 58.1251 98.8796 58.0551C98.6496 57.9851 98.4296 57.8248 98.1996 57.6046C97.9696 57.3745 97.8196 57.1543 97.7496 56.8542C97.5996 56.554 97.5996 56.1739 97.5996 55.8037C97.5996 55.4335 97.6796 55.1233 97.7496 54.8231C97.8296 54.5229 97.9796 54.2928 98.1996 54.0726C98.4196 53.8525 98.6496 53.6924 98.9496 53.5423C99.2496 53.3922 99.5497 53.392 99.9297 53.392C100.31 53.392 100.68 53.3921 100.98 53.4722C101.28 53.5522 101.51 53.6222 101.73 53.6222V57.975C101.73 58.7254 101.5 59.2557 101.13 59.6259C100.76 59.9961 100.15 60.1563 99.3296 60.1563C99.0296 60.1563 98.7297 60.1564 98.4297 60.0764C98.1297 59.9963 97.8996 59.9962 97.7496 59.9261L97.8997 59.1757C98.0497 59.2557 98.2796 59.3259 98.5796 59.3259C98.8096 59.406 99.1097 59.4058 99.4097 59.4058C99.9397 59.4058 100.31 59.3257 100.54 59.1056C100.77 58.8854 100.92 58.5753 100.92 58.125V57.825H100.91ZM100.91 54.1425C100.83 54.1425 100.68 54.0626 100.53 54.0626H99.9297C99.4797 54.0626 99.0996 54.2127 98.8796 54.5128C98.6496 54.813 98.4996 55.2633 98.4996 55.7136C98.4996 56.0137 98.4996 56.2439 98.5796 56.464C98.6596 56.6842 98.7296 56.8443 98.8796 56.9944C99.0296 57.1445 99.1796 57.2246 99.3296 57.2946C99.4796 57.3747 99.6296 57.3745 99.8596 57.3745C100.09 57.3745 100.31 57.3747 100.54 57.2946C100.77 57.2146 100.92 57.1445 100.99 57.0645V54.1325H100.91V54.1425Z" fill="#2D2D2B"/>
<path d="M102.71 59.1757C102.79 59.1757 102.86 59.2558 103.01 59.2558C103.09 59.2558 103.241 59.3359 103.311 59.3359C103.691 59.3359 103.911 59.2556 104.141 59.1055C104.371 58.9554 104.521 58.7253 104.671 58.3551C104.291 57.6046 103.921 56.7742 103.541 55.9537C103.161 55.1231 102.94 54.2225 102.71 53.402H103.69C103.77 53.7022 103.841 54.0025 103.921 54.3027C104.001 54.6029 104.15 54.9831 104.22 55.2833C104.37 55.6636 104.45 55.9638 104.6 56.334C104.75 56.7043 104.901 57.0144 105.051 57.3146C105.281 56.6342 105.501 56.0336 105.651 55.3632C105.801 54.6928 106.031 54.0826 106.181 53.3322H107.08C106.85 54.2327 106.63 55.1332 106.33 55.9637C106.03 56.7942 105.731 57.6146 105.431 58.3651C105.281 58.6653 105.201 58.8954 105.051 59.1156C104.901 59.3357 104.75 59.4958 104.6 59.6459C104.45 59.796 104.22 59.8761 104.07 59.9462C103.84 60.0262 103.621 60.0263 103.391 60.0263H102.94C102.86 60.0263 102.79 60.0262 102.71 59.9462C102.657 59.9462 102.607 59.9194 102.561 59.866L102.71 59.1857V59.1757Z" fill="#2D2D2B"/>
<path d="M5.84021 38.7529C5.69021 39.0531 5.4603 39.3533 5.3103 39.7335C5.0803 40.1138 4.9302 40.4839 4.71021 40.9342C4.48021 41.3145 4.33023 41.7647 4.11023 42.1349C3.96023 42.5152 3.7302 42.8855 3.5802 43.2658C3.4302 42.8855 3.28029 42.5852 3.05029 42.1349C2.90029 41.7547 2.6702 41.3045 2.4502 40.9342C2.2302 40.564 2.07022 40.1038 1.85022 39.7335C1.63022 39.3633 1.47019 39.0531 1.32019 38.7529H0.490234C0.410234 39.2032 0.41021 39.7335 0.34021 40.2539C0.27021 40.7742 0.260186 41.3044 0.190186 41.9048C0.110186 42.4351 0.110229 43.0355 0.110229 43.6359C0.110229 44.2362 0.0302734 44.7666 0.0302734 45.3669H0.930298C0.930298 44.4664 1.0102 43.636 1.0802 42.7354C1.1602 41.9049 1.16022 41.0845 1.23022 40.334C1.31022 40.414 1.38021 40.5641 1.46021 40.7842C1.54021 41.0144 1.69025 41.2344 1.76025 41.4646C1.91025 41.6947 1.99026 41.995 2.14026 42.2952C2.29026 42.5954 2.37026 42.8254 2.52026 43.1255C2.67026 43.4257 2.75019 43.6559 2.82019 43.876C2.89019 44.0961 2.97029 44.3264 3.05029 44.4765H3.80029C3.88029 44.3264 3.95027 44.0961 4.03027 43.876C4.11027 43.6459 4.2602 43.4257 4.3302 43.1255C4.4802 42.8254 4.5602 42.5954 4.71021 42.2952C4.86021 41.995 4.94021 41.7648 5.09021 41.4646C5.24021 41.2344 5.32026 41.0144 5.39026 40.7842C5.46026 40.5541 5.54024 40.404 5.62024 40.334C5.70024 41.0845 5.77026 41.9149 5.77026 42.7354C5.85026 43.5659 5.85029 44.4664 5.92029 45.3669H6.82019C6.74019 43.1155 6.52024 40.9344 6.37024 38.8331H5.84021V38.7529Z" fill="#2D2D2B"/>
<path d="M14.4004 40.9342C14.2504 40.7041 14.0204 40.554 13.8004 40.484C13.5804 40.4139 13.2003 40.334 12.8203 40.334C12.3703 40.334 11.9903 40.3338 11.6903 40.4139C11.3903 40.4939 11.0904 40.4941 10.8604 40.5641V45.2971H11.7604V41.1643H12.7404C12.9704 41.1643 13.1903 41.1644 13.3403 41.2445C13.4903 41.3245 13.6403 41.3946 13.7203 41.5447C13.8003 41.6948 13.8703 41.8449 13.9503 42.0751C14.0303 42.3052 14.0304 42.5253 14.0304 42.8255V45.3769H14.9304V42.5952C14.9304 42.295 14.9303 41.9949 14.8503 41.6947C14.6203 41.3945 14.5504 41.0943 14.4004 40.9442V40.9342Z" fill="#2D2D2B"/>
<path d="M21.3004 43.0356C21.1504 42.8855 21.0003 42.8054 20.8503 42.7354C20.7003 42.6654 20.4704 42.5853 20.2504 42.5053C20.1004 42.4252 19.9504 42.355 19.8004 42.355C19.6504 42.275 19.5704 42.205 19.5004 42.205L19.2704 41.9749C19.1904 41.8949 19.1903 41.8248 19.1903 41.6747C19.1903 41.4445 19.2704 41.2945 19.4904 41.2244C19.6404 41.1444 19.8704 41.0745 20.1704 41.0745C20.4704 41.0745 20.7004 41.0743 20.9204 41.1543C21.1404 41.2344 21.3004 41.2345 21.3704 41.3046L21.5204 40.5541C21.4404 40.5541 21.3704 40.474 21.2904 40.474C21.2104 40.474 21.0604 40.3938 20.9904 40.3938C20.8404 40.3938 20.7604 40.314 20.6104 40.314H20.1604C19.6304 40.314 19.1804 40.4639 18.8804 40.6941C18.5804 40.9242 18.4304 41.2945 18.4304 41.7448C18.4304 41.9749 18.5103 42.1251 18.5803 42.2752C18.6503 42.4252 18.7304 42.5752 18.8804 42.6553C19.0304 42.7353 19.1803 42.8855 19.3303 42.9555C19.4803 43.0256 19.7104 43.1056 19.8604 43.1856C20.2404 43.3357 20.5403 43.4858 20.6903 43.6359C20.8403 43.786 20.9204 43.9361 20.9204 44.1662C20.9204 44.3964 20.8403 44.5464 20.6903 44.6165C20.5403 44.6965 20.2404 44.7667 19.8604 44.7667C19.4804 44.7667 19.1803 44.6865 18.9603 44.6165C18.7303 44.5364 18.5804 44.4665 18.5104 44.4665L18.3604 45.2169C18.4404 45.2169 18.5904 45.2969 18.8904 45.3669C19.1204 45.447 19.4903 45.4471 19.9403 45.4471C20.5403 45.4471 21.0704 45.2971 21.3704 45.0669C21.6704 44.8368 21.9004 44.4665 21.9004 44.0162C21.9004 43.7861 21.9003 43.5659 21.8203 43.4158C21.5203 43.2657 21.4404 43.1157 21.2904 43.0356H21.3004Z" fill="#2D2D2B"/>
<path d="M25.1307 44.5366C24.9807 44.6166 24.7508 44.6165 24.5308 44.6165C24.3808 44.6165 24.2308 44.6166 24.1508 44.5366C24.0008 44.5366 23.9207 44.4566 23.8507 44.3065C23.7707 44.2264 23.7007 44.0762 23.7007 43.9261C23.7007 43.776 23.6207 43.546 23.6207 43.3259V41.0745H25.5007V40.324H23.6207V38.8231L22.7207 38.9731V43.3259C22.7207 43.6261 22.7208 43.9261 22.8008 44.1562C22.8808 44.3864 22.9507 44.6066 23.1007 44.7567C23.2507 44.9068 23.4007 45.0568 23.6307 45.1368C23.8607 45.2169 24.1607 45.2871 24.4607 45.2871C24.7607 45.2871 24.9907 45.287 25.2107 45.2069C25.4307 45.1269 25.5908 45.0569 25.6608 45.0569L25.5107 44.3065C25.4307 44.4566 25.3607 44.4565 25.1307 44.5366Z" fill="#2D2D2B"/>
<path d="M28.9598 40.334C28.8798 40.334 28.7299 40.3339 28.6599 40.2538H28.4299C28.0499 40.2538 27.6799 40.2539 27.3799 40.334C27.0799 40.414 26.7799 40.484 26.6299 40.5641V45.2169H27.5299V41.0844C27.6099 41.0844 27.6798 41.0844 27.8298 41.0043C27.9798 41.0043 28.1299 40.9242 28.2799 40.9242C28.5099 40.9242 28.7299 40.9243 28.8799 41.0043C29.0299 41.0043 29.1799 41.0844 29.2599 41.0844L29.4099 40.334C29.3566 40.334 29.3066 40.3072 29.2599 40.2538C29.1099 40.4039 29.0298 40.334 28.9598 40.334Z" fill="#2D2D2B"/>
<path d="M32.7805 42.355C32.6305 43.0355 32.4005 43.636 32.1805 44.3065C32.0305 44.0063 31.8805 43.626 31.7305 43.3259C31.5805 42.9456 31.4305 42.6454 31.3505 42.2752C31.2005 41.8949 31.1205 41.5947 31.0505 41.2946C30.9805 40.9944 30.9004 40.694 30.8204 40.3938H29.8405C30.0705 41.2944 30.3705 42.125 30.6705 42.9455C31.0505 43.776 31.3505 44.5964 31.8005 45.3469C31.6505 45.7271 31.5005 45.9473 31.2705 46.0974C31.0405 46.2475 30.8204 46.3277 30.4404 46.3277C30.3604 46.3277 30.2105 46.3277 30.1405 46.2476C30.0605 46.2476 29.9105 46.1675 29.8405 46.1675L29.6904 46.8478C29.6904 46.8478 29.7705 46.8479 29.8405 46.928C29.9205 46.928 29.9904 46.928 30.0704 47.0081H30.5205C30.7505 47.0081 30.9704 47.008 31.2004 46.928C31.4304 46.8479 31.5805 46.7778 31.7305 46.6277C31.8805 46.4776 32.0305 46.3275 32.1805 46.0974C32.3305 45.8672 32.4805 45.6471 32.5605 45.3469C32.8605 44.5964 33.1604 43.8461 33.4604 42.9455C33.7604 42.115 33.9904 41.2145 34.2104 40.314H33.3105C33.0805 41.0644 32.9305 41.7446 32.7805 42.345V42.355Z" fill="#2D2D2B"/>
<path d="M40.8903 41.0043C40.6603 40.7742 40.4403 40.6241 40.1403 40.474C39.8403 40.3239 39.5402 40.324 39.2402 40.324C38.9402 40.324 38.5602 40.4039 38.3402 40.474C38.0402 40.6241 37.8102 40.7742 37.5902 41.0043C37.3602 41.2345 37.2103 41.5347 37.1403 41.8349C36.9903 42.1351 36.9902 42.5152 36.9902 42.8854C36.9902 43.2556 37.0703 43.6359 37.1403 43.9361C37.2903 44.2363 37.4402 44.5366 37.5902 44.7667C37.8202 44.9968 38.0402 45.147 38.3402 45.2971C38.6402 45.4472 38.9402 45.4471 39.2402 45.4471C39.5402 45.4471 39.9203 45.3671 40.1403 45.2971C40.4403 45.147 40.6703 44.9968 40.8903 44.7667C41.1203 44.5366 41.2702 44.2363 41.3402 43.9361C41.4902 43.6359 41.4902 43.2556 41.4902 42.8854C41.4902 42.5152 41.4102 42.1351 41.3402 41.8349C41.2602 41.4547 41.1103 41.2345 40.8903 41.0043ZM40.2903 44.1562C40.0603 44.4564 39.6903 44.6064 39.3103 44.6064C38.8603 44.6064 38.5602 44.4564 38.3302 44.1562C38.1002 43.856 37.9502 43.4057 37.9502 42.8754C37.9502 42.345 38.1002 41.8947 38.3302 41.5945C38.5602 41.2944 38.9303 41.1443 39.3103 41.1443C39.7603 41.1443 40.0603 41.2944 40.2903 41.5945C40.5203 41.8947 40.6703 42.345 40.6703 42.8754C40.6703 43.4057 40.5203 43.856 40.2903 44.1562Z" fill="#2D2D2B"/>
<path d="M43.8898 39.0531C44.0398 38.823 44.3397 38.7529 44.7197 38.7529C44.9497 38.7529 45.0998 38.753 45.2498 38.833C45.3998 38.833 45.4798 38.9129 45.5498 38.9129L45.6997 38.1625C45.6197 38.1625 45.4697 38.0826 45.3197 38.0826C45.1697 38.0025 44.9398 38.0024 44.6398 38.0024C43.9598 38.0024 43.5097 38.1526 43.2097 38.5328C42.9097 38.913 42.7598 39.3633 42.7598 39.9636V40.4139H42.0098V41.1643H42.7598V45.297H43.6598V41.1643H45.5398V40.4139H43.6598V39.9636C43.6598 39.5834 43.7398 39.2833 43.8898 39.0632V39.0531Z" fill="#2D2D2B"/>
<path d="M49.5903 42.2852H52.2904V41.4546H49.5903V39.5835H52.5903V38.7529H48.6104V45.287H52.8904V44.5366H49.5903V42.2852Z" fill="#2D2D2B"/>
<path d="M54.9904 44.4564C54.9104 44.3764 54.9103 44.3064 54.8403 44.2263C54.8403 44.1463 54.7604 43.996 54.7604 43.8459V37.9924L53.8604 38.1424V43.9962C53.8604 44.4465 54.0104 44.8268 54.2404 45.0469C54.4704 45.267 54.8404 45.347 55.3704 45.427L55.5204 44.6765C55.3704 44.6765 55.2904 44.5964 55.1404 44.5964C55.0604 44.5164 54.9904 44.5165 54.9904 44.4464V44.4564Z" fill="#2D2D2B"/>
<path d="M58.4406 40.2538C58.1406 40.2538 57.9106 40.3338 57.6106 40.4038C57.3106 40.4739 57.0806 40.704 56.8606 40.8541C56.6306 41.0842 56.4806 41.3044 56.3306 41.6847C56.1806 41.9849 56.1006 42.3652 56.1006 42.8155C56.1006 43.1957 56.1806 43.4957 56.2506 43.866C56.3306 44.1662 56.4806 44.4664 56.7006 44.6966C56.9306 44.9267 57.1506 45.0768 57.4506 45.2269C57.7506 45.377 58.1306 45.4571 58.5806 45.4571C58.9606 45.4571 59.2606 45.457 59.4806 45.3769C59.7806 45.2969 59.9306 45.2269 60.0106 45.2269L59.8606 44.4765C59.7806 44.5565 59.5606 44.5564 59.4106 44.6265C59.1806 44.7065 58.9606 44.7066 58.6606 44.7066C58.1306 44.7066 57.6806 44.5566 57.4606 44.3265C57.2306 44.0263 57.0806 43.6459 57.0106 43.1956H60.3906V42.8954C60.3906 42.0649 60.2406 41.3946 59.8606 41.0143C59.6306 40.484 59.1107 40.2639 58.4307 40.2639L58.4406 40.2538ZM57.1707 42.355C57.1707 42.2049 57.2506 42.055 57.3206 41.8249C57.4006 41.6748 57.4707 41.5245 57.5507 41.3744C57.6307 41.2243 57.7807 41.1445 57.9307 41.0744C58.0807 41.0044 58.2306 40.9242 58.4606 40.9242C58.8406 40.9242 59.0606 41.0744 59.2906 41.3046C59.5206 41.5347 59.5906 41.9049 59.5906 42.2851H57.1906V42.365L57.1707 42.355Z" fill="#2D2D2B"/>
<path d="M64.6705 44.5366C64.4405 44.6166 64.2904 44.6165 64.0704 44.6165C63.7704 44.6165 63.5404 44.5365 63.3204 44.4665C63.1004 44.3964 62.9405 44.2365 62.7905 44.0864C62.6405 43.9363 62.5605 43.706 62.4905 43.4859C62.4105 43.2557 62.4105 43.0356 62.4105 42.7354C62.4105 42.135 62.5605 41.6847 62.7905 41.3845C63.0205 41.0843 63.3905 40.9342 63.9205 40.9342C64.1505 40.9342 64.3004 40.9343 64.4504 41.0144C64.6004 41.0944 64.7505 41.0943 64.9005 41.1644L65.1305 40.4139C64.9005 40.3339 64.7505 40.2639 64.5305 40.2639C64.3005 40.1839 64.0805 40.1838 63.8505 40.1838C63.4705 40.1838 63.1705 40.2638 62.8705 40.4139C62.5705 40.564 62.3405 40.7141 62.1205 40.9443C61.8905 41.1744 61.7405 41.4747 61.6705 41.7749C61.6005 42.075 61.5205 42.4553 61.5205 42.8256C61.5205 43.1958 61.6005 43.5758 61.6705 43.876C61.7505 44.1762 61.9005 44.4765 62.1205 44.7066C62.3505 44.9368 62.5705 45.0869 62.8705 45.237C63.1705 45.3871 63.5505 45.4671 63.9205 45.4671H64.3005C64.4505 45.4671 64.5305 45.467 64.6805 45.387C64.8305 45.387 64.9105 45.3071 64.9805 45.3071C65.0505 45.3071 65.1304 45.227 65.2104 45.227L65.0605 44.4765C64.9805 44.4765 64.8305 44.5566 64.6805 44.5566L64.6705 44.5366Z" fill="#2D2D2B"/>
<path d="M68.4999 44.5366C68.3499 44.6166 68.1199 44.6165 67.8999 44.6165C67.7499 44.6165 67.5999 44.6166 67.5199 44.5366C67.3699 44.5366 67.2898 44.4566 67.2198 44.3065C67.1398 44.2264 67.0698 44.0762 67.0698 43.9261C67.0698 43.776 66.9899 43.546 66.9899 43.3259V41.0745H68.8699V40.324H66.9899V38.8231L66.0898 38.9731V43.3259C66.0898 43.6261 66.0899 43.9261 66.1699 44.1562C66.2499 44.3864 66.3198 44.6066 66.4698 44.7567C66.6198 44.9068 66.7699 45.0568 66.9999 45.1368C67.2299 45.2169 67.5298 45.2871 67.8298 45.2871C68.1298 45.2871 68.3598 45.287 68.5798 45.2069C68.7998 45.1269 68.9599 45.0569 69.0299 45.0569L68.8799 44.3065C68.7999 44.4566 68.6499 44.4565 68.4999 44.5366Z" fill="#2D2D2B"/>
<path d="M72.2499 40.334C72.1699 40.334 72.0198 40.3339 71.9498 40.2538H71.7198C71.3398 40.2538 70.9699 40.2539 70.6699 40.334C70.3699 40.414 70.0699 40.484 69.9199 40.5641V45.2169H70.8198V41.0844C70.8998 41.0844 70.9699 41.0844 71.1199 41.0043C71.2699 41.0043 71.4198 40.9242 71.5698 40.9242C71.7998 40.9242 72.0199 40.9243 72.1699 41.0043C72.3199 41.0043 72.4699 41.0844 72.5499 41.0844L72.6998 40.334C72.6465 40.334 72.5966 40.3072 72.5499 40.2538C72.4699 40.4039 72.3999 40.334 72.2499 40.334Z" fill="#2D2D2B"/>
<path d="M74.4303 40.4039H73.5303V45.2871H74.4303V40.4039Z" fill="#2D2D2B"/>
<path d="M78.7799 44.5366C78.5499 44.6166 78.3999 44.6165 78.1799 44.6165C77.8799 44.6165 77.6499 44.5365 77.4299 44.4665C77.2099 44.3964 77.0499 44.2365 76.8999 44.0864C76.7499 43.9363 76.6699 43.706 76.5999 43.4859C76.5199 43.2557 76.5199 43.0356 76.5199 42.7354C76.5199 42.135 76.6699 41.6847 76.8999 41.3845C77.1299 41.0843 77.4999 40.9342 78.0299 40.9342C78.2599 40.9342 78.4099 40.9343 78.5599 41.0144C78.7099 41.0944 78.8599 41.0943 79.0099 41.1644L79.2399 40.4139C79.0099 40.3339 78.8599 40.2639 78.6399 40.2639C78.4099 40.1839 78.1898 40.1838 77.9598 40.1838C77.5798 40.1838 77.2799 40.2638 76.9799 40.4139C76.6799 40.564 76.4499 40.7141 76.2299 40.9443C75.9999 41.1744 75.8499 41.4747 75.7799 41.7749C75.7099 42.075 75.6299 42.4553 75.6299 42.8256C75.6299 43.1958 75.7099 43.5758 75.7799 43.876C75.8599 44.1762 76.0099 44.4765 76.2299 44.7066C76.4599 44.9368 76.6799 45.0869 76.9799 45.237C77.2799 45.3871 77.6599 45.4671 78.0299 45.4671H78.4099C78.5599 45.4671 78.6399 45.467 78.7899 45.387C78.9399 45.387 79.0198 45.3071 79.0898 45.3071C79.1598 45.3071 79.2398 45.227 79.3198 45.227L79.1699 44.4765C79.1699 44.4765 79.0199 44.5566 78.7899 44.5566L78.7799 44.5366Z" fill="#2D2D2B"/>
<path d="M81.1803 40.4039H80.2803V45.2871H81.1803V40.4039Z" fill="#2D2D2B"/>
<path d="M85.0106 44.5366C84.8606 44.6166 84.6306 44.6165 84.4106 44.6165C84.2606 44.6165 84.1106 44.6166 84.0306 44.5366C83.8806 44.5366 83.8006 44.4566 83.7306 44.3065C83.6506 44.2264 83.5806 44.0762 83.5806 43.9261C83.5806 43.776 83.5006 43.546 83.5006 43.3259V41.0745H85.3806V40.324H83.5006V38.8231L82.6006 38.9731V43.3259C82.6006 43.6261 82.6007 43.9261 82.6807 44.1562C82.7607 44.3864 82.8306 44.6066 82.9806 44.7567C83.1306 44.9068 83.2806 45.0568 83.5106 45.1368C83.7406 45.2169 84.0406 45.2871 84.3406 45.2871C84.6406 45.2871 84.8706 45.287 85.0906 45.2069C85.3106 45.1269 85.4706 45.0569 85.5406 45.0569L85.3906 44.3065C85.3106 44.4566 85.1606 44.4565 85.0106 44.5366Z" fill="#2D2D2B"/>
<path d="M88.8302 42.355C88.6802 43.0355 88.4502 43.636 88.2302 44.3065C88.0802 44.0063 87.9303 43.626 87.7803 43.3259C87.6303 42.9456 87.4803 42.6454 87.4003 42.2752C87.2503 41.8949 87.1702 41.5947 87.1002 41.2946C87.0202 40.9944 86.9502 40.694 86.8702 40.3938H85.8903C86.1203 41.2944 86.4202 42.125 86.7202 42.9455C87.1002 43.776 87.4002 44.5964 87.8502 45.3469C87.7002 45.7271 87.5502 45.9473 87.3202 46.0974C87.0902 46.2475 86.8702 46.3277 86.4902 46.3277C86.4102 46.3277 86.2602 46.3277 86.1902 46.2476C86.1102 46.2476 85.9603 46.1675 85.8903 46.1675L85.7402 46.8478C85.7402 46.8478 85.8203 46.8479 85.8903 46.928C85.9703 46.928 86.0402 46.928 86.1202 47.0081H86.5702C86.8002 47.0081 87.0202 47.008 87.2502 46.928C87.4802 46.8479 87.6303 46.7778 87.7803 46.6277C87.9303 46.4776 88.0802 46.3275 88.2302 46.0974C88.3802 45.8672 88.5302 45.6471 88.6102 45.3469C88.9102 44.5964 89.2103 43.8461 89.5103 42.9455C89.8103 42.115 90.0403 41.2145 90.2603 40.314H89.2803C89.1303 41.0644 88.9802 41.7446 88.8302 42.345V42.355Z" fill="#2D2D2B"/>
<path d="M97.6101 43.9361C97.8401 43.6359 97.9102 43.3358 98.0602 43.0357C98.1402 42.7355 98.2102 42.4352 98.2902 42.2051L97.5402 42.1249C97.4602 42.5752 97.3101 43.0256 97.0901 43.4759L95.5901 41.8948C95.7401 41.8148 95.9701 41.6646 96.1201 41.5946C96.2701 41.4445 96.4201 41.3645 96.5701 41.2144C96.7201 41.0644 96.8001 40.9143 96.8701 40.7642C96.9501 40.6141 96.9501 40.3839 96.9501 40.1637C96.9501 39.9436 96.9501 39.7835 96.8701 39.6334C96.7901 39.4833 96.7201 39.3332 96.5701 39.1831C96.4201 39.033 96.2702 38.953 96.0402 38.8829C95.8102 38.8129 95.5901 38.7329 95.3601 38.7329C95.1301 38.7329 94.9102 38.7328 94.6802 38.8829C94.4502 38.963 94.3001 39.033 94.1501 39.1831C94.0001 39.3332 93.8501 39.4834 93.7701 39.7135C93.6901 39.9436 93.6201 40.1637 93.6201 40.3939C93.6201 40.9242 93.8502 41.3747 94.3002 41.8249C94.1502 41.905 93.9201 42.0549 93.7701 42.1249C93.6201 42.275 93.4701 42.3552 93.3201 42.5053C93.1701 42.6554 93.0901 42.8055 93.0201 43.0357C92.9401 43.2658 92.8701 43.4158 92.8701 43.716C92.8701 43.9462 92.8701 44.0963 92.9501 44.3165C93.0301 44.5366 93.1001 44.6966 93.3301 44.9167C93.4801 45.0668 93.7101 45.2169 94.0101 45.3669C94.3101 45.517 94.6102 45.5172 95.0602 45.5172C95.5102 45.5172 95.8901 45.4372 96.2601 45.2871C96.6401 45.137 96.8602 44.9067 97.1602 44.6866C97.3102 44.8367 97.3902 44.9869 97.5402 45.067C97.6202 45.217 97.7701 45.297 97.8401 45.4471H98.7401C98.5901 45.2169 98.4402 44.9969 98.2902 44.7667C98.0602 44.3865 97.8401 44.1663 97.6101 43.9361ZM94.6802 39.5835C94.8302 39.4334 95.0602 39.3532 95.2802 39.3532C95.5002 39.3532 95.7301 39.4334 95.8801 39.5835C96.0301 39.7336 96.1101 39.8835 96.1101 40.1137C96.1101 40.2638 96.1102 40.414 96.0302 40.5641C95.9502 40.7142 95.8802 40.7942 95.8002 40.9443C95.7202 41.0243 95.5701 41.1744 95.5001 41.2445C95.3501 41.3245 95.2701 41.3946 95.1201 41.4746C94.6701 41.0944 94.4401 40.7242 94.4401 40.2739C94.4401 39.9737 94.5202 39.7434 94.6702 39.5933L94.6802 39.5835ZM95.9601 44.4565C95.7301 44.6066 95.4301 44.6065 95.1301 44.6065C94.9001 44.6065 94.6802 44.6066 94.5302 44.5266C94.3802 44.4465 94.2301 44.3764 94.1501 44.2263C94.0701 44.1463 94.0002 43.9961 93.9202 43.846C93.8402 43.6959 93.8401 43.6159 93.8401 43.4659C93.8401 43.2357 93.8402 43.0856 93.9202 42.9355C94.0002 42.7854 94.0701 42.6354 94.1501 42.5554C94.2301 42.4753 94.3801 42.3252 94.4501 42.2551C94.6001 42.1751 94.6801 42.1051 94.8301 42.025L96.6301 43.9061C96.4801 44.2063 96.2501 44.3564 95.9501 44.4364L95.9601 44.4565Z" fill="#2D2D2B"/>
<path d="M108.27 40.2539C108.19 40.7842 108.04 41.2344 107.97 41.6847C107.89 42.135 107.74 42.5853 107.67 43.0356C107.59 43.4859 107.44 43.866 107.37 44.1662C107.14 43.4858 106.84 42.8154 106.54 41.9849C106.24 41.2344 106.01 40.4039 105.71 39.5034H104.88C104.65 40.3339 104.35 41.1544 104.05 41.9849C103.75 42.7354 103.52 43.4858 103.22 44.1662C103.14 43.786 102.99 43.4158 102.92 42.9655C102.84 42.5152 102.69 42.1349 102.62 41.6146C102.54 41.1643 102.39 40.7141 102.32 40.1837C102.24 39.6534 102.17 39.2031 102.02 38.6828H101.04C101.27 39.9636 101.49 41.0843 101.72 42.1349C101.95 43.1856 102.25 44.2362 102.62 45.1368H103.52C103.82 44.4564 104.05 43.7861 104.35 43.0356C104.65 42.2852 104.88 41.5346 105.18 40.7041C105.48 41.5346 105.71 42.3552 106.01 43.0356C106.31 43.7861 106.54 44.4664 106.84 45.1368H107.74C108.04 44.1562 108.34 43.1856 108.64 42.1349C108.87 41.0843 109.17 39.8836 109.39 38.6828H108.49C108.41 39.2832 108.34 39.7335 108.26 40.2639L108.27 40.2539Z" fill="#2D2D2B"/>
<path d="M113.22 40.7842C113.07 40.6341 112.84 40.4839 112.62 40.4038C112.4 40.3238 112.09 40.2538 111.72 40.2538C111.42 40.2538 111.12 40.2539 110.89 40.334C110.59 40.414 110.44 40.4139 110.29 40.484L110.37 41.2344C110.45 41.1544 110.67 41.1545 110.82 41.0844C111.05 41.0044 111.27 41.0043 111.57 41.0043C111.8 41.0043 111.95 41.0044 112.1 41.0844C112.25 41.1645 112.33 41.2343 112.4 41.3844C112.48 41.4645 112.55 41.6147 112.55 41.7648C112.55 41.9149 112.63 42.0649 112.63 42.215V42.4452H112.48C112.4 42.4452 112.33 42.4451 112.25 42.365H111.65C111.35 42.365 111.12 42.3651 110.82 42.4452C110.59 42.5252 110.37 42.5953 110.14 42.7454C109.91 42.8955 109.84 43.0455 109.69 43.1956C109.61 43.4258 109.54 43.6458 109.54 43.876C109.54 44.1762 109.62 44.4063 109.69 44.6265C109.77 44.8566 109.92 45.0069 110.07 45.0769C110.22 45.227 110.45 45.3069 110.67 45.3769C110.89 45.447 111.12 45.4571 111.42 45.4571H112.02C112.25 45.4571 112.4 45.457 112.55 45.3769C112.7 45.3769 112.85 45.297 113 45.297C113.15 45.297 113.23 45.2169 113.3 45.2169V42.1349C113.3 41.8347 113.3 41.6046 113.22 41.3844C113.45 41.1543 113.37 40.9343 113.22 40.7842ZM112.77 44.6064C112.69 44.6064 112.54 44.6866 112.39 44.6866H111.86C111.48 44.6866 111.26 44.6066 111.03 44.5366C110.8 44.3865 110.73 44.1561 110.73 43.856C110.73 43.7059 110.81 43.5559 110.88 43.4758C110.96 43.3958 111.03 43.3258 111.18 43.2457C111.33 43.1657 111.41 43.1655 111.56 43.0955H112.54C112.69 43.0955 112.77 43.1756 112.84 43.1756V44.6064H112.76H112.77Z" fill="#2D2D2B"/>
<path d="M117.42 44.5366C117.27 44.6166 117.04 44.6165 116.82 44.6165C116.67 44.6165 116.52 44.6166 116.44 44.5366C116.29 44.5366 116.21 44.4566 116.14 44.3065C116.06 44.2264 115.99 44.0762 115.99 43.9261C115.99 43.776 115.91 43.546 115.91 43.3259V41.0745H117.79V40.324H115.91V38.8231L115.01 38.9731V43.3259C115.01 43.6261 115.01 43.9261 115.09 44.1562C115.17 44.3864 115.24 44.6066 115.39 44.7567C115.54 44.9068 115.69 45.0568 115.92 45.1368C116.15 45.2169 116.45 45.2871 116.75 45.2871C117.05 45.2871 117.28 45.287 117.5 45.2069C117.72 45.1269 117.88 45.0569 117.95 45.0569L117.8 44.3065C117.72 44.4566 117.57 44.4565 117.42 44.5366Z" fill="#2D2D2B"/>
<path d="M120.72 40.2538C120.42 40.2538 120.19 40.3338 119.89 40.4038C119.59 40.4839 119.36 40.704 119.14 40.8541C118.91 41.0842 118.76 41.3044 118.61 41.6847C118.46 41.9849 118.38 42.3652 118.38 42.8155C118.38 43.1957 118.46 43.4957 118.53 43.866C118.61 44.1662 118.76 44.4664 118.98 44.6966C119.21 44.9267 119.43 45.0768 119.73 45.2269C120.03 45.377 120.41 45.4571 120.86 45.4571C121.24 45.4571 121.54 45.457 121.76 45.3769C122.06 45.2969 122.21 45.2269 122.29 45.2269L122.14 44.4765C122.06 44.5565 121.84 44.5564 121.69 44.6265C121.46 44.7065 121.24 44.7066 120.94 44.7066C120.41 44.7066 119.96 44.5566 119.74 44.3265C119.51 44.0263 119.36 43.6459 119.29 43.1956H122.67V42.8954C122.67 42.0649 122.52 41.3946 122.14 41.0143C121.84 40.484 121.39 40.2639 120.71 40.2639L120.72 40.2538ZM119.45 42.355C119.45 42.2049 119.53 42.055 119.6 41.8249C119.68 41.6748 119.75 41.5245 119.83 41.3744C119.91 41.2243 120.06 41.1445 120.21 41.0744C120.36 41.0044 120.51 40.9242 120.74 40.9242C121.12 40.9242 121.34 41.0744 121.57 41.3046C121.8 41.5347 121.87 41.9049 121.87 42.2851H119.47V42.365L119.45 42.355Z" fill="#2D2D2B"/>
<path d="M126.65 40.4038C126.57 40.4038 126.5 40.404 126.42 40.324C126.34 40.324 126.19 40.3239 126.12 40.2438H125.89C125.51 40.2438 125.14 40.2439 124.84 40.324C124.54 40.404 124.24 40.474 124.09 40.5541V45.2069H124.99V41.0744C125.07 41.0744 125.14 41.0744 125.29 40.9943C125.44 40.9943 125.59 40.9142 125.74 40.9142C125.97 40.9142 126.19 40.9143 126.34 40.9943C126.49 40.9943 126.64 41.0744 126.72 41.0744L126.87 40.324C126.77 40.3773 126.693 40.4038 126.64 40.4038H126.65Z" fill="#2D2D2B"/>
<path d="M80.7299 38.3826C80.4299 38.3826 80.1299 38.6127 80.1299 38.9827C80.1299 39.2827 80.3599 39.5828 80.7299 39.5828C81.0299 39.5828 81.3298 39.3527 81.3298 38.9827C81.3298 38.6027 81.0299 38.3826 80.7299 38.3826Z" fill="#2D2D2B"/>
<path d="M73.9799 38.3826C73.6799 38.3826 73.3799 38.6127 73.3799 38.9827C73.3799 39.2827 73.6099 39.5828 73.9799 39.5828C74.2799 39.5828 74.5798 39.3527 74.5798 38.9827C74.5798 38.6027 74.2799 38.3826 73.9799 38.3826Z" fill="#2D2D2B"/>
<path d="M17.1002 40.4039H16.2002V45.2871H17.1002V40.4039Z" fill="#2D2D2B"/>
<path d="M16.6508 38.3826C16.3508 38.3826 16.0508 38.6127 16.0508 38.9827C16.0508 39.2827 16.2808 39.5828 16.6508 39.5828C16.9508 39.5828 17.2507 39.3527 17.2507 38.9827C17.2507 38.6127 16.9508 38.3826 16.6508 38.3826Z" fill="#2D2D2B"/>
<path d="M9.37073 40.4039H8.4707V45.2871H9.37073V40.4039Z" fill="#2D2D2B"/>
<path d="M8.92041 38.3826C8.62041 38.3826 8.32031 38.6127 8.32031 38.9827C8.32031 39.2827 8.55041 39.5828 8.92041 39.5828C9.22041 39.5828 9.52039 39.3527 9.52039 38.9827C9.44039 38.6027 9.22041 38.3826 8.92041 38.3826Z" fill="#2D2D2B"/>
<path d="M3.59021 6.77293C3.21021 6.85298 2.99019 7.00303 2.69019 7.22317C2.46019 7.45331 2.24021 7.67353 2.09021 8.05376C1.94021 8.35395 1.86023 8.73407 1.86023 9.18435V10.3851H0.280273V11.5858H5.46021V10.3851H2.98022V9.18435C2.98022 8.65402 3.1303 8.28374 3.4303 8.13365C3.7303 7.9035 4.11025 7.83341 4.63025 7.83341H5.53027V6.70282H4.63025C4.25025 6.62277 3.8802 6.62285 3.5802 6.78295L3.59021 6.77293Z" fill="#2D2D2B"/>
<path d="M26.6304 9.3243C26.6304 9.62449 26.5504 9.92467 26.4004 10.0748C26.2504 10.2249 26.0203 10.375 25.7203 10.375H24.9703C24.6703 10.375 24.4404 10.2949 24.2904 10.0748C24.1404 9.84462 24.0604 9.62465 24.0604 9.24442V8.11358C24.0604 7.73334 23.9803 7.28311 23.8303 6.91288C23.6803 6.53264 23.4503 6.16243 23.2303 5.93228C22.9303 5.63209 22.6303 5.40202 22.3303 5.25193C21.9503 5.10183 21.5803 5.0218 21.2003 5.0218C20.8203 5.0218 20.3703 5.10183 20.0703 5.25193C19.6903 5.40202 19.3904 5.63209 19.1704 5.93228C18.8704 6.23247 18.7203 6.53264 18.5703 6.91288C18.4203 7.29312 18.3403 7.6633 18.3403 8.11358V9.24442C18.3403 9.5446 18.2604 9.84462 18.1104 10.0748C17.9604 10.3049 17.7304 10.375 17.4304 10.375H9.18042C8.88042 10.375 8.73037 10.295 8.50037 10.1449C8.35037 9.99479 8.27039 9.76471 8.27039 9.46452V0.909119H7.07031V9.39441C7.07031 9.77465 7.15034 10.075 7.22034 10.2951C7.30034 10.5253 7.45034 10.7453 7.60034 10.9755C7.75034 11.1256 7.9804 11.2756 8.2804 11.4257C8.5104 11.5058 8.88042 11.5757 9.18042 11.5757H17.2804C17.6604 11.5757 17.9604 11.4959 18.2604 11.2757C18.5604 11.1256 18.7104 10.8253 18.8604 10.375C19.0904 10.8253 19.3904 11.1255 19.7604 11.3556C20.1304 11.5857 20.5904 11.736 21.0404 11.736C21.4904 11.736 21.9404 11.5857 22.3904 11.3556C22.8404 11.1255 23.1404 10.7552 23.3704 10.375H23.4503C23.6003 10.7552 23.7504 11.0556 24.0504 11.2757C24.2804 11.4258 24.6504 11.5757 25.0304 11.5757H25.7804C26.4604 11.5757 26.9804 11.3457 27.2804 10.9755C27.6604 10.5252 27.8104 9.99472 27.8104 9.3243V0.919135H26.6104V9.3243H26.6304ZM22.8804 8.72407C22.8804 8.95421 22.8003 9.17428 22.7303 9.40443C22.6603 9.63457 22.5003 9.85481 22.3503 10.0049C22.2003 10.155 21.9703 10.305 21.8203 10.385C21.5903 10.4651 21.3704 10.5353 21.1404 10.5353C20.9104 10.5353 20.6903 10.4551 20.4603 10.385C20.2303 10.315 20.0804 10.155 19.9304 10.0049C19.7804 9.85481 19.6304 9.62457 19.5504 9.40443C19.4704 9.18429 19.4004 8.95421 19.4004 8.72407V8.1236C19.4004 7.82341 19.4804 7.59326 19.5504 7.37313C19.6204 7.15299 19.7804 6.92299 19.9304 6.7729C20.0804 6.6228 20.3103 6.47258 20.4603 6.39253C20.6903 6.31248 20.9104 6.24254 21.1404 6.24254C21.3704 6.24254 21.5903 6.32249 21.8203 6.39253C22.0503 6.46258 22.2003 6.6228 22.3503 6.7729C22.5003 6.92299 22.6503 7.15299 22.7303 7.37313C22.8103 7.59326 22.8804 7.82341 22.8804 8.1236V8.72407Z" fill="#2D2D2B"/>
<path d="M30.6805 0.909119H29.4805V11.5659H30.6805V0.909119Z" fill="#2D2D2B"/>
<path d="M37.2803 5.94234C36.9803 5.64215 36.6803 5.41208 36.3003 5.26198C35.9203 5.11189 35.5502 5.03186 35.1002 5.03186C34.7202 5.03186 34.2702 5.11189 33.9702 5.26198C33.5902 5.41208 33.2902 5.64215 33.0702 5.94234C32.7702 6.24253 32.6202 6.5427 32.4702 6.92294C32.3202 7.30317 32.2402 7.67336 32.2402 8.12364V8.72411C32.2402 9.1744 32.3202 9.55452 32.4702 9.8547C32.6202 10.2349 32.8502 10.5353 33.0702 10.7554C33.3002 10.9856 33.6702 11.2055 33.9702 11.3556C34.3502 11.5057 34.7202 11.5858 35.1002 11.5858H36.8302V12.0362C36.8302 12.4165 36.7502 12.7165 36.6002 13.0867C36.4502 13.3869 36.2202 13.6872 35.8502 13.9173C35.5502 14.1475 35.1702 14.3677 34.7202 14.5178C34.2702 14.6679 33.8203 14.7479 33.2903 14.7479V15.7986C33.9703 15.7986 34.6403 15.7185 35.1703 15.4984C35.7703 15.2682 36.2203 15.048 36.6703 14.6678C37.1203 14.2875 37.4203 13.8372 37.6503 13.3869C37.8803 12.8566 38.0303 12.3364 38.0303 11.736V8.13366C38.0303 7.75342 37.9503 7.30318 37.8003 6.93295C37.8003 6.55271 37.5703 6.25255 37.2703 5.95236L37.2803 5.94234ZM36.9103 10.2952H35.1803C34.9503 10.2952 34.7302 10.215 34.5002 10.1449C34.2702 10.0649 34.1202 9.9149 33.9702 9.7648C33.8202 9.61471 33.6702 9.46459 33.5902 9.23444C33.5102 9.0043 33.4402 8.78423 33.4402 8.55409V7.95361C33.4402 7.65342 33.5202 7.42328 33.5902 7.20314C33.6602 6.983 33.8202 6.75276 33.9702 6.60267C34.1202 6.45257 34.2702 6.3026 34.5002 6.22255C34.7302 6.1425 34.9503 6.07231 35.1803 6.07231C35.4103 6.07231 35.6302 6.1525 35.8602 6.22255C36.0902 6.3026 36.2403 6.45257 36.3903 6.60267C36.5403 6.75276 36.6903 6.983 36.7703 7.20314C36.8503 7.42328 36.9203 7.65342 36.9203 7.95361V10.2851L36.9103 10.2952Z" fill="#2D2D2B"/>
<path d="M45.7603 6.77293C45.3803 6.85298 45.1602 7.00303 44.8602 7.22317C44.6302 7.45331 44.4103 7.67353 44.2603 8.05376C44.1103 8.35395 44.0303 8.73407 44.0303 9.18435V10.3851H42.4502V11.5858H47.6302V10.3851H45.0802V9.18435C45.0802 8.65402 45.2303 8.28374 45.5303 8.13365C45.8303 7.9035 46.2102 7.83341 46.7302 7.83341H47.6302V6.70282H46.7302C46.5002 6.62277 46.1302 6.62285 45.7502 6.78295L45.7603 6.77293Z" fill="#2D2D2B"/>
<path d="M62.1206 10.8954C62.5006 10.4451 62.6506 9.91484 62.6506 9.24442V5.34183H61.5206V9.24442C61.5206 9.54461 61.4406 9.8448 61.2906 9.99489C61.1406 10.145 60.9106 10.2951 60.6106 10.2951H51.4606C51.1606 10.2951 51.0106 10.2151 50.7806 10.065C50.6306 9.91491 50.5507 9.68459 50.5507 9.3844V0.899109H49.3506V9.3844C49.3506 9.76464 49.4306 10.065 49.5006 10.2851C49.5806 10.5153 49.7306 10.7353 49.8806 10.9655C50.0306 11.1156 50.2607 11.2656 50.5607 11.4157C50.7907 11.4958 51.4606 11.5659 51.4606 11.5659H60.6106C61.2906 11.5659 61.7406 11.3356 62.1106 10.8853L62.1206 10.8954Z" fill="#2D2D2B"/>
<path d="M94.5303 9.32429C94.5303 9.62447 94.4503 9.92466 94.3003 10.0748C94.1503 10.2249 93.9202 10.375 93.6202 10.375H90.9203V10.2951C91.0703 10.145 91.2203 9.91484 91.3003 9.76475C91.3803 9.5346 91.4502 9.31437 91.4502 9.16427C91.4502 8.63394 91.3703 8.18381 91.1503 7.81358C90.9203 7.36329 90.6202 6.98293 90.3202 6.68274C89.9402 6.3025 89.5702 6.00233 89.1202 5.70215C88.6702 5.40196 88.2203 5.17181 87.7703 4.95168L91.2202 1.1192V1.03931H89.8702L85.9702 5.32178V5.55215C86.5002 5.70224 87.0202 5.93224 87.4702 6.15238C88.0002 6.38252 88.4502 6.68279 88.8202 6.98298C89.2002 7.28316 89.5703 7.66345 89.8003 8.03368C90.0303 8.40392 90.1803 8.7841 90.1803 9.23439C90.1803 9.38448 90.1003 9.53453 90.0303 9.68462C89.9503 9.83471 89.8003 9.98493 89.6503 10.065C89.5003 10.145 89.2702 10.2951 88.9702 10.2951C88.6702 10.3752 88.3702 10.375 88.0702 10.375H82.2903V8.12358C82.2903 7.59325 82.2102 7.07299 81.9902 6.69276C81.8402 6.24247 81.5402 5.86229 81.2402 5.49205C80.9402 5.12182 80.5602 4.8916 80.1102 4.66146C79.6602 4.43131 79.2103 4.36122 78.6803 4.36122H73.5802V5.49205H75.0103V5.57194C74.7803 5.65199 74.5603 5.72226 74.4103 5.80231C74.2603 5.9524 74.0302 6.0324 73.9602 6.25254C73.8102 6.40263 73.7303 6.63263 73.6603 6.85277C73.5803 7.08291 73.5103 7.30315 73.5103 7.45324C73.5103 7.90352 73.5903 8.28364 73.8103 8.58383C74.0403 8.88402 74.2603 9.18429 74.5603 9.41443C74.8603 9.64458 75.2403 9.86481 75.5403 10.0149C75.9203 10.165 76.2202 10.315 76.5902 10.4651V10.5453C76.4402 10.4652 76.2903 10.4651 76.0603 10.4651H66.6803C66.4503 10.4651 66.2302 10.385 66.0802 10.1649C65.9302 10.0148 65.8502 9.71462 65.8502 9.41443V7.53337H64.6503V11.9661C64.6503 12.3463 64.5703 12.7166 64.4203 13.0168C64.2703 13.317 64.1202 13.6171 63.8202 13.9172C63.5902 14.1474 63.2202 14.3676 62.8402 14.5177C62.4602 14.6678 62.0102 14.7478 61.4902 14.7478V15.7986C62.1702 15.7986 62.7703 15.7185 63.2903 15.5684C63.8103 15.4183 64.2703 15.1181 64.6403 14.818C65.0103 14.5178 65.2402 14.0673 65.4702 13.617C65.7002 13.1667 65.7703 12.6366 65.7703 12.0362V11.5857C65.7703 11.4356 65.7702 11.2856 65.6902 11.1355H65.7703C65.8503 11.3656 66.0003 11.4356 66.1503 11.5857C66.3003 11.6658 66.4503 11.736 66.6803 11.736H77.2603C77.5603 11.736 77.7902 11.7359 77.9402 11.6558C78.0902 11.5758 78.1702 11.5057 78.3202 11.3556C78.9202 11.5057 79.5202 11.736 80.1202 11.8061C80.8002 11.9562 81.4002 12.0362 82.0702 12.0362L82.2202 11.8859V11.736H93.5503C94.2303 11.736 94.7503 11.5057 95.0503 11.1355C95.4303 10.6852 95.5802 10.155 95.5802 9.48454V0.929138H94.5303V9.3343V9.32429ZM77.7302 9.84463C77.4302 9.76458 77.1302 9.6146 76.7502 9.46451C76.3702 9.31442 76.0703 9.16429 75.7703 8.93415C75.4703 8.78406 75.2403 8.55398 75.0203 8.25379C74.8003 7.9536 74.7202 7.65344 74.7202 7.2732C74.7202 7.1231 74.7203 6.89293 74.8003 6.74284C74.8803 6.59274 74.9502 6.4427 75.1002 6.2926C75.2502 6.14251 75.4003 6.06241 75.5503 5.99237C75.7003 5.91232 75.9302 5.84213 76.0802 5.84213C76.3102 5.84213 76.5303 5.92232 76.7603 5.99237C76.9903 6.07242 77.1403 6.22239 77.2903 6.37249C77.4403 6.52258 77.5202 6.75282 77.5902 6.97296C77.6702 7.2031 77.6703 7.42317 77.6703 7.65332V9.83462H77.7502L77.7302 9.84463ZM81.1803 10.5951C80.8003 10.5951 80.4302 10.5151 79.9802 10.365C79.5302 10.2849 79.1502 10.135 78.8502 10.065V7.73345C78.8502 7.43326 78.7702 7.13299 78.7002 6.90285C78.6202 6.6727 78.4702 6.45264 78.3202 6.22249C78.1702 5.99235 78.0203 5.84222 77.7903 5.69213C77.5603 5.54204 77.3402 5.46201 77.1102 5.46201V5.38188H78.7603C79.0603 5.38188 79.3603 5.46191 79.6603 5.612C79.9603 5.7621 80.1903 5.91222 80.4103 6.14236C80.6403 6.37251 80.7902 6.67277 80.9402 6.97296C81.0902 7.27315 81.0902 7.65337 81.0902 7.95356V10.5851H81.1703L81.1803 10.5951Z" fill="#2D2D2B"/>
<path d="M98.5906 0.909119H97.3906V11.5659H98.5906V0.909119Z" fill="#2D2D2B"/>
<path d="M109.541 9.92482C109.691 9.54458 109.771 9.1744 109.771 8.72411V8.12364C109.771 7.67336 109.691 7.29317 109.541 6.92294C109.391 6.55271 109.161 6.24253 108.941 5.94234C108.641 5.64215 108.341 5.41208 108.041 5.26198C107.661 5.11189 107.291 5.03186 106.911 5.03186C106.531 5.03186 106.081 5.11189 105.781 5.26198C105.401 5.41208 105.101 5.64215 104.881 5.94234C104.581 6.24253 104.431 6.5427 104.281 6.92294C104.131 7.30317 104.051 7.67336 104.051 8.12364V8.72411C104.051 9.1744 104.131 9.55458 104.281 9.92482C104.431 10.295 104.661 10.6052 104.881 10.9054C105.181 11.2056 105.481 11.4357 105.781 11.5858C106.161 11.7359 106.531 11.8161 106.911 11.8161C107.291 11.8161 107.741 11.7359 108.041 11.5858C108.421 11.4357 108.721 11.2056 108.941 10.9054C109.171 10.6052 109.391 10.3051 109.541 9.92482ZM108.571 8.64399C108.571 8.87413 108.491 9.17432 108.421 9.39445C108.341 9.6246 108.191 9.84483 108.041 9.99493C107.891 10.145 107.661 10.295 107.511 10.375C107.281 10.4551 107.061 10.5253 106.831 10.5253C106.601 10.5253 106.381 10.4451 106.151 10.375C105.921 10.295 105.771 10.145 105.621 9.99493C105.471 9.84483 105.321 9.61459 105.241 9.39445C105.161 9.17432 105.091 8.94417 105.091 8.64399V8.04376C105.091 7.74357 105.171 7.51342 105.241 7.29329C105.321 7.06314 105.471 6.84291 105.621 6.69281C105.771 6.54272 105.921 6.39274 106.151 6.31269C106.381 6.23264 106.601 6.16245 106.831 6.16245C107.061 6.16245 107.281 6.24265 107.511 6.31269C107.741 6.39274 107.891 6.54272 108.041 6.69281C108.191 6.84291 108.341 7.07315 108.421 7.29329C108.501 7.51342 108.571 7.74357 108.571 8.04376V8.64399Z" fill="#2D2D2B"/>
<path d="M111.79 11.9461C111.79 12.3263 111.71 12.6966 111.56 12.9968C111.41 13.297 111.26 13.5971 110.96 13.8973C110.73 14.1274 110.36 14.3477 109.98 14.4978C109.6 14.6478 109.15 14.7279 108.63 14.7279V15.7786C109.31 15.7786 109.91 15.6985 110.43 15.4783C110.96 15.3283 111.41 15.0281 111.78 14.7279C112.15 14.4277 112.38 13.9775 112.61 13.5272C112.76 13.0769 112.91 12.5465 112.91 11.9461V7.36316H111.78V11.9461H111.79Z" fill="#2D2D2B"/>
<path d="M115.921 0.909119H114.721V11.5659H115.921V0.909119Z" fill="#2D2D2B"/>
<path d="M117.95 11.9461C117.95 12.3263 117.87 12.6966 117.72 12.9968C117.57 13.297 117.42 13.5971 117.12 13.8973C116.89 14.1274 116.52 14.3477 116.14 14.4978C115.76 14.6478 115.31 14.7279 114.79 14.7279V15.7786C115.47 15.7786 116.07 15.6985 116.59 15.4783C117.12 15.3283 117.57 15.0281 117.94 14.7279C118.31 14.4277 118.54 13.9775 118.77 13.5272C118.92 13.0769 119.07 12.5465 119.07 11.9461V7.36316H117.87V11.9461H117.95Z" fill="#2D2D2B"/>
<path d="M126.42 6.92294C126.27 6.5427 126.04 6.24253 125.82 5.94234C125.52 5.64215 125.22 5.41208 124.84 5.26198C124.46 5.11189 124.09 5.03186 123.64 5.03186C123.26 5.03186 122.81 5.11189 122.51 5.26198C122.13 5.41208 121.83 5.64215 121.61 5.94234C121.31 6.24253 121.16 6.5427 121.01 6.92294C120.86 7.30317 120.78 7.67336 120.78 8.12364V8.72411C120.78 9.1744 120.86 9.55452 121.01 9.8547C121.16 10.2349 121.39 10.5353 121.61 10.7554C121.84 10.9856 122.21 11.2055 122.51 11.3556C122.89 11.5057 123.26 11.5858 123.64 11.5858H125.37V12.0362C125.37 12.4165 125.29 12.7165 125.14 13.0867C124.99 13.3869 124.76 13.6872 124.39 13.9173C124.09 14.1475 123.71 14.3677 123.26 14.5178C122.81 14.6679 122.36 14.7479 121.83 14.7479V15.7986C122.51 15.7986 123.18 15.7185 123.71 15.4984C124.31 15.2682 124.76 15.048 125.21 14.6678C125.66 14.2875 125.96 13.8372 126.19 13.3869C126.42 12.8566 126.57 12.3364 126.57 11.736V8.13366C126.65 7.68337 126.57 7.30318 126.42 6.93295V6.92294ZM125.45 10.2952H123.72C123.49 10.2952 123.27 10.215 123.04 10.1449C122.81 10.0649 122.66 9.9149 122.51 9.7648C122.36 9.61471 122.21 9.46459 122.13 9.23444C122.05 9.0043 121.98 8.78423 121.98 8.55409V7.95361C121.98 7.65342 122.06 7.42328 122.13 7.20314C122.21 6.973 122.36 6.75276 122.51 6.60267C122.66 6.45257 122.81 6.3026 123.04 6.22255C123.27 6.1425 123.49 6.07231 123.72 6.07231C123.95 6.07231 124.17 6.1525 124.4 6.22255C124.63 6.3026 124.78 6.45257 124.93 6.60267C125.08 6.75276 125.23 6.983 125.31 7.20314C125.39 7.42328 125.46 7.65342 125.46 7.95361V10.2851L125.45 10.2952Z" fill="#2D2D2B"/>
<path d="M118.55 3.01056C118.17 3.01056 117.87 3.31049 117.87 3.69049C117.87 4.07049 118.17 4.37042 118.55 4.37042C118.93 4.37042 119.23 4.07049 119.23 3.69049C119.31 3.31049 118.93 3.01056 118.55 3.01056Z" fill="#2D2D2B"/>
<path d="M107.59 3.61993C107.97 3.61993 108.27 3.32 108.27 2.94C108.27 2.56 107.97 2.26007 107.59 2.26007C107.21 2.26007 106.91 2.56 106.91 2.94C106.91 3.32 107.21 3.61993 107.59 3.61993Z" fill="#2D2D2B"/>
<path d="M60.1703 12.8466C59.7903 12.8466 59.4902 13.1467 59.4902 13.5267C59.4902 13.9067 59.7903 14.2067 60.1703 14.2067C60.5503 14.2067 60.8502 13.9067 60.8502 13.5267C60.8502 13.1467 60.5503 12.8466 60.1703 12.8466Z" fill="#2D2D2B"/>
<path d="M106.02 3.61993C106.395 3.61993 106.7 3.31556 106.7 2.94C106.7 2.56445 106.395 2.26007 106.02 2.26007C105.644 2.26007 105.34 2.56445 105.34 2.94C105.34 3.31556 105.644 3.61993 106.02 3.61993Z" fill="#2D2D2B"/>
<path d="M5.32056 24.7841C5.02056 24.484 4.72065 24.2536 4.42065 24.1035C4.04065 23.9534 3.67065 23.8734 3.29065 23.8734C2.91065 23.8734 2.46064 23.9534 2.16064 24.1035C1.78064 24.2536 1.48062 24.484 1.26062 24.7841C0.96062 25.0843 0.810645 25.3845 0.660645 25.7647C0.510645 26.145 0.430664 26.5152 0.430664 26.9654V27.5659C0.430664 28.0162 0.510645 28.3964 0.660645 28.7666C0.810645 29.1469 1.04062 29.447 1.26062 29.7472C1.56062 30.0474 1.86064 30.2775 2.16064 30.4276C2.54064 30.5777 2.91065 30.6577 3.29065 30.6577C3.67065 30.6577 4.12065 30.5777 4.42065 30.4276C4.80065 30.2775 5.10056 30.0474 5.32056 29.7472C5.62056 29.447 5.77065 29.1469 5.92065 28.7666C6.07065 28.3864 6.15063 28.0162 6.15063 27.5659V26.9654C6.15063 26.5152 6.07065 26.135 5.92065 25.7647C5.77065 25.3945 5.54056 25.0843 5.32056 24.7841ZM4.94055 27.5659C4.94055 27.7961 4.86065 28.0962 4.79065 28.3164C4.72065 28.5365 4.56064 28.7665 4.41064 28.9166C4.26064 29.0667 4.03062 29.2169 3.88062 29.297C3.65062 29.377 3.43056 29.447 3.20056 29.447C2.97056 29.447 2.75063 29.367 2.52063 29.297C2.29063 29.2169 2.1406 29.0667 1.9906 28.9166C1.8406 28.7665 1.6906 28.5365 1.6106 28.3164C1.5306 28.0962 1.46057 27.8661 1.46057 27.5659V26.9654C1.46057 26.6652 1.5406 26.4351 1.6106 26.215C1.6806 25.9948 1.8406 25.7646 1.9906 25.6145C2.1406 25.4644 2.29063 25.3144 2.52063 25.2344C2.75063 25.1543 2.97056 25.0841 3.20056 25.0841C3.43056 25.0841 3.65062 25.1643 3.88062 25.2344C4.11062 25.3144 4.26064 25.4644 4.41064 25.6145C4.56064 25.7646 4.71065 25.9948 4.79065 26.215C4.87065 26.4351 4.94055 26.6652 4.94055 26.9654V27.5659Z" fill="#2D2D2B"/>
<path d="M12.4504 25.1643C12.1504 24.8641 11.8505 24.634 11.5505 24.4839C11.1705 24.3338 10.8005 24.2538 10.3505 24.2538H8.17053V25.4545H10.3505C10.5805 25.4545 10.8005 25.5344 11.0305 25.6045C11.2605 25.6845 11.4105 25.8348 11.5605 25.9848C11.7105 26.1349 11.8604 26.3649 11.9404 26.5851C12.0204 26.8052 12.0905 27.0354 12.0905 27.3355V29.2169H7.81055V30.4176H13.2905V27.3355C13.2905 26.8853 13.2105 26.5051 13.0605 26.1348C12.9105 25.7646 12.6804 25.4544 12.4604 25.1543L12.4504 25.1643Z" fill="#2D2D2B"/>
<path d="M57.3204 28.1662C57.3204 28.4663 57.2405 28.7665 57.0905 28.9166C56.9405 29.0667 56.7105 29.2169 56.4105 29.2169C56.1105 29.2169 55.8805 29.1368 55.7305 28.9166C55.5805 28.6865 55.5005 28.4663 55.5005 28.086V26.9554C55.5005 26.5752 55.4205 26.125 55.2705 25.7547C55.1205 25.3845 54.8905 25.0043 54.6705 24.7741C54.3705 24.4739 54.0705 24.2436 53.7705 24.0935C53.3905 23.9434 53.0205 23.8634 52.6405 23.8634C52.2605 23.8634 51.8105 23.9434 51.5105 24.0935C51.1305 24.2436 50.8305 24.4739 50.6105 24.7741C50.3105 25.0743 50.1605 25.3745 50.0105 25.7547C49.8605 26.135 49.7805 26.5051 49.7805 26.9554V28.086C49.7805 28.3862 49.7005 28.6865 49.5505 28.9166C49.4005 29.1468 49.1705 29.2169 48.8705 29.2169C48.4205 29.2169 44.5205 29.1368 44.3705 28.9867C44.1405 28.8366 44.0704 28.5364 44.0704 28.1561V25.4545H42.7205V28.1561C42.7205 28.5364 42.6405 28.7566 42.4205 28.9867C42.1905 29.1368 41.8905 29.2169 41.5205 29.2169H33.7905C33.6405 29.1368 33.5605 28.9868 33.4905 28.7666C33.4205 28.5465 33.4105 28.3163 33.4105 28.0162V26.8853C33.4105 26.435 33.3305 25.9847 33.2605 25.6045C33.1105 25.2243 32.9605 24.9241 32.7305 24.6239C32.5005 24.3237 32.2005 24.1738 31.9005 24.0237C31.6005 23.8736 31.1505 23.7935 30.7705 23.7935C30.1705 23.7935 29.6405 23.9435 29.2705 24.1737C28.8205 24.4738 28.2905 25.0041 27.9205 25.3744L28.6705 26.1248C28.9005 25.8246 29.4205 25.3745 29.7205 25.2244C30.0205 25.0743 30.3204 24.9942 30.7004 24.9942C30.9304 24.9942 31.1505 25.0742 31.3805 25.1442C31.6105 25.2243 31.7604 25.3745 31.8304 25.5246C31.9804 25.6747 32.0605 25.9047 32.1305 26.1248C32.2005 26.345 32.2104 26.5751 32.2104 26.8753V28.4564C32.2104 28.6065 32.2905 28.6864 32.2905 28.8365C32.2905 28.9165 32.3705 28.9868 32.3705 29.0669C32.4505 29.1469 32.4505 29.2169 32.5205 29.297L32.4404 29.3769C32.2904 29.2968 32.1405 29.297 31.9905 29.297H20.2805V27.4958C20.2805 27.0455 20.2005 26.6653 20.0505 26.2951C19.9005 25.9149 19.6704 25.6147 19.4504 25.3145C19.1504 25.0143 18.8505 24.784 18.5505 24.6339C18.1705 24.4838 17.8005 24.4038 17.3505 24.4038H15.1705V25.4545H17.3505C17.5805 25.4545 17.8005 25.5344 18.0305 25.6045C18.2605 25.6845 18.4105 25.8348 18.5605 25.9849C18.7105 26.1349 18.8604 26.3649 18.9404 26.5851C19.0204 26.8052 19.0905 27.0354 19.0905 27.3356V29.2169H14.8105V30.4176H42.0505C42.2005 30.4176 42.4304 30.3376 42.5804 30.2676C42.7304 30.1875 42.8805 30.1174 43.0305 29.9673C43.1805 29.8172 43.2605 29.6672 43.4105 29.5171C43.5605 29.8973 43.7905 30.1175 44.0905 30.2676C44.3905 30.4177 48.2904 30.4977 48.8204 30.4977C49.2004 30.4977 49.5005 30.4176 49.8005 30.1975C50.1005 30.0474 50.2505 29.7473 50.4005 29.297C50.6305 29.7473 50.9305 30.0474 51.3005 30.2776C51.6705 30.5077 52.1304 30.6577 52.5804 30.6577C53.0304 30.6577 53.4805 30.5077 53.9305 30.2776C54.3805 30.0474 54.6805 29.6772 54.9105 29.297H54.9905C55.1405 29.6772 55.2905 29.9773 55.5905 30.1975C55.8205 30.3475 56.1904 30.4977 56.5704 30.4977C57.2504 30.4977 57.7704 30.2674 58.0704 29.8972C58.4504 29.4469 58.6005 28.9167 58.6005 28.2463V19.761H57.4005V28.1662H57.3204ZM54.3204 27.5659C54.3204 27.7961 54.2405 28.0161 54.1705 28.2463C54.0905 28.4764 53.9405 28.6964 53.7905 28.8465C53.6405 28.9966 53.4105 29.1468 53.2605 29.2269C53.0305 29.3069 52.8104 29.3769 52.5804 29.3769C52.3504 29.3769 52.1305 29.2969 51.9005 29.2269C51.6705 29.1468 51.5205 28.9966 51.3705 28.8465C51.2205 28.6964 51.0705 28.4664 50.9905 28.2463C50.9105 28.0261 50.8405 27.7961 50.8405 27.5659V26.9654C50.8405 26.6653 50.9205 26.4351 50.9905 26.215C51.0705 25.9848 51.2205 25.7646 51.3705 25.6145C51.5205 25.4644 51.7505 25.3144 51.9005 25.2344C52.1305 25.1543 52.3504 25.0841 52.5804 25.0841C52.8104 25.0841 53.0305 25.1643 53.2605 25.2344C53.4905 25.3144 53.6405 25.4644 53.7905 25.6145C53.9405 25.7646 54.0905 25.9948 54.1705 26.215C54.2505 26.4351 54.3204 26.6653 54.3204 26.9654V27.5659Z" fill="#2D2D2B"/>
<path d="M61.3708 19.761H60.1709V30.4176H61.3708V19.761Z" fill="#2D2D2B"/>
<path d="M87.7805 23.8835C87.4805 23.5833 87.1805 23.4333 86.8805 23.2832C86.5005 23.1331 86.1305 23.0531 85.7505 23.0531C85.3705 23.0531 84.9205 23.1331 84.6205 23.2832C84.2405 23.4333 83.9405 23.6633 83.7205 23.8835C83.5005 24.1036 83.2705 24.4139 83.1205 24.7141C82.9705 25.0142 82.8905 25.3945 82.8905 25.7648C82.8905 26.2951 83.0405 26.7452 83.2705 27.1155C83.5005 27.4857 83.8005 27.7959 84.1705 28.0961C84.5505 28.3962 84.9205 28.6264 85.3705 28.8465C85.8205 29.0667 86.2004 29.2268 86.5704 29.3769C86.4204 29.2968 86.1905 29.297 85.9705 29.297H73.5105C73.2105 29.297 72.9804 29.2169 72.8304 28.9968C72.6804 28.7666 72.6005 28.5464 72.6005 28.1662V24.1837H69.6705C69.2905 24.1837 68.9205 24.2637 68.5405 24.4138C68.1605 24.5639 67.8605 24.794 67.6405 25.0942C67.3405 25.3944 67.1905 25.6948 67.0405 26.075C66.8905 26.4553 66.8105 26.8254 66.8105 27.2757V27.6558C66.8105 28.1061 66.8905 28.4863 67.0405 28.8565C67.1905 29.2268 67.4205 29.5369 67.6405 29.8371C67.9405 30.1373 68.2405 30.3676 68.5405 30.5177C68.9205 30.6678 69.2905 30.7479 69.6705 30.7479C70.1205 30.7479 70.5705 30.5976 71.0205 30.3675C71.4705 30.1374 71.7705 29.7671 72.0005 29.3869C72.1505 29.7671 72.3005 30.0675 72.6005 30.2876C72.8305 30.4377 73.2004 30.5876 73.5804 30.5876H88.7405V26.0848C88.7405 25.7045 88.6605 25.3344 88.5105 24.9542C88.2105 24.5039 88.0605 24.1236 87.7605 23.9035L87.7805 23.8835ZM71.3505 27.5659C71.3505 27.7961 71.2704 28.0161 71.2004 28.2463C71.1204 28.4764 70.9704 28.6964 70.8204 28.8465C70.6704 28.9966 70.5205 29.1468 70.2905 29.2269C70.0605 29.3069 69.8405 29.3769 69.6105 29.3769C69.3805 29.3769 69.1605 29.2969 68.9305 29.2269C68.7005 29.1468 68.5505 28.9966 68.4005 28.8465C68.2505 28.6964 68.1005 28.4664 68.0205 28.2463C67.9405 28.0262 67.8705 27.7961 67.8705 27.5659V27.1856C67.8705 26.9554 67.9505 26.6552 68.0205 26.4351C68.1005 26.205 68.2505 25.9847 68.4005 25.8346C68.5505 25.6845 68.7005 25.5346 68.9305 25.4545C69.1605 25.3745 69.3805 25.3045 69.6105 25.3045H71.3405V27.5559L71.3505 27.5659ZM87.4105 28.6965C87.1105 28.5464 86.7305 28.3964 86.3605 28.2463C85.9805 28.0962 85.6105 27.866 85.2305 27.6458C84.8505 27.4257 84.5504 27.1157 84.3304 26.8155C84.1004 26.5153 83.9504 26.135 83.9504 25.7648C83.9504 25.5346 84.0305 25.3844 84.1005 25.1643C84.1805 25.0142 84.3305 24.784 84.4805 24.6339C84.6305 24.4838 84.8605 24.4039 85.0105 24.2538C85.2405 24.1738 85.4604 24.1036 85.6904 24.1036C85.9204 24.1036 86.1405 24.1838 86.3705 24.2538C86.6005 24.3339 86.7505 24.4838 86.9005 24.6339C87.0505 24.784 87.2005 25.0142 87.2805 25.1643C87.3605 25.3944 87.4305 25.6145 87.4305 25.8446V28.6965H87.4105Z" fill="#2D2D2B"/>
<path d="M115.091 28.1662C115.091 28.4664 115.011 28.7665 114.861 28.9166C114.711 29.0667 114.481 29.2169 114.181 29.2169H109.901V27.4858C109.901 26.8854 109.821 26.2849 109.671 25.8346C109.521 25.3843 109.291 25.0042 108.991 24.704C108.691 24.4039 108.391 24.1738 108.011 24.0237C107.631 23.8736 107.261 23.7936 106.811 23.7936C106.361 23.7936 105.911 23.8736 105.531 24.0237C105.151 24.1738 104.781 24.4038 104.401 24.6239C104.021 24.8441 103.721 25.1544 103.421 25.5246C103.121 25.9049 102.821 26.275 102.441 26.6552C102.591 26.355 102.671 25.8249 102.671 25.0744V21.2419H101.471V29.1968H92.3209C92.0209 29.1968 91.871 29.1168 91.641 28.9667C91.491 28.8166 91.411 28.5865 91.411 28.2864V19.731H90.2109V28.2162C90.2109 28.5965 90.291 28.8966 90.361 29.1167C90.441 29.3469 90.591 29.5672 90.741 29.7973C90.891 29.9474 91.121 30.0975 91.421 30.2476C91.651 30.3276 92.0209 30.3975 92.3209 30.3975H114.231C114.911 30.3975 115.431 30.1675 115.731 29.7973C116.111 29.347 116.261 28.8166 116.261 28.1461V19.741H115.061V28.1461L115.091 28.1662ZM108.721 29.2169H102.721V28.0162C103.021 27.6359 103.251 27.2657 103.551 26.9655C103.851 26.5852 104.151 26.2851 104.451 25.9849C104.751 25.6847 105.131 25.4546 105.501 25.3045C105.871 25.1544 106.251 25.0744 106.701 25.0744C107.001 25.0744 107.231 25.1543 107.451 25.2244C107.681 25.3044 107.901 25.4545 108.131 25.6746C108.281 25.9048 108.431 26.1249 108.581 26.4251C108.661 26.7253 108.731 27.1056 108.731 27.5559V29.2069L108.721 29.2169Z" fill="#2D2D2B"/>
<path d="M119.15 19.761H117.95V30.4176H119.15V19.761Z" fill="#2D2D2B"/>
<path d="M126.42 25.7647C126.27 25.3845 126.04 25.0843 125.82 24.7841C125.52 24.484 125.22 24.2536 124.84 24.1035C124.46 23.9534 124.09 23.8734 123.64 23.8734C123.26 23.8734 122.81 23.9534 122.51 24.1035C122.13 24.2536 121.83 24.484 121.61 24.7841C121.31 25.0843 121.16 25.3845 121.01 25.7647C120.86 26.145 120.78 26.5152 120.78 26.9654V27.5659C120.78 28.0162 120.86 28.3963 121.01 28.6965C121.16 29.0767 121.39 29.3768 121.61 29.597C121.83 29.8171 122.21 30.0473 122.51 30.1974C122.89 30.3475 123.26 30.4276 123.64 30.4276H125.37V30.8778C125.37 31.258 125.29 31.5583 125.14 31.9285C124.99 32.2287 124.76 32.529 124.39 32.7591C124.09 32.9892 123.71 33.2092 123.26 33.3593C122.81 33.5094 122.36 33.5895 121.83 33.5895V34.6402C122.51 34.6402 123.18 34.5601 123.71 34.3399C124.31 34.1098 124.76 33.8898 125.21 33.5096C125.66 33.1293 125.96 32.679 126.19 32.2287C126.42 31.6984 126.57 31.1782 126.57 30.5778V26.9755C126.65 26.5952 126.57 26.145 126.42 25.7747V25.7647ZM125.45 29.2168H123.72C123.49 29.2168 123.27 29.1369 123.04 29.0669C122.81 28.9868 122.66 28.8366 122.51 28.6865C122.36 28.5364 122.21 28.3863 122.13 28.1561C122.05 27.926 121.98 27.7059 121.98 27.4758V26.9454C121.98 26.6452 122.06 26.4151 122.13 26.1949C122.21 25.9648 122.36 25.7446 122.51 25.5945C122.66 25.4444 122.81 25.2944 123.04 25.2143C123.27 25.1343 123.49 25.0643 123.72 25.0643C123.95 25.0643 124.17 25.1443 124.4 25.2143C124.63 25.2944 124.78 25.4444 124.93 25.5945C125.08 25.7446 125.23 25.9748 125.31 26.1949C125.39 26.4151 125.46 26.6452 125.46 26.9454V29.1968L125.45 29.2168Z" fill="#2D2D2B"/>
<path d="M4.04041 22.4618C4.42041 22.4618 4.72034 22.1619 4.72034 21.7819C4.72034 21.4019 4.42041 21.1017 4.04041 21.1017C3.66041 21.1017 3.36035 21.4019 3.36035 21.7819C3.36035 22.1619 3.66041 22.4618 4.04041 22.4618Z" fill="#2D2D2B"/>
<path d="M2.47095 22.4618C2.85095 22.4618 3.151 22.1619 3.151 21.7819C3.151 21.4019 2.85095 21.1017 2.47095 21.1017C2.09095 21.1017 1.79102 21.4019 1.79102 21.7819C1.79102 22.1619 2.09095 22.4618 2.47095 22.4618Z" fill="#2D2D2B"/>
<path d="M44.1907 23.2823C44.5707 23.2823 44.8707 22.9822 44.8707 22.6022C44.8707 22.2222 44.5707 21.9222 44.1907 21.9222C43.8107 21.9222 43.5107 22.2222 43.5107 22.6022C43.5107 22.9822 43.8107 23.2823 44.1907 23.2823Z" fill="#2D2D2B"/>
<path d="M42.6106 23.2823C42.9906 23.2823 43.2907 22.9822 43.2907 22.6022C43.2907 22.2222 42.9906 21.9222 42.6106 21.9222C42.2306 21.9222 41.9307 22.2222 41.9307 22.6022C41.8507 22.9822 42.2306 23.2823 42.6106 23.2823Z" fill="#2D2D2B"/>
<path d="M70.8206 22.4618C71.2006 22.4618 71.5006 22.1619 71.5006 21.7819C71.5006 21.4019 71.2006 21.1017 70.8206 21.1017C70.4406 21.1017 70.1406 21.4019 70.1406 21.7819C70.1406 22.1619 70.4406 22.4618 70.8206 22.4618Z" fill="#2D2D2B"/>
<path d="M69.2504 22.4618C69.6304 22.4618 69.9304 22.1619 69.9304 21.7819C69.9304 21.4019 69.6304 21.1017 69.2504 21.1017C68.8704 21.1017 68.5703 21.4019 68.5703 21.7819C68.5703 22.1619 68.8704 22.4618 69.2504 22.4618Z" fill="#2D2D2B"/>
<path d="M86.5111 21.4812C86.8911 21.4812 87.1911 21.1813 87.1911 20.8013C87.1911 20.4213 86.8911 20.1211 86.5111 20.1211C86.1311 20.1211 85.8311 20.4213 85.8311 20.8013C85.7511 21.1813 86.1311 21.4812 86.5111 21.4812Z" fill="#2D2D2B"/>
<path d="M84.9309 21.4812C85.3109 21.4812 85.6109 21.1813 85.6109 20.8013C85.6109 20.4213 85.3109 20.1211 84.9309 20.1211C84.5509 20.1211 84.2509 20.4213 84.2509 20.8013C84.1709 21.1813 84.4809 21.4812 84.9309 21.4812Z" fill="#2D2D2B"/>
<path d="M30.6106 31.6984C30.2306 31.6984 29.9307 31.9984 29.9307 32.3784C29.9307 32.7584 30.2306 33.0585 30.6106 33.0585C30.9906 33.0585 31.2906 32.7584 31.2906 32.3784C31.2906 31.9984 30.9906 31.6984 30.6106 31.6984Z" fill="#2D2D2B"/>
</svg>
