<svg width="155" height="153" viewBox="0 0 155 153" fill="none" xmlns="http://www.w3.org/2000/svg">
<path d="M33.2 24.1299C33.2 24.1299 33.2 24.1699 33.2 24.1799C33.21 24.2799 33.22 24.37 33.24 24.47C33.24 24.52 33.2599 24.5601 33.2699 24.6101C33.2899 24.6701 33.2999 24.74 33.3199 24.8C33.3399 24.85 33.35 24.9 33.37 24.95C33.39 25.01 33.4099 25.0601 33.4299 25.1201C33.4499 25.1701 33.47 25.22 33.49 25.27C33.51 25.32 33.5399 25.3799 33.5699 25.4299C33.5899 25.4799 33.6199 25.5201 33.6499 25.5701C33.6799 25.6201 33.71 25.67 33.74 25.73C33.77 25.77 33.8 25.8201 33.83 25.8601C33.86 25.9101 33.8999 25.96 33.9399 26C33.9699 26.04 34.0099 26.0899 34.0399 26.1299C34.0599 26.1499 34.07 26.1699 34.09 26.1899L77.5099 74.6201C77.5099 74.6201 77.5499 74.6599 77.5699 74.6799C77.5999 74.7099 77.6299 74.74 77.6499 74.76C77.7599 74.87 77.87 74.9701 77.99 75.0601C78.01 75.0701 78.0299 75.0901 78.0399 75.1001C78.1799 75.2001 78.32 75.2901 78.47 75.3701C78.5 75.3901 78.5399 75.4099 78.5699 75.4199C78.7099 75.4899 78.85 75.5501 78.99 75.6001C79.01 75.6001 79.0299 75.6201 79.0499 75.6201C79.2099 75.6701 79.3799 75.71 79.5399 75.74C79.5799 75.74 79.6199 75.75 79.6599 75.76C79.8299 75.79 80.0099 75.8 80.1899 75.8C80.3699 75.8 80.54 75.78 80.72 75.76C80.76 75.76 80.8 75.75 80.84 75.74C81.01 75.71 81.17 75.6701 81.33 75.6201C81.35 75.6201 81.3699 75.6001 81.3899 75.6001C81.5299 75.5501 81.6699 75.4899 81.8099 75.4199C81.8499 75.3999 81.8799 75.3801 81.9199 75.3601C82.0699 75.2801 82.21 75.1901 82.34 75.0901C82.36 75.0701 82.3799 75.06 82.3999 75.04C82.5199 74.95 82.63 74.85 82.73 74.75C82.76 74.72 82.7899 74.6899 82.8199 74.6599C82.8399 74.6399 82.86 74.6201 82.88 74.6001L126.3 26.1699C126.3 26.1699 126.33 26.1301 126.35 26.1101C126.39 26.0701 126.42 26.02 126.46 25.98C126.5 25.94 126.53 25.8901 126.56 25.8401C126.59 25.7901 126.62 25.75 126.65 25.7C126.68 25.65 126.71 25.6 126.74 25.55C126.77 25.5 126.79 25.4499 126.82 25.3999C126.85 25.3499 126.87 25.3 126.89 25.24C126.91 25.19 126.94 25.1401 126.96 25.0901C126.98 25.0401 127 24.9799 127.02 24.9299C127.04 24.8799 127.06 24.83 127.07 24.77C127.09 24.71 127.1 24.6501 127.12 24.5901C127.13 24.5401 127.15 24.4899 127.16 24.4399C127.18 24.3499 127.19 24.2599 127.2 24.1799C127.2 24.1499 127.2 24.1201 127.21 24.0901C127.22 23.9801 127.23 23.87 127.23 23.77V23.75C127.23 23.72 127.23 23.6899 127.23 23.6599C127.23 23.5799 127.23 23.5099 127.22 23.4299C127.22 23.3799 127.21 23.33 127.2 23.28C127.2 23.22 127.18 23.1501 127.17 23.0901C127.17 23.0401 127.15 22.9799 127.14 22.9299C127.13 22.8699 127.11 22.82 127.1 22.76C127.08 22.71 127.07 22.6501 127.05 22.6001C127.03 22.5501 127.01 22.4899 126.99 22.4399C126.97 22.3899 126.95 22.33 126.93 22.28C126.91 22.23 126.88 22.1799 126.86 22.1299C126.83 22.0799 126.81 22.03 126.78 21.98C126.75 21.93 126.72 21.8801 126.69 21.8401C126.66 21.7901 126.63 21.74 126.6 21.7C126.57 21.66 126.53 21.6101 126.5 21.5701C126.46 21.5201 126.43 21.4699 126.39 21.4299C126.39 21.4299 126.39 21.4199 126.38 21.4099L109.37 1.37012C108.68 0.560117 107.67 0.0900879 106.61 0.0900879H53.7899C52.7299 0.0900879 51.7099 0.560117 51.0299 1.37012L34.0199 21.4099C34.0199 21.4099 34.01 21.4199 34 21.4299C33.97 21.4699 33.9299 21.5101 33.8999 21.5601C33.8599 21.6101 33.8199 21.66 33.7899 21.71C33.7599 21.75 33.73 21.8001 33.71 21.8401C33.68 21.8901 33.64 21.94 33.61 22C33.58 22.05 33.5599 22.0899 33.5399 22.1399C33.5099 22.1899 33.49 22.25 33.46 22.3C33.44 22.35 33.4199 22.4 33.3999 22.45C33.3799 22.51 33.36 22.5601 33.34 22.6201C33.32 22.6701 33.3099 22.72 33.2899 22.77C33.2699 22.83 33.26 22.89 33.24 22.95C33.23 23 33.22 23.0501 33.21 23.1001C33.2 23.1701 33.1899 23.23 33.1799 23.3C33.1799 23.35 33.1699 23.3899 33.1599 23.4399C33.1599 23.5199 33.1499 23.5999 33.1499 23.6799C33.1499 23.7099 33.1499 23.74 33.1499 23.77C33.1499 23.77 33.1499 23.78 33.1499 23.79C33.1499 23.9 33.1499 24.0199 33.1699 24.1299H33.2ZM44.9299 27.3899H63.38L72.2799 57.8899L44.9299 27.3899ZM80.23 59.25L70.9299 27.3899H89.5199L80.22 59.25H80.23ZM88.1799 57.8899L97.08 27.3899H115.53L88.1799 57.8899ZM104.96 7.3501L115.81 20.1399H96.24L87.22 7.3501H104.96ZM87.37 20.1399H73.09L80.23 10.02L87.37 20.1399ZM55.5 7.3501H73.24L64.22 20.1399H44.6499L55.5 7.3501Z" fill="#EB801B"/>
<path d="M153.61 74.05C151.89 69.89 147.87 67.2 143.36 67.2C141.06 67.2 138.85 67.9 136.97 69.23C136.85 69.32 136.73 69.41 136.61 69.51L112.32 89.9399C110.02 84.8399 104.88 81.27 98.92 81.27H39.27C37.86 81.27 36.51 81.8301 35.51 82.8301L1.56 116.78C-0.52 118.86 -0.52 122.22 1.56 124.3L28.4 151.14C29.44 152.18 30.8 152.7 32.16 152.7C33.52 152.7 34.88 152.18 35.92 151.14L55.95 131.11H109.14C110.67 131.11 112.12 130.45 113.13 129.31L151.33 86.01C154.4 82.83 155.3 78.1601 153.6 74.0601L153.61 74.05ZM143.69 78.6201C143.61 78.7001 143.54 78.7801 143.46 78.8601L106.75 120.47H53.76C52.35 120.47 51.0001 121.03 50.0001 122.03L32.17 139.86L12.84 120.53L41.47 91.8999H98.92C101.16 91.8999 102.98 93.72 102.98 95.96C102.98 96.99 102.6 97.9299 101.96 98.6399L101.03 99.4199C100.41 99.7999 99.69 100.02 98.91 100.02H51.47C48.53 100.02 46.15 102.4 46.15 105.34C46.15 108.28 48.53 110.66 51.47 110.66H98.91C101.92 110.66 104.72 109.75 107.05 108.19C107.17 108.12 107.28 108.04 107.4 107.95C108.03 107.51 108.62 107.01 109.16 106.48L143.17 77.8799C143.22 77.8599 143.28 77.8501 143.34 77.8501C143.48 77.8501 143.64 77.8499 143.76 78.1299C143.88 78.4099 143.76 78.5299 143.66 78.6299L143.69 78.6201Z" fill="#2E3190"/>
</svg>
