<svg width="316" height="177" viewBox="0 0 316 177" fill="none" xmlns="http://www.w3.org/2000/svg">
<path d="M315.02 176.7H0.820312V0.810059H241.46L315.02 176.7Z" fill="url(#paint0_linear_244_4029)"/>
<path d="M111.03 157.62C146.857 157.62 175.9 127.601 175.9 90.57C175.9 53.5393 146.857 23.52 111.03 23.52C75.2034 23.52 46.1602 53.5393 46.1602 90.57C46.1602 127.601 75.2034 157.62 111.03 157.62Z" fill="white"/>
<path d="M81.3904 89.6499H60.6904V92.4799H81.3904V89.6499Z" fill="#231F20"/>
<path d="M166.3 89.6499H145.6V92.4799H166.3V89.6499Z" fill="#231F20"/>
<path d="M90.3503 119.43H80.0703V68.1899H90.3503V119.43ZM82.7103 116.71H87.7203V70.9199H82.7103V116.71Z" fill="#231F20"/>
<path d="M112.37 122.51C112.17 122.51 92.7797 121.61 87.7597 101.11L87.7197 100.78V84.31L87.8297 84.05C88.1897 83.22 96.8297 63.85 114.22 64.66L114.1 67.36C99.4797 66.61 91.3797 82.7 90.3297 84.91V100.61C94.9197 118.95 111.73 119.78 112.45 119.81L112.36 122.51H112.37Z" fill="#231F20"/>
<path d="M112.42 105.35V113.16L110.66 112.61L107.83 113.77L105.72 111.45L102.03 111.59V108.52L98.7304 108.45V105.72L95.7004 103.2L96.5604 100.2L93.7304 97.54L95.1804 94.95L92.9404 91.82L95.1804 89.23L94.1904 86.3L96.6304 84.12L95.5804 81.53L98.9404 80.17L98.6804 77.31L102.31 76.42L102.69 73.76H106.39L108.37 71.72L109.29 72.54C109.29 72.54 111.69 72.06 112.43 72.27V78.68C112.43 78.68 102.83 80.93 103.02 93.19C103.02 93.19 101.99 102.5 112.43 105.34L112.42 105.35Z" fill="#231F20"/>
<path d="M124.28 72V117.25C124.28 117.25 128.41 121.61 125.16 122.88C125.16 122.88 119.62 123.61 119.36 121.43V67.64C119.36 67.64 123.78 63.07 127.14 65.8C127.14 65.8 128.55 67.91 124.28 72Z" fill="#2E3190"/>
<path d="M138.44 66.7299V120.97C138.44 120.97 136.33 124.42 131.58 121.97C131.58 121.97 131.05 119.61 134.39 116.52V72.5399C134.39 72.5399 130.79 65.9399 134.13 64.9299C134.13 64.9299 136.33 64.1899 138.44 66.7299Z" fill="#2E3190"/>
<path d="M140.06 123V66.9601C140.06 66.9601 143.8 64.1901 146.34 66.2801C146.34 66.2801 147.92 68.3701 144.58 71.4601V116.64C144.58 116.64 146.65 119.3 145.59 121.89C145.59 121.89 144.21 124.33 140.05 123.01L140.06 123Z" fill="#2E3190"/>
<path d="M117.78 67.0999V121.34C117.78 121.34 114.62 123.79 111.98 121.34C111.98 121.34 110.13 119.25 113.56 114.62V64.1899L118.75 66.4599C118.75 66.4599 117.98 66.6899 117.78 67.0999Z" fill="#2E3190"/>
<path d="M113.559 65.8H111.479V72.55H113.559V65.8Z" fill="#231F20"/>
<path d="M135.589 89.0701H122.729V95.7101H135.589V89.0701Z" fill="#2E3190"/>
<path d="M59.54 104.56L69.73 101.66L70.11 103.09L65.59 104.38L70.88 105.97L71.39 107.89L66.71 106.36L61.24 110.93L60.75 109.09L65.02 105.79L63.01 105.12L59.93 106L59.55 104.58L59.54 104.56Z" fill="#231F20"/>
<path d="M71.5205 108.14L72.1005 109.49L66.8705 111.89C66.0405 112.27 65.5105 112.53 65.2805 112.68C64.9105 112.92 64.6505 113.2 64.5105 113.53C64.3605 113.86 64.3705 114.21 64.5305 114.59C64.6905 114.97 64.9305 115.21 65.2405 115.3C65.5505 115.39 65.8805 115.38 66.2205 115.27C66.5605 115.16 67.1205 114.93 67.8905 114.58L73.2305 112.13L73.8105 113.48L68.7405 115.81C67.5805 116.34 66.7405 116.68 66.2305 116.83C65.7205 116.98 65.2605 117.03 64.8405 116.98C64.4205 116.93 64.0505 116.79 63.7205 116.55C63.3805 116.31 63.1005 115.93 62.8705 115.4C62.6005 114.76 62.4905 114.23 62.5705 113.8C62.6405 113.37 62.8005 112.98 63.0605 112.64C63.3205 112.29 63.6205 112 63.9705 111.77C64.4905 111.43 65.2805 111.01 66.3605 110.51L71.5105 108.14H71.5205Z" fill="#231F20"/>
<path d="M65.8701 121.18L73.7301 113.66L74.5401 114.92L69.0901 120L75.8501 116.95L76.7901 118.41L71.3401 123.71L78.0801 120.41L78.8801 121.65L69.1301 126.23L68.2901 124.92L74.0801 119.18L66.7301 122.5L65.8701 121.17V121.18Z" fill="#231F20"/>
<path d="M75.3202 133.49L74.2602 132.31L75.6002 130.15L73.6802 128L71.5202 129.24L70.4902 128.09L80.1202 122.76L81.1502 123.91L75.3202 133.49ZM76.6002 128.55L78.8102 125.06L75.2802 127.09L76.5902 128.56L76.6002 128.55Z" fill="#231F20"/>
<path d="M76.3799 134.35L83.3699 126.16L84.4399 127.14L77.4499 135.33L76.3799 134.35Z" fill="#231F20"/>
<path d="M80.2197 137.63L85.4097 130.31L83.7097 129.03L84.7697 127.54L89.3097 130.98L88.2497 132.47L86.5597 131.19L81.3697 138.51L80.2197 137.64V137.63Z" fill="#231F20"/>
<path d="M93.0798 140.75L94.0598 141.97C93.3798 142.96 92.6898 143.6 92.0098 143.91C91.3198 144.22 90.6398 144.2 89.9498 143.87C89.0998 143.46 88.5998 142.67 88.4598 141.51C88.3198 140.35 88.5998 138.99 89.3098 137.43C90.0598 135.78 90.9098 134.64 91.8798 134C92.8498 133.36 93.7798 133.25 94.6798 133.69C95.4598 134.07 95.9398 134.74 96.0998 135.69C96.1998 136.25 96.1398 136.97 95.9298 137.83L94.4298 137.68C94.5898 137.13 94.6098 136.65 94.5098 136.24C94.3998 135.83 94.1798 135.54 93.8398 135.37C93.3598 135.14 92.8598 135.22 92.3198 135.6C91.7898 135.98 91.2498 136.76 90.7198 137.94C90.1498 139.19 89.8898 140.15 89.9498 140.82C90.0098 141.49 90.2598 141.94 90.7298 142.17C91.0698 142.34 91.4398 142.31 91.8498 142.09C92.2598 141.87 92.6698 141.43 93.1098 140.76L93.0798 140.75Z" fill="#231F20"/>
<path d="M94.7305 145.78L97.7505 135.31L99.1205 135.73L97.9305 139.85L100.61 140.68L101.8 136.56L103.17 136.98L100.15 147.45L98.7805 147.03L100.1 142.45L97.4205 141.62L96.1005 146.2L94.7305 145.78Z" fill="#231F20"/>
<path d="M102.51 147.98L104.06 137.17L109.25 137.97L108.99 139.8L105.21 139.22L104.87 141.62L108.39 142.16L108.13 143.98L104.61 143.44L104.19 146.38L108.1 146.98L107.84 148.8L102.51 147.98Z" fill="#231F20"/>
<path d="M110.05 149.03L109.9 138.1L112.04 138.07L113.43 145.5L114.6 138.03L116.74 138L116.89 148.93L115.56 148.95L115.44 140.35L114.15 148.97L112.77 148.99L111.25 140.41L111.37 149.01L110.04 149.03H110.05Z" fill="#231F20"/>
<path d="M118.93 148.68L117.7 137.83L119.12 137.66L120.35 148.51L118.93 148.68Z" fill="#231F20"/>
<path d="M125.95 143.33L127.45 143.68C127.5 144.89 127.34 145.84 126.98 146.51C126.62 147.18 126.07 147.61 125.33 147.78C124.41 147.99 123.55 147.68 122.75 146.85C121.95 146.02 121.37 144.76 121.01 143.09C120.63 141.32 120.63 139.87 121.01 138.75C121.39 137.63 122.07 136.96 123.04 136.74C123.88 136.55 124.66 136.77 125.35 137.42C125.76 137.8 126.14 138.4 126.48 139.22L125.21 140.05C125.01 139.52 124.74 139.12 124.42 138.86C124.09 138.6 123.74 138.51 123.37 138.6C122.86 138.72 122.5 139.1 122.31 139.74C122.11 140.38 122.15 141.34 122.43 142.61C122.72 143.96 123.09 144.88 123.52 145.38C123.96 145.88 124.43 146.07 124.93 145.95C125.3 145.86 125.58 145.61 125.77 145.18C125.96 144.75 126.03 144.14 125.97 143.33H125.95Z" fill="#231F20"/>
<path d="M136.22 143.88L134.77 144.46L133.33 142.38L130.69 143.43L131.01 145.96L129.59 146.53L128.35 135.31L129.76 134.75L136.21 143.89L136.22 143.88ZM132.25 140.83L129.93 137.41L130.45 141.55L132.25 140.83Z" fill="#231F20"/>
<path d="M137.69 143.07L132.61 133.59L133.86 132.87L138.07 140.74L141.18 138.96L142.04 140.57L137.68 143.07H137.69Z" fill="#231F20"/>
<path d="M146.031 137.78L139.271 129.38L140.37 128.43L143.031 131.74L145.18 129.89L142.521 126.58L143.62 125.63L150.381 134.03L149.281 134.98L146.321 131.31L144.171 133.16L147.131 136.83L146.031 137.78Z" fill="#231F20"/>
<path d="M148.11 128.89C147.3 128.15 146.7 127.45 146.29 126.78C145.99 126.29 145.77 125.79 145.64 125.28C145.51 124.77 145.47 124.32 145.53 123.92C145.61 123.39 145.85 122.9 146.23 122.45C146.92 121.64 147.83 121.33 148.97 121.5C150.11 121.68 151.32 122.35 152.61 123.53C153.89 124.7 154.68 125.85 155 126.99C155.31 128.13 155.12 129.1 154.43 129.91C153.73 130.73 152.82 131.05 151.69 130.87C150.56 130.69 149.36 130.03 148.1 128.88L148.11 128.89ZM149.03 127.7C149.93 128.52 150.73 129 151.44 129.13C152.15 129.27 152.69 129.11 153.07 128.67C153.45 128.23 153.53 127.66 153.31 126.95C153.09 126.25 152.53 125.48 151.61 124.64C150.7 123.81 149.91 123.33 149.22 123.2C148.54 123.07 148 123.23 147.61 123.69C147.22 124.15 147.13 124.72 147.34 125.41C147.55 126.1 148.12 126.86 149.03 127.7Z" fill="#231F20"/>
<path d="M148.9 119.48L149.67 118.24L154.49 121.44C155.25 121.95 155.76 122.26 156 122.38C156.4 122.57 156.77 122.64 157.11 122.58C157.46 122.53 157.74 122.33 157.95 121.98C158.17 121.63 158.23 121.29 158.14 120.97C158.05 120.65 157.85 120.37 157.57 120.14C157.29 119.9 156.8 119.55 156.09 119.08L151.17 115.81L151.94 114.57L156.61 117.67C157.68 118.38 158.41 118.91 158.81 119.27C159.21 119.63 159.5 120 159.7 120.38C159.89 120.76 159.98 121.16 159.97 121.59C159.96 122.02 159.81 122.47 159.5 122.95C159.13 123.54 158.76 123.92 158.37 124.09C157.99 124.26 157.58 124.33 157.16 124.3C156.74 124.27 156.34 124.17 155.96 123.99C155.4 123.73 154.62 123.27 153.63 122.61L148.89 119.46L148.9 119.48Z" fill="#231F20"/>
<path d="M158.72 117.11L159.11 115.72C159.78 115.94 160.32 116 160.72 115.9C161.12 115.8 161.42 115.55 161.6 115.14C161.79 114.71 161.8 114.32 161.64 113.97C161.47 113.63 161.21 113.37 160.86 113.2C160.63 113.09 160.42 113.05 160.22 113.06C160.02 113.08 159.81 113.17 159.59 113.35C159.44 113.47 159.14 113.76 158.69 114.23C158.11 114.83 157.57 115.18 157.07 115.3C156.36 115.46 155.63 115.36 154.86 115C154.37 114.77 153.96 114.46 153.61 114.06C153.27 113.67 153.07 113.24 153 112.77C152.94 112.3 153.02 111.81 153.25 111.3C153.62 110.46 154.16 109.96 154.88 109.79C155.6 109.62 156.4 109.73 157.29 110.12L156.78 111.51C156.26 111.33 155.85 111.29 155.55 111.38C155.25 111.47 155.02 111.7 154.85 112.08C154.68 112.47 154.66 112.83 154.79 113.16C154.87 113.37 155.04 113.54 155.29 113.66C155.52 113.77 155.74 113.79 155.96 113.74C156.24 113.67 156.64 113.36 157.15 112.81C157.66 112.26 158.11 111.89 158.48 111.69C158.85 111.49 159.29 111.4 159.78 111.42C160.27 111.44 160.82 111.59 161.43 111.88C161.98 112.14 162.45 112.49 162.84 112.93C163.23 113.37 163.45 113.84 163.51 114.34C163.57 114.84 163.48 115.38 163.22 115.95C162.85 116.79 162.28 117.31 161.52 117.49C160.76 117.68 159.82 117.56 158.71 117.14L158.72 117.11Z" fill="#231F20"/>
<path d="M164.97 111.12L154.84 107.99L156.35 102.79L158.06 103.32L156.96 107.11L159.21 107.8L160.23 104.28L161.94 104.81L160.92 108.33L163.68 109.18L164.81 105.26L166.52 105.79L164.97 111.12Z" fill="#231F20"/>
<path d="M56.62 66.6299C56.9 66.9599 57.32 67.5699 57.89 68.4699L56.2 69.6499L56.55 70.2899L56.92 70.9199C56.76 71.1899 56.17 71.6199 55.17 72.1999C54.97 71.9299 54.76 71.6299 54.55 71.2999C54.36 70.9999 54.16 70.6699 53.96 70.3099C54.04 70.2899 54.16 70.2399 54.3 70.1599L54.84 69.8499C55.26 69.5799 55.49 69.3999 55.55 69.2999L55.51 69.2099L55.24 68.6299L54.85 67.8599L56.62 66.6499V66.6299ZM63.97 67.8199L64.18 67.8999L64.52 68.0299L64.9 68.2199L65.4 66.9499L68.8 68.2799L66.54 74.5399C66.95 74.9899 67.3 75.4899 67.6 76.0499C67.9 76.6099 68.15 77.2299 68.35 77.9099C68.55 78.5899 68.65 79.2499 68.64 79.8799C68.64 80.5099 68.53 81.0999 68.33 81.6499C67.96 82.6599 67.41 83.3299 66.67 83.6499C65.93 83.9699 65.08 83.9499 64.1 83.5699C63.65 83.3899 63.17 83.1299 62.69 82.7799C62.2 82.4199 61.72 81.9899 61.24 81.4899C60.69 80.9299 60.27 80.4099 59.97 79.9099C59.68 79.4199 59.5 78.9499 59.44 78.4999C59.6 78.5599 59.79 78.6899 60.03 78.8999C60.16 79.0099 60.29 79.1299 60.43 79.2699C60.57 79.4099 60.75 79.5899 60.97 79.8199C61.62 80.4999 62.24 80.9599 62.83 81.1899C63.58 81.4799 64.27 81.4199 64.9 81.0099C65.16 80.8099 65.4 80.5599 65.61 80.2699C65.82 79.9799 66 79.6299 66.15 79.2199C66.32 78.7599 66.49 77.8199 66.68 76.4099L66.61 76.3599C66.07 76.1499 65.54 76.4099 65.02 77.1499L64.61 77.8199C64.42 78.1599 64.26 78.5299 64.12 78.9199C63.77 78.7099 63.41 78.4399 63.05 78.0899C62.86 77.9099 62.66 77.7199 62.45 77.4999C62.24 77.2799 62.03 77.0399 61.8 76.7699L64.43 69.4699C63.9 69.4199 63.36 69.4099 62.82 69.4299C62.32 69.4299 61.78 69.4799 61.22 69.5599L59.22 67.5599C61.25 67.2899 62.82 67.3699 63.95 67.7999L63.97 67.8199ZM70.21 80.1599C70.65 80.6199 70.95 81.0099 71.09 81.3299C71.03 81.4399 70.66 81.7099 69.97 82.1499C70.05 82.3999 70.21 82.6799 70.44 82.9999C70.2 83.3899 69.8 83.6599 69.25 83.8199L68.43 82.6599C68.43 82.6599 68.47 82.6199 68.49 82.6099C68.58 82.5399 68.73 82.4399 68.93 82.3199C69.25 82.1599 69.43 82.0199 69.47 81.9099C69.47 81.8999 69.47 81.8899 69.47 81.8799C69.45 81.8099 69.42 81.7299 69.38 81.6499L69 80.9499L69.54 80.5699L70.19 80.1799L70.21 80.1599Z" fill="#EB1C24"/>
<path d="M67.6804 62.5999L71.3803 65.5799L68.3204 70.4499L65.2004 68.3599L67.7204 64.3499L67.7003 64.3099C66.8403 64.0499 65.8204 63.8399 64.6504 63.6999L63.1104 61.3499C63.2904 61.3499 63.4603 61.3499 63.6203 61.3699C63.7803 61.3799 63.9804 61.3999 64.2404 61.4299C64.4404 61.4599 64.5903 61.4799 64.6903 61.4999C65.0303 61.5499 65.3004 61.5899 65.5004 61.6299C65.9104 61.7299 66.3004 61.8699 66.6604 62.0399C67.0304 62.2099 67.3704 62.3899 67.6904 62.6099L67.6804 62.5999ZM73.5704 67.8599C73.9604 68.4399 74.2404 69.0199 74.4304 69.5999C74.3104 69.7099 74.0503 69.8399 73.6703 69.9599L72.8304 70.2099L73.0004 70.6799L73.2703 71.3599C72.8303 71.6999 72.2704 71.8899 71.5804 71.9399L70.8103 70.1999C71.2803 70.1599 71.7804 70.0099 72.3204 69.7699C72.3004 69.6099 72.2404 69.3899 72.1404 69.0999C71.9904 68.7799 71.9103 68.5599 71.8803 68.4299L73.5704 67.8499V67.8599Z" fill="#EB1C24"/>
<path d="M76.2799 59.3901L75.6299 60.1801L76.2299 61.3501L76.8599 62.5501C77.3099 63.6701 77.3199 64.4901 76.8899 65.0001C76.5199 65.4501 75.9899 65.9401 75.2899 66.4701C74.5099 67.0301 73.8799 67.3501 73.3999 67.4301C74.7399 65.8001 75.1799 63.7401 74.7299 61.2501C73.9499 62.0001 73.4099 62.4401 73.1099 62.5701C72.4799 62.8701 71.8299 62.7301 71.1799 62.1501C70.8199 61.8401 70.4599 61.4401 70.0999 60.9501C69.7399 60.4701 69.3699 59.8801 68.9899 59.1901C68.1099 57.5901 67.9099 56.5001 68.3899 55.9201C68.7199 55.5201 69.4799 55.5701 70.6899 56.0801C70.7999 56.1301 70.9799 56.2201 71.2299 56.3501C71.4099 56.4401 71.5899 56.5401 71.7799 56.6501C71.8499 56.6901 72.0199 56.8001 72.3099 56.9801C72.5899 57.1601 72.8299 57.3101 73.0099 57.4301L73.4499 56.8901L76.2799 59.3801V59.3901ZM71.7999 58.6201C71.7199 58.5501 71.6199 58.4901 71.4999 58.4401C71.3799 58.3901 71.2199 58.3501 71.0199 58.3301C70.6699 58.2601 70.4199 58.3101 70.2899 58.4701C70.2599 58.5101 70.2399 58.5701 70.2299 58.6601V58.9001C70.2199 59.1001 70.2299 59.2401 70.2899 59.3201C70.4599 59.4701 70.6999 59.5201 70.9899 59.4601C71.2299 59.3901 71.4399 59.2701 71.6199 59.1101C71.7999 58.8901 71.8599 58.7301 71.7999 58.6401V58.6201Z" fill="#EB1C24"/>
<path d="M81.1996 54.87L80.0496 55.94L77.5796 55.29L78.2396 57.63L75.5396 60.15L73.0496 57.3L75.6996 54.84L70.6596 54.3L68.8096 50.68L71.9896 45.03L72.5196 46.02C72.7696 46.48 73.0096 46.97 73.2596 47.48L71.0396 51.99L74.4896 52.46C75.9096 52.66 77.0696 52.74 77.9796 52.71L78.7296 52.01L81.2196 54.87H81.1996Z" fill="#EB1C24"/>
<path d="M78.7999 44.67L79.0299 47.65L81.3399 50.57C81.4599 50.75 81.7299 51.26 82.1499 52.09C82.5599 52.92 82.7699 53.43 82.7799 53.61L82.5199 54.06L80.5299 55.53L78.3699 52.4L80.0599 51.15V51.08L79.9999 51C79.4199 50.16 78.7699 49.36 78.0399 48.59C77.1299 47.65 76.3299 47.11 75.6399 46.96L75.3599 45.94C75.3299 45.82 75.3099 45.7 75.2799 45.58C75.2499 45.46 75.2299 45.34 75.2099 45.22C75.0199 44.37 74.9799 43.79 75.1099 43.49L75.4099 43.89C75.6399 44.21 76.1499 44.43 76.9599 44.55C77.2699 44.59 77.5699 44.62 77.8599 44.62C78.1099 44.62 78.3999 44.61 78.7299 44.56L78.8199 44.69L78.7999 44.67Z" fill="#EB1C24"/>
<path d="M85.0403 47.1C86.0003 48.8 86.4403 50.35 86.3703 51.75L81.3703 44.5601C81.2403 44.3701 81.0603 43.12 80.8203 40.8C82.9403 43.77 84.3503 45.87 85.0503 47.1H85.0403Z" fill="#EB1C24"/>
<path d="M100.18 41.7501L100.25 45.6101L93.9101 47.6801C92.6301 48.1001 91.6501 47.1801 90.9601 44.9301C90.7401 44.2001 90.5901 43.3601 90.5201 42.4201C90.4301 41.2101 90.5501 40.4401 90.8801 40.1201C90.9501 40.3401 91.0201 40.6601 91.1101 41.0801C91.1901 41.5001 91.2701 41.8301 91.3501 42.0901C91.4901 42.5601 91.7801 42.9801 92.2001 43.3601C92.6701 43.7701 93.1301 43.9001 93.5901 43.7501L98.7701 42.0601L98.7901 41.9901C98.6801 41.6401 98.2101 41.0001 97.3601 40.0701L97.6101 37.0501C98.7001 38.1801 99.3401 39.0201 99.5101 39.5801L100.18 41.7601V41.7501ZM95.8401 36.0201C95.7701 36.3601 95.6901 36.7001 95.5901 37.0401C95.4901 37.3801 95.3801 37.7401 95.2501 38.1101C95.0101 38.1101 94.6801 38.0401 94.2801 37.9001L93.3101 37.5601C93.1301 37.8901 92.9501 38.3501 92.7701 38.9201L92.3801 38.8501L91.7001 38.6301C91.1301 38.4501 90.8201 38.3101 90.7701 38.2201C90.7501 38.1401 90.9601 37.4501 91.4101 36.1501C92.4401 36.6101 93.0301 36.8201 93.1801 36.7701L93.2301 36.6901L93.5101 36.1101L93.8501 35.3101L95.8401 36.0101V36.0201Z" fill="#EB1C24"/>
<path d="M105.62 44.7L103.07 45.14L100.75 35C100.73 34.85 100.85 34.4 101.14 33.65L101.73 32.22L103.85 41.12L105.01 40.92L105.63 44.71L105.62 44.7Z" fill="#EB1C24"/>
<path d="M110.02 39.51L109.96 44.36L104.35 44.78L104.08 40.95L108.7 40.6L108.72 40.56C108.4 39.69 107.94 38.73 107.35 37.68L108.23 34.99C108.34 35.14 108.44 35.28 108.52 35.42C108.6 35.56 108.71 35.74 108.85 35.96C108.95 36.14 109.02 36.27 109.07 36.37C109.24 36.67 109.37 36.92 109.46 37.12C109.62 37.52 109.76 37.92 109.85 38.32C109.94 38.72 110 39.12 110.03 39.51H110.02ZM109.52 47.54C109.3 48.21 109.03 48.8 108.69 49.3C108.53 49.27 108.28 49.13 107.95 48.89L107.25 48.35L106.99 48.77L106.63 49.41C106.11 49.26 105.62 48.91 105.16 48.37L106.03 46.68C106.35 47.04 106.76 47.37 107.28 47.66C107.39 47.55 107.53 47.36 107.69 47.1C107.85 46.79 107.97 46.58 108.05 46.48L109.52 47.53V47.54Z" fill="#EB1C24"/>
<path d="M117.58 40.57C117.54 41.37 117.44 42.16 117.28 42.95C117.19 43.39 117.1 43.79 117 44.15C116.9 44.52 116.76 44.93 116.58 45.38C115.8 47.55 114.84 48.6 113.69 48.54C112.56 48.48 111.34 48.17 110.02 47.6L109.5 47.36L109.45 47.31L109.37 47.15L111.14 46.98C112.91 46.19 114.23 45.37 115.12 44.53C116 43.69 116.46 42.81 116.51 41.92L116.46 41.83C116.05 42.7 115.83 43.15 115.81 43.17C115.52 43.56 115.09 43.74 114.53 43.71C113.43 43.65 112.91 42.89 112.98 41.41C113 40.94 113.08 40.44 113.23 39.91C113.37 39.38 113.61 38.74 113.93 37.99C114.25 37.25 114.58 36.7 114.91 36.34C115.24 35.99 115.59 35.82 115.95 35.84L116.14 35.87C117.21 36.85 117.7 38.41 117.59 40.57H117.58ZM116.02 40.3C116.02 40.14 116.02 39.98 115.98 39.84L115.85 39.53C115.74 39.23 115.57 39.06 115.35 39.02C115.2 39.02 115.02 39.11 114.8 39.32C114.58 39.53 114.47 39.71 114.46 39.89C114.46 40.01 114.56 40.17 114.78 40.35C114.99 40.47 115.18 40.54 115.35 40.59C115.47 40.59 115.69 40.53 116.01 40.38V40.31L116.02 40.3Z" fill="#EB1C24"/>
<path d="M121.97 45.35L119.42 44.94L120.31 34.56C120.33 34.41 120.59 34.02 121.09 33.4L122.08 32.24L121.38 41.37L122.54 41.56L121.97 45.36V45.35Z" fill="#EB1C24"/>
<path d="M128.41 47.07L126.81 46.63C126.81 46.63 126.69 46.74 126.58 46.88L126.4 47.17C126.27 47.45 126.11 47.63 125.93 47.7L123.17 43.58C123.09 43.66 122.99 43.81 122.88 44.01L122.54 44.67C122.41 45.02 122.17 45.22 121.83 45.26L121.03 45.04L121.98 41.32L123.37 41.7C123.43 41.68 123.72 41.37 124.23 40.76C124.5 40.44 124.75 40.16 124.99 39.94C125.2 39.74 125.45 39.55 125.72 39.35C126.4 38.9 127.08 38.76 127.76 38.95C128.03 39.02 128.18 39.13 128.22 39.29C128.22 39.35 128.22 39.41 128.2 39.49C128.19 39.57 128.16 39.68 128.12 39.85C128.01 40.27 128.01 40.86 128.1 41.6C128.2 42.34 128.37 42.85 128.63 43.13L129.37 43.33L128.42 47.05L128.41 47.07ZM126.36 42.49L126.44 42.18L126.46 41.97C126.46 41.87 126.46 41.78 126.46 41.68C126.47 41.48 126.44 41.36 126.38 41.32L126.18 41.21C126.07 41.18 125.92 41.18 125.72 41.21C125.51 41.2 125.38 41.21 125.33 41.27C125.47 41.59 125.81 42 126.36 42.49Z" fill="#EB1C24"/>
<path d="M131.12 50.9299C130.86 51.2099 130.61 51.4399 130.37 51.6199C130.26 51.7099 130.14 51.8099 130.02 51.8899C129.91 51.9699 129.78 52.0599 129.64 52.1299C129.5 52.0299 129.33 51.7899 129.15 51.4099C129.01 51.1999 128.87 50.9399 128.72 50.6299L128.43 50.8199L127.73 51.3099C127.33 50.9499 127.02 50.4199 126.81 49.7199L128.31 48.5799C128.44 49.0599 128.68 49.5299 129.03 49.9999C129.19 49.9799 129.41 49.8599 129.68 49.6499C129.93 49.4599 130.1 49.3499 130.2 49.2999L131.1 50.9199L131.12 50.9299ZM132.87 48.9899L131.4 48.3999C131.08 48.2699 130.9 47.9299 130.86 47.3599L130.9 46.4199L129.68 47.6899L127.38 46.7599L128.74 43.1799L131.28 44.2099C131.66 43.6399 131.95 43.0999 132.15 42.5899L132.36 42.1299C132.4 42.0499 132.44 41.9999 132.46 41.9599C132.49 41.9299 132.54 41.8799 132.62 41.8199C132.9 41.5899 133.51 41.1999 134.47 40.6499L133.99 41.9199L133.76 42.4499L133.55 42.8499L133.13 43.7699C132.87 44.4499 133.03 44.8999 133.6 45.1299L134.24 45.3899L132.88 48.9699L132.87 48.9899Z" fill="#EB1C24"/>
<path d="M138.79 52.26L137.42 51.5L137.17 48.87L135.26 50.3L132.05 48.52L133.8 45.13L136.94 46.87L135.72 41.79L138.38 38.76L144.6 39.93L143.88 40.78C143.54 41.18 143.18 41.58 142.8 41.99L137.95 41.36L138.69 44.88C138.99 46.33 139.31 47.49 139.65 48.35L140.54 48.84L138.79 52.23V52.26Z" fill="#EB1C24"/>
<path d="M147.3 46.48L144.66 47.71L142.79 50.94C142.67 51.12 142.3 51.55 141.68 52.24C141.06 52.92 140.67 53.3 140.51 53.37L140.02 53.27L138.01 51.83L140.12 48.67L141.83 49.89L141.9 49.86L141.96 49.78C142.52 48.93 143.04 48.03 143.49 47.06C144.03 45.85 144.26 44.89 144.16 44.17L144.99 43.55C145.09 43.48 145.19 43.41 145.29 43.35C145.39 43.28 145.49 43.22 145.6 43.16C146.31 42.68 146.82 42.46 147.14 42.48L146.88 42.91C146.66 43.24 146.64 43.81 146.81 44.63C146.88 44.95 146.96 45.24 147.05 45.53C147.13 45.77 147.24 46.04 147.4 46.35L147.32 46.48H147.3Z" fill="#EB1C24"/>
<path d="M147.16 53.3499C145.94 54.8499 144.68 55.8099 143.38 56.2099L148.23 48.9099C148.35 48.7199 149.43 48.1199 151.46 47.1099C149.48 50.1799 148.05 52.2599 147.16 53.3499Z" fill="#EB1C24"/>
<path d="M155.01 69.65L154.18 68.49C154.03 68.28 154.04 67.93 154.22 67.45C154.3 67.23 154.39 67.03 154.48 66.87C154.57 66.72 154.69 66.6 154.82 66.5L153.03 66.95L149.68 62.27C148.88 61.15 149.4 59.89 151.24 58.48C151.46 58.31 151.63 58.19 151.72 58.13C151.82 58.07 152.02 57.95 152.32 57.77C152.62 57.59 153.03 57.39 153.54 57.16C154.75 56.59 155.52 56.42 155.88 56.64L155.72 56.76C155.53 56.91 155.21 57.1 154.77 57.34C154.32 57.58 154 57.77 153.81 57.92C153.43 58.21 153.14 58.62 152.95 59.15C152.76 59.67 152.81 60.14 153.09 60.54L156.18 64.86C156.28 64.85 156.5 64.74 156.84 64.53C157.18 64.32 157.58 64.04 158.05 63.68L160.72 63.62L159.42 64.61L157.62 65.72C157.35 65.92 157.26 66.17 157.35 66.47L157.99 67.36L155 69.64L155.01 69.65ZM161.31 61.52C161.14 61.58 160.75 61.63 160.14 61.67C159.53 61.71 159.18 61.69 159.09 61.6C159.04 61.53 159.02 60.82 159.04 59.48L158.46 59.44L157.58 59.4C157.53 59.19 157.49 58.81 157.47 58.26C157.42 57.62 157.45 57.26 157.54 57.19C157.66 57.1 158.4 57.09 159.74 57.19C159.69 57.31 159.65 57.65 159.62 58.21C159.6 58.72 159.62 59.04 159.71 59.15C159.73 59.16 159.74 59.17 159.76 59.18C159.77 59.18 159.81 59.19 159.88 59.2L160.44 59.25L161.31 59.32V61.52Z" fill="#EB1C24"/>
<path d="M154.18 74.2899C153.81 74.3199 153.47 74.3199 153.18 74.2899C153.04 74.2899 152.89 74.2699 152.75 74.2499C152.61 74.2299 152.46 74.2099 152.31 74.1699C152.27 73.9899 152.31 73.6999 152.41 73.2999C152.44 73.0499 152.51 72.7599 152.6 72.4299L152.26 72.3799L151.42 72.2599C151.36 71.7099 151.47 71.1099 151.76 70.4399L153.61 70.6299C153.4 71.0799 153.27 71.5899 153.23 72.1899C153.36 72.2799 153.6 72.3399 153.94 72.3799C154.24 72.4099 154.45 72.4499 154.56 72.4799L154.19 74.2999L154.18 74.2899ZM156.74 74.0599L156.03 72.5999C155.88 72.2899 155.97 71.8999 156.3 71.4599L156.93 70.7899L155.19 70.8899L154.08 68.6099L157.4 66.8899L158.63 69.4099C159.28 69.2499 159.84 69.0499 160.32 68.8099L160.77 68.6099C160.85 68.5799 160.91 68.5599 160.96 68.5599C161 68.5599 161.07 68.5599 161.16 68.5599C161.51 68.5799 162.23 68.7199 163.3 68.9699L162.12 69.5799L161.61 69.8099L161.2 69.9699L160.29 70.3599C159.66 70.6899 159.48 71.1299 159.76 71.6999L160.07 72.3299L156.75 74.0599H156.74Z" fill="#EB1C24"/>
<path d="M154.85 77.77C154.78 77.8 154.47 77.67 153.93 77.39C153.8 77.32 153.69 77.25 153.59 77.2C153.5 77.14 153.42 77.09 153.35 77.04C153.23 76.95 153.13 76.87 153.08 76.79C153.06 76.74 153.08 76.63 153.11 76.47C153.15 76.31 153.22 76.09 153.33 75.82C153.43 75.55 153.53 75.34 153.61 75.18C153.69 75.03 153.76 74.93 153.81 74.89C153.92 74.85 154.27 74.95 154.86 75.2C155.46 75.45 155.77 75.62 155.8 75.71C155.81 75.74 155.67 76.09 155.38 76.75C155.09 77.41 154.91 77.76 154.85 77.78V77.77ZM162.7 76.21C162.05 76.46 161.25 76.68 160.32 76.86L159.15 77.11C158.94 77.16 158.74 77.21 158.56 77.24C158.38 77.28 158.15 77.31 157.88 77.35L156.36 73.13L159.84 71.79L161.06 75.17L161.2 75.14C161.5 75.02 161.92 74.71 162.45 74.19C162.95 73.73 163.29 73.33 163.47 72.98L166.39 73.12C165.32 74.65 164.09 75.68 162.7 76.22V76.21Z" fill="#EB1C24"/>
<defs>
<linearGradient id="paint0_linear_244_4029" x1="0.820312" y1="88.7501" x2="315.02" y2="88.7501" gradientUnits="userSpaceOnUse">
<stop stop-color="#ED801B"/>
<stop offset="0.38" stop-color="#E57114"/>
<stop offset="1" stop-color="#D45107"/>
</linearGradient>
</defs>
</svg>
