<svg width="35" height="40" viewBox="0 0 35 40" fill="none" xmlns="http://www.w3.org/2000/svg">
<path d="M0.349609 38.67C0.349609 27.73 0.349609 16.79 0.349609 5.84998C0.349609 5.82998 0.369629 5.80003 0.369629 5.78003C0.479629 5.11003 1.05961 4.60999 1.72961 4.60999C2.99961 4.60999 4.26961 4.60999 5.53961 4.60999C5.62961 4.60999 5.63965 4.63997 5.63965 4.71997C5.63965 5.38997 5.63965 6.04997 5.63965 6.71997C5.63965 7.34997 5.75962 7.96003 6.04962 8.53003C6.83962 10.06 8.09964 10.87 9.81964 10.91C10.5896 10.93 11.2997 10.72 11.9597 10.33C12.7797 9.83996 13.3696 9.15002 13.7196 8.27002C13.9296 7.75002 14.0097 7.20001 14.0197 6.64001C14.0197 6.01001 14.0197 5.37999 14.0197 4.73999V4.62H21.1196V4.73999C21.1196 5.37999 21.1196 6.02004 21.1196 6.67004C21.1196 7.50004 21.3096 8.26997 21.7596 8.96997C22.4996 10.12 23.5596 10.76 24.9196 10.91C25.5896 10.98 26.2496 10.88 26.8796 10.62C27.9796 10.16 28.7496 9.38002 29.1996 8.27002C29.4096 7.76002 29.4896 7.22004 29.4896 6.67004C29.4896 6.03004 29.4896 5.38999 29.4896 4.73999C29.4896 4.63999 29.5096 4.62 29.6096 4.62C30.8696 4.62 32.1196 4.62 33.3796 4.62C33.5296 4.62 33.6796 4.64994 33.8196 4.68994C34.4096 4.87994 34.7797 5.41995 34.7797 6.06995C34.7797 16.8699 34.7797 27.67 34.7797 38.47C34.7797 38.49 34.7797 38.5 34.7797 38.52C34.7797 39.14 34.3996 39.67 33.8096 39.86C33.6896 39.9 33.5696 39.9099 33.4496 39.9399H1.67963C1.67963 39.9399 1.62962 39.93 1.60962 39.92C1.04962 39.84 0.649636 39.55 0.439636 39.02C0.399636 38.91 0.379609 38.8001 0.349609 38.6801V38.67ZM31.5096 36.66V14.51H31.3896C22.1696 14.51 12.9596 14.51 3.73962 14.51C3.65296 14.51 3.60962 14.5533 3.60962 14.64C3.60962 21.93 3.60962 29.22 3.60962 36.51C3.60962 36.66 3.58963 36.65 3.74963 36.65C12.9596 36.65 22.1796 36.65 31.3896 36.65H31.5096V36.66Z" fill="#F0801B"/>
<path d="M0.349609 38.67C0.379609 38.78 0.399636 38.9 0.439636 39.01C0.649636 39.54 1.04962 39.84 1.60962 39.91C1.62962 39.91 1.65963 39.9201 1.67963 39.9301H0.349609C0.349609 39.5101 0.349609 39.09 0.349609 38.67Z" fill="#F0801B"/>
<path d="M8.20996 4.61999C8.20996 3.89999 8.20996 3.18996 8.20996 2.46996C8.20996 1.64996 8.89996 0.939998 9.70996 0.879998C10.62 0.819998 11.4699 1.53005 11.4699 2.56005C11.4699 3.94005 11.4699 5.31994 11.4699 6.69994C11.4699 7.49994 10.96 8.13005 10.2 8.31005C9.30995 8.52005 8.39993 7.92 8.23993 7.01C8.21993 6.91 8.21996 6.80996 8.20996 6.71996C8.20996 6.01996 8.20996 5.31999 8.20996 4.61999Z" fill="#F0801B"/>
<path d="M23.6795 4.62005C23.6795 3.93005 23.6795 3.2401 23.6795 2.5501C23.6795 2.0501 23.8595 1.63009 24.2295 1.29009C24.8695 0.710093 25.9195 0.760078 26.4995 1.40008C26.7895 1.72008 26.9395 2.10009 26.9395 2.54009C26.9395 3.92009 26.9395 5.29999 26.9395 6.68999C26.9395 7.49 26.4095 8.15 25.6295 8.32C24.6995 8.52 23.7495 7.81005 23.6895 6.87005C23.6595 6.40005 23.6895 5.94002 23.6795 5.47002C23.6795 5.19002 23.6795 4.90005 23.6795 4.62005Z" fill="#F0801B"/>
<path d="M12.5598 16.9301H16.2198V17.04C16.2198 18.23 16.2198 19.42 16.2198 20.61C16.2198 20.7 16.1998 20.73 16.0998 20.73C14.9498 20.73 13.8098 20.73 12.6598 20.73C12.5798 20.73 12.5498 20.71 12.5498 20.63C12.5498 19.43 12.5498 18.23 12.5498 17.04C12.5498 17.01 12.5498 16.9799 12.5498 16.9399L12.5598 16.9301Z" fill="#F0801B"/>
<path d="M18.9495 20.72V16.9301H22.5994V17.02C22.5994 18.22 22.5994 19.42 22.5994 20.61C22.5994 20.7 22.5794 20.72 22.4894 20.72C21.3394 20.72 20.1894 20.72 19.0394 20.72C19.0094 20.72 18.9795 20.72 18.9395 20.72H18.9495Z" fill="#F0801B"/>
<path d="M28.98 16.9301C28.98 16.9301 28.98 17 28.98 17.03C28.98 18.22 28.98 19.42 28.98 20.61C28.98 20.69 28.9701 20.72 28.8801 20.72C27.7301 20.72 26.57 20.72 25.42 20.72C25.39 20.72 25.3601 20.72 25.3301 20.72V16.9301H28.98Z" fill="#F0801B"/>
<path d="M16.2098 25.5699C16.2098 26.1599 16.2098 26.76 16.2098 27.35C16.2098 27.44 16.1898 27.46 16.0998 27.46C14.9498 27.46 13.8098 27.46 12.6598 27.46C12.5698 27.46 12.5498 27.43 12.5498 27.35C12.5498 26.16 12.5498 24.97 12.5498 23.77C12.5498 23.68 12.5698 23.66 12.6598 23.66C13.8098 23.66 14.9498 23.66 16.0998 23.66C16.1898 23.66 16.2098 23.69 16.2098 23.77C16.2098 24.37 16.2098 24.9701 16.2098 25.5601V25.5699Z" fill="#F0801B"/>
<path d="M9.80994 20.72H6.16992V16.9301H9.80994V20.72Z" fill="#F0801B"/>
<path d="M18.9395 23.66H19.0594C20.1994 23.66 21.3294 23.66 22.4694 23.66C22.5561 23.66 22.5994 23.7 22.5994 23.78C22.5994 24.97 22.5994 26.15 22.5994 27.34C22.5994 27.44 22.5694 27.46 22.4794 27.46C21.3394 27.46 20.1994 27.46 19.0594 27.46C18.9694 27.46 18.9395 27.44 18.9395 27.34C18.9395 26.15 18.9395 24.96 18.9395 23.77C18.9395 23.74 18.9395 23.71 18.9395 23.66Z" fill="#F0801B"/>
<path d="M25.3293 23.66H25.4493C26.5793 23.66 27.7193 23.66 28.8493 23.66C28.936 23.66 28.9793 23.7034 28.9793 23.79C28.9793 24.97 28.9793 26.15 28.9793 27.34C28.9793 27.42 28.936 27.46 28.8493 27.46C27.7093 27.46 26.5793 27.46 25.4393 27.46C25.3393 27.46 25.3193 27.44 25.3193 27.34C25.3193 26.15 25.3193 24.96 25.3193 23.78C25.3193 23.75 25.3193 23.72 25.3193 23.67L25.3293 23.66Z" fill="#F0801B"/>
<path d="M12.5598 30.41H16.2098C16.2098 30.41 16.2098 30.48 16.2098 30.51C16.2098 31.7 16.2098 32.89 16.2098 34.08C16.2098 34.17 16.1898 34.1899 16.0998 34.1899C14.9498 34.1899 13.7998 34.1899 12.6498 34.1899C12.5698 34.1899 12.5498 34.17 12.5498 34.09C12.5498 32.89 12.5498 31.69 12.5498 30.49C12.5498 30.46 12.5498 30.43 12.5498 30.4L12.5598 30.41Z" fill="#F0801B"/>
<path d="M18.9495 30.4C18.9495 30.4 19.0194 30.4 19.0494 30.4C20.1994 30.4 21.3394 30.4 22.4894 30.4C22.5694 30.4 22.5994 30.42 22.5994 30.51C22.5994 31.7 22.5994 32.89 22.5994 34.08C22.5994 34.17 22.5794 34.2 22.4794 34.2C21.3394 34.2 20.1894 34.2 19.0494 34.2C18.9794 34.2 18.9395 34.2 18.9395 34.1C18.9395 32.9 18.9395 31.7 18.9395 30.5C18.9395 30.47 18.9395 30.44 18.9395 30.41L18.9495 30.4Z" fill="#F0801B"/>
<path d="M25.3401 30.4H28.98C28.98 30.4 28.98 30.46 28.98 30.49C28.98 31.69 28.98 32.89 28.98 34.09C28.98 34.17 28.9601 34.1899 28.8801 34.1899C27.7301 34.1899 26.57 34.1899 25.42 34.1899C25.39 34.1899 25.3601 34.1899 25.3301 34.1899V30.4H25.3401Z" fill="#F0801B"/>
<path d="M9.81995 25.5601C9.81995 26.1501 9.81995 26.75 9.81995 27.34C9.81995 27.43 9.79996 27.46 9.70996 27.46C8.56996 27.46 7.41997 27.46 6.27997 27.46C6.19997 27.46 6.16992 27.44 6.16992 27.35C6.16992 26.15 6.16992 24.95 6.16992 23.76C6.16992 23.68 6.19996 23.66 6.26996 23.66C7.41996 23.66 8.55996 23.66 9.70996 23.66C9.79996 23.66 9.81995 23.69 9.81995 23.78C9.81995 24.37 9.81995 24.9701 9.81995 25.5601Z" fill="#F0801B"/>
<path d="M6.16992 30.4C6.16992 30.4 6.24997 30.4 6.27997 30.4C7.41997 30.4 8.55994 30.4 9.68994 30.4C9.78994 30.4 9.80994 30.43 9.80994 30.52C9.80994 31.71 9.80994 32.89 9.80994 34.08C9.80994 34.18 9.78994 34.2 9.68994 34.2C8.54994 34.2 7.40997 34.2 6.27997 34.2C6.24997 34.2 6.20992 34.2 6.16992 34.2V30.4Z" fill="#F0801B"/>
</svg>
