<svg width="309" height="167" viewBox="0 0 309 167" fill="none" xmlns="http://www.w3.org/2000/svg">
<path d="M308.31 166.983H0.209961V0.019043H236.18L308.31 166.983Z" fill="url(#paint0_linear_244_4359)"/>
<path d="M108.28 148.882C143.411 148.882 171.89 120.385 171.89 85.2326C171.89 50.0798 143.411 21.5826 108.28 21.5826C73.1491 21.5826 44.6699 50.0798 44.6699 85.2326C44.6699 120.385 73.1491 148.882 108.28 148.882Z" fill="white"/>
<path d="M79.2102 84.3517H58.9102V87.0335H79.2102V84.3517Z" fill="#231F20"/>
<path d="M162.481 84.3517H142.181V87.0335H162.481V84.3517Z" fill="#231F20"/>
<path d="M88.0099 112.63H77.9199V63.9893H88.0099V112.63ZM80.5099 110.038H85.4199V66.571H80.5099V110.038Z" fill="#231F20"/>
<path d="M109.601 115.542C109.411 115.542 90.3907 114.691 85.4707 95.2288L85.4307 94.9088V79.2789L85.5407 79.0287C85.8907 78.2482 94.3607 59.8466 111.421 60.627L111.301 63.1887C96.9607 62.4783 89.0207 77.7477 87.9907 79.849V94.7588C92.4907 112.17 108.981 112.96 109.681 112.98L109.591 115.542H109.601Z" fill="#231F20"/>
<path d="M109.64 99.2511V106.666L107.92 106.146L105.14 107.246L103.07 105.045L99.4503 105.175V102.263L96.2203 102.203V99.6111L93.2503 97.22L94.0903 94.3779L91.3103 91.8563L92.7303 89.3948L90.5303 86.4232L92.7303 83.9617L91.7603 81.1797L94.1503 79.1086L93.1203 76.6471L96.4203 75.3562L96.1603 72.6343L99.7203 71.7939L100.1 69.2723H103.73L105.67 67.3312L106.58 68.1115C106.58 68.1115 108.93 67.6614 109.66 67.8515V73.9354C109.66 73.9354 100.24 76.0668 100.44 87.7141C100.44 87.7141 99.4303 96.5494 109.66 99.2511H109.64Z" fill="#231F20"/>
<path d="M121.28 67.6014V110.548C121.28 110.548 125.33 114.691 122.14 115.891C122.14 115.891 116.71 116.582 116.45 114.511V63.4489C116.45 63.4489 120.78 59.1162 124.08 61.6978C124.08 61.6978 125.46 63.6989 121.28 67.5814V67.6014Z" fill="#2E3190"/>
<path d="M135.151 62.5982V114.09C135.151 114.09 133.081 117.373 128.431 115.041C128.431 115.041 127.911 112.799 131.191 109.868V68.1217C131.191 68.1217 127.661 61.8576 130.931 60.897C130.931 60.897 133.081 60.1865 135.151 62.608V62.5982Z" fill="#2E3190"/>
<path d="M136.75 116.011V62.8185C136.75 62.8185 140.41 60.1864 142.91 62.1677C142.91 62.1677 144.46 64.1491 141.19 67.0809V109.968C141.19 109.968 143.22 112.489 142.18 114.951C142.18 114.951 140.82 117.262 136.75 116.011Z" fill="#2E3190"/>
<path d="M114.9 62.9486V114.441C114.9 114.441 111.8 116.772 109.21 114.441C109.21 114.441 107.39 112.46 110.76 108.057V60.1866L115.85 62.3379C115.85 62.3379 115.1 62.5581 114.9 62.9384V62.9486Z" fill="#2E3190"/>
<path d="M110.761 61.7179H108.721V68.1218H110.761V61.7179Z" fill="#231F20"/>
<path d="M132.36 83.8118H119.75V90.1155H132.36V83.8118Z" fill="#2E3190"/>
<path d="M57.7903 98.5109L67.7803 95.7592L68.1503 97.1096L63.7103 98.3306L68.9003 99.8418L69.4003 101.663L64.8103 100.212L59.4403 104.555L58.9603 102.804L63.1403 99.6713L61.1703 99.0312L58.1503 99.8613L57.7803 98.5109H57.7903Z" fill="#231F20"/>
<path d="M69.5301 101.903L70.1001 103.184L64.9701 105.465C64.1601 105.825 63.6301 106.075 63.4101 106.215C63.0501 106.445 62.7901 106.716 62.6501 107.026C62.5101 107.336 62.5101 107.676 62.6701 108.027C62.8301 108.387 63.0601 108.617 63.3701 108.697C63.6801 108.787 64.0001 108.777 64.3401 108.667C64.6801 108.557 65.2201 108.337 65.9701 108.007L71.2101 105.675L71.7801 106.956L66.8001 109.167C65.6601 109.678 64.8401 109.998 64.3401 110.138C63.8401 110.278 63.3901 110.328 62.9801 110.288C62.5701 110.248 62.2101 110.108 61.8801 109.888C61.5501 109.657 61.2701 109.297 61.0501 108.797C60.7801 108.187 60.6801 107.686 60.7501 107.276C60.8201 106.866 60.9801 106.506 61.2301 106.166C61.4801 105.835 61.7801 105.555 62.1201 105.335C62.6301 105.015 63.4101 104.615 64.4701 104.144L69.5201 101.903H69.5301Z" fill="#231F20"/>
<path d="M64 114.28L71.7 107.146L72.5 108.337L67.16 113.16L73.79 110.268L74.72 111.659L69.37 116.692L75.98 113.56L76.76 114.731L67.2 119.084L66.38 117.843L72.06 112.389L64.85 115.542L64.01 114.271L64 114.28Z" fill="#231F20"/>
<path d="M73.2703 125.968L72.2303 124.847L73.5503 122.806L71.6603 120.765L69.5403 121.946L68.5303 120.855L77.9703 115.792L78.9803 116.882L73.2603 125.968H73.2703ZM74.5203 121.285L76.6903 117.963L73.2303 119.894L74.5203 121.285Z" fill="#231F20"/>
<path d="M74.2998 126.779L81.1598 119.004L82.2098 119.934L75.3498 127.709L74.2998 126.779Z" fill="#231F20"/>
<path d="M78.0703 129.89L83.1603 122.936L81.5003 121.715L82.5403 120.295L86.9903 123.556L85.9503 124.967L84.2903 123.746L79.2003 130.701L78.0703 129.87V129.89Z" fill="#231F20"/>
<path d="M90.6705 132.862L91.6305 134.023C90.9605 134.963 90.2905 135.574 89.6205 135.864C88.9505 136.154 88.2705 136.144 87.6005 135.824C86.7705 135.434 86.2805 134.683 86.1405 133.583C86.0005 132.482 86.2805 131.191 86.9705 129.71C87.7005 128.149 88.5405 127.059 89.4905 126.448C90.4405 125.838 91.3505 125.738 92.2305 126.148C93.0005 126.508 93.4605 127.139 93.6305 128.049C93.7305 128.59 93.6705 129.26 93.4605 130.08L91.9905 129.94C92.1405 129.42 92.1705 128.96 92.0605 128.57C91.9605 128.179 91.7405 127.899 91.4005 127.739C90.9305 127.519 90.4405 127.589 89.9105 127.959C89.3905 128.319 88.8605 129.06 88.3405 130.181C87.7805 131.371 87.5305 132.282 87.5805 132.922C87.6305 133.562 87.8805 133.983 88.3405 134.203C88.6805 134.363 89.0405 134.333 89.4305 134.133C89.8205 133.933 90.2305 133.503 90.6605 132.862H90.6705Z" fill="#231F20"/>
<path d="M92.2998 137.635L95.2598 127.699L96.5998 128.099L95.4298 132.012L98.0598 132.792L99.2298 128.88L100.58 129.28L97.6198 139.216L96.2798 138.816L97.5698 134.473L94.9398 133.683L93.6398 138.025L92.2998 137.625V137.635Z" fill="#231F20"/>
<path d="M99.9202 139.727L101.44 129.47L106.53 130.23L106.27 131.962L102.56 131.411L102.22 133.683L105.67 134.193L105.41 135.924L101.96 135.414L101.55 138.206L105.39 138.776L105.13 140.507L99.9102 139.736L99.9202 139.727Z" fill="#231F20"/>
<path d="M107.32 140.727L107.17 130.361L109.27 130.331L110.63 137.385L111.78 130.291L113.88 130.261L114.03 140.627L112.73 140.647L112.61 132.482L111.35 140.667L110 140.687L108.51 132.542L108.63 140.707L107.33 140.727H107.32Z" fill="#231F20"/>
<path d="M116.021 140.387L114.811 130.08L116.201 129.92L117.411 140.217L116.021 140.377V140.387Z" fill="#231F20"/>
<path d="M122.911 135.304L124.381 135.634C124.421 136.784 124.271 137.685 123.921 138.326C123.571 138.966 123.031 139.366 122.301 139.537C121.401 139.737 120.561 139.446 119.771 138.656C118.991 137.865 118.421 136.675 118.061 135.084C117.691 133.403 117.681 132.022 118.061 130.961C118.431 129.9 119.101 129.26 120.051 129.05C120.881 128.87 121.631 129.08 122.311 129.7C122.721 130.061 123.091 130.631 123.421 131.411L122.171 132.192C121.971 131.681 121.711 131.311 121.391 131.061C121.071 130.811 120.731 130.731 120.361 130.811C119.861 130.921 119.511 131.281 119.321 131.892C119.131 132.502 119.171 133.413 119.441 134.614C119.721 135.894 120.081 136.775 120.511 137.245C120.941 137.715 121.401 137.905 121.891 137.795C122.251 137.715 122.531 137.475 122.711 137.065C122.891 136.665 122.961 136.074 122.911 135.314V135.304Z" fill="#231F20"/>
<path d="M132.981 135.834L131.561 136.384L130.151 134.403L127.561 135.404L127.871 137.805L126.481 138.346L125.271 127.699L126.651 127.168L132.981 135.844V135.834ZM129.091 132.932L126.811 129.69L127.321 133.623L129.091 132.942V132.932Z" fill="#231F20"/>
<path d="M134.43 135.064L129.45 126.058L130.68 125.377L134.81 132.852L137.86 131.161L138.71 132.692L134.43 135.064Z" fill="#231F20"/>
<path d="M142.601 130.04L135.971 122.066L137.051 121.165L139.661 124.307L141.771 122.546L139.161 119.404L140.241 118.503L146.871 126.478L145.791 127.378L142.891 123.896L140.781 125.658L143.681 129.14L142.601 130.04Z" fill="#231F20"/>
<path d="M144.64 121.595C143.85 120.895 143.25 120.234 142.86 119.594C142.57 119.124 142.35 118.653 142.22 118.163C142.09 117.673 142.05 117.252 142.11 116.872C142.19 116.362 142.42 115.902 142.79 115.482C143.47 114.711 144.36 114.411 145.48 114.581C146.6 114.751 147.79 115.391 149.05 116.512C150.3 117.623 151.08 118.714 151.39 119.804C151.7 120.885 151.51 121.815 150.83 122.576C150.15 123.346 149.25 123.657 148.14 123.487C147.03 123.317 145.86 122.696 144.62 121.595H144.64ZM145.54 120.475C146.42 121.255 147.21 121.706 147.9 121.836C148.59 121.966 149.13 121.815 149.5 121.395C149.87 120.975 149.95 120.435 149.74 119.764C149.53 119.094 148.97 118.363 148.07 117.573C147.18 116.782 146.4 116.332 145.73 116.202C145.06 116.072 144.53 116.232 144.15 116.662C143.77 117.092 143.68 117.643 143.89 118.303C144.1 118.964 144.65 119.684 145.54 120.475Z" fill="#231F20"/>
<path d="M145.41 112.67L146.17 111.489L150.9 114.521C151.65 115.001 152.14 115.301 152.38 115.411C152.77 115.591 153.13 115.652 153.47 115.602C153.81 115.552 154.08 115.361 154.29 115.031C154.51 114.701 154.57 114.381 154.47 114.081C154.37 113.781 154.19 113.52 153.91 113.29C153.63 113.06 153.15 112.73 152.46 112.29L147.64 109.188L148.4 108.007L152.98 110.948C154.03 111.619 154.75 112.129 155.14 112.469C155.53 112.81 155.82 113.16 156.01 113.53C156.2 113.9 156.29 114.271 156.28 114.671C156.28 115.071 156.12 115.501 155.82 115.962C155.46 116.522 155.09 116.882 154.71 117.043C154.33 117.203 153.94 117.272 153.52 117.242C153.11 117.212 152.71 117.112 152.34 116.952C151.79 116.712 151.03 116.272 150.05 115.641L145.4 112.65L145.41 112.67Z" fill="#231F20"/>
<path d="M155.05 110.428L155.44 109.107C156.1 109.318 156.62 109.377 157.02 109.277C157.42 109.177 157.7 108.937 157.88 108.557C158.07 108.147 158.08 107.776 157.91 107.446C157.75 107.116 157.49 106.876 157.14 106.716C156.92 106.616 156.71 106.576 156.51 106.586C156.31 106.606 156.11 106.696 155.89 106.856C155.74 106.966 155.45 107.246 155.01 107.687C154.44 108.257 153.92 108.597 153.42 108.697C152.73 108.847 152 108.757 151.26 108.417C150.78 108.197 150.37 107.897 150.04 107.526C149.71 107.156 149.51 106.746 149.45 106.296C149.39 105.855 149.47 105.385 149.69 104.905C150.05 104.114 150.58 103.634 151.29 103.474C151.99 103.314 152.78 103.414 153.66 103.794L153.16 105.105C152.65 104.935 152.25 104.895 151.95 104.975C151.66 105.055 151.43 105.275 151.26 105.635C151.09 106.005 151.07 106.346 151.2 106.666C151.28 106.866 151.45 107.026 151.69 107.136C151.91 107.236 152.13 107.266 152.35 107.206C152.62 107.136 153.01 106.846 153.52 106.326C154.02 105.806 154.46 105.445 154.83 105.255C155.2 105.065 155.63 104.975 156.11 104.995C156.59 105.015 157.13 105.155 157.73 105.425C158.27 105.675 158.73 106.005 159.11 106.426C159.49 106.846 159.71 107.286 159.77 107.756C159.83 108.227 159.74 108.737 159.49 109.288C159.12 110.088 158.57 110.578 157.82 110.749C157.07 110.929 156.16 110.809 155.06 110.418L155.05 110.428Z" fill="#231F20"/>
<path d="M161.18 104.734L151.25 101.763L152.73 96.8296L154.41 97.3299L153.34 100.922L155.54 101.583L156.54 98.2406L158.21 98.7409L157.21 102.083L159.91 102.893L161.02 99.1709L162.69 99.6712L161.17 104.734H161.18Z" fill="#231F20"/>
<path d="M54.9303 62.4982C55.2003 62.8084 55.6203 63.399 56.1803 64.2395L54.5203 65.3598L54.8703 65.9603L55.2303 66.5608C55.0703 66.8209 54.5003 67.2214 53.5103 67.7818C53.3103 67.5316 53.1103 67.2411 52.9003 66.9209C52.7103 66.6407 52.5203 66.3205 52.3203 65.9803C52.4003 65.9603 52.5103 65.9202 52.6503 65.8401L53.1803 65.5401C53.5903 65.29 53.8203 65.1101 53.8803 65.01L53.8403 64.9196L53.5803 64.3695L53.1903 63.639L54.9203 62.4884L54.9303 62.4982ZM62.1303 63.6288L62.3403 63.7089L62.6803 63.8389L63.0503 64.0191L63.5403 62.8084L66.8803 64.0695L64.6703 70.0131C65.0703 70.4334 65.4203 70.9134 65.7103 71.4437C66.0003 71.974 66.2503 72.5644 66.4503 73.2148C66.6503 73.8653 66.7403 74.4858 66.7303 75.0861C66.7303 75.6865 66.6203 76.247 66.4303 76.7674C66.0703 77.728 65.5303 78.3583 64.8003 78.6685C64.0803 78.9686 63.2403 78.9483 62.2803 78.5981C61.8403 78.428 61.3703 78.1778 60.8903 77.8476C60.4103 77.5074 59.9403 77.0974 59.4703 76.6271C58.9303 76.0968 58.5203 75.5963 58.2303 75.136C57.9403 74.6657 57.7703 74.2256 57.7103 73.7953C57.8603 73.8553 58.0603 73.9753 58.2903 74.1754C58.4103 74.2755 58.5403 74.3956 58.6803 74.5257C58.8203 74.6558 58.9903 74.8359 59.2103 75.0461C59.8403 75.6965 60.4503 76.1266 61.0303 76.3467C61.7603 76.6169 62.4403 76.5669 63.0603 76.1767C63.3203 75.9865 63.5503 75.7467 63.7603 75.4765C63.9703 75.1963 64.1403 74.8661 64.2903 74.4759C64.4503 74.0356 64.6303 73.1449 64.8103 71.8141L64.7403 71.7642C64.2103 71.5641 63.6903 71.8143 63.1803 72.5147L62.7803 73.145C62.6003 73.4652 62.4303 73.8152 62.2903 74.1954C61.9403 73.9953 61.5903 73.7354 61.2403 73.4152C61.0503 73.2451 60.8603 73.0649 60.6503 72.8548C60.4403 72.6446 60.2303 72.4145 60.0203 72.1644L62.6003 65.2401C62.0803 65.1901 61.5503 65.1798 61.0203 65.2098C60.5203 65.2098 60.0003 65.2597 59.4503 65.3398L57.4903 63.4387C59.4803 63.1785 61.0203 63.2586 62.1303 63.6688V63.6288ZM68.2503 75.3461C68.6803 75.7863 68.9703 76.1569 69.1103 76.4571C69.0503 76.5572 68.6803 76.8171 68.0203 77.2374C68.1003 77.4775 68.2503 77.738 68.4803 78.0382C68.2403 78.4084 67.8503 78.6586 67.3203 78.8087L66.5203 77.7079C66.5203 77.7079 66.5603 77.6676 66.5803 77.6576C66.6703 77.5875 66.8203 77.4974 67.0103 77.3874C67.3203 77.2373 67.5003 77.1076 67.5403 76.9975C67.5403 76.9875 67.5403 76.9772 67.5403 76.9672C67.5203 76.8972 67.4903 76.8274 67.4503 76.7473L67.0703 76.077L67.6003 75.7164L68.2403 75.3461H68.2503Z" fill="#EB1C24"/>
<path d="M65.77 58.6759L69.4 61.5078L66.4 66.1303L63.34 64.1393L65.81 60.3366L65.79 60.297C64.94 60.0469 63.95 59.8567 62.8 59.7166L61.29 57.4852C61.47 57.4852 61.64 57.4852 61.79 57.5053C61.94 57.5153 62.15 57.5351 62.39 57.5551C62.58 57.5751 62.73 57.6052 62.83 57.6152C63.16 57.6552 63.42 57.7054 63.62 57.7354C64.02 57.8354 64.4 57.9652 64.76 58.1253C65.12 58.2854 65.46 58.4655 65.77 58.6657V58.6759ZM71.55 63.6688C71.93 64.2191 72.21 64.7699 72.39 65.3202C72.27 65.4303 72.02 65.54 71.64 65.67L70.82 65.9104L70.99 66.3506L71.26 67.001C70.83 67.3212 70.28 67.5116 69.6 67.5516L68.84 65.9002C69.3 65.8601 69.79 65.7204 70.32 65.4902C70.3 65.3401 70.24 65.1299 70.14 64.8497C70 64.5495 69.91 64.3392 69.89 64.2092L71.55 63.659V63.6688Z" fill="#EB1C24"/>
<path d="M74.1999 55.6236L73.5599 56.3741L74.1499 57.4851L74.7699 58.6255C75.2099 59.6862 75.2199 60.4667 74.7999 60.957C74.4399 61.3873 73.9099 61.8477 73.2299 62.3481C72.4699 62.8784 71.8499 63.1787 71.3799 63.2588C72.6899 61.7178 73.1299 59.7562 72.6799 57.3948C71.9199 58.1052 71.3899 58.5255 71.0899 58.6455C70.4699 58.9357 69.8399 58.796 69.1899 58.2556C68.8399 57.9555 68.4799 57.5751 68.1299 57.1148C67.7699 56.6545 67.4099 56.0942 67.0399 55.4438C66.1799 53.9229 65.9799 52.8821 66.4499 52.3318C66.7699 51.9515 67.5199 52.0015 68.6999 52.4818C68.8099 52.5318 68.9799 52.6119 69.2299 52.7419C69.3999 52.832 69.5799 52.9221 69.7699 53.0221C69.8399 53.0622 70.0099 53.1623 70.2899 53.3324C70.5699 53.5025 70.7999 53.6425 70.9799 53.7526L71.4099 53.2423L74.1899 55.6036L74.1999 55.6236ZM69.8099 54.9034C69.7299 54.8334 69.6299 54.7732 69.5199 54.7232C69.3999 54.6731 69.2499 54.643 69.0499 54.623C68.6999 54.553 68.4699 54.6034 68.3399 54.7535C68.3099 54.7835 68.2899 54.8432 68.2799 54.9333V55.1634C68.2699 55.3535 68.2799 55.4937 68.3399 55.5538C68.5099 55.6938 68.7399 55.7438 69.0199 55.6837C69.2499 55.6237 69.4599 55.5038 69.6399 55.3437C69.8199 55.1335 69.8799 54.9832 69.8199 54.8932L69.8099 54.9034Z" fill="#EB1C24"/>
<path d="M79.0301 51.3413L77.9001 52.362L75.4701 51.7415L76.1101 53.9628L73.4601 56.3542L71.0201 53.6428L73.6201 51.3012L68.6801 50.7909L66.8701 47.3588L69.9901 41.9954L70.5101 42.9361C70.7501 43.3764 70.9901 43.8366 71.2401 44.3169L69.0601 48.5896L72.4401 49.0398C73.8401 49.2299 74.9701 49.31 75.8601 49.28L76.5901 48.6196L79.0301 51.3313V51.3413Z" fill="#EB1C24"/>
<path d="M76.6701 41.6553L76.9001 44.4869L79.1601 47.2586C79.2801 47.4287 79.5401 47.909 79.9501 48.6995C80.3601 49.49 80.5601 49.9705 80.5701 50.1506L80.3101 50.5708L78.3601 51.9615L76.2401 48.9897L77.9001 47.799V47.7289L77.8401 47.649C77.2701 46.8585 76.6301 46.088 75.9201 45.3575C75.0301 44.467 74.2401 43.9466 73.5701 43.8065L73.2901 42.8359C73.2601 42.7159 73.2401 42.6057 73.2101 42.4856C73.1801 42.3655 73.1601 42.2556 73.1401 42.1456C72.9501 41.3351 72.9201 40.7846 73.0401 40.5044L73.3301 40.8848C73.5501 41.195 74.0501 41.395 74.8501 41.505C75.1501 41.545 75.4501 41.5651 75.7301 41.5751C75.9701 41.5751 76.2601 41.5651 76.5801 41.515L76.6601 41.6352L76.6701 41.6553Z" fill="#EB1C24"/>
<path d="M82.8004 43.9665C83.7404 45.5775 84.1704 47.0486 84.1004 48.3794L79.1904 41.5551C79.0604 41.375 78.8904 40.1942 78.6504 37.9928C80.7304 40.8046 82.1104 42.8058 82.7904 43.9765L82.8004 43.9665Z" fill="#EB1C24"/>
<path d="M97.6405 38.8835L97.7105 42.5557L91.4905 44.5169C90.2405 44.9171 89.2705 44.0467 88.6005 41.9054C88.3805 41.2049 88.2405 40.4143 88.1705 39.5238C88.0805 38.373 88.2005 37.6527 88.5305 37.3425C88.6005 37.5526 88.6705 37.8627 88.7505 38.2529C88.8305 38.6432 88.9105 38.9633 88.9805 39.2135C89.1205 39.6538 89.4005 40.0542 89.8205 40.4145C90.2805 40.8047 90.7405 40.9246 91.1805 40.7846L96.2605 39.1837L96.2805 39.1136C96.1805 38.7834 95.7105 38.1729 94.8705 37.2924L95.1105 34.4307C96.1805 35.5014 96.8005 36.3018 96.9705 36.8321L97.6205 38.9035L97.6405 38.8835ZM93.3905 33.4399C93.3205 33.7601 93.2405 34.0805 93.1505 34.4107C93.0605 34.7309 92.9405 35.0711 92.8105 35.4314C92.5705 35.4314 92.2505 35.3611 91.8505 35.231L90.9005 34.911C90.7205 35.2312 90.5505 35.6613 90.3705 36.2016L89.9905 36.1317L89.3305 35.9217C88.7705 35.7515 88.4605 35.6213 88.4205 35.5313C88.4005 35.4512 88.6005 34.8009 89.0505 33.5701C90.0605 34.0104 90.6405 34.2106 90.7905 34.1605L90.8405 34.0804L91.1105 33.53L91.4405 32.7695L93.3905 33.4399Z" fill="#EB1C24"/>
<path d="M102.971 41.6853L100.471 42.1055L98.1906 32.4793C98.1706 32.3392 98.2906 31.9089 98.5706 31.1985L99.1506 29.8378L101.231 38.283L102.371 38.0929L102.981 41.6853H102.971Z" fill="#EB1C24"/>
<path d="M107.291 36.7621L107.231 41.3651L101.731 41.7652L101.471 38.1331L106.001 37.8028L106.021 37.7627C105.711 36.9322 105.261 36.0216 104.681 35.031L105.541 32.4794C105.651 32.6195 105.741 32.7597 105.831 32.8898C105.911 33.0199 106.021 33.19 106.151 33.4101C106.241 33.5802 106.321 33.7102 106.361 33.8003C106.521 34.0904 106.651 34.3306 106.741 34.5107C106.901 34.8909 107.031 35.2713 107.121 35.6515C107.211 36.0318 107.271 36.4119 107.301 36.7821L107.291 36.7621ZM106.801 44.387C106.591 45.0274 106.321 45.5776 105.991 46.0579C105.831 46.0279 105.591 45.8979 105.261 45.6678L104.571 45.1575L104.321 45.5576L103.961 46.1581C103.451 46.008 102.971 45.6878 102.521 45.1775L103.371 43.5764C103.681 43.9166 104.091 44.2267 104.591 44.5069C104.701 44.3969 104.831 44.2267 104.991 43.9766C105.141 43.6764 105.261 43.4864 105.351 43.3964L106.791 44.387H106.801Z" fill="#EB1C24"/>
<path d="M114.71 37.7727C114.67 38.5332 114.57 39.2836 114.41 40.0241C114.33 40.4343 114.23 40.8147 114.13 41.1649C114.03 41.5152 113.89 41.9053 113.72 42.3256C112.96 44.3869 112.01 45.3875 110.89 45.3275C109.78 45.2774 108.58 44.9773 107.29 44.437L106.78 44.2066L106.73 44.1568L106.65 44.0066L108.38 43.8466C110.12 43.0961 111.41 42.3255 112.28 41.515C113.14 40.7145 113.6 39.884 113.64 39.0335L113.59 38.9534C113.19 39.7839 112.97 40.2042 112.95 40.2242C112.67 40.5944 112.25 40.7645 111.69 40.7345C110.61 40.6845 110.1 39.9541 110.17 38.5532C110.19 38.1129 110.27 37.6327 110.41 37.1224C110.55 36.6121 110.78 36.0116 111.1 35.3012C111.42 34.5907 111.74 34.0803 112.07 33.7401C112.39 33.3999 112.73 33.2398 113.09 33.2598L113.27 33.2899C114.32 34.2105 114.8 35.7014 114.69 37.7526L114.71 37.7727ZM113.17 37.5025C113.17 37.3424 113.17 37.2024 113.13 37.0723L113 36.7821C112.89 36.4919 112.73 36.3318 112.51 36.3018C112.36 36.3018 112.18 36.3919 111.97 36.582C111.76 36.7821 111.65 36.9523 111.64 37.1224C111.64 37.2424 111.74 37.3825 111.96 37.5626C112.17 37.6727 112.35 37.7427 112.52 37.7827C112.64 37.7827 112.85 37.7227 113.17 37.5826V37.5125V37.5025Z" fill="#EB1C24"/>
<path d="M119.011 42.2955L116.511 41.9054L117.391 32.0491C117.411 31.909 117.671 31.5387 118.161 30.9483L119.131 29.8478L118.441 38.5131L119.581 38.6932L119.021 42.2955H119.011Z" fill="#EB1C24"/>
<path d="M125.32 43.9367L123.75 43.5263C123.75 43.5263 123.63 43.6364 123.53 43.7665L123.36 44.0467C123.23 44.3168 123.08 44.4869 122.9 44.547L120.2 40.6446C120.12 40.7247 120.02 40.8647 119.91 41.0548L119.57 41.6853C119.44 42.0255 119.21 42.2055 118.87 42.2455L118.08 42.0354L119.01 38.5132L120.37 38.8735C120.43 38.8535 120.71 38.5532 121.21 37.9828C121.47 37.6726 121.72 37.4124 121.96 37.2123C122.17 37.0222 122.41 36.8423 122.68 36.6521C123.35 36.2219 124.01 36.0917 124.68 36.2718C124.94 36.3418 125.09 36.452 125.13 36.592C125.13 36.6421 125.13 36.7121 125.11 36.7821C125.1 36.8521 125.07 36.9623 125.03 37.1224C124.92 37.5227 124.92 38.0829 125.01 38.7834C125.1 39.4938 125.28 39.9741 125.53 40.2342L126.25 40.4245L125.32 43.9465V43.9367ZM123.31 39.5939L123.39 39.3037L123.41 39.1036C123.41 39.0136 123.41 38.9235 123.41 38.8334C123.42 38.6433 123.39 38.5232 123.33 38.4931L123.14 38.3932C123.03 38.3632 122.88 38.3632 122.69 38.3932C122.49 38.3832 122.36 38.393 122.3 38.4531C122.44 38.7633 122.78 39.1436 123.31 39.6039V39.5939Z" fill="#EB1C24"/>
<path d="M127.981 47.5989C127.721 47.859 127.481 48.0791 127.251 48.2592C127.141 48.3492 127.031 48.4393 126.911 48.5194C126.801 48.5994 126.671 48.6794 126.541 48.7495C126.401 48.6494 126.241 48.4294 126.061 48.0691C125.921 47.869 125.781 47.6189 125.641 47.3287L125.361 47.5087L124.671 47.969C124.281 47.6288 123.981 47.1184 123.771 46.458L125.241 45.3775C125.371 45.8378 125.601 46.2779 125.951 46.7282C126.101 46.7082 126.321 46.5983 126.591 46.3982C126.831 46.218 127.001 46.1079 127.101 46.0679L127.991 47.5989H127.981ZM129.701 45.7576L128.261 45.1972C127.951 45.0771 127.771 44.747 127.731 44.2166L127.771 43.3262L126.571 44.5369L124.321 43.6565L125.651 40.2642L128.141 41.2448C128.521 40.7044 128.801 40.1941 128.991 39.7138L129.191 39.2736C129.231 39.2035 129.271 39.1436 129.291 39.1136C129.321 39.0836 129.371 39.0434 129.441 38.9834C129.711 38.7732 130.321 38.3931 131.261 37.8728L130.791 39.0835L130.561 39.5838L130.361 39.964L129.951 40.8446C129.701 41.485 129.851 41.9153 130.411 42.1355L131.031 42.3756L129.701 45.7676V45.7576Z" fill="#EB1C24"/>
<path d="M135.501 48.8597L134.161 48.1393L133.911 45.6477L132.041 47.0084L128.891 45.3274L130.611 42.1155L133.691 43.7664L132.491 38.9433L135.101 36.0717L141.201 37.1825L140.491 37.9928C140.161 38.373 139.811 38.7534 139.431 39.1436L134.671 38.5432L135.401 41.8854C135.701 43.2662 136.011 44.3569 136.341 45.1775L137.211 45.6377L135.491 48.8597H135.501Z" fill="#EB1C24"/>
<path d="M143.851 43.3763L141.261 44.547L139.421 47.6089C139.301 47.7791 138.941 48.1893 138.331 48.8397C137.721 49.4901 137.341 49.8504 137.181 49.9104L136.691 49.8103L134.721 48.4493L136.791 45.4474L138.471 46.6083L138.541 46.5783L138.601 46.4981C139.151 45.6976 139.661 44.8373 140.101 43.9167C140.631 42.776 140.851 41.8554 140.761 41.175L141.581 40.5845C141.681 40.5145 141.781 40.4545 141.881 40.3945C141.981 40.3344 142.081 40.2742 142.181 40.2142C142.881 39.7639 143.381 39.5439 143.691 39.5639L143.431 39.974C143.221 40.2842 143.191 40.8347 143.361 41.6152C143.431 41.9154 143.511 42.1954 143.601 42.4656C143.681 42.6957 143.791 42.9559 143.941 43.2461L143.861 43.3663L143.851 43.3763Z" fill="#EB1C24"/>
<path d="M143.71 49.8904C142.51 51.3213 141.27 52.2219 140 52.6121L144.76 45.6778C144.88 45.4977 145.94 44.9272 147.93 43.9666C145.99 46.8784 144.58 48.8598 143.71 49.8904Z" fill="#EB1C24"/>
<path d="M151.41 65.3701L150.6 64.2694C150.46 64.0692 150.47 63.7393 150.64 63.279C150.72 63.0689 150.8 62.8884 150.89 62.7283C150.98 62.5883 151.09 62.4681 151.22 62.378L149.47 62.8085L146.19 58.3658C145.4 57.3051 145.91 56.1045 147.72 54.7737C147.94 54.6136 148.1 54.5034 148.2 54.4434C148.3 54.3833 148.49 54.2732 148.79 54.1031C149.08 53.933 149.48 53.7428 149.99 53.5226C151.17 52.9823 151.94 52.8222 152.28 53.0323L152.12 53.1525C151.93 53.2926 151.62 53.4725 151.18 53.7027C150.74 53.9228 150.43 54.113 150.24 54.2531C149.87 54.5332 149.58 54.9237 149.4 55.424C149.21 55.9243 149.26 56.3646 149.54 56.7349L152.57 60.837C152.67 60.837 152.88 60.7274 153.22 60.5273C153.55 60.3271 153.95 60.0569 154.41 59.7167L157.03 59.6566L155.76 60.5971L154 61.6476C153.74 61.8377 153.65 62.0778 153.74 62.358L154.37 63.2086L151.44 65.3701H151.41ZM157.58 57.6553C157.41 57.7154 157.03 57.7656 156.44 57.7956C155.85 57.8256 155.5 57.8155 155.41 57.7355C155.36 57.6654 155.34 56.9948 155.36 55.724L154.79 55.6942L153.93 55.6541C153.88 55.454 153.84 55.0939 153.82 54.5636C153.77 53.9532 153.8 53.6127 153.89 53.5427C154.01 53.4526 154.73 53.4526 156.05 53.5427C156 53.6627 155.96 53.9831 155.94 54.5035C155.92 54.9938 155.94 55.2836 156.02 55.3937C156.04 55.4037 156.05 55.4137 156.07 55.4137C156.08 55.4137 156.12 55.4237 156.19 55.4337L156.74 55.4841L157.59 55.5539V57.6451L157.58 57.6553Z" fill="#EB1C24"/>
<path d="M150.59 69.7727C150.23 69.8027 149.9 69.8027 149.6 69.7727C149.46 69.7727 149.32 69.7527 149.18 69.7326C149.04 69.7126 148.9 69.6928 148.75 69.6628C148.71 69.4927 148.75 69.2224 148.85 68.8322C148.88 68.592 148.94 68.3118 149.04 68.0016L148.71 67.9517L147.89 67.8316C147.83 67.3112 147.94 66.7409 148.23 66.1005L150.05 66.2808C149.84 66.701 149.71 67.1913 149.68 67.7617C149.81 67.8517 150.04 67.9115 150.38 67.9415C150.68 67.9715 150.88 68.0016 150.98 68.0416L150.61 69.7727H150.59ZM153.1 69.5528L152.4 68.1716C152.25 67.8714 152.34 67.5111 152.67 67.0909L153.29 66.4508L151.59 66.551L150.5 64.3895L153.76 62.7483L154.96 65.1399C155.6 64.9898 156.15 64.7999 156.62 64.5697L157.06 64.3792C157.14 64.3492 157.2 64.3394 157.24 64.3294C157.28 64.3294 157.35 64.3294 157.44 64.3294C157.79 64.3494 158.49 64.4796 159.54 64.7197L158.38 65.3002L157.88 65.52L157.47 65.67L156.58 66.0404C155.96 66.3506 155.79 66.7709 156.06 67.3112L156.36 67.9117L153.1 69.5528Z" fill="#EB1C24"/>
<path d="M151.25 73.0751C151.18 73.1051 150.87 72.9747 150.34 72.7145C150.21 72.6445 150.1 72.5847 150.01 72.5347C149.92 72.4847 149.84 72.4245 149.78 72.3745C149.66 72.2944 149.57 72.2141 149.51 72.1341C149.49 72.084 149.51 71.9844 149.54 71.8243C149.58 71.6642 149.65 71.464 149.75 71.2038C149.85 70.9436 149.94 70.7434 150.03 70.6033C150.11 70.4632 150.18 70.3732 150.23 70.3331C150.33 70.2931 150.68 70.3932 151.26 70.6234C151.84 70.8535 152.15 71.0133 152.19 71.1134C152.2 71.1434 152.06 71.4739 151.78 72.1043C151.49 72.7347 151.32 73.0648 151.26 73.0849L151.25 73.0751ZM158.95 71.6039C158.31 71.8441 157.53 72.0441 156.61 72.2142L155.47 72.4546C155.27 72.5046 155.07 72.5448 154.89 72.5748C154.71 72.6048 154.48 72.6447 154.22 72.6847L152.73 68.6719L156.14 67.4011L157.34 70.6131L157.48 70.5833C157.78 70.4732 158.19 70.1731 158.71 69.6828C159.2 69.2425 159.53 68.8624 159.71 68.5322L162.57 68.6622C161.52 70.1131 160.31 71.0936 158.95 71.6039Z" fill="#EB1C24"/>
<defs>
<linearGradient id="paint0_linear_244_4359" x1="0.209961" y1="83.5012" x2="308.31" y2="83.5012" gradientUnits="userSpaceOnUse">
<stop stop-color="#ED801B"/>
<stop offset="0.38" stop-color="#E57114"/>
<stop offset="1" stop-color="#D45107"/>
</linearGradient>
</defs>
</svg>
