<svg width="222" height="131" viewBox="0 0 222 131" fill="none" xmlns="http://www.w3.org/2000/svg">
<path d="M14.6006 7.27979C14.1506 6.62979 13.5606 6.15962 12.8106 5.85962C12.0606 5.55962 11.2806 5.40967 10.4506 5.40967C9.96062 5.40967 9.49064 5.46959 9.03064 5.57959C8.57064 5.68959 8.16065 5.86963 7.79065 6.11963C7.42065 6.36963 7.13063 6.67982 6.90063 7.06982C6.68063 7.45982 6.57062 7.91972 6.57062 8.45972C6.57062 9.25972 6.85064 9.8798 7.41064 10.2998C7.97064 10.7198 8.66065 11.0897 9.48065 11.3997C10.3107 11.7097 11.2106 12.0098 12.1906 12.2998C13.1706 12.5898 14.0706 12.9898 14.9006 13.4998C15.7306 14.0098 16.4206 14.6898 16.9706 15.5398C17.5206 16.3898 17.8106 17.5097 17.8106 18.9197C17.8106 20.1897 17.5806 21.2998 17.1106 22.2498C16.6406 23.1998 16.0106 23.9796 15.2206 24.6096C14.4306 25.2296 13.5106 25.6998 12.4606 26.0198C11.4106 26.3298 10.3106 26.4897 9.15063 26.4897C7.68063 26.4897 6.26063 26.2398 4.90063 25.7498C3.54063 25.2598 2.37063 24.4298 1.39062 23.2698L4.57062 20.1897C5.08062 20.9697 5.76064 21.5798 6.59064 22.0098C7.43064 22.4398 8.31061 22.6597 9.25061 22.6597C9.74061 22.6597 10.2306 22.5897 10.7206 22.4597C11.2106 22.3297 11.6606 22.1296 12.0606 21.8596C12.4606 21.5896 12.7806 21.2496 13.0306 20.8396C13.2806 20.4296 13.4006 19.9497 13.4006 19.4197C13.4006 18.5497 13.1206 17.8797 12.5606 17.4097C12.0006 16.9397 11.3106 16.5497 10.4906 16.2197C9.6706 15.8897 8.76064 15.5898 7.78064 15.2998C6.80064 15.0098 5.90062 14.6096 5.07062 14.1096C4.24062 13.6096 3.55061 12.9396 3.00061 12.0996C2.44061 11.2596 2.16064 10.1397 2.16064 8.73975C2.16064 7.50975 2.41064 6.44981 2.91064 5.55981C3.41064 4.66981 4.07062 3.9296 4.88062 3.3396C5.69062 2.7496 6.63059 2.30978 7.67059 2.01978C8.72059 1.72978 9.79062 1.5896 10.8806 1.5896C12.1306 1.5896 13.3406 1.77967 14.5106 2.15967C15.6806 2.53967 16.7306 3.15979 17.6706 4.02979L14.5906 7.27979H14.6006Z" fill="white"/>
<path d="M21.6904 17.8496C21.6904 16.5796 21.9204 15.4296 22.3804 14.3896C22.8404 13.3496 23.4604 12.4697 24.2404 11.7297C25.0204 10.9897 25.9504 10.4298 27.0204 10.0198C28.0904 9.61978 29.2304 9.41968 30.4304 9.41968C31.6304 9.41968 32.7705 9.61978 33.8405 10.0198C34.9105 10.4198 35.8404 10.9897 36.6204 11.7297C37.4004 12.4697 38.0205 13.3496 38.4805 14.3896C38.9405 15.4296 39.1704 16.5796 39.1704 17.8496C39.1704 19.1196 38.9405 20.2698 38.4805 21.3098C38.0205 22.3498 37.4004 23.2297 36.6204 23.9697C35.8404 24.7097 34.9105 25.2697 33.8405 25.6797C32.7705 26.0797 31.6304 26.2798 30.4304 26.2798C29.2304 26.2798 28.0904 26.0797 27.0204 25.6797C25.9504 25.2797 25.0204 24.7097 24.2404 23.9697C23.4604 23.2297 22.8404 22.3498 22.3804 21.3098C21.9204 20.2698 21.6904 19.1196 21.6904 17.8496ZM25.7104 17.8496C25.7104 18.4696 25.8205 19.0797 26.0305 19.6597C26.2405 20.2397 26.5505 20.7497 26.9705 21.1997C27.3805 21.6497 27.8804 21.9998 28.4604 22.2698C29.0404 22.5398 29.7004 22.6697 30.4304 22.6697C31.1604 22.6697 31.8205 22.5398 32.4005 22.2698C32.9805 21.9998 33.4804 21.6497 33.8904 21.1997C34.3004 20.7497 34.6104 20.2397 34.8304 19.6597C35.0504 19.0797 35.1505 18.4796 35.1505 17.8496C35.1505 17.2196 35.0404 16.6198 34.8304 16.0398C34.6204 15.4598 34.3104 14.9498 33.8904 14.4998C33.4804 14.0498 32.9805 13.6997 32.4005 13.4297C31.8205 13.1597 31.1604 13.0298 30.4304 13.0298C29.7004 13.0298 29.0404 13.1597 28.4604 13.4297C27.8804 13.6997 27.3805 14.0498 26.9705 14.4998C26.5605 14.9498 26.2505 15.4598 26.0305 16.0398C25.8205 16.6198 25.7104 17.2196 25.7104 17.8496Z" fill="white"/>
<path d="M43.0703 4.36963C43.0703 3.71963 43.3103 3.15969 43.7903 2.67969C44.2703 2.19969 44.8803 1.95972 45.6103 1.95972C46.3403 1.95972 46.9603 2.18966 47.4703 2.64966C47.9803 3.10966 48.2203 3.67963 48.2203 4.36963C48.2203 5.05963 47.9703 5.6396 47.4703 6.0896C46.9703 6.5396 46.3503 6.77979 45.6103 6.77979C44.8703 6.77979 44.2703 6.53981 43.7903 6.05981C43.3103 5.57981 43.0703 5.01963 43.0703 4.36963ZM43.6403 9.82959H47.6503V25.8896H43.6403V9.82959Z" fill="white"/>
<path d="M53 0.5896H57.01V25.8796H53V0.5896Z" fill="white"/>
<path d="M73.2402 2.19971H81.4703C82.6103 2.19971 83.7103 2.30978 84.7603 2.51978C85.8203 2.72978 86.7603 3.08962 87.5903 3.60962C88.4203 4.12962 89.0702 4.80969 89.5602 5.67969C90.0502 6.54969 90.3002 7.64975 90.3002 8.98975C90.3002 10.7097 89.8302 12.1498 88.8802 13.3098C87.9302 14.4698 86.5803 15.1697 84.8203 15.4197L91.1102 25.8896H86.0303L80.5403 15.8496H77.4603V25.8896H73.2502V2.20972L73.2402 2.19971ZM80.7303 12.2297C81.3303 12.2297 81.9303 12.1997 82.5403 12.1497C83.1403 12.0897 83.6903 11.9598 84.2003 11.7498C84.7103 11.5398 85.1102 11.2098 85.4202 10.7798C85.7302 10.3498 85.8903 9.73972 85.8903 8.95972C85.8903 8.26972 85.7403 7.70979 85.4603 7.28979C85.1703 6.86979 84.7903 6.5496 84.3203 6.3396C83.8503 6.1296 83.3303 5.98968 82.7603 5.91968C82.1903 5.84968 81.6403 5.81982 81.1003 5.81982H77.4503V12.2397H80.7303V12.2297Z" fill="white"/>
<path d="M97.8306 19.2598C97.9606 20.4598 98.4306 21.3998 99.2306 22.0698C100.031 22.7398 101.001 23.0698 102.141 23.0698C103.141 23.0698 103.991 22.8597 104.671 22.4497C105.351 22.0397 105.951 21.5196 106.461 20.8896L109.341 23.0598C108.401 24.2198 107.351 25.0398 106.201 25.5298C105.041 26.0198 103.821 26.2698 102.551 26.2698C101.351 26.2698 100.211 26.0697 99.1406 25.6697C98.0706 25.2697 97.1405 24.6997 96.3605 23.9597C95.5805 23.2197 94.9605 22.3398 94.5005 21.2998C94.0405 20.2598 93.8105 19.1096 93.8105 17.8396C93.8105 16.5696 94.0405 15.4196 94.5005 14.3796C94.9605 13.3396 95.5805 12.4597 96.3605 11.7197C97.1405 10.9797 98.0706 10.4198 99.1406 10.0098C100.211 9.60977 101.351 9.40967 102.551 9.40967C103.671 9.40967 104.691 9.60975 105.611 9.98975C106.531 10.3797 107.331 10.9397 107.991 11.6797C108.651 12.4197 109.161 13.3297 109.531 14.4097C109.901 15.4897 110.081 16.7396 110.081 18.1396V19.2397H97.8406L97.8306 19.2598ZM106.061 16.2498C106.041 15.0698 105.671 14.1397 104.961 13.4597C104.251 12.7797 103.251 12.4397 101.981 12.4397C100.781 12.4397 99.8205 12.7897 99.1205 13.4797C98.4205 14.1697 97.9906 15.0998 97.8306 16.2598H106.061V16.2498Z" fill="white"/>
<path d="M114.32 9.82959H118.13V12.3396H118.2C118.56 11.5796 119.13 10.9098 119.92 10.3198C120.71 9.72982 121.78 9.42969 123.11 9.42969C125.63 9.42969 127.3 10.4197 128.13 12.4097C128.71 11.3797 129.43 10.6297 130.3 10.1497C131.17 9.66966 132.21 9.42969 133.41 9.42969C134.48 9.42969 135.38 9.60973 136.12 9.96973C136.86 10.3297 137.45 10.8197 137.91 11.4397C138.37 12.0597 138.7 12.7996 138.9 13.6296C139.1 14.4696 139.2 15.3598 139.2 16.3198V25.8896H135.19V16.7898C135.19 16.2998 135.15 15.8296 135.06 15.3696C134.97 14.9096 134.81 14.5097 134.59 14.1697C134.37 13.8197 134.07 13.5496 133.69 13.3496C133.31 13.1496 132.82 13.0498 132.22 13.0498C131.62 13.0498 131.07 13.1697 130.63 13.3997C130.19 13.6297 129.84 13.9496 129.56 14.3396C129.28 14.7296 129.08 15.1797 128.96 15.6797C128.84 16.1797 128.78 16.6897 128.78 17.1997V25.8997H124.77V16.3296C124.77 15.3296 124.56 14.5297 124.13 13.9397C123.71 13.3497 123 13.0498 122.02 13.0498C121.35 13.0498 120.79 13.1596 120.33 13.3796C119.87 13.5996 119.49 13.8998 119.19 14.2798C118.89 14.6598 118.67 15.0896 118.54 15.5796C118.41 16.0696 118.34 16.5796 118.34 17.1196V25.8796H114.33V9.81982L114.32 9.82959Z" fill="white"/>
<path d="M147.47 19.2598C147.6 20.4598 148.07 21.3998 148.87 22.0698C149.67 22.7398 150.64 23.0698 151.78 23.0698C152.78 23.0698 153.63 22.8597 154.31 22.4497C154.99 22.0397 155.59 21.5196 156.1 20.8896L158.98 23.0598C158.04 24.2198 156.99 25.0398 155.84 25.5298C154.68 26.0198 153.46 26.2698 152.19 26.2698C150.99 26.2698 149.85 26.0697 148.78 25.6697C147.71 25.2697 146.78 24.6997 146 23.9597C145.22 23.2197 144.6 22.3398 144.14 21.2998C143.68 20.2598 143.45 19.1096 143.45 17.8396C143.45 16.5696 143.68 15.4196 144.14 14.3796C144.6 13.3396 145.22 12.4597 146 11.7197C146.78 10.9797 147.71 10.4198 148.78 10.0098C149.85 9.60977 150.99 9.40967 152.19 9.40967C153.31 9.40967 154.33 9.60975 155.25 9.98975C156.17 10.3797 156.97 10.9397 157.63 11.6797C158.29 12.4197 158.8 13.3297 159.17 14.4097C159.54 15.4897 159.72 16.7396 159.72 18.1396V19.2397H147.48L147.47 19.2598ZM155.7 16.2498C155.68 15.0698 155.31 14.1397 154.6 13.4597C153.89 12.7797 152.89 12.4397 151.62 12.4397C150.42 12.4397 149.46 12.7897 148.76 13.4797C148.06 14.1697 147.63 15.0998 147.47 16.2598H155.7V16.2498Z" fill="white"/>
<path d="M176.84 23.4697H176.77C176.19 24.4497 175.41 25.1596 174.43 25.6096C173.45 26.0596 172.39 26.2798 171.25 26.2798C170 26.2798 168.89 26.0596 167.92 25.6296C166.95 25.1996 166.12 24.5996 165.43 23.8396C164.74 23.0796 164.21 22.1897 163.86 21.1597C163.5 20.1297 163.32 19.0296 163.32 17.8496C163.32 16.6696 163.51 15.5598 163.89 14.5398C164.27 13.5098 164.8 12.6196 165.48 11.8596C166.16 11.0996 166.98 10.4998 167.94 10.0698C168.9 9.63982 169.95 9.41968 171.08 9.41968C171.84 9.41968 172.51 9.49966 173.09 9.64966C173.67 9.79966 174.18 10.0098 174.63 10.2498C175.08 10.4998 175.46 10.7598 175.77 11.0398C176.08 11.3198 176.34 11.5896 176.54 11.8596H176.64V0.5896H180.65V25.8796H176.84V23.4697ZM167.34 17.8496C167.34 18.4696 167.45 19.0797 167.66 19.6597C167.87 20.2397 168.18 20.7497 168.6 21.1997C169.01 21.6497 169.51 21.9998 170.09 22.2698C170.67 22.5398 171.33 22.6697 172.06 22.6697C172.79 22.6697 173.45 22.5398 174.03 22.2698C174.61 21.9998 175.11 21.6497 175.52 21.1997C175.93 20.7497 176.24 20.2397 176.46 19.6597C176.68 19.0797 176.78 18.4796 176.78 17.8496C176.78 17.2196 176.67 16.6198 176.46 16.0398C176.25 15.4598 175.94 14.9498 175.52 14.4998C175.11 14.0498 174.61 13.6997 174.03 13.4297C173.45 13.1597 172.79 13.0298 172.06 13.0298C171.33 13.0298 170.67 13.1597 170.09 13.4297C169.51 13.6997 169.01 14.0498 168.6 14.4998C168.19 14.9498 167.88 15.4598 167.66 16.0398C167.45 16.6198 167.34 17.2196 167.34 17.8496Z" fill="white"/>
<path d="M185.4 4.36963C185.4 3.71963 185.64 3.15969 186.12 2.67969C186.6 2.19969 187.21 1.95972 187.94 1.95972C188.67 1.95972 189.29 2.18966 189.8 2.64966C190.31 3.10966 190.55 3.67963 190.55 4.36963C190.55 5.05963 190.3 5.6396 189.8 6.0896C189.3 6.5396 188.68 6.77979 187.94 6.77979C187.2 6.77979 186.6 6.53981 186.12 6.05981C185.64 5.57981 185.4 5.01963 185.4 4.36963ZM185.97 9.82959H189.98V25.8896H185.97V9.82959Z" fill="white"/>
<path d="M205.311 23.6697H205.211C204.631 24.5897 203.891 25.2497 203.001 25.6597C202.111 26.0697 201.131 26.2798 200.061 26.2798C199.321 26.2798 198.601 26.1797 197.901 25.9797C197.201 25.7797 196.571 25.4796 196.031 25.0796C195.481 24.6796 195.041 24.1798 194.711 23.5698C194.381 22.9698 194.211 22.2697 194.211 21.4597C194.211 20.5897 194.371 19.8497 194.681 19.2397C194.991 18.6297 195.411 18.1097 195.931 17.6997C196.451 17.2897 197.061 16.9597 197.751 16.7097C198.441 16.4597 199.161 16.2797 199.911 16.1597C200.661 16.0397 201.411 15.9597 202.171 15.9297C202.931 15.8997 203.641 15.8796 204.311 15.8796H205.311V15.4497C205.311 14.4497 204.961 13.6897 204.271 13.1897C203.581 12.6897 202.701 12.4397 201.631 12.4397C200.781 12.4397 199.991 12.5896 199.251 12.8896C198.511 13.1896 197.881 13.5996 197.341 14.1096L195.231 11.9998C196.121 11.0898 197.161 10.4298 198.361 10.0298C199.551 9.62979 200.781 9.42969 202.061 9.42969C203.201 9.42969 204.161 9.55981 204.941 9.80981C205.721 10.0698 206.371 10.3898 206.881 10.7998C207.391 11.1998 207.791 11.6697 208.071 12.1897C208.351 12.7097 208.551 13.2398 208.671 13.7798C208.791 14.3198 208.871 14.8296 208.891 15.3396C208.911 15.8396 208.921 16.2797 208.921 16.6597V25.8896H205.311V23.6797V23.6697ZM205.071 18.6897H204.231C203.671 18.6897 203.051 18.7098 202.361 18.7598C201.671 18.8098 201.021 18.9096 200.401 19.0796C199.791 19.2496 199.271 19.4898 198.841 19.8198C198.411 20.1498 198.211 20.5997 198.211 21.1697C198.211 21.5497 198.291 21.8696 198.461 22.1196C198.631 22.3796 198.841 22.5898 199.111 22.7698C199.381 22.9498 199.681 23.0797 200.011 23.1497C200.341 23.2297 200.681 23.2698 201.011 23.2698C202.391 23.2698 203.411 22.9398 204.071 22.2798C204.731 21.6198 205.061 20.7196 205.061 19.5896V18.6897H205.071Z" fill="white"/>
<path d="M221.031 19.3596H212.771V15.9497H221.031V19.3596Z" fill="white"/>
<path d="M0.750427 47.8496V44.4397H4.06042V39.7898H8.07043V44.4397H12.4904V47.8496H8.07043V54.8696C8.07043 55.6696 8.22045 56.3098 8.52045 56.7798C8.82045 57.2498 9.42042 57.4797 10.3104 57.4797C10.6704 57.4797 11.0605 57.4396 11.4805 57.3596C11.9005 57.2796 12.2405 57.1497 12.4805 56.9797V60.3596C12.0605 60.5596 11.5404 60.6998 10.9204 60.7798C10.3004 60.8598 9.77042 60.8997 9.30042 60.8997C8.23041 60.8997 7.35041 60.7798 6.67041 60.5498C5.99041 60.3198 5.45042 59.9597 5.06042 59.4797C4.67042 58.9997 4.40044 58.3997 4.26044 57.6897C4.11044 56.9797 4.04047 56.1497 4.04047 55.2097V47.8496H0.730469H0.750427Z" fill="white"/>
<path d="M15.8408 38.9797C15.8408 38.3297 16.0808 37.7698 16.5608 37.2898C17.0408 36.8098 17.6508 36.5698 18.3808 36.5698C19.1108 36.5698 19.7308 36.7998 20.2408 37.2598C20.7508 37.7198 20.9908 38.2897 20.9908 38.9797C20.9908 39.6697 20.7408 40.2497 20.2408 40.6997C19.7408 41.1497 19.1208 41.3896 18.3808 41.3896C17.6408 41.3896 17.0408 41.1497 16.5608 40.6697C16.0808 40.1897 15.8408 39.6297 15.8408 38.9797ZM16.4108 44.4397H20.4208V60.4998H16.4108V44.4397Z" fill="white"/>
<path d="M24.9004 52.4597C24.9004 51.1897 25.1304 50.0398 25.5904 48.9998C26.0504 47.9598 26.6704 47.0796 27.4504 46.3396C28.2304 45.5996 29.1604 45.0396 30.2304 44.6296C31.3004 44.2296 32.4404 44.0298 33.6404 44.0298C34.8404 44.0298 35.9804 44.2296 37.0504 44.6296C38.1204 45.0296 39.0504 45.5996 39.8304 46.3396C40.6104 47.0796 41.2304 47.9598 41.6904 48.9998C42.1504 50.0398 42.3804 51.1897 42.3804 52.4597C42.3804 53.7297 42.1504 54.8797 41.6904 55.9197C41.2304 56.9597 40.6104 57.8396 39.8304 58.5796C39.0504 59.3196 38.1204 59.8798 37.0504 60.2898C35.9804 60.6898 34.8404 60.8896 33.6404 60.8896C32.4404 60.8896 31.3004 60.6898 30.2304 60.2898C29.1604 59.8898 28.2304 59.3196 27.4504 58.5796C26.6704 57.8396 26.0504 56.9597 25.5904 55.9197C25.1304 54.8797 24.9004 53.7297 24.9004 52.4597ZM28.9203 52.4597C28.9203 53.0797 29.0304 53.6898 29.2404 54.2698C29.4504 54.8498 29.7604 55.3598 30.1804 55.8098C30.5904 56.2598 31.0903 56.6096 31.6703 56.8796C32.2503 57.1496 32.9104 57.2798 33.6404 57.2798C34.3704 57.2798 35.0304 57.1496 35.6104 56.8796C36.1904 56.6096 36.6904 56.2598 37.1004 55.8098C37.5104 55.3598 37.8204 54.8498 38.0404 54.2698C38.2604 53.6898 38.3604 53.0897 38.3604 52.4597C38.3604 51.8297 38.2504 51.2297 38.0404 50.6497C37.8304 50.0697 37.5204 49.5596 37.1004 49.1096C36.6904 48.6596 36.1904 48.3098 35.6104 48.0398C35.0304 47.7698 34.3704 47.6396 33.6404 47.6396C32.9104 47.6396 32.2503 47.7698 31.6703 48.0398C31.0903 48.3098 30.5904 48.6596 30.1804 49.1096C29.7704 49.5596 29.4604 50.0697 29.2404 50.6497C29.0304 51.2297 28.9203 51.8297 28.9203 52.4597Z" fill="white"/>
<path d="M46.7803 44.4397H50.5903V47.0198H50.6603C51.0403 46.2198 51.6203 45.5197 52.4003 44.9297C53.1803 44.3397 54.2403 44.0398 55.5803 44.0398C56.6503 44.0398 57.5602 44.2196 58.3102 44.5796C59.0602 44.9396 59.6602 45.4097 60.1302 45.9897C60.6002 46.5697 60.9302 47.2398 61.1302 47.9998C61.3302 48.7598 61.4302 49.5496 61.4302 50.3796V60.5198H57.4202V52.3896C57.4202 51.9396 57.4003 51.4497 57.3503 50.8997C57.3003 50.3497 57.1902 49.8396 57.0002 49.3596C56.8102 48.8796 56.5102 48.4797 56.1102 48.1597C55.7102 47.8397 55.1603 47.6697 54.4703 47.6697C53.7803 47.6697 53.2403 47.7798 52.7803 47.9998C52.3203 48.2198 51.9403 48.5197 51.6403 48.8997C51.3403 49.2797 51.1202 49.7097 50.9902 50.1997C50.8602 50.6897 50.7903 51.1997 50.7903 51.7397V60.4998H46.7803V44.4397Z" fill="white"/>
<path d="M77.5908 36.8098H83.1808L94.6508 54.4097H94.7208V36.8098H98.9308V60.4897H93.5808L81.8708 42.3296H81.8008V60.4897H77.5908V36.8098Z" fill="white"/>
<path d="M103.721 52.4597C103.721 51.1897 103.951 50.0398 104.411 48.9998C104.871 47.9598 105.491 47.0796 106.271 46.3396C107.051 45.5996 107.981 45.0396 109.051 44.6296C110.121 44.2296 111.261 44.0298 112.461 44.0298C113.661 44.0298 114.801 44.2296 115.871 44.6296C116.941 45.0296 117.871 45.5996 118.651 46.3396C119.431 47.0796 120.051 47.9598 120.511 48.9998C120.971 50.0398 121.201 51.1897 121.201 52.4597C121.201 53.7297 120.971 54.8797 120.511 55.9197C120.051 56.9597 119.431 57.8396 118.651 58.5796C117.871 59.3196 116.941 59.8798 115.871 60.2898C114.801 60.6898 113.661 60.8896 112.461 60.8896C111.261 60.8896 110.121 60.6898 109.051 60.2898C107.981 59.8898 107.051 59.3196 106.271 58.5796C105.491 57.8396 104.871 56.9597 104.411 55.9197C103.951 54.8797 103.721 53.7297 103.721 52.4597ZM107.731 52.4597C107.731 53.0797 107.841 53.6898 108.051 54.2698C108.261 54.8498 108.571 55.3598 108.991 55.8098C109.401 56.2598 109.901 56.6096 110.481 56.8796C111.061 57.1496 111.721 57.2798 112.451 57.2798C113.181 57.2798 113.841 57.1496 114.421 56.8796C115.001 56.6096 115.501 56.2598 115.911 55.8098C116.321 55.3598 116.631 54.8498 116.851 54.2698C117.071 53.6898 117.171 53.0897 117.171 52.4597C117.171 51.8297 117.061 51.2297 116.851 50.6497C116.641 50.0697 116.331 49.5596 115.911 49.1096C115.501 48.6596 115.001 48.3098 114.421 48.0398C113.841 47.7698 113.181 47.6396 112.451 47.6396C111.721 47.6396 111.061 47.7698 110.481 48.0398C109.901 48.3098 109.401 48.6596 108.991 49.1096C108.581 49.5596 108.271 50.0697 108.051 50.6497C107.841 51.2297 107.731 51.8297 107.731 52.4597Z" fill="white"/>
<path d="M125.591 44.4397H129.601V46.9797H129.671C130.121 46.0397 130.751 45.3198 131.581 44.8098C132.401 44.2998 133.351 44.0398 134.421 44.0398C134.671 44.0398 134.911 44.0596 135.141 44.1096C135.371 44.1596 135.611 44.2098 135.861 44.2798V48.1597C135.531 48.0697 135.201 47.9997 134.871 47.9397C134.551 47.8797 134.231 47.8596 133.921 47.8596C132.981 47.8596 132.231 48.0296 131.661 48.3796C131.091 48.7296 130.661 49.1198 130.361 49.5698C130.061 50.0198 129.861 50.4597 129.761 50.9097C129.661 51.3597 129.611 51.6897 129.611 51.9097V60.5098H125.601V44.4497L125.591 44.4397Z" fill="white"/>
<path d="M137.401 47.8496V44.4397H140.711V39.7898H144.721V44.4397H149.141V47.8496H144.721V54.8696C144.721 55.6696 144.871 56.3098 145.171 56.7798C145.471 57.2498 146.071 57.4797 146.961 57.4797C147.321 57.4797 147.711 57.4396 148.131 57.3596C148.551 57.2796 148.891 57.1497 149.131 56.9797V60.3596C148.711 60.5596 148.191 60.6998 147.571 60.7798C146.951 60.8598 146.421 60.8997 145.951 60.8997C144.881 60.8997 144.001 60.7798 143.321 60.5498C142.641 60.3198 142.101 59.9597 141.711 59.4797C141.321 58.9997 141.051 58.3997 140.911 57.6897C140.761 56.9797 140.691 56.1497 140.691 55.2097V47.8496H137.381H137.401Z" fill="white"/>
<path d="M157 46.6797H157.07C157.38 46.0097 157.93 45.3996 158.73 44.8596C159.52 44.3096 160.54 44.0398 161.79 44.0398C162.86 44.0398 163.77 44.2196 164.52 44.5796C165.27 44.9396 165.87 45.4097 166.34 45.9897C166.81 46.5697 167.14 47.2398 167.34 47.9998C167.54 48.7598 167.64 49.5496 167.64 50.3796V60.5198H163.63V52.3896C163.63 51.9396 163.61 51.4497 163.56 50.8997C163.51 50.3497 163.4 49.8396 163.21 49.3596C163.02 48.8796 162.72 48.4797 162.32 48.1597C161.92 47.8397 161.37 47.6697 160.68 47.6697C159.99 47.6697 159.45 47.7798 158.99 47.9998C158.53 48.2198 158.15 48.5197 157.85 48.8997C157.55 49.2797 157.33 49.7097 157.2 50.1997C157.07 50.6897 157 51.1997 157 51.7397V60.4998H152.99V35.2097H157V46.6797Z" fill="white"/>
<path d="M200.361 54.9097L205.481 60.4998H200.291L197.781 57.7898C196.821 58.9298 195.791 59.7598 194.701 60.2998C193.611 60.8398 192.301 61.0996 190.791 61.0996C189.741 61.0996 188.731 60.9497 187.761 60.6497C186.791 60.3497 185.941 59.8998 185.201 59.3098C184.461 58.7198 183.871 57.9896 183.431 57.1396C182.981 56.2796 182.761 55.2797 182.761 54.1497C182.761 53.3497 182.891 52.6097 183.161 51.9297C183.431 51.2497 183.791 50.6298 184.251 50.0598C184.711 49.4898 185.251 48.9898 185.871 48.5498C186.491 48.1198 187.161 47.7598 187.881 47.4998C187.501 47.0798 187.151 46.6598 186.831 46.2598C186.511 45.8598 186.221 45.4498 185.981 45.0198C185.731 44.5998 185.541 44.1397 185.391 43.6497C185.241 43.1597 185.171 42.6198 185.171 42.0398C185.171 41.0798 185.351 40.2298 185.721 39.4998C186.091 38.7598 186.581 38.1597 187.211 37.6797C187.831 37.1997 188.561 36.8396 189.381 36.5896C190.211 36.3396 191.061 36.2197 191.961 36.2197C192.861 36.2197 193.701 36.3298 194.501 36.5498C195.301 36.7698 196.011 37.1098 196.621 37.5698C197.231 38.0298 197.721 38.6096 198.091 39.3296C198.461 40.0396 198.641 40.8796 198.641 41.8396C198.641 42.5796 198.511 43.2496 198.241 43.8596C197.971 44.4696 197.621 45.0298 197.171 45.5298C196.721 46.0298 196.221 46.4897 195.651 46.8997C195.081 47.3097 194.511 47.6597 193.931 47.9497L197.741 52.0598L200.381 48.0498H205.101L200.351 54.9097H200.361ZM190.421 49.8496C190.021 50.0996 189.631 50.3496 189.251 50.5996C188.871 50.8596 188.531 51.1397 188.211 51.4497C187.891 51.7597 187.651 52.1198 187.461 52.5198C187.271 52.9198 187.181 53.3796 187.181 53.8896C187.181 54.3996 187.281 54.8796 187.481 55.3296C187.681 55.7796 187.951 56.1597 188.301 56.4697C188.651 56.7797 189.041 57.0297 189.491 57.2097C189.941 57.3897 190.421 57.4797 190.931 57.4797C191.841 57.4797 192.651 57.2297 193.341 56.7397C194.031 56.2497 194.681 55.7096 195.281 55.1296L190.431 49.8396L190.421 49.8496ZM192.031 39.8198C191.251 39.8198 190.581 40.0397 190.021 40.4697C189.461 40.8997 189.181 41.4797 189.181 42.1897C189.181 42.4997 189.251 42.8096 189.381 43.1096C189.511 43.4096 189.691 43.7098 189.921 44.0098C190.141 44.3098 190.381 44.5896 190.641 44.8596C190.901 45.1296 191.161 45.3796 191.431 45.6296C191.761 45.4496 192.121 45.2498 192.501 45.0098C192.881 44.7798 193.231 44.5097 193.551 44.2097C193.871 43.9097 194.141 43.5797 194.341 43.2197C194.541 42.8597 194.641 42.4598 194.641 42.0198C194.641 41.3698 194.381 40.8397 193.871 40.4297C193.361 40.0197 192.741 39.8098 192.031 39.8098V39.8198Z" fill="white"/>
<path d="M14.6006 76.4998C14.1506 75.8498 13.5606 75.3796 12.8106 75.0796C12.0606 74.7796 11.2806 74.6296 10.4506 74.6296C9.96062 74.6296 9.49064 74.6898 9.03064 74.7998C8.57064 74.9098 8.16065 75.0896 7.79065 75.3396C7.42065 75.5896 7.13063 75.8998 6.90063 76.2898C6.68063 76.6798 6.57062 77.1397 6.57062 77.6797C6.57062 78.4797 6.85064 79.0998 7.41064 79.5198C7.97064 79.9398 8.66065 80.3096 9.48065 80.6196C10.3107 80.9296 11.2106 81.2298 12.1906 81.5198C13.1706 81.8098 14.0706 82.2097 14.9006 82.7197C15.7306 83.2297 16.4206 83.9098 16.9706 84.7598C17.5206 85.6098 17.8106 86.7296 17.8106 88.1396C17.8106 89.4096 17.5806 90.5197 17.1106 91.4697C16.6406 92.4197 16.0106 93.1996 15.2206 93.8296C14.4306 94.4496 13.5106 94.9197 12.4606 95.2397C11.4106 95.5497 10.3106 95.7097 9.15063 95.7097C7.68063 95.7097 6.26063 95.4597 4.90063 94.9697C3.54063 94.4797 2.37063 93.6497 1.39062 92.4897L4.57062 89.4097C5.08062 90.1897 5.76064 90.7997 6.59064 91.2297C7.43064 91.6597 8.31061 91.8796 9.25061 91.8796C9.74061 91.8796 10.2306 91.8097 10.7206 91.6797C11.2106 91.5497 11.6606 91.3496 12.0606 91.0796C12.4606 90.8096 12.7806 90.4698 13.0306 90.0598C13.2806 89.6498 13.4006 89.1696 13.4006 88.6396C13.4006 87.7696 13.1206 87.0996 12.5606 86.6296C12.0006 86.1596 11.3106 85.7697 10.4906 85.4397C9.6706 85.1097 8.76064 84.8098 7.78064 84.5198C6.80064 84.2298 5.90062 83.8296 5.07062 83.3296C4.24062 82.8296 3.55061 82.1598 3.00061 81.3198C2.44061 80.4798 2.16064 79.3597 2.16064 77.9597C2.16064 76.7297 2.41064 75.6698 2.91064 74.7798C3.41064 73.8898 4.07062 73.1498 4.88062 72.5598C5.69062 71.9698 6.63059 71.5297 7.67059 71.2397C8.72059 70.9497 9.79062 70.8098 10.8806 70.8098C12.1306 70.8098 13.3406 70.9996 14.5106 71.3796C15.6806 71.7596 16.7306 72.3798 17.6706 73.2498L14.5906 76.4998H14.6006Z" fill="white"/>
<path d="M21.6904 87.0698C21.6904 85.7998 21.9204 84.6496 22.3804 83.6096C22.8404 82.5696 23.4604 81.6897 24.2404 80.9497C25.0204 80.2097 25.9504 79.6497 27.0204 79.2397C28.0904 78.8397 29.2304 78.6396 30.4304 78.6396C31.6304 78.6396 32.7705 78.8397 33.8405 79.2397C34.9105 79.6397 35.8404 80.2097 36.6204 80.9497C37.4004 81.6897 38.0205 82.5696 38.4805 83.6096C38.9405 84.6496 39.1704 85.7998 39.1704 87.0698C39.1704 88.3398 38.9405 89.4898 38.4805 90.5298C38.0205 91.5698 37.4004 92.4497 36.6204 93.1897C35.8404 93.9297 34.9105 94.4897 33.8405 94.8997C32.7705 95.2997 31.6304 95.4998 30.4304 95.4998C29.2304 95.4998 28.0904 95.2997 27.0204 94.8997C25.9504 94.4997 25.0204 93.9297 24.2404 93.1897C23.4604 92.4497 22.8404 91.5698 22.3804 90.5298C21.9204 89.4898 21.6904 88.3398 21.6904 87.0698ZM25.7104 87.0698C25.7104 87.6898 25.8205 88.2996 26.0305 88.8796C26.2405 89.4596 26.5505 89.9697 26.9705 90.4197C27.3805 90.8697 27.8804 91.2197 28.4604 91.4897C29.0404 91.7597 29.7004 91.8896 30.4304 91.8896C31.1604 91.8896 31.8205 91.7597 32.4005 91.4897C32.9805 91.2197 33.4804 90.8697 33.8904 90.4197C34.3004 89.9697 34.6104 89.4596 34.8304 88.8796C35.0504 88.2996 35.1505 87.6998 35.1505 87.0698C35.1505 86.4398 35.0404 85.8398 34.8304 85.2598C34.6204 84.6798 34.3104 84.1697 33.8904 83.7197C33.4804 83.2697 32.9805 82.9197 32.4005 82.6497C31.8205 82.3797 31.1604 82.2498 30.4304 82.2498C29.7004 82.2498 29.0404 82.3797 28.4604 82.6497C27.8804 82.9197 27.3805 83.2697 26.9705 83.7197C26.5605 84.1697 26.2505 84.6798 26.0305 85.2598C25.8205 85.8398 25.7104 86.4398 25.7104 87.0698Z" fill="white"/>
<path d="M58.2203 95.0996H54.4103V92.5198H54.3403C53.9603 93.3198 53.3803 94.0196 52.6003 94.6096C51.8203 95.1996 50.7603 95.4998 49.4203 95.4998C48.3503 95.4998 47.4403 95.3297 46.6903 94.9797C45.9403 94.6297 45.3403 94.1698 44.8703 93.5698C44.4003 92.9798 44.0703 92.3098 43.8703 91.5498C43.6703 90.7898 43.5703 89.9997 43.5703 89.1697V79.0298H47.5803V87.1597C47.5803 87.6097 47.6003 88.0997 47.6503 88.6497C47.6903 89.1997 47.8103 89.7097 48.0003 90.1897C48.1903 90.6697 48.4803 91.0696 48.8703 91.3896C49.2603 91.7096 49.8103 91.8796 50.5303 91.8796C51.2003 91.8796 51.7603 91.7698 52.2203 91.5498C52.6803 91.3298 53.0603 91.0297 53.3603 90.6497C53.6603 90.2697 53.8803 89.8396 54.0103 89.3496C54.1403 88.8596 54.2103 88.3498 54.2103 87.8098V79.0498H58.2203V95.1096V95.0996Z" fill="white"/>
<path d="M61.5708 82.4597V79.0498H64.8808V74.3997H68.8908V79.0498H73.3108V82.4597H68.8908V89.4797C68.8908 90.2797 69.0408 90.9196 69.3408 91.3896C69.6408 91.8596 70.2408 92.0896 71.1308 92.0896C71.4908 92.0896 71.8808 92.0497 72.3008 91.9697C72.7208 91.8897 73.0608 91.7596 73.3008 91.5896V94.9697C72.8808 95.1697 72.3608 95.3096 71.7408 95.3896C71.1208 95.4696 70.5908 95.5098 70.1208 95.5098C69.0508 95.5098 68.1708 95.3897 67.4908 95.1597C66.8108 94.9297 66.2708 94.5696 65.8808 94.0896C65.4908 93.6096 65.2208 93.0098 65.0808 92.2998C64.9308 91.5898 64.8608 90.7598 64.8608 89.8198V82.4597H61.5508H61.5708Z" fill="white"/>
<path d="M81.1701 81.2898H81.2401C81.5501 80.6198 82.1001 80.0097 82.9001 79.4697C83.6901 78.9197 84.7101 78.6497 85.9601 78.6497C87.0301 78.6497 87.9401 78.8297 88.6901 79.1897C89.4401 79.5497 90.0401 80.0196 90.5101 80.5996C90.9801 81.1796 91.3101 81.8496 91.5101 82.6096C91.7101 83.3696 91.8101 84.1597 91.8101 84.9897V95.1296H87.8001V86.9998C87.8001 86.5498 87.7802 86.0598 87.7302 85.5098C87.6802 84.9598 87.5701 84.4497 87.3801 83.9697C87.1901 83.4897 86.8901 83.0898 86.4901 82.7698C86.0901 82.4498 85.5402 82.2798 84.8502 82.2798C84.1602 82.2798 83.6202 82.3896 83.1602 82.6096C82.7002 82.8296 82.3201 83.1298 82.0201 83.5098C81.7201 83.8898 81.5001 84.3198 81.3701 84.8098C81.2401 85.2998 81.1701 85.8096 81.1701 86.3496V95.1096H77.1602V69.8198H81.1701V81.2898Z" fill="white"/>
<path d="M105.32 71.4197H109.94L114.39 88.4797H114.46L119.78 71.4197H123.93L129.15 88.4797H129.22L133.87 71.4197H138.15L131.26 95.0996H127.25L121.76 77.0698H121.69L116.2 95.0996H112.32L105.33 71.4197H105.32Z" fill="white"/>
<path d="M143.69 88.4797C143.82 89.6797 144.29 90.6198 145.09 91.2898C145.89 91.9598 146.86 92.2898 148 92.2898C149 92.2898 149.85 92.0797 150.53 91.6697C151.21 91.2597 151.81 90.7396 152.32 90.1096L155.2 92.2798C154.26 93.4398 153.21 94.2598 152.06 94.7498C150.9 95.2398 149.68 95.4897 148.41 95.4897C147.21 95.4897 146.07 95.2896 145 94.8896C143.93 94.4896 143 93.9197 142.22 93.1797C141.44 92.4397 140.82 91.5598 140.36 90.5198C139.9 89.4798 139.67 88.3298 139.67 87.0598C139.67 85.7898 139.9 84.6396 140.36 83.5996C140.82 82.5596 141.44 81.6797 142.22 80.9397C143 80.1997 143.93 79.6397 145 79.2297C146.07 78.8297 147.21 78.6296 148.41 78.6296C149.53 78.6296 150.55 78.8297 151.47 79.2097C152.39 79.5997 153.19 80.1597 153.85 80.8997C154.51 81.6397 155.02 82.5496 155.39 83.6296C155.76 84.7096 155.94 85.9596 155.94 87.3596V88.4597H143.7L143.69 88.4797ZM151.92 85.4697C151.9 84.2897 151.53 83.3597 150.82 82.6797C150.11 81.9997 149.11 81.6597 147.84 81.6597C146.64 81.6597 145.68 82.0097 144.98 82.6997C144.28 83.3897 143.85 84.3197 143.69 85.4797H151.92V85.4697Z" fill="white"/>
<path d="M168.91 83.4897C168.13 82.3997 167.08 81.8496 165.77 81.8496C165.23 81.8496 164.71 81.9798 164.2 82.2498C163.69 82.5198 163.43 82.9498 163.43 83.5498C163.43 84.0398 163.64 84.3996 164.06 84.6196C164.48 84.8396 165.02 85.0297 165.67 85.1897C166.32 85.3497 167.01 85.5097 167.76 85.6797C168.51 85.8497 169.2 86.0997 169.85 86.4497C170.5 86.7997 171.03 87.2696 171.46 87.8696C171.88 88.4696 172.09 89.2996 172.09 90.3496C172.09 91.3096 171.88 92.1198 171.47 92.7698C171.06 93.4298 170.52 93.9596 169.86 94.3596C169.2 94.7596 168.46 95.0497 167.64 95.2297C166.81 95.4097 165.99 95.4998 165.16 95.4998C163.91 95.4998 162.76 95.3197 161.71 94.9597C160.66 94.5997 159.72 93.9598 158.9 93.0198L161.58 90.5098C162.09 91.0898 162.64 91.5597 163.24 91.9297C163.84 92.2997 164.55 92.4797 165.4 92.4797C165.69 92.4797 165.99 92.4496 166.3 92.3796C166.61 92.3096 166.9 92.1998 167.17 92.0498C167.44 91.8998 167.66 91.6997 167.82 91.4597C167.99 91.2297 168.07 90.9496 168.07 90.6396C168.07 90.0796 167.86 89.6697 167.43 89.3997C167 89.1297 166.47 88.9098 165.82 88.7498C165.17 88.5798 164.48 88.4298 163.73 88.2798C162.98 88.1398 162.29 87.8996 161.64 87.5796C160.99 87.2596 160.46 86.8097 160.03 86.2297C159.6 85.6497 159.39 84.8498 159.39 83.8198C159.39 82.9298 159.57 82.1498 159.94 81.4998C160.31 80.8398 160.79 80.2996 161.4 79.8796C162 79.4596 162.69 79.1397 163.47 78.9397C164.25 78.7397 165.04 78.6396 165.85 78.6396C166.92 78.6396 167.98 78.8197 169.03 79.1897C170.08 79.5597 170.93 80.1896 171.57 81.0796L168.89 83.4897H168.91Z" fill="white"/>
<path d="M174 82.4597V79.0498H177.31V74.3997H181.32V79.0498H185.74V82.4597H181.32V89.4797C181.32 90.2797 181.47 90.9196 181.77 91.3896C182.07 91.8596 182.67 92.0896 183.56 92.0896C183.92 92.0896 184.31 92.0497 184.73 91.9697C185.15 91.8897 185.49 91.7596 185.73 91.5896V94.9697C185.31 95.1697 184.79 95.3096 184.17 95.3896C183.55 95.4696 183.02 95.5098 182.55 95.5098C181.48 95.5098 180.6 95.3897 179.92 95.1597C179.24 94.9297 178.7 94.5696 178.31 94.0896C177.92 93.6096 177.65 93.0098 177.51 92.2998C177.36 91.5898 177.29 90.7598 177.29 89.8198V82.4597H173.98H174Z" fill="white"/>
<path d="M2.99023 106.03H7.20026V116.07H7.40027L17.2003 106.03H22.8903L11.8203 116.97L23.6302 129.72H17.7103L7.44025 118.08H7.21027V129.72H3.00024V106.04L2.99023 106.03Z" fill="white"/>
<path d="M40.8609 129.71H37.0509V127.13H36.981C36.601 127.93 36.0209 128.63 35.2409 129.22C34.4609 129.81 33.4009 130.11 32.0609 130.11C30.9909 130.11 30.0809 129.94 29.3309 129.59C28.5809 129.24 27.9809 128.78 27.5109 128.18C27.0409 127.59 26.7109 126.92 26.5109 126.16C26.3109 125.4 26.2109 124.61 26.2109 123.78V113.64H30.2209V121.77C30.2209 122.22 30.241 122.71 30.291 123.26C30.331 123.81 30.4509 124.32 30.6409 124.8C30.8309 125.28 31.1209 125.68 31.5109 126C31.9009 126.32 32.4509 126.49 33.1709 126.49C33.8409 126.49 34.4009 126.38 34.8609 126.16C35.3209 125.94 35.7009 125.64 36.0009 125.26C36.3009 124.88 36.5209 124.45 36.6509 123.96C36.7809 123.47 36.851 122.96 36.851 122.42V113.66H40.8609V129.72V129.71Z" fill="white"/>
<path d="M43.9102 113.65H48.2601L51.7401 124.89H51.8101L55.0501 113.65H59.4001L62.8801 124.89H62.9501L66.3001 113.65H70.3502L64.9001 129.71H60.9201L57.1101 118.74H57.0402L53.6602 129.71H49.5101L43.9201 113.65H43.9102Z" fill="white"/>
<path d="M83.4106 127.5H83.3105C82.7305 128.42 81.9906 129.08 81.1006 129.49C80.2106 129.9 79.2306 130.11 78.1606 130.11C77.4206 130.11 76.7005 130.01 76.0005 129.81C75.3005 129.61 74.6706 129.31 74.1306 128.91C73.5806 128.51 73.1405 128.01 72.8105 127.4C72.4805 126.8 72.3105 126.1 72.3105 125.29C72.3105 124.42 72.4706 123.68 72.7806 123.07C73.0906 122.46 73.5106 121.94 74.0306 121.53C74.5506 121.12 75.1606 120.79 75.8506 120.54C76.5406 120.29 77.2606 120.11 78.0106 119.99C78.7606 119.87 79.5106 119.79 80.2706 119.76C81.0306 119.73 81.7406 119.71 82.4106 119.71H83.4106V119.28C83.4106 118.28 83.0605 117.52 82.3705 117.02C81.6805 116.52 80.8006 116.27 79.7306 116.27C78.8806 116.27 78.0906 116.42 77.3506 116.72C76.6106 117.02 75.9806 117.43 75.4406 117.94L73.3306 115.83C74.2206 114.92 75.2606 114.26 76.4606 113.86C77.6506 113.46 78.8806 113.26 80.1606 113.26C81.3006 113.26 82.2606 113.39 83.0406 113.64C83.8206 113.9 84.4706 114.22 84.9806 114.63C85.4906 115.03 85.8905 115.5 86.1705 116.02C86.4505 116.54 86.6506 117.07 86.7706 117.61C86.8906 118.15 86.9705 118.66 86.9905 119.17C87.0105 119.67 87.0206 120.11 87.0206 120.49V129.72H83.4106V127.51V127.5ZM83.1805 122.52H82.3406C81.7806 122.52 81.1606 122.54 80.4706 122.59C79.7806 122.64 79.1306 122.74 78.5106 122.91C77.9006 123.08 77.3806 123.32 76.9506 123.65C76.5206 123.98 76.3206 124.43 76.3206 125C76.3206 125.38 76.4006 125.7 76.5706 125.95C76.7406 126.21 76.9506 126.42 77.2206 126.6C77.4906 126.78 77.7905 126.91 78.1205 126.98C78.4505 127.06 78.7905 127.1 79.1205 127.1C80.5005 127.1 81.5205 126.77 82.1805 126.11C82.8405 125.45 83.1705 124.55 83.1705 123.42V122.52H83.1805Z" fill="white"/>
<path d="M91.5107 108.2C91.5107 107.55 91.7508 106.99 92.2308 106.51C92.7108 106.03 93.3207 105.79 94.0507 105.79C94.7807 105.79 95.4008 106.02 95.9108 106.48C96.4208 106.94 96.6608 107.51 96.6608 108.2C96.6608 108.89 96.4108 109.47 95.9108 109.92C95.4108 110.37 94.7907 110.61 94.0507 110.61C93.3107 110.61 92.7108 110.37 92.2308 109.89C91.7508 109.41 91.5107 108.85 91.5107 108.2ZM92.0807 113.65H96.0908V129.71H92.0807V113.65Z" fill="white"/>
<path d="M99.5004 117.07V113.66H102.81V109.01H106.82V113.66H111.24V117.07H106.82V124.09C106.82 124.89 106.97 125.53 107.27 126C107.57 126.47 108.17 126.7 109.06 126.7C109.42 126.7 109.81 126.66 110.23 126.58C110.65 126.5 110.99 126.37 111.23 126.2V129.58C110.81 129.78 110.29 129.92 109.67 130C109.05 130.08 108.52 130.12 108.05 130.12C106.98 130.12 106.1 130 105.42 129.77C104.74 129.54 104.2 129.18 103.81 128.7C103.42 128.22 103.15 127.62 103.01 126.91C102.86 126.2 102.79 125.37 102.79 124.43V117.07H99.4805H99.5004Z" fill="white"/>
</svg>
