<svg width="49" height="83" viewBox="0 0 49 83" fill="none" xmlns="http://www.w3.org/2000/svg">
<path d="M25.9805 40.447C32.6605 35.2638 37.9905 28.4294 41.2905 20.4044C41.4405 20.5545 41.7405 20.8547 42.0405 21.1549L42.1205 21.235C42.8705 22.0655 43.6205 23.0361 44.3005 23.9367C49.1805 30.9911 50.0005 40.3069 46.6305 48.1918C45.6505 50.5233 44.3005 52.5445 42.6505 54.4257C43.1805 50.143 41.7505 46.3206 37.8505 44.1392C36.6505 43.4588 35.4505 43.0087 34.1705 42.5584C31.2405 41.808 29.5205 41.3577 27.4205 40.8274C27.0405 40.7473 26.5905 40.6772 26.2205 40.5271C26.0705 40.4471 25.9905 40.447 25.9905 40.447H25.9805Z" fill="#868D9A"/>
<path d="M4.29004 82.2632C5.04004 73.7078 8.71999 65.5927 13.74 58.6884C18.39 52.3044 24.54 47.051 31.6 43.5989C32.35 43.2186 33.93 42.4683 34 42.4683C35.28 42.9185 36.5501 43.449 37.6801 44.0493C41.6601 46.2307 43.01 50.0531 42.48 54.3358C39.1 58.2382 34.53 61.1701 29.95 63.5716C23.42 67.0237 16.59 69.275 10.97 74.158C8.71997 76.3394 5.79004 79.4114 4.29004 82.2632Z" fill="#868D9A"/>
<path d="M23.1201 42.5484C16.4401 47.7317 11.1102 54.566 7.81016 62.591C7.66016 62.4409 7.36016 62.1407 7.06016 61.8405L6.98009 61.7604C6.23009 60.9299 5.48015 59.9593 4.80015 59.0588C-0.0798464 52.0044 -0.899924 42.6885 2.47008 34.8036C3.45008 32.5522 4.80006 30.4507 6.45006 28.6496C5.92006 32.9323 7.3501 36.7547 11.2501 38.9361C12.4501 39.6165 13.6502 40.0669 14.9302 40.5171C17.8602 41.2676 19.5802 41.7179 21.6802 42.2482C22.0602 42.3282 22.5101 42.3983 22.8801 42.5484H23.1101H23.1201Z" fill="#868D9A"/>
<path d="M44.7304 0.722168C43.9804 9.27752 40.3005 17.3927 35.2805 24.297C30.6305 30.751 24.4804 35.9342 17.3504 39.4664C16.6004 39.8466 15.0204 40.597 14.9504 40.597C13.6704 40.1467 12.4004 39.6165 11.2704 39.0162C7.29044 36.8348 5.94039 33.0124 6.47039 28.7297C9.85039 24.8272 14.4204 21.8954 19.0004 19.4939C25.5304 16.0418 32.3604 13.7903 37.9804 8.90722C40.3104 6.65581 43.2304 3.57395 44.7304 0.722168Z" fill="#868D9A"/>
</svg>
