<svg width="27" height="27" viewBox="0 0 27 27" fill="none" xmlns="http://www.w3.org/2000/svg">
<path d="M13.2896 0.299884C19.4996 0.199884 25.0895 4.96988 26.1995 11.1899C27.4195 18.0299 22.8196 25.4899 14.8696 26.5499C12.1196 26.9199 9.47961 26.4699 7.01961 25.1299C6.90961 25.0699 6.78953 25.0199 6.68953 24.9499C6.16953 24.5799 5.63963 24.5599 5.03963 24.7699C4.01963 25.1299 2.97954 25.4299 1.94954 25.7599C1.74954 25.8199 1.54957 25.8799 1.34957 25.9199C1.17957 25.9599 1.00965 25.7799 1.05965 25.6199C1.13965 25.2999 1.23956 24.9799 1.33956 24.6599C1.62956 23.7899 1.90957 22.9199 2.22957 22.0699C2.43957 21.5199 2.40954 21.0499 2.06954 20.5399C1.53954 19.7399 1.12954 18.8699 0.819539 17.9699C-1.97046 9.98989 3.11964 1.81988 11.1696 0.459883C11.8596 0.339883 12.5796 0.359886 13.2796 0.309886L13.2896 0.299884Z" fill="#EB801B"/>
</svg>
