<svg width="17" height="15" viewBox="0 0 17 15" fill="none" xmlns="http://www.w3.org/2000/svg">
<path d="M12.2902 14.86C12.0802 14.83 11.7902 14.81 11.5102 14.73C8.90016 14.02 6.51014 12.94 4.61014 10.93C3.34014 9.58998 2.22016 8.15998 1.38016 6.51998C0.810157 5.41998 0.560148 4.25998 0.870148 3.01998C1.05015 2.26998 1.43021 1.63998 1.93021 1.06998C2.31021 0.649978 2.79014 0.439978 3.36014 0.409978C4.01014 0.379978 4.50015 0.56998 4.75015 1.21998C5.08015 2.06998 5.43018 2.91998 5.78018 3.75998C5.98018 4.23998 5.88011 4.65998 5.58011 5.04998C5.41011 5.27998 5.23018 5.50998 5.03018 5.72998C4.68018 6.11998 4.6402 6.51998 4.9202 6.97998C6.0902 8.87998 7.67013 10.3 9.73013 11.17C10.3501 11.43 10.5602 11.38 11.0402 10.85C11.3502 10.51 11.6202 10.14 11.9102 9.78998C12.1902 9.46998 12.5302 9.37998 12.9202 9.55998C13.8202 9.98998 14.7201 10.43 15.6101 10.87C16.0401 11.08 16.1801 11.45 16.1201 11.91C16.0301 12.68 15.7501 13.35 15.1201 13.85C14.3101 14.49 13.3902 14.83 12.2702 14.86H12.2902Z" fill="white"/>
</svg>
