<svg width="32" height="33" viewBox="0 0 32 33" fill="none" xmlns="http://www.w3.org/2000/svg">
<path d="M16.1599 32.1098C13.8099 32.1598 11.6699 31.6898 9.64991 30.7198C8.82991 30.3198 8.08989 30.3198 7.25989 30.5998C5.32989 31.2498 3.37982 31.8498 1.43982 32.4698C1.11982 32.5698 0.809862 32.6698 0.479862 32.7498C0.189862 32.8198 0.00984746 32.6098 0.0898475 32.2998C0.219847 31.8598 0.359891 31.4298 0.509891 30.9898C1.07989 29.3398 1.64984 27.6898 2.20984 26.0398C2.24984 25.9198 2.28985 25.7998 2.33985 25.6898C2.65985 24.9998 2.60984 24.3698 2.20984 23.6798C1.56984 22.5998 1.17992 21.4098 0.909916 20.1898C-0.380084 14.3398 1.1599 9.2998 5.3899 5.1398C8.0199 2.5598 11.2599 1.1698 14.9799 0.839805C22.3599 0.169805 29.0899 5.00981 31.1299 11.6098C33.8899 20.5398 28.6599 29.4698 19.8699 31.6998C18.6199 32.0198 17.3399 32.1898 16.1399 32.1198L16.1599 32.1098Z" fill="white"/>
</svg>
