<svg width="27" height="27" viewBox="0 0 27 27" fill="none" xmlns="http://www.w3.org/2000/svg">
<path d="M13.2901 0.300128C19.5001 0.200128 25.09 4.97013 26.2 11.1901C27.42 18.0301 22.8201 25.4901 14.8701 26.5501C12.1201 26.9201 9.4801 26.4701 7.0201 25.1301C6.9101 25.0701 6.79002 25.0201 6.69002 24.9501C6.17002 24.5801 5.64012 24.5601 5.04012 24.7701C4.02012 25.1301 2.98003 25.4301 1.95003 25.7601C1.75003 25.8201 1.55006 25.8801 1.35006 25.9201C1.18006 25.9601 1.01014 25.7801 1.06014 25.6201C1.14014 25.3001 1.24005 24.9801 1.34005 24.6601C1.63005 23.7901 1.91006 22.9201 2.23006 22.0701C2.44006 21.5201 2.41003 21.0501 2.07003 20.5401C1.54003 19.7401 1.13003 18.8701 0.820027 17.9701C-1.96997 9.99013 3.12012 1.82013 11.1701 0.460128C11.8601 0.340128 12.5801 0.36013 13.2801 0.31013L13.2901 0.300128Z" fill="#F1801B"/>
</svg>
