<svg width="54" height="54" viewBox="0 0 54 54" fill="none" xmlns="http://www.w3.org/2000/svg">
<path d="M9.90989 16.0601C8.98989 15.2201 8.0999 14.47 7.2999 13.64C5.9899 12.29 5.97991 10.99 7.23991 9.66004C8.38991 8.46004 9.55994 7.28001 10.7699 6.13001C11.9999 4.97001 13.5099 4.81001 14.4899 6.13001C16.4299 8.75001 18.5099 9.12995 21.3099 7.56995C22.1599 7.08995 22.6199 6.86005 22.6099 5.80005C22.5899 0.740052 22.6799 0.689945 27.7799 0.689945C28.6899 0.689945 29.5999 0.659964 30.4999 0.709964C32.0199 0.799964 33.1899 1.72994 32.9399 3.18994C32.3499 6.60994 33.8399 8.33999 36.9399 9.23999C37.6999 9.45999 38.1699 9.65997 38.7499 8.96997C39.3299 8.27997 39.9999 7.65004 40.6699 7.04004C41.8699 5.95004 43.1599 5.88996 44.3199 6.95996C45.6499 8.18996 46.9399 9.48006 48.1699 10.8101C49.1899 11.9201 49.1499 13.21 48.1299 14.35C47.3899 15.18 46.4999 15.88 45.8299 16.74C45.5499 17.1 45.4999 17.77 45.5699 18.26C45.6599 18.84 46.0199 19.3699 46.2299 19.9399C46.8566 21.6199 48.0966 22.4633 49.9499 22.47C52.7699 22.47 53.4899 23.2099 53.4899 26.07C53.4899 27.43 53.5199 28.79 53.4899 30.15C53.4399 31.9 52.4699 33.06 50.7499 32.82C47.7899 32.42 45.8699 33.2299 45.2099 36.32C45.0999 36.84 44.7099 37.29 44.3499 37.98C45.1899 38.75 46.0799 39.5 46.8999 40.32C48.3099 41.75 48.2899 43.06 46.8699 44.52C45.8899 45.53 44.8799 46.53 43.8799 47.52C42.2399 49.14 40.9499 49.1701 39.3499 47.5601C38.4999 46.7001 37.7199 45.78 36.9999 44.99C35.0899 45.71 33.4499 46.33 31.6899 46.99C31.6899 48.13 31.7099 49.33 31.6899 50.53C31.6499 52.34 30.6899 53.32 28.8599 53.36C27.2499 53.4 25.6299 53.4 24.0199 53.36C22.2699 53.31 21.0199 52.33 21.2699 50.66C21.7299 47.49 20.5999 45.6701 17.5399 44.9301C17.1599 44.8401 16.8299 44.56 16.0599 43.96C15.3099 44.89 14.6199 45.89 13.7899 46.75C12.4399 48.13 11.0699 48.13 9.69993 46.82C8.52993 45.7 7.38995 44.57 6.27995 43.4C5.04995 42.1 4.88989 40.62 6.28989 39.58C8.78989 37.72 9.23994 35.76 7.76994 33.01C7.20994 31.96 6.79992 31.5499 5.62992 31.57C1.06992 31.6299 0.799905 31.3099 0.799905 26.6899C0.799905 25.7299 0.779905 24.77 0.799905 23.82C0.849905 22.17 1.81989 20.93 3.40989 21.16C6.58989 21.6 8.5199 20.55 9.2299 17.37C9.3099 17 9.5899 16.6701 9.9199 16.0501L9.90989 16.0601ZM26.9799 37.53C32.7999 37.63 37.6099 32.95 37.6799 27.11C37.7399 21.44 33.0899 16.64 27.4499 16.53C21.5599 16.42 16.7399 20.9801 16.6099 26.8001C16.4699 32.6001 21.1399 37.43 26.9899 37.53H26.9799Z" fill="#F0801B"/>
</svg>
