<svg width="20" height="12" viewBox="0 0 20 12" fill="none" xmlns="http://www.w3.org/2000/svg">
<path d="M14.4701 11.8601C14.2201 11.8301 13.8602 11.8201 13.5302 11.7601C10.3702 11.2101 7.46021 10.3701 5.16021 8.81015C3.63021 7.77015 2.27016 6.65015 1.24016 5.38015C0.550164 4.52015 0.250169 3.62015 0.620169 2.66015C0.840169 2.08015 1.29021 1.58015 1.91021 1.14015C2.37021 0.810146 2.95019 0.650148 3.64019 0.630148C4.43019 0.610148 5.02012 0.760145 5.32012 1.26014C5.72012 1.92015 6.14012 2.58015 6.57012 3.24015C6.81012 3.61015 6.69013 3.94015 6.33013 4.24015C6.12013 4.42015 5.90022 4.60015 5.67022 4.77015C5.24022 5.08015 5.20021 5.39015 5.54021 5.74015C6.96021 7.22015 8.87018 8.32015 11.3802 9.00015C12.1402 9.20015 12.3801 9.16015 12.9701 8.75015C13.3401 8.49015 13.6702 8.20015 14.0302 7.93015C14.3602 7.68015 14.7902 7.61015 15.2502 7.75015C16.3402 8.08015 17.4302 8.43015 18.5102 8.77015C19.0302 8.94015 19.2002 9.22015 19.1302 9.58015C19.0202 10.1801 18.6902 10.7001 17.9202 11.0901C16.9302 11.5801 15.8201 11.8501 14.4701 11.8701V11.8601Z" fill="white"/>
</svg>
