<svg width="81" height="81" viewBox="0 0 81 81" fill="none" xmlns="http://www.w3.org/2000/svg">
<path d="M40.6599 79.48C62.3316 79.48 79.8999 61.9116 79.8999 40.24C79.8999 18.5683 62.3316 1 40.6599 1C18.9883 1 1.41992 18.5683 1.41992 40.24C1.41992 61.9116 18.9883 79.48 40.6599 79.48Z" stroke="#231F20" stroke-width="1.18" stroke-miterlimit="10"/>
<path d="M11.29 40.2402H69.58" stroke="#231F20" stroke-width="1.44" stroke-miterlimit="10"/>
<path d="M21.1296 47.1501C21.3396 46.8201 21.2396 46.3701 20.9096 46.1601L11.6196 40.2402L20.9096 34.32C21.2496 34.11 21.3396 33.66 21.1296 33.33C20.9196 33 20.4696 32.9 20.1396 33.11L9.88957 39.6401C9.67957 39.7701 9.55957 40.0002 9.55957 40.2502C9.55957 40.5002 9.68957 40.73 9.88957 40.86L20.1396 47.3901C20.2596 47.4701 20.3896 47.5002 20.5296 47.5002C20.7696 47.5002 20.9996 47.3801 21.1396 47.1701L21.1296 47.1501Z" fill="#231F20"/>
</svg>
