<svg width="134" height="135" viewBox="0 0 134 135" fill="none" xmlns="http://www.w3.org/2000/svg">
<path d="M32.9207 66.0184H8.43066V69.2602H32.9207V66.0184Z" fill="white"/>
<path d="M133.36 66.0184H108.87V69.2602H133.36V66.0184Z" fill="white"/>
<path d="M43.5206 100.119H31.3506V41.443H43.5206V100.119ZM34.4706 96.9978H40.4006V44.5651H34.4706V96.9978Z" fill="white"/>
<path d="M69.5702 103.641C69.3402 103.641 46.4002 102.611 40.4602 79.1364L40.4102 78.7563V59.8944L40.5502 59.5939C40.9802 58.6433 51.1902 36.4597 71.7702 37.3903L71.6302 40.4821C54.3302 39.6215 44.7501 58.0434 43.5101 60.575V78.556C48.9301 99.5591 68.8302 100.51 69.6702 100.54L69.5702 103.632V103.641Z" fill="white"/>
<path d="M69.6205 83.9897V92.9352L67.5405 92.3147L64.1906 93.6456L61.6906 90.9941L57.3206 91.1538V87.6419L53.4205 87.5617V84.4397L49.8306 81.5482L50.8405 78.1159L47.4906 75.0739L49.2106 72.1121L46.5605 68.52L49.2106 65.5582L48.0405 62.206L50.9305 59.7044L49.6805 56.7426L53.6606 55.1816L53.3506 51.8993L57.6405 50.8889L58.0905 47.8469H62.4706L64.8105 45.5056L65.9005 46.4461C65.9005 46.4461 68.7305 45.8957 69.6205 46.1359V53.4706C69.6205 53.4706 58.2606 56.042 58.4906 70.0908C58.4906 70.0908 57.2705 80.7577 69.6205 84.0097V83.9897Z" fill="white"/>
<path d="M83.6501 45.8159V97.6281C83.6501 97.6281 88.5401 102.621 84.6901 104.082C84.6901 104.082 78.1401 104.913 77.8301 102.421V40.8325C77.8301 40.8325 83.0501 35.6091 87.0301 38.7211C87.0301 38.7211 88.6901 41.1427 83.6501 45.8256V45.8159Z" fill="white"/>
<path d="M100.391 39.772V101.881C100.391 101.881 97.8905 105.834 92.2805 103.022C92.2805 103.022 91.6605 100.32 95.6105 96.7776V46.416C95.6105 46.416 91.3505 38.8613 95.3005 37.7006C95.3005 37.7006 97.9005 36.8501 100.391 39.762V39.772Z" fill="white"/>
<path d="M102.32 104.212V40.0421C102.32 40.0421 106.74 36.8701 109.75 39.2616C109.75 39.2616 111.62 41.6533 107.67 45.1955V96.9276C107.67 96.9276 110.11 99.9695 108.87 102.931C108.87 102.931 107.23 105.723 102.32 104.212Z" fill="white"/>
<path d="M75.9605 40.1923V102.301C75.9605 102.301 72.2205 105.113 69.1005 102.301C69.1005 102.301 66.9105 99.9095 70.9705 94.6062V36.8601L77.1105 39.4616C77.1105 39.4616 76.2005 39.722 75.9705 40.1923H75.9605Z" fill="white"/>
<path d="M70.9707 38.7111H68.5107V46.4359H70.9707V38.7111Z" fill="white"/>
<path d="M97.0206 65.3579H81.8105V72.9628H97.0206V65.3579Z" fill="white"/>
<path d="M7.06055 83.099L19.1206 79.7771L19.5705 81.408L14.2206 82.8787L20.4806 84.7001L21.0806 86.8914L15.5506 85.1403L9.07055 90.3736L8.49055 88.2624L13.5406 84.4798L11.1606 83.7092L7.52055 84.7099L7.07055 83.079L7.06055 83.099Z" fill="white"/>
<path d="M21.2407 87.1914L21.9307 88.7427L15.7407 91.4944C14.7607 91.9347 14.1307 92.2345 13.8607 92.4046C13.4207 92.6748 13.1207 93.0052 12.9407 93.3755C12.7707 93.7557 12.7807 94.1559 12.9707 94.5862C13.1607 95.0264 13.4507 95.2967 13.8107 95.3967C14.1807 95.4968 14.5707 95.4868 14.9707 95.3567C15.3707 95.2266 16.0407 94.9664 16.9407 94.5661L23.2607 91.7543L23.9507 93.3056L17.9507 95.9772C16.5807 96.5876 15.5907 96.9775 14.9907 97.1376C14.3907 97.3077 13.8407 97.3679 13.3507 97.3179C12.8607 97.2678 12.4207 97.108 12.0207 96.8278C11.6207 96.5576 11.2907 96.1171 11.0207 95.5067C10.7007 94.7762 10.5707 94.1658 10.6607 93.6754C10.7407 93.1851 10.9407 92.7453 11.2407 92.345C11.5407 91.9448 11.9007 91.6146 12.3107 91.3444C12.9207 90.9542 13.8607 90.4734 15.1407 89.9031L21.2307 87.1914H21.2407Z" fill="white"/>
<path d="M14.5605 102.121L23.8505 93.5156L24.8105 94.9565L18.3605 100.78L26.3605 97.288L27.4806 98.959L21.0305 105.033L29.0106 101.26L29.9605 102.681L18.4305 107.934L17.4406 106.444L24.2906 99.8692L15.5905 103.672L14.5705 102.141L14.5605 102.121Z" fill="white"/>
<path d="M25.7403 116.22L24.4903 114.869L26.0803 112.397L23.8003 109.936L21.2503 111.357L20.0303 110.036L31.4203 103.932L32.6403 105.243L25.7503 116.21L25.7403 116.22ZM27.2503 110.566L29.8703 106.564L25.7003 108.885L27.2503 110.566Z" fill="white"/>
<path d="M26.9902 117.2L35.2602 107.815L36.5302 108.935L28.2602 118.321L26.9902 117.2Z" fill="white"/>
<path d="M31.5303 120.953L37.6703 112.568L35.6603 111.097L36.9103 109.385L42.2803 113.328L41.0303 115.039L39.0303 113.568L32.8903 121.953L31.5303 120.953Z" fill="white"/>
<path d="M46.7401 124.525L47.9001 125.926C47.0901 127.056 46.2801 127.797 45.4701 128.147C44.6601 128.497 43.8501 128.488 43.0301 128.097C42.0201 127.627 41.4401 126.726 41.2701 125.385C41.1001 124.054 41.4401 122.494 42.2701 120.712C43.1501 118.831 44.1701 117.521 45.3101 116.78C46.4501 116.04 47.5501 115.919 48.6201 116.42C49.5501 116.86 50.1101 117.62 50.3001 118.711C50.4201 119.362 50.3501 120.172 50.1001 121.163L48.3301 120.993C48.5201 120.362 48.5501 119.812 48.4201 119.342C48.3001 118.872 48.0301 118.531 47.6201 118.341C47.0601 118.081 46.4601 118.161 45.8301 118.601C45.2001 119.041 44.5701 119.932 43.9301 121.283C43.2601 122.714 42.9501 123.814 43.0101 124.585C43.0701 125.355 43.3801 125.866 43.9301 126.126C44.3401 126.316 44.7801 126.286 45.2501 126.036C45.7201 125.786 46.2201 125.275 46.7401 124.505V124.525Z" fill="white"/>
<path d="M48.7002 130.298L52.2802 118.311L53.9002 118.791L52.4902 123.514L55.6702 124.465L57.0802 119.742L58.7002 120.222L55.1202 132.21L53.5002 131.729L55.0602 126.486L51.8802 125.536L50.3202 130.779L48.7002 130.298Z" fill="white"/>
<path d="M57.8909 132.81L59.7209 120.432L65.8609 121.343L65.5509 123.434L61.0809 122.774L60.6709 125.516L64.8309 126.136L64.5209 128.217L60.3609 127.597L59.8609 130.969L64.4909 131.659L64.1808 133.741L57.8809 132.81H57.8909Z" fill="white"/>
<path d="M66.8206 134.021L66.6406 121.513L69.1706 121.473L70.8106 129.988L72.1906 121.433L74.7306 121.393L74.9106 133.901L73.3406 133.921L73.2006 124.075L71.6806 133.941L70.0506 133.961L68.2506 124.134L68.3906 133.981L66.8206 134.001V134.021Z" fill="white"/>
<path d="M77.3201 133.611L75.8701 121.183L77.5501 120.983L79.0001 133.41L77.3201 133.611Z" fill="white"/>
<path d="M85.6204 127.487L87.3904 127.887C87.4404 129.278 87.2604 130.358 86.8304 131.129C86.4004 131.899 85.7504 132.39 84.8704 132.58C83.7804 132.82 82.7704 132.47 81.8204 131.519C80.8704 130.569 80.1904 129.128 79.7604 127.207C79.3104 125.175 79.3104 123.514 79.7604 122.233C80.2104 120.952 81.0104 120.182 82.1604 119.932C83.1604 119.712 84.0704 119.972 84.8904 120.712C85.3804 121.153 85.8304 121.843 86.2304 122.774L84.7304 123.724C84.4904 123.114 84.1804 122.654 83.7904 122.364C83.4004 122.064 82.9904 121.963 82.5504 122.063C81.9504 122.203 81.5304 122.634 81.2904 123.364C81.0604 124.095 81.1003 125.195 81.4303 126.646C81.7703 128.187 82.2004 129.248 82.7204 129.818C83.2404 130.388 83.7904 130.609 84.3904 130.479C84.8304 130.379 85.1604 130.089 85.3804 129.598C85.6004 129.108 85.6804 128.407 85.6204 127.477V127.487Z" fill="white"/>
<path d="M97.7707 128.117L96.0507 128.777L94.3407 126.386L91.2207 127.597L91.6007 130.499L89.9307 131.149L88.4707 118.301L90.1407 117.661L97.7807 128.127L97.7707 128.117ZM93.0807 124.625L90.3307 120.712L90.9507 125.456L93.0807 124.635V124.625Z" fill="white"/>
<path d="M99.5205 127.187L93.5205 116.33L95.0005 115.509L99.9805 124.525L103.661 122.483L104.68 124.325L99.5205 127.187Z" fill="white"/>
<path d="M109.381 121.123L101.381 111.507L102.681 110.426L105.831 114.208L108.381 112.087L105.231 108.305L106.531 107.224L114.531 116.84L113.231 117.921L109.731 113.718L107.181 115.84L110.681 120.042L109.381 121.123Z" fill="white"/>
<path d="M111.83 110.947C110.87 110.106 110.16 109.295 109.68 108.535C109.33 107.974 109.07 107.394 108.91 106.814C108.75 106.234 108.71 105.713 108.78 105.253C108.88 104.643 109.15 104.082 109.61 103.572C110.43 102.651 111.51 102.281 112.86 102.481C114.21 102.681 115.64 103.462 117.17 104.803C118.68 106.143 119.62 107.464 119.99 108.765C120.36 110.066 120.13 111.187 119.32 112.107C118.49 113.038 117.41 113.408 116.08 113.208C114.74 113.008 113.33 112.247 111.84 110.926L111.83 110.947ZM112.92 109.586C113.98 110.526 114.93 111.066 115.77 111.226C116.61 111.377 117.25 111.207 117.7 110.696C118.15 110.186 118.24 109.536 117.99 108.735C117.73 107.935 117.06 107.044 115.97 106.084C114.9 105.133 113.95 104.582 113.15 104.432C112.34 104.282 111.71 104.472 111.25 104.993C110.79 105.513 110.68 106.174 110.94 106.964C111.19 107.755 111.86 108.625 112.94 109.586H112.92Z" fill="white"/>
<path d="M112.771 100.17L113.681 98.749L119.381 102.411C120.281 102.991 120.881 103.352 121.171 103.492C121.641 103.712 122.081 103.782 122.491 103.722C122.901 103.662 123.231 103.432 123.481 103.031C123.741 102.631 123.811 102.241 123.701 101.881C123.591 101.521 123.361 101.2 123.031 100.93C122.701 100.66 122.111 100.25 121.281 99.7193L115.461 95.9772L116.371 94.5564L121.891 98.1084C123.151 98.9189 124.021 99.5292 124.491 99.9494C124.961 100.36 125.311 100.79 125.541 101.22C125.771 101.651 125.871 102.121 125.861 102.601C125.861 103.082 125.671 103.602 125.311 104.162C124.881 104.832 124.431 105.273 123.981 105.473C123.531 105.673 123.051 105.753 122.551 105.713C122.051 105.673 121.581 105.563 121.131 105.363C120.471 105.073 119.551 104.542 118.371 103.782L112.761 100.18L112.771 100.17Z" fill="white"/>
<path d="M124.39 97.4677L124.86 95.8666C125.65 96.1168 126.29 96.1873 126.76 96.0772C127.23 95.9671 127.58 95.6668 127.8 95.2066C128.03 94.7062 128.04 94.2659 127.84 93.8756C127.64 93.4854 127.33 93.1853 126.91 92.9952C126.64 92.8751 126.39 92.8249 126.15 92.8349C125.91 92.855 125.67 92.9651 125.4 93.1652C125.22 93.3053 124.87 93.6353 124.34 94.1756C123.66 94.8561 123.02 95.2665 122.42 95.3966C121.58 95.5767 120.71 95.4668 119.81 95.0566C119.23 94.7964 118.74 94.4359 118.34 93.9856C117.94 93.5353 117.7 93.045 117.62 92.5047C117.55 91.9743 117.64 91.4043 117.91 90.8239C118.35 89.8633 118.99 89.293 119.84 89.0929C120.69 88.8927 121.64 89.0227 122.69 89.473L122.09 91.0638C121.48 90.8637 120.99 90.8138 120.64 90.9138C120.29 91.0139 120.01 91.2839 119.81 91.7141C119.61 92.1644 119.58 92.5749 119.74 92.9551C119.84 93.1953 120.04 93.3852 120.33 93.5253C120.6 93.6454 120.86 93.6753 121.12 93.6152C121.45 93.5352 121.92 93.1751 122.53 92.5447C123.14 91.9143 123.66 91.484 124.11 91.2539C124.56 91.0237 125.07 90.9136 125.65 90.9436C126.23 90.9636 126.88 91.1438 127.6 91.464C128.25 91.7642 128.81 92.1646 129.26 92.6649C129.72 93.1652 129.98 93.7054 130.06 94.2758C130.14 94.8461 130.02 95.4666 129.72 96.127C129.28 97.0876 128.61 97.6778 127.71 97.8879C126.81 98.098 125.7 97.9681 124.38 97.4878L124.39 97.4677Z" fill="white"/>
<path d="M131.791 90.6036L119.811 87.0213L121.591 81.0679L123.621 81.6781L122.321 86.0109L124.981 86.8014L126.191 82.7686L128.211 83.3691L127.001 87.4014L130.261 88.382L131.601 83.8992L133.621 84.4997L131.791 90.6036Z" fill="white"/>
<path d="M3.62047 39.6519C3.95047 40.0321 4.45047 40.7324 5.12047 41.753L3.12047 43.1037L3.54047 43.8342L3.98047 44.5548C3.79047 44.865 3.10047 45.3555 1.91047 46.026C1.67047 45.7258 1.43047 45.3753 1.18047 44.995C0.950466 44.6548 0.720469 44.2747 0.480469 43.8645C0.580469 43.8444 0.710463 43.7845 0.880463 43.6944L1.52046 43.3338C2.01046 43.0237 2.29047 42.8136 2.36047 42.7036L2.31046 42.6034L1.99046 41.9333L1.52046 41.0526L3.61047 39.6619L3.62047 39.6519ZM12.3105 41.0226L12.5605 41.1127L12.9705 41.2627L13.4205 41.4828L14.0105 40.022L18.0405 41.5429L15.3705 48.7073C15.8505 49.2176 16.2705 49.798 16.6305 50.4384C16.9905 51.0788 17.2805 51.7896 17.5205 52.5701C17.7605 53.3506 17.8705 54.1011 17.8605 54.8215C17.8605 55.542 17.7305 56.2222 17.4905 56.8526C17.0605 58.0133 16.4005 58.7738 15.5305 59.144C14.6605 59.5143 13.6405 59.4844 12.4905 59.0541C11.9505 58.854 11.3905 58.5537 10.8205 58.1434C10.2405 57.7332 9.67046 57.2426 9.10046 56.6723C8.45046 56.0319 7.95046 55.4317 7.60046 54.8713C7.25046 54.311 7.04047 53.7708 6.98047 53.2605C7.16047 53.3305 7.40047 53.4806 7.68047 53.7207C7.83047 53.8408 7.99047 53.9808 8.15047 54.1409C8.32047 54.301 8.53046 54.511 8.78046 54.7712C9.54046 55.5517 10.2805 56.0818 10.9805 56.342C11.8605 56.6722 12.6805 56.6022 13.4305 56.1319C13.7405 55.9018 14.0205 55.6217 14.2705 55.2915C14.5205 54.9613 14.7305 54.5611 14.9105 54.0808C15.1105 53.5505 15.3205 52.4798 15.5405 50.8688L15.4605 50.8087C14.8205 50.5686 14.1905 50.8687 13.5805 51.7092L13.0905 52.4797C12.8705 52.87 12.6705 53.2905 12.5005 53.7408C12.0805 53.5006 11.6605 53.1902 11.2305 52.79C11.0005 52.5898 10.7705 52.3595 10.5205 52.1094C10.2705 51.8592 10.0205 51.5794 9.76047 51.2793L12.8705 42.9239C12.2405 42.8639 11.6005 42.8538 10.9605 42.8839C10.3605 42.8839 9.73046 42.9438 9.07047 43.0339L6.70046 40.7424C9.10046 40.4322 10.9605 40.5223 12.3005 41.0226H12.3105ZM19.6905 55.1513C20.2105 55.6816 20.5605 56.122 20.7305 56.4822C20.6605 56.6023 20.2205 56.9224 19.4105 57.4227C19.5105 57.7029 19.6905 58.0333 19.9705 58.3936C19.6805 58.8338 19.2105 59.1442 18.5705 59.3243L17.6105 57.9934C17.6105 57.9934 17.6605 57.9533 17.6805 57.9333C17.7905 57.8533 17.9705 57.7431 18.2005 57.603C18.5805 57.4229 18.7905 57.2626 18.8405 57.1325C18.8405 57.1125 18.8405 57.1025 18.8405 57.0925C18.8205 57.0124 18.7805 56.9226 18.7405 56.8325L18.2905 56.0322L18.9305 55.6018L19.7005 55.1513H19.6905Z" fill="white"/>
<path d="M16.7003 35.0489L21.0703 38.4609L17.4503 44.0447L13.7603 41.6431L16.7403 37.0501L16.7103 37.0101C15.6903 36.7099 14.4903 36.4698 13.1003 36.3097L11.2803 33.618C11.5003 33.618 11.7003 33.6181 11.8903 33.6381C12.0703 33.6481 12.3203 33.6779 12.6203 33.6979C12.8503 33.7279 13.0303 33.758 13.1503 33.7781C13.5503 33.8281 13.8703 33.8783 14.1103 33.9283C14.5903 34.0484 15.0503 34.1984 15.4903 34.3885C15.9203 34.5787 16.3303 34.7987 16.7003 35.0389V35.0489ZM23.6703 41.0727C24.1303 41.7431 24.4703 42.4037 24.6803 43.0641C24.5403 43.1942 24.2403 43.3342 23.7803 43.4843L22.7903 43.7745L22.9903 44.3047L23.3103 45.0849C22.7903 45.4752 22.1303 45.6957 21.3103 45.7558L20.4003 43.7643C20.9603 43.7143 21.5503 43.5542 22.1803 43.264C22.1603 43.0839 22.0803 42.8237 21.9603 42.4935C21.7903 42.1232 21.6803 41.8731 21.6603 41.723L23.6603 41.0626L23.6703 41.0727Z" fill="white"/>
<path d="M26.8708 31.3666L26.1008 32.2771L26.8208 33.6181L27.5708 34.9888C28.1008 36.2696 28.1108 37.2102 27.6108 37.8006C27.1708 38.3209 26.5408 38.8812 25.7208 39.4816C24.8008 40.122 24.0508 40.4823 23.4808 40.5824C25.0608 38.7212 25.5908 36.3597 25.0508 33.5079C24.1308 34.3684 23.4908 34.8787 23.1308 35.0188C22.3908 35.359 21.6208 35.209 20.8408 34.5386C20.4208 34.1783 19.9908 33.7182 19.5608 33.1678C19.1308 32.6175 18.6908 31.947 18.2408 31.1465C17.2008 29.3154 16.9608 28.0646 17.5308 27.3942C17.9208 26.9339 18.8208 27.0039 20.2508 27.5742C20.3808 27.6343 20.5908 27.7344 20.8808 27.8845C21.0908 27.9946 21.3108 28.1045 21.5308 28.2245C21.6108 28.2746 21.8208 28.3948 22.1508 28.6049C22.4808 28.805 22.7608 28.9752 22.9808 29.1152L23.5008 28.5047L26.8508 31.3566L26.8708 31.3666ZM21.5708 30.486C21.4708 30.4059 21.3608 30.3359 21.2108 30.2759C21.0708 30.2158 20.8808 30.1759 20.6508 30.1459C20.2308 30.0659 19.9408 30.1158 19.7908 30.3059C19.7508 30.346 19.7308 30.416 19.7208 30.516V30.7962C19.7108 31.0264 19.7208 31.1864 19.7908 31.2765C19.9908 31.4466 20.2708 31.5068 20.6108 31.4368C20.8908 31.3567 21.1408 31.2265 21.3508 31.0263C21.5708 30.7662 21.6408 30.586 21.5608 30.486H21.5708Z" fill="white"/>
<path d="M32.6905 26.1932L31.3305 27.4242L28.4005 26.6838L29.1805 29.3654L25.9805 32.247L23.0405 28.975L26.1705 26.1534L20.2105 25.5329L18.0205 21.3904L21.7805 14.9264L22.4005 16.057C22.6905 16.5873 22.9805 17.1476 23.2805 17.728L20.6505 22.8913L24.7305 23.4317C26.4205 23.6619 27.7905 23.7517 28.8505 23.7217L29.7305 22.9214L32.6705 26.1932H32.6905Z" fill="white"/>
<path d="M29.8509 14.506L30.1209 17.9183L32.8509 21.2602C33.0009 21.4703 33.3109 22.0407 33.8009 23.0013C34.2909 23.9519 34.5409 24.5422 34.5409 24.7424L34.2309 25.2527L31.8809 26.9339L29.3209 23.3516L31.3209 21.9208V21.8407L31.2509 21.7405C30.5609 20.7799 29.7909 19.8593 28.9309 18.9788C27.8509 17.9081 26.9009 17.2778 26.0909 17.1077L25.7609 15.9368C25.7309 15.7967 25.7009 15.6567 25.6609 15.5166C25.6209 15.3765 25.6009 15.2365 25.5809 15.1065C25.3509 14.1258 25.3109 13.4655 25.4609 13.1353L25.8109 13.5955C26.0809 13.9657 26.6809 14.2159 27.6409 14.346C28.0109 14.396 28.3609 14.4161 28.7009 14.4261C28.9909 14.4261 29.3409 14.406 29.7309 14.356L29.8309 14.496L29.8509 14.506Z" fill="white"/>
<path d="M37.2402 17.2977C38.3702 19.2389 38.8902 21.0201 38.8102 22.6211L32.8902 14.386C32.7402 14.1759 32.5302 12.7349 32.2402 10.0833C34.7502 13.4754 36.4202 15.8868 37.2402 17.2977Z" fill="white"/>
<path d="M55.1405 11.164L55.2305 15.5867L47.7305 17.9581C46.2205 18.4384 45.0505 17.3878 44.2405 14.8062C43.9805 13.9657 43.8005 13.0052 43.7305 11.9245C43.6205 10.5437 43.7605 9.66298 44.1605 9.29275C44.2405 9.55291 44.3305 9.91323 44.4305 10.3935C44.5305 10.8738 44.6205 11.254 44.7105 11.5442C44.8805 12.0745 45.2105 12.5647 45.7205 12.995C46.2805 13.4653 46.8205 13.6153 47.3705 13.4352L53.5005 11.5041L53.5205 11.4242C53.3905 11.024 52.8305 10.2933 51.8205 9.22263L52.1105 5.76051C53.4005 7.05131 54.1505 8.02207 54.3605 8.66247L55.1505 11.164H55.1405ZM50.0105 4.59987C49.9305 4.99011 49.8305 5.38028 49.7205 5.77052C49.6105 6.16077 49.4705 6.571 49.3105 7.00127C49.0205 7.00127 48.6405 6.92123 48.1605 6.76113L47.0105 6.37099C46.7905 6.75123 46.5805 7.27137 46.3805 7.93179L45.9205 7.8519L45.1205 7.60175C44.4405 7.39161 44.0705 7.24155 44.0205 7.13148C43.9905 7.03142 44.2405 6.25081 44.7805 4.75988C46.0005 5.29021 46.7005 5.53032 46.8705 5.47028L46.9305 5.38038L47.2605 4.71981L47.6605 3.79932L50.0205 4.59987H50.0105Z" fill="white"/>
<path d="M61.5706 14.5461L58.5506 15.0564L55.8006 3.43901C55.7706 3.2689 55.9206 2.74877 56.2606 1.88823L56.9606 0.24707L59.4706 10.4334L60.8406 10.2033L61.5706 14.5461Z" fill="white"/>
<path d="M66.78 8.60237L66.7 14.1559L60.07 14.6362L59.75 10.2533L65.21 9.85315L65.23 9.80307C64.85 8.80244 64.31 7.7017 63.61 6.50095L64.65 3.41919C64.78 3.5893 64.9 3.75939 65 3.90949C65.1 4.06959 65.23 4.27959 65.39 4.52975C65.5 4.72987 65.59 4.88993 65.65 4.99C65.85 5.34022 66 5.62049 66.11 5.84063C66.3 6.30092 66.46 6.76109 66.57 7.22137C66.68 7.68166 66.75 8.14206 66.79 8.58233L66.78 8.60237ZM66.19 17.7981C65.93 18.5685 65.61 19.239 65.21 19.8093C65.02 19.7793 64.73 19.6192 64.33 19.3391L63.5 18.7286L63.2 19.2089L62.77 19.9393C62.15 19.7592 61.57 19.369 61.03 18.7486L62.06 16.8175C62.44 17.2277 62.92 17.6078 63.53 17.938C63.66 17.808 63.82 17.5979 64.01 17.2978C64.19 16.9375 64.34 16.6974 64.44 16.5974L66.17 17.7981H66.19Z" fill="white"/>
<path d="M75.7307 9.82301C75.6807 10.7436 75.5607 11.6441 75.3707 12.5447C75.2707 13.045 75.1507 13.5054 75.0307 13.9257C74.9107 14.3459 74.7407 14.8161 74.5407 15.3265C73.6207 17.808 72.4807 19.0186 71.1207 18.9486C69.7807 18.8785 68.3407 18.5185 66.7807 17.8681L66.1707 17.5879L66.1107 17.5278L66.0107 17.3477L68.1008 17.1577C70.1908 16.2571 71.7608 15.3165 72.8008 14.3459C73.8408 13.3752 74.3907 12.3846 74.4408 11.354L74.3808 11.2538C73.8908 12.2545 73.6407 12.7648 73.6107 12.7848C73.2707 13.2351 72.7608 13.4353 72.1008 13.4053C70.8008 13.3453 70.1808 12.4646 70.2708 10.7736C70.3008 10.2432 70.3907 9.66289 70.5607 9.0525C70.7307 8.44212 71.0107 7.71171 71.3907 6.85118C71.7707 6.00064 72.1608 5.37012 72.5508 4.96987C72.9408 4.56962 73.3507 4.36966 73.7807 4.38967L74.0007 4.42949C75.2707 5.55019 75.8407 7.34144 75.7207 9.81299L75.7307 9.82301ZM73.8707 9.50274C73.8707 9.31262 73.8707 9.14249 73.8307 8.98239L73.6707 8.63232C73.5407 8.29211 73.3407 8.0919 73.0807 8.05188C72.9007 8.05188 72.6907 8.16203 72.4307 8.39218C72.1707 8.63233 72.0407 8.84236 72.0307 9.04249C72.0307 9.18258 72.1508 9.36272 72.4108 9.57285C72.6608 9.70293 72.8807 9.79301 73.0907 9.84304C73.2307 9.84304 73.4907 9.773 73.8707 9.6029V9.52277V9.50274Z" fill="white"/>
<path d="M80.9204 15.2865L77.9004 14.8162L78.9604 2.92866C78.9904 2.75856 79.3004 2.31846 79.8904 1.60801L81.0604 0.2771L80.2304 10.7336L81.6004 10.9437L80.9204 15.2865Z" fill="white"/>
<path d="M88.5303 17.2578L86.6303 16.7575C86.5703 16.7875 86.4803 16.8876 86.3603 17.0377L86.1503 17.3679C85.9903 17.6981 85.8103 17.8981 85.5903 17.9782L82.3303 13.2653C82.2303 13.3653 82.1203 13.5254 81.9803 13.7556L81.5703 14.5161C81.4203 14.9263 81.1403 15.1464 80.7303 15.1964L79.7803 14.9463L80.9003 10.6936L82.5503 11.1341C82.6203 11.114 82.9603 10.7538 83.5703 10.0633C83.8903 9.69309 84.1903 9.38296 84.4703 9.13281C84.7203 8.90266 85.0103 8.68236 85.3403 8.46222C86.1403 7.9419 86.9503 7.79184 87.7503 8.00197C88.0703 8.08202 88.2503 8.21224 88.2903 8.39235C88.2903 8.4624 88.2903 8.53242 88.2703 8.62248C88.2603 8.71253 88.2203 8.84253 88.1703 9.03265C88.0403 9.52295 88.0303 10.1934 88.1503 11.0439C88.2603 11.8944 88.4703 12.4748 88.7703 12.795L89.6403 13.0251L88.5203 17.2778L88.5303 17.2578ZM86.1103 12.0145L86.2003 11.6644L86.2303 11.4243C86.2403 11.3142 86.2403 11.2041 86.2303 11.094C86.2403 10.8639 86.2103 10.7238 86.1303 10.6738L85.9003 10.5536C85.7703 10.5236 85.5903 10.5136 85.3603 10.5536C85.1103 10.5336 84.9603 10.5537 84.8903 10.6237C85.0603 10.994 85.4603 11.4541 86.1003 12.0145H86.1103Z" fill="white"/>
<path d="M91.7404 21.6807C91.4304 22.0009 91.1404 22.2609 90.8504 22.471C90.7104 22.5811 90.5804 22.6812 90.4404 22.7812C90.3004 22.8813 90.1604 22.9714 89.9904 23.0614C89.8204 22.9414 89.6204 22.6711 89.4104 22.2409C89.2504 22.0007 89.0804 21.7006 88.9104 21.3504L88.5704 21.5705L87.7404 22.1309C87.2704 21.7207 86.9004 21.1102 86.6504 20.3097L88.4304 19.0089C88.5804 19.5592 88.8704 20.0997 89.2804 20.64C89.4704 20.61 89.7204 20.4798 90.0504 20.2396C90.3404 20.0295 90.5504 19.8895 90.6704 19.8395L91.7404 21.6905V21.6807ZM93.8104 19.4591L92.0704 18.7787C91.6904 18.6286 91.4804 18.2385 91.4304 17.588L91.4704 16.5173L90.0204 17.9782L87.3004 16.9177L88.9004 12.8251L91.9104 14.0057C92.3604 13.3553 92.7004 12.7351 92.9404 12.1547L93.1804 11.6243C93.2304 11.5343 93.2704 11.4741 93.3004 11.434C93.3304 11.394 93.3904 11.3441 93.4904 11.274C93.8204 11.0139 94.5504 10.5635 95.6804 9.93311L95.1104 11.3942L94.8404 11.9945L94.6004 12.4547L94.1004 13.5154C93.7904 14.2959 93.9804 14.8063 94.6504 15.0765L95.4004 15.3667L93.8004 19.4591H93.8104Z" fill="white"/>
<path d="M100.81 23.2014L99.1901 22.341L98.8901 19.3291L96.6301 20.9701L92.8301 18.9388L94.9001 15.0564L98.6101 17.0477L97.1701 11.234L100.32 7.77185L107.67 9.11278L106.82 10.0834C106.42 10.5336 105.99 11.0038 105.55 11.4741L99.8101 10.7537L100.69 14.7863C101.05 16.4473 101.42 17.7681 101.82 18.7587L102.87 19.3191L100.8 23.2014H100.81Z" fill="white"/>
<path d="M110.88 16.5872L107.76 17.998L105.54 21.7003C105.4 21.9104 104.96 22.4007 104.23 23.1912C103.5 23.9717 103.04 24.402 102.84 24.4821L102.25 24.3621L99.8701 22.7109L102.37 19.0888L104.4 20.4896L104.48 20.4595L104.55 20.3596C105.22 19.389 105.82 18.3482 106.36 17.2375C107 15.8567 107.27 14.7559 107.16 13.9354L108.15 13.225C108.27 13.145 108.39 13.0649 108.51 12.9949C108.63 12.9148 108.75 12.8448 108.87 12.7748C109.71 12.2244 110.32 11.9643 110.69 11.9943L110.38 12.4846C110.12 12.8548 110.09 13.5152 110.29 14.4558C110.37 14.816 110.47 15.1562 110.57 15.4864C110.66 15.7566 110.8 16.077 110.98 16.4272L110.88 16.5772V16.5872Z" fill="white"/>
<path d="M110.71 24.4421C109.26 26.1632 107.77 27.2539 106.23 27.7242L111.97 19.3591C112.12 19.149 113.39 18.4585 115.79 17.2877C113.45 20.7999 111.75 23.1813 110.7 24.4421H110.71Z" fill="white"/>
<path d="M120.01 43.1139L119.03 41.793C118.86 41.5529 118.87 41.1527 119.07 40.6023C119.17 40.3422 119.27 40.1221 119.37 39.942C119.48 39.7719 119.61 39.6316 119.77 39.5115L117.66 40.0219L113.7 34.6587C112.75 33.3779 113.37 31.9269 115.54 30.3259C115.81 30.1257 116 29.9958 116.11 29.9257C116.23 29.8557 116.46 29.7154 116.82 29.5153C117.17 29.3152 117.65 29.0851 118.26 28.8249C119.69 28.1745 120.61 27.9743 121.03 28.2245L120.84 28.3647C120.61 28.5348 120.24 28.7548 119.71 29.025C119.18 29.2952 118.8 29.5155 118.58 29.6856C118.13 30.0258 117.79 30.496 117.56 31.0964C117.33 31.6967 117.39 32.2272 117.73 32.6875L121.38 37.6405C121.5 37.6305 121.76 37.5103 122.16 37.2702C122.56 37.03 123.04 36.7098 123.6 36.2996L126.76 36.2295L125.22 37.3603L123.09 38.6311C122.77 38.8613 122.67 39.1513 122.77 39.4915L123.52 40.5122L119.98 43.1237L120.01 43.1139ZM127.45 33.808C127.25 33.8781 126.79 33.938 126.07 33.9781C125.35 34.0181 124.93 33.9982 124.83 33.8982C124.77 33.8181 124.75 33.0074 124.77 31.4765L124.08 31.4367L123.04 31.3966C122.98 31.1565 122.93 30.7161 122.91 30.0857C122.85 29.3553 122.89 28.945 123 28.855C123.15 28.7449 124.02 28.7449 125.6 28.855C125.54 28.9951 125.49 29.3852 125.46 30.0156C125.43 30.606 125.46 30.9663 125.56 31.0864C125.58 31.0964 125.6 31.1064 125.62 31.1164C125.64 31.1164 125.68 31.1264 125.76 31.1364L126.42 31.1963L127.45 31.2764V33.798V33.808Z" fill="white"/>
<path d="M119.02 48.4274C118.58 48.4574 118.18 48.4574 117.83 48.4274C117.66 48.4274 117.49 48.4074 117.32 48.3874C117.15 48.3674 116.98 48.3375 116.8 48.2975C116.75 48.0973 116.8 47.7571 116.92 47.2968C116.96 47.0067 117.03 46.6765 117.14 46.2962L116.74 46.2361L115.75 46.0959C115.67 45.4755 115.81 44.775 116.15 44.0145L118.34 44.2349C118.09 44.7452 117.94 45.3353 117.89 46.0158C118.05 46.1158 118.33 46.1961 118.73 46.2361C119.09 46.2761 119.33 46.3158 119.46 46.3558L119.02 48.4475V48.4274ZM122.05 48.1572L121.21 46.4863C121.03 46.126 121.13 45.6857 121.53 45.1754L122.28 44.4049L120.23 44.5251L118.92 41.9133L122.85 39.9421L124.3 42.8336C125.07 42.6535 125.74 42.4236 126.3 42.1435L126.83 41.9133C126.93 41.8833 127 41.8633 127.05 41.8532C127.1 41.8532 127.18 41.8532 127.29 41.8532C127.71 41.8733 128.55 42.0333 129.82 42.3235L128.42 43.0241L127.81 43.2943L127.32 43.4741L126.24 43.9246C125.5 44.2948 125.29 44.8049 125.61 45.4554L125.97 46.176L122.04 48.147L122.05 48.1572Z" fill="white"/>
<path d="M119.811 52.4098C119.721 52.4398 119.361 52.2998 118.721 51.9696C118.561 51.8895 118.431 51.8093 118.321 51.7492C118.211 51.6892 118.121 51.6192 118.041 51.5592C117.891 51.4591 117.781 51.359 117.721 51.269C117.701 51.2089 117.721 51.0887 117.761 50.8986C117.811 50.7085 117.891 50.4583 118.021 50.1481C118.141 49.8379 118.251 49.5978 118.351 49.4177C118.451 49.2476 118.531 49.1374 118.591 49.0874C118.721 49.0374 119.131 49.1576 119.831 49.4377C120.541 49.7179 120.911 49.9184 120.951 50.0284C120.961 50.0685 120.801 50.4586 120.451 51.2191C120.101 51.9796 119.891 52.3695 119.821 52.3995L119.811 52.4098ZM129.101 50.6284C128.331 50.9186 127.391 51.159 126.281 51.3691L124.901 51.6593C124.661 51.7194 124.421 51.7693 124.201 51.8093C123.981 51.8494 123.711 51.8893 123.391 51.9393L121.591 47.1062L125.711 45.5657L127.151 49.4377L127.311 49.3977C127.671 49.2676 128.161 48.8975 128.791 48.3071C129.381 47.7768 129.781 47.3166 130.001 46.9264L133.451 47.0862C132.181 48.8373 130.731 50.018 129.091 50.6284H129.101Z" fill="white"/>
</svg>
