<svg width="81" height="81" viewBox="0 0 81 81" fill="none" xmlns="http://www.w3.org/2000/svg">
<path d="M40.7 79.89C62.3716 79.89 79.9399 62.3216 79.9399 40.65C79.9399 18.9783 62.3716 1.40991 40.7 1.40991C19.0283 1.40991 1.45996 18.9783 1.45996 40.65C1.45996 62.3216 19.0283 79.89 40.7 79.89Z" stroke="white" stroke-width="1.18" stroke-miterlimit="10"/>
<path d="M70.0702 40.6499H11.7803" stroke="white" stroke-width="1.44" stroke-miterlimit="10"/>
<path d="M60.2297 33.7399C60.0197 34.0699 60.1197 34.5199 60.4497 34.7299L69.7397 40.6499L60.4497 46.5699C60.1097 46.7799 60.0197 47.2299 60.2297 47.5599C60.4397 47.8899 60.8897 47.9899 61.2197 47.7799L71.4697 41.2499C71.6797 41.1199 71.7998 40.8899 71.7998 40.6399C71.7998 40.3899 71.6697 40.1599 71.4697 40.0299L61.2197 33.4999C61.0997 33.4199 60.9697 33.3899 60.8297 33.3899C60.5897 33.3899 60.3597 33.5098 60.2197 33.7198L60.2297 33.7399Z" fill="white"/>
</svg>
