<svg width="52" height="52" viewBox="0 0 52 52" fill="none" xmlns="http://www.w3.org/2000/svg">
<path d="M26.1704 50.8317C40.0107 50.8317 51.2303 39.6049 51.2303 25.7559C51.2303 11.907 40.0107 0.680176 26.1704 0.680176C12.3302 0.680176 1.11035 11.907 1.11035 25.7559C1.11035 39.6049 12.3302 50.8317 26.1704 50.8317Z" stroke="#231F20" stroke-width="0.75" stroke-miterlimit="10"/>
<path d="M44.9303 25.7559H7.7002" stroke="#231F20" stroke-width="0.92" stroke-miterlimit="10"/>
<path d="M38.6402 21.3432C38.5002 21.5534 38.5702 21.8435 38.7802 21.9835L44.7102 25.7659L38.7802 29.5483C38.5702 29.6884 38.5002 29.9685 38.6402 30.1786C38.7802 30.3887 39.0602 30.4589 39.2702 30.3188L45.8103 26.1461C45.9403 26.066 46.0202 25.916 46.0202 25.7559C46.0202 25.5958 45.9403 25.4558 45.8103 25.3658L39.2702 21.193C39.1902 21.143 39.1102 21.1229 39.0202 21.1229C38.8702 21.1229 38.7202 21.2031 38.6302 21.3332L38.6402 21.3432Z" fill="#231F20"/>
</svg>
