<svg width="32" height="33" viewBox="0 0 32 33" fill="none" xmlns="http://www.w3.org/2000/svg">
<path d="M16.1604 32.11C13.8104 32.16 11.6704 31.69 9.65039 30.72C8.83039 30.32 8.09038 30.32 7.26038 30.6C5.33038 31.25 3.38031 31.85 1.44031 32.47C1.12031 32.57 0.81035 32.67 0.48035 32.75C0.19035 32.82 0.0103357 32.6101 0.0903357 32.3001C0.220336 31.8601 0.36038 31.43 0.51038 30.99C1.08038 29.34 1.65033 27.69 2.21033 26.04C2.25033 25.92 2.29034 25.8 2.34034 25.69C2.66034 25 2.61033 24.37 2.21033 23.68C1.57033 22.6 1.1804 21.41 0.910404 20.19C-0.379596 14.34 1.16038 9.30005 5.39038 5.14005C8.02038 2.56005 11.2604 1.17005 14.9804 0.840049C22.3604 0.170049 29.0904 5.01005 31.1304 11.61C33.8904 20.5401 28.6604 29.47 19.8704 31.7C18.6204 32.02 17.3404 32.1901 16.1404 32.1201L16.1604 32.11Z" fill="white"/>
</svg>
