<svg width="17" height="15" viewBox="0 0 17 15" fill="none" xmlns="http://www.w3.org/2000/svg">
<path d="M12.2907 14.86C12.0807 14.83 11.7907 14.81 11.5107 14.73C8.90065 14.02 6.51063 12.94 4.61063 10.93C3.34063 9.58998 2.22065 8.15998 1.38065 6.51998C0.810646 5.41998 0.560636 4.25998 0.870636 3.01998C1.05064 2.26998 1.43069 1.63998 1.93069 1.06998C2.31069 0.649978 2.79063 0.439978 3.36063 0.409978C4.01063 0.379978 4.50064 0.56998 4.75064 1.21998C5.08064 2.06998 5.43067 2.91998 5.78067 3.75998C5.98067 4.23998 5.8806 4.65998 5.5806 5.04998C5.4106 5.27998 5.23067 5.50998 5.03067 5.72998C4.68067 6.11998 4.64068 6.51998 4.92068 6.97998C6.09068 8.87998 7.67062 10.3 9.73062 11.17C10.3506 11.43 10.5607 11.38 11.0407 10.85C11.3507 10.51 11.6207 10.14 11.9107 9.78998C12.1907 9.46998 12.5307 9.37998 12.9207 9.55998C13.8207 9.98998 14.7206 10.43 15.6106 10.87C16.0406 11.08 16.1806 11.45 16.1206 11.91C16.0306 12.68 15.7506 13.35 15.1206 13.85C14.3106 14.49 13.3907 14.83 12.2707 14.86H12.2907Z" fill="white"/>
</svg>
