<svg width="36" height="36" viewBox="0 0 36 36" fill="none" xmlns="http://www.w3.org/2000/svg">
<path d="M0.349709 8.19994C0.349709 6.58994 0.339709 4.97998 0.349709 3.36998C0.369709 1.48998 1.56972 0.259985 3.41972 0.249985C6.66972 0.239985 9.92973 0.199995 13.1797 0.259995C15.1897 0.299995 16.9397 1.12 18.3497 2.52C23.8297 7.96 29.2997 13.41 34.7497 18.88C36.2097 20.34 36.1897 22.04 34.7397 23.51C31.0597 27.21 27.3697 30.9 23.6697 34.59C22.1397 36.11 20.5097 36.11 18.9797 34.59C13.4897 29.11 8.00971 23.62 2.53971 18.11C1.09971 16.66 0.369709 14.86 0.349709 12.81C0.329709 11.27 0.349709 9.73994 0.349709 8.19994ZM4.83976 7.71996C4.83976 9.33996 6.20974 10.73 7.81974 10.74C9.41974 10.75 10.8297 9.35999 10.8597 7.74999C10.8797 6.08999 9.47972 4.68995 7.79972 4.70995C6.13972 4.71995 4.83976 6.04996 4.83976 7.71996Z" fill="#F0801B"/>
</svg>
