<svg width="20" height="12" viewBox="0 0 20 12" fill="none" xmlns="http://www.w3.org/2000/svg">
<path d="M14.4706 11.8599C14.2206 11.8299 13.8607 11.8199 13.5307 11.7599C10.3707 11.2099 7.4607 10.3699 5.1607 8.8099C3.6307 7.7699 2.27065 6.6499 1.24065 5.3799C0.550653 4.5199 0.250658 3.6199 0.620658 2.6599C0.840658 2.0799 1.2907 1.5799 1.9107 1.1399C2.3707 0.809902 2.95068 0.649904 3.64068 0.629904C4.43068 0.609904 5.02061 0.759901 5.32061 1.2599C5.72061 1.9199 6.14061 2.5799 6.57061 3.2399C6.81061 3.6099 6.69062 3.9399 6.33062 4.2399C6.12062 4.4199 5.90071 4.5999 5.67071 4.7699C5.24071 5.0799 5.2007 5.3899 5.5407 5.7399C6.9607 7.2199 8.87067 8.3199 11.3807 8.9999C12.1407 9.1999 12.3806 9.1599 12.9706 8.7499C13.3406 8.4899 13.6707 8.1999 14.0307 7.9299C14.3607 7.6799 14.7907 7.6099 15.2507 7.7499C16.3407 8.0799 17.4307 8.4299 18.5107 8.7699C19.0307 8.9399 19.2007 9.2199 19.1307 9.5799C19.0207 10.1799 18.6907 10.6999 17.9207 11.0899C16.9307 11.5799 15.8206 11.8499 14.4706 11.8699V11.8599Z" fill="white"/>
</svg>
